<svg width="224" height="151" viewBox="0 0 224 151" fill="none" xmlns="http://www.w3.org/2000/svg">
<mask id="mask0_236_527" style="mask-type:alpha" maskUnits="userSpaceOnUse" x="0" y="0" width="224" height="151">
<path fill-rule="evenodd" clip-rule="evenodd" d="M0.77832 16.2727C0.77832 7.43614 7.94176 0.272705 16.7783 0.272705L208 0.272705C216.837 0.272705 224 7.43615 224 16.2727V134.748C224 143.584 216.837 150.748 208 150.748H73C64.1635 150.748 57 143.584 57 134.748V54.0627C57 45.2262 49.8366 38.0627 41 38.0627H16.7783C7.94177 38.0627 0.77832 30.8993 0.77832 22.0627L0.77832 16.2727Z" fill="#000000"/>
</mask>
<g mask="url(#mask0_236_527)">
<path fill-rule="evenodd" clip-rule="evenodd" d="M0.77832 16.2727C0.77832 7.43614 7.94177 0.272705 16.7783 0.272705L208 0.272705C216.837 0.272705 224 7.43615 224 16.2727V134.748C224 143.584 216.837 150.748 208 150.748H73C64.1635 150.748 57 143.584 57 134.748V54.0627C57 45.2262 49.8366 38.0627 41 38.0627H16.7783C7.94177 38.0627 0.77832 30.8993 0.77832 22.0627L0.77832 16.2727Z" fill="#1F1F39"/>
<path d="M20.6367 24.793L24.0352 10.4375H25.9336L26.3672 12.8281L22.7461 27.5H20.707L20.6367 24.793ZM18.8906 10.4375L21.7031 24.793L21.4688 27.5H19.1953L15.4102 10.4375H18.8906ZM29.3555 24.7344L32.1328 10.4375H35.6133L31.8398 27.5H29.5664L29.3555 24.7344ZM27 10.4375L30.4219 24.8516L30.3281 27.5H28.2891L24.6445 12.8164L25.1133 10.4375H27ZM42.7734 27.7344C41.7891 27.7344 40.9062 27.5781 40.125 27.2656C39.3438 26.9453 38.6797 26.5039 38.1328 25.9414C37.5938 25.3789 37.1797 24.7266 36.8906 23.9844C36.6016 23.2344 36.457 22.4375 36.457 21.5938V21.125C36.457 20.1641 36.5938 19.2852 36.8672 18.4883C37.1406 17.6914 37.5312 17 38.0391 16.4141C38.5547 15.8281 39.1797 15.3789 39.9141 15.0664C40.6484 14.7461 41.4766 14.5859 42.3984 14.5859C43.2969 14.5859 44.0938 14.7344 44.7891 15.0312C45.4844 15.3281 46.0664 15.75 46.5352 16.2969C47.0117 16.8438 47.3711 17.5 47.6133 18.2656C47.8555 19.0234 47.9766 19.8672 47.9766 20.7969V22.2031H37.8984V19.9531H44.6602V19.6953C44.6602 19.2266 44.5742 18.8086 44.4023 18.4414C44.2383 18.0664 43.9883 17.7695 43.6523 17.5508C43.3164 17.332 42.8867 17.2227 42.3633 17.2227C41.918 17.2227 41.5352 17.3203 41.2148 17.5156C40.8945 17.7109 40.6328 17.9844 40.4297 18.3359C40.2344 18.6875 40.0859 19.1016 39.9844 19.5781C39.8906 20.0469 39.8438 20.5625 39.8438 21.125V21.5938C39.8438 22.1016 39.9141 22.5703 40.0547 23C40.2031 23.4297 40.4102 23.8008 40.6758 24.1133C40.9492 24.4258 41.2773 24.668 41.6602 24.8398C42.0508 25.0117 42.4922 25.0977 42.9844 25.0977C43.5938 25.0977 44.1602 24.9805 44.6836 24.7461C45.2148 24.5039 45.6719 24.1406 46.0547 23.6562L47.6953 25.4375C47.4297 25.8203 47.0664 26.1875 46.6055 26.5391C46.1523 26.8906 45.6055 27.1797 44.9648 27.4062C44.3242 27.625 43.5938 27.7344 42.7734 27.7344ZM62.7188 24.6406V18.9922C62.7188 18.5859 62.6523 18.2383 62.5195 17.9492C62.3867 17.6523 62.1797 17.4219 61.8984 17.2578C61.625 17.0938 61.2695 17.0117 60.832 17.0117C60.457 17.0117 60.1328 17.0781 59.8594 17.2109C59.5859 17.3359 59.375 17.5195 59.2266 17.7617C59.0781 17.9961 59.0039 18.2734 59.0039 18.5938H55.6289C55.6289 18.0547 55.7539 17.543 56.0039 17.0586C56.2539 16.5742 56.6172 16.1484 57.0938 15.7812C57.5703 15.4062 58.1367 15.1133 58.793 14.9023C59.457 14.6914 60.1992 14.5859 61.0195 14.5859C62.0039 14.5859 62.8789 14.75 63.6445 15.0781C64.4102 15.4062 65.0117 15.8984 65.4492 16.5547C65.8945 17.2109 66.1172 18.0312 66.1172 19.0156V24.4414C66.1172 25.1367 66.1602 25.707 66.2461 26.1523C66.332 26.5898 66.457 26.9727 66.6211 27.3008V27.5H63.2109C63.0469 27.1562 62.9219 26.7266 62.8359 26.2109C62.7578 25.6875 62.7188 25.1641 62.7188 24.6406ZM63.1641 19.7773L63.1875 21.6875H61.3008C60.8555 21.6875 60.4688 21.7383 60.1406 21.8398C59.8125 21.9414 59.543 22.0859 59.332 22.2734C59.1211 22.4531 58.9648 22.6641 58.8633 22.9062C58.7695 23.1484 58.7227 23.4141 58.7227 23.7031C58.7227 23.9922 58.7891 24.2539 58.9219 24.4883C59.0547 24.7148 59.2461 24.8945 59.4961 25.0273C59.7461 25.1523 60.0391 25.2148 60.375 25.2148C60.8828 25.2148 61.3242 25.1133 61.6992 24.9102C62.0742 24.707 62.3633 24.457 62.5664 24.1602C62.7773 23.8633 62.8867 23.582 62.8945 23.3164L63.7852 24.7461C63.6602 25.0664 63.4883 25.3984 63.2695 25.7422C63.0586 26.0859 62.7891 26.4102 62.4609 26.7148C62.1328 27.0117 61.7383 27.2578 61.2773 27.4531C60.8164 27.6406 60.2695 27.7344 59.6367 27.7344C58.832 27.7344 58.1016 27.5742 57.4453 27.2539C56.7969 26.9258 56.2812 26.4766 55.8984 25.9062C55.5234 25.3281 55.3359 24.6719 55.3359 23.9375C55.3359 23.2734 55.4609 22.6836 55.7109 22.168C55.9609 21.6523 56.3281 21.2188 56.8125 20.8672C57.3047 20.5078 57.918 20.2383 58.6523 20.0586C59.3867 19.8711 60.2383 19.7773 61.207 19.7773H63.1641ZM72.0938 17.5859V27.5H68.7188V14.8203H71.8945L72.0938 17.5859ZM75.9141 14.7383L75.8555 17.8672C75.6914 17.8438 75.4922 17.8242 75.2578 17.8086C75.0312 17.7852 74.8242 17.7734 74.6367 17.7734C74.1602 17.7734 73.7461 17.8359 73.3945 17.9609C73.0508 18.0781 72.7617 18.2539 72.5273 18.4883C72.3008 18.7227 72.1289 19.0078 72.0117 19.3438C71.9023 19.6797 71.8398 20.0625 71.8242 20.4922L71.1445 20.2812C71.1445 19.4609 71.2266 18.707 71.3906 18.0195C71.5547 17.3242 71.793 16.7188 72.1055 16.2031C72.4258 15.6875 72.8164 15.2891 73.2773 15.0078C73.7383 14.7266 74.2656 14.5859 74.8594 14.5859C75.0469 14.5859 75.2383 14.6016 75.4336 14.6328C75.6289 14.6562 75.7891 14.6914 75.9141 14.7383ZM83.1094 27.7344C82.125 27.7344 81.2422 27.5781 80.4609 27.2656C79.6797 26.9453 79.0156 26.5039 78.4688 25.9414C77.9297 25.3789 77.5156 24.7266 77.2266 23.9844C76.9375 23.2344 76.793 22.4375 76.793 21.5938V21.125C76.793 20.1641 76.9297 19.2852 77.2031 18.4883C77.4766 17.6914 77.8672 17 78.375 16.4141C78.8906 15.8281 79.5156 15.3789 80.25 15.0664C80.9844 14.7461 81.8125 14.5859 82.7344 14.5859C83.6328 14.5859 84.4297 14.7344 85.125 15.0312C85.8203 15.3281 86.4023 15.75 86.8711 16.2969C87.3477 16.8438 87.707 17.5 87.9492 18.2656C88.1914 19.0234 88.3125 19.8672 88.3125 20.7969V22.2031H78.2344V19.9531H84.9961V19.6953C84.9961 19.2266 84.9102 18.8086 84.7383 18.4414C84.5742 18.0664 84.3242 17.7695 83.9883 17.5508C83.6523 17.332 83.2227 17.2227 82.6992 17.2227C82.2539 17.2227 81.8711 17.3203 81.5508 17.5156C81.2305 17.7109 80.9688 17.9844 80.7656 18.3359C80.5703 18.6875 80.4219 19.1016 80.3203 19.5781C80.2266 20.0469 80.1797 20.5625 80.1797 21.125V21.5938C80.1797 22.1016 80.25 22.5703 80.3906 23C80.5391 23.4297 80.7461 23.8008 81.0117 24.1133C81.2852 24.4258 81.6133 24.668 81.9961 24.8398C82.3867 25.0117 82.8281 25.0977 83.3203 25.0977C83.9297 25.0977 84.4961 24.9805 85.0195 24.7461C85.5508 24.5039 86.0078 24.1406 86.3906 23.6562L88.0312 25.4375C87.7656 25.8203 87.4023 26.1875 86.9414 26.5391C86.4883 26.8906 85.9414 27.1797 85.3008 27.4062C84.6602 27.625 83.9297 27.7344 83.1094 27.7344ZM102.422 14.8203V17.2109H95.0391V14.8203H102.422ZM96.8672 11.6914H100.242V23.6797C100.242 24.0469 100.289 24.3281 100.383 24.5234C100.484 24.7188 100.633 24.8555 100.828 24.9336C101.023 25.0039 101.27 25.0391 101.566 25.0391C101.777 25.0391 101.965 25.0312 102.129 25.0156C102.301 24.9922 102.445 24.9688 102.562 24.9453L102.574 27.4297C102.285 27.5234 101.973 27.5977 101.637 27.6523C101.301 27.707 100.93 27.7344 100.523 27.7344C99.7812 27.7344 99.1328 27.6133 98.5781 27.3711C98.0312 27.1211 97.6094 26.7227 97.3125 26.1758C97.0156 25.6289 96.8672 24.9102 96.8672 24.0195V11.6914ZM107.637 9.5V27.5H104.262V9.5H107.637ZM107.156 20.7148H106.23C106.238 19.832 106.355 19.0195 106.582 18.2773C106.809 17.5273 107.133 16.8789 107.555 16.332C107.977 15.7773 108.48 15.3477 109.066 15.043C109.66 14.7383 110.316 14.5859 111.035 14.5859C111.66 14.5859 112.227 14.6758 112.734 14.8555C113.25 15.0273 113.691 15.3086 114.059 15.6992C114.434 16.082 114.723 16.5859 114.926 17.2109C115.129 17.8359 115.23 18.5938 115.23 19.4844V27.5H111.832V19.4609C111.832 18.8984 111.75 18.457 111.586 18.1367C111.43 17.8086 111.199 17.5781 110.895 17.4453C110.598 17.3047 110.23 17.2344 109.793 17.2344C109.309 17.2344 108.895 17.3242 108.551 17.5039C108.215 17.6836 107.945 17.9336 107.742 18.2539C107.539 18.5664 107.391 18.9336 107.297 19.3555C107.203 19.7773 107.156 20.2305 107.156 20.7148ZM123.633 27.7344C122.648 27.7344 121.766 27.5781 120.984 27.2656C120.203 26.9453 119.539 26.5039 118.992 25.9414C118.453 25.3789 118.039 24.7266 117.75 23.9844C117.461 23.2344 117.316 22.4375 117.316 21.5938V21.125C117.316 20.1641 117.453 19.2852 117.727 18.4883C118 17.6914 118.391 17 118.898 16.4141C119.414 15.8281 120.039 15.3789 120.773 15.0664C121.508 14.7461 122.336 14.5859 123.258 14.5859C124.156 14.5859 124.953 14.7344 125.648 15.0312C126.344 15.3281 126.926 15.75 127.395 16.2969C127.871 16.8438 128.23 17.5 128.473 18.2656C128.715 19.0234 128.836 19.8672 128.836 20.7969V22.2031H118.758V19.9531H125.52V19.6953C125.52 19.2266 125.434 18.8086 125.262 18.4414C125.098 18.0664 124.848 17.7695 124.512 17.5508C124.176 17.332 123.746 17.2227 123.223 17.2227C122.777 17.2227 122.395 17.3203 122.074 17.5156C121.754 17.7109 121.492 17.9844 121.289 18.3359C121.094 18.6875 120.945 19.1016 120.844 19.5781C120.75 20.0469 120.703 20.5625 120.703 21.125V21.5938C120.703 22.1016 120.773 22.5703 120.914 23C121.062 23.4297 121.27 23.8008 121.535 24.1133C121.809 24.4258 122.137 24.668 122.52 24.8398C122.91 25.0117 123.352 25.0977 123.844 25.0977C124.453 25.0977 125.02 24.9805 125.543 24.7461C126.074 24.5039 126.531 24.1406 126.914 23.6562L128.555 25.4375C128.289 25.8203 127.926 26.1875 127.465 26.5391C127.012 26.8906 126.465 27.1797 125.824 27.4062C125.184 27.625 124.453 27.7344 123.633 27.7344ZM150.961 18.5703V19.3789C150.961 20.6758 150.785 21.8398 150.434 22.8711C150.082 23.9023 149.586 24.7812 148.945 25.5078C148.305 26.2266 147.539 26.7773 146.648 27.1602C145.766 27.543 144.785 27.7344 143.707 27.7344C142.637 27.7344 141.656 27.543 140.766 27.1602C139.883 26.7773 139.117 26.2266 138.469 25.5078C137.82 24.7812 137.316 23.9023 136.957 22.8711C136.605 21.8398 136.43 20.6758 136.43 19.3789V18.5703C136.43 17.2656 136.605 16.1016 136.957 15.0781C137.309 14.0469 137.805 13.168 138.445 12.4414C139.094 11.7148 139.859 11.1602 140.742 10.7773C141.633 10.3945 142.613 10.2031 143.684 10.2031C144.762 10.2031 145.742 10.3945 146.625 10.7773C147.516 11.1602 148.281 11.7148 148.922 12.4414C149.57 13.168 150.07 14.0469 150.422 15.0781C150.781 16.1016 150.961 17.2656 150.961 18.5703ZM147.41 19.3789V18.5469C147.41 17.6406 147.328 16.8438 147.164 16.1562C147 15.4688 146.758 14.8906 146.438 14.4219C146.117 13.9531 145.727 13.6016 145.266 13.3672C144.805 13.125 144.277 13.0039 143.684 13.0039C143.09 13.0039 142.562 13.125 142.102 13.3672C141.648 13.6016 141.262 13.9531 140.941 14.4219C140.629 14.8906 140.391 15.4688 140.227 16.1562C140.062 16.8438 139.98 17.6406 139.98 18.5469V19.3789C139.98 20.2773 140.062 21.0742 140.227 21.7695C140.391 22.457 140.633 23.0391 140.953 23.5156C141.273 23.9844 141.664 24.3398 142.125 24.582C142.586 24.8242 143.113 24.9453 143.707 24.9453C144.301 24.9453 144.828 24.8242 145.289 24.582C145.75 24.3398 146.137 23.9844 146.449 23.5156C146.762 23.0391 147 22.457 147.164 21.7695C147.328 21.0742 147.41 20.2773 147.41 19.3789ZM156.844 9.5V27.5H153.457V9.5H156.844ZM167.121 24.7344V9.5H170.52V27.5H167.461L167.121 24.7344ZM159.105 21.3125V21.0664C159.105 20.0977 159.215 19.2188 159.434 18.4297C159.652 17.6328 159.973 16.9492 160.395 16.3789C160.816 15.8086 161.336 15.3672 161.953 15.0547C162.57 14.7422 163.273 14.5859 164.062 14.5859C164.805 14.5859 165.453 14.7422 166.008 15.0547C166.57 15.3672 167.047 15.8125 167.438 16.3906C167.836 16.9609 168.156 17.6367 168.398 18.418C168.641 19.1914 168.816 20.0391 168.926 20.9609V21.5C168.816 22.3828 168.641 23.2031 168.398 23.9609C168.156 24.7188 167.836 25.3828 167.438 25.9531C167.047 26.5156 166.57 26.9531 166.008 27.2656C165.445 27.5781 164.789 27.7344 164.039 27.7344C163.25 27.7344 162.547 27.5742 161.93 27.2539C161.32 26.9336 160.805 26.4844 160.383 25.9062C159.969 25.3281 159.652 24.6484 159.434 23.8672C159.215 23.0859 159.105 22.2344 159.105 21.3125ZM162.48 21.0664V21.3125C162.48 21.8359 162.52 22.3242 162.598 22.7773C162.684 23.2305 162.82 23.6328 163.008 23.9844C163.203 24.3281 163.453 24.5977 163.758 24.793C164.07 24.9805 164.449 25.0742 164.895 25.0742C165.473 25.0742 165.949 24.9453 166.324 24.6875C166.699 24.4219 166.984 24.0586 167.18 23.5977C167.383 23.1367 167.5 22.6055 167.531 22.0039V20.4688C167.508 19.9766 167.438 19.5352 167.32 19.1445C167.211 18.7461 167.047 18.4062 166.828 18.125C166.617 17.8438 166.352 17.625 166.031 17.4688C165.719 17.3125 165.348 17.2344 164.918 17.2344C164.48 17.2344 164.105 17.3359 163.793 17.5391C163.48 17.7344 163.227 18.0039 163.031 18.3477C162.844 18.6914 162.703 19.0977 162.609 19.5664C162.523 20.0273 162.48 20.5273 162.48 21.0664ZM178.992 27.7344C178.008 27.7344 177.125 27.5781 176.344 27.2656C175.562 26.9453 174.898 26.5039 174.352 25.9414C173.812 25.3789 173.398 24.7266 173.109 23.9844C172.82 23.2344 172.676 22.4375 172.676 21.5938V21.125C172.676 20.1641 172.812 19.2852 173.086 18.4883C173.359 17.6914 173.75 17 174.258 16.4141C174.773 15.8281 175.398 15.3789 176.133 15.0664C176.867 14.7461 177.695 14.5859 178.617 14.5859C179.516 14.5859 180.312 14.7344 181.008 15.0312C181.703 15.3281 182.285 15.75 182.754 16.2969C183.23 16.8438 183.59 17.5 183.832 18.2656C184.074 19.0234 184.195 19.8672 184.195 20.7969V22.2031H174.117V19.9531H180.879V19.6953C180.879 19.2266 180.793 18.8086 180.621 18.4414C180.457 18.0664 180.207 17.7695 179.871 17.5508C179.535 17.332 179.105 17.2227 178.582 17.2227C178.137 17.2227 177.754 17.3203 177.434 17.5156C177.113 17.7109 176.852 17.9844 176.648 18.3359C176.453 18.6875 176.305 19.1016 176.203 19.5781C176.109 20.0469 176.062 20.5625 176.062 21.125V21.5938C176.062 22.1016 176.133 22.5703 176.273 23C176.422 23.4297 176.629 23.8008 176.895 24.1133C177.168 24.4258 177.496 24.668 177.879 24.8398C178.27 25.0117 178.711 25.0977 179.203 25.0977C179.812 25.0977 180.379 24.9805 180.902 24.7461C181.434 24.5039 181.891 24.1406 182.273 23.6562L183.914 25.4375C183.648 25.8203 183.285 26.1875 182.824 26.5391C182.371 26.8906 181.824 27.1797 181.184 27.4062C180.543 27.625 179.812 27.7344 178.992 27.7344ZM192.973 23.9961C192.973 23.7539 192.902 23.5352 192.762 23.3398C192.621 23.1445 192.359 22.9648 191.977 22.8008C191.602 22.6289 191.059 22.4727 190.348 22.332C189.707 22.1914 189.109 22.0156 188.555 21.8047C188.008 21.5859 187.531 21.3242 187.125 21.0195C186.727 20.7148 186.414 20.3555 186.188 19.9414C185.961 19.5195 185.848 19.0391 185.848 18.5C185.848 17.9688 185.961 17.4688 186.188 17C186.422 16.5312 186.754 16.1172 187.184 15.7578C187.621 15.3906 188.152 15.1055 188.777 14.9023C189.41 14.6914 190.121 14.5859 190.91 14.5859C192.012 14.5859 192.957 14.7617 193.746 15.1133C194.543 15.4648 195.152 15.9492 195.574 16.5664C196.004 17.1758 196.219 17.8711 196.219 18.6523H192.844C192.844 18.3242 192.773 18.0312 192.633 17.7734C192.5 17.5078 192.289 17.3008 192 17.1523C191.719 16.9961 191.352 16.918 190.898 16.918C190.523 16.918 190.199 16.9844 189.926 17.1172C189.652 17.2422 189.441 17.4141 189.293 17.6328C189.152 17.8438 189.082 18.0781 189.082 18.3359C189.082 18.5312 189.121 18.707 189.199 18.8633C189.285 19.0117 189.422 19.1484 189.609 19.2734C189.797 19.3984 190.039 19.5156 190.336 19.625C190.641 19.7266 191.016 19.8203 191.461 19.9062C192.375 20.0938 193.191 20.3398 193.91 20.6445C194.629 20.9414 195.199 21.3477 195.621 21.8633C196.043 22.3711 196.254 23.0391 196.254 23.8672C196.254 24.4297 196.129 24.9453 195.879 25.4141C195.629 25.8828 195.27 26.293 194.801 26.6445C194.332 26.9883 193.77 27.2578 193.113 27.4531C192.465 27.6406 191.734 27.7344 190.922 27.7344C189.742 27.7344 188.742 27.5234 187.922 27.1016C187.109 26.6797 186.492 26.1445 186.07 25.4961C185.656 24.8398 185.449 24.168 185.449 23.4805H188.648C188.664 23.9414 188.781 24.3125 189 24.5938C189.227 24.875 189.512 25.0781 189.855 25.2031C190.207 25.3281 190.586 25.3906 190.992 25.3906C191.43 25.3906 191.793 25.332 192.082 25.2148C192.371 25.0898 192.59 24.9258 192.738 24.7227C192.895 24.5117 192.973 24.2695 192.973 23.9961ZM204.656 14.8203V17.2109H197.273V14.8203H204.656ZM199.102 11.6914H202.477V23.6797C202.477 24.0469 202.523 24.3281 202.617 24.5234C202.719 24.7188 202.867 24.8555 203.062 24.9336C203.258 25.0039 203.504 25.0391 203.801 25.0391C204.012 25.0391 204.199 25.0312 204.363 25.0156C204.535 24.9922 204.68 24.9688 204.797 24.9453L204.809 27.4297C204.52 27.5234 204.207 27.5977 203.871 27.6523C203.535 27.707 203.164 27.7344 202.758 27.7344C202.016 27.7344 201.367 27.6133 200.812 27.3711C200.266 27.1211 199.844 26.7227 199.547 26.1758C199.25 25.6289 199.102 24.9102 199.102 24.0195V11.6914ZM37.3594 51.0352C37.3594 50.7305 37.3125 50.457 37.2188 50.2148C37.1328 49.9648 36.9688 49.7383 36.7266 49.5352C36.4844 49.3242 36.1445 49.1172 35.707 48.9141C35.2695 48.7109 34.7031 48.5 34.0078 48.2812C33.2344 48.0312 32.5 47.75 31.8047 47.4375C31.1172 47.125 30.5078 46.7617 29.9766 46.3477C29.4531 45.9258 29.0391 45.4375 28.7344 44.8828C28.4375 44.3281 28.2891 43.6836 28.2891 42.9492C28.2891 42.2383 28.4453 41.5938 28.7578 41.0156C29.0703 40.4297 29.5078 39.9297 30.0703 39.5156C30.6328 39.0938 31.2969 38.7695 32.0625 38.543C32.8359 38.3164 33.6836 38.2031 34.6055 38.2031C35.8633 38.2031 36.9609 38.4297 37.8984 38.8828C38.8359 39.3359 39.5625 39.957 40.0781 40.7461C40.6016 41.5352 40.8633 42.4375 40.8633 43.4531H37.3711C37.3711 42.9531 37.2656 42.5156 37.0547 42.1406C36.8516 41.7578 36.5391 41.457 36.1172 41.2383C35.7031 41.0195 35.1797 40.9102 34.5469 40.9102C33.9375 40.9102 33.4297 41.0039 33.0234 41.1914C32.6172 41.3711 32.3125 41.6172 32.1094 41.9297C31.9062 42.2344 31.8047 42.5781 31.8047 42.9609C31.8047 43.25 31.875 43.5117 32.0156 43.7461C32.1641 43.9805 32.3828 44.1992 32.6719 44.4023C32.9609 44.6055 33.3164 44.7969 33.7383 44.9766C34.1602 45.1562 34.6484 45.332 35.2031 45.5039C36.1328 45.7852 36.9492 46.1016 37.6523 46.4531C38.3633 46.8047 38.957 47.1992 39.4336 47.6367C39.9102 48.0742 40.2695 48.5703 40.5117 49.125C40.7539 49.6797 40.875 50.3086 40.875 51.0117C40.875 51.7539 40.7305 52.418 40.4414 53.0039C40.1523 53.5898 39.7344 54.0859 39.1875 54.4922C38.6406 54.8984 37.9883 55.207 37.2305 55.418C36.4727 55.6289 35.625 55.7344 34.6875 55.7344C33.8438 55.7344 33.0117 55.625 32.1914 55.4062C31.3711 55.1797 30.625 54.8398 29.9531 54.3867C29.2891 53.9336 28.7578 53.3555 28.3594 52.6523C27.9609 51.9492 27.7617 51.1172 27.7617 50.1562H31.2891C31.2891 50.6875 31.3711 51.1367 31.5352 51.5039C31.6992 51.8711 31.9297 52.168 32.2266 52.3945C32.5312 52.6211 32.8906 52.7852 33.3047 52.8867C33.7266 52.9883 34.1875 53.0391 34.6875 53.0391C35.2969 53.0391 35.7969 52.9531 36.1875 52.7812C36.5859 52.6094 36.8789 52.3711 37.0664 52.0664C37.2617 51.7617 37.3594 51.418 37.3594 51.0352ZM49.2656 42.8203V45.2109H41.8828V42.8203H49.2656ZM43.7109 39.6914H47.0859V51.6797C47.0859 52.0469 47.1328 52.3281 47.2266 52.5234C47.3281 52.7188 47.4766 52.8555 47.6719 52.9336C47.8672 53.0039 48.1133 53.0391 48.4102 53.0391C48.6211 53.0391 48.8086 53.0312 48.9727 53.0156C49.1445 52.9922 49.2891 52.9688 49.4062 52.9453L49.418 55.4297C49.1289 55.5234 48.8164 55.5977 48.4805 55.6523C48.1445 55.707 47.7734 55.7344 47.3672 55.7344C46.625 55.7344 45.9766 55.6133 45.4219 55.3711C44.875 55.1211 44.4531 54.7227 44.1562 54.1758C43.8594 53.6289 43.7109 52.9102 43.7109 52.0195V39.6914ZM50.3438 49.2891V49.043C50.3438 48.1133 50.4766 47.2578 50.7422 46.4766C51.0078 45.6875 51.3945 45.0039 51.9023 44.4258C52.4102 43.8477 53.0352 43.3984 53.7773 43.0781C54.5195 42.75 55.3711 42.5859 56.332 42.5859C57.293 42.5859 58.1484 42.75 58.8984 43.0781C59.6484 43.3984 60.2773 43.8477 60.7852 44.4258C61.3008 45.0039 61.6914 45.6875 61.957 46.4766C62.2227 47.2578 62.3555 48.1133 62.3555 49.043V49.2891C62.3555 50.2109 62.2227 51.0664 61.957 51.8555C61.6914 52.6367 61.3008 53.3203 60.7852 53.9062C60.2773 54.4844 59.6523 54.9336 58.9102 55.2539C58.168 55.5742 57.3164 55.7344 56.3555 55.7344C55.3945 55.7344 54.5391 55.5742 53.7891 55.2539C53.0469 54.9336 52.418 54.4844 51.9023 53.9062C51.3945 53.3203 51.0078 52.6367 50.7422 51.8555C50.4766 51.0664 50.3438 50.2109 50.3438 49.2891ZM53.7188 49.043V49.2891C53.7188 49.8203 53.7656 50.3164 53.8594 50.7773C53.9531 51.2383 54.1016 51.6445 54.3047 51.9961C54.5156 52.3398 54.7891 52.6094 55.125 52.8047C55.4609 53 55.8711 53.0977 56.3555 53.0977C56.8242 53.0977 57.2266 53 57.5625 52.8047C57.8984 52.6094 58.168 52.3398 58.3711 51.9961C58.5742 51.6445 58.7227 51.2383 58.8164 50.7773C58.918 50.3164 58.9688 49.8203 58.9688 49.2891V49.043C58.9688 48.5273 58.918 48.043 58.8164 47.5898C58.7227 47.1289 58.5703 46.7227 58.3594 46.3711C58.1562 46.0117 57.8867 45.7305 57.5508 45.5273C57.2148 45.3242 56.8086 45.2227 56.332 45.2227C55.8555 45.2227 55.4492 45.3242 55.1133 45.5273C54.7852 45.7305 54.5156 46.0117 54.3047 46.3711C54.1016 46.7227 53.9531 47.1289 53.8594 47.5898C53.7656 48.043 53.7188 48.5273 53.7188 49.043ZM69.668 53.0977C70.082 53.0977 70.4492 53.0195 70.7695 52.8633C71.0898 52.6992 71.3398 52.4727 71.5195 52.1836C71.707 51.8867 71.8047 51.5391 71.8125 51.1406H74.9883C74.9805 52.0312 74.7422 52.8242 74.2734 53.5195C73.8047 54.207 73.1758 54.75 72.3867 55.1484C71.5977 55.5391 70.7148 55.7344 69.7383 55.7344C68.7539 55.7344 67.8945 55.5703 67.1602 55.2422C66.4336 54.9141 65.8281 54.4609 65.3438 53.8828C64.8594 53.2969 64.4961 52.6172 64.2539 51.8438C64.0117 51.0625 63.8906 50.2266 63.8906 49.3359V48.9961C63.8906 48.0977 64.0117 47.2617 64.2539 46.4883C64.4961 45.707 64.8594 45.0273 65.3438 44.4492C65.8281 43.8633 66.4336 43.4062 67.1602 43.0781C67.8867 42.75 68.7383 42.5859 69.7148 42.5859C70.7539 42.5859 71.6641 42.7852 72.4453 43.1836C73.2344 43.582 73.8516 44.1523 74.2969 44.8945C74.75 45.6289 74.9805 46.5 74.9883 47.5078H71.8125C71.8047 47.0859 71.7148 46.7031 71.543 46.3594C71.3789 46.0156 71.1367 45.7422 70.8164 45.5391C70.5039 45.3281 70.1172 45.2227 69.6562 45.2227C69.1641 45.2227 68.7617 45.3281 68.4492 45.5391C68.1367 45.7422 67.8945 46.0234 67.7227 46.3828C67.5508 46.7344 67.4297 47.1367 67.3594 47.5898C67.2969 48.0352 67.2656 48.5039 67.2656 48.9961V49.3359C67.2656 49.8281 67.2969 50.3008 67.3594 50.7539C67.4219 51.207 67.5391 51.6094 67.7109 51.9609C67.8906 52.3125 68.1367 52.5898 68.4492 52.793C68.7617 52.9961 69.168 53.0977 69.668 53.0977ZM80.3203 37.4883V55.5H76.9453V37.4883H80.3203ZM88.3125 42.8203L82.8047 49.1016L79.8516 52.0898L78.6211 49.6523L80.9648 46.6758L84.2578 42.8203H88.3125ZM84.8086 55.5L81.0586 49.6406L83.3906 47.6016L88.6992 55.5H84.8086ZM102.633 48.0117H98.25L98.2266 45.5977H101.906C102.555 45.5977 103.086 45.5156 103.5 45.3516C103.914 45.1797 104.223 44.9336 104.426 44.6133C104.637 44.2852 104.742 43.8867 104.742 43.418C104.742 42.8867 104.641 42.457 104.438 42.1289C104.242 41.8008 103.934 41.5625 103.512 41.4141C103.098 41.2656 102.562 41.1914 101.906 41.1914H99.4688V55.5H95.9531V38.4375H101.906C102.898 38.4375 103.785 38.5312 104.566 38.7188C105.355 38.9062 106.023 39.1914 106.57 39.5742C107.117 39.957 107.535 40.4414 107.824 41.0273C108.113 41.6055 108.258 42.293 108.258 43.0898C108.258 43.793 108.098 44.4414 107.777 45.0352C107.465 45.6289 106.969 46.1133 106.289 46.4883C105.617 46.8633 104.738 47.0703 103.652 47.1094L102.633 48.0117ZM102.48 55.5H97.2891L98.6602 52.7578H102.48C103.098 52.7578 103.602 52.6602 103.992 52.4648C104.383 52.2617 104.672 51.9883 104.859 51.6445C105.047 51.3008 105.141 50.9062 105.141 50.4609C105.141 49.9609 105.055 49.5273 104.883 49.1602C104.719 48.793 104.453 48.5117 104.086 48.3164C103.719 48.1133 103.234 48.0117 102.633 48.0117H99.2461L99.2695 45.5977H103.488L104.297 46.5469C105.336 46.5312 106.172 46.7148 106.805 47.0977C107.445 47.4727 107.91 47.9609 108.199 48.5625C108.496 49.1641 108.645 49.8086 108.645 50.4961C108.645 51.5898 108.406 52.5117 107.93 53.2617C107.453 54.0039 106.754 54.5625 105.832 54.9375C104.918 55.3125 103.801 55.5 102.48 55.5ZM114.445 45.5859V55.5H111.07V42.8203H114.246L114.445 45.5859ZM118.266 42.7383L118.207 45.8672C118.043 45.8438 117.844 45.8242 117.609 45.8086C117.383 45.7852 117.176 45.7734 116.988 45.7734C116.512 45.7734 116.098 45.8359 115.746 45.9609C115.402 46.0781 115.113 46.2539 114.879 46.4883C114.652 46.7227 114.48 47.0078 114.363 47.3438C114.254 47.6797 114.191 48.0625 114.176 48.4922L113.496 48.2812C113.496 47.4609 113.578 46.707 113.742 46.0195C113.906 45.3242 114.145 44.7188 114.457 44.2031C114.777 43.6875 115.168 43.2891 115.629 43.0078C116.09 42.7266 116.617 42.5859 117.211 42.5859C117.398 42.5859 117.59 42.6016 117.785 42.6328C117.98 42.6562 118.141 42.6914 118.266 42.7383ZM118.969 49.2891V49.043C118.969 48.1133 119.102 47.2578 119.367 46.4766C119.633 45.6875 120.02 45.0039 120.527 44.4258C121.035 43.8477 121.66 43.3984 122.402 43.0781C123.145 42.75 123.996 42.5859 124.957 42.5859C125.918 42.5859 126.773 42.75 127.523 43.0781C128.273 43.3984 128.902 43.8477 129.41 44.4258C129.926 45.0039 130.316 45.6875 130.582 46.4766C130.848 47.2578 130.98 48.1133 130.98 49.043V49.2891C130.98 50.2109 130.848 51.0664 130.582 51.8555C130.316 52.6367 129.926 53.3203 129.41 53.9062C128.902 54.4844 128.277 54.9336 127.535 55.2539C126.793 55.5742 125.941 55.7344 124.98 55.7344C124.02 55.7344 123.164 55.5742 122.414 55.2539C121.672 54.9336 121.043 54.4844 120.527 53.9062C120.02 53.3203 119.633 52.6367 119.367 51.8555C119.102 51.0664 118.969 50.2109 118.969 49.2891ZM122.344 49.043V49.2891C122.344 49.8203 122.391 50.3164 122.484 50.7773C122.578 51.2383 122.727 51.6445 122.93 51.9961C123.141 52.3398 123.414 52.6094 123.75 52.8047C124.086 53 124.496 53.0977 124.98 53.0977C125.449 53.0977 125.852 53 126.188 52.8047C126.523 52.6094 126.793 52.3398 126.996 51.9961C127.199 51.6445 127.348 51.2383 127.441 50.7773C127.543 50.3164 127.594 49.8203 127.594 49.2891V49.043C127.594 48.5273 127.543 48.043 127.441 47.5898C127.348 47.1289 127.195 46.7227 126.984 46.3711C126.781 46.0117 126.512 45.7305 126.176 45.5273C125.84 45.3242 125.434 45.2227 124.957 45.2227C124.48 45.2227 124.074 45.3242 123.738 45.5273C123.41 45.7305 123.141 46.0117 122.93 46.3711C122.727 46.7227 122.578 47.1289 122.484 47.5898C122.391 48.043 122.344 48.5273 122.344 49.043ZM136.43 37.4883V55.5H133.055V37.4883H136.43ZM144.422 42.8203L138.914 49.1016L135.961 52.0898L134.73 49.6523L137.074 46.6758L140.367 42.8203H144.422ZM140.918 55.5L137.168 49.6406L139.5 47.6016L144.809 55.5H140.918ZM151.477 55.7344C150.492 55.7344 149.609 55.5781 148.828 55.2656C148.047 54.9453 147.383 54.5039 146.836 53.9414C146.297 53.3789 145.883 52.7266 145.594 51.9844C145.305 51.2344 145.16 50.4375 145.16 49.5938V49.125C145.16 48.1641 145.297 47.2852 145.57 46.4883C145.844 45.6914 146.234 45 146.742 44.4141C147.258 43.8281 147.883 43.3789 148.617 43.0664C149.352 42.7461 150.18 42.5859 151.102 42.5859C152 42.5859 152.797 42.7344 153.492 43.0312C154.188 43.3281 154.77 43.75 155.238 44.2969C155.715 44.8438 156.074 45.5 156.316 46.2656C156.559 47.0234 156.68 47.8672 156.68 48.7969V50.2031H146.602V47.9531H153.363V47.6953C153.363 47.2266 153.277 46.8086 153.105 46.4414C152.941 46.0664 152.691 45.7695 152.355 45.5508C152.02 45.332 151.59 45.2227 151.066 45.2227C150.621 45.2227 150.238 45.3203 149.918 45.5156C149.598 45.7109 149.336 45.9844 149.133 46.3359C148.938 46.6875 148.789 47.1016 148.688 47.5781C148.594 48.0469 148.547 48.5625 148.547 49.125V49.5938C148.547 50.1016 148.617 50.5703 148.758 51C148.906 51.4297 149.113 51.8008 149.379 52.1133C149.652 52.4258 149.98 52.668 150.363 52.8398C150.754 53.0117 151.195 53.0977 151.688 53.0977C152.297 53.0977 152.863 52.9805 153.387 52.7461C153.918 52.5039 154.375 52.1406 154.758 51.6562L156.398 53.4375C156.133 53.8203 155.77 54.1875 155.309 54.5391C154.855 54.8906 154.309 55.1797 153.668 55.4062C153.027 55.625 152.297 55.7344 151.477 55.7344ZM161.977 45.5859V55.5H158.602V42.8203H161.777L161.977 45.5859ZM165.797 42.7383L165.738 45.8672C165.574 45.8438 165.375 45.8242 165.141 45.8086C164.914 45.7852 164.707 45.7734 164.52 45.7734C164.043 45.7734 163.629 45.8359 163.277 45.9609C162.934 46.0781 162.645 46.2539 162.41 46.4883C162.184 46.7227 162.012 47.0078 161.895 47.3438C161.785 47.6797 161.723 48.0625 161.707 48.4922L161.027 48.2812C161.027 47.4609 161.109 46.707 161.273 46.0195C161.438 45.3242 161.676 44.7188 161.988 44.2031C162.309 43.6875 162.699 43.2891 163.16 43.0078C163.621 42.7266 164.148 42.5859 164.742 42.5859C164.93 42.5859 165.121 42.6016 165.316 42.6328C165.512 42.6562 165.672 42.6914 165.797 42.7383ZM188.883 42.8203V55.5H185.496V42.8203H188.883ZM185.285 39.5156C185.285 39.0234 185.457 38.6172 185.801 38.2969C186.145 37.9766 186.605 37.8164 187.184 37.8164C187.754 37.8164 188.211 37.9766 188.555 38.2969C188.906 38.6172 189.082 39.0234 189.082 39.5156C189.082 40.0078 188.906 40.4141 188.555 40.7344C188.211 41.0547 187.754 41.2148 187.184 41.2148C186.605 41.2148 186.145 41.0547 185.801 40.7344C185.457 40.4141 185.285 40.0078 185.285 39.5156ZM194.977 45.5273V55.5H191.602V42.8203H194.766L194.977 45.5273ZM194.484 48.7148H193.57C193.57 47.7773 193.691 46.9336 193.934 46.1836C194.176 45.4258 194.516 44.7812 194.953 44.25C195.391 43.7109 195.91 43.3008 196.512 43.0195C197.121 42.7305 197.801 42.5859 198.551 42.5859C199.145 42.5859 199.688 42.6719 200.18 42.8438C200.672 43.0156 201.094 43.2891 201.445 43.6641C201.805 44.0391 202.078 44.5352 202.266 45.1523C202.461 45.7695 202.559 46.5234 202.559 47.4141V55.5H199.16V47.4023C199.16 46.8398 199.082 46.4023 198.926 46.0898C198.77 45.7773 198.539 45.5586 198.234 45.4336C197.938 45.3008 197.57 45.2344 197.133 45.2344C196.68 45.2344 196.285 45.3242 195.949 45.5039C195.621 45.6836 195.348 45.9336 195.129 46.2539C194.918 46.5664 194.758 46.9336 194.648 47.3555C194.539 47.7773 194.484 48.2305 194.484 48.7148ZM20.2617 66.4375V83.5H16.7578V66.4375H20.2617ZM26.6484 73.5273V83.5H23.2734V70.8203H26.4375L26.6484 73.5273ZM26.1562 76.7148H25.2422C25.2422 75.7773 25.3633 74.9336 25.6055 74.1836C25.8477 73.4258 26.1875 72.7812 26.625 72.25C27.0625 71.7109 27.582 71.3008 28.1836 71.0195C28.793 70.7305 29.4727 70.5859 30.2227 70.5859C30.8164 70.5859 31.3594 70.6719 31.8516 70.8438C32.3438 71.0156 32.7656 71.2891 33.1172 71.6641C33.4766 72.0391 33.75 72.5352 33.9375 73.1523C34.1328 73.7695 34.2305 74.5234 34.2305 75.4141V83.5H30.832V75.4023C30.832 74.8398 30.7539 74.4023 30.5977 74.0898C30.4414 73.7773 30.2109 73.5586 29.9062 73.4336C29.6094 73.3008 29.2422 73.2344 28.8047 73.2344C28.3516 73.2344 27.957 73.3242 27.6211 73.5039C27.293 73.6836 27.0195 73.9336 26.8008 74.2539C26.5898 74.5664 26.4297 74.9336 26.3203 75.3555C26.2109 75.7773 26.1562 76.2305 26.1562 76.7148ZM44.2852 80.7344V65.5H47.6836V83.5H44.625L44.2852 80.7344ZM36.2695 77.3125V77.0664C36.2695 76.0977 36.3789 75.2188 36.5977 74.4297C36.8164 73.6328 37.1367 72.9492 37.5586 72.3789C37.9805 71.8086 38.5 71.3672 39.1172 71.0547C39.7344 70.7422 40.4375 70.5859 41.2266 70.5859C41.9688 70.5859 42.6172 70.7422 43.1719 71.0547C43.7344 71.3672 44.2109 71.8125 44.6016 72.3906C45 72.9609 45.3203 73.6367 45.5625 74.418C45.8047 75.1914 45.9805 76.0391 46.0898 76.9609V77.5C45.9805 78.3828 45.8047 79.2031 45.5625 79.9609C45.3203 80.7188 45 81.3828 44.6016 81.9531C44.2109 82.5156 43.7344 82.9531 43.1719 83.2656C42.6094 83.5781 41.9531 83.7344 41.2031 83.7344C40.4141 83.7344 39.7109 83.5742 39.0938 83.2539C38.4844 82.9336 37.9688 82.4844 37.5469 81.9062C37.1328 81.3281 36.8164 80.6484 36.5977 79.8672C36.3789 79.0859 36.2695 78.2344 36.2695 77.3125ZM39.6445 77.0664V77.3125C39.6445 77.8359 39.6836 78.3242 39.7617 78.7773C39.8477 79.2305 39.9844 79.6328 40.1719 79.9844C40.3672 80.3281 40.6172 80.5977 40.9219 80.793C41.2344 80.9805 41.6133 81.0742 42.0586 81.0742C42.6367 81.0742 43.1133 80.9453 43.4883 80.6875C43.8633 80.4219 44.1484 80.0586 44.3438 79.5977C44.5469 79.1367 44.6641 78.6055 44.6953 78.0039V76.4688C44.6719 75.9766 44.6016 75.5352 44.4844 75.1445C44.375 74.7461 44.2109 74.4062 43.9922 74.125C43.7812 73.8438 43.5156 73.625 43.1953 73.4688C42.8828 73.3125 42.5117 73.2344 42.082 73.2344C41.6445 73.2344 41.2695 73.3359 40.957 73.5391C40.6445 73.7344 40.3906 74.0039 40.1953 74.3477C40.0078 74.6914 39.8672 75.0977 39.7734 75.5664C39.6875 76.0273 39.6445 76.5273 39.6445 77.0664ZM53.8828 70.8203V83.5H50.4961V70.8203H53.8828ZM50.2852 67.5156C50.2852 67.0234 50.457 66.6172 50.8008 66.2969C51.1445 65.9766 51.6055 65.8164 52.1836 65.8164C52.7539 65.8164 53.2109 65.9766 53.5547 66.2969C53.9062 66.6172 54.082 67.0234 54.082 67.5156C54.082 68.0078 53.9062 68.4141 53.5547 68.7344C53.2109 69.0547 52.7539 69.2148 52.1836 69.2148C51.6055 69.2148 51.1445 69.0547 50.8008 68.7344C50.457 68.4141 50.2852 68.0078 50.2852 67.5156ZM63.5156 80.6406V74.9922C63.5156 74.5859 63.4492 74.2383 63.3164 73.9492C63.1836 73.6523 62.9766 73.4219 62.6953 73.2578C62.4219 73.0938 62.0664 73.0117 61.6289 73.0117C61.2539 73.0117 60.9297 73.0781 60.6562 73.2109C60.3828 73.3359 60.1719 73.5195 60.0234 73.7617C59.875 73.9961 59.8008 74.2734 59.8008 74.5938H56.4258C56.4258 74.0547 56.5508 73.543 56.8008 73.0586C57.0508 72.5742 57.4141 72.1484 57.8906 71.7812C58.3672 71.4062 58.9336 71.1133 59.5898 70.9023C60.2539 70.6914 60.9961 70.5859 61.8164 70.5859C62.8008 70.5859 63.6758 70.75 64.4414 71.0781C65.207 71.4062 65.8086 71.8984 66.2461 72.5547C66.6914 73.2109 66.9141 74.0312 66.9141 75.0156V80.4414C66.9141 81.1367 66.957 81.707 67.043 82.1523C67.1289 82.5898 67.2539 82.9727 67.418 83.3008V83.5H64.0078C63.8438 83.1562 63.7188 82.7266 63.6328 82.2109C63.5547 81.6875 63.5156 81.1641 63.5156 80.6406ZM63.9609 75.7773L63.9844 77.6875H62.0977C61.6523 77.6875 61.2656 77.7383 60.9375 77.8398C60.6094 77.9414 60.3398 78.0859 60.1289 78.2734C59.918 78.4531 59.7617 78.6641 59.6602 78.9062C59.5664 79.1484 59.5195 79.4141 59.5195 79.7031C59.5195 79.9922 59.5859 80.2539 59.7188 80.4883C59.8516 80.7148 60.043 80.8945 60.293 81.0273C60.543 81.1523 60.8359 81.2148 61.1719 81.2148C61.6797 81.2148 62.1211 81.1133 62.4961 80.9102C62.8711 80.707 63.1602 80.457 63.3633 80.1602C63.5742 79.8633 63.6836 79.582 63.6914 79.3164L64.582 80.7461C64.457 81.0664 64.2852 81.3984 64.0664 81.7422C63.8555 82.0859 63.5859 82.4102 63.2578 82.7148C62.9297 83.0117 62.5352 83.2578 62.0742 83.4531C61.6133 83.6406 61.0664 83.7344 60.4336 83.7344C59.6289 83.7344 58.8984 83.5742 58.2422 83.2539C57.5938 82.9258 57.0781 82.4766 56.6953 81.9062C56.3203 81.3281 56.1328 80.6719 56.1328 79.9375C56.1328 79.2734 56.2578 78.6836 56.5078 78.168C56.7578 77.6523 57.125 77.2188 57.6094 76.8672C58.1016 76.5078 58.7148 76.2383 59.4492 76.0586C60.1836 75.8711 61.0352 75.7773 62.0039 75.7773H63.9609ZM69.6797 81.8711C69.6797 81.3711 69.8516 80.9531 70.1953 80.6172C70.5469 80.2812 71.0117 80.1133 71.5898 80.1133C72.168 80.1133 72.6289 80.2812 72.9727 80.6172C73.3242 80.9531 73.5 81.3711 73.5 81.8711C73.5 82.3711 73.3242 82.7891 72.9727 83.125C72.6289 83.4609 72.168 83.6289 71.5898 83.6289C71.0117 83.6289 70.5469 83.4609 70.1953 83.125C69.8516 82.7891 69.6797 82.3711 69.6797 81.8711Z" fill="white"/>
</g>
</svg>
