<svg width="239" height="54" viewBox="0 0 239 54" fill="none" xmlns="http://www.w3.org/2000/svg">
<path fill-rule="evenodd" clip-rule="evenodd" d="M239 16.7478C239 7.91124 231.836 0.747803 223 0.747803H78.4999C74.91 0.747803 71.9999 3.65795 71.9999 7.2478C71.9999 10.8377 69.0897 13.7478 65.4999 13.7478H16.8599C8.02332 13.7478 0.859863 20.9112 0.859863 29.7478L0.859863 37.6551C0.859863 46.5278 8.07974 53.7061 16.9523 53.6549L223.092 52.4645C231.893 52.4137 239 45.2653 239 36.4648V16.7478Z" fill="black"/>
<path d="M62.8164 13.7598H59.1641L59.1445 11.748H62.2109C62.7513 11.748 63.194 11.6797 63.5391 11.543C63.8841 11.3997 64.1413 11.1947 64.3105 10.9277C64.4863 10.6543 64.5742 10.3223 64.5742 9.93164C64.5742 9.48893 64.4896 9.13086 64.3203 8.85742C64.1576 8.58398 63.9004 8.38542 63.5488 8.26172C63.2038 8.13802 62.7578 8.07617 62.2109 8.07617H60.1797V20H57.25V5.78125H62.2109C63.0378 5.78125 63.7767 5.85938 64.4277 6.01562C65.0853 6.17188 65.6419 6.40951 66.0977 6.72852C66.5534 7.04753 66.9017 7.45117 67.1426 7.93945C67.3835 8.42122 67.5039 8.99414 67.5039 9.6582C67.5039 10.2441 67.3704 10.7845 67.1035 11.2793C66.8431 11.7741 66.4297 12.1777 65.8633 12.4902C65.3034 12.8027 64.571 12.9753 63.666 13.0078L62.8164 13.7598ZM62.6895 20H58.3633L59.5059 17.7148H62.6895C63.2038 17.7148 63.6237 17.6335 63.9492 17.4707C64.2747 17.3014 64.5156 17.0736 64.6719 16.7871C64.8281 16.5007 64.9062 16.1719 64.9062 15.8008C64.9062 15.3841 64.8346 15.0228 64.6914 14.7168C64.5547 14.4108 64.3333 14.1764 64.0273 14.0137C63.7214 13.8444 63.3177 13.7598 62.8164 13.7598H59.9941L60.0137 11.748H63.5293L64.2031 12.5391C65.069 12.526 65.7656 12.679 66.293 12.998C66.8268 13.3105 67.2142 13.7174 67.4551 14.2188C67.7025 14.7201 67.8262 15.2572 67.8262 15.8301C67.8262 16.7415 67.6276 17.5098 67.2305 18.1348C66.8333 18.7533 66.2507 19.2188 65.4824 19.5312C64.7207 19.8438 63.7897 20 62.6895 20ZM76.0977 17.4707V9.43359H78.9102V20H76.2637L76.0977 17.4707ZM76.4102 15.3027L77.2402 15.2832C77.2402 15.9863 77.1589 16.6406 76.9961 17.2461C76.8333 17.8451 76.5892 18.3659 76.2637 18.8086C75.9382 19.2448 75.528 19.5866 75.0332 19.834C74.5384 20.0749 73.9557 20.1953 73.2852 20.1953C72.7708 20.1953 72.2956 20.1237 71.8594 19.9805C71.4297 19.8307 71.0586 19.5996 70.7461 19.2871C70.4401 18.9681 70.1992 18.5612 70.0234 18.0664C69.8542 17.5651 69.7695 16.9629 69.7695 16.2598V9.43359H72.582V16.2793C72.582 16.5918 72.6178 16.8555 72.6895 17.0703C72.7676 17.2852 72.875 17.4609 73.0117 17.5977C73.1484 17.7344 73.3079 17.832 73.4902 17.8906C73.679 17.9492 73.8874 17.9785 74.1152 17.9785C74.6947 17.9785 75.1504 17.8613 75.4824 17.627C75.821 17.3926 76.0586 17.0736 76.1953 16.6699C76.3385 16.2598 76.4102 15.804 76.4102 15.3027ZM84.1934 18.8086L86.9961 9.43359H90.0137L85.7656 21.5918C85.6745 21.8587 85.5508 22.1452 85.3945 22.4512C85.2448 22.7572 85.0397 23.0469 84.7793 23.3203C84.5254 23.6003 84.2031 23.8281 83.8125 24.0039C83.4284 24.1797 82.9564 24.2676 82.3965 24.2676C82.1296 24.2676 81.9115 24.2513 81.7422 24.2188C81.5729 24.1862 81.3711 24.1406 81.1367 24.082V22.0215C81.2083 22.0215 81.2832 22.0215 81.3613 22.0215C81.4395 22.028 81.5143 22.0312 81.5859 22.0312C81.957 22.0312 82.2598 21.9889 82.4941 21.9043C82.7285 21.8197 82.9173 21.6895 83.0605 21.5137C83.2038 21.3444 83.3177 21.123 83.4023 20.8496L84.1934 18.8086ZM83.0215 9.43359L85.3164 17.0898L85.7168 20.0684L83.8027 20.2734L80.0039 9.43359H83.0215ZM104.145 5.78125H107.064V15.1758C107.064 16.2695 106.83 17.1908 106.361 17.9395C105.899 18.6882 105.258 19.2513 104.438 19.6289C103.624 20.0065 102.686 20.1953 101.625 20.1953C100.564 20.1953 99.6198 20.0065 98.793 19.6289C97.9727 19.2513 97.3281 18.6882 96.8594 17.9395C96.3971 17.1908 96.166 16.2695 96.166 15.1758V5.78125H99.0957V15.1758C99.0957 15.8138 99.1966 16.3346 99.3984 16.7383C99.6003 17.1419 99.89 17.4382 100.268 17.627C100.652 17.8158 101.104 17.9102 101.625 17.9102C102.159 17.9102 102.611 17.8158 102.982 17.627C103.36 17.4382 103.646 17.1419 103.842 16.7383C104.044 16.3346 104.145 15.8138 104.145 15.1758V5.78125ZM116.879 16.2793C116.879 16.0254 116.84 15.7975 116.762 15.5957C116.69 15.3874 116.553 15.1986 116.352 15.0293C116.15 14.8535 115.867 14.681 115.502 14.5117C115.137 14.3424 114.665 14.1667 114.086 13.9844C113.441 13.776 112.829 13.5417 112.25 13.2812C111.677 13.0208 111.169 12.7181 110.727 12.373C110.29 12.0215 109.945 11.6146 109.691 11.1523C109.444 10.6901 109.32 10.153 109.32 9.54102C109.32 8.94857 109.451 8.41146 109.711 7.92969C109.971 7.44141 110.336 7.02474 110.805 6.67969C111.273 6.32812 111.827 6.05794 112.465 5.86914C113.109 5.68034 113.816 5.58594 114.584 5.58594C115.632 5.58594 116.547 5.77474 117.328 6.15234C118.109 6.52995 118.715 7.04753 119.145 7.70508C119.581 8.36263 119.799 9.11458 119.799 9.96094H116.889C116.889 9.54427 116.801 9.17969 116.625 8.86719C116.456 8.54818 116.195 8.29753 115.844 8.11523C115.499 7.93294 115.062 7.8418 114.535 7.8418C114.027 7.8418 113.604 7.91992 113.266 8.07617C112.927 8.22591 112.673 8.43099 112.504 8.69141C112.335 8.94531 112.25 9.23177 112.25 9.55078C112.25 9.79167 112.309 10.0098 112.426 10.2051C112.549 10.4004 112.732 10.5827 112.973 10.752C113.214 10.9212 113.51 11.0807 113.861 11.2305C114.213 11.3802 114.62 11.5267 115.082 11.6699C115.857 11.9043 116.537 12.168 117.123 12.4609C117.715 12.7539 118.21 13.0827 118.607 13.4473C119.005 13.8118 119.304 14.2253 119.506 14.6875C119.708 15.1497 119.809 15.6738 119.809 16.2598C119.809 16.8783 119.688 17.4316 119.447 17.9199C119.206 18.4082 118.858 18.8216 118.402 19.1602C117.947 19.4987 117.403 19.7559 116.771 19.9316C116.14 20.1074 115.434 20.1953 114.652 20.1953C113.949 20.1953 113.256 20.1042 112.572 19.9219C111.889 19.7331 111.267 19.4499 110.707 19.0723C110.154 18.6947 109.711 18.2129 109.379 17.627C109.047 17.041 108.881 16.3477 108.881 15.5469H111.82C111.82 15.9896 111.889 16.3639 112.025 16.6699C112.162 16.9759 112.354 17.2233 112.602 17.4121C112.855 17.6009 113.155 17.7376 113.5 17.8223C113.852 17.9069 114.236 17.9492 114.652 17.9492C115.16 17.9492 115.577 17.8776 115.902 17.7344C116.234 17.5911 116.479 17.3926 116.635 17.1387C116.798 16.8848 116.879 16.5983 116.879 16.2793ZM132.318 17.0801C132.318 16.8783 132.26 16.696 132.143 16.5332C132.025 16.3704 131.807 16.2207 131.488 16.084C131.176 15.9408 130.723 15.8105 130.131 15.6934C129.597 15.5762 129.099 15.4297 128.637 15.2539C128.181 15.0716 127.784 14.8535 127.445 14.5996C127.113 14.3457 126.853 14.0462 126.664 13.7012C126.475 13.3496 126.381 12.9492 126.381 12.5C126.381 12.0573 126.475 11.6406 126.664 11.25C126.859 10.8594 127.136 10.5143 127.494 10.2148C127.859 9.90885 128.301 9.67122 128.822 9.50195C129.35 9.32617 129.942 9.23828 130.6 9.23828C131.518 9.23828 132.305 9.38477 132.963 9.67773C133.627 9.9707 134.135 10.3743 134.486 10.8887C134.844 11.3965 135.023 11.9759 135.023 12.627H132.211C132.211 12.3535 132.152 12.1094 132.035 11.8945C131.924 11.6732 131.749 11.5007 131.508 11.377C131.273 11.2467 130.967 11.1816 130.59 11.1816C130.277 11.1816 130.007 11.237 129.779 11.3477C129.551 11.4518 129.376 11.5951 129.252 11.7773C129.135 11.9531 129.076 12.1484 129.076 12.3633C129.076 12.526 129.109 12.6725 129.174 12.8027C129.245 12.9264 129.359 13.0404 129.516 13.1445C129.672 13.2487 129.874 13.3464 130.121 13.4375C130.375 13.5221 130.688 13.6003 131.059 13.6719C131.82 13.8281 132.501 14.0332 133.1 14.2871C133.699 14.5345 134.174 14.873 134.525 15.3027C134.877 15.7259 135.053 16.2826 135.053 16.9727C135.053 17.4414 134.949 17.8711 134.74 18.2617C134.532 18.6523 134.232 18.9941 133.842 19.2871C133.451 19.5736 132.982 19.7982 132.436 19.9609C131.895 20.1172 131.286 20.1953 130.609 20.1953C129.626 20.1953 128.793 20.0195 128.109 19.668C127.432 19.3164 126.918 18.8704 126.566 18.3301C126.221 17.7832 126.049 17.2233 126.049 16.6504H128.715C128.728 17.0345 128.826 17.3438 129.008 17.5781C129.197 17.8125 129.434 17.9818 129.721 18.0859C130.014 18.1901 130.329 18.2422 130.668 18.2422C131.033 18.2422 131.335 18.1934 131.576 18.0957C131.817 17.9915 131.999 17.8548 132.123 17.6855C132.253 17.5098 132.318 17.3079 132.318 17.0801ZM142.055 9.43359V11.4258H135.902V9.43359H142.055ZM137.426 6.82617H140.238V16.8164C140.238 17.1224 140.277 17.3568 140.355 17.5195C140.44 17.6823 140.564 17.7962 140.727 17.8613C140.889 17.9199 141.094 17.9492 141.342 17.9492C141.518 17.9492 141.674 17.9427 141.811 17.9297C141.954 17.9102 142.074 17.8906 142.172 17.8711L142.182 19.9414C141.941 20.0195 141.68 20.0814 141.4 20.127C141.12 20.1725 140.811 20.1953 140.473 20.1953C139.854 20.1953 139.314 20.0944 138.852 19.8926C138.396 19.6842 138.044 19.3522 137.797 18.8965C137.549 18.4408 137.426 17.8418 137.426 17.0996V6.82617ZM142.953 14.8242V14.6191C142.953 13.8444 143.064 13.1315 143.285 12.4805C143.507 11.8229 143.829 11.2533 144.252 10.7715C144.675 10.2897 145.196 9.91536 145.814 9.64844C146.433 9.375 147.143 9.23828 147.943 9.23828C148.744 9.23828 149.457 9.375 150.082 9.64844C150.707 9.91536 151.231 10.2897 151.654 10.7715C152.084 11.2533 152.41 11.8229 152.631 12.4805C152.852 13.1315 152.963 13.8444 152.963 14.6191V14.8242C152.963 15.5924 152.852 16.3053 152.631 16.9629C152.41 17.6139 152.084 18.1836 151.654 18.6719C151.231 19.1536 150.71 19.528 150.092 19.7949C149.473 20.0618 148.764 20.1953 147.963 20.1953C147.162 20.1953 146.449 20.0618 145.824 19.7949C145.206 19.528 144.682 19.1536 144.252 18.6719C143.829 18.1836 143.507 17.6139 143.285 16.9629C143.064 16.3053 142.953 15.5924 142.953 14.8242ZM145.766 14.6191V14.8242C145.766 15.2669 145.805 15.6803 145.883 16.0645C145.961 16.4486 146.085 16.7871 146.254 17.0801C146.43 17.3665 146.658 17.5911 146.938 17.7539C147.217 17.9167 147.559 17.998 147.963 17.998C148.354 17.998 148.689 17.9167 148.969 17.7539C149.249 17.5911 149.473 17.3665 149.643 17.0801C149.812 16.7871 149.936 16.4486 150.014 16.0645C150.098 15.6803 150.141 15.2669 150.141 14.8242V14.6191C150.141 14.1895 150.098 13.7858 150.014 13.4082C149.936 13.0241 149.809 12.6855 149.633 12.3926C149.464 12.0931 149.239 11.8587 148.959 11.6895C148.679 11.5202 148.34 11.4355 147.943 11.4355C147.546 11.4355 147.208 11.5202 146.928 11.6895C146.654 11.8587 146.43 12.0931 146.254 12.3926C146.085 12.6855 145.961 13.0241 145.883 13.4082C145.805 13.7858 145.766 14.1895 145.766 14.6191ZM159.057 17.998C159.402 17.998 159.708 17.9329 159.975 17.8027C160.242 17.666 160.45 17.4772 160.6 17.2363C160.756 16.9889 160.837 16.6992 160.844 16.3672H163.49C163.484 17.1094 163.285 17.7702 162.895 18.3496C162.504 18.9225 161.98 19.375 161.322 19.707C160.665 20.0326 159.929 20.1953 159.115 20.1953C158.295 20.1953 157.579 20.0586 156.967 19.7852C156.361 19.5117 155.857 19.1341 155.453 18.6523C155.049 18.1641 154.747 17.5977 154.545 16.9531C154.343 16.3021 154.242 15.6055 154.242 14.8633V14.5801C154.242 13.8314 154.343 13.1348 154.545 12.4902C154.747 11.8392 155.049 11.2728 155.453 10.791C155.857 10.3027 156.361 9.92188 156.967 9.64844C157.572 9.375 158.282 9.23828 159.096 9.23828C159.962 9.23828 160.72 9.4043 161.371 9.73633C162.029 10.0684 162.543 10.5436 162.914 11.1621C163.292 11.7741 163.484 12.5 163.49 13.3398H160.844C160.837 12.9883 160.762 12.6693 160.619 12.3828C160.482 12.0964 160.281 11.8685 160.014 11.6992C159.753 11.5234 159.431 11.4355 159.047 11.4355C158.637 11.4355 158.301 11.5234 158.041 11.6992C157.781 11.8685 157.579 12.1029 157.436 12.4023C157.292 12.6953 157.191 13.0306 157.133 13.4082C157.081 13.7793 157.055 14.1699 157.055 14.5801V14.8633C157.055 15.2734 157.081 15.6673 157.133 16.0449C157.185 16.4225 157.283 16.7578 157.426 17.0508C157.576 17.3438 157.781 17.5749 158.041 17.7441C158.301 17.9134 158.64 17.998 159.057 17.998ZM167.934 4.99023V20H165.121V4.99023H167.934ZM174.594 9.43359L170.004 14.668L167.543 17.1582L166.518 15.127L168.471 12.6465L171.215 9.43359H174.594ZM171.674 20L168.549 15.1172L170.492 13.418L174.916 20H171.674ZM181.518 17.0801C181.518 16.8783 181.459 16.696 181.342 16.5332C181.225 16.3704 181.007 16.2207 180.688 16.084C180.375 15.9408 179.923 15.8105 179.33 15.6934C178.796 15.5762 178.298 15.4297 177.836 15.2539C177.38 15.0716 176.983 14.8535 176.645 14.5996C176.312 14.3457 176.052 14.0462 175.863 13.7012C175.674 13.3496 175.58 12.9492 175.58 12.5C175.58 12.0573 175.674 11.6406 175.863 11.25C176.059 10.8594 176.335 10.5143 176.693 10.2148C177.058 9.90885 177.501 9.67122 178.021 9.50195C178.549 9.32617 179.141 9.23828 179.799 9.23828C180.717 9.23828 181.505 9.38477 182.162 9.67773C182.826 9.9707 183.334 10.3743 183.686 10.8887C184.044 11.3965 184.223 11.9759 184.223 12.627H181.41C181.41 12.3535 181.352 12.1094 181.234 11.8945C181.124 11.6732 180.948 11.5007 180.707 11.377C180.473 11.2467 180.167 11.1816 179.789 11.1816C179.477 11.1816 179.206 11.237 178.979 11.3477C178.751 11.4518 178.575 11.5951 178.451 11.7773C178.334 11.9531 178.275 12.1484 178.275 12.3633C178.275 12.526 178.308 12.6725 178.373 12.8027C178.445 12.9264 178.559 13.0404 178.715 13.1445C178.871 13.2487 179.073 13.3464 179.32 13.4375C179.574 13.5221 179.887 13.6003 180.258 13.6719C181.02 13.8281 181.7 14.0332 182.299 14.2871C182.898 14.5345 183.373 14.873 183.725 15.3027C184.076 15.7259 184.252 16.2826 184.252 16.9727C184.252 17.4414 184.148 17.8711 183.939 18.2617C183.731 18.6523 183.432 18.9941 183.041 19.2871C182.65 19.5736 182.182 19.7982 181.635 19.9609C181.094 20.1172 180.486 20.1953 179.809 20.1953C178.826 20.1953 177.992 20.0195 177.309 19.668C176.632 19.3164 176.117 18.8704 175.766 18.3301C175.421 17.7832 175.248 17.2233 175.248 16.6504H177.914C177.927 17.0345 178.025 17.3438 178.207 17.5781C178.396 17.8125 178.633 17.9818 178.92 18.0859C179.213 18.1901 179.529 18.2422 179.867 18.2422C180.232 18.2422 180.535 18.1934 180.775 18.0957C181.016 17.9915 181.199 17.8548 181.322 17.6855C181.452 17.5098 181.518 17.3079 181.518 17.0801Z" fill="white"/>
<path d="M55.0625 34.4336V45H52.2402V34.4336H55.0625ZM52.0645 31.6797C52.0645 31.2695 52.2077 30.931 52.4941 30.6641C52.7806 30.3971 53.1647 30.2637 53.6465 30.2637C54.1217 30.2637 54.5026 30.3971 54.7891 30.6641C55.082 30.931 55.2285 31.2695 55.2285 31.6797C55.2285 32.0898 55.082 32.4284 54.7891 32.6953C54.5026 32.9622 54.1217 33.0957 53.6465 33.0957C53.1647 33.0957 52.7806 32.9622 52.4941 32.6953C52.2077 32.4284 52.0645 32.0898 52.0645 31.6797ZM60.1406 36.6895V45H57.3281V34.4336H59.9648L60.1406 36.6895ZM59.7305 39.3457H58.9688C58.9688 38.5645 59.0697 37.8613 59.2715 37.2363C59.4733 36.6048 59.7565 36.0677 60.1211 35.625C60.4857 35.1758 60.9186 34.834 61.4199 34.5996C61.9277 34.3587 62.4941 34.2383 63.1191 34.2383C63.6139 34.2383 64.0664 34.3099 64.4766 34.4531C64.8867 34.5964 65.2383 34.8242 65.5312 35.1367C65.8307 35.4492 66.0586 35.8626 66.2148 36.377C66.3776 36.8913 66.459 37.5195 66.459 38.2617V45H63.627V38.252C63.627 37.7832 63.5618 37.4186 63.4316 37.1582C63.3014 36.8978 63.1094 36.7155 62.8555 36.6113C62.6081 36.5007 62.3021 36.4453 61.9375 36.4453C61.5599 36.4453 61.2311 36.5202 60.9512 36.6699C60.6777 36.8197 60.4499 37.028 60.2676 37.2949C60.0918 37.5553 59.9583 37.8613 59.8672 38.2129C59.776 38.5645 59.7305 38.9421 59.7305 39.3457ZM79.2812 42.6172V37.9102C79.2812 37.5716 79.2259 37.2819 79.1152 37.041C79.0046 36.7936 78.832 36.6016 78.5977 36.4648C78.3698 36.3281 78.0736 36.2598 77.709 36.2598C77.3965 36.2598 77.1263 36.3151 76.8984 36.4258C76.6706 36.5299 76.4948 36.6829 76.3711 36.8848C76.2474 37.0801 76.1855 37.3112 76.1855 37.5781H73.373C73.373 37.1289 73.4772 36.7025 73.6855 36.2988C73.8939 35.8952 74.1966 35.5404 74.5938 35.2344C74.9909 34.9219 75.4629 34.6777 76.0098 34.502C76.5632 34.3262 77.1816 34.2383 77.8652 34.2383C78.6855 34.2383 79.4147 34.375 80.0527 34.6484C80.6908 34.9219 81.1921 35.332 81.5566 35.8789C81.9277 36.4258 82.1133 37.1094 82.1133 37.9297V42.4512C82.1133 43.0306 82.1491 43.5059 82.2207 43.877C82.2923 44.2415 82.3965 44.5605 82.5332 44.834V45H79.6914C79.5547 44.7135 79.4505 44.3555 79.3789 43.9258C79.3138 43.4896 79.2812 43.0534 79.2812 42.6172ZM79.6523 38.5645L79.6719 40.1562H78.0996C77.7285 40.1562 77.4062 40.1986 77.1328 40.2832C76.8594 40.3678 76.6348 40.4883 76.459 40.6445C76.2832 40.7943 76.153 40.9701 76.0684 41.1719C75.9902 41.3737 75.9512 41.5951 75.9512 41.8359C75.9512 42.0768 76.0065 42.2949 76.1172 42.4902C76.2279 42.679 76.3874 42.8288 76.5957 42.9395C76.804 43.0436 77.0482 43.0957 77.3281 43.0957C77.7513 43.0957 78.1191 43.0111 78.4316 42.8418C78.7441 42.6725 78.985 42.4642 79.1543 42.2168C79.3301 41.9694 79.4212 41.735 79.4277 41.5137L80.1699 42.7051C80.0658 42.972 79.9225 43.2487 79.7402 43.5352C79.5645 43.8216 79.3398 44.0918 79.0664 44.3457C78.793 44.5931 78.4642 44.7982 78.0801 44.9609C77.696 45.1172 77.2402 45.1953 76.7129 45.1953C76.0423 45.1953 75.4336 45.0618 74.8867 44.7949C74.3464 44.5215 73.9167 44.1471 73.5977 43.6719C73.2852 43.1901 73.1289 42.6432 73.1289 42.0312C73.1289 41.4779 73.2331 40.9863 73.4414 40.5566C73.6497 40.127 73.9557 39.7656 74.3594 39.4727C74.7695 39.1732 75.2806 38.9486 75.8926 38.7988C76.5046 38.6426 77.2142 38.5645 78.0215 38.5645H79.6523ZM94.9746 42.0801C94.9746 41.8783 94.916 41.696 94.7988 41.5332C94.6816 41.3704 94.4635 41.2207 94.1445 41.084C93.832 40.9408 93.3796 40.8105 92.7871 40.6934C92.2533 40.5762 91.7552 40.4297 91.293 40.2539C90.8372 40.0716 90.4401 39.8535 90.1016 39.5996C89.7695 39.3457 89.5091 39.0462 89.3203 38.7012C89.1315 38.3496 89.0371 37.9492 89.0371 37.5C89.0371 37.0573 89.1315 36.6406 89.3203 36.25C89.5156 35.8594 89.7923 35.5143 90.1504 35.2148C90.515 34.9089 90.9577 34.6712 91.4785 34.502C92.0059 34.3262 92.5983 34.2383 93.2559 34.2383C94.1738 34.2383 94.9616 34.3848 95.6191 34.6777C96.2832 34.9707 96.791 35.3743 97.1426 35.8887C97.5007 36.3965 97.6797 36.9759 97.6797 37.627H94.8672C94.8672 37.3535 94.8086 37.1094 94.6914 36.8945C94.5807 36.6732 94.4049 36.5007 94.1641 36.377C93.9297 36.2467 93.6237 36.1816 93.2461 36.1816C92.9336 36.1816 92.6634 36.237 92.4355 36.3477C92.2077 36.4518 92.0319 36.5951 91.9082 36.7773C91.791 36.9531 91.7324 37.1484 91.7324 37.3633C91.7324 37.526 91.765 37.6725 91.8301 37.8027C91.9017 37.9264 92.0156 38.0404 92.1719 38.1445C92.3281 38.2487 92.5299 38.3464 92.7773 38.4375C93.0312 38.5221 93.3438 38.6003 93.7148 38.6719C94.4766 38.8281 95.1569 39.0332 95.7559 39.2871C96.3548 39.5345 96.8301 39.873 97.1816 40.3027C97.5332 40.7259 97.709 41.2826 97.709 41.9727C97.709 42.4414 97.6048 42.8711 97.3965 43.2617C97.1882 43.6523 96.8887 43.9941 96.498 44.2871C96.1074 44.5736 95.6387 44.7982 95.0918 44.9609C94.5514 45.1172 93.9427 45.1953 93.2656 45.1953C92.2826 45.1953 91.4492 45.0195 90.7656 44.668C90.0885 44.3164 89.5742 43.8704 89.2227 43.3301C88.8776 42.7832 88.7051 42.2233 88.7051 41.6504H91.3711C91.3841 42.0345 91.4818 42.3438 91.6641 42.5781C91.8529 42.8125 92.0905 42.9818 92.377 43.0859C92.6699 43.1901 92.9857 43.2422 93.3242 43.2422C93.6888 43.2422 93.9915 43.1934 94.2324 43.0957C94.4733 42.9915 94.6556 42.8548 94.7793 42.6855C94.9095 42.5098 94.9746 42.3079 94.9746 42.0801ZM102.504 34.4336V45H99.6816V34.4336H102.504ZM99.5059 31.6797C99.5059 31.2695 99.6491 30.931 99.9355 30.6641C100.222 30.3971 100.606 30.2637 101.088 30.2637C101.563 30.2637 101.944 30.3971 102.23 30.6641C102.523 30.931 102.67 31.2695 102.67 31.6797C102.67 32.0898 102.523 32.4284 102.23 32.6953C101.944 32.9622 101.563 33.0957 101.088 33.0957C100.606 33.0957 100.222 32.9622 99.9355 32.6953C99.6491 32.4284 99.5059 32.0898 99.5059 31.6797ZM107.582 36.6895V45H104.77V34.4336H107.406L107.582 36.6895ZM107.172 39.3457H106.41C106.41 38.5645 106.511 37.8613 106.713 37.2363C106.915 36.6048 107.198 36.0677 107.562 35.625C107.927 35.1758 108.36 34.834 108.861 34.5996C109.369 34.3587 109.936 34.2383 110.561 34.2383C111.055 34.2383 111.508 34.3099 111.918 34.4531C112.328 34.5964 112.68 34.8242 112.973 35.1367C113.272 35.4492 113.5 35.8626 113.656 36.377C113.819 36.8913 113.9 37.5195 113.9 38.2617V45H111.068V38.252C111.068 37.7832 111.003 37.4186 110.873 37.1582C110.743 36.8978 110.551 36.7155 110.297 36.6113C110.049 36.5007 109.743 36.4453 109.379 36.4453C109.001 36.4453 108.673 36.5202 108.393 36.6699C108.119 36.8197 107.891 37.028 107.709 37.2949C107.533 37.5553 107.4 37.8613 107.309 38.2129C107.217 38.5645 107.172 38.9421 107.172 39.3457ZM122.729 34.4336H125.277V44.6484C125.277 45.612 125.062 46.429 124.633 47.0996C124.21 47.7767 123.617 48.2878 122.855 48.6328C122.094 48.9844 121.208 49.1602 120.199 49.1602C119.757 49.1602 119.288 49.1016 118.793 48.9844C118.305 48.8672 117.836 48.6849 117.387 48.4375C116.944 48.1901 116.573 47.8776 116.273 47.5L117.514 45.8398C117.839 46.2174 118.217 46.5104 118.646 46.7188C119.076 46.9336 119.551 47.041 120.072 47.041C120.58 47.041 121.01 46.9466 121.361 46.7578C121.713 46.5755 121.983 46.3053 122.172 45.9473C122.361 45.5957 122.455 45.1693 122.455 44.668V36.875L122.729 34.4336ZM115.619 39.8438V39.6387C115.619 38.8314 115.717 38.099 115.912 37.4414C116.114 36.7773 116.397 36.2077 116.762 35.7324C117.133 35.2572 117.582 34.8893 118.109 34.6289C118.637 34.3685 119.232 34.2383 119.896 34.2383C120.6 34.2383 121.189 34.3685 121.664 34.6289C122.139 34.8893 122.53 35.2604 122.836 35.7422C123.142 36.2174 123.38 36.7806 123.549 37.4316C123.725 38.0762 123.861 38.7826 123.959 39.5508V40C123.861 40.7357 123.715 41.4193 123.52 42.0508C123.324 42.6823 123.067 43.2357 122.748 43.7109C122.429 44.1797 122.032 44.5443 121.557 44.8047C121.088 45.0651 120.528 45.1953 119.877 45.1953C119.226 45.1953 118.637 45.0618 118.109 44.7949C117.589 44.528 117.143 44.1536 116.771 43.6719C116.4 43.1901 116.114 42.6237 115.912 41.9727C115.717 41.3216 115.619 40.612 115.619 39.8438ZM118.432 39.6387V39.8438C118.432 40.2799 118.474 40.6868 118.559 41.0645C118.643 41.4421 118.773 41.7773 118.949 42.0703C119.132 42.3568 119.356 42.5814 119.623 42.7441C119.896 42.9004 120.219 42.9785 120.59 42.9785C121.104 42.9785 121.524 42.8711 121.85 42.6562C122.175 42.4349 122.419 42.1322 122.582 41.748C122.745 41.3639 122.839 40.9212 122.865 40.4199V39.1406C122.852 38.7305 122.797 38.3626 122.699 38.0371C122.602 37.7051 122.465 37.4219 122.289 37.1875C122.113 36.9531 121.885 36.7708 121.605 36.6406C121.326 36.5104 120.993 36.4453 120.609 36.4453C120.238 36.4453 119.916 36.5299 119.643 36.6992C119.376 36.862 119.151 37.0866 118.969 37.373C118.793 37.6595 118.66 37.998 118.568 38.3887C118.477 38.7728 118.432 39.1895 118.432 39.6387ZM130.434 30V45H127.611V30H130.434ZM137.621 45.1953C136.801 45.1953 136.065 45.0651 135.414 44.8047C134.763 44.5378 134.21 44.1699 133.754 43.7012C133.305 43.2324 132.96 42.6888 132.719 42.0703C132.478 41.4453 132.357 40.7812 132.357 40.0781V39.6875C132.357 38.8867 132.471 38.1543 132.699 37.4902C132.927 36.8262 133.253 36.25 133.676 35.7617C134.105 35.2734 134.626 34.8991 135.238 34.6387C135.85 34.3717 136.54 34.2383 137.309 34.2383C138.057 34.2383 138.721 34.362 139.301 34.6094C139.88 34.8568 140.365 35.2083 140.756 35.6641C141.153 36.1198 141.452 36.6667 141.654 37.3047C141.856 37.9362 141.957 38.6393 141.957 39.4141V40.5859H133.559V38.7109H139.193V38.4961C139.193 38.1055 139.122 37.7572 138.979 37.4512C138.842 37.1387 138.633 36.8913 138.354 36.709C138.074 36.5267 137.715 36.4355 137.279 36.4355C136.908 36.4355 136.589 36.5169 136.322 36.6797C136.055 36.8424 135.837 37.0703 135.668 37.3633C135.505 37.6562 135.382 38.0013 135.297 38.3984C135.219 38.7891 135.18 39.2188 135.18 39.6875V40.0781C135.18 40.5013 135.238 40.8919 135.355 41.25C135.479 41.6081 135.652 41.9173 135.873 42.1777C136.101 42.4382 136.374 42.64 136.693 42.7832C137.019 42.9264 137.387 42.998 137.797 42.998C138.305 42.998 138.777 42.9004 139.213 42.7051C139.656 42.5033 140.036 42.2005 140.355 41.7969L141.723 43.2812C141.501 43.6003 141.199 43.9062 140.814 44.1992C140.437 44.4922 139.981 44.7331 139.447 44.9219C138.913 45.1042 138.305 45.1953 137.621 45.1953ZM152.904 42.998C153.249 42.998 153.555 42.9329 153.822 42.8027C154.089 42.666 154.298 42.4772 154.447 42.2363C154.604 41.9889 154.685 41.6992 154.691 41.3672H157.338C157.331 42.1094 157.133 42.7702 156.742 43.3496C156.352 43.9225 155.827 44.375 155.17 44.707C154.512 45.0326 153.777 45.1953 152.963 45.1953C152.143 45.1953 151.426 45.0586 150.814 44.7852C150.209 44.5117 149.704 44.1341 149.301 43.6523C148.897 43.1641 148.594 42.5977 148.393 41.9531C148.191 41.3021 148.09 40.6055 148.09 39.8633V39.5801C148.09 38.8314 148.191 38.1348 148.393 37.4902C148.594 36.8392 148.897 36.2728 149.301 35.791C149.704 35.3027 150.209 34.9219 150.814 34.6484C151.42 34.375 152.13 34.2383 152.943 34.2383C153.809 34.2383 154.568 34.4043 155.219 34.7363C155.876 35.0684 156.391 35.5436 156.762 36.1621C157.139 36.7741 157.331 37.5 157.338 38.3398H154.691C154.685 37.9883 154.61 37.6693 154.467 37.3828C154.33 37.0964 154.128 36.8685 153.861 36.6992C153.601 36.5234 153.279 36.4355 152.895 36.4355C152.484 36.4355 152.149 36.5234 151.889 36.6992C151.628 36.8685 151.426 37.1029 151.283 37.4023C151.14 37.6953 151.039 38.0306 150.98 38.4082C150.928 38.7793 150.902 39.1699 150.902 39.5801V39.8633C150.902 40.2734 150.928 40.6673 150.98 41.0449C151.033 41.4225 151.13 41.7578 151.273 42.0508C151.423 42.3438 151.628 42.5749 151.889 42.7441C152.149 42.9134 152.488 42.998 152.904 42.998ZM161.938 30V45H159.115V30H161.938ZM167.23 34.4336V45H164.408V34.4336H167.23ZM164.232 31.6797C164.232 31.2695 164.376 30.931 164.662 30.6641C164.949 30.3971 165.333 30.2637 165.814 30.2637C166.29 30.2637 166.671 30.3971 166.957 30.6641C167.25 30.931 167.396 31.2695 167.396 31.6797C167.396 32.0898 167.25 32.4284 166.957 32.6953C166.671 32.9622 166.29 33.0957 165.814 33.0957C165.333 33.0957 164.949 32.9622 164.662 32.6953C164.376 32.4284 164.232 32.0898 164.232 31.6797ZM173.92 42.998C174.265 42.998 174.571 42.9329 174.838 42.8027C175.105 42.666 175.313 42.4772 175.463 42.2363C175.619 41.9889 175.701 41.6992 175.707 41.3672H178.354C178.347 42.1094 178.148 42.7702 177.758 43.3496C177.367 43.9225 176.843 44.375 176.186 44.707C175.528 45.0326 174.792 45.1953 173.979 45.1953C173.158 45.1953 172.442 45.0586 171.83 44.7852C171.225 44.5117 170.72 44.1341 170.316 43.6523C169.913 43.1641 169.61 42.5977 169.408 41.9531C169.206 41.3021 169.105 40.6055 169.105 39.8633V39.5801C169.105 38.8314 169.206 38.1348 169.408 37.4902C169.61 36.8392 169.913 36.2728 170.316 35.791C170.72 35.3027 171.225 34.9219 171.83 34.6484C172.436 34.375 173.145 34.2383 173.959 34.2383C174.825 34.2383 175.583 34.4043 176.234 34.7363C176.892 35.0684 177.406 35.5436 177.777 36.1621C178.155 36.7741 178.347 37.5 178.354 38.3398H175.707C175.701 37.9883 175.626 37.6693 175.482 37.3828C175.346 37.0964 175.144 36.8685 174.877 36.6992C174.617 36.5234 174.294 36.4355 173.91 36.4355C173.5 36.4355 173.165 36.5234 172.904 36.6992C172.644 36.8685 172.442 37.1029 172.299 37.4023C172.156 37.6953 172.055 38.0306 171.996 38.4082C171.944 38.7793 171.918 39.1699 171.918 39.5801V39.8633C171.918 40.2734 171.944 40.6673 171.996 41.0449C172.048 41.4225 172.146 41.7578 172.289 42.0508C172.439 42.3438 172.644 42.5749 172.904 42.7441C173.165 42.9134 173.503 42.998 173.92 42.998ZM182.797 29.9902V45H179.984V29.9902H182.797ZM189.457 34.4336L184.867 39.668L182.406 42.1582L181.381 40.127L183.334 37.6465L186.078 34.4336H189.457ZM186.537 45L183.412 40.1172L185.355 38.418L189.779 45H186.537ZM190.805 43.6426C190.805 43.2259 190.948 42.8776 191.234 42.5977C191.527 42.3177 191.915 42.1777 192.396 42.1777C192.878 42.1777 193.262 42.3177 193.549 42.5977C193.842 42.8776 193.988 43.2259 193.988 43.6426C193.988 44.0592 193.842 44.4076 193.549 44.6875C193.262 44.9674 192.878 45.1074 192.396 45.1074C191.915 45.1074 191.527 44.9674 191.234 44.6875C190.948 44.4076 190.805 44.0592 190.805 43.6426Z" fill="white"/>
<circle cx="21" cy="34" r="17" fill="#3D5CFF"/>
<path d="M14.0027 33.1913H25.4313L21.6713 29.447C21.4549 29.2333 21.3332 28.9424 21.3332 28.639C21.3332 28.3355 21.4549 28.0446 21.6713 27.8309C22.117 27.3897 22.837 27.3897 23.2827 27.8309L28.1856 32.7247C28.6148 33.1496 28.8573 33.7266 28.8599 34.3293C28.8543 34.9281 28.612 35.5005 28.1856 35.9226L23.2827 40.8164C22.9928 41.103 22.5714 41.2139 22.1771 41.1072C21.7829 41.0005 21.4758 40.6925 21.3714 40.2992C21.2671 39.9058 21.3814 39.4869 21.6713 39.2003L25.4313 35.4674H14.0027C13.3715 35.4674 12.8599 34.9579 12.8599 34.3293C12.8599 33.7008 13.3715 33.1913 14.0027 33.1913Z" fill="white"/>
</svg>
