<svg width="122" height="41" viewBox="0 0 122 41" fill="none" xmlns="http://www.w3.org/2000/svg">
<g clip-path="url(#clip0_0_1063)">
<rect y="0.747803" width="122" height="40" rx="16" fill="#FDCB6E"/>
<path d="M50.2031 21.5117H45.8203L45.7969 19.0977H49.4766C50.125 19.0977 50.6562 19.0156 51.0703 18.8516C51.4844 18.6797 51.793 18.4336 51.9961 18.1133C52.207 17.7852 52.3125 17.3867 52.3125 16.918C52.3125 16.3867 52.2109 15.957 52.0078 15.6289C51.8125 15.3008 51.5039 15.0625 51.082 14.9141C50.668 14.7656 50.1328 14.6914 49.4766 14.6914H47.0391V29H43.5234V11.9375H49.4766C50.4688 11.9375 51.3555 12.0312 52.1367 12.2188C52.9258 12.4062 53.5938 12.6914 54.1406 13.0742C54.6875 13.457 55.1055 13.9414 55.3945 14.5273C55.6836 15.1055 55.8281 15.793 55.8281 16.5898C55.8281 17.293 55.668 17.9414 55.3477 18.5352C55.0352 19.1289 54.5391 19.6133 53.8594 19.9883C53.1875 20.3633 52.3086 20.5703 51.2227 20.6094L50.2031 21.5117ZM50.0508 29H44.8594L46.2305 26.2578H50.0508C50.668 26.2578 51.1719 26.1602 51.5625 25.9648C51.9531 25.7617 52.2422 25.4883 52.4297 25.1445C52.6172 24.8008 52.7109 24.4062 52.7109 23.9609C52.7109 23.4609 52.625 23.0273 52.4531 22.6602C52.2891 22.293 52.0234 22.0117 51.6562 21.8164C51.2891 21.6133 50.8047 21.5117 50.2031 21.5117H46.8164L46.8398 19.0977H51.0586L51.8672 20.0469C52.9062 20.0312 53.7422 20.2148 54.375 20.5977C55.0156 20.9727 55.4805 21.4609 55.7695 22.0625C56.0664 22.6641 56.2148 23.3086 56.2148 23.9961C56.2148 25.0898 55.9766 26.0117 55.5 26.7617C55.0234 27.5039 54.3242 28.0625 53.4023 28.4375C52.4883 28.8125 51.3711 29 50.0508 29ZM58.1016 22.7891V22.543C58.1016 21.6133 58.2344 20.7578 58.5 19.9766C58.7656 19.1875 59.1523 18.5039 59.6602 17.9258C60.168 17.3477 60.793 16.8984 61.5352 16.5781C62.2773 16.25 63.1289 16.0859 64.0898 16.0859C65.0508 16.0859 65.9062 16.25 66.6562 16.5781C67.4062 16.8984 68.0352 17.3477 68.543 17.9258C69.0586 18.5039 69.4492 19.1875 69.7148 19.9766C69.9805 20.7578 70.1133 21.6133 70.1133 22.543V22.7891C70.1133 23.7109 69.9805 24.5664 69.7148 25.3555C69.4492 26.1367 69.0586 26.8203 68.543 27.4062C68.0352 27.9844 67.4102 28.4336 66.668 28.7539C65.9258 29.0742 65.0742 29.2344 64.1133 29.2344C63.1523 29.2344 62.2969 29.0742 61.5469 28.7539C60.8047 28.4336 60.1758 27.9844 59.6602 27.4062C59.1523 26.8203 58.7656 26.1367 58.5 25.3555C58.2344 24.5664 58.1016 23.7109 58.1016 22.7891ZM61.4766 22.543V22.7891C61.4766 23.3203 61.5234 23.8164 61.6172 24.2773C61.7109 24.7383 61.8594 25.1445 62.0625 25.4961C62.2734 25.8398 62.5469 26.1094 62.8828 26.3047C63.2188 26.5 63.6289 26.5977 64.1133 26.5977C64.582 26.5977 64.9844 26.5 65.3203 26.3047C65.6562 26.1094 65.9258 25.8398 66.1289 25.4961C66.332 25.1445 66.4805 24.7383 66.5742 24.2773C66.6758 23.8164 66.7266 23.3203 66.7266 22.7891V22.543C66.7266 22.0273 66.6758 21.543 66.5742 21.0898C66.4805 20.6289 66.3281 20.2227 66.1172 19.8711C65.9141 19.5117 65.6445 19.2305 65.3086 19.0273C64.9727 18.8242 64.5664 18.7227 64.0898 18.7227C63.6133 18.7227 63.207 18.8242 62.8711 19.0273C62.543 19.2305 62.2734 19.5117 62.0625 19.8711C61.8594 20.2227 61.7109 20.6289 61.6172 21.0898C61.5234 21.543 61.4766 22.0273 61.4766 22.543ZM75.4922 19.0273V29H72.1172V16.3203H75.2812L75.4922 19.0273ZM75 22.2148H74.0859C74.0859 21.2773 74.207 20.4336 74.4492 19.6836C74.6914 18.9258 75.0312 18.2812 75.4688 17.75C75.9062 17.2109 76.4258 16.8008 77.0273 16.5195C77.6367 16.2305 78.3164 16.0859 79.0664 16.0859C79.6602 16.0859 80.2031 16.1719 80.6953 16.3438C81.1875 16.5156 81.6094 16.7891 81.9609 17.1641C82.3203 17.5391 82.5938 18.0352 82.7812 18.6523C82.9766 19.2695 83.0742 20.0234 83.0742 20.9141V29H79.6758V20.9023C79.6758 20.3398 79.5977 19.9023 79.4414 19.5898C79.2852 19.2773 79.0547 19.0586 78.75 18.9336C78.4531 18.8008 78.0859 18.7344 77.6484 18.7344C77.1953 18.7344 76.8008 18.8242 76.4648 19.0039C76.1367 19.1836 75.8633 19.4336 75.6445 19.7539C75.4336 20.0664 75.2734 20.4336 75.1641 20.8555C75.0547 21.2773 75 21.7305 75 22.2148ZM93.1289 26.2344V11H96.5273V29H93.4688L93.1289 26.2344ZM85.1133 22.8125V22.5664C85.1133 21.5977 85.2227 20.7188 85.4414 19.9297C85.6602 19.1328 85.9805 18.4492 86.4023 17.8789C86.8242 17.3086 87.3438 16.8672 87.9609 16.5547C88.5781 16.2422 89.2812 16.0859 90.0703 16.0859C90.8125 16.0859 91.4609 16.2422 92.0156 16.5547C92.5781 16.8672 93.0547 17.3125 93.4453 17.8906C93.8438 18.4609 94.1641 19.1367 94.4062 19.918C94.6484 20.6914 94.8242 21.5391 94.9336 22.4609V23C94.8242 23.8828 94.6484 24.7031 94.4062 25.4609C94.1641 26.2188 93.8438 26.8828 93.4453 27.4531C93.0547 28.0156 92.5781 28.4531 92.0156 28.7656C91.4531 29.0781 90.7969 29.2344 90.0469 29.2344C89.2578 29.2344 88.5547 29.0742 87.9375 28.7539C87.3281 28.4336 86.8125 27.9844 86.3906 27.4062C85.9766 26.8281 85.6602 26.1484 85.4414 25.3672C85.2227 24.5859 85.1133 23.7344 85.1133 22.8125ZM88.4883 22.5664V22.8125C88.4883 23.3359 88.5273 23.8242 88.6055 24.2773C88.6914 24.7305 88.8281 25.1328 89.0156 25.4844C89.2109 25.8281 89.4609 26.0977 89.7656 26.293C90.0781 26.4805 90.457 26.5742 90.9023 26.5742C91.4805 26.5742 91.957 26.4453 92.332 26.1875C92.707 25.9219 92.9922 25.5586 93.1875 25.0977C93.3906 24.6367 93.5078 24.1055 93.5391 23.5039V21.9688C93.5156 21.4766 93.4453 21.0352 93.3281 20.6445C93.2188 20.2461 93.0547 19.9062 92.8359 19.625C92.625 19.3438 92.3594 19.125 92.0391 18.9688C91.7266 18.8125 91.3555 18.7344 90.9258 18.7344C90.4883 18.7344 90.1133 18.8359 89.8008 19.0391C89.4883 19.2344 89.2344 19.5039 89.0391 19.8477C88.8516 20.1914 88.7109 20.5977 88.6172 21.0664C88.5312 21.5273 88.4883 22.0273 88.4883 22.5664ZM106.02 25.4961C106.02 25.2539 105.949 25.0352 105.809 24.8398C105.668 24.6445 105.406 24.4648 105.023 24.3008C104.648 24.1289 104.105 23.9727 103.395 23.832C102.754 23.6914 102.156 23.5156 101.602 23.3047C101.055 23.0859 100.578 22.8242 100.172 22.5195C99.7734 22.2148 99.4609 21.8555 99.2344 21.4414C99.0078 21.0195 98.8945 20.5391 98.8945 20C98.8945 19.4688 99.0078 18.9688 99.2344 18.5C99.4688 18.0312 99.8008 17.6172 100.23 17.2578C100.668 16.8906 101.199 16.6055 101.824 16.4023C102.457 16.1914 103.168 16.0859 103.957 16.0859C105.059 16.0859 106.004 16.2617 106.793 16.6133C107.59 16.9648 108.199 17.4492 108.621 18.0664C109.051 18.6758 109.266 19.3711 109.266 20.1523H105.891C105.891 19.8242 105.82 19.5312 105.68 19.2734C105.547 19.0078 105.336 18.8008 105.047 18.6523C104.766 18.4961 104.398 18.418 103.945 18.418C103.57 18.418 103.246 18.4844 102.973 18.6172C102.699 18.7422 102.488 18.9141 102.34 19.1328C102.199 19.3438 102.129 19.5781 102.129 19.8359C102.129 20.0312 102.168 20.207 102.246 20.3633C102.332 20.5117 102.469 20.6484 102.656 20.7734C102.844 20.8984 103.086 21.0156 103.383 21.125C103.688 21.2266 104.062 21.3203 104.508 21.4062C105.422 21.5938 106.238 21.8398 106.957 22.1445C107.676 22.4414 108.246 22.8477 108.668 23.3633C109.09 23.8711 109.301 24.5391 109.301 25.3672C109.301 25.9297 109.176 26.4453 108.926 26.9141C108.676 27.3828 108.316 27.793 107.848 28.1445C107.379 28.4883 106.816 28.7578 106.16 28.9531C105.512 29.1406 104.781 29.2344 103.969 29.2344C102.789 29.2344 101.789 29.0234 100.969 28.6016C100.156 28.1797 99.5391 27.6445 99.1172 26.9961C98.7031 26.3398 98.4961 25.668 98.4961 24.9805H101.695C101.711 25.4414 101.828 25.8125 102.047 26.0938C102.273 26.375 102.559 26.5781 102.902 26.7031C103.254 26.8281 103.633 26.8906 104.039 26.8906C104.477 26.8906 104.84 26.832 105.129 26.7148C105.418 26.5898 105.637 26.4258 105.785 26.2227C105.941 26.0117 106.02 25.7695 106.02 25.4961Z" fill="white"/>
<circle cx="20" cy="21" r="17" fill="#E17055"/>
<path d="M13.3554 23.7714L23.2529 18.0571L18.1245 16.6945C17.8303 16.6176 17.5794 16.4266 17.4277 16.1638C17.276 15.901 17.2359 15.5882 17.3165 15.295C17.4819 14.6899 18.1053 14.33 18.712 14.4892L25.4048 16.2759C25.989 16.4292 26.4876 16.8078 26.7911 17.3284C27.0857 17.8498 27.1621 18.4666 27.0038 19.0454L25.2047 25.7349C25.097 26.1281 24.7874 26.4349 24.3927 26.5396C23.9979 26.6443 23.5779 26.5311 23.2909 26.2427C23.0038 25.9542 22.8934 25.5343 23.0011 25.1411L24.3909 20.0283L14.4935 25.7426C13.9469 26.0582 13.249 25.8728 12.9347 25.3284C12.6205 24.7841 12.8088 24.087 13.3554 23.7714Z" fill="white"/>
</g>
<defs>
<clipPath id="clip0_0_1063">
<rect width="122" height="40" fill="white" transform="translate(0 0.747803)"/>
</clipPath>
</defs>
</svg>
