<svg width="189" height="142" viewBox="0 0 189 142" fill="none" xmlns="http://www.w3.org/2000/svg">
<path fill-rule="evenodd" clip-rule="evenodd" d="M0 16.1921C0 7.35559 7.16344 0.192139 16 0.192139H173C181.837 0.192139 189 7.35558 189 16.1921V125.565C189 134.401 181.837 141.565 173 141.565H16C7.16344 141.565 0 134.401 0 125.565L0 16.1921Z" fill="#6B49EB"/>
<path d="M68.0469 88.082V94.8438C67.7812 95.1641 67.3711 95.5117 66.8164 95.8867C66.2617 96.2539 65.5469 96.5703 64.6719 96.8359C63.7969 97.1016 62.7383 97.2344 61.4961 97.2344C60.3945 97.2344 59.3906 97.0547 58.4844 96.6953C57.5781 96.3281 56.7969 95.793 56.1406 95.0898C55.4922 94.3867 54.9922 93.5273 54.6406 92.5117C54.2891 91.4883 54.1133 90.3203 54.1133 89.0078V87.9414C54.1133 86.6289 54.2812 85.4609 54.6172 84.4375C54.9609 83.4141 55.4492 82.5508 56.082 81.8477C56.7148 81.1445 57.4688 80.6094 58.3438 80.2422C59.2188 79.875 60.1914 79.6914 61.2617 79.6914C62.7461 79.6914 63.9648 79.9336 64.918 80.418C65.8711 80.8945 66.5977 81.5586 67.0977 82.4102C67.6055 83.2539 67.918 84.2227 68.0352 85.3164H64.625C64.5391 84.7383 64.375 84.2344 64.1328 83.8047C63.8906 83.375 63.543 83.0391 63.0898 82.7969C62.6445 82.5547 62.0664 82.4336 61.3555 82.4336C60.7695 82.4336 60.2461 82.5547 59.7852 82.7969C59.332 83.0312 58.9492 83.3789 58.6367 83.8398C58.3242 84.3008 58.0859 84.8711 57.9219 85.5508C57.7578 86.2305 57.6758 87.0195 57.6758 87.918V89.0078C57.6758 89.8984 57.7617 90.6875 57.9336 91.375C58.1055 92.0547 58.3594 92.6289 58.6953 93.0977C59.0391 93.5586 59.4609 93.9062 59.9609 94.1406C60.4609 94.375 61.043 94.4922 61.707 94.4922C62.2617 94.4922 62.7227 94.4453 63.0898 94.3516C63.4648 94.2578 63.7656 94.1445 63.9922 94.0117C64.2266 93.8711 64.4062 93.7383 64.5312 93.6133V90.5898H61.3203V88.082H68.0469ZM70.1328 90.7891V90.543C70.1328 89.6133 70.2656 88.7578 70.5312 87.9766C70.7969 87.1875 71.1836 86.5039 71.6914 85.9258C72.1992 85.3477 72.8242 84.8984 73.5664 84.5781C74.3086 84.25 75.1602 84.0859 76.1211 84.0859C77.082 84.0859 77.9375 84.25 78.6875 84.5781C79.4375 84.8984 80.0664 85.3477 80.5742 85.9258C81.0898 86.5039 81.4805 87.1875 81.7461 87.9766C82.0117 88.7578 82.1445 89.6133 82.1445 90.543V90.7891C82.1445 91.7109 82.0117 92.5664 81.7461 93.3555C81.4805 94.1367 81.0898 94.8203 80.5742 95.4062C80.0664 95.9844 79.4414 96.4336 78.6992 96.7539C77.957 97.0742 77.1055 97.2344 76.1445 97.2344C75.1836 97.2344 74.3281 97.0742 73.5781 96.7539C72.8359 96.4336 72.207 95.9844 71.6914 95.4062C71.1836 94.8203 70.7969 94.1367 70.5312 93.3555C70.2656 92.5664 70.1328 91.7109 70.1328 90.7891ZM73.5078 90.543V90.7891C73.5078 91.3203 73.5547 91.8164 73.6484 92.2773C73.7422 92.7383 73.8906 93.1445 74.0938 93.4961C74.3047 93.8398 74.5781 94.1094 74.9141 94.3047C75.25 94.5 75.6602 94.5977 76.1445 94.5977C76.6133 94.5977 77.0156 94.5 77.3516 94.3047C77.6875 94.1094 77.957 93.8398 78.1602 93.4961C78.3633 93.1445 78.5117 92.7383 78.6055 92.2773C78.707 91.8164 78.7578 91.3203 78.7578 90.7891V90.543C78.7578 90.0273 78.707 89.543 78.6055 89.0898C78.5117 88.6289 78.3594 88.2227 78.1484 87.8711C77.9453 87.5117 77.6758 87.2305 77.3398 87.0273C77.0039 86.8242 76.5977 86.7227 76.1211 86.7227C75.6445 86.7227 75.2383 86.8242 74.9023 87.0273C74.5742 87.2305 74.3047 87.5117 74.0938 87.8711C73.8906 88.2227 73.7422 88.6289 73.6484 89.0898C73.5547 89.543 73.5078 90.0273 73.5078 90.543ZM97.4023 79.9375V97H93.8984V79.9375H97.4023ZM102.652 79.9375V82.6914H88.7305V79.9375H102.652ZM107 87.0859V97H103.625V84.3203H106.801L107 87.0859ZM110.82 84.2383L110.762 87.3672C110.598 87.3438 110.398 87.3242 110.164 87.3086C109.938 87.2852 109.73 87.2734 109.543 87.2734C109.066 87.2734 108.652 87.3359 108.301 87.4609C107.957 87.5781 107.668 87.7539 107.434 87.9883C107.207 88.2227 107.035 88.5078 106.918 88.8438C106.809 89.1797 106.746 89.5625 106.73 89.9922L106.051 89.7812C106.051 88.9609 106.133 88.207 106.297 87.5195C106.461 86.8242 106.699 86.2188 107.012 85.7031C107.332 85.1875 107.723 84.7891 108.184 84.5078C108.645 84.2266 109.172 84.0859 109.766 84.0859C109.953 84.0859 110.145 84.1016 110.34 84.1328C110.535 84.1562 110.695 84.1914 110.82 84.2383ZM118.859 94.1406V88.4922C118.859 88.0859 118.793 87.7383 118.66 87.4492C118.527 87.1523 118.32 86.9219 118.039 86.7578C117.766 86.5938 117.41 86.5117 116.973 86.5117C116.598 86.5117 116.273 86.5781 116 86.7109C115.727 86.8359 115.516 87.0195 115.367 87.2617C115.219 87.4961 115.145 87.7734 115.145 88.0938H111.77C111.77 87.5547 111.895 87.043 112.145 86.5586C112.395 86.0742 112.758 85.6484 113.234 85.2812C113.711 84.9062 114.277 84.6133 114.934 84.4023C115.598 84.1914 116.34 84.0859 117.16 84.0859C118.145 84.0859 119.02 84.25 119.785 84.5781C120.551 84.9062 121.152 85.3984 121.59 86.0547C122.035 86.7109 122.258 87.5312 122.258 88.5156V93.9414C122.258 94.6367 122.301 95.207 122.387 95.6523C122.473 96.0898 122.598 96.4727 122.762 96.8008V97H119.352C119.188 96.6562 119.062 96.2266 118.977 95.7109C118.898 95.1875 118.859 94.6641 118.859 94.1406ZM119.305 89.2773L119.328 91.1875H117.441C116.996 91.1875 116.609 91.2383 116.281 91.3398C115.953 91.4414 115.684 91.5859 115.473 91.7734C115.262 91.9531 115.105 92.1641 115.004 92.4062C114.91 92.6484 114.863 92.9141 114.863 93.2031C114.863 93.4922 114.93 93.7539 115.062 93.9883C115.195 94.2148 115.387 94.3945 115.637 94.5273C115.887 94.6523 116.18 94.7148 116.516 94.7148C117.023 94.7148 117.465 94.6133 117.84 94.4102C118.215 94.207 118.504 93.957 118.707 93.6602C118.918 93.3633 119.027 93.082 119.035 92.8164L119.926 94.2461C119.801 94.5664 119.629 94.8984 119.41 95.2422C119.199 95.5859 118.93 95.9102 118.602 96.2148C118.273 96.5117 117.879 96.7578 117.418 96.9531C116.957 97.1406 116.41 97.2344 115.777 97.2344C114.973 97.2344 114.242 97.0742 113.586 96.7539C112.938 96.4258 112.422 95.9766 112.039 95.4062C111.664 94.8281 111.477 94.1719 111.477 93.4375C111.477 92.7734 111.602 92.1836 111.852 91.668C112.102 91.1523 112.469 90.7188 112.953 90.3672C113.445 90.0078 114.059 89.7383 114.793 89.5586C115.527 89.3711 116.379 89.2773 117.348 89.2773H119.305ZM132.348 94.2344V79H135.746V97H132.688L132.348 94.2344ZM124.332 90.8125V90.5664C124.332 89.5977 124.441 88.7188 124.66 87.9297C124.879 87.1328 125.199 86.4492 125.621 85.8789C126.043 85.3086 126.562 84.8672 127.18 84.5547C127.797 84.2422 128.5 84.0859 129.289 84.0859C130.031 84.0859 130.68 84.2422 131.234 84.5547C131.797 84.8672 132.273 85.3125 132.664 85.8906C133.062 86.4609 133.383 87.1367 133.625 87.918C133.867 88.6914 134.043 89.5391 134.152 90.4609V91C134.043 91.8828 133.867 92.7031 133.625 93.4609C133.383 94.2188 133.062 94.8828 132.664 95.4531C132.273 96.0156 131.797 96.4531 131.234 96.7656C130.672 97.0781 130.016 97.2344 129.266 97.2344C128.477 97.2344 127.773 97.0742 127.156 96.7539C126.547 96.4336 126.031 95.9844 125.609 95.4062C125.195 94.8281 124.879 94.1484 124.66 93.3672C124.441 92.5859 124.332 91.7344 124.332 90.8125ZM127.707 90.5664V90.8125C127.707 91.3359 127.746 91.8242 127.824 92.2773C127.91 92.7305 128.047 93.1328 128.234 93.4844C128.43 93.8281 128.68 94.0977 128.984 94.293C129.297 94.4805 129.676 94.5742 130.121 94.5742C130.699 94.5742 131.176 94.4453 131.551 94.1875C131.926 93.9219 132.211 93.5586 132.406 93.0977C132.609 92.6367 132.727 92.1055 132.758 91.5039V89.9688C132.734 89.4766 132.664 89.0352 132.547 88.6445C132.438 88.2461 132.273 87.9062 132.055 87.625C131.844 87.3438 131.578 87.125 131.258 86.9688C130.945 86.8125 130.574 86.7344 130.145 86.7344C129.707 86.7344 129.332 86.8359 129.02 87.0391C128.707 87.2344 128.453 87.5039 128.258 87.8477C128.07 88.1914 127.93 88.5977 127.836 89.0664C127.75 89.5273 127.707 90.0273 127.707 90.5664ZM144.219 97.2344C143.234 97.2344 142.352 97.0781 141.57 96.7656C140.789 96.4453 140.125 96.0039 139.578 95.4414C139.039 94.8789 138.625 94.2266 138.336 93.4844C138.047 92.7344 137.902 91.9375 137.902 91.0938V90.625C137.902 89.6641 138.039 88.7852 138.312 87.9883C138.586 87.1914 138.977 86.5 139.484 85.9141C140 85.3281 140.625 84.8789 141.359 84.5664C142.094 84.2461 142.922 84.0859 143.844 84.0859C144.742 84.0859 145.539 84.2344 146.234 84.5312C146.93 84.8281 147.512 85.25 147.98 85.7969C148.457 86.3438 148.816 87 149.059 87.7656C149.301 88.5234 149.422 89.3672 149.422 90.2969V91.7031H139.344V89.4531H146.105V89.1953C146.105 88.7266 146.02 88.3086 145.848 87.9414C145.684 87.5664 145.434 87.2695 145.098 87.0508C144.762 86.832 144.332 86.7227 143.809 86.7227C143.363 86.7227 142.98 86.8203 142.66 87.0156C142.34 87.2109 142.078 87.4844 141.875 87.8359C141.68 88.1875 141.531 88.6016 141.43 89.0781C141.336 89.5469 141.289 90.0625 141.289 90.625V91.0938C141.289 91.6016 141.359 92.0703 141.5 92.5C141.648 92.9297 141.855 93.3008 142.121 93.6133C142.395 93.9258 142.723 94.168 143.105 94.3398C143.496 94.5117 143.938 94.5977 144.43 94.5977C145.039 94.5977 145.605 94.4805 146.129 94.2461C146.66 94.0039 147.117 93.6406 147.5 93.1562L149.141 94.9375C148.875 95.3203 148.512 95.6875 148.051 96.0391C147.598 96.3906 147.051 96.6797 146.41 96.9062C145.77 97.125 145.039 97.2344 144.219 97.2344ZM58.2617 107.938V125H54.7578V107.938H58.2617ZM64.6484 115.027V125H61.2734V112.32H64.4375L64.6484 115.027ZM64.1562 118.215H63.2422C63.2422 117.277 63.3633 116.434 63.6055 115.684C63.8477 114.926 64.1875 114.281 64.625 113.75C65.0625 113.211 65.582 112.801 66.1836 112.52C66.793 112.23 67.4727 112.086 68.2227 112.086C68.8164 112.086 69.3594 112.172 69.8516 112.344C70.3438 112.516 70.7656 112.789 71.1172 113.164C71.4766 113.539 71.75 114.035 71.9375 114.652C72.1328 115.27 72.2305 116.023 72.2305 116.914V125H68.832V116.902C68.832 116.34 68.7539 115.902 68.5977 115.59C68.4414 115.277 68.2109 115.059 67.9062 114.934C67.6094 114.801 67.2422 114.734 66.8047 114.734C66.3516 114.734 65.957 114.824 65.6211 115.004C65.293 115.184 65.0195 115.434 64.8008 115.754C64.5898 116.066 64.4297 116.434 64.3203 116.855C64.2109 117.277 64.1562 117.73 64.1562 118.215ZM82.2852 122.234V107H85.6836V125H82.625L82.2852 122.234ZM74.2695 118.812V118.566C74.2695 117.598 74.3789 116.719 74.5977 115.93C74.8164 115.133 75.1367 114.449 75.5586 113.879C75.9805 113.309 76.5 112.867 77.1172 112.555C77.7344 112.242 78.4375 112.086 79.2266 112.086C79.9688 112.086 80.6172 112.242 81.1719 112.555C81.7344 112.867 82.2109 113.312 82.6016 113.891C83 114.461 83.3203 115.137 83.5625 115.918C83.8047 116.691 83.9805 117.539 84.0898 118.461V119C83.9805 119.883 83.8047 120.703 83.5625 121.461C83.3203 122.219 83 122.883 82.6016 123.453C82.2109 124.016 81.7344 124.453 81.1719 124.766C80.6094 125.078 79.9531 125.234 79.2031 125.234C78.4141 125.234 77.7109 125.074 77.0938 124.754C76.4844 124.434 75.9688 123.984 75.5469 123.406C75.1328 122.828 74.8164 122.148 74.5977 121.367C74.3789 120.586 74.2695 119.734 74.2695 118.812ZM77.6445 118.566V118.812C77.6445 119.336 77.6836 119.824 77.7617 120.277C77.8477 120.73 77.9844 121.133 78.1719 121.484C78.3672 121.828 78.6172 122.098 78.9219 122.293C79.2344 122.48 79.6133 122.574 80.0586 122.574C80.6367 122.574 81.1133 122.445 81.4883 122.188C81.8633 121.922 82.1484 121.559 82.3438 121.098C82.5469 120.637 82.6641 120.105 82.6953 119.504V117.969C82.6719 117.477 82.6016 117.035 82.4844 116.645C82.375 116.246 82.2109 115.906 81.9922 115.625C81.7812 115.344 81.5156 115.125 81.1953 114.969C80.8828 114.812 80.5117 114.734 80.082 114.734C79.6445 114.734 79.2695 114.836 78.957 115.039C78.6445 115.234 78.3906 115.504 78.1953 115.848C78.0078 116.191 77.8672 116.598 77.7734 117.066C77.6875 117.527 77.6445 118.027 77.6445 118.566ZM91.8828 112.32V125H88.4961V112.32H91.8828ZM88.2852 109.016C88.2852 108.523 88.457 108.117 88.8008 107.797C89.1445 107.477 89.6055 107.316 90.1836 107.316C90.7539 107.316 91.2109 107.477 91.5547 107.797C91.9062 108.117 92.082 108.523 92.082 109.016C92.082 109.508 91.9062 109.914 91.5547 110.234C91.2109 110.555 90.7539 110.715 90.1836 110.715C89.6055 110.715 89.1445 110.555 88.8008 110.234C88.457 109.914 88.2852 109.508 88.2852 109.016ZM101.516 122.141V116.492C101.516 116.086 101.449 115.738 101.316 115.449C101.184 115.152 100.977 114.922 100.695 114.758C100.422 114.594 100.066 114.512 99.6289 114.512C99.2539 114.512 98.9297 114.578 98.6562 114.711C98.3828 114.836 98.1719 115.02 98.0234 115.262C97.875 115.496 97.8008 115.773 97.8008 116.094H94.4258C94.4258 115.555 94.5508 115.043 94.8008 114.559C95.0508 114.074 95.4141 113.648 95.8906 113.281C96.3672 112.906 96.9336 112.613 97.5898 112.402C98.2539 112.191 98.9961 112.086 99.8164 112.086C100.801 112.086 101.676 112.25 102.441 112.578C103.207 112.906 103.809 113.398 104.246 114.055C104.691 114.711 104.914 115.531 104.914 116.516V121.941C104.914 122.637 104.957 123.207 105.043 123.652C105.129 124.09 105.254 124.473 105.418 124.801V125H102.008C101.844 124.656 101.719 124.227 101.633 123.711C101.555 123.188 101.516 122.664 101.516 122.141ZM101.961 117.277L101.984 119.188H100.098C99.6523 119.188 99.2656 119.238 98.9375 119.34C98.6094 119.441 98.3398 119.586 98.1289 119.773C97.918 119.953 97.7617 120.164 97.6602 120.406C97.5664 120.648 97.5195 120.914 97.5195 121.203C97.5195 121.492 97.5859 121.754 97.7188 121.988C97.8516 122.215 98.043 122.395 98.293 122.527C98.543 122.652 98.8359 122.715 99.1719 122.715C99.6797 122.715 100.121 122.613 100.496 122.41C100.871 122.207 101.16 121.957 101.363 121.66C101.574 121.363 101.684 121.082 101.691 120.816L102.582 122.246C102.457 122.566 102.285 122.898 102.066 123.242C101.855 123.586 101.586 123.91 101.258 124.215C100.93 124.512 100.535 124.758 100.074 124.953C99.6133 125.141 99.0664 125.234 98.4336 125.234C97.6289 125.234 96.8984 125.074 96.2422 124.754C95.5938 124.426 95.0781 123.977 94.6953 123.406C94.3203 122.828 94.1328 122.172 94.1328 121.438C94.1328 120.773 94.2578 120.184 94.5078 119.668C94.7578 119.152 95.125 118.719 95.6094 118.367C96.1016 118.008 96.7148 117.738 97.4492 117.559C98.1836 117.371 99.0352 117.277 100.004 117.277H101.961Z" fill="white"/>
<path d="M21.5586 25.4648V26.0039C21.5586 26.6445 21.4785 27.2188 21.3184 27.7266C21.1582 28.2344 20.9277 28.666 20.627 29.0215C20.3262 29.377 19.9648 29.6484 19.543 29.8359C19.125 30.0234 18.6562 30.1172 18.1367 30.1172C17.6328 30.1172 17.1699 30.0234 16.748 29.8359C16.3301 29.6484 15.9668 29.377 15.6582 29.0215C15.3535 28.666 15.1172 28.2344 14.9492 27.7266C14.7812 27.2188 14.6973 26.6445 14.6973 26.0039V25.4648C14.6973 24.8242 14.7793 24.252 14.9434 23.748C15.1113 23.2402 15.3477 22.8086 15.6523 22.4531C15.957 22.0938 16.3184 21.8203 16.7363 21.6328C17.1582 21.4453 17.6211 21.3516 18.125 21.3516C18.6445 21.3516 19.1133 21.4453 19.5312 21.6328C19.9531 21.8203 20.3145 22.0938 20.6152 22.4531C20.9199 22.8086 21.1523 23.2402 21.3125 23.748C21.4766 24.252 21.5586 24.8242 21.5586 25.4648ZM20.4395 26.0039V25.4531C20.4395 24.9453 20.3867 24.4961 20.2812 24.1055C20.1797 23.7148 20.0293 23.3867 19.8301 23.1211C19.6309 22.8555 19.3867 22.6543 19.0977 22.5176C18.8125 22.3809 18.4883 22.3125 18.125 22.3125C17.7734 22.3125 17.4551 22.3809 17.1699 22.5176C16.8887 22.6543 16.6465 22.8555 16.4434 23.1211C16.2441 23.3867 16.0898 23.7148 15.9805 24.1055C15.8711 24.4961 15.8164 24.9453 15.8164 25.4531V26.0039C15.8164 26.5156 15.8711 26.9688 15.9805 27.3633C16.0898 27.7539 16.2461 28.084 16.4492 28.3535C16.6562 28.6191 16.9004 28.8203 17.1816 28.957C17.4668 29.0938 17.7852 29.1621 18.1367 29.1621C18.5039 29.1621 18.8301 29.0938 19.1152 28.957C19.4004 28.8203 19.6406 28.6191 19.8359 28.3535C20.0352 28.084 20.1855 27.7539 20.2871 27.3633C20.3887 26.9688 20.4395 26.5156 20.4395 26.0039ZM24.1719 24.8789V32.4375H23.082V23.6602H24.0781L24.1719 24.8789ZM28.4434 26.7773V26.9004C28.4434 27.3613 28.3887 27.7891 28.2793 28.1836C28.1699 28.5742 28.0098 28.9141 27.7988 29.2031C27.5918 29.4922 27.3359 29.7168 27.0312 29.877C26.7266 30.0371 26.377 30.1172 25.9824 30.1172C25.5801 30.1172 25.2246 30.0508 24.916 29.918C24.6074 29.7852 24.3457 29.5918 24.1309 29.3379C23.916 29.084 23.7441 28.7793 23.6152 28.4238C23.4902 28.0684 23.4043 27.668 23.3574 27.2227V26.5664C23.4043 26.0977 23.4922 25.6777 23.6211 25.3066C23.75 24.9355 23.9199 24.6191 24.1309 24.3574C24.3457 24.0918 24.6055 23.8906 24.9102 23.7539C25.2148 23.6133 25.5664 23.543 25.9648 23.543C26.3633 23.543 26.7168 23.6211 27.0254 23.7773C27.334 23.9297 27.5938 24.1484 27.8047 24.4336C28.0156 24.7188 28.1738 25.0605 28.2793 25.459C28.3887 25.8535 28.4434 26.293 28.4434 26.7773ZM27.3535 26.9004V26.7773C27.3535 26.4609 27.3203 26.1641 27.2539 25.8867C27.1875 25.6055 27.084 25.3594 26.9434 25.1484C26.8066 24.9336 26.6309 24.7656 26.416 24.6445C26.2012 24.5195 25.9453 24.457 25.6484 24.457C25.375 24.457 25.1367 24.5039 24.9336 24.5977C24.7344 24.6914 24.5645 24.8184 24.4238 24.9785C24.2832 25.1348 24.168 25.3145 24.0781 25.5176C23.9922 25.7168 23.9277 25.9238 23.8848 26.1387V27.6562C23.9629 27.9297 24.0723 28.1875 24.2129 28.4297C24.3535 28.668 24.541 28.8613 24.7754 29.0098C25.0098 29.1543 25.3047 29.2266 25.6602 29.2266C25.9531 29.2266 26.2051 29.166 26.416 29.0449C26.6309 28.9199 26.8066 28.75 26.9434 28.5352C27.084 28.3203 27.1875 28.0742 27.2539 27.7969C27.3203 27.5156 27.3535 27.2168 27.3535 26.9004ZM32.457 30.1172C32.0156 30.1172 31.6152 30.043 31.2559 29.8945C30.9004 29.7422 30.5938 29.5293 30.3359 29.2559C30.082 28.9824 29.8867 28.6582 29.75 28.2832C29.6133 27.9082 29.5449 27.498 29.5449 27.0527V26.8066C29.5449 26.291 29.6211 25.832 29.7734 25.4297C29.9258 25.0234 30.1328 24.6797 30.3945 24.3984C30.6562 24.1172 30.9531 23.9043 31.2852 23.7598C31.6172 23.6152 31.9609 23.543 32.3164 23.543C32.7695 23.543 33.1602 23.6211 33.4883 23.7773C33.8203 23.9336 34.0918 24.1523 34.3027 24.4336C34.5137 24.7109 34.6699 25.0391 34.7715 25.418C34.873 25.793 34.9238 26.2031 34.9238 26.6484V27.1348H30.1895V26.25H33.8398V26.168C33.8242 25.8867 33.7656 25.6133 33.6641 25.3477C33.5664 25.082 33.4102 24.8633 33.1953 24.6914C32.9805 24.5195 32.6875 24.4336 32.3164 24.4336C32.0703 24.4336 31.8438 24.4863 31.6367 24.5918C31.4297 24.6934 31.252 24.8457 31.1035 25.0488C30.9551 25.252 30.8398 25.5 30.7578 25.793C30.6758 26.0859 30.6348 26.4238 30.6348 26.8066V27.0527C30.6348 27.3535 30.6758 27.6367 30.7578 27.9023C30.8438 28.1641 30.9668 28.3945 31.127 28.5938C31.291 28.793 31.4883 28.9492 31.7188 29.0625C31.9531 29.1758 32.2188 29.2324 32.5156 29.2324C32.8984 29.2324 33.2227 29.1543 33.4883 28.998C33.7539 28.8418 33.9863 28.6328 34.1855 28.3711L34.8418 28.8926C34.7051 29.0996 34.5312 29.2969 34.3203 29.4844C34.1094 29.6719 33.8496 29.8242 33.541 29.9414C33.2363 30.0586 32.875 30.1172 32.457 30.1172ZM37.2734 25.0137V30H36.1895V23.6602H37.2148L37.2734 25.0137ZM37.0156 26.5898L36.5645 26.5723C36.5684 26.1387 36.6328 25.7383 36.7578 25.3711C36.8828 25 37.0586 24.6777 37.2852 24.4043C37.5117 24.1309 37.7812 23.9199 38.0938 23.7715C38.4102 23.6191 38.7598 23.543 39.1426 23.543C39.4551 23.543 39.7363 23.5859 39.9863 23.6719C40.2363 23.7539 40.4492 23.8867 40.625 24.0703C40.8047 24.2539 40.9414 24.4922 41.0352 24.7852C41.1289 25.0742 41.1758 25.4277 41.1758 25.8457V30H40.0859V25.834C40.0859 25.502 40.0371 25.2363 39.9395 25.0371C39.8418 24.834 39.6992 24.6875 39.5117 24.5977C39.3242 24.5039 39.0938 24.457 38.8203 24.457C38.5508 24.457 38.3047 24.5137 38.082 24.627C37.8633 24.7402 37.6738 24.8965 37.5137 25.0957C37.3574 25.2949 37.2344 25.5234 37.1445 25.7812C37.0586 26.0352 37.0156 26.3047 37.0156 26.5898ZM44 23.6602V30H42.9102V23.6602H44ZM42.8281 21.9785C42.8281 21.8027 42.8809 21.6543 42.9863 21.5332C43.0957 21.4121 43.2559 21.3516 43.4668 21.3516C43.6738 21.3516 43.832 21.4121 43.9414 21.5332C44.0547 21.6543 44.1113 21.8027 44.1113 21.9785C44.1113 22.1465 44.0547 22.291 43.9414 22.4121C43.832 22.5293 43.6738 22.5879 43.4668 22.5879C43.2559 22.5879 43.0957 22.5293 42.9863 22.4121C42.8809 22.291 42.8281 22.1465 42.8281 21.9785ZM46.8242 25.0137V30H45.7402V23.6602H46.7656L46.8242 25.0137ZM46.5664 26.5898L46.1152 26.5723C46.1191 26.1387 46.1836 25.7383 46.3086 25.3711C46.4336 25 46.6094 24.6777 46.8359 24.4043C47.0625 24.1309 47.332 23.9199 47.6445 23.7715C47.9609 23.6191 48.3105 23.543 48.6934 23.543C49.0059 23.543 49.2871 23.5859 49.5371 23.6719C49.7871 23.7539 50 23.8867 50.1758 24.0703C50.3555 24.2539 50.4922 24.4922 50.5859 24.7852C50.6797 25.0742 50.7266 25.4277 50.7266 25.8457V30H49.6367V25.834C49.6367 25.502 49.5879 25.2363 49.4902 25.0371C49.3926 24.834 49.25 24.6875 49.0625 24.5977C48.875 24.5039 48.6445 24.457 48.3711 24.457C48.1016 24.457 47.8555 24.5137 47.6328 24.627C47.4141 24.7402 47.2246 24.8965 47.0645 25.0957C46.9082 25.2949 46.7852 25.5234 46.6953 25.7812C46.6094 26.0352 46.5664 26.3047 46.5664 26.5898ZM56.4805 23.6602H57.4648V29.8652C57.4648 30.4238 57.3516 30.9004 57.125 31.2949C56.8984 31.6895 56.582 31.9883 56.1758 32.1914C55.7734 32.3984 55.3086 32.502 54.7812 32.502C54.5625 32.502 54.3047 32.4668 54.0078 32.3965C53.7148 32.3301 53.4258 32.2148 53.1406 32.0508C52.8594 31.8906 52.623 31.6738 52.4316 31.4004L53 30.7559C53.2656 31.0762 53.543 31.2988 53.832 31.4238C54.125 31.5488 54.4141 31.6113 54.6992 31.6113C55.043 31.6113 55.3398 31.5469 55.5898 31.418C55.8398 31.2891 56.0332 31.0977 56.1699 30.8438C56.3105 30.5938 56.3809 30.2852 56.3809 29.918V25.0547L56.4805 23.6602ZM52.1152 26.9004V26.7773C52.1152 26.293 52.1719 25.8535 52.2852 25.459C52.4023 25.0605 52.5684 24.7188 52.7832 24.4336C53.002 24.1484 53.2656 23.9297 53.5742 23.7773C53.8828 23.6211 54.2305 23.543 54.6172 23.543C55.0156 23.543 55.3633 23.6133 55.6602 23.7539C55.9609 23.8906 56.2148 24.0918 56.4219 24.3574C56.6328 24.6191 56.7988 24.9355 56.9199 25.3066C57.041 25.6777 57.125 26.0977 57.1719 26.5664V27.1055C57.1289 27.5703 57.0449 27.9883 56.9199 28.3594C56.7988 28.7305 56.6328 29.0469 56.4219 29.3086C56.2148 29.5703 55.9609 29.7715 55.6602 29.9121C55.3594 30.0488 55.0078 30.1172 54.6055 30.1172C54.2266 30.1172 53.8828 30.0371 53.5742 29.877C53.2695 29.7168 53.0078 29.4922 52.7891 29.2031C52.5703 28.9141 52.4023 28.5742 52.2852 28.1836C52.1719 27.7891 52.1152 27.3613 52.1152 26.9004ZM53.1992 26.7773V26.9004C53.1992 27.2168 53.2305 27.5137 53.293 27.791C53.3594 28.0684 53.459 28.3125 53.5918 28.5234C53.7285 28.7344 53.9023 28.9004 54.1133 29.0215C54.3242 29.1387 54.5762 29.1973 54.8691 29.1973C55.2285 29.1973 55.5254 29.1211 55.7598 28.9688C55.9941 28.8164 56.1797 28.6152 56.3164 28.3652C56.457 28.1152 56.5664 27.8438 56.6445 27.5508V26.1387C56.6016 25.9238 56.5352 25.7168 56.4453 25.5176C56.3594 25.3145 56.2461 25.1348 56.1055 24.9785C55.9688 24.8184 55.7988 24.6914 55.5957 24.5977C55.3926 24.5039 55.1543 24.457 54.8809 24.457C54.584 24.457 54.3281 24.5195 54.1133 24.6445C53.9023 24.7656 53.7285 24.9336 53.5918 25.1484C53.459 25.3594 53.3594 25.6055 53.293 25.8867C53.2305 26.1641 53.1992 26.4609 53.1992 26.7773ZM65.8262 28.916V25.6523C65.8262 25.4023 65.7754 25.1855 65.6738 25.002C65.5762 24.8145 65.4277 24.6699 65.2285 24.5684C65.0293 24.4668 64.7832 24.416 64.4902 24.416C64.2168 24.416 63.9766 24.4629 63.7695 24.5566C63.5664 24.6504 63.4062 24.7734 63.2891 24.9258C63.1758 25.0781 63.1191 25.2422 63.1191 25.418H62.0352C62.0352 25.1914 62.0938 24.9668 62.2109 24.7441C62.3281 24.5215 62.4961 24.3203 62.7148 24.1406C62.9375 23.957 63.2031 23.8125 63.5117 23.707C63.8242 23.5977 64.1719 23.543 64.5547 23.543C65.0156 23.543 65.4219 23.6211 65.7734 23.7773C66.1289 23.9336 66.4062 24.1699 66.6055 24.4863C66.8086 24.7988 66.9102 25.1914 66.9102 25.6641V28.6172C66.9102 28.8281 66.9277 29.0527 66.9629 29.291C67.002 29.5293 67.0586 29.7344 67.1328 29.9062V30H66.002C65.9473 29.875 65.9043 29.709 65.873 29.502C65.8418 29.291 65.8262 29.0957 65.8262 28.916ZM66.0137 26.1562L66.0254 26.918H64.9297C64.6211 26.918 64.3457 26.9434 64.1035 26.9941C63.8613 27.041 63.6582 27.1133 63.4941 27.2109C63.3301 27.3086 63.2051 27.4316 63.1191 27.5801C63.0332 27.7246 62.9902 27.8945 62.9902 28.0898C62.9902 28.2891 63.0352 28.4707 63.125 28.6348C63.2148 28.7988 63.3496 28.9297 63.5293 29.0273C63.7129 29.1211 63.9375 29.168 64.2031 29.168C64.5352 29.168 64.8281 29.0977 65.082 28.957C65.3359 28.8164 65.5371 28.6445 65.6855 28.4414C65.8379 28.2383 65.9199 28.041 65.9316 27.8496L66.3945 28.3711C66.3672 28.5352 66.293 28.7168 66.1719 28.916C66.0508 29.1152 65.8887 29.3066 65.6855 29.4902C65.4863 29.6699 65.248 29.8203 64.9707 29.9414C64.6973 30.0586 64.3887 30.1172 64.0449 30.1172C63.6152 30.1172 63.2383 30.0332 62.9141 29.8652C62.5938 29.6973 62.3438 29.4727 62.1641 29.1914C61.9883 28.9062 61.9004 28.5879 61.9004 28.2363C61.9004 27.8965 61.9668 27.5977 62.0996 27.3398C62.2324 27.0781 62.4238 26.8613 62.6738 26.6895C62.9238 26.5137 63.2246 26.3809 63.5762 26.291C63.9277 26.2012 64.3203 26.1562 64.7539 26.1562H66.0137ZM69.6992 25.0137V30H68.6152V23.6602H69.6406L69.6992 25.0137ZM69.4414 26.5898L68.9902 26.5723C68.9941 26.1387 69.0586 25.7383 69.1836 25.3711C69.3086 25 69.4844 24.6777 69.7109 24.4043C69.9375 24.1309 70.207 23.9199 70.5195 23.7715C70.8359 23.6191 71.1855 23.543 71.5684 23.543C71.8809 23.543 72.1621 23.5859 72.4121 23.6719C72.6621 23.7539 72.875 23.8867 73.0508 24.0703C73.2305 24.2539 73.3672 24.4922 73.4609 24.7852C73.5547 25.0742 73.6016 25.4277 73.6016 25.8457V30H72.5117V25.834C72.5117 25.502 72.4629 25.2363 72.3652 25.0371C72.2676 24.834 72.125 24.6875 71.9375 24.5977C71.75 24.5039 71.5195 24.457 71.2461 24.457C70.9766 24.457 70.7305 24.5137 70.5078 24.627C70.2891 24.7402 70.0996 24.8965 69.9395 25.0957C69.7832 25.2949 69.6602 25.5234 69.5703 25.7812C69.4844 26.0352 69.4414 26.3047 69.4414 26.5898ZM81.9629 28.916V25.6523C81.9629 25.4023 81.9121 25.1855 81.8105 25.002C81.7129 24.8145 81.5645 24.6699 81.3652 24.5684C81.166 24.4668 80.9199 24.416 80.627 24.416C80.3535 24.416 80.1133 24.4629 79.9062 24.5566C79.7031 24.6504 79.543 24.7734 79.4258 24.9258C79.3125 25.0781 79.2559 25.2422 79.2559 25.418H78.1719C78.1719 25.1914 78.2305 24.9668 78.3477 24.7441C78.4648 24.5215 78.6328 24.3203 78.8516 24.1406C79.0742 23.957 79.3398 23.8125 79.6484 23.707C79.9609 23.5977 80.3086 23.543 80.6914 23.543C81.1523 23.543 81.5586 23.6211 81.9102 23.7773C82.2656 23.9336 82.543 24.1699 82.7422 24.4863C82.9453 24.7988 83.0469 25.1914 83.0469 25.6641V28.6172C83.0469 28.8281 83.0645 29.0527 83.0996 29.291C83.1387 29.5293 83.1953 29.7344 83.2695 29.9062V30H82.1387C82.084 29.875 82.041 29.709 82.0098 29.502C81.9785 29.291 81.9629 29.0957 81.9629 28.916ZM82.1504 26.1562L82.1621 26.918H81.0664C80.7578 26.918 80.4824 26.9434 80.2402 26.9941C79.998 27.041 79.7949 27.1133 79.6309 27.2109C79.4668 27.3086 79.3418 27.4316 79.2559 27.5801C79.1699 27.7246 79.127 27.8945 79.127 28.0898C79.127 28.2891 79.1719 28.4707 79.2617 28.6348C79.3516 28.7988 79.4863 28.9297 79.666 29.0273C79.8496 29.1211 80.0742 29.168 80.3398 29.168C80.6719 29.168 80.9648 29.0977 81.2188 28.957C81.4727 28.8164 81.6738 28.6445 81.8223 28.4414C81.9746 28.2383 82.0566 28.041 82.0684 27.8496L82.5312 28.3711C82.5039 28.5352 82.4297 28.7168 82.3086 28.916C82.1875 29.1152 82.0254 29.3066 81.8223 29.4902C81.623 29.6699 81.3848 29.8203 81.1074 29.9414C80.834 30.0586 80.5254 30.1172 80.1816 30.1172C79.752 30.1172 79.375 30.0332 79.0508 29.8652C78.7305 29.6973 78.4805 29.4727 78.3008 29.1914C78.125 28.9062 78.0371 28.5879 78.0371 28.2363C78.0371 27.8965 78.1035 27.5977 78.2363 27.3398C78.3691 27.0781 78.5605 26.8613 78.8105 26.6895C79.0605 26.5137 79.3613 26.3809 79.7129 26.291C80.0645 26.2012 80.457 26.1562 80.8906 26.1562H82.1504ZM87.2891 29.2266C87.5469 29.2266 87.7852 29.1738 88.0039 29.0684C88.2227 28.9629 88.4023 28.8184 88.543 28.6348C88.6836 28.4473 88.7637 28.2344 88.7832 27.9961H89.8145C89.7949 28.3711 89.668 28.7207 89.4336 29.0449C89.2031 29.3652 88.9004 29.625 88.5254 29.8242C88.1504 30.0195 87.7383 30.1172 87.2891 30.1172C86.8125 30.1172 86.3965 30.0332 86.041 29.8652C85.6895 29.6973 85.3965 29.4668 85.1621 29.1738C84.9316 28.8809 84.7578 28.5449 84.6406 28.166C84.5273 27.7832 84.4707 27.3789 84.4707 26.9531V26.707C84.4707 26.2812 84.5273 25.8789 84.6406 25.5C84.7578 25.1172 84.9316 24.7793 85.1621 24.4863C85.3965 24.1934 85.6895 23.9629 86.041 23.7949C86.3965 23.627 86.8125 23.543 87.2891 23.543C87.7852 23.543 88.2188 23.6445 88.5898 23.8477C88.9609 24.0469 89.252 24.3203 89.4629 24.668C89.6777 25.0117 89.7949 25.4023 89.8145 25.8398H88.7832C88.7637 25.5781 88.6895 25.3418 88.5605 25.1309C88.4355 24.9199 88.2637 24.752 88.0449 24.627C87.8301 24.498 87.5781 24.4336 87.2891 24.4336C86.957 24.4336 86.6777 24.5 86.4512 24.6328C86.2285 24.7617 86.0508 24.9375 85.918 25.1602C85.7891 25.3789 85.6953 25.623 85.6367 25.8926C85.582 26.1582 85.5547 26.4297 85.5547 26.707V26.9531C85.5547 27.2305 85.582 27.5039 85.6367 27.7734C85.6914 28.043 85.7832 28.2871 85.9121 28.5059C86.0449 28.7246 86.2227 28.9004 86.4453 29.0332C86.6719 29.1621 86.9531 29.2266 87.2891 29.2266ZM93.5703 29.2266C93.8281 29.2266 94.0664 29.1738 94.2852 29.0684C94.5039 28.9629 94.6836 28.8184 94.8242 28.6348C94.9648 28.4473 95.0449 28.2344 95.0645 27.9961H96.0957C96.0762 28.3711 95.9492 28.7207 95.7148 29.0449C95.4844 29.3652 95.1816 29.625 94.8066 29.8242C94.4316 30.0195 94.0195 30.1172 93.5703 30.1172C93.0938 30.1172 92.6777 30.0332 92.3223 29.8652C91.9707 29.6973 91.6777 29.4668 91.4434 29.1738C91.2129 28.8809 91.0391 28.5449 90.9219 28.166C90.8086 27.7832 90.752 27.3789 90.752 26.9531V26.707C90.752 26.2812 90.8086 25.8789 90.9219 25.5C91.0391 25.1172 91.2129 24.7793 91.4434 24.4863C91.6777 24.1934 91.9707 23.9629 92.3223 23.7949C92.6777 23.627 93.0938 23.543 93.5703 23.543C94.0664 23.543 94.5 23.6445 94.8711 23.8477C95.2422 24.0469 95.5332 24.3203 95.7441 24.668C95.959 25.0117 96.0762 25.4023 96.0957 25.8398H95.0645C95.0449 25.5781 94.9707 25.3418 94.8418 25.1309C94.7168 24.9199 94.5449 24.752 94.3262 24.627C94.1113 24.498 93.8594 24.4336 93.5703 24.4336C93.2383 24.4336 92.959 24.5 92.7324 24.6328C92.5098 24.7617 92.332 24.9375 92.1992 25.1602C92.0703 25.3789 91.9766 25.623 91.918 25.8926C91.8633 26.1582 91.8359 26.4297 91.8359 26.707V26.9531C91.8359 27.2305 91.8633 27.5039 91.918 27.7734C91.9727 28.043 92.0645 28.2871 92.1934 28.5059C92.3262 28.7246 92.5039 28.9004 92.7266 29.0332C92.9531 29.1621 93.2344 29.2266 93.5703 29.2266ZM97.0273 26.9004V26.7656C97.0273 26.3086 97.0938 25.8848 97.2266 25.4941C97.3594 25.0996 97.5508 24.7578 97.8008 24.4688C98.0508 24.1758 98.3535 23.9492 98.709 23.7891C99.0645 23.625 99.4629 23.543 99.9043 23.543C100.35 23.543 100.75 23.625 101.105 23.7891C101.465 23.9492 101.77 24.1758 102.02 24.4688C102.273 24.7578 102.467 25.0996 102.6 25.4941C102.732 25.8848 102.799 26.3086 102.799 26.7656V26.9004C102.799 27.3574 102.732 27.7812 102.6 28.1719C102.467 28.5625 102.273 28.9043 102.02 29.1973C101.77 29.4863 101.467 29.7129 101.111 29.877C100.76 30.0371 100.361 30.1172 99.916 30.1172C99.4707 30.1172 99.0703 30.0371 98.7148 29.877C98.3594 29.7129 98.0547 29.4863 97.8008 29.1973C97.5508 28.9043 97.3594 28.5625 97.2266 28.1719C97.0938 27.7812 97.0273 27.3574 97.0273 26.9004ZM98.1113 26.7656V26.9004C98.1113 27.2168 98.1484 27.5156 98.2227 27.7969C98.2969 28.0742 98.4082 28.3203 98.5566 28.5352C98.709 28.75 98.8984 28.9199 99.125 29.0449C99.3516 29.166 99.6152 29.2266 99.916 29.2266C100.213 29.2266 100.473 29.166 100.695 29.0449C100.922 28.9199 101.109 28.75 101.258 28.5352C101.406 28.3203 101.518 28.0742 101.592 27.7969C101.67 27.5156 101.709 27.2168 101.709 26.9004V26.7656C101.709 26.4531 101.67 26.1582 101.592 25.8809C101.518 25.5996 101.404 25.3516 101.252 25.1367C101.104 24.918 100.916 24.7461 100.689 24.6211C100.467 24.4961 100.205 24.4336 99.9043 24.4336C99.6074 24.4336 99.3457 24.4961 99.1191 24.6211C98.8965 24.7461 98.709 24.918 98.5566 25.1367C98.4082 25.3516 98.2969 25.5996 98.2227 25.8809C98.1484 26.1582 98.1113 26.4531 98.1113 26.7656ZM108.037 28.5352V23.6602H109.127V30H108.09L108.037 28.5352ZM108.242 27.1992L108.693 27.1875C108.693 27.6094 108.648 28 108.559 28.3594C108.473 28.7148 108.332 29.0234 108.137 29.2852C107.941 29.5469 107.686 29.752 107.369 29.9004C107.053 30.0449 106.668 30.1172 106.215 30.1172C105.906 30.1172 105.623 30.0723 105.365 29.9824C105.111 29.8926 104.893 29.7539 104.709 29.5664C104.525 29.3789 104.383 29.1348 104.281 28.834C104.184 28.5332 104.135 28.1719 104.135 27.75V23.6602H105.219V27.7617C105.219 28.0469 105.25 28.2832 105.312 28.4707C105.379 28.6543 105.467 28.8008 105.576 28.9102C105.689 29.0156 105.814 29.0898 105.951 29.1328C106.092 29.1758 106.236 29.1973 106.385 29.1973C106.846 29.1973 107.211 29.1094 107.48 28.9336C107.75 28.7539 107.943 28.5137 108.061 28.2129C108.182 27.9082 108.242 27.5703 108.242 27.1992ZM111.863 25.0137V30H110.779V23.6602H111.805L111.863 25.0137ZM111.605 26.5898L111.154 26.5723C111.158 26.1387 111.223 25.7383 111.348 25.3711C111.473 25 111.648 24.6777 111.875 24.4043C112.102 24.1309 112.371 23.9199 112.684 23.7715C113 23.6191 113.35 23.543 113.732 23.543C114.045 23.543 114.326 23.5859 114.576 23.6719C114.826 23.7539 115.039 23.8867 115.215 24.0703C115.395 24.2539 115.531 24.4922 115.625 24.7852C115.719 25.0742 115.766 25.4277 115.766 25.8457V30H114.676V25.834C114.676 25.502 114.627 25.2363 114.529 25.0371C114.432 24.834 114.289 24.6875 114.102 24.5977C113.914 24.5039 113.684 24.457 113.41 24.457C113.141 24.457 112.895 24.5137 112.672 24.627C112.453 24.7402 112.264 24.8965 112.104 25.0957C111.947 25.2949 111.824 25.5234 111.734 25.7812C111.648 26.0352 111.605 26.3047 111.605 26.5898ZM120.066 23.6602V24.4922H116.639V23.6602H120.066ZM117.799 22.1191H118.883V28.4297C118.883 28.6445 118.916 28.8066 118.982 28.916C119.049 29.0254 119.135 29.0977 119.24 29.1328C119.346 29.168 119.459 29.1855 119.58 29.1855C119.67 29.1855 119.764 29.1777 119.861 29.1621C119.963 29.1426 120.039 29.127 120.09 29.1152L120.096 30C120.01 30.0273 119.896 30.0527 119.756 30.0762C119.619 30.1035 119.453 30.1172 119.258 30.1172C118.992 30.1172 118.748 30.0645 118.525 29.959C118.303 29.8535 118.125 29.6777 117.992 29.4316C117.863 29.1816 117.799 28.8457 117.799 28.4238V22.1191ZM125.92 28.875L127.549 23.6602H128.264L128.123 24.6973L126.465 30H125.768L125.92 28.875ZM124.824 23.6602L126.213 28.9336L126.312 30H125.58L123.74 23.6602H124.824ZM129.822 28.8926L131.146 23.6602H132.225L130.385 30H129.658L129.822 28.8926ZM128.422 23.6602L130.016 28.7871L130.197 30H129.506L127.801 24.6855L127.66 23.6602H128.422ZM134.516 23.6602V30H133.426V23.6602H134.516ZM133.344 21.9785C133.344 21.8027 133.396 21.6543 133.502 21.5332C133.611 21.4121 133.771 21.3516 133.982 21.3516C134.189 21.3516 134.348 21.4121 134.457 21.5332C134.57 21.6543 134.627 21.8027 134.627 21.9785C134.627 22.1465 134.57 22.291 134.457 22.4121C134.348 22.5293 134.189 22.5879 133.982 22.5879C133.771 22.5879 133.611 22.5293 133.502 22.4121C133.396 22.291 133.344 22.1465 133.344 21.9785ZM138.91 23.6602V24.4922H135.482V23.6602H138.91ZM136.643 22.1191H137.727V28.4297C137.727 28.6445 137.76 28.8066 137.826 28.916C137.893 29.0254 137.979 29.0977 138.084 29.1328C138.189 29.168 138.303 29.1855 138.424 29.1855C138.514 29.1855 138.607 29.1777 138.705 29.1621C138.807 29.1426 138.883 29.127 138.934 29.1152L138.939 30C138.854 30.0273 138.74 30.0527 138.6 30.0762C138.463 30.1035 138.297 30.1172 138.102 30.1172C137.836 30.1172 137.592 30.0645 137.369 29.959C137.146 29.8535 136.969 29.6777 136.836 29.4316C136.707 29.1816 136.643 28.8457 136.643 28.4238V22.1191ZM141.266 21V30H140.182V21H141.266ZM141.008 26.5898L140.557 26.5723C140.561 26.1387 140.625 25.7383 140.75 25.3711C140.875 25 141.051 24.6777 141.277 24.4043C141.504 24.1309 141.773 23.9199 142.086 23.7715C142.402 23.6191 142.752 23.543 143.135 23.543C143.447 23.543 143.729 23.5859 143.979 23.6719C144.229 23.7539 144.441 23.8867 144.617 24.0703C144.797 24.2539 144.934 24.4922 145.027 24.7852C145.121 25.0742 145.168 25.4277 145.168 25.8457V30H144.078V25.834C144.078 25.502 144.029 25.2363 143.932 25.0371C143.834 24.834 143.691 24.6875 143.504 24.5977C143.316 24.5039 143.086 24.457 142.812 24.457C142.543 24.457 142.297 24.5137 142.074 24.627C141.855 24.7402 141.666 24.8965 141.506 25.0957C141.35 25.2949 141.227 25.5234 141.137 25.7812C141.051 26.0352 141.008 26.3047 141.008 26.5898ZM153.646 28.5352V23.6602H154.736V30H153.699L153.646 28.5352ZM153.852 27.1992L154.303 27.1875C154.303 27.6094 154.258 28 154.168 28.3594C154.082 28.7148 153.941 29.0234 153.746 29.2852C153.551 29.5469 153.295 29.752 152.979 29.9004C152.662 30.0449 152.277 30.1172 151.824 30.1172C151.516 30.1172 151.232 30.0723 150.975 29.9824C150.721 29.8926 150.502 29.7539 150.318 29.5664C150.135 29.3789 149.992 29.1348 149.891 28.834C149.793 28.5332 149.744 28.1719 149.744 27.75V23.6602H150.828V27.7617C150.828 28.0469 150.859 28.2832 150.922 28.4707C150.988 28.6543 151.076 28.8008 151.186 28.9102C151.299 29.0156 151.424 29.0898 151.561 29.1328C151.701 29.1758 151.846 29.1973 151.994 29.1973C152.455 29.1973 152.82 29.1094 153.09 28.9336C153.359 28.7539 153.553 28.5137 153.67 28.2129C153.791 27.9082 153.852 27.5703 153.852 27.1992ZM160.08 28.3184C160.08 28.1621 160.045 28.0176 159.975 27.8848C159.908 27.748 159.77 27.625 159.559 27.5156C159.352 27.4023 159.039 27.3047 158.621 27.2227C158.27 27.1484 157.951 27.0605 157.666 26.959C157.385 26.8574 157.145 26.7344 156.945 26.5898C156.75 26.4453 156.6 26.2754 156.494 26.0801C156.389 25.8848 156.336 25.6562 156.336 25.3945C156.336 25.1445 156.391 24.9082 156.5 24.6855C156.613 24.4629 156.771 24.2656 156.975 24.0938C157.182 23.9219 157.43 23.7871 157.719 23.6895C158.008 23.5918 158.33 23.543 158.686 23.543C159.193 23.543 159.627 23.6328 159.986 23.8125C160.346 23.9922 160.621 24.2324 160.812 24.5332C161.004 24.8301 161.1 25.1602 161.1 25.5234H160.016C160.016 25.3477 159.963 25.1777 159.857 25.0137C159.756 24.8457 159.605 24.707 159.406 24.5977C159.211 24.4883 158.971 24.4336 158.686 24.4336C158.385 24.4336 158.141 24.4805 157.953 24.5742C157.77 24.6641 157.635 24.7793 157.549 24.9199C157.467 25.0605 157.426 25.209 157.426 25.3652C157.426 25.4824 157.445 25.5879 157.484 25.6816C157.527 25.7715 157.602 25.8555 157.707 25.9336C157.812 26.0078 157.961 26.0781 158.152 26.1445C158.344 26.2109 158.588 26.2773 158.885 26.3438C159.404 26.4609 159.832 26.6016 160.168 26.7656C160.504 26.9297 160.754 27.1309 160.918 27.3691C161.082 27.6074 161.164 27.8965 161.164 28.2363C161.164 28.5137 161.105 28.7676 160.988 28.998C160.875 29.2285 160.709 29.4277 160.49 29.5957C160.275 29.7598 160.018 29.8887 159.717 29.9824C159.42 30.0723 159.086 30.1172 158.715 30.1172C158.156 30.1172 157.684 30.0176 157.297 29.8184C156.91 29.6191 156.617 29.3613 156.418 29.0449C156.219 28.7285 156.119 28.3945 156.119 28.043H157.209C157.225 28.3398 157.311 28.5762 157.467 28.752C157.623 28.9238 157.814 29.0469 158.041 29.1211C158.268 29.1914 158.492 29.2266 158.715 29.2266C159.012 29.2266 159.26 29.1875 159.459 29.1094C159.662 29.0312 159.816 28.9238 159.922 28.7871C160.027 28.6504 160.08 28.4941 160.08 28.3184ZM16.0039 35V44H14.9141V35H16.0039ZM20.375 44.1172C19.9336 44.1172 19.5332 44.043 19.1738 43.8945C18.8184 43.7422 18.5117 43.5293 18.2539 43.2559C18 42.9824 17.8047 42.6582 17.668 42.2832C17.5312 41.9082 17.4629 41.498 17.4629 41.0527V40.8066C17.4629 40.291 17.5391 39.832 17.6914 39.4297C17.8438 39.0234 18.0508 38.6797 18.3125 38.3984C18.5742 38.1172 18.8711 37.9043 19.2031 37.7598C19.5352 37.6152 19.8789 37.543 20.2344 37.543C20.6875 37.543 21.0781 37.6211 21.4062 37.7773C21.7383 37.9336 22.0098 38.1523 22.2207 38.4336C22.4316 38.7109 22.5879 39.0391 22.6895 39.418C22.791 39.793 22.8418 40.2031 22.8418 40.6484V41.1348H18.1074V40.25H21.7578V40.168C21.7422 39.8867 21.6836 39.6133 21.582 39.3477C21.4844 39.082 21.3281 38.8633 21.1133 38.6914C20.8984 38.5195 20.6055 38.4336 20.2344 38.4336C19.9883 38.4336 19.7617 38.4863 19.5547 38.5918C19.3477 38.6934 19.1699 38.8457 19.0215 39.0488C18.873 39.252 18.7578 39.5 18.6758 39.793C18.5938 40.0859 18.5527 40.4238 18.5527 40.8066V41.0527C18.5527 41.3535 18.5938 41.6367 18.6758 41.9023C18.7617 42.1641 18.8848 42.3945 19.0449 42.5938C19.209 42.793 19.4062 42.9492 19.6367 43.0625C19.8711 43.1758 20.1367 43.2324 20.4336 43.2324C20.8164 43.2324 21.1406 43.1543 21.4062 42.998C21.6719 42.8418 21.9043 42.6328 22.1035 42.3711L22.7598 42.8926C22.623 43.0996 22.4492 43.2969 22.2383 43.4844C22.0273 43.6719 21.7676 43.8242 21.459 43.9414C21.1543 44.0586 20.793 44.1172 20.375 44.1172ZM26.7617 37.6602V38.4922H23.334V37.6602H26.7617ZM24.4941 36.1191H25.5781V42.4297C25.5781 42.6445 25.6113 42.8066 25.6777 42.916C25.7441 43.0254 25.8301 43.0977 25.9355 43.1328C26.041 43.168 26.1543 43.1855 26.2754 43.1855C26.3652 43.1855 26.459 43.1777 26.5566 43.1621C26.6582 43.1426 26.7344 43.127 26.7852 43.1152L26.791 44C26.7051 44.0273 26.5918 44.0527 26.4512 44.0762C26.3145 44.1035 26.1484 44.1172 25.9531 44.1172C25.6875 44.1172 25.4434 44.0645 25.2207 43.959C24.998 43.8535 24.8203 43.6777 24.6875 43.4316C24.5586 43.1816 24.4941 42.8457 24.4941 42.4238V36.1191ZM31.7246 42.3184C31.7246 42.1621 31.6895 42.0176 31.6191 41.8848C31.5527 41.748 31.4141 41.625 31.2031 41.5156C30.9961 41.4023 30.6836 41.3047 30.2656 41.2227C29.9141 41.1484 29.5957 41.0605 29.3105 40.959C29.0293 40.8574 28.7891 40.7344 28.5898 40.5898C28.3945 40.4453 28.2441 40.2754 28.1387 40.0801C28.0332 39.8848 27.9805 39.6562 27.9805 39.3945C27.9805 39.1445 28.0352 38.9082 28.1445 38.6855C28.2578 38.4629 28.416 38.2656 28.6191 38.0938C28.8262 37.9219 29.0742 37.7871 29.3633 37.6895C29.6523 37.5918 29.9746 37.543 30.3301 37.543C30.8379 37.543 31.2715 37.6328 31.6309 37.8125C31.9902 37.9922 32.2656 38.2324 32.457 38.5332C32.6484 38.8301 32.7441 39.1602 32.7441 39.5234H31.6602C31.6602 39.3477 31.6074 39.1777 31.502 39.0137C31.4004 38.8457 31.25 38.707 31.0508 38.5977C30.8555 38.4883 30.6152 38.4336 30.3301 38.4336C30.0293 38.4336 29.7852 38.4805 29.5977 38.5742C29.4141 38.6641 29.2793 38.7793 29.1934 38.9199C29.1113 39.0605 29.0703 39.209 29.0703 39.3652C29.0703 39.4824 29.0898 39.5879 29.1289 39.6816C29.1719 39.7715 29.2461 39.8555 29.3516 39.9336C29.457 40.0078 29.6055 40.0781 29.7969 40.1445C29.9883 40.2109 30.2324 40.2773 30.5293 40.3438C31.0488 40.4609 31.4766 40.6016 31.8125 40.7656C32.1484 40.9297 32.3984 41.1309 32.5625 41.3691C32.7266 41.6074 32.8086 41.8965 32.8086 42.2363C32.8086 42.5137 32.75 42.7676 32.6328 42.998C32.5195 43.2285 32.3535 43.4277 32.1348 43.5957C31.9199 43.7598 31.6621 43.8887 31.3613 43.9824C31.0645 44.0723 30.7305 44.1172 30.3594 44.1172C29.8008 44.1172 29.3281 44.0176 28.9414 43.8184C28.5547 43.6191 28.2617 43.3613 28.0625 43.0449C27.8633 42.7285 27.7637 42.3945 27.7637 42.043H28.8535C28.8691 42.3398 28.9551 42.5762 29.1113 42.752C29.2676 42.9238 29.459 43.0469 29.6855 43.1211C29.9121 43.1914 30.1367 43.2266 30.3594 43.2266C30.6562 43.2266 30.9043 43.1875 31.1035 43.1094C31.3066 43.0312 31.4609 42.9238 31.5664 42.7871C31.6719 42.6504 31.7246 42.4941 31.7246 42.3184ZM38.9902 43.3438L40.7539 37.6602H41.9141L39.3711 44.9785C39.3125 45.1348 39.2344 45.3027 39.1367 45.4824C39.043 45.666 38.9219 45.8398 38.7734 46.0039C38.625 46.168 38.4453 46.3008 38.2344 46.4023C38.0273 46.5078 37.7793 46.5605 37.4902 46.5605C37.4043 46.5605 37.2949 46.5488 37.1621 46.5254C37.0293 46.502 36.9355 46.4824 36.8809 46.4668L36.875 45.5879C36.9062 45.5918 36.9551 45.5957 37.0215 45.5996C37.0918 45.6074 37.1406 45.6113 37.168 45.6113C37.4141 45.6113 37.623 45.5781 37.7949 45.5117C37.9668 45.4492 38.1113 45.3418 38.2285 45.1895C38.3496 45.041 38.4531 44.8359 38.5391 44.5742L38.9902 43.3438ZM37.6953 37.6602L39.3418 42.582L39.623 43.7246L38.8438 44.123L36.5117 37.6602H37.6953ZM42.5117 40.9004V40.7656C42.5117 40.3086 42.5781 39.8848 42.7109 39.4941C42.8438 39.0996 43.0352 38.7578 43.2852 38.4688C43.5352 38.1758 43.8379 37.9492 44.1934 37.7891C44.5488 37.625 44.9473 37.543 45.3887 37.543C45.834 37.543 46.2344 37.625 46.5898 37.7891C46.9492 37.9492 47.2539 38.1758 47.5039 38.4688C47.7578 38.7578 47.9512 39.0996 48.084 39.4941C48.2168 39.8848 48.2832 40.3086 48.2832 40.7656V40.9004C48.2832 41.3574 48.2168 41.7812 48.084 42.1719C47.9512 42.5625 47.7578 42.9043 47.5039 43.1973C47.2539 43.4863 46.9512 43.7129 46.5957 43.877C46.2441 44.0371 45.8457 44.1172 45.4004 44.1172C44.9551 44.1172 44.5547 44.0371 44.1992 43.877C43.8438 43.7129 43.5391 43.4863 43.2852 43.1973C43.0352 42.9043 42.8438 42.5625 42.7109 42.1719C42.5781 41.7812 42.5117 41.3574 42.5117 40.9004ZM43.5957 40.7656V40.9004C43.5957 41.2168 43.6328 41.5156 43.707 41.7969C43.7812 42.0742 43.8926 42.3203 44.041 42.5352C44.1934 42.75 44.3828 42.9199 44.6094 43.0449C44.8359 43.166 45.0996 43.2266 45.4004 43.2266C45.6973 43.2266 45.957 43.166 46.1797 43.0449C46.4062 42.9199 46.5938 42.75 46.7422 42.5352C46.8906 42.3203 47.002 42.0742 47.0762 41.7969C47.1543 41.5156 47.1934 41.2168 47.1934 40.9004V40.7656C47.1934 40.4531 47.1543 40.1582 47.0762 39.8809C47.002 39.5996 46.8887 39.3516 46.7363 39.1367C46.5879 38.918 46.4004 38.7461 46.1738 38.6211C45.9512 38.4961 45.6895 38.4336 45.3887 38.4336C45.0918 38.4336 44.8301 38.4961 44.6035 38.6211C44.3809 38.7461 44.1934 38.918 44.041 39.1367C43.8926 39.3516 43.7812 39.5996 43.707 39.8809C43.6328 40.1582 43.5957 40.4531 43.5957 40.7656ZM53.5215 42.5352V37.6602H54.6113V44H53.5742L53.5215 42.5352ZM53.7266 41.1992L54.1777 41.1875C54.1777 41.6094 54.1328 42 54.043 42.3594C53.957 42.7148 53.8164 43.0234 53.6211 43.2852C53.4258 43.5469 53.1699 43.752 52.8535 43.9004C52.5371 44.0449 52.1523 44.1172 51.6992 44.1172C51.3906 44.1172 51.1074 44.0723 50.8496 43.9824C50.5957 43.8926 50.377 43.7539 50.1934 43.5664C50.0098 43.3789 49.8672 43.1348 49.7656 42.834C49.668 42.5332 49.6191 42.1719 49.6191 41.75V37.6602H50.7031V41.7617C50.7031 42.0469 50.7344 42.2832 50.7969 42.4707C50.8633 42.6543 50.9512 42.8008 51.0605 42.9102C51.1738 43.0156 51.2988 43.0898 51.4355 43.1328C51.5762 43.1758 51.7207 43.1973 51.8691 43.1973C52.3301 43.1973 52.6953 43.1094 52.9648 42.9336C53.2344 42.7539 53.4277 42.5137 53.5449 42.2129C53.666 41.9082 53.7266 41.5703 53.7266 41.1992ZM59.2344 35H60.3242V42.7695L60.2305 44H59.2344V35ZM64.6074 40.7773V40.9004C64.6074 41.3613 64.5527 41.7891 64.4434 42.1836C64.334 42.5742 64.1738 42.9141 63.9629 43.2031C63.752 43.4922 63.4941 43.7168 63.1895 43.877C62.8848 44.0371 62.5352 44.1172 62.1406 44.1172C61.7383 44.1172 61.3848 44.0488 61.0801 43.9121C60.7793 43.7715 60.5254 43.5703 60.3184 43.3086C60.1113 43.0469 59.9453 42.7305 59.8203 42.3594C59.6992 41.9883 59.6152 41.5703 59.5684 41.1055V40.5664C59.6152 40.0977 59.6992 39.6777 59.8203 39.3066C59.9453 38.9355 60.1113 38.6191 60.3184 38.3574C60.5254 38.0918 60.7793 37.8906 61.0801 37.7539C61.3809 37.6133 61.7305 37.543 62.1289 37.543C62.5273 37.543 62.8809 37.6211 63.1895 37.7773C63.498 37.9297 63.7559 38.1484 63.9629 38.4336C64.1738 38.7188 64.334 39.0605 64.4434 39.459C64.5527 39.8535 64.6074 40.293 64.6074 40.7773ZM63.5176 40.9004V40.7773C63.5176 40.4609 63.4883 40.1641 63.4297 39.8867C63.3711 39.6055 63.2773 39.3594 63.1484 39.1484C63.0195 38.9336 62.8496 38.7656 62.6387 38.6445C62.4277 38.5195 62.168 38.457 61.8594 38.457C61.5859 38.457 61.3477 38.5039 61.1445 38.5977C60.9453 38.6914 60.7754 38.8184 60.6348 38.9785C60.4941 39.1348 60.3789 39.3145 60.2891 39.5176C60.2031 39.7168 60.1387 39.9238 60.0957 40.1387V41.5508C60.1582 41.8242 60.2598 42.0879 60.4004 42.3418C60.5449 42.5918 60.7363 42.7969 60.9746 42.957C61.2168 43.1172 61.5156 43.1973 61.8711 43.1973C62.1641 43.1973 62.4141 43.1387 62.6211 43.0215C62.832 42.9004 63.002 42.7344 63.1309 42.5234C63.2637 42.3125 63.3613 42.0684 63.4238 41.791C63.4863 41.5137 63.5176 41.2168 63.5176 40.9004ZM69.8574 42.5352V37.6602H70.9473V44H69.9102L69.8574 42.5352ZM70.0625 41.1992L70.5137 41.1875C70.5137 41.6094 70.4688 42 70.3789 42.3594C70.293 42.7148 70.1523 43.0234 69.957 43.2852C69.7617 43.5469 69.5059 43.752 69.1895 43.9004C68.873 44.0449 68.4883 44.1172 68.0352 44.1172C67.7266 44.1172 67.4434 44.0723 67.1855 43.9824C66.9316 43.8926 66.7129 43.7539 66.5293 43.5664C66.3457 43.3789 66.2031 43.1348 66.1016 42.834C66.0039 42.5332 65.9551 42.1719 65.9551 41.75V37.6602H67.0391V41.7617C67.0391 42.0469 67.0703 42.2832 67.1328 42.4707C67.1992 42.6543 67.2871 42.8008 67.3965 42.9102C67.5098 43.0156 67.6348 43.0898 67.7715 43.1328C67.9121 43.1758 68.0566 43.1973 68.2051 43.1973C68.666 43.1973 69.0312 43.1094 69.3008 42.9336C69.5703 42.7539 69.7637 42.5137 69.8809 42.2129C70.002 41.9082 70.0625 41.5703 70.0625 41.1992ZM74.3809 43.3438L76.1445 37.6602H77.3047L74.7617 44.9785C74.7031 45.1348 74.625 45.3027 74.5273 45.4824C74.4336 45.666 74.3125 45.8398 74.1641 46.0039C74.0156 46.168 73.8359 46.3008 73.625 46.4023C73.418 46.5078 73.1699 46.5605 72.8809 46.5605C72.7949 46.5605 72.6855 46.5488 72.5527 46.5254C72.4199 46.502 72.3262 46.4824 72.2715 46.4668L72.2656 45.5879C72.2969 45.5918 72.3457 45.5957 72.4121 45.5996C72.4824 45.6074 72.5312 45.6113 72.5586 45.6113C72.8047 45.6113 73.0137 45.5781 73.1855 45.5117C73.3574 45.4492 73.502 45.3418 73.6191 45.1895C73.7402 45.041 73.8438 44.8359 73.9297 44.5742L74.3809 43.3438ZM73.0859 37.6602L74.7324 42.582L75.0137 43.7246L74.2344 44.123L71.9023 37.6602H73.0859ZM84.9512 42.3184C84.9512 42.1621 84.916 42.0176 84.8457 41.8848C84.7793 41.748 84.6406 41.625 84.4297 41.5156C84.2227 41.4023 83.9102 41.3047 83.4922 41.2227C83.1406 41.1484 82.8223 41.0605 82.5371 40.959C82.2559 40.8574 82.0156 40.7344 81.8164 40.5898C81.6211 40.4453 81.4707 40.2754 81.3652 40.0801C81.2598 39.8848 81.207 39.6562 81.207 39.3945C81.207 39.1445 81.2617 38.9082 81.3711 38.6855C81.4844 38.4629 81.6426 38.2656 81.8457 38.0938C82.0527 37.9219 82.3008 37.7871 82.5898 37.6895C82.8789 37.5918 83.2012 37.543 83.5566 37.543C84.0645 37.543 84.498 37.6328 84.8574 37.8125C85.2168 37.9922 85.4922 38.2324 85.6836 38.5332C85.875 38.8301 85.9707 39.1602 85.9707 39.5234H84.8867C84.8867 39.3477 84.834 39.1777 84.7285 39.0137C84.627 38.8457 84.4766 38.707 84.2773 38.5977C84.082 38.4883 83.8418 38.4336 83.5566 38.4336C83.2559 38.4336 83.0117 38.4805 82.8242 38.5742C82.6406 38.6641 82.5059 38.7793 82.4199 38.9199C82.3379 39.0605 82.2969 39.209 82.2969 39.3652C82.2969 39.4824 82.3164 39.5879 82.3555 39.6816C82.3984 39.7715 82.4727 39.8555 82.5781 39.9336C82.6836 40.0078 82.832 40.0781 83.0234 40.1445C83.2148 40.2109 83.459 40.2773 83.7559 40.3438C84.2754 40.4609 84.7031 40.6016 85.0391 40.7656C85.375 40.9297 85.625 41.1309 85.7891 41.3691C85.9531 41.6074 86.0352 41.8965 86.0352 42.2363C86.0352 42.5137 85.9766 42.7676 85.8594 42.998C85.7461 43.2285 85.5801 43.4277 85.3613 43.5957C85.1465 43.7598 84.8887 43.8887 84.5879 43.9824C84.291 44.0723 83.957 44.1172 83.5859 44.1172C83.0273 44.1172 82.5547 44.0176 82.168 43.8184C81.7812 43.6191 81.4883 43.3613 81.2891 43.0449C81.0898 42.7285 80.9902 42.3945 80.9902 42.043H82.0801C82.0957 42.3398 82.1816 42.5762 82.3379 42.752C82.4941 42.9238 82.6855 43.0469 82.9121 43.1211C83.1387 43.1914 83.3633 43.2266 83.5859 43.2266C83.8828 43.2266 84.1309 43.1875 84.3301 43.1094C84.5332 43.0312 84.6875 42.9238 84.793 42.7871C84.8984 42.6504 84.9512 42.4941 84.9512 42.3184ZM90.0898 44.1172C89.6484 44.1172 89.248 44.043 88.8887 43.8945C88.5332 43.7422 88.2266 43.5293 87.9688 43.2559C87.7148 42.9824 87.5195 42.6582 87.3828 42.2832C87.2461 41.9082 87.1777 41.498 87.1777 41.0527V40.8066C87.1777 40.291 87.2539 39.832 87.4062 39.4297C87.5586 39.0234 87.7656 38.6797 88.0273 38.3984C88.2891 38.1172 88.5859 37.9043 88.918 37.7598C89.25 37.6152 89.5938 37.543 89.9492 37.543C90.4023 37.543 90.793 37.6211 91.1211 37.7773C91.4531 37.9336 91.7246 38.1523 91.9355 38.4336C92.1465 38.7109 92.3027 39.0391 92.4043 39.418C92.5059 39.793 92.5566 40.2031 92.5566 40.6484V41.1348H87.8223V40.25H91.4727V40.168C91.457 39.8867 91.3984 39.6133 91.2969 39.3477C91.1992 39.082 91.043 38.8633 90.8281 38.6914C90.6133 38.5195 90.3203 38.4336 89.9492 38.4336C89.7031 38.4336 89.4766 38.4863 89.2695 38.5918C89.0625 38.6934 88.8848 38.8457 88.7363 39.0488C88.5879 39.252 88.4727 39.5 88.3906 39.793C88.3086 40.0859 88.2676 40.4238 88.2676 40.8066V41.0527C88.2676 41.3535 88.3086 41.6367 88.3906 41.9023C88.4766 42.1641 88.5996 42.3945 88.7598 42.5938C88.9238 42.793 89.1211 42.9492 89.3516 43.0625C89.5859 43.1758 89.8516 43.2324 90.1484 43.2324C90.5312 43.2324 90.8555 43.1543 91.1211 42.998C91.3867 42.8418 91.6191 42.6328 91.8184 42.3711L92.4746 42.8926C92.3379 43.0996 92.1641 43.2969 91.9531 43.4844C91.7422 43.6719 91.4824 43.8242 91.1738 43.9414C90.8691 44.0586 90.5078 44.1172 90.0898 44.1172ZM95 35V44H93.9102V35H95ZM97.918 35V44H96.8281V35H97.918ZM104.252 44H103.168V36.9922C103.168 36.5352 103.25 36.1504 103.414 35.8379C103.582 35.5215 103.822 35.2832 104.135 35.123C104.447 34.959 104.818 34.877 105.248 34.877C105.373 34.877 105.498 34.8848 105.623 34.9004C105.752 34.916 105.877 34.9395 105.998 34.9707L105.939 35.8555C105.857 35.8359 105.764 35.8223 105.658 35.8145C105.557 35.8066 105.455 35.8027 105.354 35.8027C105.123 35.8027 104.924 35.8496 104.756 35.9434C104.592 36.0332 104.467 36.166 104.381 36.3418C104.295 36.5176 104.252 36.7344 104.252 36.9922V44ZM105.6 37.6602V38.4922H102.166V37.6602H105.6ZM110.545 42.916V39.6523C110.545 39.4023 110.494 39.1855 110.393 39.002C110.295 38.8145 110.146 38.6699 109.947 38.5684C109.748 38.4668 109.502 38.416 109.209 38.416C108.936 38.416 108.695 38.4629 108.488 38.5566C108.285 38.6504 108.125 38.7734 108.008 38.9258C107.895 39.0781 107.838 39.2422 107.838 39.418H106.754C106.754 39.1914 106.812 38.9668 106.93 38.7441C107.047 38.5215 107.215 38.3203 107.434 38.1406C107.656 37.957 107.922 37.8125 108.23 37.707C108.543 37.5977 108.891 37.543 109.273 37.543C109.734 37.543 110.141 37.6211 110.492 37.7773C110.848 37.9336 111.125 38.1699 111.324 38.4863C111.527 38.7988 111.629 39.1914 111.629 39.6641V42.6172C111.629 42.8281 111.646 43.0527 111.682 43.291C111.721 43.5293 111.777 43.7344 111.852 43.9062V44H110.721C110.666 43.875 110.623 43.709 110.592 43.502C110.561 43.291 110.545 43.0957 110.545 42.916ZM110.732 40.1562L110.744 40.918H109.648C109.34 40.918 109.064 40.9434 108.822 40.9941C108.58 41.041 108.377 41.1133 108.213 41.2109C108.049 41.3086 107.924 41.4316 107.838 41.5801C107.752 41.7246 107.709 41.8945 107.709 42.0898C107.709 42.2891 107.754 42.4707 107.844 42.6348C107.934 42.7988 108.068 42.9297 108.248 43.0273C108.432 43.1211 108.656 43.168 108.922 43.168C109.254 43.168 109.547 43.0977 109.801 42.957C110.055 42.8164 110.256 42.6445 110.404 42.4414C110.557 42.2383 110.639 42.041 110.65 41.8496L111.113 42.3711C111.086 42.5352 111.012 42.7168 110.891 42.916C110.77 43.1152 110.607 43.3066 110.404 43.4902C110.205 43.6699 109.967 43.8203 109.689 43.9414C109.416 44.0586 109.107 44.1172 108.764 44.1172C108.334 44.1172 107.957 44.0332 107.633 43.8652C107.312 43.6973 107.062 43.4727 106.883 43.1914C106.707 42.9062 106.619 42.5879 106.619 42.2363C106.619 41.8965 106.686 41.5977 106.818 41.3398C106.951 41.0781 107.143 40.8613 107.393 40.6895C107.643 40.5137 107.943 40.3809 108.295 40.291C108.646 40.2012 109.039 40.1562 109.473 40.1562H110.732ZM117.025 42.3184C117.025 42.1621 116.99 42.0176 116.92 41.8848C116.854 41.748 116.715 41.625 116.504 41.5156C116.297 41.4023 115.984 41.3047 115.566 41.2227C115.215 41.1484 114.896 41.0605 114.611 40.959C114.33 40.8574 114.09 40.7344 113.891 40.5898C113.695 40.4453 113.545 40.2754 113.439 40.0801C113.334 39.8848 113.281 39.6562 113.281 39.3945C113.281 39.1445 113.336 38.9082 113.445 38.6855C113.559 38.4629 113.717 38.2656 113.92 38.0938C114.127 37.9219 114.375 37.7871 114.664 37.6895C114.953 37.5918 115.275 37.543 115.631 37.543C116.139 37.543 116.572 37.6328 116.932 37.8125C117.291 37.9922 117.566 38.2324 117.758 38.5332C117.949 38.8301 118.045 39.1602 118.045 39.5234H116.961C116.961 39.3477 116.908 39.1777 116.803 39.0137C116.701 38.8457 116.551 38.707 116.352 38.5977C116.156 38.4883 115.916 38.4336 115.631 38.4336C115.33 38.4336 115.086 38.4805 114.898 38.5742C114.715 38.6641 114.58 38.7793 114.494 38.9199C114.412 39.0605 114.371 39.209 114.371 39.3652C114.371 39.4824 114.391 39.5879 114.43 39.6816C114.473 39.7715 114.547 39.8555 114.652 39.9336C114.758 40.0078 114.906 40.0781 115.098 40.1445C115.289 40.2109 115.533 40.2773 115.83 40.3438C116.35 40.4609 116.777 40.6016 117.113 40.7656C117.449 40.9297 117.699 41.1309 117.863 41.3691C118.027 41.6074 118.109 41.8965 118.109 42.2363C118.109 42.5137 118.051 42.7676 117.934 42.998C117.82 43.2285 117.654 43.4277 117.436 43.5957C117.221 43.7598 116.963 43.8887 116.662 43.9824C116.365 44.0723 116.031 44.1172 115.66 44.1172C115.102 44.1172 114.629 44.0176 114.242 43.8184C113.855 43.6191 113.562 43.3613 113.363 43.0449C113.164 42.7285 113.064 42.3945 113.064 42.043H114.154C114.17 42.3398 114.256 42.5762 114.412 42.752C114.568 42.9238 114.76 43.0469 114.986 43.1211C115.213 43.1914 115.438 43.2266 115.66 43.2266C115.957 43.2266 116.205 43.1875 116.404 43.1094C116.607 43.0312 116.762 42.9238 116.867 42.7871C116.973 42.6504 117.025 42.4941 117.025 42.3184ZM122.188 37.6602V38.4922H118.76V37.6602H122.188ZM119.92 36.1191H121.004V42.4297C121.004 42.6445 121.037 42.8066 121.104 42.916C121.17 43.0254 121.256 43.0977 121.361 43.1328C121.467 43.168 121.58 43.1855 121.701 43.1855C121.791 43.1855 121.885 43.1777 121.982 43.1621C122.084 43.1426 122.16 43.127 122.211 43.1152L122.217 44C122.131 44.0273 122.018 44.0527 121.877 44.0762C121.74 44.1035 121.574 44.1172 121.379 44.1172C121.113 44.1172 120.869 44.0645 120.646 43.959C120.424 43.8535 120.246 43.6777 120.113 43.4316C119.984 43.1816 119.92 42.8457 119.92 42.4238V36.1191ZM126.09 44.1172C125.648 44.1172 125.248 44.043 124.889 43.8945C124.533 43.7422 124.227 43.5293 123.969 43.2559C123.715 42.9824 123.52 42.6582 123.383 42.2832C123.246 41.9082 123.178 41.498 123.178 41.0527V40.8066C123.178 40.291 123.254 39.832 123.406 39.4297C123.559 39.0234 123.766 38.6797 124.027 38.3984C124.289 38.1172 124.586 37.9043 124.918 37.7598C125.25 37.6152 125.594 37.543 125.949 37.543C126.402 37.543 126.793 37.6211 127.121 37.7773C127.453 37.9336 127.725 38.1523 127.936 38.4336C128.146 38.7109 128.303 39.0391 128.404 39.418C128.506 39.793 128.557 40.2031 128.557 40.6484V41.1348H123.822V40.25H127.473V40.168C127.457 39.8867 127.398 39.6133 127.297 39.3477C127.199 39.082 127.043 38.8633 126.828 38.6914C126.613 38.5195 126.32 38.4336 125.949 38.4336C125.703 38.4336 125.477 38.4863 125.27 38.5918C125.062 38.6934 124.885 38.8457 124.736 39.0488C124.588 39.252 124.473 39.5 124.391 39.793C124.309 40.0859 124.268 40.4238 124.268 40.8066V41.0527C124.268 41.3535 124.309 41.6367 124.391 41.9023C124.477 42.1641 124.6 42.3945 124.76 42.5938C124.924 42.793 125.121 42.9492 125.352 43.0625C125.586 43.1758 125.852 43.2324 126.148 43.2324C126.531 43.2324 126.855 43.1543 127.121 42.998C127.387 42.8418 127.619 42.6328 127.818 42.3711L128.475 42.8926C128.338 43.0996 128.164 43.2969 127.953 43.4844C127.742 43.6719 127.482 43.8242 127.174 43.9414C126.869 44.0586 126.508 44.1172 126.09 44.1172ZM130.906 38.6562V44H129.822V37.6602H130.877L130.906 38.6562ZM132.887 37.625L132.881 38.6328C132.791 38.6133 132.705 38.6016 132.623 38.5977C132.545 38.5898 132.455 38.5859 132.354 38.5859C132.104 38.5859 131.883 38.625 131.691 38.7031C131.5 38.7812 131.338 38.8906 131.205 39.0312C131.072 39.1719 130.967 39.3398 130.889 39.5352C130.814 39.7266 130.766 39.9375 130.742 40.168L130.438 40.3438C130.438 39.9609 130.475 39.6016 130.549 39.2656C130.627 38.9297 130.746 38.6328 130.906 38.375C131.066 38.1133 131.27 37.9102 131.516 37.7656C131.766 37.6172 132.062 37.543 132.406 37.543C132.484 37.543 132.574 37.5527 132.676 37.5723C132.777 37.5879 132.848 37.6055 132.887 37.625ZM139.52 37.6602V38.4922H136.092V37.6602H139.52ZM137.252 36.1191H138.336V42.4297C138.336 42.6445 138.369 42.8066 138.436 42.916C138.502 43.0254 138.588 43.0977 138.693 43.1328C138.799 43.168 138.912 43.1855 139.033 43.1855C139.123 43.1855 139.217 43.1777 139.314 43.1621C139.416 43.1426 139.492 43.127 139.543 43.1152L139.549 44C139.463 44.0273 139.35 44.0527 139.209 44.0762C139.072 44.1035 138.906 44.1172 138.711 44.1172C138.445 44.1172 138.201 44.0645 137.979 43.959C137.756 43.8535 137.578 43.6777 137.445 43.4316C137.316 43.1816 137.252 42.8457 137.252 42.4238V36.1191ZM141.875 35V44H140.791V35H141.875ZM141.617 40.5898L141.166 40.5723C141.17 40.1387 141.234 39.7383 141.359 39.3711C141.484 39 141.66 38.6777 141.887 38.4043C142.113 38.1309 142.383 37.9199 142.695 37.7715C143.012 37.6191 143.361 37.543 143.744 37.543C144.057 37.543 144.338 37.5859 144.588 37.6719C144.838 37.7539 145.051 37.8867 145.227 38.0703C145.406 38.2539 145.543 38.4922 145.637 38.7852C145.73 39.0742 145.777 39.4277 145.777 39.8457V44H144.688V39.834C144.688 39.502 144.639 39.2363 144.541 39.0371C144.443 38.834 144.301 38.6875 144.113 38.5977C143.926 38.5039 143.695 38.457 143.422 38.457C143.152 38.457 142.906 38.5137 142.684 38.627C142.465 38.7402 142.275 38.8965 142.115 39.0957C141.959 39.2949 141.836 39.5234 141.746 39.7812C141.66 40.0352 141.617 40.3047 141.617 40.5898ZM151.139 42.916V39.6523C151.139 39.4023 151.088 39.1855 150.986 39.002C150.889 38.8145 150.74 38.6699 150.541 38.5684C150.342 38.4668 150.096 38.416 149.803 38.416C149.529 38.416 149.289 38.4629 149.082 38.5566C148.879 38.6504 148.719 38.7734 148.602 38.9258C148.488 39.0781 148.432 39.2422 148.432 39.418H147.348C147.348 39.1914 147.406 38.9668 147.523 38.7441C147.641 38.5215 147.809 38.3203 148.027 38.1406C148.25 37.957 148.516 37.8125 148.824 37.707C149.137 37.5977 149.484 37.543 149.867 37.543C150.328 37.543 150.734 37.6211 151.086 37.7773C151.441 37.9336 151.719 38.1699 151.918 38.4863C152.121 38.7988 152.223 39.1914 152.223 39.6641V42.6172C152.223 42.8281 152.24 43.0527 152.275 43.291C152.314 43.5293 152.371 43.7344 152.445 43.9062V44H151.314C151.26 43.875 151.217 43.709 151.186 43.502C151.154 43.291 151.139 43.0957 151.139 42.916ZM151.326 40.1562L151.338 40.918H150.242C149.934 40.918 149.658 40.9434 149.416 40.9941C149.174 41.041 148.971 41.1133 148.807 41.2109C148.643 41.3086 148.518 41.4316 148.432 41.5801C148.346 41.7246 148.303 41.8945 148.303 42.0898C148.303 42.2891 148.348 42.4707 148.438 42.6348C148.527 42.7988 148.662 42.9297 148.842 43.0273C149.025 43.1211 149.25 43.168 149.516 43.168C149.848 43.168 150.141 43.0977 150.395 42.957C150.648 42.8164 150.85 42.6445 150.998 42.4414C151.15 42.2383 151.232 42.041 151.244 41.8496L151.707 42.3711C151.68 42.5352 151.605 42.7168 151.484 42.916C151.363 43.1152 151.201 43.3066 150.998 43.4902C150.799 43.6699 150.561 43.8203 150.283 43.9414C150.01 44.0586 149.701 44.1172 149.357 44.1172C148.928 44.1172 148.551 44.0332 148.227 43.8652C147.906 43.6973 147.656 43.4727 147.477 43.1914C147.301 42.9062 147.213 42.5879 147.213 42.2363C147.213 41.8965 147.279 41.5977 147.412 41.3398C147.545 41.0781 147.736 40.8613 147.986 40.6895C148.236 40.5137 148.537 40.3809 148.889 40.291C149.24 40.2012 149.633 40.1562 150.066 40.1562H151.326ZM155.012 39.0137V44H153.928V37.6602H154.953L155.012 39.0137ZM154.754 40.5898L154.303 40.5723C154.307 40.1387 154.371 39.7383 154.496 39.3711C154.621 39 154.797 38.6777 155.023 38.4043C155.25 38.1309 155.52 37.9199 155.832 37.7715C156.148 37.6191 156.498 37.543 156.881 37.543C157.193 37.543 157.475 37.5859 157.725 37.6719C157.975 37.7539 158.188 37.8867 158.363 38.0703C158.543 38.2539 158.68 38.4922 158.773 38.7852C158.867 39.0742 158.914 39.4277 158.914 39.8457V44H157.824V39.834C157.824 39.502 157.775 39.2363 157.678 39.0371C157.58 38.834 157.438 38.6875 157.25 38.5977C157.062 38.5039 156.832 38.457 156.559 38.457C156.289 38.457 156.043 38.5137 155.82 38.627C155.602 38.7402 155.412 38.8965 155.252 39.0957C155.096 39.2949 154.973 39.5234 154.883 39.7812C154.797 40.0352 154.754 40.3047 154.754 40.5898ZM14.5391 54.9004V54.7656C14.5391 54.3086 14.6055 53.8848 14.7383 53.4941C14.8711 53.0996 15.0625 52.7578 15.3125 52.4688C15.5625 52.1758 15.8652 51.9492 16.2207 51.7891C16.5762 51.625 16.9746 51.543 17.416 51.543C17.8613 51.543 18.2617 51.625 18.6172 51.7891C18.9766 51.9492 19.2812 52.1758 19.5312 52.4688C19.7852 52.7578 19.9785 53.0996 20.1113 53.4941C20.2441 53.8848 20.3105 54.3086 20.3105 54.7656V54.9004C20.3105 55.3574 20.2441 55.7812 20.1113 56.1719C19.9785 56.5625 19.7852 56.9043 19.5312 57.1973C19.2812 57.4863 18.9785 57.7129 18.623 57.877C18.2715 58.0371 17.873 58.1172 17.4277 58.1172C16.9824 58.1172 16.582 58.0371 16.2266 57.877C15.8711 57.7129 15.5664 57.4863 15.3125 57.1973C15.0625 56.9043 14.8711 56.5625 14.7383 56.1719C14.6055 55.7812 14.5391 55.3574 14.5391 54.9004ZM15.623 54.7656V54.9004C15.623 55.2168 15.6602 55.5156 15.7344 55.7969C15.8086 56.0742 15.9199 56.3203 16.0684 56.5352C16.2207 56.75 16.4102 56.9199 16.6367 57.0449C16.8633 57.166 17.127 57.2266 17.4277 57.2266C17.7246 57.2266 17.9844 57.166 18.207 57.0449C18.4336 56.9199 18.6211 56.75 18.7695 56.5352C18.918 56.3203 19.0293 56.0742 19.1035 55.7969C19.1816 55.5156 19.2207 55.2168 19.2207 54.9004V54.7656C19.2207 54.4531 19.1816 54.1582 19.1035 53.8809C19.0293 53.5996 18.916 53.3516 18.7637 53.1367C18.6152 52.918 18.4277 52.7461 18.2012 52.6211C17.9785 52.4961 17.7168 52.4336 17.416 52.4336C17.1191 52.4336 16.8574 52.4961 16.6309 52.6211C16.4082 52.7461 16.2207 52.918 16.0684 53.1367C15.9199 53.3516 15.8086 53.5996 15.7344 53.8809C15.6602 54.1582 15.623 54.4531 15.623 54.7656ZM24.3242 51.6602V52.4922H20.8965V51.6602H24.3242ZM22.0566 50.1191H23.1406V56.4297C23.1406 56.6445 23.1738 56.8066 23.2402 56.916C23.3066 57.0254 23.3926 57.0977 23.498 57.1328C23.6035 57.168 23.7168 57.1855 23.8379 57.1855C23.9277 57.1855 24.0215 57.1777 24.1191 57.1621C24.2207 57.1426 24.2969 57.127 24.3477 57.1152L24.3535 58C24.2676 58.0273 24.1543 58.0527 24.0137 58.0762C23.877 58.1035 23.7109 58.1172 23.5156 58.1172C23.25 58.1172 23.0059 58.0645 22.7832 57.959C22.5605 57.8535 22.3828 57.6777 22.25 57.4316C22.1211 57.1816 22.0566 56.8457 22.0566 56.4238V50.1191ZM26.6797 49V58H25.5957V49H26.6797ZM26.4219 54.5898L25.9707 54.5723C25.9746 54.1387 26.0391 53.7383 26.1641 53.3711C26.2891 53 26.4648 52.6777 26.6914 52.4043C26.918 52.1309 27.1875 51.9199 27.5 51.7715C27.8164 51.6191 28.166 51.543 28.5488 51.543C28.8613 51.543 29.1426 51.5859 29.3926 51.6719C29.6426 51.7539 29.8555 51.8867 30.0312 52.0703C30.2109 52.2539 30.3477 52.4922 30.4414 52.7852C30.5352 53.0742 30.582 53.4277 30.582 53.8457V58H29.4922V53.834C29.4922 53.502 29.4434 53.2363 29.3457 53.0371C29.248 52.834 29.1055 52.6875 28.918 52.5977C28.7305 52.5039 28.5 52.457 28.2266 52.457C27.957 52.457 27.7109 52.5137 27.4883 52.627C27.2695 52.7402 27.0801 52.8965 26.9199 53.0957C26.7637 53.2949 26.6406 53.5234 26.5508 53.7812C26.4648 54.0352 26.4219 54.3047 26.4219 54.5898ZM34.8359 58.1172C34.3945 58.1172 33.9941 58.043 33.6348 57.8945C33.2793 57.7422 32.9727 57.5293 32.7148 57.2559C32.4609 56.9824 32.2656 56.6582 32.1289 56.2832C31.9922 55.9082 31.9238 55.498 31.9238 55.0527V54.8066C31.9238 54.291 32 53.832 32.1523 53.4297C32.3047 53.0234 32.5117 52.6797 32.7734 52.3984C33.0352 52.1172 33.332 51.9043 33.6641 51.7598C33.9961 51.6152 34.3398 51.543 34.6953 51.543C35.1484 51.543 35.5391 51.6211 35.8672 51.7773C36.1992 51.9336 36.4707 52.1523 36.6816 52.4336C36.8926 52.7109 37.0488 53.0391 37.1504 53.418C37.252 53.793 37.3027 54.2031 37.3027 54.6484V55.1348H32.5684V54.25H36.2188V54.168C36.2031 53.8867 36.1445 53.6133 36.043 53.3477C35.9453 53.082 35.7891 52.8633 35.5742 52.6914C35.3594 52.5195 35.0664 52.4336 34.6953 52.4336C34.4492 52.4336 34.2227 52.4863 34.0156 52.5918C33.8086 52.6934 33.6309 52.8457 33.4824 53.0488C33.334 53.252 33.2188 53.5 33.1367 53.793C33.0547 54.0859 33.0137 54.4238 33.0137 54.8066V55.0527C33.0137 55.3535 33.0547 55.6367 33.1367 55.9023C33.2227 56.1641 33.3457 56.3945 33.5059 56.5938C33.6699 56.793 33.8672 56.9492 34.0977 57.0625C34.332 57.1758 34.5977 57.2324 34.8945 57.2324C35.2773 57.2324 35.6016 57.1543 35.8672 56.998C36.1328 56.8418 36.3652 56.6328 36.5645 56.3711L37.2207 56.8926C37.084 57.0996 36.9102 57.2969 36.6992 57.4844C36.4883 57.6719 36.2285 57.8242 35.9199 57.9414C35.6152 58.0586 35.2539 58.1172 34.8359 58.1172ZM39.6523 52.6562V58H38.5684V51.6602H39.623L39.6523 52.6562ZM41.6328 51.625L41.627 52.6328C41.5371 52.6133 41.4512 52.6016 41.3691 52.5977C41.291 52.5898 41.2012 52.5859 41.0996 52.5859C40.8496 52.5859 40.6289 52.625 40.4375 52.7031C40.2461 52.7812 40.084 52.8906 39.9512 53.0312C39.8184 53.1719 39.7129 53.3398 39.6348 53.5352C39.5605 53.7266 39.5117 53.9375 39.4883 54.168L39.1836 54.3438C39.1836 53.9609 39.2207 53.6016 39.2949 53.2656C39.373 52.9297 39.4922 52.6328 39.6523 52.375C39.8125 52.1133 40.0156 51.9102 40.2617 51.7656C40.5117 51.6172 40.8086 51.543 41.1523 51.543C41.2305 51.543 41.3203 51.5527 41.4219 51.5723C41.5234 51.5879 41.5938 51.6055 41.6328 51.625ZM49.3496 56.916V53.6523C49.3496 53.4023 49.2988 53.1855 49.1973 53.002C49.0996 52.8145 48.9512 52.6699 48.752 52.5684C48.5527 52.4668 48.3066 52.416 48.0137 52.416C47.7402 52.416 47.5 52.4629 47.293 52.5566C47.0898 52.6504 46.9297 52.7734 46.8125 52.9258C46.6992 53.0781 46.6426 53.2422 46.6426 53.418H45.5586C45.5586 53.1914 45.6172 52.9668 45.7344 52.7441C45.8516 52.5215 46.0195 52.3203 46.2383 52.1406C46.4609 51.957 46.7266 51.8125 47.0352 51.707C47.3477 51.5977 47.6953 51.543 48.0781 51.543C48.5391 51.543 48.9453 51.6211 49.2969 51.7773C49.6523 51.9336 49.9297 52.1699 50.1289 52.4863C50.332 52.7988 50.4336 53.1914 50.4336 53.6641V56.6172C50.4336 56.8281 50.4512 57.0527 50.4863 57.291C50.5254 57.5293 50.582 57.7344 50.6562 57.9062V58H49.5254C49.4707 57.875 49.4277 57.709 49.3965 57.502C49.3652 57.291 49.3496 57.0957 49.3496 56.916ZM49.5371 54.1562L49.5488 54.918H48.4531C48.1445 54.918 47.8691 54.9434 47.627 54.9941C47.3848 55.041 47.1816 55.1133 47.0176 55.2109C46.8535 55.3086 46.7285 55.4316 46.6426 55.5801C46.5566 55.7246 46.5137 55.8945 46.5137 56.0898C46.5137 56.2891 46.5586 56.4707 46.6484 56.6348C46.7383 56.7988 46.873 56.9297 47.0527 57.0273C47.2363 57.1211 47.4609 57.168 47.7266 57.168C48.0586 57.168 48.3516 57.0977 48.6055 56.957C48.8594 56.8164 49.0605 56.6445 49.209 56.4414C49.3613 56.2383 49.4434 56.041 49.4551 55.8496L49.918 56.3711C49.8906 56.5352 49.8164 56.7168 49.6953 56.916C49.5742 57.1152 49.4121 57.3066 49.209 57.4902C49.0098 57.6699 48.7715 57.8203 48.4941 57.9414C48.2207 58.0586 47.9121 58.1172 47.5684 58.1172C47.1387 58.1172 46.7617 58.0332 46.4375 57.8652C46.1172 57.6973 45.8672 57.4727 45.6875 57.1914C45.5117 56.9062 45.4238 56.5879 45.4238 56.2363C45.4238 55.8965 45.4902 55.5977 45.623 55.3398C45.7559 55.0781 45.9473 54.8613 46.1973 54.6895C46.4473 54.5137 46.748 54.3809 47.0996 54.291C47.4512 54.2012 47.8438 54.1562 48.2773 54.1562H49.5371ZM54.6758 57.2266C54.9336 57.2266 55.1719 57.1738 55.3906 57.0684C55.6094 56.9629 55.7891 56.8184 55.9297 56.6348C56.0703 56.4473 56.1504 56.2344 56.1699 55.9961H57.2012C57.1816 56.3711 57.0547 56.7207 56.8203 57.0449C56.5898 57.3652 56.2871 57.625 55.9121 57.8242C55.5371 58.0195 55.125 58.1172 54.6758 58.1172C54.1992 58.1172 53.7832 58.0332 53.4277 57.8652C53.0762 57.6973 52.7832 57.4668 52.5488 57.1738C52.3184 56.8809 52.1445 56.5449 52.0273 56.166C51.9141 55.7832 51.8574 55.3789 51.8574 54.9531V54.707C51.8574 54.2812 51.9141 53.8789 52.0273 53.5C52.1445 53.1172 52.3184 52.7793 52.5488 52.4863C52.7832 52.1934 53.0762 51.9629 53.4277 51.7949C53.7832 51.627 54.1992 51.543 54.6758 51.543C55.1719 51.543 55.6055 51.6445 55.9766 51.8477C56.3477 52.0469 56.6387 52.3203 56.8496 52.668C57.0645 53.0117 57.1816 53.4023 57.2012 53.8398H56.1699C56.1504 53.5781 56.0762 53.3418 55.9473 53.1309C55.8223 52.9199 55.6504 52.752 55.4316 52.627C55.2168 52.498 54.9648 52.4336 54.6758 52.4336C54.3438 52.4336 54.0645 52.5 53.8379 52.6328C53.6152 52.7617 53.4375 52.9375 53.3047 53.1602C53.1758 53.3789 53.082 53.623 53.0234 53.8926C52.9688 54.1582 52.9414 54.4297 52.9414 54.707V54.9531C52.9414 55.2305 52.9688 55.5039 53.0234 55.7734C53.0781 56.043 53.1699 56.2871 53.2988 56.5059C53.4316 56.7246 53.6094 56.9004 53.832 57.0332C54.0586 57.1621 54.3398 57.2266 54.6758 57.2266ZM60.957 57.2266C61.2148 57.2266 61.4531 57.1738 61.6719 57.0684C61.8906 56.9629 62.0703 56.8184 62.2109 56.6348C62.3516 56.4473 62.4316 56.2344 62.4512 55.9961H63.4824C63.4629 56.3711 63.3359 56.7207 63.1016 57.0449C62.8711 57.3652 62.5684 57.625 62.1934 57.8242C61.8184 58.0195 61.4062 58.1172 60.957 58.1172C60.4805 58.1172 60.0645 58.0332 59.709 57.8652C59.3574 57.6973 59.0645 57.4668 58.8301 57.1738C58.5996 56.8809 58.4258 56.5449 58.3086 56.166C58.1953 55.7832 58.1387 55.3789 58.1387 54.9531V54.707C58.1387 54.2812 58.1953 53.8789 58.3086 53.5C58.4258 53.1172 58.5996 52.7793 58.8301 52.4863C59.0645 52.1934 59.3574 51.9629 59.709 51.7949C60.0645 51.627 60.4805 51.543 60.957 51.543C61.4531 51.543 61.8867 51.6445 62.2578 51.8477C62.6289 52.0469 62.9199 52.3203 63.1309 52.668C63.3457 53.0117 63.4629 53.4023 63.4824 53.8398H62.4512C62.4316 53.5781 62.3574 53.3418 62.2285 53.1309C62.1035 52.9199 61.9316 52.752 61.7129 52.627C61.498 52.498 61.2461 52.4336 60.957 52.4336C60.625 52.4336 60.3457 52.5 60.1191 52.6328C59.8965 52.7617 59.7188 52.9375 59.5859 53.1602C59.457 53.3789 59.3633 53.623 59.3047 53.8926C59.25 54.1582 59.2227 54.4297 59.2227 54.707V54.9531C59.2227 55.2305 59.25 55.5039 59.3047 55.7734C59.3594 56.043 59.4512 56.2871 59.5801 56.5059C59.7129 56.7246 59.8906 56.9004 60.1133 57.0332C60.3398 57.1621 60.6211 57.2266 60.957 57.2266ZM64.4141 54.9004V54.7656C64.4141 54.3086 64.4805 53.8848 64.6133 53.4941C64.7461 53.0996 64.9375 52.7578 65.1875 52.4688C65.4375 52.1758 65.7402 51.9492 66.0957 51.7891C66.4512 51.625 66.8496 51.543 67.291 51.543C67.7363 51.543 68.1367 51.625 68.4922 51.7891C68.8516 51.9492 69.1562 52.1758 69.4062 52.4688C69.6602 52.7578 69.8535 53.0996 69.9863 53.4941C70.1191 53.8848 70.1855 54.3086 70.1855 54.7656V54.9004C70.1855 55.3574 70.1191 55.7812 69.9863 56.1719C69.8535 56.5625 69.6602 56.9043 69.4062 57.1973C69.1562 57.4863 68.8535 57.7129 68.498 57.877C68.1465 58.0371 67.748 58.1172 67.3027 58.1172C66.8574 58.1172 66.457 58.0371 66.1016 57.877C65.7461 57.7129 65.4414 57.4863 65.1875 57.1973C64.9375 56.9043 64.7461 56.5625 64.6133 56.1719C64.4805 55.7812 64.4141 55.3574 64.4141 54.9004ZM65.498 54.7656V54.9004C65.498 55.2168 65.5352 55.5156 65.6094 55.7969C65.6836 56.0742 65.7949 56.3203 65.9434 56.5352C66.0957 56.75 66.2852 56.9199 66.5117 57.0449C66.7383 57.166 67.002 57.2266 67.3027 57.2266C67.5996 57.2266 67.8594 57.166 68.082 57.0449C68.3086 56.9199 68.4961 56.75 68.6445 56.5352C68.793 56.3203 68.9043 56.0742 68.9785 55.7969C69.0566 55.5156 69.0957 55.2168 69.0957 54.9004V54.7656C69.0957 54.4531 69.0566 54.1582 68.9785 53.8809C68.9043 53.5996 68.791 53.3516 68.6387 53.1367C68.4902 52.918 68.3027 52.7461 68.0762 52.6211C67.8535 52.4961 67.5918 52.4336 67.291 52.4336C66.9941 52.4336 66.7324 52.4961 66.5059 52.6211C66.2832 52.7461 66.0957 52.918 65.9434 53.1367C65.7949 53.3516 65.6836 53.5996 65.6094 53.8809C65.5352 54.1582 65.498 54.4531 65.498 54.7656ZM75.4238 56.5352V51.6602H76.5137V58H75.4766L75.4238 56.5352ZM75.6289 55.1992L76.0801 55.1875C76.0801 55.6094 76.0352 56 75.9453 56.3594C75.8594 56.7148 75.7188 57.0234 75.5234 57.2852C75.3281 57.5469 75.0723 57.752 74.7559 57.9004C74.4395 58.0449 74.0547 58.1172 73.6016 58.1172C73.293 58.1172 73.0098 58.0723 72.752 57.9824C72.498 57.8926 72.2793 57.7539 72.0957 57.5664C71.9121 57.3789 71.7695 57.1348 71.668 56.834C71.5703 56.5332 71.5215 56.1719 71.5215 55.75V51.6602H72.6055V55.7617C72.6055 56.0469 72.6367 56.2832 72.6992 56.4707C72.7656 56.6543 72.8535 56.8008 72.9629 56.9102C73.0762 57.0156 73.2012 57.0898 73.3379 57.1328C73.4785 57.1758 73.623 57.1973 73.7715 57.1973C74.2324 57.1973 74.5977 57.1094 74.8672 56.9336C75.1367 56.7539 75.3301 56.5137 75.4473 56.2129C75.5684 55.9082 75.6289 55.5703 75.6289 55.1992ZM79.25 53.0137V58H78.166V51.6602H79.1914L79.25 53.0137ZM78.9922 54.5898L78.541 54.5723C78.5449 54.1387 78.6094 53.7383 78.7344 53.3711C78.8594 53 79.0352 52.6777 79.2617 52.4043C79.4883 52.1309 79.7578 51.9199 80.0703 51.7715C80.3867 51.6191 80.7363 51.543 81.1191 51.543C81.4316 51.543 81.7129 51.5859 81.9629 51.6719C82.2129 51.7539 82.4258 51.8867 82.6016 52.0703C82.7812 52.2539 82.918 52.4922 83.0117 52.7852C83.1055 53.0742 83.1523 53.4277 83.1523 53.8457V58H82.0625V53.834C82.0625 53.502 82.0137 53.2363 81.916 53.0371C81.8184 52.834 81.6758 52.6875 81.4883 52.5977C81.3008 52.5039 81.0703 52.457 80.7969 52.457C80.5273 52.457 80.2812 52.5137 80.0586 52.627C79.8398 52.7402 79.6504 52.8965 79.4902 53.0957C79.334 53.2949 79.2109 53.5234 79.1211 53.7812C79.0352 54.0352 78.9922 54.3047 78.9922 54.5898ZM87.4531 51.6602V52.4922H84.0254V51.6602H87.4531ZM85.1855 50.1191H86.2695V56.4297C86.2695 56.6445 86.3027 56.8066 86.3691 56.916C86.4355 57.0254 86.5215 57.0977 86.627 57.1328C86.7324 57.168 86.8457 57.1855 86.9668 57.1855C87.0566 57.1855 87.1504 57.1777 87.248 57.1621C87.3496 57.1426 87.4258 57.127 87.4766 57.1152L87.4824 58C87.3965 58.0273 87.2832 58.0527 87.1426 58.0762C87.0059 58.1035 86.8398 58.1172 86.6445 58.1172C86.3789 58.1172 86.1348 58.0645 85.9121 57.959C85.6895 57.8535 85.5117 57.6777 85.3789 57.4316C85.25 57.1816 85.1855 56.8457 85.1855 56.4238V50.1191ZM92.416 56.3184C92.416 56.1621 92.3809 56.0176 92.3105 55.8848C92.2441 55.748 92.1055 55.625 91.8945 55.5156C91.6875 55.4023 91.375 55.3047 90.957 55.2227C90.6055 55.1484 90.2871 55.0605 90.002 54.959C89.7207 54.8574 89.4805 54.7344 89.2812 54.5898C89.0859 54.4453 88.9355 54.2754 88.8301 54.0801C88.7246 53.8848 88.6719 53.6562 88.6719 53.3945C88.6719 53.1445 88.7266 52.9082 88.8359 52.6855C88.9492 52.4629 89.1074 52.2656 89.3105 52.0938C89.5176 51.9219 89.7656 51.7871 90.0547 51.6895C90.3438 51.5918 90.666 51.543 91.0215 51.543C91.5293 51.543 91.9629 51.6328 92.3223 51.8125C92.6816 51.9922 92.957 52.2324 93.1484 52.5332C93.3398 52.8301 93.4355 53.1602 93.4355 53.5234H92.3516C92.3516 53.3477 92.2988 53.1777 92.1934 53.0137C92.0918 52.8457 91.9414 52.707 91.7422 52.5977C91.5469 52.4883 91.3066 52.4336 91.0215 52.4336C90.7207 52.4336 90.4766 52.4805 90.2891 52.5742C90.1055 52.6641 89.9707 52.7793 89.8848 52.9199C89.8027 53.0605 89.7617 53.209 89.7617 53.3652C89.7617 53.4824 89.7812 53.5879 89.8203 53.6816C89.8633 53.7715 89.9375 53.8555 90.043 53.9336C90.1484 54.0078 90.2969 54.0781 90.4883 54.1445C90.6797 54.2109 90.9238 54.2773 91.2207 54.3438C91.7402 54.4609 92.168 54.6016 92.5039 54.7656C92.8398 54.9297 93.0898 55.1309 93.2539 55.3691C93.418 55.6074 93.5 55.8965 93.5 56.2363C93.5 56.5137 93.4414 56.7676 93.3242 56.998C93.2109 57.2285 93.0449 57.4277 92.8262 57.5957C92.6113 57.7598 92.3535 57.8887 92.0527 57.9824C91.7559 58.0723 91.4219 58.1172 91.0508 58.1172C90.4922 58.1172 90.0195 58.0176 89.6328 57.8184C89.2461 57.6191 88.9531 57.3613 88.7539 57.0449C88.5547 56.7285 88.4551 56.3945 88.4551 56.043H89.5449C89.5605 56.3398 89.6465 56.5762 89.8027 56.752C89.959 56.9238 90.1504 57.0469 90.377 57.1211C90.6035 57.1914 90.8281 57.2266 91.0508 57.2266C91.3477 57.2266 91.5957 57.1875 91.7949 57.1094C91.998 57.0312 92.1523 56.9238 92.2578 56.7871C92.3633 56.6504 92.416 56.4941 92.416 56.3184ZM94.9414 57.4258C94.9414 57.2422 94.998 57.0879 95.1113 56.9629C95.2285 56.834 95.3965 56.7695 95.6152 56.7695C95.834 56.7695 96 56.834 96.1133 56.9629C96.2305 57.0879 96.2891 57.2422 96.2891 57.4258C96.2891 57.6055 96.2305 57.7578 96.1133 57.8828C96 58.0078 95.834 58.0703 95.6152 58.0703C95.3965 58.0703 95.2285 58.0078 95.1113 57.8828C94.998 57.7578 94.9414 57.6055 94.9414 57.4258Z" fill="black"/>
<circle cx="28" cy="103" r="17" fill="#1F1F39"/>
<path d="M22.2106 107.372L30.2919 99.2905L24.9855 99.3016C24.6815 99.3035 24.3897 99.1839 24.1751 98.9693C23.9606 98.7547 23.8409 98.463 23.8428 98.1589C23.846 97.5317 24.3551 97.0226 24.9823 97.0194L31.9095 97.013C32.5135 97.0099 33.093 97.2465 33.521 97.6709C33.9404 98.0982 34.1739 98.6743 34.1708 99.2743L34.1643 106.202C34.162 106.609 33.9424 106.986 33.5882 107.189C33.234 107.392 32.799 107.392 32.4471 107.187C32.0952 106.983 31.8799 106.606 31.8822 106.198L31.9013 100.9L23.8201 108.981C23.3738 109.428 22.6517 109.429 22.2073 108.985C21.7628 108.54 21.7643 107.818 22.2106 107.372Z" fill="white"/>
</svg>
