<svg width="167" height="69" viewBox="0 0 167 69" fill="none" xmlns="http://www.w3.org/2000/svg">
<g clip-path="url(#clip0_0_1051)">
<rect y="0.747803" width="167" height="68" rx="16" fill="#F0932B"/>
<path d="M25.793 26.4688L30.4102 30.125L28.1953 32.0469L23.6484 28.3906L25.793 26.4688ZM30.5273 20.0703V20.8789C30.5273 22.1758 30.3516 23.3398 30 24.3711C29.6562 25.4023 29.1602 26.2812 28.5117 27.0078C27.8633 27.7266 27.0977 28.2773 26.2148 28.6602C25.332 29.043 24.3516 29.2344 23.2734 29.2344C22.2031 29.2344 21.2227 29.043 20.332 28.6602C19.4414 28.2773 18.6719 27.7266 18.0234 27.0078C17.375 26.2812 16.8711 25.4023 16.5117 24.3711C16.1602 23.3398 15.9844 22.1758 15.9844 20.8789V20.0703C15.9844 18.7656 16.1602 17.6016 16.5117 16.5781C16.8711 15.5469 17.3711 14.668 18.0117 13.9414C18.6523 13.2148 19.418 12.6602 20.3086 12.2773C21.1992 11.8945 22.1797 11.7031 23.25 11.7031C24.3281 11.7031 25.3086 11.8945 26.1914 12.2773C27.082 12.6602 27.8516 13.2148 28.5 13.9414C29.1484 14.668 29.6484 15.5469 30 16.5781C30.3516 17.6016 30.5273 18.7656 30.5273 20.0703ZM26.9766 20.8789V20.0469C26.9766 19.1406 26.8906 18.3438 26.7188 17.6562C26.5547 16.9688 26.3125 16.3906 25.9922 15.9219C25.6797 15.4531 25.293 15.1016 24.832 14.8672C24.3711 14.625 23.8438 14.5039 23.25 14.5039C22.6562 14.5039 22.1289 14.625 21.668 14.8672C21.207 15.1016 20.8203 15.4531 20.5078 15.9219C20.1953 16.3906 19.957 16.9688 19.793 17.6562C19.6289 18.3438 19.5469 19.1406 19.5469 20.0469V20.8789C19.5469 21.7773 19.6289 22.5742 19.793 23.2695C19.957 23.957 20.1953 24.5391 20.5078 25.0156C20.8281 25.4844 21.2188 25.8398 21.6797 26.082C22.1484 26.3242 22.6797 26.4453 23.2734 26.4453C23.8672 26.4453 24.3906 26.3242 24.8438 26.082C25.3047 25.8398 25.6914 25.4844 26.0039 25.0156C26.3242 24.5391 26.5664 23.957 26.7305 23.2695C26.8945 22.5742 26.9766 21.7773 26.9766 20.8789ZM40.3594 25.9648V16.3203H43.7344V29H40.5586L40.3594 25.9648ZM40.7344 23.3633L41.7305 23.3398C41.7305 24.1836 41.6328 24.9688 41.4375 25.6953C41.2422 26.4141 40.9492 27.0391 40.5586 27.5703C40.168 28.0938 39.6758 28.5039 39.082 28.8008C38.4883 29.0898 37.7891 29.2344 36.9844 29.2344C36.3672 29.2344 35.7969 29.1484 35.2734 28.9766C34.7578 28.7969 34.3125 28.5195 33.9375 28.1445C33.5703 27.7617 33.2812 27.2734 33.0703 26.6797C32.8672 26.0781 32.7656 25.3555 32.7656 24.5117V16.3203H36.1406V24.5352C36.1406 24.9102 36.1836 25.2266 36.2695 25.4844C36.3633 25.7422 36.4922 25.9531 36.6562 26.1172C36.8203 26.2812 37.0117 26.3984 37.2305 26.4688C37.457 26.5391 37.707 26.5742 37.9805 26.5742C38.6758 26.5742 39.2227 26.4336 39.6211 26.1523C40.0273 25.8711 40.3125 25.4883 40.4766 25.0039C40.6484 24.5117 40.7344 23.9648 40.7344 23.3633ZM53.1562 26.1406V20.4922C53.1562 20.0859 53.0898 19.7383 52.957 19.4492C52.8242 19.1523 52.6172 18.9219 52.3359 18.7578C52.0625 18.5938 51.707 18.5117 51.2695 18.5117C50.8945 18.5117 50.5703 18.5781 50.2969 18.7109C50.0234 18.8359 49.8125 19.0195 49.6641 19.2617C49.5156 19.4961 49.4414 19.7734 49.4414 20.0938H46.0664C46.0664 19.5547 46.1914 19.043 46.4414 18.5586C46.6914 18.0742 47.0547 17.6484 47.5312 17.2812C48.0078 16.9062 48.5742 16.6133 49.2305 16.4023C49.8945 16.1914 50.6367 16.0859 51.457 16.0859C52.4414 16.0859 53.3164 16.25 54.082 16.5781C54.8477 16.9062 55.4492 17.3984 55.8867 18.0547C56.332 18.7109 56.5547 19.5312 56.5547 20.5156V25.9414C56.5547 26.6367 56.5977 27.207 56.6836 27.6523C56.7695 28.0898 56.8945 28.4727 57.0586 28.8008V29H53.6484C53.4844 28.6562 53.3594 28.2266 53.2734 27.7109C53.1953 27.1875 53.1562 26.6641 53.1562 26.1406ZM53.6016 21.2773L53.625 23.1875H51.7383C51.293 23.1875 50.9062 23.2383 50.5781 23.3398C50.25 23.4414 49.9805 23.5859 49.7695 23.7734C49.5586 23.9531 49.4023 24.1641 49.3008 24.4062C49.207 24.6484 49.1602 24.9141 49.1602 25.2031C49.1602 25.4922 49.2266 25.7539 49.3594 25.9883C49.4922 26.2148 49.6836 26.3945 49.9336 26.5273C50.1836 26.6523 50.4766 26.7148 50.8125 26.7148C51.3203 26.7148 51.7617 26.6133 52.1367 26.4102C52.5117 26.207 52.8008 25.957 53.0039 25.6602C53.2148 25.3633 53.3242 25.082 53.332 24.8164L54.2227 26.2461C54.0977 26.5664 53.9258 26.8984 53.707 27.2422C53.4961 27.5859 53.2266 27.9102 52.8984 28.2148C52.5703 28.5117 52.1758 28.7578 51.7148 28.9531C51.2539 29.1406 50.707 29.2344 50.0742 29.2344C49.2695 29.2344 48.5391 29.0742 47.8828 28.7539C47.2344 28.4258 46.7188 27.9766 46.3359 27.4062C45.9609 26.8281 45.7734 26.1719 45.7734 25.4375C45.7734 24.7734 45.8984 24.1836 46.1484 23.668C46.3984 23.1523 46.7656 22.7188 47.25 22.3672C47.7422 22.0078 48.3555 21.7383 49.0898 21.5586C49.8242 21.3711 50.6758 21.2773 51.6445 21.2773H53.6016ZM62.4609 19.0273V29H59.0859V16.3203H62.25L62.4609 19.0273ZM61.9688 22.2148H61.0547C61.0547 21.2773 61.1758 20.4336 61.418 19.6836C61.6602 18.9258 62 18.2812 62.4375 17.75C62.875 17.2109 63.3945 16.8008 63.9961 16.5195C64.6055 16.2305 65.2852 16.0859 66.0352 16.0859C66.6289 16.0859 67.1719 16.1719 67.6641 16.3438C68.1562 16.5156 68.5781 16.7891 68.9297 17.1641C69.2891 17.5391 69.5625 18.0352 69.75 18.6523C69.9453 19.2695 70.043 20.0234 70.043 20.9141V29H66.6445V20.9023C66.6445 20.3398 66.5664 19.9023 66.4102 19.5898C66.2539 19.2773 66.0234 19.0586 65.7188 18.9336C65.4219 18.8008 65.0547 18.7344 64.6172 18.7344C64.1641 18.7344 63.7695 18.8242 63.4336 19.0039C63.1055 19.1836 62.832 19.4336 62.6133 19.7539C62.4023 20.0664 62.2422 20.4336 62.1328 20.8555C62.0234 21.2773 61.9688 21.7305 61.9688 22.2148ZM78.8203 16.3203V18.7109H71.4375V16.3203H78.8203ZM73.2656 13.1914H76.6406V25.1797C76.6406 25.5469 76.6875 25.8281 76.7812 26.0234C76.8828 26.2188 77.0312 26.3555 77.2266 26.4336C77.4219 26.5039 77.668 26.5391 77.9648 26.5391C78.1758 26.5391 78.3633 26.5312 78.5273 26.5156C78.6992 26.4922 78.8438 26.4688 78.9609 26.4453L78.9727 28.9297C78.6836 29.0234 78.3711 29.0977 78.0352 29.1523C77.6992 29.207 77.3281 29.2344 76.9219 29.2344C76.1797 29.2344 75.5312 29.1133 74.9766 28.8711C74.4297 28.6211 74.0078 28.2227 73.7109 27.6758C73.4141 27.1289 73.2656 26.4102 73.2656 25.5195V13.1914ZM20.2617 39.9375V57H16.7578V39.9375H20.2617ZM26.6484 47.0273V57H23.2734V44.3203H26.4375L26.6484 47.0273ZM26.1562 50.2148H25.2422C25.2422 49.2773 25.3633 48.4336 25.6055 47.6836C25.8477 46.9258 26.1875 46.2812 26.625 45.75C27.0625 45.2109 27.582 44.8008 28.1836 44.5195C28.793 44.2305 29.4727 44.0859 30.2227 44.0859C30.8164 44.0859 31.3594 44.1719 31.8516 44.3438C32.3438 44.5156 32.7656 44.7891 33.1172 45.1641C33.4766 45.5391 33.75 46.0352 33.9375 46.6523C34.1328 47.2695 34.2305 48.0234 34.2305 48.9141V57H30.832V48.9023C30.832 48.3398 30.7539 47.9023 30.5977 47.5898C30.4414 47.2773 30.2109 47.0586 29.9062 46.9336C29.6094 46.8008 29.2422 46.7344 28.8047 46.7344C28.3516 46.7344 27.957 46.8242 27.6211 47.0039C27.293 47.1836 27.0195 47.4336 26.8008 47.7539C26.5898 48.0664 26.4297 48.4336 26.3203 48.8555C26.2109 49.2773 26.1562 49.7305 26.1562 50.2148ZM41.1094 54.5391L43.9219 44.3203H47.4492L43.1719 57H41.0391L41.1094 54.5391ZM39.1758 44.3203L42 54.5508L42.0586 57H39.9141L35.6367 44.3203H39.1758ZM54.6328 57.2344C53.6484 57.2344 52.7656 57.0781 51.9844 56.7656C51.2031 56.4453 50.5391 56.0039 49.9922 55.4414C49.4531 54.8789 49.0391 54.2266 48.75 53.4844C48.4609 52.7344 48.3164 51.9375 48.3164 51.0938V50.625C48.3164 49.6641 48.4531 48.7852 48.7266 47.9883C49 47.1914 49.3906 46.5 49.8984 45.9141C50.4141 45.3281 51.0391 44.8789 51.7734 44.5664C52.5078 44.2461 53.3359 44.0859 54.2578 44.0859C55.1562 44.0859 55.9531 44.2344 56.6484 44.5312C57.3438 44.8281 57.9258 45.25 58.3945 45.7969C58.8711 46.3438 59.2305 47 59.4727 47.7656C59.7148 48.5234 59.8359 49.3672 59.8359 50.2969V51.7031H49.7578V49.4531H56.5195V49.1953C56.5195 48.7266 56.4336 48.3086 56.2617 47.9414C56.0977 47.5664 55.8477 47.2695 55.5117 47.0508C55.1758 46.832 54.7461 46.7227 54.2227 46.7227C53.7773 46.7227 53.3945 46.8203 53.0742 47.0156C52.7539 47.2109 52.4922 47.4844 52.2891 47.8359C52.0938 48.1875 51.9453 48.6016 51.8438 49.0781C51.75 49.5469 51.7031 50.0625 51.7031 50.625V51.0938C51.7031 51.6016 51.7734 52.0703 51.9141 52.5C52.0625 52.9297 52.2695 53.3008 52.5352 53.6133C52.8086 53.9258 53.1367 54.168 53.5195 54.3398C53.9102 54.5117 54.3516 54.5977 54.8438 54.5977C55.4531 54.5977 56.0195 54.4805 56.543 54.2461C57.0742 54.0039 57.5312 53.6406 57.9141 53.1562L59.5547 54.9375C59.2891 55.3203 58.9258 55.6875 58.4648 56.0391C58.0117 56.3906 57.4648 56.6797 56.8242 56.9062C56.1836 57.125 55.4531 57.2344 54.6328 57.2344ZM68.6133 53.4961C68.6133 53.2539 68.543 53.0352 68.4023 52.8398C68.2617 52.6445 68 52.4648 67.6172 52.3008C67.2422 52.1289 66.6992 51.9727 65.9883 51.832C65.3477 51.6914 64.75 51.5156 64.1953 51.3047C63.6484 51.0859 63.1719 50.8242 62.7656 50.5195C62.3672 50.2148 62.0547 49.8555 61.8281 49.4414C61.6016 49.0195 61.4883 48.5391 61.4883 48C61.4883 47.4688 61.6016 46.9688 61.8281 46.5C62.0625 46.0312 62.3945 45.6172 62.8242 45.2578C63.2617 44.8906 63.793 44.6055 64.418 44.4023C65.0508 44.1914 65.7617 44.0859 66.5508 44.0859C67.6523 44.0859 68.5977 44.2617 69.3867 44.6133C70.1836 44.9648 70.793 45.4492 71.2148 46.0664C71.6445 46.6758 71.8594 47.3711 71.8594 48.1523H68.4844C68.4844 47.8242 68.4141 47.5312 68.2734 47.2734C68.1406 47.0078 67.9297 46.8008 67.6406 46.6523C67.3594 46.4961 66.9922 46.418 66.5391 46.418C66.1641 46.418 65.8398 46.4844 65.5664 46.6172C65.293 46.7422 65.082 46.9141 64.9336 47.1328C64.793 47.3438 64.7227 47.5781 64.7227 47.8359C64.7227 48.0312 64.7617 48.207 64.8398 48.3633C64.9258 48.5117 65.0625 48.6484 65.25 48.7734C65.4375 48.8984 65.6797 49.0156 65.9766 49.125C66.2812 49.2266 66.6562 49.3203 67.1016 49.4062C68.0156 49.5938 68.832 49.8398 69.5508 50.1445C70.2695 50.4414 70.8398 50.8477 71.2617 51.3633C71.6836 51.8711 71.8945 52.5391 71.8945 53.3672C71.8945 53.9297 71.7695 54.4453 71.5195 54.9141C71.2695 55.3828 70.9102 55.793 70.4414 56.1445C69.9727 56.4883 69.4102 56.7578 68.7539 56.9531C68.1055 57.1406 67.375 57.2344 66.5625 57.2344C65.3828 57.2344 64.3828 57.0234 63.5625 56.6016C62.75 56.1797 62.1328 55.6445 61.7109 54.9961C61.2969 54.3398 61.0898 53.668 61.0898 52.9805H64.2891C64.3047 53.4414 64.4219 53.8125 64.6406 54.0938C64.8672 54.375 65.1523 54.5781 65.4961 54.7031C65.8477 54.8281 66.2266 54.8906 66.6328 54.8906C67.0703 54.8906 67.4336 54.832 67.7227 54.7148C68.0117 54.5898 68.2305 54.4258 68.3789 54.2227C68.5352 54.0117 68.6133 53.7695 68.6133 53.4961ZM80.2969 44.3203V46.7109H72.9141V44.3203H80.2969ZM74.7422 41.1914H78.1172V53.1797C78.1172 53.5469 78.1641 53.8281 78.2578 54.0234C78.3594 54.2188 78.5078 54.3555 78.7031 54.4336C78.8984 54.5039 79.1445 54.5391 79.4414 54.5391C79.6523 54.5391 79.8398 54.5312 80.0039 54.5156C80.1758 54.4922 80.3203 54.4688 80.4375 54.4453L80.4492 56.9297C80.1602 57.0234 79.8477 57.0977 79.5117 57.1523C79.1758 57.207 78.8047 57.2344 78.3984 57.2344C77.6562 57.2344 77.0078 57.1133 76.4531 56.8711C75.9062 56.6211 75.4844 56.2227 75.1875 55.6758C74.8906 55.1289 74.7422 54.4102 74.7422 53.5195V41.1914ZM85.7812 44.3203V57H82.3945V44.3203H85.7812ZM82.1836 41.0156C82.1836 40.5234 82.3555 40.1172 82.6992 39.7969C83.043 39.4766 83.5039 39.3164 84.082 39.3164C84.6523 39.3164 85.1094 39.4766 85.4531 39.7969C85.8047 40.1172 85.9805 40.5234 85.9805 41.0156C85.9805 41.5078 85.8047 41.9141 85.4531 42.2344C85.1094 42.5547 84.6523 42.7148 84.082 42.7148C83.5039 42.7148 83.043 42.5547 82.6992 42.2344C82.3555 41.9141 82.1836 41.5078 82.1836 41.0156ZM91.875 47.0273V57H88.5V44.3203H91.6641L91.875 47.0273ZM91.3828 50.2148H90.4688C90.4688 49.2773 90.5898 48.4336 90.832 47.6836C91.0742 46.9258 91.4141 46.2812 91.8516 45.75C92.2891 45.2109 92.8086 44.8008 93.4102 44.5195C94.0195 44.2305 94.6992 44.0859 95.4492 44.0859C96.043 44.0859 96.5859 44.1719 97.0781 44.3438C97.5703 44.5156 97.9922 44.7891 98.3438 45.1641C98.7031 45.5391 98.9766 46.0352 99.1641 46.6523C99.3594 47.2695 99.457 48.0234 99.457 48.9141V57H96.0586V48.9023C96.0586 48.3398 95.9805 47.9023 95.8242 47.5898C95.668 47.2773 95.4375 47.0586 95.1328 46.9336C94.8359 46.8008 94.4688 46.7344 94.0312 46.7344C93.5781 46.7344 93.1836 46.8242 92.8477 47.0039C92.5195 47.1836 92.2461 47.4336 92.0273 47.7539C91.8164 48.0664 91.6562 48.4336 91.5469 48.8555C91.4375 49.2773 91.3828 49.7305 91.3828 50.2148ZM110.051 44.3203H113.109V56.5781C113.109 57.7344 112.852 58.7148 112.336 59.5195C111.828 60.332 111.117 60.9453 110.203 61.3594C109.289 61.7812 108.227 61.9922 107.016 61.9922C106.484 61.9922 105.922 61.9219 105.328 61.7812C104.742 61.6406 104.18 61.4219 103.641 61.125C103.109 60.8281 102.664 60.4531 102.305 60L103.793 58.0078C104.184 58.4609 104.637 58.8125 105.152 59.0625C105.668 59.3203 106.238 59.4492 106.863 59.4492C107.473 59.4492 107.988 59.3359 108.41 59.1094C108.832 58.8906 109.156 58.5664 109.383 58.1367C109.609 57.7148 109.723 57.2031 109.723 56.6016V47.25L110.051 44.3203ZM101.52 50.8125V50.5664C101.52 49.5977 101.637 48.7188 101.871 47.9297C102.113 47.1328 102.453 46.4492 102.891 45.8789C103.336 45.3086 103.875 44.8672 104.508 44.5547C105.141 44.2422 105.855 44.0859 106.652 44.0859C107.496 44.0859 108.203 44.2422 108.773 44.5547C109.344 44.8672 109.812 45.3125 110.18 45.8906C110.547 46.4609 110.832 47.1367 111.035 47.918C111.246 48.6914 111.41 49.5391 111.527 50.4609V51C111.41 51.8828 111.234 52.7031 111 53.4609C110.766 54.2188 110.457 54.8828 110.074 55.4531C109.691 56.0156 109.215 56.4531 108.645 56.7656C108.082 57.0781 107.41 57.2344 106.629 57.2344C105.848 57.2344 105.141 57.0742 104.508 56.7539C103.883 56.4336 103.348 55.9844 102.902 55.4062C102.457 54.8281 102.113 54.1484 101.871 53.3672C101.637 52.5859 101.52 51.7344 101.52 50.8125ZM104.895 50.5664V50.8125C104.895 51.3359 104.945 51.8242 105.047 52.2773C105.148 52.7305 105.305 53.1328 105.516 53.4844C105.734 53.8281 106.004 54.0977 106.324 54.293C106.652 54.4805 107.039 54.5742 107.484 54.5742C108.102 54.5742 108.605 54.4453 108.996 54.1875C109.387 53.9219 109.68 53.5586 109.875 53.0977C110.07 52.6367 110.184 52.1055 110.215 51.5039V49.9688C110.199 49.4766 110.133 49.0352 110.016 48.6445C109.898 48.2461 109.734 47.9062 109.523 47.625C109.312 47.3438 109.039 47.125 108.703 46.9688C108.367 46.8125 107.969 46.7344 107.508 46.7344C107.062 46.7344 106.676 46.8359 106.348 47.0391C106.027 47.2344 105.758 47.5039 105.539 47.8477C105.328 48.1914 105.168 48.5977 105.059 49.0664C104.949 49.5273 104.895 50.0273 104.895 50.5664Z" fill="white"/>
<circle cx="142" cy="35" r="17" fill="#1F1F39"/>
<path d="M140.728 42.1806V30.7521L136.984 34.5121C136.77 34.7284 136.479 34.8501 136.176 34.8501C135.872 34.8501 135.581 34.7284 135.368 34.5121C134.926 34.0663 134.926 33.3464 135.368 32.9006L140.261 27.9978C140.686 27.5685 141.263 27.326 141.866 27.3235C142.465 27.329 143.037 27.5713 143.459 27.9978L148.353 32.9006C148.64 33.1905 148.75 33.612 148.644 34.0062C148.537 34.4004 148.229 34.7076 147.836 34.8119C147.442 34.9163 147.024 34.802 146.737 34.5121L143.004 30.7521V42.1806C143.004 42.8118 142.494 43.3235 141.866 43.3235C141.237 43.3235 140.728 42.8118 140.728 42.1806Z" fill="white"/>
</g>
<defs>
<clipPath id="clip0_0_1051">
<rect width="167" height="68" fill="white" transform="translate(0 0.747803)"/>
</clipPath>
</defs>
</svg>
