<svg width="370" height="157" viewBox="0 0 370 157" fill="none" xmlns="http://www.w3.org/2000/svg">
<g clip-path="url(#clip0_0_1006)">
<g clip-path="url(#clip1_0_1006)">
<path fill-rule="evenodd" clip-rule="evenodd" d="M0 16C0 7.16343 7.16344 0 16 0H354C362.837 0 370 7.16344 370 16V90.4121C370 99.2486 362.837 106.412 354 106.412H154.619C145.782 106.412 138.619 113.576 138.619 122.412V139.876C138.619 148.697 131.481 155.853 122.66 155.876L16.0412 156.151C7.18857 156.174 0 149.004 0 140.151L0 16Z" fill="#D8F46C"/>
<mask id="mask0_0_1006" style="mask-type:luminance" maskUnits="userSpaceOnUse" x="0" y="0" width="370" height="157">
<path fill-rule="evenodd" clip-rule="evenodd" d="M0 16C0 7.16343 7.16344 0 16 0H354C362.837 0 370 7.16344 370 16V90.4121C370 99.2486 362.837 106.412 354 106.412H154.619C145.782 106.412 138.619 113.576 138.619 122.412V139.876C138.619 148.697 131.481 155.853 122.66 155.876L16.0412 156.151C7.18857 156.174 0 149.004 0 140.151L0 16Z" fill="white"/>
</mask>
<g mask="url(#mask0_0_1006)">
</g>
<g clip-path="url(#clip2_0_1006)">
<path fill-rule="evenodd" clip-rule="evenodd" d="M325.375 -9H364.094V37.2H325.375V-9Z" fill="#D8F46C"/>
<rect x="278.781" y="-9" width="46.5938" height="20.46" fill="#2C2738"/>
<path fill-rule="evenodd" clip-rule="evenodd" d="M325.375 -9V37.86H278.781L325.375 -9Z" fill="white"/>
<path fill-rule="evenodd" clip-rule="evenodd" d="M370 -14.9399L322.969 32.3601L370 79.4401V-14.9399Z" fill="#C9EB49"/>
<path fill-rule="evenodd" clip-rule="evenodd" d="M278.781 37.86V-9H231.75" fill="#D8F46C"/>
<ellipse cx="278.781" cy="1.33999" rx="6.5625" ry="6.6" fill="#6B49EB"/>
<ellipse cx="350.094" cy="4.86001" rx="6.5625" ry="6.6" fill="white"/>
<ellipse cx="353" cy="62.9" rx="8.3125" ry="8.36" fill="white"/>
<path fill-rule="evenodd" clip-rule="evenodd" d="M359.045 68.6956C360.495 67.1931 361.388 65.1437 361.388 62.8846C361.388 58.276 357.673 54.54 353.09 54.54C350.844 54.54 348.806 55.4378 347.312 56.896L359.045 68.6956Z" fill="#2C2738"/>
<ellipse cx="325.713" cy="34.8993" rx="22.2031" ry="22.33" transform="rotate(45 325.713 34.8993)" fill="#C6CEDD"/>
<ellipse cx="325.868" cy="34.8989" rx="10.7188" ry="10.78" transform="rotate(45 325.868 34.8989)" fill="#6B49EB"/>
<path fill-rule="evenodd" clip-rule="evenodd" d="M311.125 51.8066C319.852 59.3386 333.085 58.9273 341.413 50.5993C349.741 42.2713 350.152 29.0384 342.62 20.3121L311.125 51.8066Z" fill="white"/>
</g>
</g>
<path d="M22.4609 22.3555L17.8203 36.5H14.082L20.4219 19.4375H22.8008L22.4609 22.3555ZM26.3164 36.5L21.6641 22.3555L21.2891 19.4375H23.6914L30.0664 36.5H26.3164ZM26.1055 30.1484V32.9023H17.0938V30.1484H26.1055ZM38.293 32.9961C38.293 32.7539 38.2227 32.5352 38.082 32.3398C37.9414 32.1445 37.6797 31.9648 37.2969 31.8008C36.9219 31.6289 36.3789 31.4727 35.668 31.332C35.0273 31.1914 34.4297 31.0156 33.875 30.8047C33.3281 30.5859 32.8516 30.3242 32.4453 30.0195C32.0469 29.7148 31.7344 29.3555 31.5078 28.9414C31.2812 28.5195 31.168 28.0391 31.168 27.5C31.168 26.9688 31.2812 26.4688 31.5078 26C31.7422 25.5312 32.0742 25.1172 32.5039 24.7578C32.9414 24.3906 33.4727 24.1055 34.0977 23.9023C34.7305 23.6914 35.4414 23.5859 36.2305 23.5859C37.332 23.5859 38.2773 23.7617 39.0664 24.1133C39.8633 24.4648 40.4727 24.9492 40.8945 25.5664C41.3242 26.1758 41.5391 26.8711 41.5391 27.6523H38.1641C38.1641 27.3242 38.0938 27.0312 37.9531 26.7734C37.8203 26.5078 37.6094 26.3008 37.3203 26.1523C37.0391 25.9961 36.6719 25.918 36.2188 25.918C35.8438 25.918 35.5195 25.9844 35.2461 26.1172C34.9727 26.2422 34.7617 26.4141 34.6133 26.6328C34.4727 26.8438 34.4023 27.0781 34.4023 27.3359C34.4023 27.5312 34.4414 27.707 34.5195 27.8633C34.6055 28.0117 34.7422 28.1484 34.9297 28.2734C35.1172 28.3984 35.3594 28.5156 35.6562 28.625C35.9609 28.7266 36.3359 28.8203 36.7812 28.9062C37.6953 29.0938 38.5117 29.3398 39.2305 29.6445C39.9492 29.9414 40.5195 30.3477 40.9414 30.8633C41.3633 31.3711 41.5742 32.0391 41.5742 32.8672C41.5742 33.4297 41.4492 33.9453 41.1992 34.4141C40.9492 34.8828 40.5898 35.293 40.1211 35.6445C39.6523 35.9883 39.0898 36.2578 38.4336 36.4531C37.7852 36.6406 37.0547 36.7344 36.2422 36.7344C35.0625 36.7344 34.0625 36.5234 33.2422 36.1016C32.4297 35.6797 31.8125 35.1445 31.3906 34.4961C30.9766 33.8398 30.7695 33.168 30.7695 32.4805H33.9688C33.9844 32.9414 34.1016 33.3125 34.3203 33.5938C34.5469 33.875 34.832 34.0781 35.1758 34.2031C35.5273 34.3281 35.9062 34.3906 36.3125 34.3906C36.75 34.3906 37.1133 34.332 37.4023 34.2148C37.6914 34.0898 37.9102 33.9258 38.0586 33.7227C38.2148 33.5117 38.293 33.2695 38.293 32.9961ZM47.1406 18.4883V36.5H43.7656V18.4883H47.1406ZM55.1328 23.8203L49.625 30.1016L46.6719 33.0898L45.4414 30.6523L47.7852 27.6758L51.0781 23.8203H55.1328ZM51.6289 36.5L47.8789 30.6406L50.2109 28.6016L55.5195 36.5H51.6289ZM69.7109 22.3555L65.0703 36.5H61.332L67.6719 19.4375H70.0508L69.7109 22.3555ZM73.5664 36.5L68.9141 22.3555L68.5391 19.4375H70.9414L77.3164 36.5H73.5664ZM73.3555 30.1484V32.9023H64.3438V30.1484H73.3555ZM82.6367 19.4375V36.5H79.1328V19.4375H82.6367ZM22.1562 61.6406V55.9922C22.1562 55.5859 22.0898 55.2383 21.957 54.9492C21.8242 54.6523 21.6172 54.4219 21.3359 54.2578C21.0625 54.0938 20.707 54.0117 20.2695 54.0117C19.8945 54.0117 19.5703 54.0781 19.2969 54.2109C19.0234 54.3359 18.8125 54.5195 18.6641 54.7617C18.5156 54.9961 18.4414 55.2734 18.4414 55.5938H15.0664C15.0664 55.0547 15.1914 54.543 15.4414 54.0586C15.6914 53.5742 16.0547 53.1484 16.5312 52.7812C17.0078 52.4062 17.5742 52.1133 18.2305 51.9023C18.8945 51.6914 19.6367 51.5859 20.457 51.5859C21.4414 51.5859 22.3164 51.75 23.082 52.0781C23.8477 52.4062 24.4492 52.8984 24.8867 53.5547C25.332 54.2109 25.5547 55.0312 25.5547 56.0156V61.4414C25.5547 62.1367 25.5977 62.707 25.6836 63.1523C25.7695 63.5898 25.8945 63.9727 26.0586 64.3008V64.5H22.6484C22.4844 64.1562 22.3594 63.7266 22.2734 63.2109C22.1953 62.6875 22.1562 62.1641 22.1562 61.6406ZM22.6016 56.7773L22.625 58.6875H20.7383C20.293 58.6875 19.9062 58.7383 19.5781 58.8398C19.25 58.9414 18.9805 59.0859 18.7695 59.2734C18.5586 59.4531 18.4023 59.6641 18.3008 59.9062C18.207 60.1484 18.1602 60.4141 18.1602 60.7031C18.1602 60.9922 18.2266 61.2539 18.3594 61.4883C18.4922 61.7148 18.6836 61.8945 18.9336 62.0273C19.1836 62.1523 19.4766 62.2148 19.8125 62.2148C20.3203 62.2148 20.7617 62.1133 21.1367 61.9102C21.5117 61.707 21.8008 61.457 22.0039 61.1602C22.2148 60.8633 22.3242 60.582 22.332 60.3164L23.2227 61.7461C23.0977 62.0664 22.9258 62.3984 22.707 62.7422C22.4961 63.0859 22.2266 63.4102 21.8984 63.7148C21.5703 64.0117 21.1758 64.2578 20.7148 64.4531C20.2539 64.6406 19.707 64.7344 19.0742 64.7344C18.2695 64.7344 17.5391 64.5742 16.8828 64.2539C16.2344 63.9258 15.7188 63.4766 15.3359 62.9062C14.9609 62.3281 14.7734 61.6719 14.7734 60.9375C14.7734 60.2734 14.8984 59.6836 15.1484 59.168C15.3984 58.6523 15.7656 58.2188 16.25 57.8672C16.7422 57.5078 17.3555 57.2383 18.0898 57.0586C18.8242 56.8711 19.6758 56.7773 20.6445 56.7773H22.6016ZM28.1562 46.5H31.5312V61.5938L31.1914 64.5H28.1562V46.5ZM39.5586 58.0312V58.2773C39.5586 59.2227 39.457 60.0898 39.2539 60.8789C39.0586 61.668 38.7539 62.3516 38.3398 62.9297C37.9258 63.5 37.4102 63.9453 36.793 64.2656C36.1836 64.5781 35.4648 64.7344 34.6367 64.7344C33.8633 64.7344 33.1914 64.5781 32.6211 64.2656C32.0586 63.9531 31.5859 63.5117 31.2031 62.9414C30.8203 62.3711 30.5117 61.7031 30.2773 60.9375C30.043 60.1719 29.8672 59.3359 29.75 58.4297V57.8906C29.8672 56.9844 30.043 56.1484 30.2773 55.3828C30.5117 54.6172 30.8203 53.9492 31.2031 53.3789C31.5859 52.8086 32.0586 52.3672 32.6211 52.0547C33.1836 51.7422 33.8477 51.5859 34.6133 51.5859C35.4492 51.5859 36.1758 51.7461 36.793 52.0664C37.418 52.3789 37.9336 52.8242 38.3398 53.4023C38.7539 53.9727 39.0586 54.6523 39.2539 55.4414C39.457 56.2227 39.5586 57.0859 39.5586 58.0312ZM36.1836 58.2773V58.0312C36.1836 57.5156 36.1445 57.0312 36.0664 56.5781C35.9961 56.1172 35.8711 55.7148 35.6914 55.3711C35.5117 55.0195 35.2656 54.7422 34.9531 54.5391C34.6484 54.3359 34.2539 54.2344 33.7695 54.2344C33.3086 54.2344 32.918 54.3125 32.5977 54.4688C32.2773 54.625 32.0117 54.8438 31.8008 55.125C31.5977 55.4062 31.4453 55.7422 31.3438 56.1328C31.2422 56.5156 31.1797 56.9375 31.1562 57.3984V58.9336C31.1797 59.5508 31.2812 60.0977 31.4609 60.5742C31.6484 61.043 31.9297 61.4141 32.3047 61.6875C32.6875 61.9531 33.1836 62.0859 33.793 62.0859C34.2695 62.0859 34.6641 61.9922 34.9766 61.8047C35.2891 61.6172 35.5312 61.3516 35.7031 61.0078C35.8828 60.6641 36.0078 60.2617 36.0781 59.8008C36.1484 59.332 36.1836 58.8242 36.1836 58.2773ZM41.1172 58.2891V58.043C41.1172 57.1133 41.25 56.2578 41.5156 55.4766C41.7812 54.6875 42.168 54.0039 42.6758 53.4258C43.1836 52.8477 43.8086 52.3984 44.5508 52.0781C45.293 51.75 46.1445 51.5859 47.1055 51.5859C48.0664 51.5859 48.9219 51.75 49.6719 52.0781C50.4219 52.3984 51.0508 52.8477 51.5586 53.4258C52.0742 54.0039 52.4648 54.6875 52.7305 55.4766C52.9961 56.2578 53.1289 57.1133 53.1289 58.043V58.2891C53.1289 59.2109 52.9961 60.0664 52.7305 60.8555C52.4648 61.6367 52.0742 62.3203 51.5586 62.9062C51.0508 63.4844 50.4258 63.9336 49.6836 64.2539C48.9414 64.5742 48.0898 64.7344 47.1289 64.7344C46.168 64.7344 45.3125 64.5742 44.5625 64.2539C43.8203 63.9336 43.1914 63.4844 42.6758 62.9062C42.168 62.3203 41.7812 61.6367 41.5156 60.8555C41.25 60.0664 41.1172 59.2109 41.1172 58.2891ZM44.4922 58.043V58.2891C44.4922 58.8203 44.5391 59.3164 44.6328 59.7773C44.7266 60.2383 44.875 60.6445 45.0781 60.9961C45.2891 61.3398 45.5625 61.6094 45.8984 61.8047C46.2344 62 46.6445 62.0977 47.1289 62.0977C47.5977 62.0977 48 62 48.3359 61.8047C48.6719 61.6094 48.9414 61.3398 49.1445 60.9961C49.3477 60.6445 49.4961 60.2383 49.5898 59.7773C49.6914 59.3164 49.7422 58.8203 49.7422 58.2891V58.043C49.7422 57.5273 49.6914 57.043 49.5898 56.5898C49.4961 56.1289 49.3438 55.7227 49.1328 55.3711C48.9297 55.0117 48.6602 54.7305 48.3242 54.5273C47.9883 54.3242 47.582 54.2227 47.1055 54.2227C46.6289 54.2227 46.2227 54.3242 45.8867 54.5273C45.5586 54.7305 45.2891 55.0117 45.0781 55.3711C44.875 55.7227 44.7266 56.1289 44.6328 56.5898C44.5391 57.043 44.4922 57.5273 44.4922 58.043ZM62.7031 61.4648V51.8203H66.0781V64.5H62.9023L62.7031 61.4648ZM63.0781 58.8633L64.0742 58.8398C64.0742 59.6836 63.9766 60.4688 63.7812 61.1953C63.5859 61.9141 63.293 62.5391 62.9023 63.0703C62.5117 63.5938 62.0195 64.0039 61.4258 64.3008C60.832 64.5898 60.1328 64.7344 59.3281 64.7344C58.7109 64.7344 58.1406 64.6484 57.6172 64.4766C57.1016 64.2969 56.6562 64.0195 56.2812 63.6445C55.9141 63.2617 55.625 62.7734 55.4141 62.1797C55.2109 61.5781 55.1094 60.8555 55.1094 60.0117V51.8203H58.4844V60.0352C58.4844 60.4102 58.5273 60.7266 58.6133 60.9844C58.707 61.2422 58.8359 61.4531 59 61.6172C59.1641 61.7812 59.3555 61.8984 59.5742 61.9688C59.8008 62.0391 60.0508 62.0742 60.3242 62.0742C61.0195 62.0742 61.5664 61.9336 61.9648 61.6523C62.3711 61.3711 62.6562 60.9883 62.8203 60.5039C62.9922 60.0117 63.0781 59.4648 63.0781 58.8633ZM74.8672 51.8203V54.2109H67.4844V51.8203H74.8672ZM69.3125 48.6914H72.6875V60.6797C72.6875 61.0469 72.7344 61.3281 72.8281 61.5234C72.9297 61.7188 73.0781 61.8555 73.2734 61.9336C73.4688 62.0039 73.7148 62.0391 74.0117 62.0391C74.2227 62.0391 74.4102 62.0312 74.5742 62.0156C74.7461 61.9922 74.8906 61.9688 75.0078 61.9453L75.0195 64.4297C74.7305 64.5234 74.418 64.5977 74.082 64.6523C73.7461 64.707 73.375 64.7344 72.9688 64.7344C72.2266 64.7344 71.5781 64.6133 71.0234 64.3711C70.4766 64.1211 70.0547 63.7227 69.7578 63.1758C69.4609 62.6289 69.3125 61.9102 69.3125 61.0195V48.6914ZM91.8594 60.0352C91.8594 59.7305 91.8125 59.457 91.7188 59.2148C91.6328 58.9648 91.4688 58.7383 91.2266 58.5352C90.9844 58.3242 90.6445 58.1172 90.207 57.9141C89.7695 57.7109 89.2031 57.5 88.5078 57.2812C87.7344 57.0312 87 56.75 86.3047 56.4375C85.6172 56.125 85.0078 55.7617 84.4766 55.3477C83.9531 54.9258 83.5391 54.4375 83.2344 53.8828C82.9375 53.3281 82.7891 52.6836 82.7891 51.9492C82.7891 51.2383 82.9453 50.5938 83.2578 50.0156C83.5703 49.4297 84.0078 48.9297 84.5703 48.5156C85.1328 48.0938 85.7969 47.7695 86.5625 47.543C87.3359 47.3164 88.1836 47.2031 89.1055 47.2031C90.3633 47.2031 91.4609 47.4297 92.3984 47.8828C93.3359 48.3359 94.0625 48.957 94.5781 49.7461C95.1016 50.5352 95.3633 51.4375 95.3633 52.4531H91.8711C91.8711 51.9531 91.7656 51.5156 91.5547 51.1406C91.3516 50.7578 91.0391 50.457 90.6172 50.2383C90.2031 50.0195 89.6797 49.9102 89.0469 49.9102C88.4375 49.9102 87.9297 50.0039 87.5234 50.1914C87.1172 50.3711 86.8125 50.6172 86.6094 50.9297C86.4062 51.2344 86.3047 51.5781 86.3047 51.9609C86.3047 52.25 86.375 52.5117 86.5156 52.7461C86.6641 52.9805 86.8828 53.1992 87.1719 53.4023C87.4609 53.6055 87.8164 53.7969 88.2383 53.9766C88.6602 54.1562 89.1484 54.332 89.7031 54.5039C90.6328 54.7852 91.4492 55.1016 92.1523 55.4531C92.8633 55.8047 93.457 56.1992 93.9336 56.6367C94.4102 57.0742 94.7695 57.5703 95.0117 58.125C95.2539 58.6797 95.375 59.3086 95.375 60.0117C95.375 60.7539 95.2305 61.418 94.9414 62.0039C94.6523 62.5898 94.2344 63.0859 93.6875 63.4922C93.1406 63.8984 92.4883 64.207 91.7305 64.418C90.9727 64.6289 90.125 64.7344 89.1875 64.7344C88.3438 64.7344 87.5117 64.625 86.6914 64.4062C85.8711 64.1797 85.125 63.8398 84.4531 63.3867C83.7891 62.9336 83.2578 62.3555 82.8594 61.6523C82.4609 60.9492 82.2617 60.1172 82.2617 59.1562H85.7891C85.7891 59.6875 85.8711 60.1367 86.0352 60.5039C86.1992 60.8711 86.4297 61.168 86.7266 61.3945C87.0312 61.6211 87.3906 61.7852 87.8047 61.8867C88.2266 61.9883 88.6875 62.0391 89.1875 62.0391C89.7969 62.0391 90.2969 61.9531 90.6875 61.7812C91.0859 61.6094 91.3789 61.3711 91.5664 61.0664C91.7617 60.7617 91.8594 60.418 91.8594 60.0352ZM103.766 51.8203V54.2109H96.3828V51.8203H103.766ZM98.2109 48.6914H101.586V60.6797C101.586 61.0469 101.633 61.3281 101.727 61.5234C101.828 61.7188 101.977 61.8555 102.172 61.9336C102.367 62.0039 102.613 62.0391 102.91 62.0391C103.121 62.0391 103.309 62.0312 103.473 62.0156C103.645 61.9922 103.789 61.9688 103.906 61.9453L103.918 64.4297C103.629 64.5234 103.316 64.5977 102.98 64.6523C102.645 64.707 102.273 64.7344 101.867 64.7344C101.125 64.7344 100.477 64.6133 99.9219 64.3711C99.375 64.1211 98.9531 63.7227 98.6562 63.1758C98.3594 62.6289 98.2109 61.9102 98.2109 61.0195V48.6914ZM104.844 58.2891V58.043C104.844 57.1133 104.977 56.2578 105.242 55.4766C105.508 54.6875 105.895 54.0039 106.402 53.4258C106.91 52.8477 107.535 52.3984 108.277 52.0781C109.02 51.75 109.871 51.5859 110.832 51.5859C111.793 51.5859 112.648 51.75 113.398 52.0781C114.148 52.3984 114.777 52.8477 115.285 53.4258C115.801 54.0039 116.191 54.6875 116.457 55.4766C116.723 56.2578 116.855 57.1133 116.855 58.043V58.2891C116.855 59.2109 116.723 60.0664 116.457 60.8555C116.191 61.6367 115.801 62.3203 115.285 62.9062C114.777 63.4844 114.152 63.9336 113.41 64.2539C112.668 64.5742 111.816 64.7344 110.855 64.7344C109.895 64.7344 109.039 64.5742 108.289 64.2539C107.547 63.9336 106.918 63.4844 106.402 62.9062C105.895 62.3203 105.508 61.6367 105.242 60.8555C104.977 60.0664 104.844 59.2109 104.844 58.2891ZM108.219 58.043V58.2891C108.219 58.8203 108.266 59.3164 108.359 59.7773C108.453 60.2383 108.602 60.6445 108.805 60.9961C109.016 61.3398 109.289 61.6094 109.625 61.8047C109.961 62 110.371 62.0977 110.855 62.0977C111.324 62.0977 111.727 62 112.062 61.8047C112.398 61.6094 112.668 61.3398 112.871 60.9961C113.074 60.6445 113.223 60.2383 113.316 59.7773C113.418 59.3164 113.469 58.8203 113.469 58.2891V58.043C113.469 57.5273 113.418 57.043 113.316 56.5898C113.223 56.1289 113.07 55.7227 112.859 55.3711C112.656 55.0117 112.387 54.7305 112.051 54.5273C111.715 54.3242 111.309 54.2227 110.832 54.2227C110.355 54.2227 109.949 54.3242 109.613 54.5273C109.285 54.7305 109.016 55.0117 108.805 55.3711C108.602 55.7227 108.453 56.1289 108.359 56.5898C108.266 57.043 108.219 57.5273 108.219 58.043ZM124.168 62.0977C124.582 62.0977 124.949 62.0195 125.27 61.8633C125.59 61.6992 125.84 61.4727 126.02 61.1836C126.207 60.8867 126.305 60.5391 126.312 60.1406H129.488C129.48 61.0312 129.242 61.8242 128.773 62.5195C128.305 63.207 127.676 63.75 126.887 64.1484C126.098 64.5391 125.215 64.7344 124.238 64.7344C123.254 64.7344 122.395 64.5703 121.66 64.2422C120.934 63.9141 120.328 63.4609 119.844 62.8828C119.359 62.2969 118.996 61.6172 118.754 60.8438C118.512 60.0625 118.391 59.2266 118.391 58.3359V57.9961C118.391 57.0977 118.512 56.2617 118.754 55.4883C118.996 54.707 119.359 54.0273 119.844 53.4492C120.328 52.8633 120.934 52.4062 121.66 52.0781C122.387 51.75 123.238 51.5859 124.215 51.5859C125.254 51.5859 126.164 51.7852 126.945 52.1836C127.734 52.582 128.352 53.1523 128.797 53.8945C129.25 54.6289 129.48 55.5 129.488 56.5078H126.312C126.305 56.0859 126.215 55.7031 126.043 55.3594C125.879 55.0156 125.637 54.7422 125.316 54.5391C125.004 54.3281 124.617 54.2227 124.156 54.2227C123.664 54.2227 123.262 54.3281 122.949 54.5391C122.637 54.7422 122.395 55.0234 122.223 55.3828C122.051 55.7344 121.93 56.1367 121.859 56.5898C121.797 57.0352 121.766 57.5039 121.766 57.9961V58.3359C121.766 58.8281 121.797 59.3008 121.859 59.7539C121.922 60.207 122.039 60.6094 122.211 60.9609C122.391 61.3125 122.637 61.5898 122.949 61.793C123.262 61.9961 123.668 62.0977 124.168 62.0977ZM134.82 46.4883V64.5H131.445V46.4883H134.82ZM142.812 51.8203L137.305 58.1016L134.352 61.0898L133.121 58.6523L135.465 55.6758L138.758 51.8203H142.812ZM139.309 64.5L135.559 58.6406L137.891 56.6016L143.199 64.5H139.309ZM151.121 60.9961C151.121 60.7539 151.051 60.5352 150.91 60.3398C150.77 60.1445 150.508 59.9648 150.125 59.8008C149.75 59.6289 149.207 59.4727 148.496 59.332C147.855 59.1914 147.258 59.0156 146.703 58.8047C146.156 58.5859 145.68 58.3242 145.273 58.0195C144.875 57.7148 144.562 57.3555 144.336 56.9414C144.109 56.5195 143.996 56.0391 143.996 55.5C143.996 54.9688 144.109 54.4688 144.336 54C144.57 53.5312 144.902 53.1172 145.332 52.7578C145.77 52.3906 146.301 52.1055 146.926 51.9023C147.559 51.6914 148.27 51.5859 149.059 51.5859C150.16 51.5859 151.105 51.7617 151.895 52.1133C152.691 52.4648 153.301 52.9492 153.723 53.5664C154.152 54.1758 154.367 54.8711 154.367 55.6523H150.992C150.992 55.3242 150.922 55.0312 150.781 54.7734C150.648 54.5078 150.438 54.3008 150.148 54.1523C149.867 53.9961 149.5 53.918 149.047 53.918C148.672 53.918 148.348 53.9844 148.074 54.1172C147.801 54.2422 147.59 54.4141 147.441 54.6328C147.301 54.8438 147.23 55.0781 147.23 55.3359C147.23 55.5312 147.27 55.707 147.348 55.8633C147.434 56.0117 147.57 56.1484 147.758 56.2734C147.945 56.3984 148.188 56.5156 148.484 56.625C148.789 56.7266 149.164 56.8203 149.609 56.9062C150.523 57.0938 151.34 57.3398 152.059 57.6445C152.777 57.9414 153.348 58.3477 153.77 58.8633C154.191 59.3711 154.402 60.0391 154.402 60.8672C154.402 61.4297 154.277 61.9453 154.027 62.4141C153.777 62.8828 153.418 63.293 152.949 63.6445C152.48 63.9883 151.918 64.2578 151.262 64.4531C150.613 64.6406 149.883 64.7344 149.07 64.7344C147.891 64.7344 146.891 64.5234 146.07 64.1016C145.258 63.6797 144.641 63.1445 144.219 62.4961C143.805 61.8398 143.598 61.168 143.598 60.4805H146.797C146.812 60.9414 146.93 61.3125 147.148 61.5938C147.375 61.875 147.66 62.0781 148.004 62.2031C148.355 62.3281 148.734 62.3906 149.141 62.3906C149.578 62.3906 149.941 62.332 150.23 62.2148C150.52 62.0898 150.738 61.9258 150.887 61.7227C151.043 61.5117 151.121 61.2695 151.121 60.9961ZM156.758 62.8711C156.758 62.3711 156.93 61.9531 157.273 61.6172C157.625 61.2812 158.09 61.1133 158.668 61.1133C159.246 61.1133 159.707 61.2812 160.051 61.6172C160.402 61.9531 160.578 62.3711 160.578 62.8711C160.578 63.3711 160.402 63.7891 160.051 64.125C159.707 64.4609 159.246 64.6289 158.668 64.6289C158.09 64.6289 157.625 64.4609 157.273 64.125C156.93 63.7891 156.758 63.3711 156.758 62.8711Z" fill="black"/>
<path d="M19.5371 83.3438C19.5371 83.1445 19.5059 82.9688 19.4434 82.8164C19.3848 82.6602 19.2793 82.5195 19.127 82.3945C18.9785 82.2695 18.7715 82.1504 18.5059 82.0371C18.2441 81.9238 17.9121 81.8086 17.5098 81.6914C17.0879 81.5664 16.707 81.4277 16.3672 81.2754C16.0273 81.1191 15.7363 80.9414 15.4941 80.7422C15.252 80.543 15.0664 80.3145 14.9375 80.0566C14.8086 79.7988 14.7441 79.5039 14.7441 79.1719C14.7441 78.8398 14.8125 78.5332 14.9492 78.252C15.0859 77.9707 15.2812 77.7266 15.5352 77.5195C15.793 77.3086 16.0996 77.1445 16.4551 77.0273C16.8105 76.9102 17.207 76.8516 17.6445 76.8516C18.2852 76.8516 18.8281 76.9746 19.2734 77.2207C19.7227 77.4629 20.0645 77.7812 20.2988 78.1758C20.5332 78.5664 20.6504 78.9844 20.6504 79.4297H19.5254C19.5254 79.1094 19.457 78.8262 19.3203 78.5801C19.1836 78.3301 18.9766 78.1348 18.6992 77.9941C18.4219 77.8496 18.0703 77.7773 17.6445 77.7773C17.2422 77.7773 16.9102 77.8379 16.6484 77.959C16.3867 78.0801 16.1914 78.2441 16.0625 78.4512C15.9375 78.6582 15.875 78.8945 15.875 79.1602C15.875 79.3398 15.9121 79.5039 15.9863 79.6523C16.0645 79.7969 16.1836 79.9316 16.3438 80.0566C16.5078 80.1816 16.7148 80.2969 16.9648 80.4023C17.2188 80.5078 17.5215 80.6094 17.873 80.707C18.3574 80.8438 18.7754 80.9961 19.127 81.1641C19.4785 81.332 19.7676 81.5215 19.9941 81.7324C20.2246 81.9395 20.3945 82.1758 20.5039 82.4414C20.6172 82.7031 20.6738 83 20.6738 83.332C20.6738 83.6797 20.6035 83.9941 20.4629 84.2754C20.3223 84.5566 20.1211 84.7969 19.8594 84.9961C19.5977 85.1953 19.2832 85.3496 18.916 85.459C18.5527 85.5645 18.1465 85.6172 17.6973 85.6172C17.3027 85.6172 16.9141 85.5625 16.5312 85.4531C16.1523 85.3438 15.8066 85.1797 15.4941 84.9609C15.1855 84.7422 14.9375 84.4727 14.75 84.1523C14.5664 83.8281 14.4746 83.4531 14.4746 83.0273H15.5996C15.5996 83.3203 15.6562 83.5723 15.7695 83.7832C15.8828 83.9902 16.0371 84.1621 16.2324 84.2988C16.4316 84.4355 16.6562 84.5371 16.9062 84.6035C17.1602 84.666 17.4238 84.6973 17.6973 84.6973C18.0918 84.6973 18.4258 84.6426 18.6992 84.5332C18.9727 84.4238 19.1797 84.2676 19.3203 84.0645C19.4648 83.8613 19.5371 83.6211 19.5371 83.3438ZM25.6895 84.416V81.1523C25.6895 80.9023 25.6387 80.6855 25.5371 80.502C25.4395 80.3145 25.291 80.1699 25.0918 80.0684C24.8926 79.9668 24.6465 79.916 24.3535 79.916C24.0801 79.916 23.8398 79.9629 23.6328 80.0566C23.4297 80.1504 23.2695 80.2734 23.1523 80.4258C23.0391 80.5781 22.9824 80.7422 22.9824 80.918H21.8984C21.8984 80.6914 21.957 80.4668 22.0742 80.2441C22.1914 80.0215 22.3594 79.8203 22.5781 79.6406C22.8008 79.457 23.0664 79.3125 23.375 79.207C23.6875 79.0977 24.0352 79.043 24.418 79.043C24.8789 79.043 25.2852 79.1211 25.6367 79.2773C25.9922 79.4336 26.2695 79.6699 26.4688 79.9863C26.6719 80.2988 26.7734 80.6914 26.7734 81.1641V84.1172C26.7734 84.3281 26.791 84.5527 26.8262 84.791C26.8652 85.0293 26.9219 85.2344 26.9961 85.4062V85.5H25.8652C25.8105 85.375 25.7676 85.209 25.7363 85.002C25.7051 84.791 25.6895 84.5957 25.6895 84.416ZM25.877 81.6562L25.8887 82.418H24.793C24.4844 82.418 24.209 82.4434 23.9668 82.4941C23.7246 82.541 23.5215 82.6133 23.3574 82.7109C23.1934 82.8086 23.0684 82.9316 22.9824 83.0801C22.8965 83.2246 22.8535 83.3945 22.8535 83.5898C22.8535 83.7891 22.8984 83.9707 22.9883 84.1348C23.0781 84.2988 23.2129 84.4297 23.3926 84.5273C23.5762 84.6211 23.8008 84.668 24.0664 84.668C24.3984 84.668 24.6914 84.5977 24.9453 84.457C25.1992 84.3164 25.4004 84.1445 25.5488 83.9414C25.7012 83.7383 25.7832 83.541 25.7949 83.3496L26.2578 83.8711C26.2305 84.0352 26.1562 84.2168 26.0352 84.416C25.9141 84.6152 25.752 84.8066 25.5488 84.9902C25.3496 85.1699 25.1113 85.3203 24.834 85.4414C24.5605 85.5586 24.252 85.6172 23.9082 85.6172C23.4785 85.6172 23.1016 85.5332 22.7773 85.3652C22.457 85.1973 22.207 84.9727 22.0273 84.6914C21.8516 84.4062 21.7637 84.0879 21.7637 83.7363C21.7637 83.3965 21.8301 83.0977 21.9629 82.8398C22.0957 82.5781 22.2871 82.3613 22.5371 82.1895C22.7871 82.0137 23.0879 81.8809 23.4395 81.791C23.791 81.7012 24.1836 81.6562 24.6172 81.6562H25.877ZM32.3574 84.0352V79.1602H33.4473V85.5H32.4102L32.3574 84.0352ZM32.5625 82.6992L33.0137 82.6875C33.0137 83.1094 32.9688 83.5 32.8789 83.8594C32.793 84.2148 32.6523 84.5234 32.457 84.7852C32.2617 85.0469 32.0059 85.252 31.6895 85.4004C31.373 85.5449 30.9883 85.6172 30.5352 85.6172C30.2266 85.6172 29.9434 85.5723 29.6855 85.4824C29.4316 85.3926 29.2129 85.2539 29.0293 85.0664C28.8457 84.8789 28.7031 84.6348 28.6016 84.334C28.5039 84.0332 28.4551 83.6719 28.4551 83.25V79.1602H29.5391V83.2617C29.5391 83.5469 29.5703 83.7832 29.6328 83.9707C29.6992 84.1543 29.7871 84.3008 29.8965 84.4102C30.0098 84.5156 30.1348 84.5898 30.2715 84.6328C30.4121 84.6758 30.5566 84.6973 30.7051 84.6973C31.166 84.6973 31.5312 84.6094 31.8008 84.4336C32.0703 84.2539 32.2637 84.0137 32.3809 83.7129C32.502 83.4082 32.5625 83.0703 32.5625 82.6992ZM39.0957 84.2695V76.5H40.1855V85.5H39.1895L39.0957 84.2695ZM34.8301 82.4004V82.2773C34.8301 81.793 34.8887 81.3535 35.0059 80.959C35.127 80.5605 35.2969 80.2188 35.5156 79.9336C35.7383 79.6484 36.002 79.4297 36.3066 79.2773C36.6152 79.1211 36.959 79.043 37.3379 79.043C37.7363 79.043 38.084 79.1133 38.3809 79.2539C38.6816 79.3906 38.9355 79.5918 39.1426 79.8574C39.3535 80.1191 39.5195 80.4355 39.6406 80.8066C39.7617 81.1777 39.8457 81.5977 39.8926 82.0664V82.6055C39.8496 83.0703 39.7656 83.4883 39.6406 83.8594C39.5195 84.2305 39.3535 84.5469 39.1426 84.8086C38.9355 85.0703 38.6816 85.2715 38.3809 85.4121C38.0801 85.5488 37.7285 85.6172 37.3262 85.6172C36.9551 85.6172 36.6152 85.5371 36.3066 85.377C36.002 85.2168 35.7383 84.9922 35.5156 84.7031C35.2969 84.4141 35.127 84.0742 35.0059 83.6836C34.8887 83.2891 34.8301 82.8613 34.8301 82.4004ZM35.9199 82.2773V82.4004C35.9199 82.7168 35.9512 83.0137 36.0137 83.291C36.0801 83.5684 36.1816 83.8125 36.3184 84.0234C36.4551 84.2344 36.6289 84.4004 36.8398 84.5215C37.0508 84.6387 37.3027 84.6973 37.5957 84.6973C37.9551 84.6973 38.25 84.6211 38.4805 84.4688C38.7148 84.3164 38.9023 84.1152 39.043 83.8652C39.1836 83.6152 39.293 83.3438 39.3711 83.0508V81.6387C39.3242 81.4238 39.2559 81.2168 39.166 81.0176C39.0801 80.8145 38.9668 80.6348 38.8262 80.4785C38.6895 80.3184 38.5195 80.1914 38.3164 80.0977C38.1172 80.0039 37.8809 79.957 37.6074 79.957C37.3105 79.957 37.0547 80.0195 36.8398 80.1445C36.6289 80.2656 36.4551 80.4336 36.3184 80.6484C36.1816 80.8594 36.0801 81.1055 36.0137 81.3867C35.9512 81.6641 35.9199 81.9609 35.9199 82.2773ZM45.6113 84.416V81.1523C45.6113 80.9023 45.5605 80.6855 45.459 80.502C45.3613 80.3145 45.2129 80.1699 45.0137 80.0684C44.8145 79.9668 44.5684 79.916 44.2754 79.916C44.002 79.916 43.7617 79.9629 43.5547 80.0566C43.3516 80.1504 43.1914 80.2734 43.0742 80.4258C42.9609 80.5781 42.9043 80.7422 42.9043 80.918H41.8203C41.8203 80.6914 41.8789 80.4668 41.9961 80.2441C42.1133 80.0215 42.2812 79.8203 42.5 79.6406C42.7227 79.457 42.9883 79.3125 43.2969 79.207C43.6094 79.0977 43.957 79.043 44.3398 79.043C44.8008 79.043 45.207 79.1211 45.5586 79.2773C45.9141 79.4336 46.1914 79.6699 46.3906 79.9863C46.5938 80.2988 46.6953 80.6914 46.6953 81.1641V84.1172C46.6953 84.3281 46.7129 84.5527 46.748 84.791C46.7871 85.0293 46.8438 85.2344 46.918 85.4062V85.5H45.7871C45.7324 85.375 45.6895 85.209 45.6582 85.002C45.627 84.791 45.6113 84.5957 45.6113 84.416ZM45.7988 81.6562L45.8105 82.418H44.7148C44.4062 82.418 44.1309 82.4434 43.8887 82.4941C43.6465 82.541 43.4434 82.6133 43.2793 82.7109C43.1152 82.8086 42.9902 82.9316 42.9043 83.0801C42.8184 83.2246 42.7754 83.3945 42.7754 83.5898C42.7754 83.7891 42.8203 83.9707 42.9102 84.1348C43 84.2988 43.1348 84.4297 43.3145 84.5273C43.498 84.6211 43.7227 84.668 43.9883 84.668C44.3203 84.668 44.6133 84.5977 44.8672 84.457C45.1211 84.3164 45.3223 84.1445 45.4707 83.9414C45.623 83.7383 45.7051 83.541 45.7168 83.3496L46.1797 83.8711C46.1523 84.0352 46.0781 84.2168 45.957 84.416C45.8359 84.6152 45.6738 84.8066 45.4707 84.9902C45.2715 85.1699 45.0332 85.3203 44.7559 85.4414C44.4824 85.5586 44.1738 85.6172 43.8301 85.6172C43.4004 85.6172 43.0234 85.5332 42.6992 85.3652C42.3789 85.1973 42.1289 84.9727 41.9492 84.6914C41.7734 84.4062 41.6855 84.0879 41.6855 83.7363C41.6855 83.3965 41.752 83.0977 41.8848 82.8398C42.0176 82.5781 42.209 82.3613 42.459 82.1895C42.709 82.0137 43.0098 81.8809 43.3613 81.791C43.7129 81.7012 44.1055 81.6562 44.5391 81.6562H45.7988ZM54.6992 77.7246L51.875 85.5H50.7207L53.9727 76.9688H54.7168L54.6992 77.7246ZM57.0664 85.5L54.2363 77.7246L54.2188 76.9688H54.9629L58.2266 85.5H57.0664ZM56.9199 82.3418V83.2676H52.127V82.3418H56.9199ZM60.582 76.9688V85.5H59.4512V76.9688H60.582ZM67.9883 84.7266C68.2461 84.7266 68.4844 84.6738 68.7031 84.5684C68.9219 84.4629 69.1016 84.3184 69.2422 84.1348C69.3828 83.9473 69.4629 83.7344 69.4824 83.4961H70.5137C70.4941 83.8711 70.3672 84.2207 70.1328 84.5449C69.9023 84.8652 69.5996 85.125 69.2246 85.3242C68.8496 85.5195 68.4375 85.6172 67.9883 85.6172C67.5117 85.6172 67.0957 85.5332 66.7402 85.3652C66.3887 85.1973 66.0957 84.9668 65.8613 84.6738C65.6309 84.3809 65.457 84.0449 65.3398 83.666C65.2266 83.2832 65.1699 82.8789 65.1699 82.4531V82.207C65.1699 81.7812 65.2266 81.3789 65.3398 81C65.457 80.6172 65.6309 80.2793 65.8613 79.9863C66.0957 79.6934 66.3887 79.4629 66.7402 79.2949C67.0957 79.127 67.5117 79.043 67.9883 79.043C68.4844 79.043 68.918 79.1445 69.2891 79.3477C69.6602 79.5469 69.9512 79.8203 70.1621 80.168C70.377 80.5117 70.4941 80.9023 70.5137 81.3398H69.4824C69.4629 81.0781 69.3887 80.8418 69.2598 80.6309C69.1348 80.4199 68.9629 80.252 68.7441 80.127C68.5293 79.998 68.2773 79.9336 67.9883 79.9336C67.6562 79.9336 67.377 80 67.1504 80.1328C66.9277 80.2617 66.75 80.4375 66.6172 80.6602C66.4883 80.8789 66.3945 81.123 66.3359 81.3926C66.2812 81.6582 66.2539 81.9297 66.2539 82.207V82.4531C66.2539 82.7305 66.2812 83.0039 66.3359 83.2734C66.3906 83.543 66.4824 83.7871 66.6113 84.0059C66.7441 84.2246 66.9219 84.4004 67.1445 84.5332C67.3711 84.6621 67.6523 84.7266 67.9883 84.7266ZM75.4707 84.416V81.1523C75.4707 80.9023 75.4199 80.6855 75.3184 80.502C75.2207 80.3145 75.0723 80.1699 74.873 80.0684C74.6738 79.9668 74.4277 79.916 74.1348 79.916C73.8613 79.916 73.6211 79.9629 73.4141 80.0566C73.2109 80.1504 73.0508 80.2734 72.9336 80.4258C72.8203 80.5781 72.7637 80.7422 72.7637 80.918H71.6797C71.6797 80.6914 71.7383 80.4668 71.8555 80.2441C71.9727 80.0215 72.1406 79.8203 72.3594 79.6406C72.582 79.457 72.8477 79.3125 73.1562 79.207C73.4688 79.0977 73.8164 79.043 74.1992 79.043C74.6602 79.043 75.0664 79.1211 75.418 79.2773C75.7734 79.4336 76.0508 79.6699 76.25 79.9863C76.4531 80.2988 76.5547 80.6914 76.5547 81.1641V84.1172C76.5547 84.3281 76.5723 84.5527 76.6074 84.791C76.6465 85.0293 76.7031 85.2344 76.7773 85.4062V85.5H75.6465C75.5918 85.375 75.5488 85.209 75.5176 85.002C75.4863 84.791 75.4707 84.5957 75.4707 84.416ZM75.6582 81.6562L75.6699 82.418H74.5742C74.2656 82.418 73.9902 82.4434 73.748 82.4941C73.5059 82.541 73.3027 82.6133 73.1387 82.7109C72.9746 82.8086 72.8496 82.9316 72.7637 83.0801C72.6777 83.2246 72.6348 83.3945 72.6348 83.5898C72.6348 83.7891 72.6797 83.9707 72.7695 84.1348C72.8594 84.2988 72.9941 84.4297 73.1738 84.5273C73.3574 84.6211 73.582 84.668 73.8477 84.668C74.1797 84.668 74.4727 84.5977 74.7266 84.457C74.9805 84.3164 75.1816 84.1445 75.3301 83.9414C75.4824 83.7383 75.5645 83.541 75.5762 83.3496L76.0391 83.8711C76.0117 84.0352 75.9375 84.2168 75.8164 84.416C75.6953 84.6152 75.5332 84.8066 75.3301 84.9902C75.1309 85.1699 74.8926 85.3203 74.6152 85.4414C74.3418 85.5586 74.0332 85.6172 73.6895 85.6172C73.2598 85.6172 72.8828 85.5332 72.5586 85.3652C72.2383 85.1973 71.9883 84.9727 71.8086 84.6914C71.6328 84.4062 71.5449 84.0879 71.5449 83.7363C71.5449 83.3965 71.6113 83.0977 71.7441 82.8398C71.877 82.5781 72.0684 82.3613 72.3184 82.1895C72.5684 82.0137 72.8691 81.8809 73.2207 81.791C73.5723 81.7012 73.9648 81.6562 74.3984 81.6562H75.6582ZM79.3438 80.5137V85.5H78.2598V79.1602H79.2852L79.3438 80.5137ZM79.0859 82.0898L78.6348 82.0723C78.6387 81.6387 78.7031 81.2383 78.8281 80.8711C78.9531 80.5 79.1289 80.1777 79.3555 79.9043C79.582 79.6309 79.8516 79.4199 80.1641 79.2715C80.4805 79.1191 80.8301 79.043 81.2129 79.043C81.5254 79.043 81.8066 79.0859 82.0566 79.1719C82.3066 79.2539 82.5195 79.3867 82.6953 79.5703C82.875 79.7539 83.0117 79.9922 83.1055 80.2852C83.1992 80.5742 83.2461 80.9277 83.2461 81.3457V85.5H82.1562V81.334C82.1562 81.002 82.1074 80.7363 82.0098 80.5371C81.9121 80.334 81.7695 80.1875 81.582 80.0977C81.3945 80.0039 81.1641 79.957 80.8906 79.957C80.6211 79.957 80.375 80.0137 80.1523 80.127C79.9336 80.2402 79.7441 80.3965 79.584 80.5957C79.4277 80.7949 79.3047 81.0234 79.2148 81.2812C79.1289 81.5352 79.0859 81.8047 79.0859 82.0898ZM88.9531 80.3789V87.9375H87.8633V79.1602H88.8594L88.9531 80.3789ZM93.2246 82.2773V82.4004C93.2246 82.8613 93.1699 83.2891 93.0605 83.6836C92.9512 84.0742 92.791 84.4141 92.5801 84.7031C92.373 84.9922 92.1172 85.2168 91.8125 85.377C91.5078 85.5371 91.1582 85.6172 90.7637 85.6172C90.3613 85.6172 90.0059 85.5508 89.6973 85.418C89.3887 85.2852 89.127 85.0918 88.9121 84.8379C88.6973 84.584 88.5254 84.2793 88.3965 83.9238C88.2715 83.5684 88.1855 83.168 88.1387 82.7227V82.0664C88.1855 81.5977 88.2734 81.1777 88.4023 80.8066C88.5312 80.4355 88.7012 80.1191 88.9121 79.8574C89.127 79.5918 89.3867 79.3906 89.6914 79.2539C89.9961 79.1133 90.3477 79.043 90.7461 79.043C91.1445 79.043 91.498 79.1211 91.8066 79.2773C92.1152 79.4297 92.375 79.6484 92.5859 79.9336C92.7969 80.2188 92.9551 80.5605 93.0605 80.959C93.1699 81.3535 93.2246 81.793 93.2246 82.2773ZM92.1348 82.4004V82.2773C92.1348 81.9609 92.1016 81.6641 92.0352 81.3867C91.9688 81.1055 91.8652 80.8594 91.7246 80.6484C91.5879 80.4336 91.4121 80.2656 91.1973 80.1445C90.9824 80.0195 90.7266 79.957 90.4297 79.957C90.1562 79.957 89.918 80.0039 89.7148 80.0977C89.5156 80.1914 89.3457 80.3184 89.2051 80.4785C89.0645 80.6348 88.9492 80.8145 88.8594 81.0176C88.7734 81.2168 88.709 81.4238 88.666 81.6387V83.1562C88.7441 83.4297 88.8535 83.6875 88.9941 83.9297C89.1348 84.168 89.3223 84.3613 89.5566 84.5098C89.791 84.6543 90.0859 84.7266 90.4414 84.7266C90.7344 84.7266 90.9863 84.666 91.1973 84.5449C91.4121 84.4199 91.5879 84.25 91.7246 84.0352C91.8652 83.8203 91.9688 83.5742 92.0352 83.2969C92.1016 83.0156 92.1348 82.7168 92.1348 82.4004ZM95.6914 80.1562V85.5H94.6074V79.1602H95.6621L95.6914 80.1562ZM97.6719 79.125L97.666 80.1328C97.5762 80.1133 97.4902 80.1016 97.4082 80.0977C97.3301 80.0898 97.2402 80.0859 97.1387 80.0859C96.8887 80.0859 96.668 80.125 96.4766 80.2031C96.2852 80.2812 96.123 80.3906 95.9902 80.5312C95.8574 80.6719 95.752 80.8398 95.6738 81.0352C95.5996 81.2266 95.5508 81.4375 95.5273 81.668L95.2227 81.8438C95.2227 81.4609 95.2598 81.1016 95.334 80.7656C95.4121 80.4297 95.5312 80.1328 95.6914 79.875C95.8516 79.6133 96.0547 79.4102 96.3008 79.2656C96.5508 79.1172 96.8477 79.043 97.1914 79.043C97.2695 79.043 97.3594 79.0527 97.4609 79.0723C97.5625 79.0879 97.6328 79.1055 97.6719 79.125ZM101.188 85.6172C100.746 85.6172 100.346 85.543 99.9863 85.3945C99.6309 85.2422 99.3242 85.0293 99.0664 84.7559C98.8125 84.4824 98.6172 84.1582 98.4805 83.7832C98.3438 83.4082 98.2754 82.998 98.2754 82.5527V82.3066C98.2754 81.791 98.3516 81.332 98.5039 80.9297C98.6562 80.5234 98.8633 80.1797 99.125 79.8984C99.3867 79.6172 99.6836 79.4043 100.016 79.2598C100.348 79.1152 100.691 79.043 101.047 79.043C101.5 79.043 101.891 79.1211 102.219 79.2773C102.551 79.4336 102.822 79.6523 103.033 79.9336C103.244 80.2109 103.4 80.5391 103.502 80.918C103.604 81.293 103.654 81.7031 103.654 82.1484V82.6348H98.9199V81.75H102.57V81.668C102.555 81.3867 102.496 81.1133 102.395 80.8477C102.297 80.582 102.141 80.3633 101.926 80.1914C101.711 80.0195 101.418 79.9336 101.047 79.9336C100.801 79.9336 100.574 79.9863 100.367 80.0918C100.16 80.1934 99.9824 80.3457 99.834 80.5488C99.6855 80.752 99.5703 81 99.4883 81.293C99.4062 81.5859 99.3652 81.9238 99.3652 82.3066V82.5527C99.3652 82.8535 99.4062 83.1367 99.4883 83.4023C99.5742 83.6641 99.6973 83.8945 99.8574 84.0938C100.021 84.293 100.219 84.4492 100.449 84.5625C100.684 84.6758 100.949 84.7324 101.246 84.7324C101.629 84.7324 101.953 84.6543 102.219 84.498C102.484 84.3418 102.717 84.1328 102.916 83.8711L103.572 84.3926C103.436 84.5996 103.262 84.7969 103.051 84.9844C102.84 85.1719 102.58 85.3242 102.271 85.4414C101.967 85.5586 101.605 85.6172 101.188 85.6172ZM108.916 84.2695V76.5H110.006V85.5H109.01L108.916 84.2695ZM104.65 82.4004V82.2773C104.65 81.793 104.709 81.3535 104.826 80.959C104.947 80.5605 105.117 80.2188 105.336 79.9336C105.559 79.6484 105.822 79.4297 106.127 79.2773C106.436 79.1211 106.779 79.043 107.158 79.043C107.557 79.043 107.904 79.1133 108.201 79.2539C108.502 79.3906 108.756 79.5918 108.963 79.8574C109.174 80.1191 109.34 80.4355 109.461 80.8066C109.582 81.1777 109.666 81.5977 109.713 82.0664V82.6055C109.67 83.0703 109.586 83.4883 109.461 83.8594C109.34 84.2305 109.174 84.5469 108.963 84.8086C108.756 85.0703 108.502 85.2715 108.201 85.4121C107.9 85.5488 107.549 85.6172 107.146 85.6172C106.775 85.6172 106.436 85.5371 106.127 85.377C105.822 85.2168 105.559 84.9922 105.336 84.7031C105.117 84.4141 104.947 84.0742 104.826 83.6836C104.709 83.2891 104.65 82.8613 104.65 82.4004ZM105.74 82.2773V82.4004C105.74 82.7168 105.771 83.0137 105.834 83.291C105.9 83.5684 106.002 83.8125 106.139 84.0234C106.275 84.2344 106.449 84.4004 106.66 84.5215C106.871 84.6387 107.123 84.6973 107.416 84.6973C107.775 84.6973 108.07 84.6211 108.301 84.4688C108.535 84.3164 108.723 84.1152 108.863 83.8652C109.004 83.6152 109.113 83.3438 109.191 83.0508V81.6387C109.145 81.4238 109.076 81.2168 108.986 81.0176C108.9 80.8145 108.787 80.6348 108.646 80.4785C108.51 80.3184 108.34 80.1914 108.137 80.0977C107.938 80.0039 107.701 79.957 107.428 79.957C107.131 79.957 106.875 80.0195 106.66 80.1445C106.449 80.2656 106.275 80.4336 106.139 80.6484C106.002 80.8594 105.9 81.1055 105.834 81.3867C105.771 81.6641 105.74 81.9609 105.74 82.2773ZM112.871 79.1602V85.5H111.781V79.1602H112.871ZM111.699 77.4785C111.699 77.3027 111.752 77.1543 111.857 77.0332C111.967 76.9121 112.127 76.8516 112.338 76.8516C112.545 76.8516 112.703 76.9121 112.812 77.0332C112.926 77.1543 112.982 77.3027 112.982 77.4785C112.982 77.6465 112.926 77.791 112.812 77.9121C112.703 78.0293 112.545 78.0879 112.338 78.0879C112.127 78.0879 111.967 78.0293 111.857 77.9121C111.752 77.791 111.699 77.6465 111.699 77.4785ZM117.148 84.7266C117.406 84.7266 117.645 84.6738 117.863 84.5684C118.082 84.4629 118.262 84.3184 118.402 84.1348C118.543 83.9473 118.623 83.7344 118.643 83.4961H119.674C119.654 83.8711 119.527 84.2207 119.293 84.5449C119.062 84.8652 118.76 85.125 118.385 85.3242C118.01 85.5195 117.598 85.6172 117.148 85.6172C116.672 85.6172 116.256 85.5332 115.9 85.3652C115.549 85.1973 115.256 84.9668 115.021 84.6738C114.791 84.3809 114.617 84.0449 114.5 83.666C114.387 83.2832 114.33 82.8789 114.33 82.4531V82.207C114.33 81.7812 114.387 81.3789 114.5 81C114.617 80.6172 114.791 80.2793 115.021 79.9863C115.256 79.6934 115.549 79.4629 115.9 79.2949C116.256 79.127 116.672 79.043 117.148 79.043C117.645 79.043 118.078 79.1445 118.449 79.3477C118.82 79.5469 119.111 79.8203 119.322 80.168C119.537 80.5117 119.654 80.9023 119.674 81.3398H118.643C118.623 81.0781 118.549 80.8418 118.42 80.6309C118.295 80.4199 118.123 80.252 117.904 80.127C117.689 79.998 117.438 79.9336 117.148 79.9336C116.816 79.9336 116.537 80 116.311 80.1328C116.088 80.2617 115.91 80.4375 115.777 80.6602C115.648 80.8789 115.555 81.123 115.496 81.3926C115.441 81.6582 115.414 81.9297 115.414 82.207V82.4531C115.414 82.7305 115.441 83.0039 115.496 83.2734C115.551 83.543 115.643 83.7871 115.771 84.0059C115.904 84.2246 116.082 84.4004 116.305 84.5332C116.531 84.6621 116.812 84.7266 117.148 84.7266ZM123.547 79.1602V79.9922H120.119V79.1602H123.547ZM121.279 77.6191H122.363V83.9297C122.363 84.1445 122.396 84.3066 122.463 84.416C122.529 84.5254 122.615 84.5977 122.721 84.6328C122.826 84.668 122.939 84.6855 123.061 84.6855C123.15 84.6855 123.244 84.6777 123.342 84.6621C123.443 84.6426 123.52 84.627 123.57 84.6152L123.576 85.5C123.49 85.5273 123.377 85.5527 123.236 85.5762C123.1 85.6035 122.934 85.6172 122.738 85.6172C122.473 85.6172 122.229 85.5645 122.006 85.459C121.783 85.3535 121.605 85.1777 121.473 84.9316C121.344 84.6816 121.279 84.3457 121.279 83.9238V77.6191ZM129.4 84.375L131.029 79.1602H131.744L131.604 80.1973L129.945 85.5H129.248L129.4 84.375ZM128.305 79.1602L129.693 84.4336L129.793 85.5H129.061L127.221 79.1602H128.305ZM133.303 84.3926L134.627 79.1602H135.705L133.865 85.5H133.139L133.303 84.3926ZM131.902 79.1602L133.496 84.2871L133.678 85.5H132.986L131.281 80.1855L131.141 79.1602H131.902ZM137.902 76.5V85.5H136.818V76.5H137.902ZM137.645 82.0898L137.193 82.0723C137.197 81.6387 137.262 81.2383 137.387 80.8711C137.512 80.5 137.688 80.1777 137.914 79.9043C138.141 79.6309 138.41 79.4199 138.723 79.2715C139.039 79.1191 139.389 79.043 139.771 79.043C140.084 79.043 140.365 79.0859 140.615 79.1719C140.865 79.2539 141.078 79.3867 141.254 79.5703C141.434 79.7539 141.57 79.9922 141.664 80.2852C141.758 80.5742 141.805 80.9277 141.805 81.3457V85.5H140.715V81.334C140.715 81.002 140.666 80.7363 140.568 80.5371C140.471 80.334 140.328 80.1875 140.141 80.0977C139.953 80.0039 139.723 79.957 139.449 79.957C139.18 79.957 138.934 80.0137 138.711 80.127C138.492 80.2402 138.303 80.3965 138.143 80.5957C137.986 80.7949 137.863 81.0234 137.773 81.2812C137.688 81.5352 137.645 81.8047 137.645 82.0898ZM144.605 79.1602V85.5H143.516V79.1602H144.605ZM143.434 77.4785C143.434 77.3027 143.486 77.1543 143.592 77.0332C143.701 76.9121 143.861 76.8516 144.072 76.8516C144.279 76.8516 144.438 76.9121 144.547 77.0332C144.66 77.1543 144.717 77.3027 144.717 77.4785C144.717 77.6465 144.66 77.791 144.547 77.9121C144.438 78.0293 144.279 78.0879 144.072 78.0879C143.861 78.0879 143.701 78.0293 143.592 77.9121C143.486 77.791 143.434 77.6465 143.434 77.4785ZM148.883 84.7266C149.141 84.7266 149.379 84.6738 149.598 84.5684C149.816 84.4629 149.996 84.3184 150.137 84.1348C150.277 83.9473 150.357 83.7344 150.377 83.4961H151.408C151.389 83.8711 151.262 84.2207 151.027 84.5449C150.797 84.8652 150.494 85.125 150.119 85.3242C149.744 85.5195 149.332 85.6172 148.883 85.6172C148.406 85.6172 147.99 85.5332 147.635 85.3652C147.283 85.1973 146.99 84.9668 146.756 84.6738C146.525 84.3809 146.352 84.0449 146.234 83.666C146.121 83.2832 146.064 82.8789 146.064 82.4531V82.207C146.064 81.7812 146.121 81.3789 146.234 81C146.352 80.6172 146.525 80.2793 146.756 79.9863C146.99 79.6934 147.283 79.4629 147.635 79.2949C147.99 79.127 148.406 79.043 148.883 79.043C149.379 79.043 149.812 79.1445 150.184 79.3477C150.555 79.5469 150.846 79.8203 151.057 80.168C151.271 80.5117 151.389 80.9023 151.408 81.3398H150.377C150.357 81.0781 150.283 80.8418 150.154 80.6309C150.029 80.4199 149.857 80.252 149.639 80.127C149.424 79.998 149.172 79.9336 148.883 79.9336C148.551 79.9336 148.271 80 148.045 80.1328C147.822 80.2617 147.645 80.4375 147.512 80.6602C147.383 80.8789 147.289 81.123 147.23 81.3926C147.176 81.6582 147.148 81.9297 147.148 82.207V82.4531C147.148 82.7305 147.176 83.0039 147.23 83.2734C147.285 83.543 147.377 83.7871 147.506 84.0059C147.639 84.2246 147.816 84.4004 148.039 84.5332C148.266 84.6621 148.547 84.7266 148.883 84.7266ZM153.711 76.5V85.5H152.627V76.5H153.711ZM153.453 82.0898L153.002 82.0723C153.006 81.6387 153.07 81.2383 153.195 80.8711C153.32 80.5 153.496 80.1777 153.723 79.9043C153.949 79.6309 154.219 79.4199 154.531 79.2715C154.848 79.1191 155.197 79.043 155.58 79.043C155.893 79.043 156.174 79.0859 156.424 79.1719C156.674 79.2539 156.887 79.3867 157.062 79.5703C157.242 79.7539 157.379 79.9922 157.473 80.2852C157.566 80.5742 157.613 80.9277 157.613 81.3457V85.5H156.523V81.334C156.523 81.002 156.475 80.7363 156.377 80.5371C156.279 80.334 156.137 80.1875 155.949 80.0977C155.762 80.0039 155.531 79.957 155.258 79.957C154.988 79.957 154.742 80.0137 154.52 80.127C154.301 80.2402 154.111 80.3965 153.951 80.5957C153.795 80.7949 153.672 81.0234 153.582 81.2812C153.496 81.5352 153.453 81.8047 153.453 82.0898ZM165.904 83.8184C165.904 83.6621 165.869 83.5176 165.799 83.3848C165.732 83.248 165.594 83.125 165.383 83.0156C165.176 82.9023 164.863 82.8047 164.445 82.7227C164.094 82.6484 163.775 82.5605 163.49 82.459C163.209 82.3574 162.969 82.2344 162.77 82.0898C162.574 81.9453 162.424 81.7754 162.318 81.5801C162.213 81.3848 162.16 81.1562 162.16 80.8945C162.16 80.6445 162.215 80.4082 162.324 80.1855C162.438 79.9629 162.596 79.7656 162.799 79.5938C163.006 79.4219 163.254 79.2871 163.543 79.1895C163.832 79.0918 164.154 79.043 164.51 79.043C165.018 79.043 165.451 79.1328 165.811 79.3125C166.17 79.4922 166.445 79.7324 166.637 80.0332C166.828 80.3301 166.924 80.6602 166.924 81.0234H165.84C165.84 80.8477 165.787 80.6777 165.682 80.5137C165.58 80.3457 165.43 80.207 165.23 80.0977C165.035 79.9883 164.795 79.9336 164.51 79.9336C164.209 79.9336 163.965 79.9805 163.777 80.0742C163.594 80.1641 163.459 80.2793 163.373 80.4199C163.291 80.5605 163.25 80.709 163.25 80.8652C163.25 80.9824 163.27 81.0879 163.309 81.1816C163.352 81.2715 163.426 81.3555 163.531 81.4336C163.637 81.5078 163.785 81.5781 163.977 81.6445C164.168 81.7109 164.412 81.7773 164.709 81.8438C165.229 81.9609 165.656 82.1016 165.992 82.2656C166.328 82.4297 166.578 82.6309 166.742 82.8691C166.906 83.1074 166.988 83.3965 166.988 83.7363C166.988 84.0137 166.93 84.2676 166.812 84.498C166.699 84.7285 166.533 84.9277 166.314 85.0957C166.1 85.2598 165.842 85.3887 165.541 85.4824C165.244 85.5723 164.91 85.6172 164.539 85.6172C163.98 85.6172 163.508 85.5176 163.121 85.3184C162.734 85.1191 162.441 84.8613 162.242 84.5449C162.043 84.2285 161.943 83.8945 161.943 83.543H163.033C163.049 83.8398 163.135 84.0762 163.291 84.252C163.447 84.4238 163.639 84.5469 163.865 84.6211C164.092 84.6914 164.316 84.7266 164.539 84.7266C164.836 84.7266 165.084 84.6875 165.283 84.6094C165.486 84.5312 165.641 84.4238 165.746 84.2871C165.852 84.1504 165.904 83.9941 165.904 83.8184ZM171.066 79.1602V79.9922H167.639V79.1602H171.066ZM168.799 77.6191H169.883V83.9297C169.883 84.1445 169.916 84.3066 169.982 84.416C170.049 84.5254 170.135 84.5977 170.24 84.6328C170.346 84.668 170.459 84.6855 170.58 84.6855C170.67 84.6855 170.764 84.6777 170.861 84.6621C170.963 84.6426 171.039 84.627 171.09 84.6152L171.096 85.5C171.01 85.5273 170.896 85.5527 170.756 85.5762C170.619 85.6035 170.453 85.6172 170.258 85.6172C169.992 85.6172 169.748 85.5645 169.525 85.459C169.303 85.3535 169.125 85.1777 168.992 84.9316C168.863 84.6816 168.799 84.3457 168.799 83.9238V77.6191ZM171.934 82.4004V82.2656C171.934 81.8086 172 81.3848 172.133 80.9941C172.266 80.5996 172.457 80.2578 172.707 79.9688C172.957 79.6758 173.26 79.4492 173.615 79.2891C173.971 79.125 174.369 79.043 174.811 79.043C175.256 79.043 175.656 79.125 176.012 79.2891C176.371 79.4492 176.676 79.6758 176.926 79.9688C177.18 80.2578 177.373 80.5996 177.506 80.9941C177.639 81.3848 177.705 81.8086 177.705 82.2656V82.4004C177.705 82.8574 177.639 83.2812 177.506 83.6719C177.373 84.0625 177.18 84.4043 176.926 84.6973C176.676 84.9863 176.373 85.2129 176.018 85.377C175.666 85.5371 175.268 85.6172 174.822 85.6172C174.377 85.6172 173.977 85.5371 173.621 85.377C173.266 85.2129 172.961 84.9863 172.707 84.6973C172.457 84.4043 172.266 84.0625 172.133 83.6719C172 83.2812 171.934 82.8574 171.934 82.4004ZM173.018 82.2656V82.4004C173.018 82.7168 173.055 83.0156 173.129 83.2969C173.203 83.5742 173.314 83.8203 173.463 84.0352C173.615 84.25 173.805 84.4199 174.031 84.5449C174.258 84.666 174.521 84.7266 174.822 84.7266C175.119 84.7266 175.379 84.666 175.602 84.5449C175.828 84.4199 176.016 84.25 176.164 84.0352C176.312 83.8203 176.424 83.5742 176.498 83.2969C176.576 83.0156 176.615 82.7168 176.615 82.4004V82.2656C176.615 81.9531 176.576 81.6582 176.498 81.3809C176.424 81.0996 176.311 80.8516 176.158 80.6367C176.01 80.418 175.822 80.2461 175.596 80.1211C175.373 79.9961 175.111 79.9336 174.811 79.9336C174.514 79.9336 174.252 79.9961 174.025 80.1211C173.803 80.2461 173.615 80.418 173.463 80.6367C173.314 80.8516 173.203 81.0996 173.129 81.3809C173.055 81.6582 173.018 81.9531 173.018 82.2656ZM181.602 84.7266C181.859 84.7266 182.098 84.6738 182.316 84.5684C182.535 84.4629 182.715 84.3184 182.855 84.1348C182.996 83.9473 183.076 83.7344 183.096 83.4961H184.127C184.107 83.8711 183.98 84.2207 183.746 84.5449C183.516 84.8652 183.213 85.125 182.838 85.3242C182.463 85.5195 182.051 85.6172 181.602 85.6172C181.125 85.6172 180.709 85.5332 180.354 85.3652C180.002 85.1973 179.709 84.9668 179.475 84.6738C179.244 84.3809 179.07 84.0449 178.953 83.666C178.84 83.2832 178.783 82.8789 178.783 82.4531V82.207C178.783 81.7812 178.84 81.3789 178.953 81C179.07 80.6172 179.244 80.2793 179.475 79.9863C179.709 79.6934 180.002 79.4629 180.354 79.2949C180.709 79.127 181.125 79.043 181.602 79.043C182.098 79.043 182.531 79.1445 182.902 79.3477C183.273 79.5469 183.564 79.8203 183.775 80.168C183.99 80.5117 184.107 80.9023 184.127 81.3398H183.096C183.076 81.0781 183.002 80.8418 182.873 80.6309C182.748 80.4199 182.576 80.252 182.357 80.127C182.143 79.998 181.891 79.9336 181.602 79.9336C181.27 79.9336 180.99 80 180.764 80.1328C180.541 80.2617 180.363 80.4375 180.23 80.6602C180.102 80.8789 180.008 81.123 179.949 81.3926C179.895 81.6582 179.867 81.9297 179.867 82.207V82.4531C179.867 82.7305 179.895 83.0039 179.949 83.2734C180.004 83.543 180.096 83.7871 180.225 84.0059C180.357 84.2246 180.535 84.4004 180.758 84.5332C180.984 84.6621 181.266 84.7266 181.602 84.7266ZM186.436 76.5V85.5H185.346V76.5H186.436ZM190.309 79.1602L187.543 82.1191L185.996 83.7246L185.908 82.5703L187.016 81.2461L188.984 79.1602H190.309ZM189.318 85.5L187.057 82.4766L187.619 81.5098L190.596 85.5H189.318ZM195.119 83.8184C195.119 83.6621 195.084 83.5176 195.014 83.3848C194.947 83.248 194.809 83.125 194.598 83.0156C194.391 82.9023 194.078 82.8047 193.66 82.7227C193.309 82.6484 192.99 82.5605 192.705 82.459C192.424 82.3574 192.184 82.2344 191.984 82.0898C191.789 81.9453 191.639 81.7754 191.533 81.5801C191.428 81.3848 191.375 81.1562 191.375 80.8945C191.375 80.6445 191.43 80.4082 191.539 80.1855C191.652 79.9629 191.811 79.7656 192.014 79.5938C192.221 79.4219 192.469 79.2871 192.758 79.1895C193.047 79.0918 193.369 79.043 193.725 79.043C194.232 79.043 194.666 79.1328 195.025 79.3125C195.385 79.4922 195.66 79.7324 195.852 80.0332C196.043 80.3301 196.139 80.6602 196.139 81.0234H195.055C195.055 80.8477 195.002 80.6777 194.896 80.5137C194.795 80.3457 194.645 80.207 194.445 80.0977C194.25 79.9883 194.01 79.9336 193.725 79.9336C193.424 79.9336 193.18 79.9805 192.992 80.0742C192.809 80.1641 192.674 80.2793 192.588 80.4199C192.506 80.5605 192.465 80.709 192.465 80.8652C192.465 80.9824 192.484 81.0879 192.523 81.1816C192.566 81.2715 192.641 81.3555 192.746 81.4336C192.852 81.5078 193 81.5781 193.191 81.6445C193.383 81.7109 193.627 81.7773 193.924 81.8438C194.443 81.9609 194.871 82.1016 195.207 82.2656C195.543 82.4297 195.793 82.6309 195.957 82.8691C196.121 83.1074 196.203 83.3965 196.203 83.7363C196.203 84.0137 196.145 84.2676 196.027 84.498C195.914 84.7285 195.748 84.9277 195.529 85.0957C195.314 85.2598 195.057 85.3887 194.756 85.4824C194.459 85.5723 194.125 85.6172 193.754 85.6172C193.195 85.6172 192.723 85.5176 192.336 85.3184C191.949 85.1191 191.656 84.8613 191.457 84.5449C191.258 84.2285 191.158 83.8945 191.158 83.543H192.248C192.264 83.8398 192.35 84.0762 192.506 84.252C192.662 84.4238 192.854 84.5469 193.08 84.6211C193.307 84.6914 193.531 84.7266 193.754 84.7266C194.051 84.7266 194.299 84.6875 194.498 84.6094C194.701 84.5312 194.855 84.4238 194.961 84.2871C195.066 84.1504 195.119 83.9941 195.119 83.8184ZM204.342 84.416V81.1523C204.342 80.9023 204.291 80.6855 204.189 80.502C204.092 80.3145 203.943 80.1699 203.744 80.0684C203.545 79.9668 203.299 79.916 203.006 79.916C202.732 79.916 202.492 79.9629 202.285 80.0566C202.082 80.1504 201.922 80.2734 201.805 80.4258C201.691 80.5781 201.635 80.7422 201.635 80.918H200.551C200.551 80.6914 200.609 80.4668 200.727 80.2441C200.844 80.0215 201.012 79.8203 201.23 79.6406C201.453 79.457 201.719 79.3125 202.027 79.207C202.34 79.0977 202.688 79.043 203.07 79.043C203.531 79.043 203.938 79.1211 204.289 79.2773C204.645 79.4336 204.922 79.6699 205.121 79.9863C205.324 80.2988 205.426 80.6914 205.426 81.1641V84.1172C205.426 84.3281 205.443 84.5527 205.479 84.791C205.518 85.0293 205.574 85.2344 205.648 85.4062V85.5H204.518C204.463 85.375 204.42 85.209 204.389 85.002C204.357 84.791 204.342 84.5957 204.342 84.416ZM204.529 81.6562L204.541 82.418H203.445C203.137 82.418 202.861 82.4434 202.619 82.4941C202.377 82.541 202.174 82.6133 202.01 82.7109C201.846 82.8086 201.721 82.9316 201.635 83.0801C201.549 83.2246 201.506 83.3945 201.506 83.5898C201.506 83.7891 201.551 83.9707 201.641 84.1348C201.73 84.2988 201.865 84.4297 202.045 84.5273C202.229 84.6211 202.453 84.668 202.719 84.668C203.051 84.668 203.344 84.5977 203.598 84.457C203.852 84.3164 204.053 84.1445 204.201 83.9414C204.354 83.7383 204.436 83.541 204.447 83.3496L204.91 83.8711C204.883 84.0352 204.809 84.2168 204.688 84.416C204.566 84.6152 204.404 84.8066 204.201 84.9902C204.002 85.1699 203.764 85.3203 203.486 85.4414C203.213 85.5586 202.904 85.6172 202.561 85.6172C202.131 85.6172 201.754 85.5332 201.43 85.3652C201.109 85.1973 200.859 84.9727 200.68 84.6914C200.504 84.4062 200.416 84.0879 200.416 83.7363C200.416 83.3965 200.482 83.0977 200.615 82.8398C200.748 82.5781 200.939 82.3613 201.189 82.1895C201.439 82.0137 201.74 81.8809 202.092 81.791C202.443 81.7012 202.836 81.6562 203.27 81.6562H204.529ZM208.215 80.1562V85.5H207.131V79.1602H208.186L208.215 80.1562ZM210.195 79.125L210.189 80.1328C210.1 80.1133 210.014 80.1016 209.932 80.0977C209.854 80.0898 209.764 80.0859 209.662 80.0859C209.412 80.0859 209.191 80.125 209 80.2031C208.809 80.2812 208.646 80.3906 208.514 80.5312C208.381 80.6719 208.275 80.8398 208.197 81.0352C208.123 81.2266 208.074 81.4375 208.051 81.668L207.746 81.8438C207.746 81.4609 207.783 81.1016 207.857 80.7656C207.936 80.4297 208.055 80.1328 208.215 79.875C208.375 79.6133 208.578 79.4102 208.824 79.2656C209.074 79.1172 209.371 79.043 209.715 79.043C209.793 79.043 209.883 79.0527 209.984 79.0723C210.086 79.0879 210.156 79.1055 210.195 79.125ZM213.711 85.6172C213.27 85.6172 212.869 85.543 212.51 85.3945C212.154 85.2422 211.848 85.0293 211.59 84.7559C211.336 84.4824 211.141 84.1582 211.004 83.7832C210.867 83.4082 210.799 82.998 210.799 82.5527V82.3066C210.799 81.791 210.875 81.332 211.027 80.9297C211.18 80.5234 211.387 80.1797 211.648 79.8984C211.91 79.6172 212.207 79.4043 212.539 79.2598C212.871 79.1152 213.215 79.043 213.57 79.043C214.023 79.043 214.414 79.1211 214.742 79.2773C215.074 79.4336 215.346 79.6523 215.557 79.9336C215.768 80.2109 215.924 80.5391 216.025 80.918C216.127 81.293 216.178 81.7031 216.178 82.1484V82.6348H211.443V81.75H215.094V81.668C215.078 81.3867 215.02 81.1133 214.918 80.8477C214.82 80.582 214.664 80.3633 214.449 80.1914C214.234 80.0195 213.941 79.9336 213.57 79.9336C213.324 79.9336 213.098 79.9863 212.891 80.0918C212.684 80.1934 212.506 80.3457 212.357 80.5488C212.209 80.752 212.094 81 212.012 81.293C211.93 81.5859 211.889 81.9238 211.889 82.3066V82.5527C211.889 82.8535 211.93 83.1367 212.012 83.4023C212.098 83.6641 212.221 83.8945 212.381 84.0938C212.545 84.293 212.742 84.4492 212.973 84.5625C213.207 84.6758 213.473 84.7324 213.77 84.7324C214.152 84.7324 214.477 84.6543 214.742 84.498C215.008 84.3418 215.24 84.1328 215.439 83.8711L216.096 84.3926C215.959 84.5996 215.785 84.7969 215.574 84.9844C215.363 85.1719 215.104 85.3242 214.795 85.4414C214.49 85.5586 214.129 85.6172 213.711 85.6172ZM222.025 84.375L223.654 79.1602H224.369L224.229 80.1973L222.57 85.5H221.873L222.025 84.375ZM220.93 79.1602L222.318 84.4336L222.418 85.5H221.686L219.846 79.1602H220.93ZM225.928 84.3926L227.252 79.1602H228.33L226.49 85.5H225.764L225.928 84.3926ZM224.527 79.1602L226.121 84.2871L226.303 85.5H225.611L223.906 80.1855L223.766 79.1602H224.527ZM229.156 82.4004V82.2656C229.156 81.8086 229.223 81.3848 229.355 80.9941C229.488 80.5996 229.68 80.2578 229.93 79.9688C230.18 79.6758 230.482 79.4492 230.838 79.2891C231.193 79.125 231.592 79.043 232.033 79.043C232.479 79.043 232.879 79.125 233.234 79.2891C233.594 79.4492 233.898 79.6758 234.148 79.9688C234.402 80.2578 234.596 80.5996 234.729 80.9941C234.861 81.3848 234.928 81.8086 234.928 82.2656V82.4004C234.928 82.8574 234.861 83.2812 234.729 83.6719C234.596 84.0625 234.402 84.4043 234.148 84.6973C233.898 84.9863 233.596 85.2129 233.24 85.377C232.889 85.5371 232.49 85.6172 232.045 85.6172C231.6 85.6172 231.199 85.5371 230.844 85.377C230.488 85.2129 230.184 84.9863 229.93 84.6973C229.68 84.4043 229.488 84.0625 229.355 83.6719C229.223 83.2812 229.156 82.8574 229.156 82.4004ZM230.24 82.2656V82.4004C230.24 82.7168 230.277 83.0156 230.352 83.2969C230.426 83.5742 230.537 83.8203 230.686 84.0352C230.838 84.25 231.027 84.4199 231.254 84.5449C231.48 84.666 231.744 84.7266 232.045 84.7266C232.342 84.7266 232.602 84.666 232.824 84.5449C233.051 84.4199 233.238 84.25 233.387 84.0352C233.535 83.8203 233.646 83.5742 233.721 83.2969C233.799 83.0156 233.838 82.7168 233.838 82.4004V82.2656C233.838 81.9531 233.799 81.6582 233.721 81.3809C233.646 81.0996 233.533 80.8516 233.381 80.6367C233.232 80.418 233.045 80.2461 232.818 80.1211C232.596 79.9961 232.334 79.9336 232.033 79.9336C231.736 79.9336 231.475 79.9961 231.248 80.1211C231.025 80.2461 230.838 80.418 230.686 80.6367C230.537 80.8516 230.426 81.0996 230.352 81.3809C230.277 81.6582 230.24 81.9531 230.24 82.2656ZM237.371 80.1562V85.5H236.287V79.1602H237.342L237.371 80.1562ZM239.352 79.125L239.346 80.1328C239.256 80.1133 239.17 80.1016 239.088 80.0977C239.01 80.0898 238.92 80.0859 238.818 80.0859C238.568 80.0859 238.348 80.125 238.156 80.2031C237.965 80.2812 237.803 80.3906 237.67 80.5312C237.537 80.6719 237.432 80.8398 237.354 81.0352C237.279 81.2266 237.23 81.4375 237.207 81.668L236.902 81.8438C236.902 81.4609 236.939 81.1016 237.014 80.7656C237.092 80.4297 237.211 80.1328 237.371 79.875C237.531 79.6133 237.734 79.4102 237.98 79.2656C238.23 79.1172 238.527 79.043 238.871 79.043C238.949 79.043 239.039 79.0527 239.141 79.0723C239.242 79.0879 239.312 79.1055 239.352 79.125ZM243.301 79.1602V79.9922H239.873V79.1602H243.301ZM241.033 77.6191H242.117V83.9297C242.117 84.1445 242.15 84.3066 242.217 84.416C242.283 84.5254 242.369 84.5977 242.475 84.6328C242.58 84.668 242.693 84.6855 242.814 84.6855C242.904 84.6855 242.998 84.6777 243.096 84.6621C243.197 84.6426 243.273 84.627 243.324 84.6152L243.33 85.5C243.244 85.5273 243.131 85.5527 242.99 85.5762C242.854 85.6035 242.688 85.6172 242.492 85.6172C242.227 85.6172 241.982 85.5645 241.76 85.459C241.537 85.3535 241.359 85.1777 241.227 84.9316C241.098 84.6816 241.033 84.3457 241.033 83.9238V77.6191ZM245.656 76.5V85.5H244.572V76.5H245.656ZM245.398 82.0898L244.947 82.0723C244.951 81.6387 245.016 81.2383 245.141 80.8711C245.266 80.5 245.441 80.1777 245.668 79.9043C245.895 79.6309 246.164 79.4199 246.477 79.2715C246.793 79.1191 247.143 79.043 247.525 79.043C247.838 79.043 248.119 79.0859 248.369 79.1719C248.619 79.2539 248.832 79.3867 249.008 79.5703C249.188 79.7539 249.324 79.9922 249.418 80.2852C249.512 80.5742 249.559 80.9277 249.559 81.3457V85.5H248.469V81.334C248.469 81.002 248.42 80.7363 248.322 80.5371C248.225 80.334 248.082 80.1875 247.895 80.0977C247.707 80.0039 247.477 79.957 247.203 79.957C246.934 79.957 246.688 80.0137 246.465 80.127C246.246 80.2402 246.057 80.3965 245.896 80.5957C245.74 80.7949 245.617 81.0234 245.527 81.2812C245.441 81.5352 245.398 81.8047 245.398 82.0898ZM255.939 84.8438L257.703 79.1602H258.863L256.32 86.4785C256.262 86.6348 256.184 86.8027 256.086 86.9824C255.992 87.166 255.871 87.3398 255.723 87.5039C255.574 87.668 255.395 87.8008 255.184 87.9023C254.977 88.0078 254.729 88.0605 254.439 88.0605C254.354 88.0605 254.244 88.0488 254.111 88.0254C253.979 88.002 253.885 87.9824 253.83 87.9668L253.824 87.0879C253.855 87.0918 253.904 87.0957 253.971 87.0996C254.041 87.1074 254.09 87.1113 254.117 87.1113C254.363 87.1113 254.572 87.0781 254.744 87.0117C254.916 86.9492 255.061 86.8418 255.178 86.6895C255.299 86.541 255.402 86.3359 255.488 86.0742L255.939 84.8438ZM254.645 79.1602L256.291 84.082L256.572 85.2246L255.793 85.623L253.461 79.1602H254.645ZM259.461 82.4004V82.2656C259.461 81.8086 259.527 81.3848 259.66 80.9941C259.793 80.5996 259.984 80.2578 260.234 79.9688C260.484 79.6758 260.787 79.4492 261.143 79.2891C261.498 79.125 261.896 79.043 262.338 79.043C262.783 79.043 263.184 79.125 263.539 79.2891C263.898 79.4492 264.203 79.6758 264.453 79.9688C264.707 80.2578 264.9 80.5996 265.033 80.9941C265.166 81.3848 265.232 81.8086 265.232 82.2656V82.4004C265.232 82.8574 265.166 83.2812 265.033 83.6719C264.9 84.0625 264.707 84.4043 264.453 84.6973C264.203 84.9863 263.9 85.2129 263.545 85.377C263.193 85.5371 262.795 85.6172 262.35 85.6172C261.904 85.6172 261.504 85.5371 261.148 85.377C260.793 85.2129 260.488 84.9863 260.234 84.6973C259.984 84.4043 259.793 84.0625 259.66 83.6719C259.527 83.2812 259.461 82.8574 259.461 82.4004ZM260.545 82.2656V82.4004C260.545 82.7168 260.582 83.0156 260.656 83.2969C260.73 83.5742 260.842 83.8203 260.99 84.0352C261.143 84.25 261.332 84.4199 261.559 84.5449C261.785 84.666 262.049 84.7266 262.35 84.7266C262.646 84.7266 262.906 84.666 263.129 84.5449C263.355 84.4199 263.543 84.25 263.691 84.0352C263.84 83.8203 263.951 83.5742 264.025 83.2969C264.104 83.0156 264.143 82.7168 264.143 82.4004V82.2656C264.143 81.9531 264.104 81.6582 264.025 81.3809C263.951 81.0996 263.838 80.8516 263.686 80.6367C263.537 80.418 263.35 80.2461 263.123 80.1211C262.9 79.9961 262.639 79.9336 262.338 79.9336C262.041 79.9336 261.779 79.9961 261.553 80.1211C261.33 80.2461 261.143 80.418 260.99 80.6367C260.842 80.8516 260.73 81.0996 260.656 81.3809C260.582 81.6582 260.545 81.9531 260.545 82.2656ZM270.471 84.0352V79.1602H271.561V85.5H270.523L270.471 84.0352ZM270.676 82.6992L271.127 82.6875C271.127 83.1094 271.082 83.5 270.992 83.8594C270.906 84.2148 270.766 84.5234 270.57 84.7852C270.375 85.0469 270.119 85.252 269.803 85.4004C269.486 85.5449 269.102 85.6172 268.648 85.6172C268.34 85.6172 268.057 85.5723 267.799 85.4824C267.545 85.3926 267.326 85.2539 267.143 85.0664C266.959 84.8789 266.816 84.6348 266.715 84.334C266.617 84.0332 266.568 83.6719 266.568 83.25V79.1602H267.652V83.2617C267.652 83.5469 267.684 83.7832 267.746 83.9707C267.812 84.1543 267.9 84.3008 268.01 84.4102C268.123 84.5156 268.248 84.5898 268.385 84.6328C268.525 84.6758 268.67 84.6973 268.818 84.6973C269.279 84.6973 269.645 84.6094 269.914 84.4336C270.184 84.2539 270.377 84.0137 270.494 83.7129C270.615 83.4082 270.676 83.0703 270.676 82.6992ZM274.297 80.1562V85.5H273.213V79.1602H274.268L274.297 80.1562ZM276.277 79.125L276.271 80.1328C276.182 80.1133 276.096 80.1016 276.014 80.0977C275.936 80.0898 275.846 80.0859 275.744 80.0859C275.494 80.0859 275.273 80.125 275.082 80.2031C274.891 80.2812 274.729 80.3906 274.596 80.5312C274.463 80.6719 274.357 80.8398 274.279 81.0352C274.205 81.2266 274.156 81.4375 274.133 81.668L273.828 81.8438C273.828 81.4609 273.865 81.1016 273.939 80.7656C274.018 80.4297 274.137 80.1328 274.297 79.875C274.457 79.6133 274.66 79.4102 274.906 79.2656C275.156 79.1172 275.453 79.043 275.797 79.043C275.875 79.043 275.965 79.0527 276.066 79.0723C276.168 79.0879 276.238 79.1055 276.277 79.125ZM281.334 80.4199V85.5H280.244V79.1602H281.275L281.334 80.4199ZM281.111 82.0898L280.607 82.0723C280.611 81.6387 280.668 81.2383 280.777 80.8711C280.887 80.5 281.049 80.1777 281.264 79.9043C281.479 79.6309 281.746 79.4199 282.066 79.2715C282.387 79.1191 282.758 79.043 283.18 79.043C283.477 79.043 283.75 79.0859 284 79.1719C284.25 79.2539 284.467 79.3848 284.65 79.5645C284.834 79.7441 284.977 79.9746 285.078 80.2559C285.18 80.5371 285.23 80.877 285.23 81.2754V85.5H284.146V81.3281C284.146 80.9961 284.09 80.7305 283.977 80.5312C283.867 80.332 283.711 80.1875 283.508 80.0977C283.305 80.0039 283.066 79.957 282.793 79.957C282.473 79.957 282.205 80.0137 281.99 80.127C281.775 80.2402 281.604 80.3965 281.475 80.5957C281.346 80.7949 281.252 81.0234 281.193 81.2812C281.139 81.5352 281.111 81.8047 281.111 82.0898ZM285.219 81.4922L284.492 81.7148C284.496 81.3672 284.553 81.0332 284.662 80.7129C284.775 80.3926 284.938 80.1074 285.148 79.8574C285.363 79.6074 285.627 79.4102 285.939 79.2656C286.252 79.1172 286.609 79.043 287.012 79.043C287.352 79.043 287.652 79.0879 287.914 79.1777C288.18 79.2676 288.402 79.4062 288.582 79.5938C288.766 79.7773 288.904 80.0137 288.998 80.3027C289.092 80.5918 289.139 80.9355 289.139 81.334V85.5H288.049V81.3223C288.049 80.9668 287.992 80.6914 287.879 80.4961C287.77 80.2969 287.613 80.1582 287.41 80.0801C287.211 79.998 286.973 79.957 286.695 79.957C286.457 79.957 286.246 79.998 286.062 80.0801C285.879 80.1621 285.725 80.2754 285.6 80.4199C285.475 80.5605 285.379 80.7227 285.312 80.9062C285.25 81.0898 285.219 81.2852 285.219 81.4922ZM290.492 82.4004V82.2656C290.492 81.8086 290.559 81.3848 290.691 80.9941C290.824 80.5996 291.016 80.2578 291.266 79.9688C291.516 79.6758 291.818 79.4492 292.174 79.2891C292.529 79.125 292.928 79.043 293.369 79.043C293.814 79.043 294.215 79.125 294.57 79.2891C294.93 79.4492 295.234 79.6758 295.484 79.9688C295.738 80.2578 295.932 80.5996 296.064 80.9941C296.197 81.3848 296.264 81.8086 296.264 82.2656V82.4004C296.264 82.8574 296.197 83.2812 296.064 83.6719C295.932 84.0625 295.738 84.4043 295.484 84.6973C295.234 84.9863 294.932 85.2129 294.576 85.377C294.225 85.5371 293.826 85.6172 293.381 85.6172C292.936 85.6172 292.535 85.5371 292.18 85.377C291.824 85.2129 291.52 84.9863 291.266 84.6973C291.016 84.4043 290.824 84.0625 290.691 83.6719C290.559 83.2812 290.492 82.8574 290.492 82.4004ZM291.576 82.2656V82.4004C291.576 82.7168 291.613 83.0156 291.688 83.2969C291.762 83.5742 291.873 83.8203 292.021 84.0352C292.174 84.25 292.363 84.4199 292.59 84.5449C292.816 84.666 293.08 84.7266 293.381 84.7266C293.678 84.7266 293.938 84.666 294.16 84.5449C294.387 84.4199 294.574 84.25 294.723 84.0352C294.871 83.8203 294.982 83.5742 295.057 83.2969C295.135 83.0156 295.174 82.7168 295.174 82.4004V82.2656C295.174 81.9531 295.135 81.6582 295.057 81.3809C294.982 81.0996 294.869 80.8516 294.717 80.6367C294.568 80.418 294.381 80.2461 294.154 80.1211C293.932 79.9961 293.67 79.9336 293.369 79.9336C293.072 79.9336 292.811 79.9961 292.584 80.1211C292.361 80.2461 292.174 80.418 292.021 80.6367C291.873 80.8516 291.762 81.0996 291.688 81.3809C291.613 81.6582 291.576 81.9531 291.576 82.2656ZM298.707 80.5137V85.5H297.623V79.1602H298.648L298.707 80.5137ZM298.449 82.0898L297.998 82.0723C298.002 81.6387 298.066 81.2383 298.191 80.8711C298.316 80.5 298.492 80.1777 298.719 79.9043C298.945 79.6309 299.215 79.4199 299.527 79.2715C299.844 79.1191 300.193 79.043 300.576 79.043C300.889 79.043 301.17 79.0859 301.42 79.1719C301.67 79.2539 301.883 79.3867 302.059 79.5703C302.238 79.7539 302.375 79.9922 302.469 80.2852C302.562 80.5742 302.609 80.9277 302.609 81.3457V85.5H301.52V81.334C301.52 81.002 301.471 80.7363 301.373 80.5371C301.275 80.334 301.133 80.1875 300.945 80.0977C300.758 80.0039 300.527 79.957 300.254 79.957C299.984 79.957 299.738 80.0137 299.516 80.127C299.297 80.2402 299.107 80.3965 298.947 80.5957C298.791 80.7949 298.668 81.0234 298.578 81.2812C298.492 81.5352 298.449 81.8047 298.449 82.0898ZM306.887 85.6172C306.445 85.6172 306.045 85.543 305.686 85.3945C305.33 85.2422 305.023 85.0293 304.766 84.7559C304.512 84.4824 304.316 84.1582 304.18 83.7832C304.043 83.4082 303.975 82.998 303.975 82.5527V82.3066C303.975 81.791 304.051 81.332 304.203 80.9297C304.355 80.5234 304.562 80.1797 304.824 79.8984C305.086 79.6172 305.383 79.4043 305.715 79.2598C306.047 79.1152 306.391 79.043 306.746 79.043C307.199 79.043 307.59 79.1211 307.918 79.2773C308.25 79.4336 308.521 79.6523 308.732 79.9336C308.943 80.2109 309.1 80.5391 309.201 80.918C309.303 81.293 309.354 81.7031 309.354 82.1484V82.6348H304.619V81.75H308.27V81.668C308.254 81.3867 308.195 81.1133 308.094 80.8477C307.996 80.582 307.84 80.3633 307.625 80.1914C307.41 80.0195 307.117 79.9336 306.746 79.9336C306.5 79.9336 306.273 79.9863 306.066 80.0918C305.859 80.1934 305.682 80.3457 305.533 80.5488C305.385 80.752 305.27 81 305.188 81.293C305.105 81.5859 305.064 81.9238 305.064 82.3066V82.5527C305.064 82.8535 305.105 83.1367 305.188 83.4023C305.273 83.6641 305.396 83.8945 305.557 84.0938C305.721 84.293 305.918 84.4492 306.148 84.5625C306.383 84.6758 306.648 84.7324 306.945 84.7324C307.328 84.7324 307.652 84.6543 307.918 84.498C308.184 84.3418 308.416 84.1328 308.615 83.8711L309.271 84.3926C309.135 84.5996 308.961 84.7969 308.75 84.9844C308.539 85.1719 308.279 85.3242 307.971 85.4414C307.666 85.5586 307.305 85.6172 306.887 85.6172ZM312.318 84.8438L314.082 79.1602H315.242L312.699 86.4785C312.641 86.6348 312.562 86.8027 312.465 86.9824C312.371 87.166 312.25 87.3398 312.102 87.5039C311.953 87.668 311.773 87.8008 311.562 87.9023C311.355 88.0078 311.107 88.0605 310.818 88.0605C310.732 88.0605 310.623 88.0488 310.49 88.0254C310.357 88.002 310.264 87.9824 310.209 87.9668L310.203 87.0879C310.234 87.0918 310.283 87.0957 310.35 87.0996C310.42 87.1074 310.469 87.1113 310.496 87.1113C310.742 87.1113 310.951 87.0781 311.123 87.0117C311.295 86.9492 311.439 86.8418 311.557 86.6895C311.678 86.541 311.781 86.3359 311.867 86.0742L312.318 84.8438ZM311.023 79.1602L312.67 84.082L312.951 85.2246L312.172 85.623L309.84 79.1602H311.023ZM315.605 84.9258C315.605 84.7422 315.662 84.5879 315.775 84.4629C315.893 84.334 316.061 84.2695 316.279 84.2695C316.498 84.2695 316.664 84.334 316.777 84.4629C316.895 84.5879 316.953 84.7422 316.953 84.9258C316.953 85.1055 316.895 85.2578 316.777 85.3828C316.664 85.5078 316.498 85.5703 316.279 85.5703C316.061 85.5703 315.893 85.5078 315.775 85.3828C315.662 85.2578 315.605 85.1055 315.605 84.9258Z" fill="black"/>
</g>
<g clip-path="url(#clip3_0_1006)">
<circle cx="114.86" cy="134" r="17" fill="#1F1F39"/>
<path d="M107.863 133.191H119.291L115.531 129.447C115.315 129.233 115.193 128.942 115.193 128.639C115.193 128.336 115.315 128.045 115.531 127.831C115.977 127.39 116.697 127.39 117.143 127.831L122.045 132.725C122.475 133.15 122.717 133.727 122.72 134.329C122.714 134.928 122.472 135.501 122.045 135.923L117.143 140.816C116.853 141.103 116.431 141.214 116.037 141.107C115.643 141.001 115.336 140.692 115.231 140.299C115.127 139.906 115.241 139.487 115.531 139.2L119.291 135.467H107.863C107.231 135.467 106.72 134.958 106.72 134.329C106.72 133.701 107.231 133.191 107.863 133.191Z" fill="white"/>
<path d="M20.5181 136.198H22.562C22.521 136.868 22.3364 137.463 22.0083 137.982C21.6847 138.502 21.2313 138.908 20.6479 139.199C20.0692 139.491 19.3719 139.637 18.5562 139.637C17.9181 139.637 17.3462 139.527 16.8403 139.309C16.3345 139.085 15.9015 138.766 15.5415 138.352C15.186 137.937 14.9149 137.436 14.728 136.848C14.5412 136.26 14.4478 135.601 14.4478 134.872V134.182C14.4478 133.452 14.5435 132.794 14.7349 132.206C14.9308 131.614 15.2088 131.11 15.5688 130.695C15.9334 130.281 16.3687 129.962 16.8745 129.738C17.3804 129.515 17.9455 129.403 18.5698 129.403C19.3993 129.403 20.0988 129.554 20.6685 129.854C21.2427 130.155 21.687 130.57 22.0015 131.099C22.3205 131.627 22.5119 132.229 22.5757 132.903H20.5249C20.5021 132.502 20.4224 132.163 20.2856 131.885C20.1489 131.602 19.9416 131.39 19.6636 131.249C19.3901 131.103 19.0256 131.03 18.5698 131.03C18.228 131.03 17.9295 131.094 17.6743 131.222C17.4191 131.349 17.2049 131.543 17.0317 131.803C16.8586 132.062 16.7287 132.391 16.6421 132.787C16.5601 133.179 16.519 133.639 16.519 134.168V134.872C16.519 135.387 16.5578 135.84 16.6353 136.232C16.7127 136.62 16.8312 136.948 16.9907 137.217C17.1548 137.481 17.3644 137.682 17.6196 137.818C17.8794 137.951 18.1916 138.017 18.5562 138.017C18.9845 138.017 19.3377 137.948 19.6157 137.812C19.8937 137.675 20.1056 137.472 20.2515 137.203C20.4019 136.934 20.4907 136.599 20.5181 136.198ZM25.7065 129V139.5H23.7378V129H25.7065ZM25.4263 135.542H24.8862C24.8908 135.027 24.9591 134.553 25.0913 134.12C25.2235 133.683 25.4126 133.304 25.6587 132.985C25.9048 132.662 26.1987 132.411 26.5405 132.233C26.8869 132.056 27.2697 131.967 27.689 131.967C28.0535 131.967 28.384 132.019 28.6802 132.124C28.981 132.224 29.2384 132.388 29.4526 132.616C29.6714 132.84 29.84 133.133 29.9585 133.498C30.077 133.863 30.1362 134.305 30.1362 134.824V139.5H28.1538V134.811C28.1538 134.482 28.106 134.225 28.0103 134.038C27.9191 133.847 27.7847 133.712 27.6069 133.635C27.4338 133.553 27.2196 133.512 26.9644 133.512C26.6818 133.512 26.4403 133.564 26.2397 133.669C26.0438 133.774 25.8866 133.92 25.7681 134.106C25.6496 134.289 25.563 134.503 25.5083 134.749C25.4536 134.995 25.4263 135.259 25.4263 135.542ZM35.0376 139.637C34.4634 139.637 33.9484 139.546 33.4927 139.363C33.0369 139.176 32.6496 138.919 32.3306 138.591C32.0161 138.263 31.7746 137.882 31.606 137.449C31.4373 137.012 31.353 136.547 31.353 136.055V135.781C31.353 135.221 31.4328 134.708 31.5923 134.243C31.7518 133.778 31.9797 133.375 32.2759 133.033C32.5767 132.691 32.9412 132.429 33.3696 132.247C33.798 132.06 34.2811 131.967 34.8188 131.967C35.3429 131.967 35.8078 132.053 36.2134 132.227C36.619 132.4 36.9585 132.646 37.2319 132.965C37.5099 133.284 37.7196 133.667 37.8608 134.113C38.0021 134.555 38.0728 135.048 38.0728 135.59V136.41H32.1938V135.098H36.1382V134.947C36.1382 134.674 36.0881 134.43 35.9878 134.216C35.8921 133.997 35.7463 133.824 35.5503 133.696C35.3543 133.569 35.1037 133.505 34.7983 133.505C34.5386 133.505 34.3153 133.562 34.1284 133.676C33.9416 133.79 33.7889 133.949 33.6704 134.154C33.5565 134.359 33.4699 134.601 33.4106 134.879C33.356 135.152 33.3286 135.453 33.3286 135.781V136.055C33.3286 136.351 33.3696 136.624 33.4517 136.875C33.5382 137.126 33.659 137.342 33.814 137.524C33.9735 137.707 34.1649 137.848 34.3882 137.948C34.616 138.049 34.8735 138.099 35.1606 138.099C35.5161 138.099 35.8465 138.03 36.1519 137.894C36.4618 137.752 36.7284 137.54 36.9517 137.258L37.9087 138.297C37.7537 138.52 37.5418 138.734 37.2729 138.939C37.0086 139.145 36.6896 139.313 36.3159 139.445C35.9422 139.573 35.5161 139.637 35.0376 139.637ZM42.2495 138.099C42.491 138.099 42.7052 138.053 42.8921 137.962C43.0789 137.866 43.2248 137.734 43.3296 137.565C43.439 137.392 43.4959 137.189 43.5005 136.957H45.353C45.3485 137.477 45.2095 137.939 44.936 138.345C44.6626 138.746 44.2957 139.062 43.8354 139.295C43.3752 139.523 42.8602 139.637 42.2905 139.637C41.7163 139.637 41.215 139.541 40.7866 139.35C40.3628 139.158 40.0096 138.894 39.7271 138.557C39.4445 138.215 39.2326 137.818 39.0913 137.367C38.95 136.911 38.8794 136.424 38.8794 135.904V135.706C38.8794 135.182 38.95 134.694 39.0913 134.243C39.2326 133.787 39.4445 133.391 39.7271 133.054C40.0096 132.712 40.3628 132.445 40.7866 132.254C41.2104 132.062 41.7072 131.967 42.2769 131.967C42.883 131.967 43.4139 132.083 43.8696 132.315C44.3299 132.548 44.6899 132.881 44.9497 133.313C45.214 133.742 45.3485 134.25 45.353 134.838H43.5005C43.4959 134.592 43.4435 134.368 43.3433 134.168C43.2476 133.967 43.1063 133.808 42.9194 133.689C42.7371 133.566 42.5116 133.505 42.2427 133.505C41.9556 133.505 41.7209 133.566 41.5386 133.689C41.3563 133.808 41.215 133.972 41.1147 134.182C41.0145 134.387 40.9438 134.621 40.9028 134.886C40.8664 135.146 40.8481 135.419 40.8481 135.706V135.904C40.8481 136.191 40.8664 136.467 40.9028 136.731C40.9393 136.996 41.0076 137.23 41.1079 137.436C41.2127 137.641 41.3563 137.802 41.5386 137.921C41.7209 138.039 41.9578 138.099 42.2495 138.099ZM48.4634 128.993V139.5H46.4946V128.993H48.4634ZM53.1255 132.104L49.9126 135.768L48.1899 137.511L47.4722 136.089L48.8394 134.353L50.7603 132.104H53.1255ZM51.0815 139.5L48.894 136.082L50.2544 134.893L53.3511 139.5H51.0815ZM59.5376 132.104V139.5H57.562V132.104H59.5376ZM57.439 130.176C57.439 129.889 57.5392 129.652 57.7397 129.465C57.9403 129.278 58.2091 129.185 58.5464 129.185C58.8791 129.185 59.1457 129.278 59.3462 129.465C59.5513 129.652 59.6538 129.889 59.6538 130.176C59.6538 130.463 59.5513 130.7 59.3462 130.887C59.1457 131.074 58.8791 131.167 58.5464 131.167C58.2091 131.167 57.9403 131.074 57.7397 130.887C57.5392 130.7 57.439 130.463 57.439 130.176ZM64.7876 132.104V133.498H60.481V132.104H64.7876ZM61.5474 130.278H63.5161V137.271C63.5161 137.486 63.5435 137.65 63.5981 137.764C63.6574 137.878 63.744 137.957 63.8579 138.003C63.9718 138.044 64.1154 138.064 64.2886 138.064C64.4116 138.064 64.521 138.06 64.6167 138.051C64.717 138.037 64.8013 138.023 64.8696 138.01L64.8765 139.459C64.7078 139.514 64.5256 139.557 64.3296 139.589C64.1336 139.621 63.9172 139.637 63.6802 139.637C63.2472 139.637 62.869 139.566 62.5454 139.425C62.2264 139.279 61.9803 139.047 61.8071 138.728C61.634 138.409 61.5474 137.989 61.5474 137.47V130.278ZM69.0806 135.877V135.733C69.0806 135.191 69.158 134.692 69.313 134.236C69.4679 133.776 69.6935 133.377 69.9897 133.04C70.286 132.703 70.6506 132.441 71.0835 132.254C71.5164 132.062 72.0132 131.967 72.5737 131.967C73.1343 131.967 73.6333 132.062 74.0708 132.254C74.5083 132.441 74.8752 132.703 75.1714 133.04C75.4722 133.377 75.7 133.776 75.855 134.236C76.0099 134.692 76.0874 135.191 76.0874 135.733V135.877C76.0874 136.415 76.0099 136.914 75.855 137.374C75.7 137.83 75.4722 138.229 75.1714 138.57C74.8752 138.908 74.5106 139.17 74.0776 139.356C73.6447 139.543 73.1479 139.637 72.5874 139.637C72.0269 139.637 71.5278 139.543 71.0903 139.356C70.6574 139.17 70.2905 138.908 69.9897 138.57C69.6935 138.229 69.4679 137.83 69.313 137.374C69.158 136.914 69.0806 136.415 69.0806 135.877ZM71.0493 135.733V135.877C71.0493 136.187 71.0767 136.476 71.1313 136.745C71.186 137.014 71.2726 137.251 71.3911 137.456C71.5142 137.657 71.6737 137.814 71.8696 137.928C72.0656 138.042 72.3049 138.099 72.5874 138.099C72.8608 138.099 73.0955 138.042 73.2915 137.928C73.4875 137.814 73.6447 137.657 73.7632 137.456C73.8817 137.251 73.9683 137.014 74.0229 136.745C74.0822 136.476 74.1118 136.187 74.1118 135.877V135.733C74.1118 135.433 74.0822 135.15 74.0229 134.886C73.9683 134.617 73.8794 134.38 73.7563 134.175C73.6379 133.965 73.4806 133.801 73.2847 133.683C73.0887 133.564 72.8517 133.505 72.5737 133.505C72.2957 133.505 72.0588 133.564 71.8628 133.683C71.6714 133.801 71.5142 133.965 71.3911 134.175C71.2726 134.38 71.186 134.617 71.1313 134.886C71.0767 135.15 71.0493 135.433 71.0493 135.733ZM81.6724 137.729V132.104H83.6411V139.5H81.7886L81.6724 137.729ZM81.8911 136.212L82.4722 136.198C82.4722 136.69 82.4152 137.148 82.3013 137.572C82.1873 137.992 82.0164 138.356 81.7886 138.666C81.5607 138.971 81.2736 139.211 80.9272 139.384C80.5809 139.552 80.173 139.637 79.7036 139.637C79.3436 139.637 79.0109 139.587 78.7056 139.486C78.4048 139.382 78.145 139.22 77.9263 139.001C77.7121 138.778 77.5435 138.493 77.4204 138.146C77.3019 137.796 77.2427 137.374 77.2427 136.882V132.104H79.2114V136.896C79.2114 137.114 79.2365 137.299 79.2866 137.449C79.3413 137.6 79.4165 137.723 79.5122 137.818C79.6079 137.914 79.7196 137.982 79.8472 138.023C79.9793 138.064 80.1252 138.085 80.2847 138.085C80.6903 138.085 81.0093 138.003 81.2417 137.839C81.4787 137.675 81.645 137.451 81.7407 137.169C81.841 136.882 81.8911 136.563 81.8911 136.212ZM88.7681 132.104V133.498H84.4614V132.104H88.7681ZM85.5278 130.278H87.4966V137.271C87.4966 137.486 87.5239 137.65 87.5786 137.764C87.6379 137.878 87.7244 137.957 87.8384 138.003C87.9523 138.044 88.0959 138.064 88.269 138.064C88.3921 138.064 88.5015 138.06 88.5972 138.051C88.6974 138.037 88.7817 138.023 88.8501 138.01L88.8569 139.459C88.6883 139.514 88.506 139.557 88.3101 139.589C88.1141 139.621 87.8976 139.637 87.6606 139.637C87.2277 139.637 86.8494 139.566 86.5259 139.425C86.2069 139.279 85.9608 139.047 85.7876 138.728C85.6144 138.409 85.5278 137.989 85.5278 137.47V130.278Z" fill="#1F1F39"/>
</g>
<defs>
<clipPath id="clip0_0_1006">
<rect width="370" height="156.192" fill="white"/>
</clipPath>
<clipPath id="clip1_0_1006">
<rect width="370" height="156.192" fill="white"/>
</clipPath>
<clipPath id="clip2_0_1006">
<rect width="138.25" height="94.38" fill="white" transform="translate(231.75 -14.9399)"/>
</clipPath>
<clipPath id="clip3_0_1006">
<rect width="118" height="34" fill="white" transform="translate(13.8599 117)"/>
</clipPath>
</defs>
</svg>
