<svg width="190" height="41" viewBox="0 0 190 41" fill="none" xmlns="http://www.w3.org/2000/svg">
<g clip-path="url(#clip0_0_1057)">
<rect y="0.747803" width="190" height="40" rx="16" fill="#D63031"/>
<path d="M53.4512 27.4863V30H45.5771V27.4863H53.4512ZM46.6191 14.3594V30H43.3965V14.3594H46.6191ZM60.4551 30.2148C59.5527 30.2148 58.7435 30.0716 58.0273 29.7852C57.3112 29.4915 56.7025 29.0869 56.2012 28.5713C55.707 28.0557 55.3275 27.4577 55.0625 26.7773C54.7975 26.0898 54.665 25.3594 54.665 24.5859V24.1562C54.665 23.2754 54.7904 22.4697 55.041 21.7393C55.2917 21.0088 55.6497 20.375 56.1152 19.8379C56.5879 19.3008 57.1608 18.889 57.834 18.6025C58.5072 18.3089 59.2663 18.1621 60.1113 18.1621C60.9349 18.1621 61.6654 18.2982 62.3027 18.5703C62.9401 18.8424 63.4736 19.2292 63.9033 19.7305C64.3402 20.2318 64.6696 20.8333 64.8916 21.5352C65.1136 22.2298 65.2246 23.0033 65.2246 23.8555V25.1445H55.9863V23.082H62.1846V22.8457C62.1846 22.416 62.1058 22.0329 61.9482 21.6963C61.7979 21.3525 61.5687 21.0804 61.2607 20.8799C60.9528 20.6794 60.5589 20.5791 60.0791 20.5791C59.6709 20.5791 59.32 20.6686 59.0264 20.8477C58.7327 21.0267 58.4928 21.2773 58.3066 21.5996C58.1276 21.9219 57.9915 22.3014 57.8984 22.7383C57.8125 23.168 57.7695 23.6406 57.7695 24.1562V24.5859C57.7695 25.0514 57.834 25.4811 57.9629 25.875C58.099 26.2689 58.2887 26.609 58.5322 26.8955C58.7829 27.182 59.0837 27.404 59.4346 27.5615C59.7926 27.7191 60.1973 27.7979 60.6484 27.7979C61.207 27.7979 61.7262 27.6904 62.2061 27.4756C62.693 27.2536 63.112 26.9206 63.4629 26.4766L64.9668 28.1094C64.7233 28.4603 64.3903 28.7969 63.9678 29.1191C63.5524 29.4414 63.0511 29.7064 62.4639 29.9141C61.8766 30.1146 61.207 30.2148 60.4551 30.2148ZM70.0156 20.8584V30H66.9219V18.377H69.8223L70.0156 20.8584ZM69.5645 23.7803H68.7266C68.7266 22.9209 68.8376 22.1475 69.0596 21.46C69.2816 20.7653 69.5931 20.1745 69.9941 19.6875C70.3952 19.1934 70.8714 18.8174 71.4229 18.5596C71.9814 18.2946 72.6045 18.1621 73.292 18.1621C73.8363 18.1621 74.334 18.2409 74.7852 18.3984C75.2363 18.556 75.623 18.8066 75.9453 19.1504C76.2747 19.4941 76.5254 19.9489 76.6973 20.5146C76.8763 21.0804 76.9658 21.7715 76.9658 22.5879V30H73.8506V22.5771C73.8506 22.0615 73.779 21.6605 73.6357 21.374C73.4925 21.0876 73.2812 20.887 73.002 20.7725C72.7298 20.6507 72.3932 20.5898 71.9922 20.5898C71.5768 20.5898 71.2152 20.6722 70.9072 20.8369C70.6064 21.0016 70.3558 21.2308 70.1553 21.5244C69.9619 21.8109 69.8151 22.1475 69.7148 22.5342C69.6146 22.9209 69.5645 23.3363 69.5645 23.7803ZM86.1826 27.4648V13.5H89.2979V30H86.4941L86.1826 27.4648ZM78.835 24.3281V24.1025C78.835 23.2145 78.9352 22.4089 79.1357 21.6855C79.3363 20.9551 79.6299 20.3285 80.0166 19.8057C80.4033 19.2829 80.8796 18.8783 81.4453 18.5918C82.0111 18.3053 82.6556 18.1621 83.3789 18.1621C84.0592 18.1621 84.6536 18.3053 85.1621 18.5918C85.6777 18.8783 86.1146 19.2865 86.4727 19.8164C86.8379 20.3392 87.1315 20.9587 87.3535 21.6748C87.5755 22.3838 87.7367 23.1608 87.8369 24.0059V24.5C87.7367 25.3092 87.5755 26.0612 87.3535 26.7559C87.1315 27.4505 86.8379 28.0592 86.4727 28.582C86.1146 29.0977 85.6777 29.4987 85.1621 29.7852C84.6465 30.0716 84.0449 30.2148 83.3574 30.2148C82.6341 30.2148 81.9896 30.068 81.4238 29.7744C80.8652 29.4808 80.3926 29.069 80.0059 28.5391C79.6263 28.0091 79.3363 27.3861 79.1357 26.6699C78.9352 25.9538 78.835 25.1732 78.835 24.3281ZM81.9287 24.1025V24.3281C81.9287 24.8079 81.9645 25.2555 82.0361 25.6709C82.1149 26.0863 82.2402 26.4551 82.4121 26.7773C82.5911 27.0924 82.8203 27.3395 83.0996 27.5186C83.3861 27.6904 83.7334 27.7764 84.1416 27.7764C84.6715 27.7764 85.1084 27.6582 85.4521 27.4219C85.7959 27.1784 86.0573 26.8454 86.2363 26.4229C86.4225 26.0003 86.5299 25.5133 86.5586 24.9619V23.5547C86.5371 23.1035 86.4727 22.6989 86.3652 22.3408C86.265 21.9756 86.1146 21.6641 85.9141 21.4062C85.7207 21.1484 85.4772 20.9479 85.1836 20.8047C84.8971 20.6615 84.557 20.5898 84.1631 20.5898C83.762 20.5898 83.4183 20.6829 83.1318 20.8691C82.8454 21.0482 82.6126 21.2952 82.4336 21.6104C82.2617 21.9255 82.1328 22.2979 82.0469 22.7275C81.9681 23.1501 81.9287 23.6084 81.9287 24.1025ZM94.9805 18.377V30H91.876V18.377H94.9805ZM91.6826 15.3477C91.6826 14.8965 91.8402 14.5241 92.1553 14.2305C92.4704 13.9368 92.8929 13.79 93.4229 13.79C93.9456 13.79 94.3646 13.9368 94.6797 14.2305C95.002 14.5241 95.1631 14.8965 95.1631 15.3477C95.1631 15.7988 95.002 16.1712 94.6797 16.4648C94.3646 16.7585 93.9456 16.9053 93.4229 16.9053C92.8929 16.9053 92.4704 16.7585 92.1553 16.4648C91.8402 16.1712 91.6826 15.7988 91.6826 15.3477ZM100.566 20.8584V30H97.4727V18.377H100.373L100.566 20.8584ZM100.115 23.7803H99.2773C99.2773 22.9209 99.3883 22.1475 99.6104 21.46C99.8324 20.7653 100.144 20.1745 100.545 19.6875C100.946 19.1934 101.422 18.8174 101.974 18.5596C102.532 18.2946 103.155 18.1621 103.843 18.1621C104.387 18.1621 104.885 18.2409 105.336 18.3984C105.787 18.556 106.174 18.8066 106.496 19.1504C106.826 19.4941 107.076 19.9489 107.248 20.5146C107.427 21.0804 107.517 21.7715 107.517 22.5879V30H104.401V22.5771C104.401 22.0615 104.33 21.6605 104.187 21.374C104.043 21.0876 103.832 20.887 103.553 20.7725C103.281 20.6507 102.944 20.5898 102.543 20.5898C102.128 20.5898 101.766 20.6722 101.458 20.8369C101.157 21.0016 100.907 21.2308 100.706 21.5244C100.513 21.8109 100.366 22.1475 100.266 22.5342C100.165 22.9209 100.115 23.3363 100.115 23.7803ZM117.228 18.377H120.031V29.6133C120.031 30.6732 119.795 31.5719 119.322 32.3096C118.857 33.0544 118.205 33.6165 117.367 33.9961C116.529 34.3828 115.555 34.5762 114.445 34.5762C113.958 34.5762 113.443 34.5117 112.898 34.3828C112.361 34.2539 111.846 34.0534 111.352 33.7812C110.865 33.5091 110.456 33.1654 110.127 32.75L111.491 30.9238C111.849 31.3392 112.265 31.6615 112.737 31.8906C113.21 32.127 113.733 32.2451 114.306 32.2451C114.864 32.2451 115.337 32.1413 115.724 31.9336C116.11 31.7331 116.408 31.4359 116.615 31.042C116.823 30.6553 116.927 30.1862 116.927 29.6348V21.0625L117.228 18.377ZM109.407 24.3281V24.1025C109.407 23.2145 109.515 22.4089 109.729 21.6855C109.951 20.9551 110.263 20.3285 110.664 19.8057C111.072 19.2829 111.566 18.8783 112.146 18.5918C112.727 18.3053 113.382 18.1621 114.112 18.1621C114.886 18.1621 115.534 18.3053 116.057 18.5918C116.579 18.8783 117.009 19.2865 117.346 19.8164C117.682 20.3392 117.944 20.9587 118.13 21.6748C118.323 22.3838 118.474 23.1608 118.581 24.0059V24.5C118.474 25.3092 118.312 26.0612 118.098 26.7559C117.883 27.4505 117.6 28.0592 117.249 28.582C116.898 29.0977 116.461 29.4987 115.938 29.7852C115.423 30.0716 114.807 30.2148 114.091 30.2148C113.375 30.2148 112.727 30.068 112.146 29.7744C111.574 29.4808 111.083 29.069 110.675 28.5391C110.267 28.0091 109.951 27.3861 109.729 26.6699C109.515 25.9538 109.407 25.1732 109.407 24.3281ZM112.501 24.1025V24.3281C112.501 24.8079 112.548 25.2555 112.641 25.6709C112.734 26.0863 112.877 26.4551 113.07 26.7773C113.271 27.0924 113.518 27.3395 113.812 27.5186C114.112 27.6904 114.467 27.7764 114.875 27.7764C115.441 27.7764 115.903 27.6582 116.261 27.4219C116.619 27.1784 116.887 26.8454 117.066 26.4229C117.245 26.0003 117.349 25.5133 117.378 24.9619V23.5547C117.364 23.1035 117.303 22.6989 117.195 22.3408C117.088 21.9756 116.938 21.6641 116.744 21.4062C116.551 21.1484 116.3 20.9479 115.992 20.8047C115.684 20.6615 115.319 20.5898 114.896 20.5898C114.488 20.5898 114.134 20.6829 113.833 20.8691C113.539 21.0482 113.292 21.2952 113.092 21.6104C112.898 21.9255 112.752 22.2979 112.651 22.7275C112.551 23.1501 112.501 23.6084 112.501 24.1025ZM135.328 14.3271V30H132.234V17.8936L128.518 19.0752V16.6367L134.995 14.3271H135.328ZM151.119 27.583V30H140.42V27.9375L145.479 22.5127C145.988 21.9469 146.389 21.4492 146.683 21.0195C146.976 20.5827 147.188 20.1924 147.316 19.8486C147.452 19.4977 147.521 19.1647 147.521 18.8496C147.521 18.377 147.442 17.9723 147.284 17.6357C147.127 17.292 146.894 17.027 146.586 16.8408C146.285 16.6546 145.913 16.5615 145.469 16.5615C144.996 16.5615 144.588 16.6761 144.244 16.9053C143.908 17.1344 143.65 17.4531 143.471 17.8613C143.299 18.2695 143.213 18.7314 143.213 19.2471H140.108C140.108 18.3161 140.33 17.4639 140.774 16.6904C141.218 15.9098 141.845 15.2904 142.654 14.832C143.464 14.3665 144.423 14.1338 145.533 14.1338C146.629 14.1338 147.553 14.3128 148.305 14.6709C149.064 15.0218 149.637 15.5303 150.023 16.1963C150.417 16.8551 150.614 17.6429 150.614 18.5596C150.614 19.0752 150.532 19.5801 150.367 20.0742C150.202 20.5612 149.966 21.0482 149.658 21.5352C149.357 22.015 148.992 22.502 148.562 22.9961C148.133 23.4902 147.657 24.0023 147.134 24.5322L144.416 27.583H151.119ZM163.58 20.8047V23.5117C163.58 24.6862 163.455 25.6995 163.204 26.5518C162.953 27.3968 162.592 28.0915 162.119 28.6357C161.654 29.1729 161.099 29.5703 160.454 29.8281C159.81 30.0859 159.093 30.2148 158.306 30.2148C157.675 30.2148 157.088 30.1361 156.544 29.9785C156 29.8138 155.509 29.5596 155.072 29.2158C154.643 28.8721 154.27 28.4388 153.955 27.916C153.647 27.3861 153.411 26.7559 153.246 26.0254C153.081 25.2949 152.999 24.457 152.999 23.5117V20.8047C152.999 19.6302 153.124 18.624 153.375 17.7861C153.633 16.9411 153.994 16.25 154.46 15.7129C154.933 15.1758 155.491 14.7819 156.136 14.5312C156.78 14.2734 157.496 14.1445 158.284 14.1445C158.914 14.1445 159.498 14.2269 160.035 14.3916C160.579 14.5492 161.07 14.7962 161.507 15.1328C161.944 15.4694 162.316 15.9027 162.624 16.4326C162.932 16.9554 163.168 17.582 163.333 18.3125C163.498 19.0358 163.58 19.8665 163.58 20.8047ZM160.476 23.9199V20.3857C160.476 19.82 160.443 19.3258 160.379 18.9033C160.322 18.4808 160.232 18.1227 160.11 17.8291C159.989 17.5283 159.838 17.2848 159.659 17.0986C159.48 16.9124 159.276 16.7764 159.047 16.6904C158.818 16.6045 158.563 16.5615 158.284 16.5615C157.933 16.5615 157.622 16.6296 157.35 16.7656C157.085 16.9017 156.859 17.1201 156.673 17.4209C156.487 17.7145 156.343 18.1084 156.243 18.6025C156.15 19.0895 156.104 19.6839 156.104 20.3857V23.9199C156.104 24.4857 156.132 24.9834 156.189 25.4131C156.254 25.8428 156.347 26.2116 156.469 26.5195C156.598 26.8203 156.748 27.0674 156.92 27.2607C157.099 27.4469 157.303 27.583 157.532 27.6689C157.769 27.7549 158.026 27.7979 158.306 27.7979C158.649 27.7979 158.954 27.7298 159.219 27.5938C159.491 27.4505 159.72 27.2285 159.906 26.9277C160.1 26.6198 160.243 26.2188 160.336 25.7246C160.429 25.2305 160.476 24.6289 160.476 23.9199ZM168.854 20.8369H170.509C171.039 20.8369 171.476 20.7474 171.819 20.5684C172.163 20.3822 172.417 20.1243 172.582 19.7949C172.754 19.4583 172.84 19.068 172.84 18.624C172.84 18.223 172.761 17.8685 172.604 17.5605C172.453 17.2454 172.22 17.002 171.905 16.8301C171.59 16.651 171.193 16.5615 170.713 16.5615C170.333 16.5615 169.982 16.6367 169.66 16.7871C169.338 16.9375 169.08 17.1488 168.887 17.4209C168.693 17.693 168.597 18.0225 168.597 18.4092H165.492C165.492 17.5498 165.721 16.8014 166.18 16.1641C166.645 15.5267 167.268 15.029 168.049 14.6709C168.829 14.3128 169.689 14.1338 170.627 14.1338C171.687 14.1338 172.614 14.3057 173.409 14.6494C174.204 14.986 174.824 15.4837 175.268 16.1426C175.712 16.8014 175.934 17.6178 175.934 18.5918C175.934 19.0859 175.819 19.5658 175.59 20.0312C175.361 20.4896 175.031 20.9049 174.602 21.2773C174.179 21.6426 173.663 21.9362 173.055 22.1582C172.446 22.373 171.762 22.4805 171.003 22.4805H168.854V20.8369ZM168.854 23.1895V21.5889H171.003C171.855 21.5889 172.604 21.6855 173.248 21.8789C173.893 22.0723 174.433 22.3516 174.87 22.7168C175.307 23.0749 175.636 23.501 175.858 23.9951C176.08 24.4821 176.191 25.0228 176.191 25.6172C176.191 26.3477 176.052 26.9993 175.772 27.5723C175.493 28.138 175.099 28.6178 174.591 29.0117C174.09 29.4056 173.502 29.7064 172.829 29.9141C172.156 30.1146 171.422 30.2148 170.627 30.2148C169.968 30.2148 169.32 30.1253 168.683 29.9463C168.052 29.7601 167.479 29.4844 166.964 29.1191C166.455 28.7467 166.047 28.2812 165.739 27.7227C165.438 27.1569 165.288 26.4873 165.288 25.7139H168.393C168.393 26.1149 168.493 26.473 168.693 26.7881C168.894 27.1032 169.17 27.3503 169.521 27.5293C169.879 27.7083 170.276 27.7979 170.713 27.7979C171.207 27.7979 171.63 27.7083 171.98 27.5293C172.339 27.3431 172.611 27.0853 172.797 26.7559C172.99 26.4193 173.087 26.029 173.087 25.585C173.087 25.012 172.983 24.5537 172.775 24.21C172.568 23.859 172.271 23.6012 171.884 23.4365C171.497 23.2718 171.039 23.1895 170.509 23.1895H168.854Z" fill="white"/>
<circle cx="20" cy="21" r="17" fill="#E17055"/>
<path d="M18.7279 28.1806L18.7279 16.7521L14.9836 20.5121C14.7699 20.7284 14.479 20.8501 14.1756 20.8501C13.8721 20.8501 13.5813 20.7284 13.3676 20.5121C12.9263 20.0663 12.9263 19.3464 13.3676 18.9006L18.2613 13.9978C18.6862 13.5685 19.2633 13.326 19.866 13.3235C20.4647 13.329 21.0372 13.5713 21.4593 13.9978L26.353 18.9006C26.6396 19.1905 26.7505 19.612 26.6438 20.0062C26.5371 20.4004 26.2291 20.7076 25.8358 20.8119C25.4424 20.9163 25.0236 20.802 24.7369 20.5121L21.004 16.7521L21.004 28.1806C21.004 28.8118 20.4945 29.3235 19.866 29.3235C19.2374 29.3235 18.7279 28.8118 18.7279 28.1806Z" fill="white"/>
</g>
<defs>
<clipPath id="clip0_0_1057">
<rect width="190" height="40" fill="white" transform="translate(0 0.747803)"/>
</clipPath>
</defs>
</svg>
