<svg width="34" height="34" viewBox="0 0 34 34" fill="none" xmlns="http://www.w3.org/2000/svg">
<rect x="1" y="1" width="32" height="32" rx="8" stroke="black" stroke-width="0.5"/>
<path fill-rule="evenodd" clip-rule="evenodd" d="M16.75 21.1543C16.336 21.1543 16 20.8183 16 20.4043V13.0773C16 12.6633 16.336 12.3273 16.75 12.3273C17.164 12.3273 17.5 12.6633 17.5 13.0773V20.4043C17.5 20.8183 17.164 21.1543 16.75 21.1543Z" fill="black"/>
<path fill-rule="evenodd" clip-rule="evenodd" d="M20.417 17.4903H13.084C12.669 17.4903 12.334 17.1543 12.334 16.7403C12.334 16.3263 12.669 15.9903 13.084 15.9903H20.417C20.831 15.9903 21.167 16.3263 21.167 16.7403C21.167 17.1543 20.831 17.4903 20.417 17.4903Z" fill="black"/>
</svg>
