<svg width="360" height="83" viewBox="0 0 360 83" fill="none" xmlns="http://www.w3.org/2000/svg">
<rect y="2.5" width="360" height="80" rx="15" fill="#E7F0C7"/>
<path d="M28.833 26.0468V36H27.5342V26.0468H28.833ZM32.0322 26.0468V27.1269H24.3418V26.0468H32.0322ZM36.8994 34.7353V30.9277C36.8994 30.636 36.8402 30.3831 36.7217 30.1689C36.6077 29.9502 36.4346 29.7815 36.2021 29.6631C35.9697 29.5446 35.6826 29.4853 35.3408 29.4853C35.0218 29.4853 34.7415 29.54 34.5 29.6494C34.263 29.7588 34.0762 29.9023 33.9395 30.08C33.8073 30.2578 33.7412 30.4492 33.7412 30.6543H32.4766C32.4766 30.3899 32.5449 30.1279 32.6816 29.8681C32.8184 29.6084 33.0143 29.3737 33.2695 29.164C33.5293 28.9498 33.8392 28.7812 34.1992 28.6582C34.5638 28.5306 34.9694 28.4668 35.416 28.4668C35.9538 28.4668 36.4277 28.5579 36.8379 28.7402C37.2526 28.9225 37.5762 29.1982 37.8086 29.5674C38.0456 29.9319 38.1641 30.3899 38.1641 30.9414V34.3867C38.1641 34.6328 38.1846 34.8948 38.2256 35.1728C38.2712 35.4508 38.3372 35.6901 38.4238 35.8906V36H37.1045C37.0407 35.8541 36.9906 35.6605 36.9541 35.4189C36.9176 35.1728 36.8994 34.945 36.8994 34.7353ZM37.1182 31.5156L37.1318 32.4043H35.8535C35.4935 32.4043 35.1722 32.4339 34.8896 32.4931C34.6071 32.5478 34.3701 32.6321 34.1787 32.7461C33.9873 32.86 33.8415 33.0036 33.7412 33.1767C33.641 33.3453 33.5908 33.5436 33.5908 33.7715C33.5908 34.0039 33.6432 34.2158 33.748 34.4072C33.8529 34.5986 34.0101 34.7513 34.2197 34.8652C34.4339 34.9746 34.696 35.0293 35.0059 35.0293C35.3932 35.0293 35.735 34.9472 36.0312 34.7832C36.3275 34.6191 36.5622 34.4186 36.7354 34.1816C36.9131 33.9446 37.0088 33.7145 37.0225 33.4912L37.5625 34.0996C37.5306 34.291 37.444 34.5029 37.3027 34.7353C37.1615 34.9677 36.9723 35.1911 36.7354 35.4052C36.5029 35.6149 36.2249 35.7903 35.9014 35.9316C35.5824 36.0683 35.2223 36.1367 34.8213 36.1367C34.32 36.1367 33.8802 36.0387 33.502 35.8427C33.1283 35.6468 32.8366 35.3847 32.627 35.0566C32.4219 34.7239 32.3193 34.3525 32.3193 33.9424C32.3193 33.5459 32.3968 33.1972 32.5518 32.8965C32.7067 32.5911 32.93 32.3382 33.2217 32.1377C33.5133 31.9326 33.8643 31.7776 34.2744 31.6728C34.6846 31.568 35.1426 31.5156 35.6484 31.5156H37.1182ZM41.418 30.0254V38.8437H40.1465V28.6035H41.3086L41.418 30.0254ZM46.4014 32.2402V32.3838C46.4014 32.9215 46.3376 33.4205 46.21 33.8808C46.0824 34.3366 45.8955 34.733 45.6494 35.0703C45.4079 35.4075 45.1094 35.6696 44.7539 35.8564C44.3984 36.0433 43.9906 36.1367 43.5303 36.1367C43.0609 36.1367 42.6462 36.0592 42.2861 35.9043C41.9261 35.7493 41.6208 35.5237 41.3701 35.2275C41.1195 34.9313 40.9189 34.5758 40.7686 34.1611C40.6227 33.7464 40.5225 33.2793 40.4678 32.7597V31.9941C40.5225 31.4472 40.625 30.9573 40.7754 30.5244C40.9258 30.0914 41.124 29.7223 41.3701 29.417C41.6208 29.1071 41.9238 28.8724 42.2793 28.7129C42.6348 28.5488 43.0449 28.4668 43.5098 28.4668C43.9746 28.4668 44.387 28.5579 44.7471 28.7402C45.1071 28.9179 45.4102 29.1731 45.6562 29.5058C45.9023 29.8385 46.0869 30.2373 46.21 30.7021C46.3376 31.1624 46.4014 31.6751 46.4014 32.2402ZM45.1299 32.3838V32.2402C45.1299 31.8711 45.0911 31.5247 45.0137 31.2011C44.9362 30.873 44.8154 30.5859 44.6514 30.3398C44.4919 30.0892 44.2868 29.8932 44.0361 29.7519C43.7855 29.6061 43.487 29.5332 43.1406 29.5332C42.8216 29.5332 42.5436 29.5879 42.3066 29.6972C42.0742 29.8066 41.876 29.9547 41.7119 30.1416C41.5479 30.3239 41.4134 30.5335 41.3086 30.7705C41.2083 31.0029 41.1331 31.2444 41.083 31.4951V33.2656C41.1742 33.5846 41.3018 33.8854 41.4658 34.1679C41.6299 34.4459 41.8486 34.6715 42.1221 34.8447C42.3955 35.0133 42.7396 35.0976 43.1543 35.0976C43.4961 35.0976 43.79 35.027 44.0361 34.8857C44.2868 34.7399 44.4919 34.5416 44.6514 34.291C44.8154 34.0403 44.9362 33.7532 45.0137 33.4297C45.0911 33.1015 45.1299 32.7529 45.1299 32.3838ZM54.584 28.6035V29.5742H50.585V28.6035H54.584ZM51.9385 26.8056H53.2031V34.1679C53.2031 34.4186 53.2419 34.6077 53.3193 34.7353C53.3968 34.8629 53.4971 34.9472 53.6201 34.9883C53.7432 35.0293 53.8753 35.0498 54.0166 35.0498C54.1214 35.0498 54.2308 35.0407 54.3447 35.0224C54.4632 34.9996 54.5521 34.9814 54.6113 34.9677L54.6182 36C54.5179 36.0319 54.3857 36.0615 54.2217 36.0888C54.0622 36.1207 53.8685 36.1367 53.6406 36.1367C53.3307 36.1367 53.0459 36.0752 52.7861 35.9521C52.5264 35.8291 52.319 35.624 52.1641 35.3369C52.0137 35.0452 51.9385 34.6533 51.9385 34.1611V26.8056ZM57.332 25.5V36H56.0674V25.5H57.332ZM57.0312 32.0215L56.5049 32.0009C56.5094 31.4951 56.5846 31.028 56.7305 30.5996C56.8763 30.1666 57.0814 29.7907 57.3457 29.4716C57.61 29.1526 57.9245 28.9065 58.2891 28.7334C58.6582 28.5556 59.0661 28.4668 59.5127 28.4668C59.8773 28.4668 60.2054 28.5169 60.4971 28.6172C60.7887 28.7129 61.0371 28.8678 61.2422 29.082C61.4518 29.2962 61.6113 29.5742 61.7207 29.916C61.8301 30.2532 61.8848 30.6657 61.8848 31.1533V36H60.6133V31.1396C60.6133 30.7522 60.5563 30.4424 60.4424 30.2099C60.3285 29.973 60.1621 29.8021 59.9434 29.6972C59.7246 29.5879 59.4557 29.5332 59.1367 29.5332C58.8223 29.5332 58.5352 29.5993 58.2754 29.7314C58.0202 29.8636 57.7992 30.0459 57.6123 30.2783C57.43 30.5107 57.2865 30.7773 57.1816 31.0781C57.0814 31.3743 57.0312 31.6888 57.0312 32.0215ZM66.8477 36.1367C66.3327 36.1367 65.8656 36.0501 65.4463 35.8769C65.0316 35.6992 64.6738 35.4508 64.373 35.1318C64.0768 34.8128 63.849 34.4345 63.6895 33.997C63.5299 33.5595 63.4502 33.081 63.4502 32.5615V32.2744C63.4502 31.6728 63.5391 31.1373 63.7168 30.6679C63.8945 30.194 64.1361 29.7929 64.4414 29.4648C64.7467 29.1367 65.0931 28.8883 65.4805 28.7197C65.8678 28.5511 66.2689 28.4668 66.6836 28.4668C67.2122 28.4668 67.668 28.5579 68.0508 28.7402C68.4382 28.9225 68.7549 29.1777 69.001 29.5058C69.2471 29.8294 69.4294 30.2122 69.5479 30.6543C69.6663 31.0918 69.7256 31.5703 69.7256 32.0898V32.6572H64.2021V31.625H68.4609V31.5293C68.4427 31.2011 68.3743 30.8821 68.2559 30.5722C68.1419 30.2623 67.9596 30.0071 67.709 29.8066C67.4583 29.6061 67.1165 29.5058 66.6836 29.5058C66.3965 29.5058 66.1322 29.5674 65.8906 29.6904C65.6491 29.8089 65.4417 29.9866 65.2686 30.2236C65.0954 30.4606 64.9609 30.75 64.8652 31.0918C64.7695 31.4336 64.7217 31.8278 64.7217 32.2744V32.5615C64.7217 32.9124 64.7695 33.2428 64.8652 33.5527C64.9655 33.858 65.109 34.1269 65.2959 34.3593C65.4873 34.5918 65.7174 34.7741 65.9863 34.9062C66.2598 35.0384 66.5697 35.1045 66.916 35.1045C67.3626 35.1045 67.7409 35.0133 68.0508 34.831C68.3607 34.6487 68.6318 34.4049 68.8643 34.0996L69.6299 34.708C69.4704 34.9495 69.2676 35.1797 69.0215 35.3984C68.7754 35.6172 68.4723 35.7949 68.1123 35.9316C67.7568 36.0683 67.3353 36.1367 66.8477 36.1367ZM74.4287 28.665V27.8379C74.4287 27.5599 74.4743 27.2705 74.5654 26.9697C74.6611 26.6644 74.7979 26.3727 74.9756 26.0947C75.1533 25.8121 75.3675 25.5683 75.6182 25.3633L76.3359 25.8623C76.1263 26.1631 75.9645 26.473 75.8506 26.792C75.7367 27.1064 75.6797 27.4482 75.6797 27.8174V28.665H74.4287ZM76.582 28.665V27.8379C76.582 27.5599 76.6276 27.2705 76.7188 26.9697C76.8145 26.6644 76.9512 26.3727 77.1289 26.0947C77.3066 25.8121 77.5208 25.5683 77.7715 25.3633L78.4893 25.8623C78.2796 26.1631 78.1178 26.473 78.0039 26.792C77.89 27.1064 77.833 27.4482 77.833 27.8174V28.665H76.582ZM81.3945 30.0254V38.8437H79.4258V28.6035H81.251L81.3945 30.0254ZM86.0771 32.2197V32.3633C86.0771 32.901 86.0133 33.4 85.8857 33.8603C85.7627 34.3206 85.5804 34.7216 85.3389 35.0634C85.0973 35.4007 84.7965 35.665 84.4365 35.8564C84.0811 36.0433 83.6709 36.1367 83.2061 36.1367C82.7549 36.1367 82.363 36.0455 82.0303 35.8633C81.6976 35.681 81.4173 35.4258 81.1895 35.0976C80.9661 34.7649 80.7861 34.3799 80.6494 33.9424C80.5127 33.5049 80.4079 33.0355 80.335 32.5341V32.1582C80.4079 31.6204 80.5127 31.1282 80.6494 30.6816C80.7861 30.2304 80.9661 29.8408 81.1895 29.5127C81.4173 29.18 81.6953 28.9225 82.0234 28.7402C82.3561 28.5579 82.7458 28.4668 83.1924 28.4668C83.6618 28.4668 84.0742 28.5556 84.4297 28.7334C84.7897 28.9111 85.0905 29.1663 85.332 29.499C85.5781 29.8317 85.7627 30.2282 85.8857 30.6884C86.0133 31.1487 86.0771 31.6591 86.0771 32.2197ZM84.1016 32.3633V32.2197C84.1016 31.9052 84.0742 31.6159 84.0195 31.3515C83.9694 31.0827 83.8874 30.848 83.7734 30.6474C83.6641 30.4469 83.5182 30.292 83.3359 30.1826C83.1582 30.0687 82.9417 30.0117 82.6865 30.0117C82.4176 30.0117 82.1875 30.055 81.9961 30.1416C81.8092 30.2282 81.6566 30.3535 81.5381 30.5175C81.4196 30.6816 81.3307 30.8776 81.2715 31.1054C81.2122 31.3333 81.1758 31.5908 81.1621 31.8779V32.8281C81.1849 33.1653 81.2487 33.4684 81.3535 33.7373C81.4583 34.0016 81.6201 34.2112 81.8389 34.3662C82.0576 34.5211 82.3447 34.5986 82.7002 34.5986C82.96 34.5986 83.1787 34.5416 83.3564 34.4277C83.5342 34.3092 83.6777 34.1474 83.7871 33.9424C83.901 33.7373 83.9808 33.5003 84.0264 33.2314C84.0765 32.9625 84.1016 32.6731 84.1016 32.3633ZM89.3789 25.5V36H87.4033V25.5H89.3789ZM95.3809 34.2295V28.6035H97.3496V36H95.4971L95.3809 34.2295ZM95.5996 32.7119L96.1807 32.6982C96.1807 33.1904 96.1237 33.6484 96.0098 34.0722C95.8958 34.4915 95.7249 34.8561 95.4971 35.166C95.2692 35.4713 94.9821 35.7106 94.6357 35.8838C94.2894 36.0524 93.8815 36.1367 93.4121 36.1367C93.0521 36.1367 92.7194 36.0866 92.4141 35.9863C92.1133 35.8815 91.8535 35.7197 91.6348 35.5009C91.4206 35.2776 91.252 34.9928 91.1289 34.6465C91.0104 34.2955 90.9512 33.874 90.9512 33.3818V28.6035H92.9199V33.3955C92.9199 33.6142 92.945 33.7988 92.9951 33.9492C93.0498 34.0996 93.125 34.2226 93.2207 34.3183C93.3164 34.414 93.4281 34.4824 93.5557 34.5234C93.6878 34.5644 93.8337 34.5849 93.9932 34.5849C94.3988 34.5849 94.7178 34.5029 94.9502 34.3388C95.1872 34.1748 95.3535 33.9515 95.4492 33.6689C95.5495 33.3818 95.5996 33.0628 95.5996 32.7119ZM102.853 33.956C102.853 33.8147 102.812 33.6871 102.729 33.5732C102.647 33.4593 102.495 33.3545 102.271 33.2588C102.053 33.1585 101.736 33.0674 101.321 32.9853C100.948 32.9033 100.599 32.8008 100.275 32.6777C99.9564 32.5501 99.6784 32.3974 99.4414 32.2197C99.209 32.042 99.0267 31.8323 98.8945 31.5908C98.7624 31.3447 98.6963 31.0644 98.6963 30.75C98.6963 30.4401 98.7624 30.1484 98.8945 29.875C99.0312 29.6015 99.2249 29.36 99.4756 29.1504C99.7308 28.9362 100.041 28.7698 100.405 28.6513C100.774 28.5283 101.189 28.4668 101.649 28.4668C102.292 28.4668 102.843 28.5693 103.304 28.7744C103.769 28.9795 104.124 29.262 104.37 29.622C104.621 29.9775 104.746 30.3831 104.746 30.8388H102.777C102.777 30.6474 102.736 30.4765 102.654 30.3261C102.577 30.1712 102.454 30.0504 102.285 29.9638C102.121 29.8727 101.907 29.8271 101.643 29.8271C101.424 29.8271 101.235 29.8659 101.075 29.9433C100.916 30.0162 100.793 30.1165 100.706 30.2441C100.624 30.3672 100.583 30.5039 100.583 30.6543C100.583 30.7682 100.606 30.8707 100.651 30.9619C100.701 31.0485 100.781 31.1282 100.891 31.2011C101 31.2741 101.141 31.3424 101.314 31.4062C101.492 31.4655 101.711 31.5202 101.971 31.5703C102.504 31.6797 102.98 31.8232 103.399 32.0009C103.819 32.1741 104.151 32.4111 104.397 32.7119C104.644 33.0081 104.767 33.3978 104.767 33.8808C104.767 34.209 104.694 34.5097 104.548 34.7832C104.402 35.0566 104.192 35.2959 103.919 35.5009C103.646 35.7015 103.317 35.8587 102.935 35.9726C102.556 36.082 102.13 36.1367 101.656 36.1367C100.968 36.1367 100.385 36.0136 99.9062 35.7675C99.4323 35.5215 99.0723 35.2093 98.8262 34.831C98.5846 34.4482 98.4639 34.0563 98.4639 33.6552H100.33C100.339 33.9241 100.408 34.1406 100.535 34.3047C100.667 34.4687 100.834 34.5872 101.034 34.6601C101.239 34.733 101.46 34.7695 101.697 34.7695C101.952 34.7695 102.164 34.7353 102.333 34.667C102.502 34.594 102.629 34.4983 102.716 34.3799C102.807 34.2568 102.853 34.1155 102.853 33.956ZM107.932 25.5V26.539C107.932 26.8353 107.875 27.1406 107.761 27.455C107.651 27.7695 107.503 28.068 107.316 28.3506C107.13 28.6286 106.924 28.8655 106.701 29.0615L105.778 28.5283C105.947 28.2594 106.09 27.9677 106.209 27.6533C106.327 27.3343 106.387 26.9651 106.387 26.5459V25.5H107.932ZM110.29 25.5V26.539C110.29 26.8353 110.233 27.1406 110.119 27.455C110.01 27.7695 109.862 28.068 109.675 28.3506C109.488 28.6286 109.283 28.8655 109.06 29.0615L108.137 28.5283C108.305 28.2594 108.449 27.9677 108.567 27.6533C108.686 27.3343 108.745 26.9651 108.745 26.5459V25.5H110.29ZM116.805 28.6035V36H115.533V28.6035H116.805ZM115.438 26.6416C115.438 26.4365 115.499 26.2633 115.622 26.122C115.75 25.9808 115.937 25.9101 116.183 25.9101C116.424 25.9101 116.609 25.9808 116.736 26.122C116.868 26.2633 116.935 26.4365 116.935 26.6416C116.935 26.8375 116.868 27.0062 116.736 27.1474C116.609 27.2841 116.424 27.3525 116.183 27.3525C115.937 27.3525 115.75 27.2841 115.622 27.1474C115.499 27.0062 115.438 26.8375 115.438 26.6416ZM121.795 35.0976C122.096 35.0976 122.374 35.0361 122.629 34.9131C122.884 34.79 123.094 34.6214 123.258 34.4072C123.422 34.1884 123.515 33.9401 123.538 33.6621H124.741C124.718 34.0996 124.57 34.5075 124.297 34.8857C124.028 35.2594 123.675 35.5625 123.237 35.7949C122.8 36.0228 122.319 36.1367 121.795 36.1367C121.239 36.1367 120.754 36.0387 120.339 35.8427C119.929 35.6468 119.587 35.3779 119.313 35.0361C119.045 34.6943 118.842 34.3024 118.705 33.8603C118.573 33.4137 118.507 32.942 118.507 32.4453V32.1582C118.507 31.6614 118.573 31.192 118.705 30.75C118.842 30.3034 119.045 29.9091 119.313 29.5674C119.587 29.2256 119.929 28.9567 120.339 28.7607C120.754 28.5647 121.239 28.4668 121.795 28.4668C122.374 28.4668 122.88 28.5853 123.312 28.8222C123.745 29.0547 124.085 29.3737 124.331 29.7793C124.582 30.1803 124.718 30.636 124.741 31.1465H123.538C123.515 30.8411 123.429 30.5654 123.278 30.3193C123.132 30.0732 122.932 29.8772 122.677 29.7314C122.426 29.581 122.132 29.5058 121.795 29.5058C121.408 29.5058 121.082 29.5833 120.817 29.7383C120.558 29.8886 120.35 30.0937 120.195 30.3535C120.045 30.6087 119.936 30.8935 119.867 31.208C119.803 31.5179 119.771 31.8346 119.771 32.1582V32.4453C119.771 32.7688 119.803 33.0879 119.867 33.4023C119.931 33.7168 120.038 34.0016 120.188 34.2568C120.343 34.512 120.551 34.7171 120.811 34.872C121.075 35.0224 121.403 35.0976 121.795 35.0976ZM125.828 32.3838V32.2265C125.828 31.6933 125.906 31.1989 126.061 30.7431C126.215 30.2828 126.439 29.8841 126.73 29.5468C127.022 29.205 127.375 28.9407 127.79 28.7539C128.205 28.5625 128.67 28.4668 129.185 28.4668C129.704 28.4668 130.171 28.5625 130.586 28.7539C131.005 28.9407 131.361 29.205 131.652 29.5468C131.949 29.8841 132.174 30.2828 132.329 30.7431C132.484 31.1989 132.562 31.6933 132.562 32.2265V32.3838C132.562 32.917 132.484 33.4114 132.329 33.8672C132.174 34.3229 131.949 34.7216 131.652 35.0634C131.361 35.4007 131.007 35.665 130.593 35.8564C130.183 36.0433 129.718 36.1367 129.198 36.1367C128.679 36.1367 128.212 36.0433 127.797 35.8564C127.382 35.665 127.027 35.4007 126.73 35.0634C126.439 34.7216 126.215 34.3229 126.061 33.8672C125.906 33.4114 125.828 32.917 125.828 32.3838ZM127.093 32.2265V32.3838C127.093 32.7529 127.136 33.1015 127.223 33.4297C127.309 33.7532 127.439 34.0403 127.612 34.291C127.79 34.5416 128.011 34.7399 128.275 34.8857C128.54 35.027 128.847 35.0976 129.198 35.0976C129.545 35.0976 129.848 35.027 130.107 34.8857C130.372 34.7399 130.59 34.5416 130.764 34.291C130.937 34.0403 131.067 33.7532 131.153 33.4297C131.244 33.1015 131.29 32.7529 131.29 32.3838V32.2265C131.29 31.8619 131.244 31.5179 131.153 31.1943C131.067 30.8662 130.935 30.5768 130.757 30.3261C130.584 30.0709 130.365 29.8704 130.101 29.7246C129.841 29.5787 129.535 29.5058 129.185 29.5058C128.838 29.5058 128.533 29.5787 128.269 29.7246C128.009 29.8704 127.79 30.0709 127.612 30.3261C127.439 30.5768 127.309 30.8662 127.223 31.1943C127.136 31.5179 127.093 31.8619 127.093 32.2265ZM135.412 30.1826V36H134.147V28.6035H135.344L135.412 30.1826ZM135.111 32.0215L134.585 32.0009C134.59 31.4951 134.665 31.028 134.811 30.5996C134.956 30.1666 135.161 29.7907 135.426 29.4716C135.69 29.1526 136.005 28.9065 136.369 28.7334C136.738 28.5556 137.146 28.4668 137.593 28.4668C137.957 28.4668 138.285 28.5169 138.577 28.6172C138.869 28.7129 139.117 28.8678 139.322 29.082C139.532 29.2962 139.691 29.5742 139.801 29.916C139.91 30.2532 139.965 30.6657 139.965 31.1533V36H138.693V31.1396C138.693 30.7522 138.636 30.4424 138.522 30.2099C138.409 29.973 138.242 29.8021 138.023 29.6972C137.805 29.5879 137.536 29.5332 137.217 29.5332C136.902 29.5332 136.615 29.5993 136.355 29.7314C136.1 29.8636 135.879 30.0459 135.692 30.2783C135.51 30.5107 135.367 30.7773 135.262 31.0781C135.161 31.3743 135.111 31.6888 135.111 32.0215ZM145.023 32.3838V32.2265C145.023 31.6933 145.101 31.1989 145.256 30.7431C145.411 30.2828 145.634 29.8841 145.926 29.5468C146.217 29.205 146.571 28.9407 146.985 28.7539C147.4 28.5625 147.865 28.4668 148.38 28.4668C148.899 28.4668 149.367 28.5625 149.781 28.7539C150.201 28.9407 150.556 29.205 150.848 29.5468C151.144 29.8841 151.369 30.2828 151.524 30.7431C151.679 31.1989 151.757 31.6933 151.757 32.2265V32.3838C151.757 32.917 151.679 33.4114 151.524 33.8672C151.369 34.3229 151.144 34.7216 150.848 35.0634C150.556 35.4007 150.203 35.665 149.788 35.8564C149.378 36.0433 148.913 36.1367 148.394 36.1367C147.874 36.1367 147.407 36.0433 146.992 35.8564C146.577 35.665 146.222 35.4007 145.926 35.0634C145.634 34.7216 145.411 34.3229 145.256 33.8672C145.101 33.4114 145.023 32.917 145.023 32.3838ZM146.288 32.2265V32.3838C146.288 32.7529 146.331 33.1015 146.418 33.4297C146.505 33.7532 146.634 34.0403 146.808 34.291C146.985 34.5416 147.206 34.7399 147.471 34.8857C147.735 35.027 148.043 35.0976 148.394 35.0976C148.74 35.0976 149.043 35.027 149.303 34.8857C149.567 34.7399 149.786 34.5416 149.959 34.291C150.132 34.0403 150.262 33.7532 150.349 33.4297C150.44 33.1015 150.485 32.7529 150.485 32.3838V32.2265C150.485 31.8619 150.44 31.5179 150.349 31.1943C150.262 30.8662 150.13 30.5768 149.952 30.3261C149.779 30.0709 149.56 29.8704 149.296 29.7246C149.036 29.5787 148.731 29.5058 148.38 29.5058C148.034 29.5058 147.728 29.5787 147.464 29.7246C147.204 29.8704 146.985 30.0709 146.808 30.3261C146.634 30.5768 146.505 30.8662 146.418 31.1943C146.331 31.5179 146.288 31.8619 146.288 32.2265ZM154.607 30.1826V36H153.343V28.6035H154.539L154.607 30.1826ZM154.307 32.0215L153.78 32.0009C153.785 31.4951 153.86 31.028 154.006 30.5996C154.152 30.1666 154.357 29.7907 154.621 29.4716C154.885 29.1526 155.2 28.9065 155.564 28.7334C155.934 28.5556 156.341 28.4668 156.788 28.4668C157.153 28.4668 157.481 28.5169 157.772 28.6172C158.064 28.7129 158.312 28.8678 158.518 29.082C158.727 29.2962 158.887 29.5742 158.996 29.916C159.105 30.2532 159.16 30.6657 159.16 31.1533V36H157.889V31.1396C157.889 30.7522 157.832 30.4424 157.718 30.2099C157.604 29.973 157.438 29.8021 157.219 29.6972C157 29.5879 156.731 29.5332 156.412 29.5332C156.098 29.5332 155.811 29.5993 155.551 29.7314C155.296 29.8636 155.075 30.0459 154.888 30.2783C154.705 30.5107 154.562 30.7773 154.457 31.0781C154.357 31.3743 154.307 31.6888 154.307 32.0215ZM167.65 28.6035V29.5742H163.651V28.6035H167.65ZM165.005 26.8056H166.27V34.1679C166.27 34.4186 166.308 34.6077 166.386 34.7353C166.463 34.8629 166.563 34.9472 166.687 34.9883C166.81 35.0293 166.942 35.0498 167.083 35.0498C167.188 35.0498 167.297 35.0407 167.411 35.0224C167.53 34.9996 167.618 34.9814 167.678 34.9677L167.685 36C167.584 36.0319 167.452 36.0615 167.288 36.0888C167.129 36.1207 166.935 36.1367 166.707 36.1367C166.397 36.1367 166.112 36.0752 165.853 35.9521C165.593 35.8291 165.385 35.624 165.23 35.3369C165.08 35.0452 165.005 34.6533 165.005 34.1611V26.8056ZM168.662 32.3838V32.2265C168.662 31.6933 168.74 31.1989 168.895 30.7431C169.049 30.2828 169.273 29.8841 169.564 29.5468C169.856 29.205 170.209 28.9407 170.624 28.7539C171.039 28.5625 171.504 28.4668 172.019 28.4668C172.538 28.4668 173.005 28.5625 173.42 28.7539C173.839 28.9407 174.195 29.205 174.486 29.5468C174.783 29.8841 175.008 30.2828 175.163 30.7431C175.318 31.1989 175.396 31.6933 175.396 32.2265V32.3838C175.396 32.917 175.318 33.4114 175.163 33.8672C175.008 34.3229 174.783 34.7216 174.486 35.0634C174.195 35.4007 173.841 35.665 173.427 35.8564C173.017 36.0433 172.552 36.1367 172.032 36.1367C171.513 36.1367 171.046 36.0433 170.631 35.8564C170.216 35.665 169.861 35.4007 169.564 35.0634C169.273 34.7216 169.049 34.3229 168.895 33.8672C168.74 33.4114 168.662 32.917 168.662 32.3838ZM169.927 32.2265V32.3838C169.927 32.7529 169.97 33.1015 170.057 33.4297C170.143 33.7532 170.273 34.0403 170.446 34.291C170.624 34.5416 170.845 34.7399 171.109 34.8857C171.374 35.027 171.681 35.0976 172.032 35.0976C172.379 35.0976 172.682 35.027 172.941 34.8857C173.206 34.7399 173.424 34.5416 173.598 34.291C173.771 34.0403 173.901 33.7532 173.987 33.4297C174.078 33.1015 174.124 32.7529 174.124 32.3838V32.2265C174.124 31.8619 174.078 31.5179 173.987 31.1943C173.901 30.8662 173.769 30.5768 173.591 30.3261C173.418 30.0709 173.199 29.8704 172.935 29.7246C172.675 29.5787 172.369 29.5058 172.019 29.5058C171.672 29.5058 171.367 29.5787 171.103 29.7246C170.843 29.8704 170.624 30.0709 170.446 30.3261C170.273 30.5768 170.143 30.8662 170.057 31.1943C169.97 31.5179 169.927 31.8619 169.927 32.2265ZM178.246 30.0254V38.8437H176.975V28.6035H178.137L178.246 30.0254ZM183.229 32.2402V32.3838C183.229 32.9215 183.166 33.4205 183.038 33.8808C182.91 34.3366 182.724 34.733 182.478 35.0703C182.236 35.4075 181.938 35.6696 181.582 35.8564C181.227 36.0433 180.819 36.1367 180.358 36.1367C179.889 36.1367 179.474 36.0592 179.114 35.9043C178.754 35.7493 178.449 35.5237 178.198 35.2275C177.948 34.9313 177.747 34.5758 177.597 34.1611C177.451 33.7464 177.351 33.2793 177.296 32.7597V31.9941C177.351 31.4472 177.453 30.9573 177.604 30.5244C177.754 30.0914 177.952 29.7223 178.198 29.417C178.449 29.1071 178.752 28.8724 179.107 28.7129C179.463 28.5488 179.873 28.4668 180.338 28.4668C180.803 28.4668 181.215 28.5579 181.575 28.7402C181.935 28.9179 182.238 29.1731 182.484 29.5058C182.73 29.8385 182.915 30.2373 183.038 30.7021C183.166 31.1624 183.229 31.6751 183.229 32.2402ZM181.958 32.3838V32.2402C181.958 31.8711 181.919 31.5247 181.842 31.2011C181.764 30.873 181.644 30.5859 181.479 30.3398C181.32 30.0892 181.115 29.8932 180.864 29.7519C180.614 29.6061 180.315 29.5332 179.969 29.5332C179.65 29.5332 179.372 29.5879 179.135 29.6972C178.902 29.8066 178.704 29.9547 178.54 30.1416C178.376 30.3239 178.242 30.5335 178.137 30.7705C178.036 31.0029 177.961 31.2444 177.911 31.4951V33.2656C178.002 33.5846 178.13 33.8854 178.294 34.1679C178.458 34.4459 178.677 34.6715 178.95 34.8447C179.224 35.0133 179.568 35.0976 179.982 35.0976C180.324 35.0976 180.618 35.027 180.864 34.8857C181.115 34.7399 181.32 34.5416 181.479 34.291C181.644 34.0403 181.764 33.7532 181.842 33.4297C181.919 33.1015 181.958 32.7529 181.958 32.3838ZM189.58 29.7656V36H188.315V28.6035H189.546L189.58 29.7656ZM191.891 28.5625L191.884 29.7383C191.779 29.7155 191.679 29.7018 191.583 29.6972C191.492 29.6881 191.387 29.6836 191.269 29.6836C190.977 29.6836 190.719 29.7291 190.496 29.8203C190.273 29.9114 190.084 30.039 189.929 30.2031C189.774 30.3672 189.651 30.5631 189.56 30.791C189.473 31.0143 189.416 31.2604 189.389 31.5293L189.033 31.7343C189.033 31.2877 189.076 30.8685 189.163 30.4765C189.254 30.0846 189.393 29.7383 189.58 29.4375C189.767 29.1321 190.004 28.8952 190.291 28.7265C190.583 28.5534 190.929 28.4668 191.33 28.4668C191.421 28.4668 191.526 28.4782 191.645 28.5009C191.763 28.5192 191.845 28.5397 191.891 28.5625ZM194.434 28.6035V36H193.162V28.6035H194.434ZM193.066 26.6416C193.066 26.4365 193.128 26.2633 193.251 26.122C193.379 25.9808 193.565 25.9101 193.812 25.9101C194.053 25.9101 194.238 25.9808 194.365 26.122C194.497 26.2633 194.563 26.4365 194.563 26.6416C194.563 26.8375 194.497 27.0062 194.365 27.1474C194.238 27.2841 194.053 27.3525 193.812 27.3525C193.565 27.3525 193.379 27.2841 193.251 27.1474C193.128 27.0062 193.066 26.8375 193.066 26.6416ZM201.256 28.6035H202.404V35.8427C202.404 36.4944 202.272 37.0504 202.008 37.5107C201.743 37.971 201.374 38.3196 200.9 38.5566C200.431 38.7981 199.889 38.9189 199.273 38.9189C199.018 38.9189 198.717 38.8779 198.371 38.7959C198.029 38.7184 197.692 38.584 197.359 38.3925C197.031 38.2057 196.756 37.9528 196.532 37.6338L197.195 36.8818C197.505 37.2555 197.829 37.5153 198.166 37.6611C198.508 37.8069 198.845 37.8799 199.178 37.8799C199.579 37.8799 199.925 37.8047 200.217 37.6543C200.508 37.5039 200.734 37.2806 200.894 36.9843C201.058 36.6927 201.14 36.3327 201.14 35.9043V30.2304L201.256 28.6035ZM196.163 32.3838V32.2402C196.163 31.6751 196.229 31.1624 196.361 30.7021C196.498 30.2373 196.692 29.8385 196.942 29.5058C197.198 29.1731 197.505 28.9179 197.865 28.7402C198.225 28.5579 198.631 28.4668 199.082 28.4668C199.547 28.4668 199.952 28.5488 200.299 28.7129C200.65 28.8724 200.946 29.1071 201.188 29.417C201.434 29.7223 201.627 30.0914 201.769 30.5244C201.91 30.9573 202.008 31.4472 202.062 31.9941V32.623C202.012 33.1653 201.914 33.653 201.769 34.0859C201.627 34.5188 201.434 34.888 201.188 35.1933C200.946 35.4987 200.65 35.7334 200.299 35.8974C199.948 36.0569 199.538 36.1367 199.068 36.1367C198.626 36.1367 198.225 36.0433 197.865 35.8564C197.51 35.6696 197.204 35.4075 196.949 35.0703C196.694 34.733 196.498 34.3366 196.361 33.8808C196.229 33.4205 196.163 32.9215 196.163 32.3838ZM197.428 32.2402V32.3838C197.428 32.7529 197.464 33.0993 197.537 33.4228C197.615 33.7464 197.731 34.0312 197.886 34.2773C198.045 34.5234 198.248 34.7171 198.494 34.8584C198.74 34.9951 199.034 35.0634 199.376 35.0634C199.795 35.0634 200.142 34.9746 200.415 34.7968C200.688 34.6191 200.905 34.3844 201.064 34.0927C201.229 33.8011 201.356 33.4843 201.447 33.1425V31.4951C201.397 31.2444 201.32 31.0029 201.215 30.7705C201.115 30.5335 200.982 30.3239 200.818 30.1416C200.659 29.9547 200.461 29.8066 200.224 29.6972C199.987 29.5879 199.709 29.5332 199.39 29.5332C199.043 29.5332 198.745 29.6061 198.494 29.7519C198.248 29.8932 198.045 30.0892 197.886 30.3398C197.731 30.5859 197.615 30.873 197.537 31.2011C197.464 31.5247 197.428 31.8711 197.428 32.2402ZM205.59 25.5V36H204.325V25.5H205.59ZM205.289 32.0215L204.763 32.0009C204.767 31.4951 204.842 31.028 204.988 30.5996C205.134 30.1666 205.339 29.7907 205.604 29.4716C205.868 29.1526 206.182 28.9065 206.547 28.7334C206.916 28.5556 207.324 28.4668 207.771 28.4668C208.135 28.4668 208.463 28.5169 208.755 28.6172C209.047 28.7129 209.295 28.8678 209.5 29.082C209.71 29.2962 209.869 29.5742 209.979 29.916C210.088 30.2532 210.143 30.6657 210.143 31.1533V36H208.871V31.1396C208.871 30.7522 208.814 30.4424 208.7 30.2099C208.586 29.973 208.42 29.8021 208.201 29.6972C207.982 29.5879 207.714 29.5332 207.395 29.5332C207.08 29.5332 206.793 29.5993 206.533 29.7314C206.278 29.8636 206.057 30.0459 205.87 30.2783C205.688 30.5107 205.544 30.7773 205.439 31.0781C205.339 31.3743 205.289 31.6888 205.289 32.0215ZM215.133 28.6035V29.5742H211.134V28.6035H215.133ZM212.487 26.8056H213.752V34.1679C213.752 34.4186 213.791 34.6077 213.868 34.7353C213.946 34.8629 214.046 34.9472 214.169 34.9883C214.292 35.0293 214.424 35.0498 214.565 35.0498C214.67 35.0498 214.78 35.0407 214.894 35.0224C215.012 34.9996 215.101 34.9814 215.16 34.9677L215.167 36C215.067 36.0319 214.935 36.0615 214.771 36.0888C214.611 36.1207 214.417 36.1367 214.189 36.1367C213.88 36.1367 213.595 36.0752 213.335 35.9521C213.075 35.8291 212.868 35.624 212.713 35.3369C212.562 35.0452 212.487 34.6533 212.487 34.1611V26.8056ZM219.754 32.3838V32.2265C219.754 31.6933 219.831 31.1989 219.986 30.7431C220.141 30.2828 220.365 29.8841 220.656 29.5468C220.948 29.205 221.301 28.9407 221.716 28.7539C222.131 28.5625 222.595 28.4668 223.11 28.4668C223.63 28.4668 224.097 28.5625 224.512 28.7539C224.931 28.9407 225.286 29.205 225.578 29.5468C225.874 29.8841 226.1 30.2828 226.255 30.7431C226.41 31.1989 226.487 31.6933 226.487 32.2265V32.3838C226.487 32.917 226.41 33.4114 226.255 33.8672C226.1 34.3229 225.874 34.7216 225.578 35.0634C225.286 35.4007 224.933 35.665 224.519 35.8564C224.108 36.0433 223.644 36.1367 223.124 36.1367C222.604 36.1367 222.137 36.0433 221.723 35.8564C221.308 35.665 220.952 35.4007 220.656 35.0634C220.365 34.7216 220.141 34.3229 219.986 33.8672C219.831 33.4114 219.754 32.917 219.754 32.3838ZM221.019 32.2265V32.3838C221.019 32.7529 221.062 33.1015 221.148 33.4297C221.235 33.7532 221.365 34.0403 221.538 34.291C221.716 34.5416 221.937 34.7399 222.201 34.8857C222.465 35.027 222.773 35.0976 223.124 35.0976C223.47 35.0976 223.773 35.027 224.033 34.8857C224.298 34.7399 224.516 34.5416 224.689 34.291C224.863 34.0403 224.993 33.7532 225.079 33.4297C225.17 33.1015 225.216 32.7529 225.216 32.3838V32.2265C225.216 31.8619 225.17 31.5179 225.079 31.1943C224.993 30.8662 224.86 30.5768 224.683 30.3261C224.509 30.0709 224.291 29.8704 224.026 29.7246C223.767 29.5787 223.461 29.5058 223.11 29.5058C222.764 29.5058 222.459 29.5787 222.194 29.7246C221.935 29.8704 221.716 30.0709 221.538 30.3261C221.365 30.5768 221.235 30.8662 221.148 31.1943C221.062 31.5179 221.019 31.8619 221.019 32.2265ZM229.96 36H228.695V27.8242C228.695 27.291 228.791 26.8421 228.982 26.4775C229.178 26.1084 229.459 25.8304 229.823 25.6435C230.188 25.4521 230.621 25.3564 231.122 25.3564C231.268 25.3564 231.414 25.3655 231.56 25.3838C231.71 25.402 231.856 25.4293 231.997 25.4658L231.929 26.498C231.833 26.4752 231.724 26.4593 231.601 26.4502C231.482 26.4411 231.364 26.4365 231.245 26.4365C230.976 26.4365 230.744 26.4912 230.548 26.6006C230.356 26.7054 230.211 26.8603 230.11 27.0654C230.01 27.2705 229.96 27.5234 229.96 27.8242V36ZM231.532 28.6035V29.5742H227.526V28.6035H231.532ZM239.51 28.6035V29.5742H235.511V28.6035H239.51ZM236.864 26.8056H238.129V34.1679C238.129 34.4186 238.168 34.6077 238.245 34.7353C238.323 34.8629 238.423 34.9472 238.546 34.9883C238.669 35.0293 238.801 35.0498 238.942 35.0498C239.047 35.0498 239.157 35.0407 239.271 35.0224C239.389 34.9996 239.478 34.9814 239.537 34.9677L239.544 36C239.444 36.0319 239.312 36.0615 239.147 36.0888C238.988 36.1207 238.794 36.1367 238.566 36.1367C238.257 36.1367 237.972 36.0752 237.712 35.9521C237.452 35.8291 237.245 35.624 237.09 35.3369C236.939 35.0452 236.864 34.6533 236.864 34.1611V26.8056ZM242.258 25.5V36H240.993V25.5H242.258ZM241.957 32.0215L241.431 32.0009C241.435 31.4951 241.51 31.028 241.656 30.5996C241.802 30.1666 242.007 29.7907 242.271 29.4716C242.536 29.1526 242.85 28.9065 243.215 28.7334C243.584 28.5556 243.992 28.4668 244.438 28.4668C244.803 28.4668 245.131 28.5169 245.423 28.6172C245.715 28.7129 245.963 28.8678 246.168 29.082C246.378 29.2962 246.537 29.5742 246.646 29.916C246.756 30.2532 246.811 30.6657 246.811 31.1533V36H245.539V31.1396C245.539 30.7522 245.482 30.4424 245.368 30.2099C245.254 29.973 245.088 29.8021 244.869 29.6972C244.65 29.5879 244.382 29.5332 244.062 29.5332C243.748 29.5332 243.461 29.5993 243.201 29.7314C242.946 29.8636 242.725 30.0459 242.538 30.2783C242.356 30.5107 242.212 30.7773 242.107 31.0781C242.007 31.3743 241.957 31.6888 241.957 32.0215ZM250.078 28.6035V36H248.807V28.6035H250.078ZM248.711 26.6416C248.711 26.4365 248.772 26.2633 248.896 26.122C249.023 25.9808 249.21 25.9101 249.456 25.9101C249.698 25.9101 249.882 25.9808 250.01 26.122C250.142 26.2633 250.208 26.4365 250.208 26.6416C250.208 26.8375 250.142 27.0062 250.01 27.1474C249.882 27.2841 249.698 27.3525 249.456 27.3525C249.21 27.3525 249.023 27.2841 248.896 27.1474C248.772 27.0062 248.711 26.8375 248.711 26.6416ZM256.415 34.0381C256.415 33.8558 256.374 33.6871 256.292 33.5322C256.215 33.3727 256.053 33.2291 255.807 33.1015C255.565 32.9694 255.201 32.8554 254.713 32.7597C254.303 32.6731 253.931 32.5706 253.599 32.4521C253.271 32.3336 252.99 32.1901 252.758 32.0215C252.53 31.8528 252.354 31.6546 252.231 31.4267C252.108 31.1989 252.047 30.9323 252.047 30.6269C252.047 30.3353 252.111 30.0595 252.238 29.7998C252.37 29.54 252.555 29.3099 252.792 29.1093C253.034 28.9088 253.323 28.7516 253.66 28.6377C253.997 28.5237 254.373 28.4668 254.788 28.4668C255.381 28.4668 255.886 28.5716 256.306 28.7812C256.725 28.9909 257.046 29.2711 257.27 29.622C257.493 29.9684 257.604 30.3535 257.604 30.7773H256.34C256.34 30.5722 256.278 30.374 256.155 30.1826C256.037 29.9866 255.861 29.8248 255.629 29.6972C255.401 29.5696 255.121 29.5058 254.788 29.5058C254.437 29.5058 254.152 29.5605 253.934 29.6699C253.719 29.7747 253.562 29.9091 253.462 30.0732C253.366 30.2373 253.318 30.4105 253.318 30.5927C253.318 30.7295 253.341 30.8525 253.387 30.9619C253.437 31.0667 253.523 31.1647 253.646 31.2558C253.77 31.3424 253.943 31.4244 254.166 31.5019C254.389 31.5794 254.674 31.6569 255.021 31.7343C255.627 31.8711 256.126 32.0351 256.518 32.2265C256.91 32.4179 257.201 32.6526 257.393 32.9306C257.584 33.2086 257.68 33.5459 257.68 33.9424C257.68 34.2659 257.611 34.5621 257.475 34.831C257.342 35.0999 257.149 35.3323 256.894 35.5283C256.643 35.7197 256.342 35.8701 255.991 35.9795C255.645 36.0843 255.255 36.1367 254.822 36.1367C254.171 36.1367 253.619 36.0205 253.168 35.7881C252.717 35.5556 252.375 35.2549 252.143 34.8857C251.91 34.5166 251.794 34.1269 251.794 33.7168H253.065C253.084 34.0631 253.184 34.3388 253.366 34.5439C253.549 34.7444 253.772 34.888 254.036 34.9746C254.3 35.0566 254.562 35.0976 254.822 35.0976C255.169 35.0976 255.458 35.0521 255.69 34.9609C255.927 34.8698 256.107 34.7444 256.23 34.5849C256.354 34.4254 256.415 34.2431 256.415 34.0381ZM267.12 34.0381C267.12 33.8558 267.079 33.6871 266.997 33.5322C266.92 33.3727 266.758 33.2291 266.512 33.1015C266.27 32.9694 265.906 32.8554 265.418 32.7597C265.008 32.6731 264.636 32.5706 264.304 32.4521C263.976 32.3336 263.695 32.1901 263.463 32.0215C263.235 31.8528 263.06 31.6546 262.937 31.4267C262.813 31.1989 262.752 30.9323 262.752 30.6269C262.752 30.3353 262.816 30.0595 262.943 29.7998C263.076 29.54 263.26 29.3099 263.497 29.1093C263.739 28.9088 264.028 28.7516 264.365 28.6377C264.702 28.5237 265.078 28.4668 265.493 28.4668C266.086 28.4668 266.591 28.5716 267.011 28.7812C267.43 28.9909 267.751 29.2711 267.975 29.622C268.198 29.9684 268.31 30.3535 268.31 30.7773H267.045C267.045 30.5722 266.983 30.374 266.86 30.1826C266.742 29.9866 266.566 29.8248 266.334 29.6972C266.106 29.5696 265.826 29.5058 265.493 29.5058C265.142 29.5058 264.857 29.5605 264.639 29.6699C264.424 29.7747 264.267 29.9091 264.167 30.0732C264.071 30.2373 264.023 30.4105 264.023 30.5927C264.023 30.7295 264.046 30.8525 264.092 30.9619C264.142 31.0667 264.229 31.1647 264.352 31.2558C264.475 31.3424 264.648 31.4244 264.871 31.5019C265.094 31.5794 265.379 31.6569 265.726 31.7343C266.332 31.8711 266.831 32.0351 267.223 32.2265C267.615 32.4179 267.906 32.6526 268.098 32.9306C268.289 33.2086 268.385 33.5459 268.385 33.9424C268.385 34.2659 268.316 34.5621 268.18 34.831C268.048 35.0999 267.854 35.3323 267.599 35.5283C267.348 35.7197 267.047 35.8701 266.696 35.9795C266.35 36.0843 265.96 36.1367 265.527 36.1367C264.876 36.1367 264.324 36.0205 263.873 35.7881C263.422 35.5556 263.08 35.2549 262.848 34.8857C262.615 34.5166 262.499 34.1269 262.499 33.7168H263.771C263.789 34.0631 263.889 34.3388 264.071 34.5439C264.254 34.7444 264.477 34.888 264.741 34.9746C265.006 35.0566 265.268 35.0976 265.527 35.0976C265.874 35.0976 266.163 35.0521 266.396 34.9609C266.632 34.8698 266.812 34.7444 266.936 34.5849C267.059 34.4254 267.12 34.2431 267.12 34.0381ZM273.006 35.0976C273.307 35.0976 273.585 35.0361 273.84 34.9131C274.095 34.79 274.305 34.6214 274.469 34.4072C274.633 34.1884 274.726 33.9401 274.749 33.6621H275.952C275.929 34.0996 275.781 34.5075 275.508 34.8857C275.239 35.2594 274.886 35.5625 274.448 35.7949C274.011 36.0228 273.53 36.1367 273.006 36.1367C272.45 36.1367 271.965 36.0387 271.55 35.8427C271.14 35.6468 270.798 35.3779 270.524 35.0361C270.256 34.6943 270.053 34.3024 269.916 33.8603C269.784 33.4137 269.718 32.942 269.718 32.4453V32.1582C269.718 31.6614 269.784 31.192 269.916 30.75C270.053 30.3034 270.256 29.9091 270.524 29.5674C270.798 29.2256 271.14 28.9567 271.55 28.7607C271.965 28.5647 272.45 28.4668 273.006 28.4668C273.585 28.4668 274.09 28.5853 274.523 28.8222C274.956 29.0547 275.296 29.3737 275.542 29.7793C275.793 30.1803 275.929 30.636 275.952 31.1465H274.749C274.726 30.8411 274.64 30.5654 274.489 30.3193C274.343 30.0732 274.143 29.8772 273.888 29.7314C273.637 29.581 273.343 29.5058 273.006 29.5058C272.618 29.5058 272.293 29.5833 272.028 29.7383C271.769 29.8886 271.561 30.0937 271.406 30.3535C271.256 30.6087 271.146 30.8935 271.078 31.208C271.014 31.5179 270.982 31.8346 270.982 32.1582V32.4453C270.982 32.7688 271.014 33.0879 271.078 33.4023C271.142 33.7168 271.249 34.0016 271.399 34.2568C271.554 34.512 271.762 34.7171 272.021 34.872C272.286 35.0224 272.614 35.0976 273.006 35.0976ZM278.639 29.7656V36H277.374V28.6035H278.604L278.639 29.7656ZM280.949 28.5625L280.942 29.7383C280.838 29.7155 280.737 29.7018 280.642 29.6972C280.55 29.6881 280.446 29.6836 280.327 29.6836C280.035 29.6836 279.778 29.7291 279.555 29.8203C279.331 29.9114 279.142 30.039 278.987 30.2031C278.832 30.3672 278.709 30.5631 278.618 30.791C278.532 31.0143 278.475 31.2604 278.447 31.5293L278.092 31.7343C278.092 31.2877 278.135 30.8685 278.222 30.4765C278.313 30.0846 278.452 29.7383 278.639 29.4375C278.826 29.1321 279.062 28.8952 279.35 28.7265C279.641 28.5534 279.988 28.4668 280.389 28.4668C280.48 28.4668 280.585 28.4782 280.703 28.5009C280.822 28.5192 280.904 28.5397 280.949 28.5625ZM285.051 36.1367C284.536 36.1367 284.069 36.0501 283.649 35.8769C283.235 35.6992 282.877 35.4508 282.576 35.1318C282.28 34.8128 282.052 34.4345 281.893 33.997C281.733 33.5595 281.653 33.081 281.653 32.5615V32.2744C281.653 31.6728 281.742 31.1373 281.92 30.6679C282.098 30.194 282.339 29.7929 282.645 29.4648C282.95 29.1367 283.296 28.8883 283.684 28.7197C284.071 28.5511 284.472 28.4668 284.887 28.4668C285.415 28.4668 285.871 28.5579 286.254 28.7402C286.641 28.9225 286.958 29.1777 287.204 29.5058C287.45 29.8294 287.632 30.2122 287.751 30.6543C287.869 31.0918 287.929 31.5703 287.929 32.0898V32.6572H282.405V31.625H286.664V31.5293C286.646 31.2011 286.577 30.8821 286.459 30.5722C286.345 30.2623 286.163 30.0071 285.912 29.8066C285.661 29.6061 285.32 29.5058 284.887 29.5058C284.6 29.5058 284.335 29.5674 284.094 29.6904C283.852 29.8089 283.645 29.9866 283.472 30.2236C283.299 30.4606 283.164 30.75 283.068 31.0918C282.973 31.4336 282.925 31.8278 282.925 32.2744V32.5615C282.925 32.9124 282.973 33.2428 283.068 33.5527C283.169 33.858 283.312 34.1269 283.499 34.3593C283.69 34.5918 283.921 34.7741 284.189 34.9062C284.463 35.0384 284.773 35.1045 285.119 35.1045C285.566 35.1045 285.944 35.0133 286.254 34.831C286.564 34.6487 286.835 34.4049 287.067 34.0996L287.833 34.708C287.674 34.9495 287.471 35.1797 287.225 35.3984C286.979 35.6172 286.675 35.7949 286.315 35.9316C285.96 36.0683 285.538 36.1367 285.051 36.1367ZM292.475 36.1367C291.96 36.1367 291.493 36.0501 291.073 35.8769C290.659 35.6992 290.301 35.4508 290 35.1318C289.704 34.8128 289.476 34.4345 289.316 33.997C289.157 33.5595 289.077 33.081 289.077 32.5615V32.2744C289.077 31.6728 289.166 31.1373 289.344 30.6679C289.521 30.194 289.763 29.7929 290.068 29.4648C290.374 29.1367 290.72 28.8883 291.107 28.7197C291.495 28.5511 291.896 28.4668 292.311 28.4668C292.839 28.4668 293.295 28.5579 293.678 28.7402C294.065 28.9225 294.382 29.1777 294.628 29.5058C294.874 29.8294 295.056 30.2122 295.175 30.6543C295.293 31.0918 295.353 31.5703 295.353 32.0898V32.6572H289.829V31.625H294.088V31.5293C294.07 31.2011 294.001 30.8821 293.883 30.5722C293.769 30.2623 293.587 30.0071 293.336 29.8066C293.085 29.6061 292.743 29.5058 292.311 29.5058C292.023 29.5058 291.759 29.5674 291.518 29.6904C291.276 29.8089 291.069 29.9866 290.896 30.2236C290.722 30.4606 290.588 30.75 290.492 31.0918C290.396 31.4336 290.349 31.8278 290.349 32.2744V32.5615C290.349 32.9124 290.396 33.2428 290.492 33.5527C290.592 33.858 290.736 34.1269 290.923 34.3593C291.114 34.5918 291.344 34.7741 291.613 34.9062C291.887 35.0384 292.197 35.1045 292.543 35.1045C292.99 35.1045 293.368 35.0133 293.678 34.831C293.988 34.6487 294.259 34.4049 294.491 34.0996L295.257 34.708C295.097 34.9495 294.895 35.1797 294.648 35.3984C294.402 35.6172 294.099 35.7949 293.739 35.9316C293.384 36.0683 292.962 36.1367 292.475 36.1367ZM298.094 30.1826V36H296.829V28.6035H298.025L298.094 30.1826ZM297.793 32.0215L297.267 32.0009C297.271 31.4951 297.346 31.028 297.492 30.5996C297.638 30.1666 297.843 29.7907 298.107 29.4716C298.372 29.1526 298.686 28.9065 299.051 28.7334C299.42 28.5556 299.828 28.4668 300.274 28.4668C300.639 28.4668 300.967 28.5169 301.259 28.6172C301.55 28.7129 301.799 28.8678 302.004 29.082C302.214 29.2962 302.373 29.5742 302.482 29.916C302.592 30.2532 302.646 30.6657 302.646 31.1533V36H301.375V31.1396C301.375 30.7522 301.318 30.4424 301.204 30.2099C301.09 29.973 300.924 29.8021 300.705 29.6972C300.486 29.5879 300.217 29.5332 299.898 29.5332C299.584 29.5332 299.297 29.5993 299.037 29.7314C298.782 29.8636 298.561 30.0459 298.374 30.2783C298.192 30.5107 298.048 30.7773 297.943 31.0781C297.843 31.3743 297.793 31.6888 297.793 32.0215ZM28.0605 52.6035V53.5742H24.0615V52.6035H28.0605ZM25.415 50.8056H26.6797V58.1679C26.6797 58.4186 26.7184 58.6077 26.7959 58.7353C26.8734 58.8629 26.9736 58.9472 27.0967 58.9883C27.2197 59.0293 27.3519 59.0498 27.4932 59.0498C27.598 59.0498 27.7074 59.0407 27.8213 59.0224C27.9398 58.9996 28.0286 58.9814 28.0879 58.9677L28.0947 60C27.9945 60.0319 27.8623 60.0615 27.6982 60.0888C27.5387 60.1207 27.3451 60.1367 27.1172 60.1367C26.8073 60.1367 26.5225 60.0752 26.2627 59.9521C26.0029 59.8291 25.7956 59.624 25.6406 59.3369C25.4902 59.0452 25.415 58.6533 25.415 58.1611V50.8056ZM29.0723 56.3838V56.2265C29.0723 55.6933 29.1497 55.1989 29.3047 54.7431C29.4596 54.2828 29.6829 53.8841 29.9746 53.5468C30.2663 53.205 30.6195 52.9407 31.0342 52.7539C31.4489 52.5625 31.9137 52.4668 32.4287 52.4668C32.9482 52.4668 33.4154 52.5625 33.8301 52.7539C34.2493 52.9407 34.6048 53.205 34.8965 53.5468C35.1927 53.8841 35.4183 54.2828 35.5732 54.7431C35.7282 55.1989 35.8057 55.6933 35.8057 56.2265V56.3838C35.8057 56.917 35.7282 57.4114 35.5732 57.8672C35.4183 58.3229 35.1927 58.7216 34.8965 59.0634C34.6048 59.4007 34.2516 59.665 33.8369 59.8564C33.4268 60.0433 32.9619 60.1367 32.4424 60.1367C31.9229 60.1367 31.4557 60.0433 31.041 59.8564C30.6263 59.665 30.2708 59.4007 29.9746 59.0634C29.6829 58.7216 29.4596 58.3229 29.3047 57.8672C29.1497 57.4114 29.0723 56.917 29.0723 56.3838ZM30.3369 56.2265V56.3838C30.3369 56.7529 30.3802 57.1015 30.4668 57.4297C30.5534 57.7532 30.6833 58.0403 30.8564 58.291C31.0342 58.5416 31.2552 58.7399 31.5195 58.8857C31.7839 59.027 32.0915 59.0976 32.4424 59.0976C32.7887 59.0976 33.0918 59.027 33.3516 58.8857C33.6159 58.7399 33.8346 58.5416 34.0078 58.291C34.181 58.0403 34.3109 57.7532 34.3975 57.4297C34.4886 57.1015 34.5342 56.7529 34.5342 56.3838V56.2265C34.5342 55.8619 34.4886 55.5179 34.3975 55.1943C34.3109 54.8662 34.1787 54.5768 34.001 54.3261C33.8278 54.0709 33.609 53.8704 33.3447 53.7246C33.085 53.5787 32.7796 53.5058 32.4287 53.5058C32.0824 53.5058 31.777 53.5787 31.5127 53.7246C31.2529 53.8704 31.0342 54.0709 30.8564 54.3261C30.6833 54.5768 30.5534 54.8662 30.4668 55.1943C30.3802 55.5179 30.3369 55.8619 30.3369 56.2265ZM43.8242 59.0976C44.125 59.0976 44.403 59.0361 44.6582 58.9131C44.9134 58.79 45.123 58.6214 45.2871 58.4072C45.4512 58.1884 45.5446 57.9401 45.5674 57.6621H46.7705C46.7477 58.0996 46.5996 58.5075 46.3262 58.8857C46.0573 59.2594 45.7041 59.5625 45.2666 59.7949C44.8291 60.0228 44.3483 60.1367 43.8242 60.1367C43.2682 60.1367 42.7829 60.0387 42.3682 59.8427C41.958 59.6468 41.6162 59.3779 41.3428 59.0361C41.0739 58.6943 40.8711 58.3024 40.7344 57.8603C40.6022 57.4137 40.5361 56.942 40.5361 56.4453V56.1582C40.5361 55.6614 40.6022 55.192 40.7344 54.75C40.8711 54.3034 41.0739 53.9091 41.3428 53.5674C41.6162 53.2256 41.958 52.9567 42.3682 52.7607C42.7829 52.5647 43.2682 52.4668 43.8242 52.4668C44.403 52.4668 44.9089 52.5853 45.3418 52.8222C45.7747 53.0547 46.1143 53.3737 46.3604 53.7793C46.611 54.1803 46.7477 54.636 46.7705 55.1465H45.5674C45.5446 54.8411 45.458 54.5654 45.3076 54.3193C45.1618 54.0732 44.9613 53.8772 44.7061 53.7314C44.4554 53.581 44.1615 53.5058 43.8242 53.5058C43.4368 53.5058 43.111 53.5833 42.8467 53.7383C42.5869 53.8886 42.3796 54.0937 42.2246 54.3535C42.0742 54.6087 41.9648 54.8935 41.8965 55.208C41.8327 55.5179 41.8008 55.8346 41.8008 56.1582V56.4453C41.8008 56.7688 41.8327 57.0879 41.8965 57.4023C41.9603 57.7168 42.0674 58.0016 42.2178 58.2568C42.3727 58.512 42.5801 58.7171 42.8398 58.872C43.1042 59.0224 43.4323 59.0976 43.8242 59.0976ZM49.457 53.7656V60H48.1924V52.6035H49.4229L49.457 53.7656ZM51.7676 52.5625L51.7607 53.7383C51.6559 53.7155 51.5557 53.7018 51.46 53.6972C51.3688 53.6881 51.264 53.6836 51.1455 53.6836C50.8538 53.6836 50.5964 53.7291 50.373 53.8203C50.1497 53.9114 49.9606 54.039 49.8057 54.2031C49.6507 54.3672 49.5277 54.5631 49.4365 54.791C49.3499 55.0143 49.293 55.2604 49.2656 55.5293L48.9102 55.7343C48.9102 55.2877 48.9535 54.8685 49.04 54.4765C49.1312 54.0846 49.2702 53.7383 49.457 53.4375C49.6439 53.1321 49.8809 52.8952 50.168 52.7265C50.4596 52.5534 50.806 52.4668 51.207 52.4668C51.2982 52.4668 51.403 52.4782 51.5215 52.5009C51.64 52.5192 51.722 52.5397 51.7676 52.5625ZM55.8691 60.1367C55.3542 60.1367 54.887 60.0501 54.4678 59.8769C54.0531 59.6992 53.6953 59.4508 53.3945 59.1318C53.0983 58.8128 52.8704 58.4345 52.7109 57.997C52.5514 57.5595 52.4717 57.081 52.4717 56.5615V56.2744C52.4717 55.6728 52.5605 55.1373 52.7383 54.6679C52.916 54.194 53.1576 53.7929 53.4629 53.4648C53.7682 53.1367 54.1146 52.8883 54.502 52.7197C54.8893 52.5511 55.2904 52.4668 55.7051 52.4668C56.2337 52.4668 56.6895 52.5579 57.0723 52.7402C57.4596 52.9225 57.7764 53.1777 58.0225 53.5058C58.2686 53.8294 58.4508 54.2122 58.5693 54.6543C58.6878 55.0918 58.7471 55.5703 58.7471 56.0898V56.6572H53.2236V55.625H57.4824V55.5293C57.4642 55.2011 57.3958 54.8821 57.2773 54.5722C57.1634 54.2623 56.9811 54.0071 56.7305 53.8066C56.4798 53.6061 56.138 53.5058 55.7051 53.5058C55.418 53.5058 55.1536 53.5674 54.9121 53.6904C54.6706 53.8089 54.4632 53.9866 54.29 54.2236C54.1169 54.4606 53.9824 54.75 53.8867 55.0918C53.791 55.4336 53.7432 55.8278 53.7432 56.2744V56.5615C53.7432 56.9124 53.791 57.2428 53.8867 57.5527C53.987 57.858 54.1305 58.1269 54.3174 58.3593C54.5088 58.5918 54.7389 58.7741 55.0078 58.9062C55.2812 59.0384 55.5911 59.1045 55.9375 59.1045C56.3841 59.1045 56.7624 59.0133 57.0723 58.831C57.3822 58.6487 57.6533 58.4049 57.8857 58.0996L58.6514 58.708C58.4919 58.9495 58.2891 59.1797 58.043 59.3984C57.7969 59.6172 57.4938 59.7949 57.1338 59.9316C56.7783 60.0683 56.3568 60.1367 55.8691 60.1367ZM64.585 58.7353V54.9277C64.585 54.636 64.5257 54.3831 64.4072 54.1689C64.2933 53.9502 64.1201 53.7815 63.8877 53.6631C63.6553 53.5446 63.3682 53.4853 63.0264 53.4853C62.7074 53.4853 62.4271 53.54 62.1855 53.6494C61.9486 53.7588 61.7617 53.9023 61.625 54.08C61.4928 54.2578 61.4268 54.4492 61.4268 54.6543H60.1621C60.1621 54.3899 60.2305 54.1279 60.3672 53.8681C60.5039 53.6084 60.6999 53.3737 60.9551 53.164C61.2148 52.9498 61.5247 52.7812 61.8848 52.6582C62.2493 52.5306 62.6549 52.4668 63.1016 52.4668C63.6393 52.4668 64.1133 52.5579 64.5234 52.7402C64.9382 52.9225 65.2617 53.1982 65.4941 53.5674C65.7311 53.9319 65.8496 54.3899 65.8496 54.9414V58.3867C65.8496 58.6328 65.8701 58.8948 65.9111 59.1728C65.9567 59.4508 66.0228 59.6901 66.1094 59.8906V60H64.79C64.7262 59.8541 64.6761 59.6605 64.6396 59.4189C64.6032 59.1728 64.585 58.945 64.585 58.7353ZM64.8037 55.5156L64.8174 56.4043H63.5391C63.179 56.4043 62.8577 56.4339 62.5752 56.4931C62.2926 56.5478 62.0557 56.6321 61.8643 56.7461C61.6729 56.86 61.527 57.0036 61.4268 57.1767C61.3265 57.3453 61.2764 57.5436 61.2764 57.7715C61.2764 58.0039 61.3288 58.2158 61.4336 58.4072C61.5384 58.5986 61.6956 58.7513 61.9053 58.8652C62.1195 58.9746 62.3815 59.0293 62.6914 59.0293C63.0788 59.0293 63.4206 58.9472 63.7168 58.7832C64.013 58.6191 64.2477 58.4186 64.4209 58.1816C64.5986 57.9446 64.6943 57.7145 64.708 57.4912L65.248 58.0996C65.2161 58.291 65.1296 58.5029 64.9883 58.7353C64.847 58.9677 64.6579 59.1911 64.4209 59.4052C64.1885 59.6149 63.9105 59.7903 63.5869 59.9316C63.2679 60.0683 62.9079 60.1367 62.5068 60.1367C62.0055 60.1367 61.5658 60.0387 61.1875 59.8427C60.8138 59.6468 60.5221 59.3847 60.3125 59.0566C60.1074 58.7239 60.0049 58.3525 60.0049 57.9424C60.0049 57.5459 60.0824 57.1972 60.2373 56.8965C60.3923 56.5911 60.6156 56.3382 60.9072 56.1377C61.1989 55.9326 61.5498 55.7776 61.96 55.6728C62.3701 55.568 62.8281 55.5156 63.334 55.5156H64.8037ZM70.9355 52.6035V53.5742H66.9365V52.6035H70.9355ZM68.29 50.8056H69.5547V58.1679C69.5547 58.4186 69.5934 58.6077 69.6709 58.7353C69.7484 58.8629 69.8486 58.9472 69.9717 58.9883C70.0947 59.0293 70.2269 59.0498 70.3682 59.0498C70.473 59.0498 70.5824 59.0407 70.6963 59.0224C70.8148 58.9996 70.9036 58.9814 70.9629 58.9677L70.9697 60C70.8695 60.0319 70.7373 60.0615 70.5732 60.0888C70.4137 60.1207 70.2201 60.1367 69.9922 60.1367C69.6823 60.1367 69.3975 60.0752 69.1377 59.9521C68.8779 59.8291 68.6706 59.624 68.5156 59.3369C68.3652 59.0452 68.29 58.6533 68.29 58.1611V50.8056ZM75.4883 60.1367C74.9733 60.1367 74.5062 60.0501 74.0869 59.8769C73.6722 59.6992 73.3145 59.4508 73.0137 59.1318C72.7174 58.8128 72.4896 58.4345 72.3301 57.997C72.1706 57.5595 72.0908 57.081 72.0908 56.5615V56.2744C72.0908 55.6728 72.1797 55.1373 72.3574 54.6679C72.5352 54.194 72.7767 53.7929 73.082 53.4648C73.3874 53.1367 73.7337 52.8883 74.1211 52.7197C74.5085 52.5511 74.9095 52.4668 75.3242 52.4668C75.8529 52.4668 76.3086 52.5579 76.6914 52.7402C77.0788 52.9225 77.3955 53.1777 77.6416 53.5058C77.8877 53.8294 78.07 54.2122 78.1885 54.6543C78.307 55.0918 78.3662 55.5703 78.3662 56.0898V56.6572H72.8428V55.625H77.1016V55.5293C77.0833 55.2011 77.015 54.8821 76.8965 54.5722C76.7826 54.2623 76.6003 54.0071 76.3496 53.8066C76.099 53.6061 75.7572 53.5058 75.3242 53.5058C75.0371 53.5058 74.7728 53.5674 74.5312 53.6904C74.2897 53.8089 74.0824 53.9866 73.9092 54.2236C73.736 54.4606 73.6016 54.75 73.5059 55.0918C73.4102 55.4336 73.3623 55.8278 73.3623 56.2744V56.5615C73.3623 56.9124 73.4102 57.2428 73.5059 57.5527C73.6061 57.858 73.7497 58.1269 73.9365 58.3593C74.1279 58.5918 74.3581 58.7741 74.627 58.9062C74.9004 59.0384 75.2103 59.1045 75.5566 59.1045C76.0033 59.1045 76.3815 59.0133 76.6914 58.831C77.0013 58.6487 77.2725 58.4049 77.5049 58.0996L78.2705 58.708C78.111 58.9495 77.9082 59.1797 77.6621 59.3984C77.416 59.6172 77.113 59.7949 76.7529 59.9316C76.3975 60.0683 75.9759 60.1367 75.4883 60.1367ZM85.3936 59.2343L87.4512 52.6035H88.8047L85.8379 61.1416C85.7695 61.3239 85.6784 61.5198 85.5645 61.7295C85.4551 61.9437 85.3138 62.1465 85.1406 62.3379C84.9674 62.5293 84.7578 62.6842 84.5117 62.8027C84.2702 62.9258 83.9808 62.9873 83.6436 62.9873C83.5433 62.9873 83.4157 62.9736 83.2607 62.9463C83.1058 62.9189 82.9964 62.8961 82.9326 62.8779L82.9258 61.8525C82.9622 61.8571 83.0192 61.8616 83.0967 61.8662C83.1787 61.8753 83.2357 61.8799 83.2676 61.8799C83.5547 61.8799 83.7985 61.8411 83.999 61.7636C84.1995 61.6907 84.3682 61.5654 84.5049 61.3877C84.6462 61.2145 84.7669 60.9752 84.8672 60.6699L85.3936 59.2343ZM83.8828 52.6035L85.8037 58.3457L86.1318 59.6787L85.2227 60.1435L82.502 52.6035H83.8828ZM89.502 56.3838V56.2265C89.502 55.6933 89.5794 55.1989 89.7344 54.7431C89.8893 54.2828 90.1126 53.8841 90.4043 53.5468C90.696 53.205 91.0492 52.9407 91.4639 52.7539C91.8786 52.5625 92.3434 52.4668 92.8584 52.4668C93.3779 52.4668 93.8451 52.5625 94.2598 52.7539C94.679 52.9407 95.0345 53.205 95.3262 53.5468C95.6224 53.8841 95.848 54.2828 96.0029 54.7431C96.1579 55.1989 96.2354 55.6933 96.2354 56.2265V56.3838C96.2354 56.917 96.1579 57.4114 96.0029 57.8672C95.848 58.3229 95.6224 58.7216 95.3262 59.0634C95.0345 59.4007 94.6813 59.665 94.2666 59.8564C93.8564 60.0433 93.3916 60.1367 92.8721 60.1367C92.3525 60.1367 91.8854 60.0433 91.4707 59.8564C91.056 59.665 90.7005 59.4007 90.4043 59.0634C90.1126 58.7216 89.8893 58.3229 89.7344 57.8672C89.5794 57.4114 89.502 56.917 89.502 56.3838ZM90.7666 56.2265V56.3838C90.7666 56.7529 90.8099 57.1015 90.8965 57.4297C90.9831 57.7532 91.113 58.0403 91.2861 58.291C91.4639 58.5416 91.6849 58.7399 91.9492 58.8857C92.2135 59.027 92.5212 59.0976 92.8721 59.0976C93.2184 59.0976 93.5215 59.027 93.7812 58.8857C94.0456 58.7399 94.2643 58.5416 94.4375 58.291C94.6107 58.0403 94.7406 57.7532 94.8271 57.4297C94.9183 57.1015 94.9639 56.7529 94.9639 56.3838V56.2265C94.9639 55.8619 94.9183 55.5179 94.8271 55.1943C94.7406 54.8662 94.6084 54.5768 94.4307 54.3261C94.2575 54.0709 94.0387 53.8704 93.7744 53.7246C93.5146 53.5787 93.2093 53.5058 92.8584 53.5058C92.512 53.5058 92.2067 53.5787 91.9424 53.7246C91.6826 53.8704 91.4639 54.0709 91.2861 54.3261C91.113 54.5768 90.9831 54.8662 90.8965 55.1943C90.8099 55.5179 90.7666 55.8619 90.7666 56.2265ZM102.347 58.291V52.6035H103.618V60H102.408L102.347 58.291ZM102.586 56.7324L103.112 56.7187C103.112 57.2109 103.06 57.6666 102.955 58.0859C102.855 58.5006 102.691 58.8606 102.463 59.166C102.235 59.4713 101.937 59.7106 101.567 59.8838C101.198 60.0524 100.749 60.1367 100.221 60.1367C99.8607 60.1367 99.5303 60.0843 99.2295 59.9795C98.9333 59.8746 98.6781 59.7129 98.4639 59.4941C98.2497 59.2754 98.0833 58.9905 97.9648 58.6396C97.8509 58.2887 97.7939 57.8672 97.7939 57.375V52.6035H99.0586V57.3886C99.0586 57.7213 99.0951 57.997 99.168 58.2158C99.2454 58.43 99.348 58.6009 99.4756 58.7285C99.6077 58.8515 99.7536 58.9381 99.9131 58.9883C100.077 59.0384 100.246 59.0634 100.419 59.0634C100.957 59.0634 101.383 58.9609 101.697 58.7558C102.012 58.5462 102.237 58.2659 102.374 57.915C102.515 57.5595 102.586 57.1653 102.586 56.7324ZM106.811 53.7656V60H105.546V52.6035H106.776L106.811 53.7656ZM109.121 52.5625L109.114 53.7383C109.009 53.7155 108.909 53.7018 108.813 53.6972C108.722 53.6881 108.618 53.6836 108.499 53.6836C108.207 53.6836 107.95 53.7291 107.727 53.8203C107.503 53.9114 107.314 54.039 107.159 54.2031C107.004 54.3672 106.881 54.5631 106.79 54.791C106.703 55.0143 106.646 55.2604 106.619 55.5293L106.264 55.7343C106.264 55.2877 106.307 54.8685 106.394 54.4765C106.485 54.0846 106.624 53.7383 106.811 53.4375C106.997 53.1321 107.234 52.8952 107.521 52.7265C107.813 52.5534 108.16 52.4668 108.561 52.4668C108.652 52.4668 108.757 52.4782 108.875 52.5009C108.993 52.5192 109.076 52.5397 109.121 52.5625ZM115.451 60H114.187V51.9609C114.187 51.4004 114.296 50.9264 114.515 50.539C114.733 50.1517 115.046 49.8577 115.451 49.6572C115.857 49.4567 116.338 49.3564 116.894 49.3564C117.222 49.3564 117.543 49.3974 117.857 49.4795C118.172 49.5569 118.495 49.6549 118.828 49.7734L118.616 50.8398C118.407 50.7578 118.163 50.6803 117.885 50.6074C117.611 50.5299 117.311 50.4912 116.982 50.4912C116.44 50.4912 116.048 50.6142 115.807 50.8603C115.57 51.1019 115.451 51.4687 115.451 51.9609V60ZM116.962 52.6035V53.5742H113.018V52.6035H116.962ZM119.45 52.6035V60H118.186V52.6035H119.45ZM122.793 53.7656V60H121.528V52.6035H122.759L122.793 53.7656ZM125.104 52.5625L125.097 53.7383C124.992 53.7155 124.892 53.7018 124.796 53.6972C124.705 53.6881 124.6 53.6836 124.481 53.6836C124.19 53.6836 123.932 53.7291 123.709 53.8203C123.486 53.9114 123.297 54.039 123.142 54.2031C122.987 54.3672 122.864 54.5631 122.772 54.791C122.686 55.0143 122.629 55.2604 122.602 55.5293L122.246 55.7343C122.246 55.2877 122.289 54.8685 122.376 54.4765C122.467 54.0846 122.606 53.7383 122.793 53.4375C122.98 53.1321 123.217 52.8952 123.504 52.7265C123.796 52.5534 124.142 52.4668 124.543 52.4668C124.634 52.4668 124.739 52.4782 124.857 52.5009C124.976 52.5192 125.058 52.5397 125.104 52.5625ZM130.579 58.0381C130.579 57.8558 130.538 57.6871 130.456 57.5322C130.379 57.3727 130.217 57.2291 129.971 57.1015C129.729 56.9694 129.365 56.8554 128.877 56.7597C128.467 56.6731 128.095 56.5706 127.763 56.4521C127.435 56.3336 127.154 56.1901 126.922 56.0215C126.694 55.8528 126.519 55.6546 126.396 55.4267C126.272 55.1989 126.211 54.9323 126.211 54.6269C126.211 54.3353 126.275 54.0595 126.402 53.7998C126.535 53.54 126.719 53.3099 126.956 53.1093C127.198 52.9088 127.487 52.7516 127.824 52.6377C128.161 52.5237 128.537 52.4668 128.952 52.4668C129.545 52.4668 130.05 52.5716 130.47 52.7812C130.889 52.9909 131.21 53.2711 131.434 53.622C131.657 53.9684 131.769 54.3535 131.769 54.7773H130.504C130.504 54.5722 130.442 54.374 130.319 54.1826C130.201 53.9866 130.025 53.8248 129.793 53.6972C129.565 53.5696 129.285 53.5058 128.952 53.5058C128.601 53.5058 128.316 53.5605 128.098 53.6699C127.883 53.7747 127.726 53.9091 127.626 54.0732C127.53 54.2373 127.482 54.4105 127.482 54.5927C127.482 54.7295 127.505 54.8525 127.551 54.9619C127.601 55.0667 127.688 55.1647 127.811 55.2558C127.934 55.3424 128.107 55.4244 128.33 55.5019C128.553 55.5794 128.838 55.6569 129.185 55.7343C129.791 55.8711 130.29 56.0351 130.682 56.2265C131.074 56.4179 131.365 56.6526 131.557 56.9306C131.748 57.2086 131.844 57.5459 131.844 57.9424C131.844 58.2659 131.775 58.5621 131.639 58.831C131.507 59.0999 131.313 59.3323 131.058 59.5283C130.807 59.7197 130.506 59.8701 130.155 59.9795C129.809 60.0843 129.419 60.1367 128.986 60.1367C128.335 60.1367 127.783 60.0205 127.332 59.7881C126.881 59.5556 126.539 59.2549 126.307 58.8857C126.074 58.5166 125.958 58.1269 125.958 57.7168H127.229C127.248 58.0631 127.348 58.3388 127.53 58.5439C127.713 58.7444 127.936 58.888 128.2 58.9746C128.465 59.0566 128.727 59.0976 128.986 59.0976C129.333 59.0976 129.622 59.0521 129.854 58.9609C130.091 58.8698 130.271 58.7444 130.395 58.5849C130.518 58.4254 130.579 58.2431 130.579 58.0381ZM136.602 52.6035V53.5742H132.603V52.6035H136.602ZM133.956 50.8056H135.221V58.1679C135.221 58.4186 135.259 58.6077 135.337 58.7353C135.414 58.8629 135.515 58.9472 135.638 58.9883C135.761 59.0293 135.893 59.0498 136.034 59.0498C136.139 59.0498 136.248 59.0407 136.362 59.0224C136.481 58.9996 136.57 58.9814 136.629 58.9677L136.636 60C136.535 60.0319 136.403 60.0615 136.239 60.0888C136.08 60.1207 135.886 60.1367 135.658 60.1367C135.348 60.1367 135.063 60.0752 134.804 59.9521C134.544 59.8291 134.337 59.624 134.182 59.3369C134.031 59.0452 133.956 58.6533 133.956 58.1611V50.8056ZM142.932 49.5V60H141.66V49.5H142.932ZM144.627 56.3838V56.2265C144.627 55.6933 144.704 55.1989 144.859 54.7431C145.014 54.2828 145.238 53.8841 145.529 53.5468C145.821 53.205 146.174 52.9407 146.589 52.7539C147.004 52.5625 147.468 52.4668 147.983 52.4668C148.503 52.4668 148.97 52.5625 149.385 52.7539C149.804 52.9407 150.16 53.205 150.451 53.5468C150.747 53.8841 150.973 54.2828 151.128 54.7431C151.283 55.1989 151.36 55.6933 151.36 56.2265V56.3838C151.36 56.917 151.283 57.4114 151.128 57.8672C150.973 58.3229 150.747 58.7216 150.451 59.0634C150.16 59.4007 149.806 59.665 149.392 59.8564C148.981 60.0433 148.517 60.1367 147.997 60.1367C147.478 60.1367 147.01 60.0433 146.596 59.8564C146.181 59.665 145.826 59.4007 145.529 59.0634C145.238 58.7216 145.014 58.3229 144.859 57.8672C144.704 57.4114 144.627 56.917 144.627 56.3838ZM145.892 56.2265V56.3838C145.892 56.7529 145.935 57.1015 146.021 57.4297C146.108 57.7532 146.238 58.0403 146.411 58.291C146.589 58.5416 146.81 58.7399 147.074 58.8857C147.339 59.027 147.646 59.0976 147.997 59.0976C148.343 59.0976 148.646 59.027 148.906 58.8857C149.171 58.7399 149.389 58.5416 149.562 58.291C149.736 58.0403 149.866 57.7532 149.952 57.4297C150.043 57.1015 150.089 56.7529 150.089 56.3838V56.2265C150.089 55.8619 150.043 55.5179 149.952 55.1943C149.866 54.8662 149.733 54.5768 149.556 54.3261C149.382 54.0709 149.164 53.8704 148.899 53.7246C148.64 53.5787 148.334 53.5058 147.983 53.5058C147.637 53.5058 147.332 53.5787 147.067 53.7246C146.808 53.8704 146.589 54.0709 146.411 54.3261C146.238 54.5768 146.108 54.8662 146.021 55.1943C145.935 55.5179 145.892 55.8619 145.892 56.2265ZM157.738 52.6035H158.887V59.8427C158.887 60.4944 158.755 61.0504 158.49 61.5107C158.226 61.971 157.857 62.3196 157.383 62.5566C156.913 62.7981 156.371 62.9189 155.756 62.9189C155.501 62.9189 155.2 62.8779 154.854 62.7959C154.512 62.7184 154.174 62.584 153.842 62.3925C153.514 62.2057 153.238 61.9528 153.015 61.6338L153.678 60.8818C153.988 61.2555 154.311 61.5153 154.648 61.6611C154.99 61.8069 155.327 61.8799 155.66 61.8799C156.061 61.8799 156.408 61.8047 156.699 61.6543C156.991 61.5039 157.216 61.2806 157.376 60.9843C157.54 60.6927 157.622 60.3327 157.622 59.9043V54.2304L157.738 52.6035ZM152.646 56.3838V56.2402C152.646 55.6751 152.712 55.1624 152.844 54.7021C152.98 54.2373 153.174 53.8385 153.425 53.5058C153.68 53.1731 153.988 52.9179 154.348 52.7402C154.708 52.5579 155.113 52.4668 155.564 52.4668C156.029 52.4668 156.435 52.5488 156.781 52.7129C157.132 52.8724 157.428 53.1071 157.67 53.417C157.916 53.7223 158.11 54.0914 158.251 54.5244C158.392 54.9573 158.49 55.4472 158.545 55.9941V56.623C158.495 57.1653 158.397 57.653 158.251 58.0859C158.11 58.5188 157.916 58.888 157.67 59.1933C157.428 59.4987 157.132 59.7334 156.781 59.8974C156.43 60.0569 156.02 60.1367 155.551 60.1367C155.109 60.1367 154.708 60.0433 154.348 59.8564C153.992 59.6696 153.687 59.4075 153.432 59.0703C153.176 58.733 152.98 58.3366 152.844 57.8808C152.712 57.4205 152.646 56.9215 152.646 56.3838ZM153.91 56.2402V56.3838C153.91 56.7529 153.947 57.0993 154.02 57.4228C154.097 57.7464 154.213 58.0312 154.368 58.2773C154.528 58.5234 154.73 58.7171 154.977 58.8584C155.223 58.9951 155.517 59.0634 155.858 59.0634C156.278 59.0634 156.624 58.9746 156.897 58.7968C157.171 58.6191 157.387 58.3844 157.547 58.0927C157.711 57.8011 157.839 57.4843 157.93 57.1425V55.4951C157.88 55.2444 157.802 55.0029 157.697 54.7705C157.597 54.5335 157.465 54.3239 157.301 54.1416C157.141 53.9547 156.943 53.8066 156.706 53.6972C156.469 53.5879 156.191 53.5332 155.872 53.5332C155.526 53.5332 155.227 53.6061 154.977 53.7519C154.73 53.8932 154.528 54.0892 154.368 54.3398C154.213 54.5859 154.097 54.873 154.02 55.2011C153.947 55.5247 153.91 55.8711 153.91 56.2402ZM160.828 59.33C160.828 59.1159 160.894 58.9358 161.026 58.79C161.163 58.6396 161.359 58.5644 161.614 58.5644C161.869 58.5644 162.063 58.6396 162.195 58.79C162.332 58.9358 162.4 59.1159 162.4 59.33C162.4 59.5397 162.332 59.7174 162.195 59.8633C162.063 60.0091 161.869 60.082 161.614 60.082C161.359 60.082 161.163 60.0091 161.026 59.8633C160.894 59.7174 160.828 59.5397 160.828 59.33Z" fill="black"/>
<path d="M275.098 59.6552C275.06 59.726 274.841 59.7546 274.602 59.7005C274.251 59.6223 274.15 59.6633 273.986 59.9698C273.859 60.2056 273.859 60.3533 273.984 60.4129C274.084 60.4605 274.128 60.5848 274.077 60.6791C274.014 60.797 274.108 60.9155 274.358 61.0346C274.584 61.1419 274.722 61.296 274.702 61.42C274.683 61.5735 274.871 61.7219 275.485 62.0138C276.125 62.3176 276.319 62.3657 276.395 62.2242C276.446 62.1299 276.521 62.077 276.571 62.1008C276.628 62.1424 276.879 62.2616 277.136 62.3689C277.48 62.518 277.65 62.5245 277.713 62.4066C277.764 62.3123 277.908 62.2774 278.021 62.3311C278.147 62.3906 278.479 62.4156 278.749 62.3812C279.02 62.3468 279.352 62.3718 279.465 62.4254C279.591 62.485 279.735 62.4501 279.786 62.3558C279.849 62.2379 280.006 62.2385 280.257 62.3576C280.508 62.4768 280.665 62.4774 280.728 62.3595C280.791 62.2416 280.961 62.2482 281.261 62.3912C281.562 62.5341 281.732 62.5407 281.795 62.4228C281.846 62.3285 282.003 62.2996 282.141 62.3651C282.279 62.4306 282.524 62.4434 282.674 62.3968C282.825 62.3501 283.114 62.3394 283.315 62.3757C283.522 62.4001 283.755 62.3774 283.818 62.3186C283.9 62.2539 284.025 62.2249 284.088 62.2547C284.151 62.2845 284.345 62.2734 284.496 62.2267C284.647 62.1801 284.892 62.1929 285.03 62.2584C285.168 62.3239 285.325 62.295 285.376 62.2007C285.439 62.0828 285.596 62.0834 285.847 62.2026C286.097 62.3217 286.254 62.3223 286.318 62.2044C286.368 62.1101 286.525 62.0812 286.663 62.1467C286.801 62.2122 286.958 62.1833 287.009 62.089C287.066 61.9829 287.267 61.9601 287.511 62.0319C287.756 62.1038 287.957 62.081 288.014 61.9748C288.065 61.8805 288.197 61.8397 288.297 61.8873C288.397 61.935 288.554 61.9061 288.643 61.8296C288.731 61.7532 288.938 61.7481 289.114 61.8315C289.314 61.9268 289.465 61.9097 289.522 61.8036C289.572 61.7093 289.73 61.6804 289.867 61.7459C290.005 61.8114 290.162 61.7825 290.213 61.6882C290.264 61.5939 290.383 61.5471 290.458 61.5828C290.54 61.6363 290.791 61.6078 290.999 61.5436C291.206 61.4794 291.457 61.4509 291.526 61.4984C291.614 61.5401 291.759 61.5053 291.847 61.4288C291.935 61.3524 292.092 61.3235 292.192 61.3711C292.293 61.4188 292.425 61.3779 292.475 61.2836C292.526 61.1893 292.658 61.1485 292.758 61.1961C292.859 61.2438 292.991 61.203 293.041 61.1086C293.104 60.9907 293.261 60.9914 293.512 61.1105C293.763 61.2296 293.92 61.2303 293.983 61.1124C294.034 61.018 294.166 60.9772 294.266 61.0249C294.366 61.0725 294.498 61.0317 294.549 60.9374C294.6 60.8431 294.769 60.7906 294.926 60.8207C295.083 60.8509 295.253 60.7984 295.304 60.7041C295.354 60.6098 295.486 60.5689 295.586 60.6166C295.687 60.6642 295.819 60.6234 295.869 60.5291C295.92 60.4348 296.052 60.3939 296.152 60.4416C296.253 60.4893 296.385 60.4484 296.435 60.3541C296.486 60.2598 296.643 60.2309 296.781 60.2964C296.919 60.3619 297.434 60.2813 297.937 60.106C298.446 59.9485 298.93 59.8382 299.006 59.874C299.093 59.9157 299.213 59.8689 299.263 59.7746C299.314 59.6802 299.446 59.6394 299.546 59.6871C299.647 59.7347 299.779 59.6939 299.829 59.5996C299.88 59.5053 300.012 59.4644 300.112 59.5121C300.212 59.5597 300.344 59.5189 300.395 59.4246C300.446 59.3303 300.54 59.2716 300.615 59.3073C300.691 59.3431 300.948 59.3027 301.212 59.2211C301.476 59.1394 301.715 59.0163 301.747 58.9573C301.785 58.8866 301.898 58.8812 301.998 58.9288C302.099 58.9765 302.231 58.9356 302.281 58.8413C302.332 58.747 302.464 58.7062 302.564 58.7538C302.664 58.8015 302.796 58.7607 302.847 58.6663C302.898 58.572 303.03 58.5312 303.13 58.5788C303.23 58.6265 303.356 58.5975 303.394 58.5267C303.438 58.4442 303.64 58.3327 303.834 58.2922C304.036 58.2398 304.243 58.1166 304.294 58.0222C304.344 57.9279 304.476 57.8871 304.577 57.9348C304.677 57.9824 304.822 57.918 304.891 57.7883C304.961 57.6586 305.106 57.5942 305.206 57.6419C305.306 57.6895 305.438 57.6487 305.489 57.5544C305.539 57.4601 305.671 57.4192 305.772 57.4669C305.872 57.5145 306.004 57.4737 306.055 57.3794C306.105 57.2851 306.237 57.2442 306.338 57.2919C306.438 57.3396 306.564 57.3105 306.602 57.2398C306.646 57.1573 306.816 57.0457 306.967 56.999C307.118 56.9524 307.413 56.8413 307.639 56.7713C307.86 56.6836 308.08 56.5367 308.131 56.4424C308.181 56.3481 308.313 56.3073 308.413 56.3549C308.514 56.4026 308.646 56.3618 308.696 56.2674C308.747 56.1731 308.879 56.1323 308.979 56.1799C309.08 56.2276 309.224 56.1632 309.294 56.0335C309.363 55.9038 309.508 55.8394 309.608 55.8871C309.721 55.9407 309.897 55.8469 310.049 55.6525C310.2 55.4582 310.376 55.3643 310.489 55.418C310.59 55.4656 310.722 55.4248 310.772 55.3305C310.823 55.2361 310.955 55.1953 311.055 55.243C311.181 55.3025 311.306 55.2144 311.433 54.9786C311.559 54.7428 311.685 54.6547 311.811 54.7143C311.911 54.762 312.056 54.6975 312.125 54.5679C312.195 54.4382 312.327 54.3678 312.402 54.4035C312.49 54.4452 312.805 54.2988 313.101 54.0696C313.397 53.8404 313.711 53.6939 313.786 53.7297C313.874 53.7714 314.063 53.654 314.202 53.4832C314.353 53.2889 314.529 53.195 314.642 53.2486C314.742 53.2963 314.881 53.2437 314.938 53.1376C314.988 53.0137 315.171 52.8786 315.334 52.8379C315.498 52.7972 315.681 52.662 315.725 52.5499C315.788 52.432 315.927 52.3794 316.027 52.4271C316.127 52.4747 316.272 52.4103 316.335 52.2924C316.405 52.1627 316.587 52.0276 316.744 51.9691C316.895 51.9225 317.072 51.7991 317.122 51.7048C317.179 51.5987 317.261 51.534 317.311 51.5579C317.374 51.5876 317.701 51.4176 318.066 51.1769C318.438 50.9539 318.778 50.6716 318.828 50.5773C318.879 50.483 319.011 50.4422 319.111 50.4898C319.237 50.5494 319.363 50.4613 319.489 50.2255C319.615 49.9897 319.741 49.9016 319.867 49.9612C319.992 50.0207 320.118 49.9326 320.245 49.6968C320.358 49.4846 320.522 49.3553 320.654 49.3735C320.786 49.3918 320.95 49.2625 321.044 49.0856C321.133 48.891 321.391 48.703 321.599 48.6388C321.806 48.5747 322.064 48.3867 322.147 48.2039C322.248 48.0152 322.412 47.8859 322.543 47.9041C322.675 47.9224 322.839 47.7931 322.953 47.5809C323.079 47.3451 323.205 47.2569 323.331 47.3165C323.468 47.382 323.595 47.2644 323.803 46.8753C324.012 46.4863 324.138 46.3686 324.276 46.4341C324.401 46.4937 324.527 46.4056 324.666 46.1462C324.78 45.934 325.007 45.6868 325.19 45.6107C325.359 45.5287 325.561 45.3582 325.631 45.2285C325.7 45.0988 325.952 44.893 326.197 44.7581C326.437 44.635 326.733 44.3467 326.84 44.1463C326.967 43.9105 327.137 43.7694 327.269 43.7876C327.413 43.8118 327.571 43.6648 327.722 43.3818C327.855 43.1342 328.107 42.8694 328.277 42.7874C328.46 42.7113 328.712 42.4169 328.857 42.1457C329.009 41.8628 329.198 41.6568 329.28 41.6807C329.368 41.6929 329.702 41.3338 330.024 40.8802C330.333 40.4207 330.686 40.0263 330.774 39.9794C330.869 39.9502 331.184 39.5675 331.481 39.1315C331.771 38.7073 332.099 38.3305 332.2 38.2896C332.294 38.2604 332.806 37.5713 333.324 36.7522C333.835 35.9449 334.549 34.8785 334.902 34.3954C335.351 33.7651 335.648 33.211 335.933 32.4442C336.155 31.8543 336.605 30.7809 336.928 30.0319C337.257 29.3007 337.562 28.4099 337.607 28.0615C337.64 27.7072 337.761 27.306 337.868 27.1646C337.982 27.0115 338.145 26.9117 338.233 26.9239C338.334 26.942 338.471 27.1257 338.54 27.3209C338.608 27.5161 338.752 27.7175 338.852 27.7652C338.952 27.8128 338.996 27.9371 338.945 28.0314C338.895 28.1257 338.938 28.2499 339.038 28.2976C339.139 28.3453 339.182 28.4695 339.132 28.5638C339.081 28.6581 339.15 28.7943 339.287 28.8598C339.425 28.9253 339.582 29.1032 339.631 29.2451C339.681 29.3871 339.812 29.553 339.913 29.6007C340.013 29.6484 340.056 29.7726 340.006 29.8669C339.955 29.9612 339.986 30.0795 340.061 30.1152C340.156 30.1452 340.28 30.3524 340.349 30.5476C340.417 30.7428 340.567 30.962 340.686 31.0038C340.812 31.0634 340.868 31.1936 340.817 31.2879C340.747 31.4176 340.873 31.5362 341.286 31.7328C341.6 31.8818 341.819 32.0599 341.787 32.1188C341.749 32.1895 341.9 32.3201 342.1 32.4154C342.301 32.5107 342.502 32.547 342.54 32.4762C342.571 32.4173 342.816 32.4596 343.067 32.5787C343.33 32.7038 343.65 32.7819 343.782 32.7411C343.902 32.6943 344.116 32.4707 344.249 32.2231C344.419 31.9047 344.439 31.7512 344.301 31.6857C344.201 31.638 344.157 31.5138 344.208 31.4195C344.258 31.3252 344.19 31.189 344.052 31.1235C343.914 31.058 343.845 30.9218 343.896 30.8275C343.959 30.7096 343.865 30.5911 343.615 30.4719C343.364 30.3528 343.27 30.2343 343.333 30.1164C343.384 30.0221 343.34 29.8978 343.24 29.8502C343.14 29.8025 343.096 29.6783 343.147 29.584C343.204 29.4779 343.104 29.3121 342.897 29.1695C342.716 29.0388 342.572 28.8374 342.585 28.7252C342.598 28.613 342.529 28.4768 342.429 28.4292C342.329 28.3815 342.285 28.2573 342.336 28.163C342.386 28.0687 342.343 27.9444 342.243 27.8968C342.142 27.8491 342.099 27.7249 342.149 27.6306C342.213 27.5127 342.119 27.3941 341.868 27.275C341.617 27.1559 341.524 27.0373 341.587 26.9194C341.637 26.8251 341.594 26.7009 341.494 26.6532C341.393 26.6056 341.35 26.4813 341.4 26.387C341.451 26.2927 341.445 26.1863 341.37 26.1506C341.295 26.1149 341.089 25.6769 340.896 25.1858C340.722 24.6889 340.46 24.2389 340.335 24.1793C340.222 24.1257 340.166 23.9955 340.216 23.9012C340.267 23.8069 340.224 23.6826 340.123 23.635C340.023 23.5873 339.979 23.4631 340.03 23.3688C340.081 23.2745 340.025 23.1147 339.906 23.0138C339.787 22.9129 339.731 22.7532 339.781 22.6589C339.832 22.5646 339.789 22.4404 339.688 22.3927C339.588 22.345 339.544 22.2208 339.595 22.1265C339.646 22.0322 339.602 21.9079 339.502 21.8603C339.401 21.8126 339.358 21.6884 339.409 21.5941C339.459 21.4998 339.416 21.3755 339.315 21.3279C339.215 21.2802 339.172 21.156 339.222 21.0617C339.273 20.9674 339.204 20.8312 339.066 20.7657C338.928 20.7002 338.86 20.564 338.91 20.4697C338.961 20.3754 338.93 20.2276 338.849 20.1445C338.767 20.0615 338.737 19.9137 338.787 19.8194C338.838 19.7251 338.794 19.6008 338.694 19.5532C338.594 19.5055 338.55 19.3813 338.601 19.287C338.651 19.1927 338.608 19.0684 338.508 19.0208C338.407 18.9731 338.364 18.8489 338.414 18.7546C338.465 18.6602 338.421 18.536 338.321 18.4884C338.221 18.4407 338.177 18.3165 338.228 18.2222C338.278 18.1278 338.235 18.0036 338.135 17.9559C338.034 17.9083 337.985 17.7958 338.022 17.7251C338.067 17.6426 338.042 17.4239 337.961 17.2523C337.887 17.0688 337.869 16.8384 337.919 16.7441C337.976 16.638 337.876 16.4721 337.67 16.3295C337.463 16.187 337.363 16.0211 337.42 15.915C337.496 15.7736 337.327 15.6488 336.549 15.2795C335.829 14.9222 335.502 14.8264 335.289 14.9023C335.138 14.949 334.887 14.948 334.736 14.906C334.523 14.8343 334.422 14.9048 334.144 15.3645C333.891 15.777 333.847 15.9186 333.997 15.9901C334.11 16.0437 334.128 16.1856 334.04 16.3506C333.964 16.4921 333.712 16.7865 333.485 17.0041C333.245 17.2159 332.917 17.6222 332.747 17.911C332.576 18.1998 332.273 18.5589 332.072 18.6999C331.851 18.8467 331.542 19.2472 331.359 19.5891C331.125 20.0253 330.973 20.1901 330.81 20.1718C330.635 20.1474 330.483 20.3418 330.116 21.0256C329.787 21.6387 329.586 21.8978 329.473 21.8737C329.347 21.8535 329.116 22.1382 328.779 22.7276C328.482 23.2226 328.204 23.5937 328.129 23.5579C328.053 23.5222 327.984 23.5928 327.971 23.705C327.958 23.8172 327.889 23.8878 327.814 23.8521C327.738 23.8163 327.568 24.0165 327.416 24.2995C327.271 24.5706 326.936 24.9887 326.678 25.2358C326.407 25.477 326.01 25.9539 325.782 26.2897C325.555 26.6255 325.177 27.0671 324.944 27.267C324.717 27.4552 324.408 27.8557 324.249 28.1504C324.072 28.4805 323.896 28.663 323.795 28.6448C323.67 28.6246 323.439 28.9093 323.102 29.4987C322.665 30.2236 322.615 30.4065 322.765 30.478C322.865 30.5256 322.934 30.6618 322.921 30.774C322.895 30.9393 323.152 31.1057 324.205 31.6061C325.258 32.1065 325.553 32.2022 325.679 32.0845C325.767 32.0081 325.925 31.9792 326.025 32.0268C326.15 32.0864 326.276 31.9983 326.403 31.7625C326.516 31.5503 326.68 31.421 326.812 31.4392C326.988 31.4635 327.139 31.2692 327.506 30.5854C327.873 29.9016 328.024 29.7072 328.2 29.7315C328.363 29.7499 328.527 29.5615 328.875 28.9131C329.197 28.3413 329.456 28.0056 329.651 27.906C329.834 27.8299 330.08 27.5473 330.219 27.2879C330.358 27.0286 330.686 26.6222 330.944 26.3751C331.215 26.134 331.638 25.6395 331.884 25.2683C332.118 24.8911 332.465 24.5085 332.641 24.4147C332.823 24.3091 333.126 23.9204 333.341 23.5195C333.619 23.0008 333.777 22.8242 333.94 22.8425C334.06 22.8548 334.128 22.9319 334.097 22.9908C334.059 23.0616 334.121 23.1504 334.222 23.1981C334.36 23.2636 334.334 23.4289 334.138 23.7944C333.999 24.0833 333.935 24.3785 333.997 24.4968C334.047 24.6093 333.989 24.9812 333.843 25.3115C333.704 25.6595 333.576 26.1316 333.563 26.3619C333.531 26.5981 333.334 27.2294 333.118 27.7779C332.89 28.3205 332.617 29.0638 332.522 29.4178C332.407 29.7777 331.958 30.7625 331.509 31.5996C331.054 32.4485 330.479 33.3737 330.245 33.6622C329.993 33.9566 329.482 34.6753 329.103 35.2645C328.724 35.8537 328.295 36.4192 328.15 36.5131C327.992 36.6011 327.608 37.084 327.279 37.5789C326.951 38.0738 326.572 38.5154 326.428 38.5503C326.277 38.5969 326.037 38.8973 325.835 39.2745C325.575 39.7579 325.443 39.8874 325.305 39.8218C325.155 39.7504 325.035 39.8858 324.738 40.4399C324.44 40.994 324.321 41.1294 324.17 41.0579C324.032 40.9924 323.906 41.11 323.666 41.5581C323.455 41.9511 323.3 42.1237 323.199 42.0761C323.099 42.0284 322.872 42.2165 322.651 42.511C322.43 42.8055 322.185 43.0291 322.103 43.0346C322.009 43.0343 321.782 43.2224 321.605 43.4639C321.416 43.6995 321.17 43.8934 321.038 43.9047C320.925 43.9102 320.743 44.0749 320.642 44.2635C320.515 44.4993 320.389 44.5874 320.264 44.5279C320.126 44.4623 320 44.58 319.791 44.969C319.582 45.3581 319.456 45.4758 319.318 45.4102C319.193 45.3507 319.061 45.4506 318.909 45.7335C318.77 45.9929 318.612 46.14 318.468 46.1158C318.349 46.1035 318.191 46.1915 318.122 46.3211C318.052 46.4508 317.819 46.6212 317.599 46.709C317.385 46.7849 317.133 46.9907 317.032 47.1793C316.925 47.3798 316.799 47.4679 316.673 47.4083C316.548 47.3487 316.416 47.4486 316.264 47.7316C316.112 48.0145 315.98 48.1144 315.855 48.0549C315.729 47.9953 315.603 48.0834 315.477 48.3192C315.35 48.555 315.224 48.6431 315.099 48.5836C314.999 48.5359 314.854 48.6003 314.791 48.7182C314.721 48.8479 314.539 48.983 314.381 49.0415C314.231 49.0882 314.054 49.2115 314.004 49.3058C313.947 49.4119 313.815 49.4528 313.714 49.4051C313.602 49.3515 313.425 49.4453 313.274 49.6397C313.135 49.8104 312.921 49.9455 312.802 49.9332C312.683 49.9209 312.513 50.0325 312.424 50.1975C312.323 50.3861 312.191 50.4565 312.078 50.4029C311.978 50.3552 311.833 50.4197 311.763 50.5493C311.694 50.679 311.549 50.7434 311.449 50.6958C311.323 50.6362 311.198 50.7243 311.071 50.9601C310.945 51.1959 310.819 51.284 310.693 51.2245C310.593 51.1768 310.461 51.2176 310.41 51.312C310.36 51.4063 310.215 51.4707 310.096 51.4584C309.977 51.4461 309.763 51.5811 309.624 51.7519C309.472 51.9462 309.296 52.0401 309.183 51.9865C309.083 51.9388 308.938 52.0032 308.869 52.1329C308.799 52.2626 308.654 52.327 308.554 52.2793C308.429 52.2198 308.303 52.3079 308.176 52.5437C308.05 52.7795 307.924 52.8676 307.799 52.808C307.698 52.7604 307.566 52.8012 307.516 52.8955C307.465 52.9898 307.333 53.0307 307.233 52.983C307.12 52.9294 306.944 53.0232 306.792 53.2176C306.653 53.3883 306.439 53.5233 306.32 53.5111C306.201 53.4988 306.056 53.5632 306.006 53.6575C305.955 53.7518 305.823 53.7926 305.723 53.745C305.622 53.6973 305.49 53.7382 305.44 53.8325C305.389 53.9268 305.257 53.9676 305.157 53.92C305.032 53.8604 304.906 53.9485 304.779 54.1843C304.653 54.4201 304.527 54.5082 304.401 54.4487C304.301 54.401 304.169 54.4418 304.118 54.5361C304.068 54.6305 303.936 54.6713 303.835 54.6236C303.735 54.576 303.609 54.605 303.565 54.6875C303.515 54.7523 303.194 54.9106 302.842 55.0096C302.496 55.0968 302.144 55.2845 302.074 55.4142C302.005 55.5439 301.86 55.6083 301.76 55.5606C301.659 55.5129 301.527 55.5538 301.477 55.6481C301.426 55.7424 301.294 55.7832 301.194 55.7356C301.093 55.6879 300.961 55.7288 300.911 55.8231C300.86 55.9174 300.728 55.9582 300.628 55.9106C300.528 55.8629 300.358 55.9154 300.251 56.0272C300.143 56.139 299.974 56.1915 299.873 56.1439C299.773 56.0962 299.641 56.1371 299.591 56.2314C299.54 56.3257 299.408 56.3665 299.308 56.3189C299.207 56.2712 299.075 56.312 299.025 56.4064C298.974 56.5007 298.842 56.5415 298.742 56.4938C298.641 56.4462 298.509 56.487 298.459 56.5813C298.408 56.6757 298.276 56.7165 298.176 56.6688C298.076 56.6212 297.944 56.662 297.893 56.7563C297.842 56.8506 297.71 56.8915 297.61 56.8438C297.51 56.7962 297.378 56.837 297.327 56.9313C297.277 57.0256 297.107 57.0781 296.95 57.048C296.793 57.0178 296.623 57.0703 296.573 57.1646C296.522 57.2589 296.39 57.2998 296.29 57.2521C296.189 57.2045 296.057 57.2453 296.007 57.3396C295.956 57.4339 295.824 57.4747 295.724 57.4271C295.624 57.3794 295.492 57.4203 295.441 57.5146C295.39 57.6089 295.258 57.6497 295.158 57.6021C295.058 57.5544 294.926 57.5952 294.875 57.6896C294.825 57.7839 294.705 57.8307 294.63 57.7949C294.542 57.7532 294.215 57.8051 293.895 57.9043C293.574 58.0034 293.191 58.0433 293.021 58.0071C292.846 57.9533 292.663 57.9998 292.613 58.0941C292.562 58.1884 292.43 58.2293 292.33 58.1816C292.23 58.134 292.098 58.1748 292.047 58.2691C291.996 58.3634 291.864 58.4043 291.764 58.3566C291.664 58.3089 291.532 58.3498 291.481 58.4441C291.431 58.5384 291.311 58.5852 291.236 58.5495C291.148 58.5078 290.821 58.5596 290.501 58.6588C290.18 58.7579 289.797 58.7978 289.627 58.7617C289.452 58.7078 289.269 58.7543 289.219 58.8487C289.168 58.943 289.036 58.9838 288.936 58.9361C288.836 58.8885 288.704 58.9293 288.653 59.0236C288.602 59.118 288.47 59.1588 288.37 59.1111C288.27 59.0635 287.918 59.0444 287.598 59.0844C287.284 59.1127 287.007 59.1884 286.969 59.2592C286.919 59.324 286.586 59.3581 286.203 59.3388C285.82 59.3196 285.474 59.3773 285.43 59.4598C285.392 59.5306 285.241 59.5477 285.103 59.4822C284.965 59.4166 284.808 59.4456 284.757 59.5399C284.694 59.6578 284.537 59.6572 284.286 59.538C284.073 59.4367 283.879 59.4183 283.828 59.5126C283.79 59.5833 283.57 59.6415 283.338 59.6347C283.093 59.6219 282.76 59.6265 282.578 59.6435C282.396 59.6605 282.201 59.7011 282.138 59.7304C282.081 59.7479 281.868 59.7352 281.661 59.6812C281.441 59.6213 281.228 59.6677 281.177 59.762C281.114 59.8799 280.957 59.8793 280.706 59.7601C280.455 59.641 280.298 59.6404 280.235 59.7583C280.184 59.8526 280.008 59.8873 279.852 59.8276L279.413 59.6191C279.331 59.5656 279.218 59.6006 279.168 59.695C279.111 59.8011 278.91 59.8239 278.665 59.752C278.445 59.6921 278.188 59.7029 278.1 59.7794C278.012 59.8558 277.804 59.8609 277.629 59.7775C277.453 59.6941 277.246 59.6992 277.158 59.7756C277.063 59.8639 276.85 59.8512 276.624 59.744C276.373 59.6248 276.216 59.6242 276.153 59.7421C276.09 59.86 275.92 59.8534 275.619 59.7104C275.356 59.5853 275.149 59.5609 275.098 59.6552Z" fill="#221E1F"/>
</svg>
