<svg width="360" height="182" viewBox="0 0 360 182" fill="none" xmlns="http://www.w3.org/2000/svg">
<g clip-path="url(#clip0_0_9833)">
<rect y="0.111084" width="360" height="181" rx="8" fill="#F1FAD1"/>
<path d="M113.155 32.6579H116.45C117.198 32.6579 117.829 32.7719 118.344 32.9997C118.863 33.2276 119.257 33.5648 119.526 34.0115C119.8 34.4535 119.937 34.9981 119.937 35.6452C119.937 36.101 119.843 36.518 119.656 36.8962C119.474 37.2699 119.21 37.5889 118.863 37.8533C118.521 38.113 118.111 38.3067 117.633 38.4343L117.264 38.5779H114.167L114.153 37.5046H116.491C116.965 37.5046 117.359 37.4226 117.674 37.2585C117.988 37.0899 118.225 36.8643 118.385 36.5818C118.544 36.2992 118.624 35.987 118.624 35.6452C118.624 35.2624 118.549 34.9275 118.398 34.6404C118.248 34.3533 118.011 34.1322 117.688 33.9773C117.368 33.8178 116.956 33.738 116.45 33.738H114.475V42.6111H113.155V32.6579ZM118.973 42.6111L116.553 38.0993L117.927 38.0925L120.381 42.529V42.6111H118.973ZM124.66 42.7478C124.145 42.7478 123.678 42.6612 123.259 42.488C122.844 42.3103 122.486 42.0619 122.186 41.7429C121.889 41.4239 121.661 41.0456 121.502 40.6081C121.342 40.1706 121.263 39.6921 121.263 39.1726V38.8855C121.263 38.2839 121.352 37.7484 121.529 37.279C121.707 36.8051 121.949 36.404 122.254 36.0759C122.559 35.7478 122.906 35.4994 123.293 35.3308C123.68 35.1622 124.081 35.0779 124.496 35.0779C125.025 35.0779 125.48 35.169 125.863 35.3513C126.251 35.5336 126.567 35.7888 126.813 36.1169C127.06 36.4405 127.242 36.8233 127.36 37.2654C127.479 37.7029 127.538 38.1814 127.538 38.7009V39.2683H122.015V38.2361H126.273V38.1404C126.255 37.8122 126.187 37.4932 126.068 37.1833C125.954 36.8734 125.772 36.6182 125.521 36.4177C125.271 36.2172 124.929 36.1169 124.496 36.1169C124.209 36.1169 123.945 36.1785 123.703 36.3015C123.462 36.42 123.254 36.5977 123.081 36.8347C122.908 37.0717 122.773 37.3611 122.678 37.7029C122.582 38.0447 122.534 38.4389 122.534 38.8855V39.1726C122.534 39.5235 122.582 39.8539 122.678 40.1638C122.778 40.4691 122.922 40.738 123.108 40.9704C123.3 41.2029 123.53 41.3852 123.799 41.5173C124.072 41.6495 124.382 41.7156 124.729 41.7156C125.175 41.7156 125.553 41.6244 125.863 41.4421C126.173 41.2598 126.444 41.016 126.677 40.7107L127.442 41.3191C127.283 41.5606 127.08 41.7908 126.834 42.0095C126.588 42.2283 126.285 42.406 125.925 42.5427C125.569 42.6794 125.148 42.7478 124.66 42.7478ZM131.168 41.4695L133.191 35.2146H134.483L131.824 42.6111H130.977L131.168 41.4695ZM129.479 35.2146L131.564 41.5036L131.708 42.6111H130.86L128.181 35.2146H129.479ZM137.074 35.2146V42.6111H135.803V35.2146H137.074ZM135.707 33.2527C135.707 33.0476 135.769 32.8744 135.892 32.7331C136.019 32.5919 136.206 32.5212 136.452 32.5212C136.694 32.5212 136.878 32.5919 137.006 32.7331C137.138 32.8744 137.204 33.0476 137.204 33.2527C137.204 33.4486 137.138 33.6173 137.006 33.7585C136.878 33.8952 136.694 33.9636 136.452 33.9636C136.206 33.9636 136.019 33.8952 135.892 33.7585C135.769 33.6173 135.707 33.4486 135.707 33.2527ZM142.174 42.7478C141.659 42.7478 141.192 42.6612 140.772 42.488C140.358 42.3103 140 42.0619 139.699 41.7429C139.403 41.4239 139.175 41.0456 139.016 40.6081C138.856 40.1706 138.776 39.6921 138.776 39.1726V38.8855C138.776 38.2839 138.865 37.7484 139.043 37.279C139.221 36.8051 139.462 36.404 139.768 36.0759C140.073 35.7478 140.419 35.4994 140.807 35.3308C141.194 35.1622 141.595 35.0779 142.01 35.0779C142.538 35.0779 142.994 35.169 143.377 35.3513C143.764 35.5336 144.081 35.7888 144.327 36.1169C144.573 36.4405 144.756 36.8233 144.874 37.2654C144.993 37.7029 145.052 38.1814 145.052 38.7009V39.2683H139.528V38.2361H143.787V38.1404C143.769 37.8122 143.701 37.4932 143.582 37.1833C143.468 36.8734 143.286 36.6182 143.035 36.4177C142.785 36.2172 142.443 36.1169 142.01 36.1169C141.723 36.1169 141.458 36.1785 141.217 36.3015C140.975 36.42 140.768 36.5977 140.595 36.8347C140.422 37.0717 140.287 37.3611 140.191 37.7029C140.096 38.0447 140.048 38.4389 140.048 38.8855V39.1726C140.048 39.5235 140.096 39.8539 140.191 40.1638C140.292 40.4691 140.435 40.738 140.622 40.9704C140.813 41.2029 141.044 41.3852 141.312 41.5173C141.586 41.6495 141.896 41.7156 142.242 41.7156C142.689 41.7156 143.067 41.6244 143.377 41.4421C143.687 41.2598 143.958 41.016 144.19 40.7107L144.956 41.3191C144.797 41.5606 144.594 41.7908 144.348 42.0095C144.102 42.2283 143.799 42.406 143.438 42.5427C143.083 42.6794 142.661 42.7478 142.174 42.7478ZM148.401 41.2986L150.302 35.2146H151.136L150.972 36.4245L149.037 42.6111H148.224L148.401 41.2986ZM147.123 35.2146L148.743 41.3669L148.859 42.6111H148.005L145.858 35.2146H147.123ZM152.954 41.3191L154.499 35.2146H155.757L153.61 42.6111H152.763L152.954 41.3191ZM151.32 35.2146L153.18 41.196L153.392 42.6111H152.585L150.596 36.4109L150.432 35.2146H151.32ZM161.362 40.6492C161.362 40.4669 161.321 40.2982 161.239 40.1433C161.162 39.9838 161 39.8402 160.754 39.7126C160.512 39.5805 160.148 39.4665 159.66 39.3708C159.25 39.2842 158.879 39.1817 158.546 39.0632C158.218 38.9447 157.938 38.8012 157.705 38.6326C157.477 38.4639 157.302 38.2657 157.179 38.0378C157.056 37.81 156.994 37.5434 156.994 37.238C156.994 36.9464 157.058 36.6706 157.186 36.4109C157.318 36.1511 157.502 35.921 157.739 35.7204C157.981 35.5199 158.27 35.3627 158.607 35.2488C158.945 35.1348 159.321 35.0779 159.735 35.0779C160.328 35.0779 160.834 35.1827 161.253 35.3923C161.672 35.602 161.993 35.8822 162.217 36.2331C162.44 36.5795 162.552 36.9646 162.552 37.3884H161.287C161.287 37.1833 161.226 36.9851 161.103 36.7937C160.984 36.5977 160.809 36.4359 160.576 36.3083C160.348 36.1807 160.068 36.1169 159.735 36.1169C159.384 36.1169 159.1 36.1716 158.881 36.281C158.667 36.3858 158.509 36.5202 158.409 36.6843C158.313 36.8484 158.266 37.0216 158.266 37.2038C158.266 37.3406 158.288 37.4636 158.334 37.573C158.384 37.6778 158.471 37.7758 158.594 37.8669C158.717 37.9535 158.89 38.0355 159.113 38.113C159.337 38.1905 159.621 38.268 159.968 38.3454C160.574 38.4822 161.073 38.6462 161.465 38.8376C161.857 39.029 162.148 39.2637 162.34 39.5417C162.531 39.8197 162.627 40.157 162.627 40.5535C162.627 40.877 162.559 41.1732 162.422 41.4421C162.29 41.711 162.096 41.9434 161.841 42.1394C161.59 42.3308 161.289 42.4812 160.938 42.5906C160.592 42.6954 160.202 42.7478 159.77 42.7478C159.118 42.7478 158.566 42.6316 158.115 42.3992C157.664 42.1667 157.322 41.866 157.09 41.4968C156.857 41.1277 156.741 40.738 156.741 40.3279H158.013C158.031 40.6742 158.131 40.9499 158.313 41.155C158.496 41.3555 158.719 41.4991 158.983 41.5857C159.248 41.6677 159.51 41.7087 159.77 41.7087C160.116 41.7087 160.405 41.6632 160.638 41.572C160.875 41.4809 161.055 41.3555 161.178 41.196C161.301 41.0365 161.362 40.8542 161.362 40.6492ZM172.122 41.3464V37.5388C172.122 37.2471 172.063 36.9942 171.944 36.78C171.83 36.5613 171.657 36.3926 171.425 36.2742C171.192 36.1557 170.905 36.0964 170.563 36.0964C170.244 36.0964 169.964 36.1511 169.723 36.2605C169.486 36.3699 169.299 36.5134 169.162 36.6911C169.03 36.8689 168.964 37.0603 168.964 37.2654H167.699C167.699 37.001 167.768 36.739 167.904 36.4792C168.041 36.2195 168.237 35.9848 168.492 35.7751C168.752 35.5609 169.062 35.3923 169.422 35.2693C169.786 35.1417 170.192 35.0779 170.639 35.0779C171.176 35.0779 171.65 35.169 172.061 35.3513C172.475 35.5336 172.799 35.8093 173.031 36.1785C173.268 36.543 173.387 37.001 173.387 37.5525V40.9978C173.387 41.2439 173.407 41.5059 173.448 41.7839C173.494 42.0619 173.56 42.3012 173.646 42.5017V42.6111H172.327C172.263 42.4652 172.213 42.2716 172.177 42.03C172.14 41.7839 172.122 41.5561 172.122 41.3464ZM172.341 38.1267L172.354 39.0154H171.076C170.716 39.0154 170.395 39.045 170.112 39.1042C169.83 39.1589 169.593 39.2432 169.401 39.3572C169.21 39.4711 169.064 39.6146 168.964 39.7878C168.864 39.9564 168.813 40.1547 168.813 40.3826C168.813 40.615 168.866 40.8269 168.971 41.0183C169.076 41.2097 169.233 41.3624 169.442 41.4763C169.657 41.5857 169.919 41.6404 170.229 41.6404C170.616 41.6404 170.958 41.5583 171.254 41.3943C171.55 41.2302 171.785 41.0297 171.958 40.7927C172.136 40.5557 172.231 40.3256 172.245 40.1023L172.785 40.7107C172.753 40.9021 172.667 41.114 172.525 41.3464C172.384 41.5788 172.195 41.8021 171.958 42.0163C171.726 42.226 171.448 42.4014 171.124 42.5427C170.805 42.6794 170.445 42.7478 170.044 42.7478C169.543 42.7478 169.103 42.6498 168.725 42.4538C168.351 42.2579 168.059 41.9958 167.85 41.6677C167.645 41.335 167.542 40.9636 167.542 40.5535C167.542 40.157 167.619 39.8083 167.774 39.5076C167.929 39.2022 168.153 38.9493 168.444 38.7488C168.736 38.5437 169.087 38.3887 169.497 38.2839C169.907 38.1791 170.365 38.1267 170.871 38.1267H172.341ZM176.641 36.3767V42.6111H175.376V35.2146H176.606L176.641 36.3767ZM178.951 35.1736L178.944 36.3493C178.84 36.3266 178.739 36.3129 178.644 36.3083C178.552 36.2992 178.448 36.2947 178.329 36.2947C178.037 36.2947 177.78 36.3402 177.557 36.4314C177.333 36.5225 177.144 36.6501 176.989 36.8142C176.834 36.9783 176.711 37.1742 176.62 37.4021C176.534 37.6254 176.477 37.8715 176.449 38.1404L176.094 38.3454C176.094 37.8988 176.137 37.4796 176.224 37.0876C176.315 36.6957 176.454 36.3493 176.641 36.0486C176.827 35.7432 177.064 35.5063 177.352 35.3376C177.643 35.1645 177.99 35.0779 178.391 35.0779C178.482 35.0779 178.587 35.0893 178.705 35.112C178.824 35.1303 178.906 35.1508 178.951 35.1736ZM183.053 42.7478C182.538 42.7478 182.071 42.6612 181.651 42.488C181.237 42.3103 180.879 42.0619 180.578 41.7429C180.282 41.4239 180.054 41.0456 179.895 40.6081C179.735 40.1706 179.655 39.6921 179.655 39.1726V38.8855C179.655 38.2839 179.744 37.7484 179.922 37.279C180.1 36.8051 180.341 36.404 180.646 36.0759C180.952 35.7478 181.298 35.4994 181.686 35.3308C182.073 35.1622 182.474 35.0779 182.889 35.0779C183.417 35.0779 183.873 35.169 184.256 35.3513C184.643 35.5336 184.96 35.7888 185.206 36.1169C185.452 36.4405 185.634 36.8233 185.753 37.2654C185.871 37.7029 185.931 38.1814 185.931 38.7009V39.2683H180.407V38.2361H184.666V38.1404C184.648 37.8122 184.579 37.4932 184.461 37.1833C184.347 36.8734 184.165 36.6182 183.914 36.4177C183.663 36.2172 183.322 36.1169 182.889 36.1169C182.602 36.1169 182.337 36.1785 182.096 36.3015C181.854 36.42 181.647 36.5977 181.474 36.8347C181.3 37.0717 181.166 37.3611 181.07 37.7029C180.975 38.0447 180.927 38.4389 180.927 38.8855V39.1726C180.927 39.5235 180.975 39.8539 181.07 40.1638C181.171 40.4691 181.314 40.738 181.501 40.9704C181.692 41.2029 181.923 41.3852 182.191 41.5173C182.465 41.6495 182.775 41.7156 183.121 41.7156C183.568 41.7156 183.946 41.6244 184.256 41.4421C184.566 41.2598 184.837 41.016 185.069 40.7107L185.835 41.3191C185.675 41.5606 185.473 41.7908 185.227 42.0095C184.98 42.2283 184.677 42.406 184.317 42.5427C183.962 42.6794 183.54 42.7478 183.053 42.7478ZM195.672 35.2146H196.82V42.4538C196.82 43.1055 196.688 43.6615 196.424 44.1218C196.16 44.5821 195.79 44.9307 195.316 45.1677C194.847 45.4092 194.305 45.53 193.689 45.53C193.434 45.53 193.133 45.489 192.787 45.407C192.445 45.3295 192.108 45.1951 191.775 45.0036C191.447 44.8168 191.172 44.5639 190.948 44.2449L191.611 43.4929C191.921 43.8666 192.245 44.1264 192.582 44.2722C192.924 44.418 193.261 44.491 193.594 44.491C193.995 44.491 194.341 44.4158 194.633 44.2654C194.924 44.115 195.15 43.8917 195.31 43.5954C195.474 43.3038 195.556 42.9438 195.556 42.5154V36.8415L195.672 35.2146ZM190.579 38.9949V38.8513C190.579 38.2862 190.645 37.7735 190.777 37.3132C190.914 36.8484 191.108 36.4496 191.358 36.1169C191.614 35.7842 191.921 35.529 192.281 35.3513C192.641 35.169 193.047 35.0779 193.498 35.0779C193.963 35.0779 194.368 35.1599 194.715 35.324C195.066 35.4835 195.362 35.7182 195.604 36.0281C195.85 36.3334 196.043 36.7025 196.185 37.1355C196.326 37.5684 196.424 38.0583 196.479 38.6052V39.2341C196.428 39.7764 196.33 40.2641 196.185 40.697C196.043 41.1299 195.85 41.4991 195.604 41.8044C195.362 42.1098 195.066 42.3445 194.715 42.5085C194.364 42.668 193.954 42.7478 193.484 42.7478C193.042 42.7478 192.641 42.6544 192.281 42.4675C191.926 42.2807 191.62 42.0186 191.365 41.6814C191.11 41.3441 190.914 40.9477 190.777 40.4919C190.645 40.0316 190.579 39.5326 190.579 38.9949ZM191.844 38.8513V38.9949C191.844 39.364 191.88 39.7104 191.953 40.0339C192.031 40.3575 192.147 40.6423 192.302 40.8884C192.461 41.1345 192.664 41.3282 192.91 41.4695C193.156 41.6062 193.45 41.6745 193.792 41.6745C194.211 41.6745 194.558 41.5857 194.831 41.4079C195.104 41.2302 195.321 40.9955 195.48 40.7038C195.645 40.4122 195.772 40.0954 195.863 39.7536V38.1062C195.813 37.8555 195.736 37.614 195.631 37.3816C195.531 37.1446 195.398 36.935 195.234 36.7527C195.075 36.5658 194.877 36.4177 194.64 36.3083C194.403 36.199 194.125 36.1443 193.806 36.1443C193.459 36.1443 193.161 36.2172 192.91 36.363C192.664 36.5043 192.461 36.7003 192.302 36.9509C192.147 37.197 192.031 37.4841 191.953 37.8122C191.88 38.1358 191.844 38.4822 191.844 38.8513ZM200.006 36.3767V42.6111H198.741V35.2146H199.972L200.006 36.3767ZM202.316 35.1736L202.31 36.3493C202.205 36.3266 202.104 36.3129 202.009 36.3083C201.918 36.2992 201.813 36.2947 201.694 36.2947C201.403 36.2947 201.145 36.3402 200.922 36.4314C200.699 36.5225 200.509 36.6501 200.354 36.8142C200.2 36.9783 200.076 37.1742 199.985 37.4021C199.899 37.6254 199.842 37.8715 199.814 38.1404L199.459 38.3454C199.459 37.8988 199.502 37.4796 199.589 37.0876C199.68 36.6957 199.819 36.3493 200.006 36.0486C200.193 35.7432 200.43 35.5063 200.717 35.3376C201.008 35.1645 201.355 35.0779 201.756 35.0779C201.847 35.0779 201.952 35.0893 202.07 35.112C202.189 35.1303 202.271 35.1508 202.316 35.1736ZM206.418 42.7478C205.903 42.7478 205.436 42.6612 205.017 42.488C204.602 42.3103 204.244 42.0619 203.943 41.7429C203.647 41.4239 203.419 41.0456 203.26 40.6081C203.1 40.1706 203.021 39.6921 203.021 39.1726V38.8855C203.021 38.2839 203.109 37.7484 203.287 37.279C203.465 36.8051 203.706 36.404 204.012 36.0759C204.317 35.7478 204.663 35.4994 205.051 35.3308C205.438 35.1622 205.839 35.0779 206.254 35.0779C206.783 35.0779 207.238 35.169 207.621 35.3513C208.008 35.5336 208.325 35.7888 208.571 36.1169C208.817 36.4405 209 36.8233 209.118 37.2654C209.237 37.7029 209.296 38.1814 209.296 38.7009V39.2683H203.772V38.2361H208.031V38.1404C208.013 37.8122 207.945 37.4932 207.826 37.1833C207.712 36.8734 207.53 36.6182 207.279 36.4177C207.029 36.2172 206.687 36.1169 206.254 36.1169C205.967 36.1169 205.702 36.1785 205.461 36.3015C205.219 36.42 205.012 36.5977 204.839 36.8347C204.666 37.0717 204.531 37.3611 204.436 37.7029C204.34 38.0447 204.292 38.4389 204.292 38.8855V39.1726C204.292 39.5235 204.34 39.8539 204.436 40.1638C204.536 40.4691 204.679 40.738 204.866 40.9704C205.058 41.2029 205.288 41.3852 205.557 41.5173C205.83 41.6495 206.14 41.7156 206.486 41.7156C206.933 41.7156 207.311 41.6244 207.621 41.4421C207.931 41.2598 208.202 41.016 208.435 40.7107L209.2 41.3191C209.041 41.5606 208.838 41.7908 208.592 42.0095C208.346 42.2283 208.043 42.406 207.683 42.5427C207.327 42.6794 206.906 42.7478 206.418 42.7478ZM215.134 41.3464V37.5388C215.134 37.2471 215.075 36.9942 214.956 36.78C214.842 36.5613 214.669 36.3926 214.437 36.2742C214.204 36.1557 213.917 36.0964 213.575 36.0964C213.256 36.0964 212.976 36.1511 212.734 36.2605C212.497 36.3699 212.311 36.5134 212.174 36.6911C212.042 36.8689 211.976 37.0603 211.976 37.2654H210.711C210.711 37.001 210.779 36.739 210.916 36.4792C211.053 36.2195 211.249 35.9848 211.504 35.7751C211.764 35.5609 212.074 35.3923 212.434 35.2693C212.798 35.1417 213.204 35.0779 213.65 35.0779C214.188 35.0779 214.662 35.169 215.072 35.3513C215.487 35.5336 215.811 35.8093 216.043 36.1785C216.28 36.543 216.398 37.001 216.398 37.5525V40.9978C216.398 41.2439 216.419 41.5059 216.46 41.7839C216.506 42.0619 216.572 42.3012 216.658 42.5017V42.6111H215.339C215.275 42.4652 215.225 42.2716 215.188 42.03C215.152 41.7839 215.134 41.5561 215.134 41.3464ZM215.353 38.1267L215.366 39.0154H214.088C213.728 39.0154 213.407 39.045 213.124 39.1042C212.841 39.1589 212.604 39.2432 212.413 39.3572C212.222 39.4711 212.076 39.6146 211.976 39.7878C211.875 39.9564 211.825 40.1547 211.825 40.3826C211.825 40.615 211.878 40.8269 211.982 41.0183C212.087 41.2097 212.244 41.3624 212.454 41.4763C212.668 41.5857 212.93 41.6404 213.24 41.6404C213.628 41.6404 213.969 41.5583 214.266 41.3943C214.562 41.2302 214.797 41.0297 214.97 40.7927C215.147 40.5557 215.243 40.3256 215.257 40.1023L215.797 40.7107C215.765 40.9021 215.678 41.114 215.537 41.3464C215.396 41.5788 215.207 41.8021 214.97 42.0163C214.737 42.226 214.459 42.4014 214.136 42.5427C213.817 42.6794 213.457 42.7478 213.056 42.7478C212.554 42.7478 212.115 42.6498 211.736 42.4538C211.363 42.2579 211.071 41.9958 210.861 41.6677C210.656 41.335 210.554 40.9636 210.554 40.5535C210.554 40.157 210.631 39.8083 210.786 39.5076C210.941 39.2022 211.164 38.9493 211.456 38.7488C211.748 38.5437 212.099 38.3887 212.509 38.2839C212.919 38.1791 213.377 38.1267 213.883 38.1267H215.353ZM221.484 35.2146V36.1853H217.485V35.2146H221.484ZM218.839 33.4167H220.104V40.779C220.104 41.0297 220.142 41.2188 220.22 41.3464C220.297 41.474 220.397 41.5583 220.521 41.5993C220.644 41.6404 220.776 41.6609 220.917 41.6609C221.022 41.6609 221.131 41.6518 221.245 41.6335C221.364 41.6107 221.452 41.5925 221.512 41.5788L221.519 42.6111C221.418 42.643 221.286 42.6726 221.122 42.6999C220.963 42.7318 220.769 42.7478 220.541 42.7478C220.231 42.7478 219.946 42.6863 219.687 42.5632C219.427 42.4402 219.219 42.2351 219.064 41.948C218.914 41.6563 218.839 41.2644 218.839 40.7722V33.4167ZM228.313 41.2986L230.214 35.2146H231.048L230.884 36.4245L228.949 42.6111H228.136L228.313 41.2986ZM227.035 35.2146L228.655 41.3669L228.771 42.6111H227.917L225.771 35.2146H227.035ZM232.866 41.3191L234.411 35.2146H235.669L233.522 42.6111H232.675L232.866 41.3191ZM231.232 35.2146L233.092 41.196L233.304 42.6111H232.497L230.508 36.4109L230.344 35.2146H231.232ZM241.329 41.3464V37.5388C241.329 37.2471 241.27 36.9942 241.151 36.78C241.037 36.5613 240.864 36.3926 240.632 36.2742C240.399 36.1557 240.112 36.0964 239.771 36.0964C239.451 36.0964 239.171 36.1511 238.93 36.2605C238.693 36.3699 238.506 36.5134 238.369 36.6911C238.237 36.8689 238.171 37.0603 238.171 37.2654H236.906C236.906 37.001 236.975 36.739 237.111 36.4792C237.248 36.2195 237.444 35.9848 237.699 35.7751C237.959 35.5609 238.269 35.3923 238.629 35.2693C238.993 35.1417 239.399 35.0779 239.846 35.0779C240.383 35.0779 240.857 35.169 241.268 35.3513C241.682 35.5336 242.006 35.8093 242.238 36.1785C242.475 36.543 242.594 37.001 242.594 37.5525V40.9978C242.594 41.2439 242.614 41.5059 242.655 41.7839C242.701 42.0619 242.767 42.3012 242.854 42.5017V42.6111H241.534C241.47 42.4652 241.42 42.2716 241.384 42.03C241.347 41.7839 241.329 41.5561 241.329 41.3464ZM241.548 38.1267L241.562 39.0154H240.283C239.923 39.0154 239.602 39.045 239.319 39.1042C239.037 39.1589 238.8 39.2432 238.608 39.3572C238.417 39.4711 238.271 39.6146 238.171 39.7878C238.071 39.9564 238.021 40.1547 238.021 40.3826C238.021 40.615 238.073 40.8269 238.178 41.0183C238.283 41.2097 238.44 41.3624 238.649 41.4763C238.864 41.5857 239.126 41.6404 239.436 41.6404C239.823 41.6404 240.165 41.5583 240.461 41.3943C240.757 41.2302 240.992 41.0297 241.165 40.7927C241.343 40.5557 241.438 40.3256 241.452 40.1023L241.992 40.7107C241.96 40.9021 241.874 41.114 241.732 41.3464C241.591 41.5788 241.402 41.8021 241.165 42.0163C240.933 42.226 240.655 42.4014 240.331 42.5427C240.012 42.6794 239.652 42.7478 239.251 42.7478C238.75 42.7478 238.31 42.6498 237.932 42.4538C237.558 42.2579 237.266 41.9958 237.057 41.6677C236.852 41.335 236.749 40.9636 236.749 40.5535C236.749 40.157 236.826 39.8083 236.981 39.5076C237.136 39.2022 237.36 38.9493 237.651 38.7488C237.943 38.5437 238.294 38.3887 238.704 38.2839C239.114 38.1791 239.572 38.1267 240.078 38.1267H241.548ZM246.552 41.8454L248.609 35.2146H249.963L246.996 43.7527C246.928 43.935 246.837 44.1309 246.723 44.3406C246.613 44.5548 246.472 44.7576 246.299 44.949C246.126 45.1404 245.916 45.2953 245.67 45.4138C245.428 45.5368 245.139 45.5984 244.802 45.5984C244.701 45.5984 244.574 45.5847 244.419 45.5574C244.264 45.53 244.155 45.5072 244.091 45.489L244.084 44.4636C244.12 44.4682 244.177 44.4727 244.255 44.4773C244.337 44.4864 244.394 44.491 244.426 44.491C244.713 44.491 244.957 44.4522 245.157 44.3747C245.358 44.3018 245.526 44.1765 245.663 43.9988C245.804 43.8256 245.925 43.5863 246.025 43.281L246.552 41.8454ZM245.041 35.2146L246.962 40.9568L247.29 42.2898L246.381 42.7546L243.66 35.2146H245.041ZM256.464 42.6111H255.199V34.4353C255.199 33.9021 255.295 33.4532 255.486 33.0886C255.682 32.7195 255.963 32.4415 256.327 32.2546C256.692 32.0632 257.125 31.9675 257.626 31.9675C257.772 31.9675 257.918 31.9766 258.063 31.9949C258.214 32.0131 258.36 32.0404 258.501 32.0769L258.433 33.1091C258.337 33.0863 258.228 33.0704 258.104 33.0613C257.986 33.0521 257.868 33.0476 257.749 33.0476C257.48 33.0476 257.248 33.1023 257.052 33.2117C256.86 33.3165 256.715 33.4714 256.614 33.6765C256.514 33.8816 256.464 34.1345 256.464 34.4353V42.6111ZM258.036 35.2146V36.1853H254.03V35.2146H258.036ZM259.109 38.9949V38.8376C259.109 38.3044 259.187 37.81 259.342 37.3542C259.497 36.8939 259.72 36.4952 260.012 36.1579C260.303 35.8161 260.657 35.5518 261.071 35.365C261.486 35.1736 261.951 35.0779 262.466 35.0779C262.985 35.0779 263.452 35.1736 263.867 35.365C264.286 35.5518 264.642 35.8161 264.934 36.1579C265.23 36.4952 265.455 36.8939 265.61 37.3542C265.765 37.81 265.843 38.3044 265.843 38.8376V38.9949C265.843 39.5281 265.765 40.0225 265.61 40.4783C265.455 40.934 265.23 41.3327 264.934 41.6745C264.642 42.0118 264.289 42.2761 263.874 42.4675C263.464 42.6544 262.999 42.7478 262.479 42.7478C261.96 42.7478 261.493 42.6544 261.078 42.4675C260.663 42.2761 260.308 42.0118 260.012 41.6745C259.72 41.3327 259.497 40.934 259.342 40.4783C259.187 40.0225 259.109 39.5281 259.109 38.9949ZM260.374 38.8376V38.9949C260.374 39.364 260.417 39.7126 260.504 40.0408C260.59 40.3643 260.72 40.6514 260.894 40.9021C261.071 41.1527 261.292 41.351 261.557 41.4968C261.821 41.6381 262.129 41.7087 262.479 41.7087C262.826 41.7087 263.129 41.6381 263.389 41.4968C263.653 41.351 263.872 41.1527 264.045 40.9021C264.218 40.6514 264.348 40.3643 264.435 40.0408C264.526 39.7126 264.571 39.364 264.571 38.9949V38.8376C264.571 38.473 264.526 38.129 264.435 37.8054C264.348 37.4773 264.216 37.1879 264.038 36.9372C263.865 36.682 263.646 36.4815 263.382 36.3357C263.122 36.1898 262.817 36.1169 262.466 36.1169C262.119 36.1169 261.814 36.1898 261.55 36.3357C261.29 36.4815 261.071 36.682 260.894 36.9372C260.72 37.1879 260.59 37.4773 260.504 37.8054C260.417 38.129 260.374 38.473 260.374 38.8376ZM268.693 36.3767V42.6111H267.429V35.2146H268.659L268.693 36.3767ZM271.004 35.1736L270.997 36.3493C270.892 36.3266 270.792 36.3129 270.696 36.3083C270.605 36.2992 270.5 36.2947 270.382 36.2947C270.09 36.2947 269.833 36.3402 269.609 36.4314C269.386 36.5225 269.197 36.6501 269.042 36.8142C268.887 36.9783 268.764 37.1742 268.673 37.4021C268.586 37.6254 268.529 37.8715 268.502 38.1404L268.146 38.3454C268.146 37.8988 268.19 37.4796 268.276 37.0876C268.368 36.6957 268.507 36.3493 268.693 36.0486C268.88 35.7432 269.117 35.5063 269.404 35.3376C269.696 35.1645 270.042 35.0779 270.443 35.0779C270.535 35.0779 270.639 35.0893 270.758 35.112C270.876 35.1303 270.958 35.1508 271.004 35.1736ZM280.007 41.3464V37.5388C280.007 37.2471 279.948 36.9942 279.829 36.78C279.715 36.5613 279.542 36.3926 279.31 36.2742C279.077 36.1557 278.79 36.0964 278.448 36.0964C278.129 36.0964 277.849 36.1511 277.607 36.2605C277.37 36.3699 277.184 36.5134 277.047 36.6911C276.915 36.8689 276.849 37.0603 276.849 37.2654H275.584C275.584 37.001 275.652 36.739 275.789 36.4792C275.926 36.2195 276.122 35.9848 276.377 35.7751C276.637 35.5609 276.947 35.3923 277.307 35.2693C277.671 35.1417 278.077 35.0779 278.523 35.0779C279.061 35.0779 279.535 35.169 279.945 35.3513C280.36 35.5336 280.684 35.8093 280.916 36.1785C281.153 36.543 281.271 37.001 281.271 37.5525V40.9978C281.271 41.2439 281.292 41.5059 281.333 41.7839C281.379 42.0619 281.445 42.3012 281.531 42.5017V42.6111H280.212C280.148 42.4652 280.098 42.2716 280.062 42.03C280.025 41.7839 280.007 41.5561 280.007 41.3464ZM280.226 38.1267L280.239 39.0154H278.961C278.601 39.0154 278.28 39.045 277.997 39.1042C277.715 39.1589 277.478 39.2432 277.286 39.3572C277.095 39.4711 276.949 39.6146 276.849 39.7878C276.748 39.9564 276.698 40.1547 276.698 40.3826C276.698 40.615 276.751 40.8269 276.855 41.0183C276.96 41.2097 277.118 41.3624 277.327 41.4763C277.541 41.5857 277.803 41.6404 278.113 41.6404C278.501 41.6404 278.842 41.5583 279.139 41.3943C279.435 41.2302 279.67 41.0297 279.843 40.7927C280.021 40.5557 280.116 40.3256 280.13 40.1023L280.67 40.7107C280.638 40.9021 280.551 41.114 280.41 41.3464C280.269 41.5788 280.08 41.8021 279.843 42.0163C279.61 42.226 279.332 42.4014 279.009 42.5427C278.69 42.6794 278.33 42.7478 277.929 42.7478C277.427 42.7478 276.988 42.6498 276.609 42.4538C276.236 42.2579 275.944 41.9958 275.734 41.6677C275.529 41.335 275.427 40.9636 275.427 40.5535C275.427 40.157 275.504 39.8083 275.659 39.5076C275.814 39.2022 276.037 38.9493 276.329 38.7488C276.621 38.5437 276.972 38.3887 277.382 38.2839C277.792 38.1791 278.25 38.1267 278.756 38.1267H280.226ZM287.923 41.1755V32.1111H289.194V42.6111H288.032L287.923 41.1755ZM282.946 38.9949V38.8513C282.946 38.2862 283.015 37.7735 283.151 37.3132C283.293 36.8484 283.491 36.4496 283.746 36.1169C284.006 35.7842 284.313 35.529 284.669 35.3513C285.029 35.169 285.43 35.0779 285.872 35.0779C286.337 35.0779 286.743 35.1599 287.089 35.324C287.44 35.4835 287.736 35.7182 287.978 36.0281C288.224 36.3334 288.417 36.7025 288.559 37.1355C288.7 37.5684 288.798 38.0583 288.853 38.6052V39.2341C288.802 39.7764 288.704 40.2641 288.559 40.697C288.417 41.1299 288.224 41.4991 287.978 41.8044C287.736 42.1098 287.44 42.3445 287.089 42.5085C286.738 42.668 286.328 42.7478 285.858 42.7478C285.425 42.7478 285.029 42.6544 284.669 42.4675C284.313 42.2807 284.006 42.0186 283.746 41.6814C283.491 41.3441 283.293 40.9477 283.151 40.4919C283.015 40.0316 282.946 39.5326 282.946 38.9949ZM284.218 38.8513V38.9949C284.218 39.364 284.254 39.7104 284.327 40.0339C284.405 40.3575 284.523 40.6423 284.683 40.8884C284.842 41.1345 285.045 41.3282 285.291 41.4695C285.537 41.6062 285.831 41.6745 286.173 41.6745C286.592 41.6745 286.936 41.5857 287.205 41.4079C287.479 41.2302 287.697 40.9955 287.861 40.7038C288.025 40.4122 288.153 40.0954 288.244 39.7536V38.1062C288.189 37.8555 288.11 37.614 288.005 37.3816C287.905 37.1446 287.772 36.935 287.608 36.7527C287.449 36.5658 287.251 36.4177 287.014 36.3083C286.781 36.199 286.506 36.1443 286.187 36.1443C285.84 36.1443 285.542 36.2172 285.291 36.363C285.045 36.5043 284.842 36.7003 284.683 36.9509C284.523 37.197 284.405 37.4841 284.327 37.8122C284.254 38.1358 284.218 38.4822 284.218 38.8513ZM293.412 41.4695L295.436 35.2146H296.728L294.068 42.6111H293.221L293.412 41.4695ZM291.724 35.2146L293.809 41.5036L293.952 42.6111H293.104L290.425 35.2146H291.724ZM299.318 35.2146V42.6111H298.047V35.2146H299.318ZM297.951 33.2527C297.951 33.0476 298.013 32.8744 298.136 32.7331C298.263 32.5919 298.45 32.5212 298.696 32.5212C298.938 32.5212 299.122 32.5919 299.25 32.7331C299.382 32.8744 299.448 33.0476 299.448 33.2527C299.448 33.4486 299.382 33.6173 299.25 33.7585C299.122 33.8952 298.938 33.9636 298.696 33.9636C298.45 33.9636 298.263 33.8952 298.136 33.7585C298.013 33.6173 297.951 33.4486 297.951 33.2527ZM305.655 40.6492C305.655 40.4669 305.614 40.2982 305.532 40.1433C305.455 39.9838 305.293 39.8402 305.047 39.7126C304.805 39.5805 304.441 39.4665 303.953 39.3708C303.543 39.2842 303.172 39.1817 302.839 39.0632C302.511 38.9447 302.23 38.8012 301.998 38.6326C301.77 38.4639 301.595 38.2657 301.472 38.0378C301.349 37.81 301.287 37.5434 301.287 37.238C301.287 36.9464 301.351 36.6706 301.479 36.4109C301.611 36.1511 301.795 35.921 302.032 35.7204C302.274 35.5199 302.563 35.3627 302.9 35.2488C303.238 35.1348 303.614 35.0779 304.028 35.0779C304.621 35.0779 305.127 35.1827 305.546 35.3923C305.965 35.602 306.286 35.8822 306.51 36.2331C306.733 36.5795 306.845 36.9646 306.845 37.3884H305.58C305.58 37.1833 305.519 36.9851 305.396 36.7937C305.277 36.5977 305.102 36.4359 304.869 36.3083C304.641 36.1807 304.361 36.1169 304.028 36.1169C303.677 36.1169 303.393 36.1716 303.174 36.281C302.96 36.3858 302.802 36.5202 302.702 36.6843C302.606 36.8484 302.559 37.0216 302.559 37.2038C302.559 37.3406 302.581 37.4636 302.627 37.573C302.677 37.6778 302.764 37.7758 302.887 37.8669C303.01 37.9535 303.183 38.0355 303.406 38.113C303.63 38.1905 303.914 38.268 304.261 38.3454C304.867 38.4822 305.366 38.6462 305.758 38.8376C306.15 39.029 306.441 39.2637 306.633 39.5417C306.824 39.8197 306.92 40.157 306.92 40.5535C306.92 40.877 306.852 41.1732 306.715 41.4421C306.583 41.711 306.389 41.9434 306.134 42.1394C305.883 42.3308 305.582 42.4812 305.231 42.5906C304.885 42.6954 304.495 42.7478 304.062 42.7478C303.411 42.7478 302.859 42.6316 302.408 42.3992C301.957 42.1667 301.615 41.866 301.383 41.4968C301.15 41.1277 301.034 40.738 301.034 40.3279H302.306C302.324 40.6742 302.424 40.9499 302.606 41.155C302.789 41.3555 303.012 41.4991 303.276 41.5857C303.541 41.6677 303.803 41.7087 304.062 41.7087C304.409 41.7087 304.698 41.6632 304.931 41.572C305.168 41.4809 305.348 41.3555 305.471 41.196C305.594 41.0365 305.655 40.8542 305.655 40.6492ZM308.246 38.9949V38.8376C308.246 38.3044 308.324 37.81 308.479 37.3542C308.633 36.8939 308.857 36.4952 309.148 36.1579C309.44 35.8161 309.793 35.5518 310.208 35.365C310.623 35.1736 311.088 35.0779 311.603 35.0779C312.122 35.0779 312.589 35.1736 313.004 35.365C313.423 35.5518 313.779 35.8161 314.07 36.1579C314.367 36.4952 314.592 36.8939 314.747 37.3542C314.902 37.81 314.979 38.3044 314.979 38.8376V38.9949C314.979 39.5281 314.902 40.0225 314.747 40.4783C314.592 40.934 314.367 41.3327 314.07 41.6745C313.779 42.0118 313.425 42.2761 313.011 42.4675C312.601 42.6544 312.136 42.7478 311.616 42.7478C311.097 42.7478 310.63 42.6544 310.215 42.4675C309.8 42.2761 309.445 42.0118 309.148 41.6745C308.857 41.3327 308.633 40.934 308.479 40.4783C308.324 40.0225 308.246 39.5281 308.246 38.9949ZM309.511 38.8376V38.9949C309.511 39.364 309.554 39.7126 309.641 40.0408C309.727 40.3643 309.857 40.6514 310.03 40.9021C310.208 41.1527 310.429 41.351 310.693 41.4968C310.958 41.6381 311.265 41.7087 311.616 41.7087C311.963 41.7087 312.266 41.6381 312.525 41.4968C312.79 41.351 313.008 41.1527 313.182 40.9021C313.355 40.6514 313.485 40.3643 313.571 40.0408C313.662 39.7126 313.708 39.364 313.708 38.9949V38.8376C313.708 38.473 313.662 38.129 313.571 37.8054C313.485 37.4773 313.353 37.1879 313.175 36.9372C313.002 36.682 312.783 36.4815 312.519 36.3357C312.259 36.1898 311.953 36.1169 311.603 36.1169C311.256 36.1169 310.951 36.1898 310.687 36.3357C310.427 36.4815 310.208 36.682 310.03 36.9372C309.857 37.1879 309.727 37.4773 309.641 37.8054C309.554 38.129 309.511 38.473 309.511 38.8376ZM317.83 36.3767V42.6111H316.565V35.2146H317.796L317.83 36.3767ZM320.141 35.1736L320.134 36.3493C320.029 36.3266 319.929 36.3129 319.833 36.3083C319.742 36.2992 319.637 36.2947 319.519 36.2947C319.227 36.2947 318.969 36.3402 318.746 36.4314C318.523 36.5225 318.334 36.6501 318.179 36.8142C318.024 36.9783 317.901 37.1742 317.81 37.4021C317.723 37.6254 317.666 37.8715 317.639 38.1404L317.283 38.3454C317.283 37.8988 317.326 37.4796 317.413 37.0876C317.504 36.6957 317.643 36.3493 317.83 36.0486C318.017 35.7432 318.254 35.5063 318.541 35.3376C318.833 35.1645 319.179 35.0779 319.58 35.0779C319.671 35.0779 319.776 35.0893 319.895 35.112C320.013 35.1303 320.095 35.1508 320.141 35.1736ZM325.616 40.6492C325.616 40.4669 325.575 40.2982 325.493 40.1433C325.416 39.9838 325.254 39.8402 325.008 39.7126C324.766 39.5805 324.402 39.4665 323.914 39.3708C323.504 39.2842 323.132 39.1817 322.8 39.0632C322.472 38.9447 322.191 38.8012 321.959 38.6326C321.731 38.4639 321.556 38.2657 321.433 38.0378C321.31 37.81 321.248 37.5434 321.248 37.238C321.248 36.9464 321.312 36.6706 321.439 36.4109C321.572 36.1511 321.756 35.921 321.993 35.7204C322.235 35.5199 322.524 35.3627 322.861 35.2488C323.199 35.1348 323.575 35.0779 323.989 35.0779C324.582 35.0779 325.088 35.1827 325.507 35.3923C325.926 35.602 326.247 35.8822 326.471 36.2331C326.694 36.5795 326.806 36.9646 326.806 37.3884H325.541C325.541 37.1833 325.479 36.9851 325.356 36.7937C325.238 36.5977 325.062 36.4359 324.83 36.3083C324.602 36.1807 324.322 36.1169 323.989 36.1169C323.638 36.1169 323.354 36.1716 323.135 36.281C322.921 36.3858 322.763 36.5202 322.663 36.6843C322.567 36.8484 322.52 37.0216 322.52 37.2038C322.52 37.3406 322.542 37.4636 322.588 37.573C322.638 37.6778 322.725 37.7758 322.848 37.8669C322.971 37.9535 323.144 38.0355 323.367 38.113C323.59 38.1905 323.875 38.268 324.222 38.3454C324.828 38.4822 325.327 38.6462 325.719 38.8376C326.111 39.029 326.402 39.2637 326.594 39.5417C326.785 39.8197 326.881 40.157 326.881 40.5535C326.881 40.877 326.812 41.1732 326.676 41.4421C326.544 41.711 326.35 41.9434 326.095 42.1394C325.844 42.3308 325.543 42.4812 325.192 42.5906C324.846 42.6954 324.456 42.7478 324.023 42.7478C323.372 42.7478 322.82 42.6316 322.369 42.3992C321.918 42.1667 321.576 41.866 321.344 41.4968C321.111 41.1277 320.995 40.738 320.995 40.3279H322.267C322.285 40.6742 322.385 40.9499 322.567 41.155C322.75 41.3555 322.973 41.4991 323.237 41.5857C323.502 41.6677 323.764 41.7087 324.023 41.7087C324.37 41.7087 324.659 41.6632 324.892 41.572C325.129 41.4809 325.309 41.3555 325.432 41.196C325.555 41.0365 325.616 40.8542 325.616 40.6492ZM335.111 35.2146V36.1853H331.112V35.2146H335.111ZM332.466 33.4167H333.73V40.779C333.73 41.0297 333.769 41.2188 333.847 41.3464C333.924 41.474 334.024 41.5583 334.147 41.5993C334.271 41.6404 334.403 41.6609 334.544 41.6609C334.649 41.6609 334.758 41.6518 334.872 41.6335C334.991 41.6107 335.079 41.5925 335.139 41.5788L335.146 42.6111C335.045 42.643 334.913 42.6726 334.749 42.6999C334.59 42.7318 334.396 42.7478 334.168 42.7478C333.858 42.7478 333.573 42.6863 333.313 42.5632C333.054 42.4402 332.846 42.2351 332.691 41.948C332.541 41.6563 332.466 41.2644 332.466 40.7722V33.4167ZM336.123 38.9949V38.8376C336.123 38.3044 336.201 37.81 336.355 37.3542C336.51 36.8939 336.734 36.4952 337.025 36.1579C337.317 35.8161 337.67 35.5518 338.085 35.365C338.5 35.1736 338.965 35.0779 339.479 35.0779C339.999 35.0779 340.466 35.1736 340.881 35.365C341.3 35.5518 341.656 35.8161 341.947 36.1579C342.243 36.4952 342.469 36.8939 342.624 37.3542C342.779 37.81 342.856 38.3044 342.856 38.8376V38.9949C342.856 39.5281 342.779 40.0225 342.624 40.4783C342.469 40.934 342.243 41.3327 341.947 41.6745C341.656 42.0118 341.302 42.2761 340.888 42.4675C340.478 42.6544 340.013 42.7478 339.493 42.7478C338.974 42.7478 338.507 42.6544 338.092 42.4675C337.677 42.2761 337.322 42.0118 337.025 41.6745C336.734 41.3327 336.51 40.934 336.355 40.4783C336.201 40.0225 336.123 39.5281 336.123 38.9949ZM337.388 38.8376V38.9949C337.388 39.364 337.431 39.7126 337.518 40.0408C337.604 40.3643 337.734 40.6514 337.907 40.9021C338.085 41.1527 338.306 41.351 338.57 41.4968C338.835 41.6381 339.142 41.7087 339.493 41.7087C339.84 41.7087 340.143 41.6381 340.402 41.4968C340.667 41.351 340.885 41.1527 341.059 40.9021C341.232 40.6514 341.362 40.3643 341.448 40.0408C341.539 39.7126 341.585 39.364 341.585 38.9949V38.8376C341.585 38.473 341.539 38.129 341.448 37.8054C341.362 37.4773 341.229 37.1879 341.052 36.9372C340.879 36.682 340.66 36.4815 340.396 36.3357C340.136 36.1898 339.83 36.1169 339.479 36.1169C339.133 36.1169 338.828 36.1898 338.563 36.3357C338.304 36.4815 338.085 36.682 337.907 36.9372C337.734 37.1879 337.604 37.4773 337.518 37.8054C337.431 38.129 337.388 38.473 337.388 38.8376ZM112.957 56.1111H114.229V65.1755L114.119 66.6111H112.957V56.1111ZM119.226 62.8513V62.9949C119.226 63.5326 119.162 64.0316 119.034 64.4919C118.907 64.9477 118.72 65.3441 118.474 65.6814C118.228 66.0186 117.927 66.2807 117.571 66.4675C117.216 66.6544 116.808 66.7478 116.348 66.7478C115.878 66.7478 115.466 66.668 115.11 66.5085C114.759 66.3445 114.463 66.1098 114.222 65.8044C113.98 65.4991 113.786 65.1299 113.641 64.697C113.499 64.2641 113.401 63.7764 113.347 63.2341V62.6052C113.401 62.0583 113.499 61.5684 113.641 61.1355C113.786 60.7025 113.98 60.3334 114.222 60.0281C114.463 59.7182 114.759 59.4835 115.11 59.324C115.461 59.1599 115.869 59.0779 116.334 59.0779C116.799 59.0779 117.211 59.169 117.571 59.3513C117.931 59.529 118.232 59.7842 118.474 60.1169C118.72 60.4496 118.907 60.8484 119.034 61.3132C119.162 61.7735 119.226 62.2862 119.226 62.8513ZM117.954 62.9949V62.8513C117.954 62.4822 117.92 62.1358 117.852 61.8122C117.783 61.4841 117.674 61.197 117.523 60.9509C117.373 60.7003 117.175 60.5043 116.929 60.363C116.683 60.2172 116.38 60.1443 116.02 60.1443C115.701 60.1443 115.423 60.199 115.186 60.3083C114.953 60.4177 114.755 60.5658 114.591 60.7527C114.427 60.935 114.292 61.1446 114.188 61.3816C114.087 61.614 114.012 61.8555 113.962 62.1062V63.7536C114.035 64.0727 114.153 64.3803 114.317 64.6765C114.486 64.9682 114.709 65.2074 114.987 65.3943C115.27 65.5811 115.618 65.6745 116.033 65.6745C116.375 65.6745 116.667 65.6062 116.908 65.4695C117.154 65.3282 117.353 65.1345 117.503 64.8884C117.658 64.6423 117.772 64.3575 117.845 64.0339C117.918 63.7104 117.954 63.364 117.954 62.9949ZM123.895 66.7478C123.38 66.7478 122.912 66.6612 122.493 66.488C122.078 66.3103 121.721 66.0619 121.42 65.7429C121.124 65.4239 120.896 65.0456 120.736 64.6081C120.577 64.1706 120.497 63.6921 120.497 63.1726V62.8855C120.497 62.2839 120.586 61.7484 120.764 61.279C120.941 60.8051 121.183 60.404 121.488 60.0759C121.794 59.7478 122.14 59.4994 122.527 59.3308C122.915 59.1622 123.316 59.0779 123.73 59.0779C124.259 59.0779 124.715 59.169 125.098 59.3513C125.485 59.5336 125.802 59.7888 126.048 60.1169C126.294 60.4405 126.476 60.8233 126.595 61.2654C126.713 61.7029 126.772 62.1814 126.772 62.7009V63.2683H121.249V62.2361H125.508V62.1404C125.49 61.8122 125.421 61.4932 125.303 61.1833C125.189 60.8734 125.007 60.6182 124.756 60.4177C124.505 60.2172 124.163 60.1169 123.73 60.1169C123.443 60.1169 123.179 60.1785 122.938 60.3015C122.696 60.42 122.489 60.5977 122.315 60.8347C122.142 61.0717 122.008 61.3611 121.912 61.7029C121.816 62.0447 121.769 62.4389 121.769 62.8855V63.1726C121.769 63.5235 121.816 63.8539 121.912 64.1638C122.012 64.4691 122.156 64.738 122.343 64.9704C122.534 65.2029 122.764 65.3852 123.033 65.5173C123.307 65.6495 123.617 65.7156 123.963 65.7156C124.41 65.7156 124.788 65.6244 125.098 65.4421C125.408 65.2598 125.679 65.016 125.911 64.7107L126.677 65.3191C126.517 65.5606 126.314 65.7908 126.068 66.0095C125.822 66.2283 125.519 66.406 125.159 66.5427C124.804 66.6794 124.382 66.7478 123.895 66.7478ZM133.096 59.2146V66.6111H131.824V59.2146H133.096ZM131.729 57.2527C131.729 57.0476 131.79 56.8744 131.913 56.7331C132.041 56.5919 132.228 56.5212 132.474 56.5212C132.715 56.5212 132.9 56.5919 133.027 56.7331C133.16 56.8744 133.226 57.0476 133.226 57.2527C133.226 57.4486 133.16 57.6173 133.027 57.7585C132.9 57.8952 132.715 57.9636 132.474 57.9636C132.228 57.9636 132.041 57.8952 131.913 57.7585C131.79 57.6173 131.729 57.4486 131.729 57.2527ZM136.391 60.7937V66.6111H135.126V59.2146H136.322L136.391 60.7937ZM136.09 62.6326L135.563 62.612C135.568 62.1062 135.643 61.6391 135.789 61.2107C135.935 60.7777 136.14 60.4018 136.404 60.0827C136.669 59.7637 136.983 59.5176 137.348 59.3445C137.717 59.1667 138.125 59.0779 138.571 59.0779C138.936 59.0779 139.264 59.128 139.556 59.2283C139.847 59.324 140.096 59.4789 140.301 59.6931C140.51 59.9073 140.67 60.1853 140.779 60.5271C140.889 60.8643 140.943 61.2768 140.943 61.7644V66.6111H139.672V61.7507C139.672 61.3633 139.615 61.0535 139.501 60.821C139.387 60.5841 139.221 60.4132 139.002 60.3083C138.783 60.199 138.514 60.1443 138.195 60.1443C137.881 60.1443 137.594 60.2104 137.334 60.3425C137.079 60.4747 136.858 60.657 136.671 60.8894C136.489 61.1218 136.345 61.3884 136.24 61.6892C136.14 61.9854 136.09 62.2999 136.09 62.6326ZM149.434 59.2146V60.1853H145.435V59.2146H149.434ZM146.788 57.4167H148.053V64.779C148.053 65.0297 148.091 65.2188 148.169 65.3464C148.246 65.474 148.347 65.5583 148.47 65.5993C148.593 65.6404 148.725 65.6609 148.866 65.6609C148.971 65.6609 149.08 65.6518 149.194 65.6335C149.313 65.6107 149.402 65.5925 149.461 65.5788L149.468 66.6111C149.368 66.643 149.235 66.6726 149.071 66.6999C148.912 66.7318 148.718 66.7478 148.49 66.7478C148.18 66.7478 147.896 66.6863 147.636 66.5632C147.376 66.4402 147.169 66.2351 147.014 65.948C146.863 65.6563 146.788 65.2644 146.788 64.7722V57.4167ZM152.182 56.1111V66.6111H150.917V56.1111H152.182ZM151.881 62.6326L151.354 62.612C151.359 62.1062 151.434 61.6391 151.58 61.2107C151.726 60.7777 151.931 60.4018 152.195 60.0827C152.46 59.7637 152.774 59.5176 153.139 59.3445C153.508 59.1667 153.916 59.0779 154.362 59.0779C154.727 59.0779 155.055 59.128 155.347 59.2283C155.638 59.324 155.887 59.4789 156.092 59.6931C156.301 59.9073 156.461 60.1853 156.57 60.5271C156.68 60.8643 156.734 61.2768 156.734 61.7644V66.6111H155.463V61.7507C155.463 61.3633 155.406 61.0535 155.292 60.821C155.178 60.5841 155.012 60.4132 154.793 60.3083C154.574 60.199 154.305 60.1443 153.986 60.1443C153.672 60.1443 153.385 60.2104 153.125 60.3425C152.87 60.4747 152.649 60.657 152.462 60.8894C152.28 61.1218 152.136 61.3884 152.031 61.6892C151.931 61.9854 151.881 62.2999 151.881 62.6326ZM161.697 66.7478C161.182 66.7478 160.715 66.6612 160.296 66.488C159.881 66.3103 159.523 66.0619 159.223 65.7429C158.926 65.4239 158.699 65.0456 158.539 64.6081C158.38 64.1706 158.3 63.6921 158.3 63.1726V62.8855C158.3 62.2839 158.389 61.7484 158.566 61.279C158.744 60.8051 158.986 60.404 159.291 60.0759C159.596 59.7478 159.943 59.4994 160.33 59.3308C160.717 59.1622 161.118 59.0779 161.533 59.0779C162.062 59.0779 162.518 59.169 162.9 59.3513C163.288 59.5336 163.604 59.7888 163.851 60.1169C164.097 60.4405 164.279 60.8233 164.397 61.2654C164.516 61.7029 164.575 62.1814 164.575 62.7009V63.2683H159.052V62.2361H163.311V62.1404C163.292 61.8122 163.224 61.4932 163.105 61.1833C162.992 60.8734 162.809 60.6182 162.559 60.4177C162.308 60.2172 161.966 60.1169 161.533 60.1169C161.246 60.1169 160.982 60.1785 160.74 60.3015C160.499 60.42 160.291 60.5977 160.118 60.8347C159.945 61.0717 159.811 61.3611 159.715 61.7029C159.619 62.0447 159.571 62.4389 159.571 62.8855V63.1726C159.571 63.5235 159.619 63.8539 159.715 64.1638C159.815 64.4691 159.959 64.738 160.146 64.9704C160.337 65.2029 160.567 65.3852 160.836 65.5173C161.109 65.6495 161.419 65.7156 161.766 65.7156C162.212 65.7156 162.59 65.6244 162.9 65.4421C163.21 65.2598 163.481 65.016 163.714 64.7107L164.479 65.3191C164.32 65.5606 164.117 65.7908 163.871 66.0095C163.625 66.2283 163.322 66.406 162.962 66.5427C162.606 66.6794 162.185 66.7478 161.697 66.7478ZM173.831 64.6492C173.831 64.4669 173.79 64.2982 173.708 64.1433C173.631 63.9838 173.469 63.8402 173.223 63.7126C172.981 63.5805 172.617 63.4665 172.129 63.3708C171.719 63.2842 171.347 63.1817 171.015 63.0632C170.687 62.9447 170.406 62.8012 170.174 62.6326C169.946 62.4639 169.771 62.2657 169.647 62.0378C169.524 61.81 169.463 61.5434 169.463 61.238C169.463 60.9464 169.527 60.6706 169.654 60.4109C169.786 60.1511 169.971 59.921 170.208 59.7204C170.45 59.5199 170.739 59.3627 171.076 59.2488C171.413 59.1348 171.789 59.0779 172.204 59.0779C172.797 59.0779 173.302 59.1827 173.722 59.3923C174.141 59.602 174.462 59.8822 174.686 60.2331C174.909 60.5795 175.021 60.9646 175.021 61.3884H173.756C173.756 61.1833 173.694 60.9851 173.571 60.7937C173.453 60.5977 173.277 60.4359 173.045 60.3083C172.817 60.1807 172.537 60.1169 172.204 60.1169C171.853 60.1169 171.568 60.1716 171.35 60.281C171.135 60.3858 170.978 60.5202 170.878 60.6843C170.782 60.8484 170.734 61.0216 170.734 61.2038C170.734 61.3406 170.757 61.4636 170.803 61.573C170.853 61.6778 170.939 61.7758 171.062 61.8669C171.186 61.9535 171.359 62.0355 171.582 62.113C171.805 62.1905 172.09 62.268 172.437 62.3454C173.043 62.4822 173.542 62.6462 173.934 62.8376C174.326 63.029 174.617 63.2637 174.809 63.5417C175 63.8197 175.096 64.157 175.096 64.5535C175.096 64.877 175.027 65.1732 174.891 65.4421C174.758 65.711 174.565 65.9434 174.31 66.1394C174.059 66.3308 173.758 66.4812 173.407 66.5906C173.061 66.6954 172.671 66.7478 172.238 66.7478C171.587 66.7478 171.035 66.6316 170.584 66.3992C170.133 66.1667 169.791 65.866 169.559 65.4968C169.326 65.1277 169.21 64.738 169.21 64.3279H170.481C170.5 64.6742 170.6 64.9499 170.782 65.155C170.965 65.3555 171.188 65.4991 171.452 65.5857C171.716 65.6677 171.979 65.7087 172.238 65.7087C172.585 65.7087 172.874 65.6632 173.106 65.572C173.343 65.4809 173.523 65.3555 173.646 65.196C173.77 65.0365 173.831 64.8542 173.831 64.6492ZM178.021 60.6365V69.4548H176.75V59.2146H177.912L178.021 60.6365ZM183.005 62.8513V62.9949C183.005 63.5326 182.941 64.0316 182.813 64.4919C182.686 64.9477 182.499 65.3441 182.253 65.6814C182.011 66.0186 181.713 66.2807 181.357 66.4675C181.002 66.6544 180.594 66.7478 180.134 66.7478C179.664 66.7478 179.25 66.6703 178.89 66.5154C178.53 66.3604 178.224 66.1348 177.974 65.8386C177.723 65.5424 177.522 65.1869 177.372 64.7722C177.226 64.3575 177.126 63.8904 177.071 63.3708V62.6052C177.126 62.0583 177.229 61.5684 177.379 61.1355C177.529 60.7025 177.728 60.3334 177.974 60.0281C178.224 59.7182 178.527 59.4835 178.883 59.324C179.238 59.1599 179.648 59.0779 180.113 59.0779C180.578 59.0779 180.991 59.169 181.351 59.3513C181.711 59.529 182.014 59.7842 182.26 60.1169C182.506 60.4496 182.69 60.8484 182.813 61.3132C182.941 61.7735 183.005 62.2862 183.005 62.8513ZM181.733 62.9949V62.8513C181.733 62.4822 181.695 62.1358 181.617 61.8122C181.54 61.4841 181.419 61.197 181.255 60.9509C181.095 60.7003 180.89 60.5043 180.64 60.363C180.389 60.2172 180.09 60.1443 179.744 60.1443C179.425 60.1443 179.147 60.199 178.91 60.3083C178.678 60.4177 178.479 60.5658 178.315 60.7527C178.151 60.935 178.017 61.1446 177.912 61.3816C177.812 61.614 177.737 61.8555 177.687 62.1062V63.8767C177.778 64.1957 177.905 64.4965 178.069 64.779C178.233 65.057 178.452 65.2826 178.726 65.4558C178.999 65.6244 179.343 65.7087 179.758 65.7087C180.1 65.7087 180.394 65.6381 180.64 65.4968C180.89 65.351 181.095 65.1527 181.255 64.9021C181.419 64.6514 181.54 64.3643 181.617 64.0408C181.695 63.7126 181.733 63.364 181.733 62.9949ZM184.283 62.9949V62.8376C184.283 62.3044 184.361 61.81 184.516 61.3542C184.671 60.8939 184.894 60.4952 185.186 60.1579C185.477 59.8161 185.83 59.5518 186.245 59.365C186.66 59.1736 187.125 59.0779 187.64 59.0779C188.159 59.0779 188.626 59.1736 189.041 59.365C189.46 59.5518 189.816 59.8161 190.107 60.1579C190.404 60.4952 190.629 60.8939 190.784 61.3542C190.939 61.81 191.017 62.3044 191.017 62.8376V62.9949C191.017 63.5281 190.939 64.0225 190.784 64.4783C190.629 64.934 190.404 65.3327 190.107 65.6745C189.816 66.0118 189.463 66.2761 189.048 66.4675C188.638 66.6544 188.173 66.7478 187.653 66.7478C187.134 66.7478 186.667 66.6544 186.252 66.4675C185.837 66.2761 185.482 66.0118 185.186 65.6745C184.894 65.3327 184.671 64.934 184.516 64.4783C184.361 64.0225 184.283 63.5281 184.283 62.9949ZM185.548 62.8376V62.9949C185.548 63.364 185.591 63.7126 185.678 64.0408C185.764 64.3643 185.894 64.6514 186.067 64.9021C186.245 65.1527 186.466 65.351 186.73 65.4968C186.995 65.6381 187.302 65.7087 187.653 65.7087C188 65.7087 188.303 65.6381 188.562 65.4968C188.827 65.351 189.046 65.1527 189.219 64.9021C189.392 64.6514 189.522 64.3643 189.608 64.0408C189.7 63.7126 189.745 63.364 189.745 62.9949V62.8376C189.745 62.473 189.7 62.129 189.608 61.8054C189.522 61.4773 189.39 61.1879 189.212 60.9372C189.039 60.682 188.82 60.4815 188.556 60.3357C188.296 60.1898 187.991 60.1169 187.64 60.1169C187.293 60.1169 186.988 60.1898 186.724 60.3357C186.464 60.4815 186.245 60.682 186.067 60.9372C185.894 61.1879 185.764 61.4773 185.678 61.8054C185.591 62.129 185.548 62.473 185.548 62.8376ZM195.699 59.2146V60.1853H191.7V59.2146H195.699ZM193.054 57.4167H194.318V64.779C194.318 65.0297 194.357 65.2188 194.435 65.3464C194.512 65.474 194.612 65.5583 194.735 65.5993C194.858 65.6404 194.991 65.6609 195.132 65.6609C195.237 65.6609 195.346 65.6518 195.46 65.6335C195.578 65.6107 195.667 65.5925 195.727 65.5788L195.733 66.6111C195.633 66.643 195.501 66.6726 195.337 66.6999C195.177 66.7318 194.984 66.7478 194.756 66.7478C194.446 66.7478 194.161 66.6863 193.901 66.5632C193.642 66.4402 193.434 66.2351 193.279 65.948C193.129 65.6563 193.054 65.2644 193.054 64.7722V57.4167ZM198.557 56.1111V66.6111H197.285V56.1111H198.557ZM201.961 59.2146V66.6111H200.689V59.2146H201.961ZM200.594 57.2527C200.594 57.0476 200.655 56.8744 200.778 56.7331C200.906 56.5919 201.093 56.5212 201.339 56.5212C201.58 56.5212 201.765 56.5919 201.893 56.7331C202.025 56.8744 202.091 57.0476 202.091 57.2527C202.091 57.4486 202.025 57.6173 201.893 57.7585C201.765 57.8952 201.58 57.9636 201.339 57.9636C201.093 57.9636 200.906 57.8952 200.778 57.7585C200.655 57.6173 200.594 57.4486 200.594 57.2527ZM208.783 59.2146H209.932V66.4538C209.932 67.1055 209.799 67.6615 209.535 68.1218C209.271 68.5821 208.902 68.9307 208.428 69.1677C207.958 69.4092 207.416 69.53 206.801 69.53C206.546 69.53 206.245 69.489 205.898 69.407C205.557 69.3295 205.219 69.1951 204.887 69.0036C204.559 68.8168 204.283 68.5639 204.06 68.2449L204.723 67.4929C205.033 67.8666 205.356 68.1264 205.693 68.2722C206.035 68.418 206.372 68.491 206.705 68.491C207.106 68.491 207.452 68.4158 207.744 68.2654C208.036 68.115 208.261 67.8917 208.421 67.5954C208.585 67.3038 208.667 66.9438 208.667 66.5154V60.8415L208.783 59.2146ZM203.69 62.9949V62.8513C203.69 62.2862 203.757 61.7735 203.889 61.3132C204.025 60.8484 204.219 60.4496 204.47 60.1169C204.725 59.7842 205.033 59.529 205.393 59.3513C205.753 59.169 206.158 59.0779 206.609 59.0779C207.074 59.0779 207.48 59.1599 207.826 59.324C208.177 59.4835 208.473 59.7182 208.715 60.0281C208.961 60.3334 209.155 60.7025 209.296 61.1355C209.437 61.5684 209.535 62.0583 209.59 62.6052V63.2341C209.54 63.7764 209.442 64.2641 209.296 64.697C209.155 65.1299 208.961 65.4991 208.715 65.8044C208.473 66.1098 208.177 66.3445 207.826 66.5085C207.475 66.668 207.065 66.7478 206.596 66.7478C206.154 66.7478 205.753 66.6544 205.393 66.4675C205.037 66.2807 204.732 66.0186 204.477 65.6814C204.221 65.3441 204.025 64.9477 203.889 64.4919C203.757 64.0316 203.69 63.5326 203.69 62.9949ZM204.955 62.8513V62.9949C204.955 63.364 204.992 63.7104 205.064 64.0339C205.142 64.3575 205.258 64.6423 205.413 64.8884C205.573 65.1345 205.775 65.3282 206.021 65.4695C206.268 65.6062 206.562 65.6745 206.903 65.6745C207.323 65.6745 207.669 65.5857 207.942 65.4079C208.216 65.2302 208.432 64.9955 208.592 64.7038C208.756 64.4122 208.883 64.0954 208.975 63.7536V62.1062C208.924 61.8555 208.847 61.614 208.742 61.3816C208.642 61.1446 208.51 60.935 208.346 60.7527C208.186 60.5658 207.988 60.4177 207.751 60.3083C207.514 60.199 207.236 60.1443 206.917 60.1443C206.571 60.1443 206.272 60.2172 206.021 60.363C205.775 60.5043 205.573 60.7003 205.413 60.9509C205.258 61.197 205.142 61.4841 205.064 61.8122C204.992 62.1358 204.955 62.4822 204.955 62.8513ZM213.117 56.1111V66.6111H211.853V56.1111H213.117ZM212.816 62.6326L212.29 62.612C212.295 62.1062 212.37 61.6391 212.516 61.2107C212.661 60.7777 212.867 60.4018 213.131 60.0827C213.395 59.7637 213.71 59.5176 214.074 59.3445C214.443 59.1667 214.851 59.0779 215.298 59.0779C215.662 59.0779 215.991 59.128 216.282 59.2283C216.574 59.324 216.822 59.4789 217.027 59.6931C217.237 59.9073 217.396 60.1853 217.506 60.5271C217.615 60.8643 217.67 61.2768 217.67 61.7644V66.6111H216.398V61.7507C216.398 61.3633 216.341 61.0535 216.228 60.821C216.114 60.5841 215.947 60.4132 215.729 60.3083C215.51 60.199 215.241 60.1443 214.922 60.1443C214.607 60.1443 214.32 60.2104 214.061 60.3425C213.805 60.4747 213.584 60.657 213.397 60.8894C213.215 61.1218 213.072 61.3884 212.967 61.6892C212.867 61.9854 212.816 62.2999 212.816 62.6326ZM222.66 59.2146V60.1853H218.661V59.2146H222.66ZM220.015 57.4167H221.279V64.779C221.279 65.0297 221.318 65.2188 221.396 65.3464C221.473 65.474 221.573 65.5583 221.696 65.5993C221.819 65.6404 221.951 65.6609 222.093 65.6609C222.198 65.6609 222.307 65.6518 222.421 65.6335C222.539 65.6107 222.628 65.5925 222.688 65.5788L222.694 66.6111C222.594 66.643 222.462 66.6726 222.298 66.6999C222.138 66.7318 221.945 66.7478 221.717 66.7478C221.407 66.7478 221.122 66.6863 220.862 66.5632C220.603 66.4402 220.395 66.2351 220.24 65.948C220.09 65.6563 220.015 65.2644 220.015 64.7722V57.4167ZM224.164 65.9411C224.164 65.727 224.23 65.5469 224.362 65.4011C224.499 65.2507 224.695 65.1755 224.95 65.1755C225.205 65.1755 225.399 65.2507 225.531 65.4011C225.668 65.5469 225.736 65.727 225.736 65.9411C225.736 66.1508 225.668 66.3285 225.531 66.4743C225.399 66.6202 225.205 66.6931 224.95 66.6931C224.695 66.6931 224.499 66.6202 224.362 66.4743C224.23 66.3285 224.164 66.1508 224.164 65.9411ZM236.804 64.0954C236.804 63.863 236.767 63.6579 236.694 63.4802C236.626 63.2979 236.503 63.1339 236.325 62.988C236.152 62.8422 235.91 62.7032 235.601 62.571C235.295 62.4389 234.908 62.3044 234.438 62.1677C233.946 62.0219 233.502 61.8601 233.105 61.6824C232.709 61.5001 232.369 61.2927 232.087 61.0603C231.804 60.8279 231.588 60.5613 231.438 60.2605C231.287 59.9597 231.212 59.6156 231.212 59.2283C231.212 58.8409 231.292 58.4831 231.451 58.155C231.611 57.8269 231.839 57.5421 232.135 57.3005C232.436 57.0544 232.793 56.863 233.208 56.7263C233.623 56.5896 234.085 56.5212 234.596 56.5212C235.343 56.5212 235.977 56.6648 236.496 56.9519C237.02 57.2344 237.419 57.6059 237.692 58.0661C237.966 58.5219 238.103 59.0095 238.103 59.529H236.79C236.79 59.1553 236.71 58.8249 236.551 58.5378C236.391 58.2462 236.15 58.0183 235.826 57.8542C235.503 57.6856 235.092 57.6013 234.596 57.6013C234.126 57.6013 233.739 57.6719 233.434 57.8132C233.128 57.9545 232.9 58.1459 232.75 58.3874C232.604 58.629 232.531 58.9047 232.531 59.2146C232.531 59.4242 232.575 59.6156 232.661 59.7888C232.752 59.9574 232.891 60.1146 233.078 60.2605C233.27 60.4063 233.511 60.5408 233.803 60.6638C234.099 60.7868 234.452 60.9053 234.862 61.0193C235.427 61.1788 235.915 61.3565 236.325 61.5525C236.735 61.7484 237.073 61.9695 237.337 62.2156C237.606 62.4571 237.804 62.7328 237.932 63.0427C238.064 63.348 238.13 63.6944 238.13 64.0818C238.13 64.4874 238.048 64.8542 237.884 65.1824C237.72 65.5105 237.485 65.7908 237.18 66.0232C236.874 66.2556 236.507 66.4356 236.079 66.5632C235.655 66.6863 235.181 66.7478 234.657 66.7478C234.197 66.7478 233.743 66.684 233.297 66.5564C232.855 66.4288 232.451 66.2374 232.087 65.9822C231.727 65.727 231.438 65.4125 231.219 65.0388C231.005 64.6605 230.897 64.223 230.897 63.7263H232.21C232.21 64.0681 232.276 64.362 232.408 64.6081C232.54 64.8497 232.72 65.0502 232.948 65.2097C233.181 65.3692 233.443 65.4877 233.734 65.5652C234.031 65.6381 234.338 65.6745 234.657 65.6745C235.118 65.6745 235.507 65.6107 235.826 65.4831C236.145 65.3555 236.387 65.1732 236.551 64.9363C236.719 64.6993 236.804 64.419 236.804 64.0954ZM240.885 56.1111V66.6111H239.62V56.1111H240.885ZM240.584 62.6326L240.058 62.612C240.062 62.1062 240.137 61.6391 240.283 61.2107C240.429 60.7777 240.634 60.4018 240.898 60.0827C241.163 59.7637 241.477 59.5176 241.842 59.3445C242.211 59.1667 242.619 59.0779 243.065 59.0779C243.43 59.0779 243.758 59.128 244.05 59.2283C244.341 59.324 244.59 59.4789 244.795 59.6931C245.005 59.9073 245.164 60.1853 245.273 60.5271C245.383 60.8643 245.438 61.2768 245.438 61.7644V66.6111H244.166V61.7507C244.166 61.3633 244.109 61.0535 243.995 60.821C243.881 60.5841 243.715 60.4132 243.496 60.3083C243.277 60.199 243.008 60.1443 242.689 60.1443C242.375 60.1443 242.088 60.2104 241.828 60.3425C241.573 60.4747 241.352 60.657 241.165 60.8894C240.983 61.1218 240.839 61.3884 240.734 61.6892C240.634 61.9854 240.584 62.2999 240.584 62.6326ZM251.692 65.3464V61.5388C251.692 61.2471 251.633 60.9942 251.515 60.78C251.401 60.5613 251.228 60.3926 250.995 60.2742C250.763 60.1557 250.476 60.0964 250.134 60.0964C249.815 60.0964 249.535 60.1511 249.293 60.2605C249.056 60.3699 248.869 60.5134 248.732 60.6911C248.6 60.8689 248.534 61.0603 248.534 61.2654H247.27C247.27 61.001 247.338 60.739 247.475 60.4792C247.611 60.2195 247.807 59.9848 248.062 59.7751C248.322 59.5609 248.632 59.3923 248.992 59.2693C249.357 59.1417 249.762 59.0779 250.209 59.0779C250.747 59.0779 251.221 59.169 251.631 59.3513C252.046 59.5336 252.369 59.8093 252.602 60.1785C252.839 60.543 252.957 61.001 252.957 61.5525V64.9978C252.957 65.2439 252.978 65.5059 253.019 65.7839C253.064 66.0619 253.13 66.3012 253.217 66.5017V66.6111H251.897C251.834 66.4652 251.784 66.2716 251.747 66.03C251.711 65.7839 251.692 65.5561 251.692 65.3464ZM251.911 62.1267L251.925 63.0154H250.646C250.286 63.0154 249.965 63.045 249.683 63.1042C249.4 63.1589 249.163 63.2432 248.972 63.3572C248.78 63.4711 248.634 63.6146 248.534 63.7878C248.434 63.9564 248.384 64.1547 248.384 64.3826C248.384 64.615 248.436 64.8269 248.541 65.0183C248.646 65.2097 248.803 65.3624 249.013 65.4763C249.227 65.5857 249.489 65.6404 249.799 65.6404C250.186 65.6404 250.528 65.5583 250.824 65.3943C251.12 65.2302 251.355 65.0297 251.528 64.7927C251.706 64.5557 251.802 64.3256 251.815 64.1023L252.355 64.7107C252.324 64.9021 252.237 65.114 252.096 65.3464C251.954 65.5788 251.765 65.8021 251.528 66.0163C251.296 66.226 251.018 66.4014 250.694 66.5427C250.375 66.6794 250.015 66.7478 249.614 66.7478C249.113 66.7478 248.673 66.6498 248.295 66.4538C247.921 66.2579 247.63 65.9958 247.42 65.6677C247.215 65.335 247.112 64.9636 247.112 64.5535C247.112 64.157 247.19 63.8083 247.345 63.5076C247.5 63.2022 247.723 62.9493 248.015 62.7488C248.306 62.5437 248.657 62.3887 249.067 62.2839C249.478 62.1791 249.936 62.1267 250.441 62.1267H251.911ZM256.211 60.3767V66.6111H254.946V59.2146H256.177L256.211 60.3767ZM258.521 59.1736L258.515 60.3493C258.41 60.3266 258.31 60.3129 258.214 60.3083C258.123 60.2992 258.018 60.2947 257.899 60.2947C257.608 60.2947 257.35 60.3402 257.127 60.4314C256.904 60.5225 256.715 60.6501 256.56 60.8142C256.405 60.9783 256.282 61.1742 256.19 61.4021C256.104 61.6254 256.047 61.8715 256.02 62.1404L255.664 62.3454C255.664 61.8988 255.707 61.4796 255.794 61.0876C255.885 60.6957 256.024 60.3493 256.211 60.0486C256.398 59.7432 256.635 59.5063 256.922 59.3376C257.214 59.1645 257.56 59.0779 257.961 59.0779C258.052 59.0779 258.157 59.0893 258.275 59.112C258.394 59.1303 258.476 59.1508 258.521 59.1736ZM262.623 66.7478C262.108 66.7478 261.641 66.6612 261.222 66.488C260.807 66.3103 260.449 66.0619 260.148 65.7429C259.852 65.4239 259.624 65.0456 259.465 64.6081C259.305 64.1706 259.226 63.6921 259.226 63.1726V62.8855C259.226 62.2839 259.314 61.7484 259.492 61.279C259.67 60.8051 259.911 60.404 260.217 60.0759C260.522 59.7478 260.868 59.4994 261.256 59.3308C261.643 59.1622 262.044 59.0779 262.459 59.0779C262.988 59.0779 263.443 59.169 263.826 59.3513C264.214 59.5336 264.53 59.7888 264.776 60.1169C265.022 60.4405 265.205 60.8233 265.323 61.2654C265.442 61.7029 265.501 62.1814 265.501 62.7009V63.2683H259.978V62.2361H264.236V62.1404C264.218 61.8122 264.15 61.4932 264.031 61.1833C263.917 60.8734 263.735 60.6182 263.484 60.4177C263.234 60.2172 262.892 60.1169 262.459 60.1169C262.172 60.1169 261.908 60.1785 261.666 60.3015C261.424 60.42 261.217 60.5977 261.044 60.8347C260.871 61.0717 260.736 61.3611 260.641 61.7029C260.545 62.0447 260.497 62.4389 260.497 62.8855V63.1726C260.497 63.5235 260.545 63.8539 260.641 64.1638C260.741 64.4691 260.884 64.738 261.071 64.9704C261.263 65.2029 261.493 65.3852 261.762 65.5173C262.035 65.6495 262.345 65.7156 262.691 65.7156C263.138 65.7156 263.516 65.6244 263.826 65.4421C264.136 65.2598 264.407 65.016 264.64 64.7107L265.405 65.3191C265.246 65.5606 265.043 65.7908 264.797 66.0095C264.551 66.2283 264.248 66.406 263.888 66.5427C263.532 66.6794 263.111 66.7478 262.623 66.7478ZM272.528 65.8454L274.586 59.2146H275.939L272.973 67.7527C272.904 67.935 272.813 68.1309 272.699 68.3406C272.59 68.5548 272.449 68.7576 272.275 68.949C272.102 69.1404 271.893 69.2953 271.646 69.4138C271.405 69.5368 271.116 69.5984 270.778 69.5984C270.678 69.5984 270.55 69.5847 270.396 69.5574C270.241 69.53 270.131 69.5072 270.067 69.489L270.061 68.4636C270.097 68.4682 270.154 68.4727 270.231 68.4773C270.313 68.4864 270.37 68.491 270.402 68.491C270.689 68.491 270.933 68.4522 271.134 68.3747C271.334 68.3018 271.503 68.1765 271.64 67.9988C271.781 67.8256 271.902 67.5863 272.002 67.281L272.528 65.8454ZM271.018 59.2146L272.938 64.9568L273.267 66.2898L272.357 66.7546L269.637 59.2146H271.018ZM276.637 62.9949V62.8376C276.637 62.3044 276.714 61.81 276.869 61.3542C277.024 60.8939 277.247 60.4952 277.539 60.1579C277.831 59.8161 278.184 59.5518 278.599 59.365C279.013 59.1736 279.478 59.0779 279.993 59.0779C280.513 59.0779 280.98 59.1736 281.395 59.365C281.814 59.5518 282.169 59.8161 282.461 60.1579C282.757 60.4952 282.983 60.8939 283.138 61.3542C283.293 61.81 283.37 62.3044 283.37 62.8376V62.9949C283.37 63.5281 283.293 64.0225 283.138 64.4783C282.983 64.934 282.757 65.3327 282.461 65.6745C282.169 66.0118 281.816 66.2761 281.401 66.4675C280.991 66.6544 280.526 66.7478 280.007 66.7478C279.487 66.7478 279.02 66.6544 278.605 66.4675C278.191 66.2761 277.835 66.0118 277.539 65.6745C277.247 65.3327 277.024 64.934 276.869 64.4783C276.714 64.0225 276.637 63.5281 276.637 62.9949ZM277.901 62.8376V62.9949C277.901 63.364 277.945 63.7126 278.031 64.0408C278.118 64.3643 278.248 64.6514 278.421 64.9021C278.599 65.1527 278.82 65.351 279.084 65.4968C279.348 65.6381 279.656 65.7087 280.007 65.7087C280.353 65.7087 280.656 65.6381 280.916 65.4968C281.18 65.351 281.399 65.1527 281.572 64.9021C281.745 64.6514 281.875 64.3643 281.962 64.0408C282.053 63.7126 282.099 63.364 282.099 62.9949V62.8376C282.099 62.473 282.053 62.129 281.962 61.8054C281.875 61.4773 281.743 61.1879 281.565 60.9372C281.392 60.682 281.174 60.4815 280.909 60.3357C280.649 60.1898 280.344 60.1169 279.993 60.1169C279.647 60.1169 279.341 60.1898 279.077 60.3357C278.817 60.4815 278.599 60.682 278.421 60.9372C278.248 61.1879 278.118 61.4773 278.031 61.8054C277.945 62.129 277.901 62.473 277.901 62.8376ZM289.481 64.9021V59.2146H290.753V66.6111H289.543L289.481 64.9021ZM289.721 63.3435L290.247 63.3298C290.247 63.822 290.195 64.2777 290.09 64.697C289.99 65.1117 289.826 65.4717 289.598 65.7771C289.37 66.0824 289.071 66.3217 288.702 66.4949C288.333 66.6635 287.884 66.7478 287.355 66.7478C286.995 66.7478 286.665 66.6954 286.364 66.5906C286.068 66.4857 285.813 66.324 285.599 66.1052C285.384 65.8865 285.218 65.6016 285.1 65.2507C284.986 64.8998 284.929 64.4783 284.929 63.9861V59.2146H286.193V63.9997C286.193 64.3324 286.23 64.6081 286.303 64.8269C286.38 65.0411 286.483 65.212 286.61 65.3396C286.743 65.4626 286.888 65.5492 287.048 65.5993C287.212 65.6495 287.381 65.6745 287.554 65.6745C288.091 65.6745 288.518 65.572 288.832 65.3669C289.146 65.1573 289.372 64.877 289.509 64.5261C289.65 64.1706 289.721 63.7764 289.721 63.3435ZM293.945 60.3767V66.6111H292.681V59.2146H293.911L293.945 60.3767ZM296.256 59.1736L296.249 60.3493C296.144 60.3266 296.044 60.3129 295.948 60.3083C295.857 60.2992 295.752 60.2947 295.634 60.2947C295.342 60.2947 295.085 60.3402 294.861 60.4314C294.638 60.5225 294.449 60.6501 294.294 60.8142C294.139 60.9783 294.016 61.1742 293.925 61.4021C293.838 61.6254 293.781 61.8715 293.754 62.1404L293.398 62.3454C293.398 61.8988 293.442 61.4796 293.528 61.0876C293.619 60.6957 293.758 60.3493 293.945 60.0486C294.132 59.7432 294.369 59.5063 294.656 59.3376C294.948 59.1645 295.294 59.0779 295.695 59.0779C295.786 59.0779 295.891 59.0893 296.01 59.112C296.128 59.1303 296.21 59.1508 296.256 59.1736ZM303.967 66.7478C303.452 66.7478 302.985 66.6612 302.565 66.488C302.151 66.3103 301.793 66.0619 301.492 65.7429C301.196 65.4239 300.968 65.0456 300.809 64.6081C300.649 64.1706 300.569 63.6921 300.569 63.1726V62.8855C300.569 62.2839 300.658 61.7484 300.836 61.279C301.014 60.8051 301.255 60.404 301.561 60.0759C301.866 59.7478 302.212 59.4994 302.6 59.3308C302.987 59.1622 303.388 59.0779 303.803 59.0779C304.331 59.0779 304.787 59.169 305.17 59.3513C305.557 59.5336 305.874 59.7888 306.12 60.1169C306.366 60.4405 306.549 60.8233 306.667 61.2654C306.785 61.7029 306.845 62.1814 306.845 62.7009V63.2683H301.321V62.2361H305.58V62.1404C305.562 61.8122 305.493 61.4932 305.375 61.1833C305.261 60.8734 305.079 60.6182 304.828 60.4177C304.577 60.2172 304.236 60.1169 303.803 60.1169C303.516 60.1169 303.251 60.1785 303.01 60.3015C302.768 60.42 302.561 60.5977 302.388 60.8347C302.215 61.0717 302.08 61.3611 301.984 61.7029C301.889 62.0447 301.841 62.4389 301.841 62.8855V63.1726C301.841 63.5235 301.889 63.8539 301.984 64.1638C302.085 64.4691 302.228 64.738 302.415 64.9704C302.606 65.2029 302.837 65.3852 303.105 65.5173C303.379 65.6495 303.689 65.7156 304.035 65.7156C304.482 65.7156 304.86 65.6244 305.17 65.4421C305.48 65.2598 305.751 65.016 305.983 64.7107L306.749 65.3191C306.59 65.5606 306.387 65.7908 306.141 66.0095C305.895 66.2283 305.591 66.406 305.231 66.5427C304.876 66.6794 304.454 66.7478 303.967 66.7478ZM309.176 59.2146L310.796 61.9079L312.437 59.2146H313.92L311.5 62.865L313.995 66.6111H312.532L310.823 63.8357L309.114 66.6111H307.645L310.133 62.865L307.72 59.2146H309.176ZM316.531 60.6365V69.4548H315.26V59.2146H316.422L316.531 60.6365ZM321.515 62.8513V62.9949C321.515 63.5326 321.451 64.0316 321.323 64.4919C321.196 64.9477 321.009 65.3441 320.763 65.6814C320.521 66.0186 320.223 66.2807 319.867 66.4675C319.512 66.6544 319.104 66.7478 318.644 66.7478C318.174 66.7478 317.759 66.6703 317.399 66.5154C317.039 66.3604 316.734 66.1348 316.483 65.8386C316.233 65.5424 316.032 65.1869 315.882 64.7722C315.736 64.3575 315.636 63.8904 315.581 63.3708V62.6052C315.636 62.0583 315.738 61.5684 315.889 61.1355C316.039 60.7025 316.237 60.3334 316.483 60.0281C316.734 59.7182 317.037 59.4835 317.393 59.324C317.748 59.1599 318.158 59.0779 318.623 59.0779C319.088 59.0779 319.5 59.169 319.86 59.3513C320.22 59.529 320.523 59.7842 320.77 60.1169C321.016 60.4496 321.2 60.8484 321.323 61.3132C321.451 61.7735 321.515 62.2862 321.515 62.8513ZM320.243 62.9949V62.8513C320.243 62.4822 320.204 62.1358 320.127 61.8122C320.049 61.4841 319.929 61.197 319.765 60.9509C319.605 60.7003 319.4 60.5043 319.149 60.363C318.899 60.2172 318.6 60.1443 318.254 60.1443C317.935 60.1443 317.657 60.199 317.42 60.3083C317.188 60.4177 316.989 60.5658 316.825 60.7527C316.661 60.935 316.527 61.1446 316.422 61.3816C316.322 61.614 316.246 61.8555 316.196 62.1062V63.8767C316.287 64.1957 316.415 64.4965 316.579 64.779C316.743 65.057 316.962 65.2826 317.235 65.4558C317.509 65.6244 317.853 65.7087 318.268 65.7087C318.609 65.7087 318.903 65.6381 319.149 65.4968C319.4 65.351 319.605 65.1527 319.765 64.9021C319.929 64.6514 320.049 64.3643 320.127 64.0408C320.204 63.7126 320.243 63.364 320.243 62.9949ZM326.197 66.7478C325.682 66.7478 325.215 66.6612 324.796 66.488C324.381 66.3103 324.023 66.0619 323.723 65.7429C323.426 65.4239 323.199 65.0456 323.039 64.6081C322.88 64.1706 322.8 63.6921 322.8 63.1726V62.8855C322.8 62.2839 322.889 61.7484 323.066 61.279C323.244 60.8051 323.486 60.404 323.791 60.0759C324.096 59.7478 324.443 59.4994 324.83 59.3308C325.217 59.1622 325.618 59.0779 326.033 59.0779C326.562 59.0779 327.018 59.169 327.4 59.3513C327.788 59.5336 328.104 59.7888 328.351 60.1169C328.597 60.4405 328.779 60.8233 328.897 61.2654C329.016 61.7029 329.075 62.1814 329.075 62.7009V63.2683H323.552V62.2361H327.811V62.1404C327.792 61.8122 327.724 61.4932 327.605 61.1833C327.492 60.8734 327.309 60.6182 327.059 60.4177C326.808 60.2172 326.466 60.1169 326.033 60.1169C325.746 60.1169 325.482 60.1785 325.24 60.3015C324.999 60.42 324.791 60.5977 324.618 60.8347C324.445 61.0717 324.311 61.3611 324.215 61.7029C324.119 62.0447 324.071 62.4389 324.071 62.8855V63.1726C324.071 63.5235 324.119 63.8539 324.215 64.1638C324.315 64.4691 324.459 64.738 324.646 64.9704C324.837 65.2029 325.067 65.3852 325.336 65.5173C325.609 65.6495 325.919 65.7156 326.266 65.7156C326.712 65.7156 327.09 65.6244 327.4 65.4421C327.71 65.2598 327.981 65.016 328.214 64.7107L328.979 65.3191C328.82 65.5606 328.617 65.7908 328.371 66.0095C328.125 66.2283 327.822 66.406 327.462 66.5427C327.106 66.6794 326.685 66.7478 326.197 66.7478ZM331.816 60.3767V66.6111H330.552V59.2146H331.782L331.816 60.3767ZM334.127 59.1736L334.12 60.3493C334.015 60.3266 333.915 60.3129 333.819 60.3083C333.728 60.2992 333.623 60.2947 333.505 60.2947C333.213 60.2947 332.956 60.3402 332.732 60.4314C332.509 60.5225 332.32 60.6501 332.165 60.8142C332.01 60.9783 331.887 61.1742 331.796 61.4021C331.709 61.6254 331.652 61.8715 331.625 62.1404L331.27 62.3454C331.27 61.8988 331.313 61.4796 331.399 61.0876C331.491 60.6957 331.63 60.3493 331.816 60.0486C332.003 59.7432 332.24 59.5063 332.527 59.3376C332.819 59.1645 333.165 59.0779 333.566 59.0779C333.658 59.0779 333.762 59.0893 333.881 59.112C333.999 59.1303 334.081 59.1508 334.127 59.1736ZM338.734 59.2146V60.1853H334.735V59.2146H338.734ZM336.089 57.4167H337.354V64.779C337.354 65.0297 337.392 65.2188 337.47 65.3464C337.547 65.474 337.647 65.5583 337.771 65.5993C337.894 65.6404 338.026 65.6609 338.167 65.6609C338.272 65.6609 338.381 65.6518 338.495 65.6335C338.614 65.6107 338.702 65.5925 338.762 65.5788L338.769 66.6111C338.668 66.643 338.536 66.6726 338.372 66.6999C338.213 66.7318 338.019 66.7478 337.791 66.7478C337.481 66.7478 337.196 66.6863 336.937 66.5632C336.677 66.4402 336.469 66.2351 336.314 65.948C336.164 65.6563 336.089 65.2644 336.089 64.7722V57.4167ZM112.629 86.9949V86.8376C112.629 86.3044 112.706 85.81 112.861 85.3542C113.016 84.8939 113.24 84.4952 113.531 84.1579C113.823 83.8161 114.176 83.5518 114.591 83.365C115.006 83.1736 115.47 83.0779 115.985 83.0779C116.505 83.0779 116.972 83.1736 117.387 83.365C117.806 83.5518 118.161 83.8161 118.453 84.1579C118.749 84.4952 118.975 84.8939 119.13 85.3542C119.285 85.81 119.362 86.3044 119.362 86.8376V86.9949C119.362 87.5281 119.285 88.0225 119.13 88.4783C118.975 88.934 118.749 89.3327 118.453 89.6745C118.161 90.0118 117.808 90.2761 117.394 90.4675C116.983 90.6544 116.519 90.7478 115.999 90.7478C115.479 90.7478 115.012 90.6544 114.598 90.4675C114.183 90.2761 113.827 90.0118 113.531 89.6745C113.24 89.3327 113.016 88.934 112.861 88.4783C112.706 88.0225 112.629 87.5281 112.629 86.9949ZM113.894 86.8376V86.9949C113.894 87.364 113.937 87.7126 114.023 88.0408C114.11 88.3643 114.24 88.6514 114.413 88.9021C114.591 89.1527 114.812 89.351 115.076 89.4968C115.34 89.6381 115.648 89.7087 115.999 89.7087C116.345 89.7087 116.648 89.6381 116.908 89.4968C117.173 89.351 117.391 89.1527 117.564 88.9021C117.738 88.6514 117.868 88.3643 117.954 88.0408C118.045 87.7126 118.091 87.364 118.091 86.9949V86.8376C118.091 86.473 118.045 86.129 117.954 85.8054C117.868 85.4773 117.735 85.1879 117.558 84.9372C117.384 84.682 117.166 84.4815 116.901 84.3357C116.642 84.1898 116.336 84.1169 115.985 84.1169C115.639 84.1169 115.334 84.1898 115.069 84.3357C114.81 84.4815 114.591 84.682 114.413 84.9372C114.24 85.1879 114.11 85.4773 114.023 85.8054C113.937 86.129 113.894 86.473 113.894 86.8376ZM122.213 84.6365V93.4548H120.941V83.2146H122.104L122.213 84.6365ZM127.196 86.8513V86.9949C127.196 87.5326 127.132 88.0316 127.005 88.4919C126.877 88.9477 126.69 89.3441 126.444 89.6814C126.203 90.0186 125.904 90.2807 125.549 90.4675C125.193 90.6544 124.785 90.7478 124.325 90.7478C123.856 90.7478 123.441 90.6703 123.081 90.5154C122.721 90.3604 122.416 90.1348 122.165 89.8386C121.914 89.5424 121.714 89.1869 121.563 88.7722C121.418 88.3575 121.317 87.8904 121.263 87.3708V86.6052C121.317 86.0583 121.42 85.5684 121.57 85.1355C121.721 84.7025 121.919 84.3334 122.165 84.0281C122.416 83.7182 122.719 83.4835 123.074 83.324C123.43 83.1599 123.84 83.0779 124.305 83.0779C124.77 83.0779 125.182 83.169 125.542 83.3513C125.902 83.529 126.205 83.7842 126.451 84.1169C126.697 84.4496 126.882 84.8484 127.005 85.3132C127.132 85.7735 127.196 86.2862 127.196 86.8513ZM125.925 86.9949V86.8513C125.925 86.4822 125.886 86.1358 125.809 85.8122C125.731 85.4841 125.61 85.197 125.446 84.9509C125.287 84.7003 125.082 84.5043 124.831 84.363C124.58 84.2172 124.282 84.1443 123.936 84.1443C123.617 84.1443 123.339 84.199 123.102 84.3083C122.869 84.4177 122.671 84.5658 122.507 84.7527C122.343 84.935 122.208 85.1446 122.104 85.3816C122.003 85.614 121.928 85.8555 121.878 86.1062V87.8767C121.969 88.1957 122.097 88.4965 122.261 88.779C122.425 89.057 122.644 89.2826 122.917 89.4558C123.19 89.6244 123.535 89.7087 123.949 89.7087C124.291 89.7087 124.585 89.6381 124.831 89.4968C125.082 89.351 125.287 89.1527 125.446 88.9021C125.61 88.6514 125.731 88.3643 125.809 88.0408C125.886 87.7126 125.925 87.364 125.925 86.9949ZM130.184 83.2146V90.6111H128.912V83.2146H130.184ZM128.816 81.2527C128.816 81.0476 128.878 80.8744 129.001 80.7331C129.129 80.5919 129.315 80.5212 129.562 80.5212C129.803 80.5212 129.988 80.5919 130.115 80.7331C130.247 80.8744 130.313 81.0476 130.313 81.2527C130.313 81.4486 130.247 81.6173 130.115 81.7585C129.988 81.8952 129.803 81.9636 129.562 81.9636C129.315 81.9636 129.129 81.8952 129.001 81.7585C128.878 81.6173 128.816 81.4486 128.816 81.2527ZM133.479 84.7937V90.6111H132.214V83.2146H133.41L133.479 84.7937ZM133.178 86.6326L132.651 86.612C132.656 86.1062 132.731 85.6391 132.877 85.2107C133.023 84.7777 133.228 84.4018 133.492 84.0827C133.757 83.7637 134.071 83.5176 134.436 83.3445C134.805 83.1667 135.213 83.0779 135.659 83.0779C136.024 83.0779 136.352 83.128 136.644 83.2283C136.935 83.324 137.184 83.4789 137.389 83.6931C137.598 83.9073 137.758 84.1853 137.867 84.5271C137.977 84.8643 138.031 85.2768 138.031 85.7644V90.6111H136.76V85.7507C136.76 85.3633 136.703 85.0535 136.589 84.821C136.475 84.5841 136.309 84.4132 136.09 84.3083C135.871 84.199 135.602 84.1443 135.283 84.1443C134.969 84.1443 134.682 84.2104 134.422 84.3425C134.167 84.4747 133.946 84.657 133.759 84.8894C133.576 85.1218 133.433 85.3884 133.328 85.6892C133.228 85.9854 133.178 86.2999 133.178 86.6326ZM141.326 83.2146V90.6111H140.055V83.2146H141.326ZM139.959 81.2527C139.959 81.0476 140.021 80.8744 140.144 80.7331C140.271 80.5919 140.458 80.5212 140.704 80.5212C140.946 80.5212 141.13 80.5919 141.258 80.7331C141.39 80.8744 141.456 81.0476 141.456 81.2527C141.456 81.4486 141.39 81.6173 141.258 81.7585C141.13 81.8952 140.946 81.9636 140.704 81.9636C140.458 81.9636 140.271 81.8952 140.144 81.7585C140.021 81.6173 139.959 81.4486 139.959 81.2527ZM143.021 86.9949V86.8376C143.021 86.3044 143.099 85.81 143.254 85.3542C143.409 84.8939 143.632 84.4952 143.924 84.1579C144.215 83.8161 144.569 83.5518 144.983 83.365C145.398 83.1736 145.863 83.0779 146.378 83.0779C146.897 83.0779 147.365 83.1736 147.779 83.365C148.199 83.5518 148.554 83.8161 148.846 84.1579C149.142 84.4952 149.368 84.8939 149.522 85.3542C149.677 85.81 149.755 86.3044 149.755 86.8376V86.9949C149.755 87.5281 149.677 88.0225 149.522 88.4783C149.368 88.934 149.142 89.3327 148.846 89.6745C148.554 90.0118 148.201 90.2761 147.786 90.4675C147.376 90.6544 146.911 90.7478 146.392 90.7478C145.872 90.7478 145.405 90.6544 144.99 90.4675C144.576 90.2761 144.22 90.0118 143.924 89.6745C143.632 89.3327 143.409 88.934 143.254 88.4783C143.099 88.0225 143.021 87.5281 143.021 86.9949ZM144.286 86.8376V86.9949C144.286 87.364 144.329 87.7126 144.416 88.0408C144.503 88.3643 144.632 88.6514 144.806 88.9021C144.983 89.1527 145.204 89.351 145.469 89.4968C145.733 89.6381 146.041 89.7087 146.392 89.7087C146.738 89.7087 147.041 89.6381 147.301 89.4968C147.565 89.351 147.784 89.1527 147.957 88.9021C148.13 88.6514 148.26 88.3643 148.347 88.0408C148.438 87.7126 148.483 87.364 148.483 86.9949V86.8376C148.483 86.473 148.438 86.129 148.347 85.8054C148.26 85.4773 148.128 85.1879 147.95 84.9372C147.777 84.682 147.558 84.4815 147.294 84.3357C147.034 84.1898 146.729 84.1169 146.378 84.1169C146.032 84.1169 145.726 84.1898 145.462 84.3357C145.202 84.4815 144.983 84.682 144.806 84.9372C144.632 85.1879 144.503 85.4773 144.416 85.8054C144.329 86.129 144.286 86.473 144.286 86.8376ZM152.605 84.7937V90.6111H151.341V83.2146H152.537L152.605 84.7937ZM152.305 86.6326L151.778 86.612C151.783 86.1062 151.858 85.6391 152.004 85.2107C152.15 84.7777 152.355 84.4018 152.619 84.0827C152.883 83.7637 153.198 83.5176 153.562 83.3445C153.932 83.1667 154.34 83.0779 154.786 83.0779C155.151 83.0779 155.479 83.128 155.771 83.2283C156.062 83.324 156.311 83.4789 156.516 83.6931C156.725 83.9073 156.885 84.1853 156.994 84.5271C157.104 84.8643 157.158 85.2768 157.158 85.7644V90.6111H155.887V85.7507C155.887 85.3633 155.83 85.0535 155.716 84.821C155.602 84.5841 155.436 84.4132 155.217 84.3083C154.998 84.199 154.729 84.1443 154.41 84.1443C154.096 84.1443 153.809 84.2104 153.549 84.3425C153.294 84.4747 153.073 84.657 152.886 84.8894C152.703 85.1218 152.56 85.3884 152.455 85.6892C152.355 85.9854 152.305 86.2999 152.305 86.6326ZM163.816 80.1111V90.6111H162.552V80.1111H163.816ZM163.516 86.6326L162.989 86.612C162.994 86.1062 163.069 85.6391 163.215 85.2107C163.361 84.7777 163.566 84.4018 163.83 84.0827C164.094 83.7637 164.409 83.5176 164.773 83.3445C165.143 83.1667 165.55 83.0779 165.997 83.0779C166.362 83.0779 166.69 83.128 166.981 83.2283C167.273 83.324 167.521 83.4789 167.727 83.6931C167.936 83.9073 168.096 84.1853 168.205 84.5271C168.314 84.8643 168.369 85.2768 168.369 85.7644V90.6111H167.098V85.7507C167.098 85.3633 167.041 85.0535 166.927 84.821C166.813 84.5841 166.646 84.4132 166.428 84.3083C166.209 84.199 165.94 84.1443 165.621 84.1443C165.307 84.1443 165.02 84.2104 164.76 84.3425C164.505 84.4747 164.284 84.657 164.097 84.8894C163.914 85.1218 163.771 85.3884 163.666 85.6892C163.566 85.9854 163.516 86.2999 163.516 86.6326ZM173.332 90.7478C172.817 90.7478 172.35 90.6612 171.931 90.488C171.516 90.3103 171.158 90.0619 170.857 89.7429C170.561 89.4239 170.333 89.0456 170.174 88.6081C170.014 88.1706 169.935 87.6921 169.935 87.1726V86.8855C169.935 86.2839 170.023 85.7484 170.201 85.279C170.379 84.8051 170.62 84.404 170.926 84.0759C171.231 83.7478 171.577 83.4994 171.965 83.3308C172.352 83.1622 172.753 83.0779 173.168 83.0779C173.697 83.0779 174.152 83.169 174.535 83.3513C174.923 83.5336 175.239 83.7888 175.485 84.1169C175.731 84.4405 175.914 84.8233 176.032 85.2654C176.151 85.7029 176.21 86.1814 176.21 86.7009V87.2683H170.687V86.2361H174.945V86.1404C174.927 85.8122 174.859 85.4932 174.74 85.1833C174.626 84.8734 174.444 84.6182 174.193 84.4177C173.943 84.2172 173.601 84.1169 173.168 84.1169C172.881 84.1169 172.617 84.1785 172.375 84.3015C172.133 84.42 171.926 84.5977 171.753 84.8347C171.58 85.0717 171.445 85.3611 171.35 85.7029C171.254 86.0447 171.206 86.4389 171.206 86.8855V87.1726C171.206 87.5235 171.254 87.8539 171.35 88.1638C171.45 88.4691 171.593 88.738 171.78 88.9704C171.972 89.2029 172.202 89.3852 172.471 89.5173C172.744 89.6495 173.054 89.7156 173.4 89.7156C173.847 89.7156 174.225 89.6244 174.535 89.4421C174.845 89.2598 175.116 89.016 175.349 88.7107L176.114 89.3191C175.955 89.5606 175.752 89.7908 175.506 90.0095C175.26 90.2283 174.957 90.406 174.597 90.5427C174.241 90.6794 173.82 90.7478 173.332 90.7478ZM178.951 84.3767V90.6111H177.687V83.2146H178.917L178.951 84.3767ZM181.262 83.1736L181.255 84.3493C181.15 84.3266 181.05 84.3129 180.954 84.3083C180.863 84.2992 180.758 84.2947 180.64 84.2947C180.348 84.2947 180.09 84.3402 179.867 84.4314C179.644 84.5225 179.455 84.6501 179.3 84.8142C179.145 84.9783 179.022 85.1742 178.931 85.4021C178.844 85.6254 178.787 85.8715 178.76 86.1404L178.404 86.3454C178.404 85.8988 178.448 85.4796 178.534 85.0876C178.625 84.6957 178.764 84.3493 178.951 84.0486C179.138 83.7432 179.375 83.5063 179.662 83.3376C179.954 83.1645 180.3 83.0779 180.701 83.0779C180.792 83.0779 180.897 83.0893 181.016 83.112C181.134 83.1303 181.216 83.1508 181.262 83.1736ZM185.363 90.7478C184.848 90.7478 184.381 90.6612 183.962 90.488C183.547 90.3103 183.189 90.0619 182.889 89.7429C182.592 89.4239 182.365 89.0456 182.205 88.6081C182.046 88.1706 181.966 87.6921 181.966 87.1726V86.8855C181.966 86.2839 182.055 85.7484 182.232 85.279C182.41 84.8051 182.652 84.404 182.957 84.0759C183.262 83.7478 183.609 83.4994 183.996 83.3308C184.383 83.1622 184.785 83.0779 185.199 83.0779C185.728 83.0779 186.184 83.169 186.566 83.3513C186.954 83.5336 187.271 83.7888 187.517 84.1169C187.763 84.4405 187.945 84.8233 188.063 85.2654C188.182 85.7029 188.241 86.1814 188.241 86.7009V87.2683H182.718V86.2361H186.977V86.1404C186.958 85.8122 186.89 85.4932 186.771 85.1833C186.658 84.8734 186.475 84.6182 186.225 84.4177C185.974 84.2172 185.632 84.1169 185.199 84.1169C184.912 84.1169 184.648 84.1785 184.406 84.3015C184.165 84.42 183.957 84.5977 183.784 84.8347C183.611 85.0717 183.477 85.3611 183.381 85.7029C183.285 86.0447 183.237 86.4389 183.237 86.8855V87.1726C183.237 87.5235 183.285 87.8539 183.381 88.1638C183.481 88.4691 183.625 88.738 183.812 88.9704C184.003 89.2029 184.233 89.3852 184.502 89.5173C184.775 89.6495 185.085 89.7156 185.432 89.7156C185.878 89.7156 186.257 89.6244 186.566 89.4421C186.876 89.2598 187.147 89.016 187.38 88.7107L188.146 89.3191C187.986 89.5606 187.783 89.7908 187.537 90.0095C187.291 90.2283 186.988 90.406 186.628 90.5427C186.272 90.6794 185.851 90.7478 185.363 90.7478ZM189.738 89.9411C189.738 89.727 189.804 89.5469 189.937 89.4011C190.073 89.2507 190.269 89.1755 190.524 89.1755C190.78 89.1755 190.973 89.2507 191.105 89.4011C191.242 89.5469 191.311 89.727 191.311 89.9411C191.311 90.1508 191.242 90.3285 191.105 90.4743C190.973 90.6202 190.78 90.6931 190.524 90.6931C190.269 90.6931 190.073 90.6202 189.937 90.4743C189.804 90.3285 189.738 90.1508 189.738 89.9411Z" fill="black"/>
<g clip-path="url(#clip1_0_9833)">
<rect x="15" y="117.611" width="330" height="52" rx="8" fill="#C9EB49"/>
<path d="M124.889 139.558H128.601C129.362 139.558 130.016 139.672 130.562 139.9C131.114 140.128 131.538 140.465 131.834 140.911C132.13 141.358 132.278 141.907 132.278 142.559C132.278 143.092 132.187 143.55 132.005 143.933C131.827 144.311 131.574 144.628 131.246 144.883C130.923 145.134 130.542 145.334 130.104 145.485L129.455 145.826H126.229L126.215 144.227H128.614C128.974 144.227 129.273 144.163 129.51 144.035C129.747 143.908 129.924 143.73 130.043 143.502C130.166 143.274 130.228 143.01 130.228 142.709C130.228 142.39 130.168 142.115 130.05 141.882C129.931 141.65 129.751 141.472 129.51 141.349C129.268 141.226 128.965 141.164 128.601 141.164H126.939V149.511H124.889V139.558ZM130.453 149.511L128.184 145.075L130.351 145.061L132.647 149.415V149.511H130.453ZM137.139 149.648C136.564 149.648 136.049 149.557 135.594 149.374C135.138 149.187 134.751 148.93 134.432 148.602C134.117 148.274 133.876 147.893 133.707 147.46C133.538 147.023 133.454 146.558 133.454 146.066V145.792C133.454 145.232 133.534 144.719 133.693 144.254C133.853 143.789 134.081 143.386 134.377 143.044C134.678 142.702 135.042 142.44 135.471 142.258C135.899 142.071 136.382 141.978 136.92 141.978C137.444 141.978 137.909 142.064 138.314 142.238C138.72 142.411 139.06 142.657 139.333 142.976C139.611 143.295 139.821 143.678 139.962 144.124C140.103 144.566 140.174 145.059 140.174 145.601V146.421H134.295V145.109H138.239V144.958C138.239 144.685 138.189 144.441 138.089 144.227C137.993 144.008 137.847 143.835 137.651 143.707C137.455 143.58 137.205 143.516 136.899 143.516C136.64 143.516 136.416 143.573 136.229 143.687C136.043 143.801 135.89 143.96 135.771 144.165C135.658 144.37 135.571 144.612 135.512 144.89C135.457 145.163 135.43 145.464 135.43 145.792V146.066C135.43 146.362 135.471 146.635 135.553 146.886C135.639 147.137 135.76 147.353 135.915 147.535C136.075 147.718 136.266 147.859 136.489 147.959C136.717 148.06 136.975 148.11 137.262 148.11C137.617 148.11 137.948 148.041 138.253 147.905C138.563 147.763 138.829 147.551 139.053 147.269L140.01 148.308C139.855 148.531 139.643 148.745 139.374 148.95C139.11 149.156 138.791 149.324 138.417 149.456C138.043 149.584 137.617 149.648 137.139 149.648ZM143.715 148.075L145.355 142.115H147.413L144.918 149.511H143.674L143.715 148.075ZM142.587 142.115L144.234 148.082L144.269 149.511H143.018L140.522 142.115H142.587ZM150.373 142.115V149.511H148.397V142.115H150.373ZM148.274 140.187C148.274 139.9 148.375 139.663 148.575 139.476C148.776 139.289 149.045 139.196 149.382 139.196C149.715 139.196 149.981 139.289 150.182 139.476C150.387 139.663 150.489 139.9 150.489 140.187C150.489 140.474 150.387 140.711 150.182 140.898C149.981 141.085 149.715 141.178 149.382 141.178C149.045 141.178 148.776 141.085 148.575 140.898C148.375 140.711 148.274 140.474 148.274 140.187ZM155.404 149.648C154.83 149.648 154.315 149.557 153.859 149.374C153.404 149.187 153.016 148.93 152.697 148.602C152.383 148.274 152.141 147.893 151.973 147.46C151.804 147.023 151.72 146.558 151.72 146.066V145.792C151.72 145.232 151.799 144.719 151.959 144.254C152.118 143.789 152.346 143.386 152.643 143.044C152.943 142.702 153.308 142.44 153.736 142.258C154.165 142.071 154.648 141.978 155.186 141.978C155.71 141.978 156.174 142.064 156.58 142.238C156.986 142.411 157.325 142.657 157.599 142.976C157.877 143.295 158.086 143.678 158.228 144.124C158.369 144.566 158.439 145.059 158.439 145.601V146.421H152.561V145.109H156.505V144.958C156.505 144.685 156.455 144.441 156.354 144.227C156.259 144.008 156.113 143.835 155.917 143.707C155.721 143.58 155.47 143.516 155.165 143.516C154.905 143.516 154.682 143.573 154.495 143.687C154.308 143.801 154.156 143.96 154.037 144.165C153.923 144.37 153.837 144.612 153.777 144.89C153.723 145.163 153.695 145.464 153.695 145.792V146.066C153.695 146.362 153.736 146.635 153.818 146.886C153.905 147.137 154.026 147.353 154.181 147.535C154.34 147.718 154.532 147.859 154.755 147.959C154.983 148.06 155.24 148.11 155.527 148.11C155.883 148.11 156.213 148.041 156.519 147.905C156.828 147.763 157.095 147.551 157.318 147.269L158.275 148.308C158.12 148.531 157.909 148.745 157.64 148.95C157.375 149.156 157.056 149.324 156.683 149.456C156.309 149.584 155.883 149.648 155.404 149.648ZM161.673 147.597L163.211 142.115H164.462L164.059 144.268L162.521 149.511H161.475L161.673 147.597ZM160.894 142.115L161.994 147.59L162.097 149.511H160.866L158.993 142.115H160.894ZM165.87 147.501L166.943 142.115H168.851L166.978 149.511H165.754L165.87 147.501ZM164.633 142.115L166.164 147.556L166.376 149.511H165.323L163.785 144.275L163.396 142.115H164.633ZM176.951 142.115V143.509H172.645V142.115H176.951ZM173.711 140.289H175.68V147.283C175.68 147.497 175.707 147.661 175.762 147.775C175.821 147.889 175.908 147.968 176.021 148.014C176.135 148.055 176.279 148.075 176.452 148.075C176.575 148.075 176.685 148.071 176.78 148.062C176.881 148.048 176.965 148.034 177.033 148.021L177.04 149.47C176.871 149.525 176.689 149.568 176.493 149.6C176.297 149.632 176.081 149.648 175.844 149.648C175.411 149.648 175.033 149.577 174.709 149.436C174.39 149.29 174.144 149.058 173.971 148.739C173.798 148.42 173.711 148 173.711 147.481V140.289ZM179.993 139.011V149.511H178.024V139.011H179.993ZM179.713 145.553H179.173C179.177 145.038 179.246 144.564 179.378 144.131C179.51 143.694 179.699 143.315 179.945 142.996C180.191 142.673 180.485 142.422 180.827 142.244C181.174 142.067 181.556 141.978 181.976 141.978C182.34 141.978 182.671 142.03 182.967 142.135C183.268 142.235 183.525 142.399 183.739 142.627C183.958 142.851 184.127 143.144 184.245 143.509C184.364 143.874 184.423 144.316 184.423 144.835V149.511H182.44V144.822C182.44 144.493 182.393 144.236 182.297 144.049C182.206 143.858 182.071 143.723 181.894 143.646C181.72 143.564 181.506 143.523 181.251 143.523C180.968 143.523 180.727 143.575 180.526 143.68C180.33 143.785 180.173 143.931 180.055 144.117C179.936 144.3 179.85 144.514 179.795 144.76C179.74 145.006 179.713 145.27 179.713 145.553ZM187.998 142.115V149.511H186.022V142.115H187.998ZM185.899 140.187C185.899 139.9 186 139.663 186.2 139.476C186.401 139.289 186.67 139.196 187.007 139.196C187.34 139.196 187.606 139.289 187.807 139.476C188.012 139.663 188.114 139.9 188.114 140.187C188.114 140.474 188.012 140.711 187.807 140.898C187.606 141.085 187.34 141.178 187.007 141.178C186.67 141.178 186.401 141.085 186.2 140.898C186 140.711 185.899 140.474 185.899 140.187ZM193.624 147.467C193.624 147.326 193.583 147.198 193.501 147.084C193.419 146.97 193.266 146.866 193.043 146.77C192.824 146.67 192.507 146.578 192.093 146.496C191.719 146.414 191.37 146.312 191.047 146.189C190.728 146.061 190.45 145.908 190.213 145.731C189.98 145.553 189.798 145.343 189.666 145.102C189.534 144.856 189.468 144.575 189.468 144.261C189.468 143.951 189.534 143.659 189.666 143.386C189.803 143.113 189.996 142.871 190.247 142.661C190.502 142.447 190.812 142.281 191.177 142.162C191.546 142.039 191.961 141.978 192.421 141.978C193.063 141.978 193.615 142.08 194.075 142.285C194.54 142.491 194.896 142.773 195.142 143.133C195.392 143.489 195.518 143.894 195.518 144.35H193.549C193.549 144.158 193.508 143.988 193.426 143.837C193.348 143.682 193.225 143.561 193.057 143.475C192.893 143.384 192.678 143.338 192.414 143.338C192.195 143.338 192.006 143.377 191.847 143.454C191.687 143.527 191.564 143.628 191.478 143.755C191.396 143.878 191.354 144.015 191.354 144.165C191.354 144.279 191.377 144.382 191.423 144.473C191.473 144.56 191.553 144.639 191.662 144.712C191.771 144.785 191.913 144.853 192.086 144.917C192.264 144.977 192.482 145.031 192.742 145.081C193.275 145.191 193.752 145.334 194.171 145.512C194.59 145.685 194.923 145.922 195.169 146.223C195.415 146.519 195.538 146.909 195.538 147.392C195.538 147.72 195.465 148.021 195.319 148.294C195.174 148.568 194.964 148.807 194.69 149.012C194.417 149.213 194.089 149.37 193.706 149.484C193.328 149.593 192.902 149.648 192.428 149.648C191.74 149.648 191.156 149.525 190.678 149.279C190.204 149.033 189.844 148.72 189.598 148.342C189.356 147.959 189.235 147.567 189.235 147.166H191.102C191.111 147.435 191.179 147.652 191.307 147.816C191.439 147.98 191.605 148.098 191.806 148.171C192.011 148.244 192.232 148.281 192.469 148.281C192.724 148.281 192.936 148.246 193.104 148.178C193.273 148.105 193.401 148.009 193.487 147.891C193.578 147.768 193.624 147.627 193.624 147.467ZM204.473 141.26L201.766 149.511H199.585L203.283 139.558H204.671L204.473 141.26ZM206.722 149.511L204.008 141.26L203.789 139.558H205.19L208.909 149.511H206.722ZM206.599 145.806V147.412H201.342V145.806H206.599ZM213.708 147.467C213.708 147.326 213.667 147.198 213.585 147.084C213.503 146.97 213.35 146.866 213.127 146.77C212.908 146.67 212.591 146.578 212.177 146.496C211.803 146.414 211.454 146.312 211.131 146.189C210.812 146.061 210.534 145.908 210.297 145.731C210.064 145.553 209.882 145.343 209.75 145.102C209.618 144.856 209.552 144.575 209.552 144.261C209.552 143.951 209.618 143.659 209.75 143.386C209.887 143.113 210.08 142.871 210.331 142.661C210.586 142.447 210.896 142.281 211.261 142.162C211.63 142.039 212.045 141.978 212.505 141.978C213.147 141.978 213.699 142.08 214.159 142.285C214.624 142.491 214.979 142.773 215.226 143.133C215.476 143.489 215.602 143.894 215.602 144.35H213.633C213.633 144.158 213.592 143.988 213.51 143.837C213.432 143.682 213.309 143.561 213.141 143.475C212.977 143.384 212.762 143.338 212.498 143.338C212.279 143.338 212.09 143.377 211.931 143.454C211.771 143.527 211.648 143.628 211.562 143.755C211.479 143.878 211.438 144.015 211.438 144.165C211.438 144.279 211.461 144.382 211.507 144.473C211.557 144.56 211.637 144.639 211.746 144.712C211.855 144.785 211.997 144.853 212.17 144.917C212.348 144.977 212.566 145.031 212.826 145.081C213.359 145.191 213.836 145.334 214.255 145.512C214.674 145.685 215.007 145.922 215.253 146.223C215.499 146.519 215.622 146.909 215.622 147.392C215.622 147.72 215.549 148.021 215.403 148.294C215.257 148.568 215.048 148.807 214.774 149.012C214.501 149.213 214.173 149.37 213.79 149.484C213.412 149.593 212.986 149.648 212.512 149.648C211.824 149.648 211.24 149.525 210.762 149.279C210.288 149.033 209.928 148.72 209.682 148.342C209.44 147.959 209.319 147.567 209.319 147.166H211.186C211.195 147.435 211.263 147.652 211.391 147.816C211.523 147.98 211.689 148.098 211.89 148.171C212.095 148.244 212.316 148.281 212.553 148.281C212.808 148.281 213.02 148.246 213.188 148.178C213.357 148.105 213.485 148.009 213.571 147.891C213.662 147.768 213.708 147.627 213.708 147.467ZM220.899 147.467C220.899 147.326 220.858 147.198 220.776 147.084C220.694 146.97 220.542 146.866 220.318 146.77C220.1 146.67 219.783 146.578 219.368 146.496C218.994 146.414 218.646 146.312 218.322 146.189C218.003 146.061 217.725 145.908 217.488 145.731C217.256 145.553 217.074 145.343 216.941 145.102C216.809 144.856 216.743 144.575 216.743 144.261C216.743 143.951 216.809 143.659 216.941 143.386C217.078 143.113 217.272 142.871 217.522 142.661C217.778 142.447 218.088 142.281 218.452 142.162C218.821 142.039 219.236 141.978 219.696 141.978C220.339 141.978 220.89 142.08 221.351 142.285C221.815 142.491 222.171 142.773 222.417 143.133C222.668 143.489 222.793 143.894 222.793 144.35H220.824C220.824 144.158 220.783 143.988 220.701 143.837C220.624 143.682 220.501 143.561 220.332 143.475C220.168 143.384 219.954 143.338 219.689 143.338C219.471 143.338 219.282 143.377 219.122 143.454C218.963 143.527 218.84 143.628 218.753 143.755C218.671 143.878 218.63 144.015 218.63 144.165C218.63 144.279 218.653 144.382 218.698 144.473C218.748 144.56 218.828 144.639 218.938 144.712C219.047 144.785 219.188 144.853 219.361 144.917C219.539 144.977 219.758 145.031 220.018 145.081C220.551 145.191 221.027 145.334 221.446 145.512C221.866 145.685 222.198 145.922 222.444 146.223C222.69 146.519 222.813 146.909 222.813 147.392C222.813 147.72 222.741 148.021 222.595 148.294C222.449 148.568 222.239 148.807 221.966 149.012C221.692 149.213 221.364 149.37 220.981 149.484C220.603 149.593 220.177 149.648 219.703 149.648C219.015 149.648 218.432 149.525 217.953 149.279C217.479 149.033 217.119 148.72 216.873 148.342C216.632 147.959 216.511 147.567 216.511 147.166H218.377C218.386 147.435 218.454 147.652 218.582 147.816C218.714 147.98 218.881 148.098 219.081 148.171C219.286 148.244 219.507 148.281 219.744 148.281C219.999 148.281 220.211 148.246 220.38 148.178C220.549 148.105 220.676 148.009 220.763 147.891C220.854 147.768 220.899 147.627 220.899 147.467ZM227.496 149.648C226.922 149.648 226.407 149.557 225.951 149.374C225.495 149.187 225.108 148.93 224.789 148.602C224.475 148.274 224.233 147.893 224.064 147.46C223.896 147.023 223.812 146.558 223.812 146.066V145.792C223.812 145.232 223.891 144.719 224.051 144.254C224.21 143.789 224.438 143.386 224.734 143.044C225.035 142.702 225.4 142.44 225.828 142.258C226.257 142.071 226.74 141.978 227.277 141.978C227.801 141.978 228.266 142.064 228.672 142.238C229.077 142.411 229.417 142.657 229.69 142.976C229.968 143.295 230.178 143.678 230.319 144.124C230.461 144.566 230.531 145.059 230.531 145.601V146.421H224.652V145.109H228.597V144.958C228.597 144.685 228.547 144.441 228.446 144.227C228.351 144.008 228.205 143.835 228.009 143.707C227.813 143.58 227.562 143.516 227.257 143.516C226.997 143.516 226.774 143.573 226.587 143.687C226.4 143.801 226.247 143.96 226.129 144.165C226.015 144.37 225.928 144.612 225.869 144.89C225.814 145.163 225.787 145.464 225.787 145.792V146.066C225.787 146.362 225.828 146.635 225.91 146.886C225.997 147.137 226.118 147.353 226.272 147.535C226.432 147.718 226.623 147.859 226.847 147.959C227.075 148.06 227.332 148.11 227.619 148.11C227.975 148.11 228.305 148.041 228.61 147.905C228.92 147.763 229.187 147.551 229.41 147.269L230.367 148.308C230.212 148.531 230 148.745 229.731 148.95C229.467 149.156 229.148 149.324 228.774 149.456C228.401 149.584 227.975 149.648 227.496 149.648ZM235.275 142.115V143.509H230.969V142.115H235.275ZM232.035 140.289H234.004V147.283C234.004 147.497 234.031 147.661 234.086 147.775C234.145 147.889 234.232 147.968 234.346 148.014C234.46 148.055 234.603 148.075 234.776 148.075C234.899 148.075 235.009 148.071 235.104 148.062C235.205 148.048 235.289 148.034 235.357 148.021L235.364 149.47C235.196 149.525 235.013 149.568 234.817 149.6C234.621 149.632 234.405 149.648 234.168 149.648C233.735 149.648 233.357 149.577 233.033 149.436C232.714 149.29 232.468 149.058 232.295 148.739C232.122 148.42 232.035 148 232.035 147.481V140.289Z" fill="#333333"/>
</g>
</g>
<circle cx="77" cy="45" r="19" stroke="black" stroke-width="2" stroke-linecap="round" stroke-linejoin="round"/>
<path d="M81 43C81 40.2386 83.2386 38 86 38C88.7614 38 91 40.2386 91 43" stroke="black" stroke-width="2" stroke-linecap="round" stroke-linejoin="round"/>
<path d="M65 43C65 40.2386 67.2386 38 70 38C72.7614 38 75 40.2386 75 43" stroke="black" stroke-width="2" stroke-linecap="round" stroke-linejoin="round"/>
<path d="M73 56H81" stroke="black" stroke-width="2" stroke-linecap="round" stroke-linejoin="round"/>
<circle cx="44" cy="82" r="19" transform="rotate(-30 44 82)" stroke="black" stroke-width="2" stroke-linecap="round" stroke-linejoin="round"/>
<path d="M54.6244 72.4019C56.0051 74.7933 55.1857 77.8513 52.7942 79.232C50.4028 80.6127 47.3448 79.7933 45.9641 77.4019" stroke="black" stroke-width="2" stroke-linecap="round" stroke-linejoin="round"/>
<path d="M40.768 80.4019C42.1487 82.7933 41.3293 85.8513 38.9379 87.232C36.5464 88.6127 33.4884 87.7933 32.1077 85.4019" stroke="black" stroke-width="2" stroke-linecap="round" stroke-linejoin="round"/>
<path d="M46.0359 93.5262L52.9641 89.5262" stroke="black" stroke-width="2" stroke-linecap="round" stroke-linejoin="round"/>
<defs>
<clipPath id="clip0_0_9833">
<rect width="360" height="181" fill="white" transform="translate(0 0.111084)"/>
</clipPath>
<clipPath id="clip1_0_9833">
<rect width="330" height="52" fill="white" transform="translate(15 117.611)"/>
</clipPath>
</defs>
</svg>
