<svg width="360" height="572" viewBox="0 0 360 572" fill="none" xmlns="http://www.w3.org/2000/svg">
<rect y="158" width="360" height="414" rx="16" fill="#D8F46C"/>
<path d="M139.331 54.3224H238.598C241.432 54.3224 244.153 55.4487 246.158 57.4533C248.163 59.4578 249.289 62.1765 249.289 65.0115V239.316C249.287 242.149 248.161 244.868 246.156 246.872C244.151 248.877 241.432 250 238.598 250H139.331C136.496 250 133.778 248.877 131.773 246.872C129.768 244.868 128.641 242.149 128.64 239.316V65.0115C128.641 62.1767 129.768 59.4585 131.773 57.4543C133.777 55.4497 136.496 54.3234 139.331 54.3224Z" fill="#F9DABB" stroke="#663300" stroke-width="0.964688"/>
<path d="M207.918 225.244L228.728 221.215C229.125 221.138 229.49 220.951 229.785 220.674C230.077 220.397 230.286 220.042 230.386 219.653C230.486 219.261 230.476 218.851 230.351 218.467C230.229 218.082 230.002 217.741 229.692 217.481L217.271 206.977C217.031 206.774 216.751 206.627 216.449 206.545C216.147 206.462 215.83 206.447 215.521 206.502C215.213 206.557 214.919 206.677 214.664 206.857C214.407 207.036 214.192 207.269 214.037 207.541L205.656 222.067C205.446 222.424 205.344 222.83 205.364 223.242C205.381 223.654 205.518 224.054 205.758 224.388C205.998 224.725 206.327 224.985 206.712 225.137C207.094 225.289 207.513 225.327 207.918 225.244Z" fill="#663300"/>
<path d="M194.063 188.996L183.175 247.921L182.815 249.875H138.124L149.389 188.996H194.063Z" fill="#FFECCA" stroke="#663300" stroke-width="0.964688"/>
<path d="M171.398 217.825L180.176 230.075L176.898 216.467L171.398 217.825Z" fill="#663300"/>
<path d="M229.64 249.875H184.965L184.491 247.921L170.242 188.996L170.007 187.968H214.672L229.64 249.875Z" fill="#FFECCA" stroke="#663300" stroke-width="0.964688"/>
<path d="M135.738 109.18C135.738 109.18 107.65 170.16 107.576 170.337C100.81 186.43 109.208 193.991 109.208 193.991C114.988 199.315 119.369 197.099 121.838 195.691C123.55 194.727 127.555 190.102 128.493 187.984L157.483 122.951C158.005 121.77 162.474 115.422 160.467 109.584C157.553 101.105 146.541 98.597 139.572 104.232L139.44 104.338C137.852 105.647 136.585 107.304 135.738 109.18Z" fill="white"/>
<path d="M136.261 114.503C136.261 114.503 109.031 172.941 108.964 173.121C102.197 189.213 109.214 193.991 109.214 193.991C114.995 199.315 119.375 197.099 121.845 195.691C123.556 194.727 127.561 190.102 128.499 187.984L157.483 122.951C158.005 121.77 162.472 115.422 160.467 109.584C157.553 101.105 151.589 101.066 144.826 104.232C143.268 104.961 141.329 106.663 141.329 106.663C139.733 107.963 137.106 112.609 136.261 114.503Z" fill="#D8F46C"/>
<path fill-rule="evenodd" clip-rule="evenodd" d="M135.738 109.18C135.738 109.18 107.65 170.16 107.576 170.337C100.81 186.43 109.208 193.991 109.208 193.991C114.988 199.315 119.369 197.099 121.838 195.691C123.55 194.727 127.555 190.102 128.493 187.984L157.483 122.951C158.005 121.77 162.474 115.422 160.467 109.584C157.553 101.105 146.541 98.597 139.572 104.232L139.44 104.338C137.852 105.647 136.585 107.304 135.738 109.18Z" stroke="#663300" stroke-width="0.964688"/>
<path d="M142.71 142.297C142.871 146.553 142.633 150.816 141.997 155.028C140.465 165.151 138.143 178.181 134.909 190.538C127.706 218.035 142.456 224.061 142.456 224.061L201.199 211.05L227.535 219.982C227.535 219.982 237.302 220.828 230.331 189.253C227.55 176.646 239.003 141.487 243.312 112.439C244.573 103.959 252.275 78.5389 239.317 78.5162L151.583 100.212L147.17 101.204C138.432 103.577 138.008 111.951 139.588 120.867L142.71 142.297Z" fill="white"/>
<path d="M141.949 141.558C142.111 145.815 141.871 150.077 141.232 154.289C139.704 164.413 137.379 177.442 134.145 189.802C126.945 217.296 142.443 224.061 142.443 224.061L201.816 211.275L228.331 220.639C228.331 220.639 237.397 221.28 230.429 189.712C227.642 177.105 238.241 140.755 242.561 111.707C243.826 103.224 249 80.7254 238.064 81.1043L148.914 102.71C140.173 105.083 135.497 111.058 137.073 119.968L141.949 141.558Z" fill="#D8F46C"/>
<path d="M177.897 202.693L230.646 217.783C230.843 217.84 231.018 217.953 231.15 218.11C231.283 218.265 231.365 218.457 231.39 218.659C231.413 218.864 231.378 219.069 231.283 219.251C231.19 219.433 231.045 219.585 230.868 219.685L228.684 220.898L177.897 202.693Z" fill="white"/>
<path d="M178.379 202.987L211.019 214.528" stroke="#663300" stroke-width="0.964688" stroke-linecap="round"/>
<path d="M143.23 102.116L234.269 79.7975" stroke="#663300" stroke-width="0.964688" stroke-linecap="round"/>
<path d="M234.476 153.31C230.891 170.941 228.838 182.529 230.429 189.712C237.4 221.283 228.331 220.639 228.331 220.639L201.816 211.275L142.443 224.061C142.443 224.061 126.945 217.296 134.145 189.802C137.382 177.442 142.276 146.426 143.808 136.302" stroke="#663300" stroke-width="0.964688" stroke-linecap="round"/>
<path d="M194.293 208.609L192.073 213.699L200.767 210.901L194.293 208.609Z" fill="#663300"/>
<path d="M143.885 136.19L139.608 130.879H139.591C139.591 130.879 141.441 149.954 141.441 149.942L143.892 136.186L143.885 136.19Z" fill="#663300"/>
<path d="M105.184 63.0047L124.234 60.0284C125.371 59.8517 126.443 60.7251 126.646 61.987L132.462 99.1749C132.658 100.434 131.9 101.599 130.766 101.776L111.716 104.755C110.582 104.932 109.506 104.055 109.304 102.797L103.488 65.6056C103.292 64.347 104.05 63.1815 105.184 63.0047Z" fill="#6B49EB" stroke="#663300" stroke-width="1.12547"/>
<path d="M116.485 68.6431C116.867 68.4549 117.184 68.1576 117.397 67.7891C117.61 67.4207 117.71 66.9973 117.682 66.5724C117.655 66.1476 117.502 65.7404 117.244 65.4024C116.985 65.0642 116.632 64.81 116.229 64.6723C115.827 64.5345 115.392 64.519 114.981 64.6278C114.569 64.7369 114.199 64.9651 113.917 65.2841C113.635 65.6031 113.454 65.9985 113.397 66.4202C113.339 66.842 113.408 67.2714 113.595 67.6541C113.719 67.9089 113.893 68.1366 114.105 68.3243C114.318 68.512 114.566 68.6561 114.835 68.7477C115.103 68.8396 115.387 68.8777 115.67 68.8598C115.953 68.8418 116.23 68.7682 116.485 68.6431Z" fill="#8D9E71" stroke="#663300" stroke-width="1.12547"/>
<path d="M111.684 138.906C106.802 138.98 102.332 135.185 101.699 130.429L98.5296 106.476C97.8875 101.721 101.346 97.807 106.237 97.7363C111.128 97.6657 115.589 101.461 116.222 106.213L119.391 130.176C120.018 134.934 116.565 138.845 111.684 138.906Z" fill="#FCB095" stroke="#663300" stroke-width="0.964688"/>
<path d="M117.917 97.6112L110.319 104.492C107.384 107.655 102.322 107.529 102.322 107.529C98.8572 106.499 97.7556 105.118 97.3896 101.355L96.8051 95.2962C96.5831 92.4724 96.6163 89.6344 96.9047 86.8163C96.9554 86.2831 97.1469 85.7731 97.4595 85.338C97.7721 84.9031 98.1945 84.5589 98.6837 84.3407C100.457 83.5574 103.347 82.3083 105.383 81.5988L114.295 96.0765C115.583 96.2947 118.412 96.3623 117.917 97.6112Z" fill="#FCB095"/>
<path d="M104.779 85.9621C104.546 85.6638 104.388 85.3143 104.316 84.9423C104.245 84.5706 104.263 84.1872 104.369 83.8237C104.475 83.4603 104.666 83.127 104.926 82.8519C105.186 82.5769 105.508 82.3672 105.865 82.2409C110.964 80.433 119.379 78.0249 121.382 77.9415C124.119 77.8324 124.661 79.2675 124.147 79.8487C123.843 80.1946 123.499 80.5039 123.123 80.7703L107.567 86.704C106.099 87.2691 104.779 85.9621 104.779 85.9621Z" fill="#FCB095"/>
<path d="M106.346 89.6451C106.113 89.3473 105.954 88.9981 105.883 88.6266C105.811 88.2552 105.829 87.872 105.935 87.509C106.041 87.1458 106.231 86.8128 106.491 86.5377C106.75 86.2629 107.072 86.0534 107.429 85.9269C112.522 84.1161 123.12 80.3786 125.111 80.3015C127.847 80.1892 127.59 81.984 127.08 82.5684C126.775 82.9144 126.431 83.2236 126.055 83.49L109.137 90.39C108.654 90.5874 108.12 90.6214 107.616 90.4871C107.112 90.3525 106.666 90.0567 106.346 89.6451Z" fill="#FCB095"/>
<path d="M107.871 93.8097C107.355 92.3166 108.328 90.6149 109.798 90.0305C114.661 88.1039 121.626 85.8081 123.483 85.2559C125.544 84.6396 126.874 85.2302 126.231 86.9931C126.145 87.2067 126.014 87.4002 125.848 87.5605C125.682 87.7207 125.485 87.8448 125.268 87.9242L112.287 95.0201C111.35 95.4472 108.585 95.8454 107.871 93.8097Z" fill="#FCB095"/>
<path d="M112.808 94.9912C117.069 91.9537 120.403 90.2584 122.285 89.7959C124.854 89.1538 124.642 91.1831 124.269 91.8349C124.049 92.2235 123.782 92.5845 123.476 92.9105L115.849 99.1332C113.694 101.211 108.771 97.8681 112.808 94.9912Z" fill="#FCB095"/>
<path d="M113.662 95.0713C115.618 94.0857 117.532 93.0228 119.494 92.05C120.509 91.549 121.533 91.0642 122.587 90.6339C122.908 90.5056 123.476 90.1364 123.814 90.4027C124.151 90.6693 123.814 91.0225 123.634 91.2312C122.198 92.8366 120.57 94.2879 119.038 95.7907C117.449 97.3511 115.858 98.9083 114.263 100.463C112.525 102.164 110.791 103.869 109.082 105.6C108.549 106.139 109.381 106.971 109.914 106.431C113.386 102.932 116.938 99.5119 120.454 96.0538C121.311 95.2191 122.159 94.3821 122.998 93.543C123.412 93.1352 123.82 92.7243 124.228 92.3101C124.576 92.0033 124.848 91.6197 125.021 91.1896C125.099 90.9714 125.127 90.7385 125.101 90.5083C125.076 90.2782 124.999 90.0567 124.875 89.861C124.751 89.6653 124.584 89.5006 124.387 89.379C124.189 89.2577 123.967 89.1828 123.736 89.1603C123.2 89.0864 122.744 89.3079 122.262 89.5038C121.652 89.7542 121.042 90.0175 120.442 90.2936C117.93 91.4497 115.525 92.8174 113.055 94.0568C112.394 94.397 112.988 95.4118 113.662 95.0713Z" fill="#663300"/>
<path d="M111.385 85.5609C115.923 83.9201 120.486 82.35 125.136 81.0369C125.56 80.9181 126.7 80.7735 126.903 81.3355C127.015 81.6405 126.582 82.1992 126.399 82.3981C126.084 82.6722 125.73 82.8964 125.348 83.0629C123.245 84.1643 121.119 85.1852 118.925 86.0874C116.494 87.0829 114.025 87.9851 111.568 88.9292C110.871 89.1955 111.163 90.3258 111.889 90.0625C114.876 88.9709 117.814 87.7572 120.82 86.7297C121.575 86.4728 122.33 86.2287 123.091 85.9975C123.476 85.8787 123.865 85.7696 124.25 85.6765C124.489 85.5839 124.745 85.5422 125.002 85.5544C125.213 85.5702 125.415 85.6508 125.58 85.7856C125.763 85.9943 125.618 86.37 125.512 86.5852C125.197 87.1134 124.756 87.5547 124.228 87.8695C122.797 88.8832 121.31 89.8136 119.773 90.6566C119.105 91.0128 119.699 92.034 120.364 91.6711C121.951 90.8016 123.484 89.8366 124.953 88.7814C125.981 88.0557 127.523 86.5529 126.598 85.1755C125.724 83.8625 123.951 84.5335 122.786 84.8802C121.01 85.4131 119.253 86.0392 117.525 86.691C115.541 87.4361 113.572 88.2162 111.581 88.9387C111.687 89.3143 111.789 89.6933 111.902 90.0722C116.764 88.2067 121.62 86.4181 126.219 83.9715C127.095 83.506 127.824 82.8285 128.056 81.8332C128.287 80.8377 127.612 80.1377 126.694 79.9066C125.615 79.6208 124.619 80.0062 123.585 80.308C122.301 80.6824 121.016 81.0744 119.731 81.4832C116.841 82.4144 113.951 83.4256 111.086 84.4628C110.364 84.6812 110.672 85.821 111.385 85.5609Z" fill="#663300"/>
<path d="M100.216 106.441C98.218 106.496 98.3434 103.381 98.247 102.074C98.0832 99.9742 97.9259 97.8714 97.8006 95.7683C97.6752 93.6651 97.5791 91.5653 97.5309 89.4556C97.5115 88.547 97.3509 87.4873 97.6303 86.6076C97.7459 86.2641 97.9312 85.9484 98.1751 85.6803C98.4188 85.4122 98.7156 85.1977 99.0467 85.0504C101.279 83.9843 103.719 83.2716 106.08 82.5524C109.558 81.4927 113.078 80.5584 116.61 79.6914C118.155 79.3125 119.728 78.8085 121.315 78.6125C121.806 78.5549 122.555 78.4328 123.014 78.6769C123.672 79.0204 123.335 80.0896 122.847 80.4523C122.249 80.9051 122.847 81.9293 123.438 81.4703C123.784 81.2284 124.065 80.9056 124.258 80.5302C124.45 80.1547 124.548 79.7376 124.542 79.3157C124.544 78.9291 124.428 78.5511 124.209 78.2323C123.989 77.9138 123.678 77.6702 123.316 77.5336C122.352 77.2126 121.167 77.3956 120.188 77.6205C115.981 78.5838 111.79 79.6497 107.641 80.8537C104.674 81.6597 101.76 82.6518 98.9181 83.8238C97.3542 84.498 96.3265 85.7504 96.3232 87.5065C96.3232 89.8698 96.4196 92.2395 96.5514 94.5962C96.6958 97.2483 96.895 99.9006 97.1005 102.549C97.1904 103.718 97.1969 104.967 97.7429 106.033C97.9656 106.5 98.3149 106.895 98.7508 107.173C99.1868 107.451 99.6921 107.601 100.209 107.607C100.961 107.597 100.961 106.419 100.216 106.441Z" fill="#663300"/>
<path d="M117.121 109.254C117.433 109.139 117.769 109.096 118.1 109.13C118.432 109.163 118.752 109.271 119.036 109.445C119.32 109.62 119.561 109.857 119.74 110.138C119.92 110.419 120.033 110.737 120.072 111.068L127.779 180.181C128.174 183.325 127.275 191.974 119.683 194.992C115.939 196.48 109.532 195.314 106.516 188.991C104.968 185.781 103.359 182.323 102.897 178.775L95.1446 119.615C95.0789 119.154 95.1698 118.683 95.4027 118.28C95.6354 117.876 95.9967 117.562 96.4292 117.387L117.121 109.254Z" fill="white"/>
<path d="M115.146 110.875C115.458 110.76 115.793 110.717 116.125 110.75C116.457 110.782 116.777 110.89 117.061 111.064C117.345 111.239 117.586 111.475 117.766 111.756C117.945 112.037 118.058 112.355 118.097 112.686L128.746 180.4C129.138 183.543 127.266 191.979 119.671 194.992C115.926 196.48 109.519 195.314 106.504 188.991C104.959 185.781 103.35 182.323 102.887 178.775L95.1415 119.615C95.0761 119.154 95.167 118.684 95.3997 118.28C95.6324 117.876 95.9939 117.562 96.4261 117.387L115.146 110.875Z" fill="#D8F46C"/>
<path d="M107.062 191.03C105.412 187.602 103.395 182.663 102.907 178.894L95.1446 119.615C95.0789 119.154 95.1698 118.683 95.4027 118.28C95.6354 117.876 95.9967 117.562 96.4292 117.387L117.117 109.254C117.43 109.139 117.765 109.096 118.097 109.13C118.429 109.163 118.749 109.271 119.033 109.445C119.317 109.62 119.558 109.857 119.737 110.138C119.916 110.419 120.03 110.737 120.069 111.068L127.776 172.613" stroke="#663300" stroke-width="0.964688" stroke-linecap="round"/>
<path d="M233.947 180.098C234.793 186.818 241.215 192.051 245.424 194.805C249.279 197.321 254.195 197.81 258.348 195.811C259.171 195.416 261.179 193.564 261.646 192.865C264.614 188.524 264.839 180.898 264.807 180.708L249.776 87.176C249.167 83.323 245.894 79.6595 242.031 78.77C240.97 78.5261 238.788 78.8889 237.739 79.1747C235.814 79.6917 231.198 81.9585 231.058 82.0227C222.422 85.9783 221.86 93.5817 222.938 101.663L233.947 180.098Z" fill="white"/>
<path d="M233.947 180.098C234.793 186.818 241.215 192.051 245.429 194.805C249.282 197.321 254.195 197.808 258.348 195.811C259.169 195.416 260.255 194.303 260.702 193.596C264.078 188.282 261.344 176.579 260.847 172.228C260.824 172.032 260.794 171.84 260.769 171.644L246.693 88.03C246.086 84.177 244.029 82.2152 240.571 81.313C239.372 81.0342 238.126 81.0342 236.928 81.313C235 81.8332 227.575 83.6024 227.43 83.6505C218.761 86.5754 221.213 93.3311 222.292 101.413L233.947 180.098Z" fill="#D8F46C"/>
<path d="M225.001 114.924L233.61 179.382C234.456 186.102 240.878 191.335 245.092 194.083C248.945 196.604 253.721 198.117 258.105 196.577C258.969 196.255 260.223 194.607 260.697 193.918C263.563 189.715 265.279 185.999 264.772 181.655C264.749 181.459 264.058 176.11 264.025 175.914L249.504 86.8902C249.372 86.0689 249.127 85.2694 248.777 84.5142C246.79 80.1764 243.167 77.6367 238.531 78.7925C237.073 79.1552 233.969 79.8584 233.292 80.0352" stroke="#663300" stroke-width="0.964688" stroke-linecap="round"/>
<path d="M213.818 150.16C210.779 154.424 204.662 155.875 200.151 153.4L177.432 140.929C172.936 138.453 171.727 132.988 174.766 128.727C177.804 124.467 183.922 123.012 188.431 125.488L211.151 137.943C215.66 140.428 216.856 145.896 213.818 150.16Z" fill="#FCB095" stroke="#663300" stroke-width="0.964688"/>
<path d="M185.567 137.943L180.299 142.438L183.457 143.934L185.567 137.943Z" fill="#663300"/>
<path d="M180.374 119.32L185.45 123.002C189.352 125.834 190.089 129.017 187.824 133.277L187.434 134.732C185.532 138.315 182.468 140.97 178.444 140.418L171.97 139.526C171.687 139.488 171.418 139.386 171.183 139.229C170.946 139.072 170.749 138.864 170.604 138.619C170.459 138.375 170.374 138.1 170.349 137.817C170.327 137.535 170.369 137.25 170.471 136.986L176.966 120.321C177.09 120.003 177.288 119.716 177.54 119.485C177.794 119.254 178.097 119.083 178.424 118.986C178.753 118.89 179.1 118.87 179.437 118.927C179.774 118.985 180.096 119.119 180.374 119.32Z" fill="#FCB095"/>
<path d="M175.145 137.134L178.161 126.384C178.304 125.869 178.319 125.327 178.204 124.806C178.087 124.284 177.844 123.799 177.497 123.393C177.15 122.987 176.708 122.673 176.211 122.479C175.712 122.284 175.175 122.215 174.643 122.277L156.155 124.457C155.938 124.483 155.726 124.559 155.541 124.68C155.357 124.802 155.203 124.965 155.092 125.155C154.982 125.347 154.917 125.561 154.904 125.781C154.891 126.002 154.929 126.222 155.016 126.425L155.539 128.031C155.623 128.291 155.759 128.531 155.938 128.737C156.117 128.943 156.337 129.11 156.582 129.228L156.991 129.424L157.091 131.46C157.121 132.139 157.358 132.793 157.768 133.335L158.509 134.055L159.391 136.623C159.543 136.99 159.803 137.302 160.135 137.519C161.608 138.437 163.967 138.309 165.665 138.594C167.877 138.97 169.985 139.278 171.575 139.494C172.354 139.597 173.145 139.416 173.802 138.982C174.459 138.548 174.936 137.892 175.145 137.134Z" fill="#FCB095"/>
<path d="M171.757 120.511L156.307 114.484C155.311 114.128 154.431 115.48 154.582 116.53C154.582 116.53 154.582 118.045 156.237 119.14L164.412 125.263C164.686 125.457 164.989 125.61 165.308 125.716L169.438 127.116C170.314 127.423 171.278 127.37 172.114 126.968C172.951 126.566 173.592 125.848 173.902 124.972C174.209 124.097 174.154 123.135 173.752 122.298C173.35 121.461 172.634 120.818 171.757 120.511Z" fill="#FCB095"/>
<path d="M178.109 118.639L151.213 120.992C150.907 121.02 150.604 121.068 150.305 121.137C147.812 121.731 145.487 122.12 146.229 123.385C146.401 123.623 146.59 123.848 146.794 124.059C147.627 124.42 148.532 124.58 149.437 124.524L178.404 123.658C178.738 123.644 179.065 123.565 179.367 123.424C179.669 123.283 179.939 123.083 180.164 122.835C180.389 122.588 180.561 122.299 180.671 121.985C180.781 121.67 180.828 121.337 180.808 121.004C180.788 120.671 180.703 120.346 180.556 120.047C180.409 119.747 180.204 119.48 179.954 119.262C179.702 119.042 179.41 118.876 179.093 118.771C178.776 118.666 178.441 118.626 178.109 118.652V118.639Z" fill="#FCB095"/>
<path d="M179.839 118.068C177.188 117.502 174.294 117.65 171.622 118.006C168.684 118.401 165.755 118.828 162.804 119.133C159.611 119.454 156.41 119.686 153.227 120.097C151.509 120.309 149.797 120.582 148.089 120.961C147.469 121.095 146.775 121.233 146.265 121.638C145.979 121.853 145.766 122.151 145.656 122.491C145.545 122.831 145.541 123.197 145.645 123.539C146.229 125.196 148.657 125.08 150.051 125.144C152.116 125.257 154.184 125.196 156.245 125.109C156.996 125.077 157.004 123.902 156.245 123.931C154.592 123.998 152.941 124.052 151.287 124.014C150.465 123.995 149.641 123.949 148.814 123.876C148.195 123.818 147.392 123.837 146.916 123.365C146.374 122.826 147.167 122.402 147.623 122.274C148.339 122.075 149.064 121.914 149.797 121.792C151.297 121.506 152.803 121.298 154.319 121.131C157.209 120.809 160.1 120.595 163.011 120.286C165.7 120.004 168.382 119.662 171.058 119.262C172.499 119.049 173.952 118.93 175.408 118.906C176.781 118.849 178.156 118.946 179.507 119.194C180.264 119.358 180.583 118.225 179.839 118.068Z" fill="#663300"/>
<path d="M164.659 122.935C163.131 123.093 161.595 123.218 160.067 123.394C159.286 123.484 158.504 123.587 157.725 123.715C157.026 123.797 156.337 123.963 155.677 124.21C154.155 124.852 154.026 126.602 154.81 127.902C155.131 128.448 155.642 129.225 156.23 129.508C156.619 129.645 157.036 129.683 157.443 129.617L158.911 129.54L165.271 129.196C166.022 129.158 166.025 127.983 165.271 128.021L159.203 128.342L157.64 128.426C157.446 128.426 157.248 128.461 157.051 128.458C156.946 128.471 156.842 128.455 156.744 128.41C156.649 128.366 156.567 128.296 156.509 128.207C156.005 127.633 155.394 126.891 155.501 126.079C155.606 125.266 156.602 125.115 157.286 124.981C158.067 124.827 158.856 124.714 159.645 124.621C161.313 124.415 162.989 124.3 164.656 124.11C165.405 124.036 165.415 122.852 164.659 122.935Z" fill="#663300"/>
<path d="M158.444 128.468C157.828 128.484 157.239 128.725 156.784 129.145C156.445 129.555 156.262 130.073 156.267 130.606C156.217 131.649 156.48 132.943 157.176 133.743C158.05 134.742 159.486 134.616 160.684 134.603L165.266 134.555C166.025 134.555 166.025 133.371 165.266 133.38L161.765 133.415C161.153 133.415 160.547 133.431 159.933 133.435C159.473 133.469 159.014 133.423 158.572 133.3C157.758 133.014 157.578 132.057 157.481 131.303C157.411 130.932 157.423 130.55 157.518 130.185C157.645 129.806 158.075 129.681 158.442 129.649C159.193 129.572 159.201 128.397 158.444 128.468Z" fill="#663300"/>
<path d="M159.516 133.447C158.856 133.447 158.165 133.672 158.14 134.452C158.14 135.079 158.462 135.714 158.754 136.254C159.476 137.625 160.474 138.63 162.057 138.909C163.985 139.23 165.982 139.375 167.932 139.6C169.882 139.824 171.88 140.049 173.85 140.274C175.944 140.514 178.084 140.714 180.119 140.065C180.835 139.837 180.531 138.7 179.799 138.932C178.301 139.407 176.751 139.384 175.203 139.253C173.55 139.102 171.902 138.887 170.254 138.697L165.306 138.132C164.474 138.039 163.635 137.949 162.804 137.846C162.115 137.81 161.448 137.588 160.876 137.204C160.392 136.784 160.007 136.263 159.745 135.679C159.601 135.418 159.478 135.145 159.376 134.863C159.376 134.831 159.298 134.517 159.291 134.513C159.281 134.51 159.238 134.568 159.216 134.594C159.124 134.661 159.106 134.687 159.174 134.661L159.496 134.642C160.272 134.6 160.272 133.422 159.516 133.447Z" fill="#663300"/>
<path d="M157.658 119.464C156.724 118.796 155.536 118.103 155.253 116.918C155.171 116.647 155.162 116.359 155.226 116.083C155.291 115.807 155.428 115.554 155.623 115.348C155.883 115.082 155.868 115.062 156.15 115.168C156.587 115.329 157.024 115.489 157.453 115.669C159.076 116.311 160.664 117.088 162.27 117.778C163.368 118.225 164.502 118.572 165.663 118.816C166.978 119.148 168.322 119.363 169.675 119.458C170.434 119.5 170.431 118.321 169.675 118.283C166.861 118.085 164.107 117.372 161.55 116.18C160.629 115.762 159.71 115.348 158.782 114.95C158.362 114.77 157.94 114.597 157.518 114.43C157.074 114.216 156.609 114.045 156.132 113.919C155.491 113.8 154.939 114.32 154.569 114.773C154.337 115.077 154.173 115.427 154.087 115.8C154.001 116.173 153.996 116.559 154.072 116.934C154.335 118.623 155.78 119.554 157.076 120.466C157.68 120.925 158.27 119.898 157.658 119.464Z" fill="#663300"/>
<path d="M179.535 119.191C181.19 119.959 182.651 121.102 184.031 122.277C185.412 123.452 186.793 124.74 188.206 125.941C188.78 126.432 189.617 125.6 189.037 125.109C187.597 123.876 186.216 122.569 184.76 121.349C183.305 120.129 181.834 118.96 180.131 118.177C179.45 117.859 178.848 118.874 179.535 119.191Z" fill="#663300"/>
<path d="M244.588 160.059L256.515 164.342L256.09 168.622L244.588 160.059Z" fill="#663300"/>
<path d="M191.18 123.815C191.951 121.888 194.211 121.519 195.854 122.781L254.116 167.579C256.912 169.73 258.787 174.701 259.771 178.868C260.605 182.4 260.859 186.532 259.042 189.675C257.316 192.663 254.727 195.651 245.087 194.081C241.499 193.497 238.71 191.996 235.819 189.802L182.8 149.502C181.677 148.651 181.699 147.306 182.226 146.002L191.18 123.815Z" fill="white"/>
<path d="M190.288 126.406C191.062 124.48 193.322 124.114 194.962 125.375L256.515 169.788C259.311 171.939 260.842 176.499 261.828 180.663C262.664 184.195 262.969 188.851 261.346 192.101C258.939 196.931 254.745 198.776 245.289 195.124C241.901 193.809 238.718 192.016 235.832 189.805L182.8 149.502C181.677 148.651 181.699 147.306 182.226 146.002L190.288 126.406Z" fill="#D8F46C"/>
<path d="M261.646 192.588C259.376 197.144 255.516 199.041 247.15 196.185C243.105 194.78 239.31 192.735 235.909 190.132L183.108 149.996C182.561 149.582 182.166 149 181.984 148.34C181.802 147.679 181.842 146.978 182.099 146.342L191.055 124.075C191.235 123.626 191.517 123.224 191.876 122.902C192.238 122.58 192.67 122.346 193.137 122.219C193.604 122.092 194.093 122.075 194.568 122.169C195.042 122.263 195.489 122.466 195.871 122.762L255.526 168.388" stroke="#663300" stroke-width="0.964688" stroke-linecap="round"/>
<path d="M191.966 111.707C185.647 111.707 180.788 106.525 181.118 100.148L182.381 76.0506C182.703 69.6608 188.111 64.4915 194.435 64.4915C200.762 64.4915 205.618 69.6738 205.284 76.0506L204.025 100.148C203.691 106.525 198.293 111.707 191.966 111.707Z" fill="#FCB095" stroke="#663300" stroke-width="0.964688"/>
<path d="M182.174 89.2886C182.174 89.2886 184.84 89.3915 186.224 89.2886C187.609 89.186 191.299 88.0847 191.299 88.0847L181.764 95.4375L182.174 89.2886Z" fill="#663300"/>
<path d="M210.105 72.0977C211.656 70.3865 211.661 67.8628 210.105 66.4596C208.552 65.0564 206.043 65.3036 204.492 67.015C202.939 68.7265 202.934 71.2502 204.492 72.6531C206.05 74.0563 208.545 73.8092 210.105 72.0977Z" fill="#FCB095"/>
<path d="M201.451 48.5717C200.627 45.4092 198.438 42.8822 195.991 42.6253C194.777 42.4938 193.816 42.8822 192.61 42.7217C191.679 42.5457 190.788 42.2054 189.976 41.7167C187.442 40.3682 184.908 38.8494 182.069 38.4256C180.516 38.1984 178.933 38.32 177.432 38.7815C175.932 39.2431 174.554 40.0329 173.398 41.0938C171.116 43.2481 169.827 46.5105 170.342 49.6024C170.856 52.6946 172.556 58.3906 179.332 57.9185L201.451 48.5717Z" fill="black"/>
<path d="M202.016 48.4145C201.524 46.5877 200.602 44.7864 199.162 43.518C198.553 42.9653 197.841 42.5387 197.067 42.2626C196.136 41.996 195.154 41.9411 194.198 42.1021C193.062 42.2499 191.906 42.0519 190.883 41.5337C189.891 41.0457 188.955 40.4903 187.961 39.9798C186.004 38.9585 183.954 38.0531 181.742 37.793C179.764 37.5691 177.765 37.8824 175.952 38.7002C174.139 39.5179 172.581 40.8095 171.443 42.4391C170.294 44.0999 169.653 46.059 169.6 48.0775C169.605 49.3568 169.81 50.6274 170.207 51.8439C170.946 54.297 172.396 56.6599 174.798 57.7645C175.477 58.0783 176.199 58.2945 176.941 58.4068C177.338 58.4688 177.737 58.5084 178.139 58.5254C178.566 58.5728 178.998 58.5589 179.422 58.4837C179.672 58.3909 179.914 58.2838 180.149 58.1627L191.447 53.3978L201.401 49.1948L201.576 49.1242C201.723 49.0792 201.851 48.9789 201.928 48.8441C202.006 48.709 202.028 48.5495 201.991 48.3985C201.948 48.248 201.848 48.1201 201.711 48.043C201.576 47.9661 201.414 47.9462 201.264 47.9876L193.397 51.3077L181.397 56.3871L179.724 57.0935C179.497 57.2169 179.253 57.3035 178.998 57.3504C177.512 57.462 176.027 57.1265 174.733 56.3871C173.722 55.7503 172.891 54.8664 172.317 53.8184C171.126 51.7378 170.459 48.9764 170.931 46.6101C171.315 44.7474 172.242 43.0395 173.592 41.6997C174.943 40.3599 176.658 39.4478 178.524 39.0774C180.483 38.7114 182.508 38.8981 184.368 39.6168C186.391 40.3457 188.223 41.4823 190.126 42.4521C191.067 42.984 192.121 43.2856 193.2 43.3318C194.188 43.3318 195.182 43.0397 196.168 43.2289C197.774 43.5502 199.019 44.8345 199.826 46.1703C200.293 46.9634 200.645 47.8183 200.872 48.71C200.925 48.8463 201.024 48.9589 201.154 49.0261C201.284 49.093 201.434 49.1099 201.576 49.0732C201.718 49.0368 201.841 48.9494 201.921 48.8278C202.003 48.7063 202.036 48.5592 202.016 48.4145Z" fill="#663300"/>
<path d="M177.305 70.5148C178.576 69.2657 178.476 67.1146 177.088 65.6985C175.7 64.2826 173.555 64.1703 172.272 65.4192C170.986 66.6683 171.101 68.8196 172.489 70.2355C173.877 71.6514 176.042 71.7542 177.305 70.5148Z" fill="#FCB095" stroke="#663300" stroke-width="0.964688"/>
<path d="M176.726 77.0329C176.973 79.1178 177.422 81.174 178.067 83.172C179.233 86.7232 181.185 90.0143 186.228 89.2886C192.882 88.3253 197.811 86.0232 200.41 82.1797C202.383 79.2643 204.412 73.0223 204.412 73.0223L206.562 65.7274C206.562 65.7274 208.53 55.4784 203.606 50.3987C199.369 46.032 195.352 44.7958 189.879 44.7252C184.408 44.6545 179.899 46.9471 177.392 52.0396C174.676 57.5269 175.997 71.1569 176.726 77.0329Z" fill="#FCB095"/>
<path d="M177.607 61.7621C178.194 62.2758 178.916 62.4041 179.665 62.4748C180.341 62.5122 181.02 62.4141 181.662 62.1859C181.737 62.1665 181.809 62.132 181.872 62.0843C181.937 62.0369 181.989 61.977 182.029 61.9086C182.069 61.8402 182.094 61.7646 182.104 61.6864C182.114 61.6081 182.106 61.5284 182.086 61.4523C182.064 61.3764 182.026 61.3055 181.979 61.2438C181.929 61.1822 181.867 61.131 181.797 61.0933C181.729 61.0559 181.652 61.0324 181.575 61.0249C181.495 61.0174 181.415 61.0257 181.34 61.0491C181.07 61.1263 180.803 61.2129 180.528 61.2708C180.461 61.2875 180.391 61.2993 180.321 61.306C180.431 61.29 180.294 61.306 180.259 61.306C180.096 61.319 179.937 61.319 179.777 61.306L179.545 61.2835C179.52 61.2835 179.298 61.2516 179.422 61.2835C179.295 61.2668 179.168 61.2433 179.04 61.2129L178.828 61.1552C178.806 61.1552 178.611 61.0621 178.718 61.1165C178.658 61.0846 178.591 61.0524 178.531 61.0139L178.441 60.956C178.486 60.985 178.489 60.9915 178.441 60.956C178.386 60.9014 178.321 60.8582 178.249 60.8287C178.179 60.799 178.102 60.7838 178.024 60.7838C177.947 60.7838 177.869 60.799 177.799 60.8287C177.727 60.8582 177.662 60.9014 177.607 60.956C177.555 61.0107 177.51 61.0756 177.48 61.1467C177.452 61.2181 177.435 61.2948 177.435 61.3719C177.435 61.449 177.452 61.5257 177.48 61.5968C177.51 61.6682 177.555 61.7331 177.607 61.7878V61.7621Z" fill="#663300"/>
<path d="M191.909 62.674C193.609 63.2271 195.434 63.2541 197.149 62.7509C197.876 62.5389 197.564 61.4024 196.83 61.6175C195.319 62.0621 193.711 62.0339 192.218 61.5372C192.068 61.4997 191.911 61.5217 191.776 61.5986C191.644 61.6757 191.547 61.8015 191.504 61.9495C191.462 62.0976 191.479 62.2561 191.554 62.3911C191.626 62.5264 191.749 62.6278 191.896 62.674H191.909Z" fill="#663300"/>
<path d="M183.794 59.5753C183.472 62.34 183.055 65.0884 182.775 67.8563C182.711 68.4983 182.651 69.1725 182.606 69.8373C182.561 70.5018 182.498 71.1666 182.8 71.7862C183.317 72.8491 184.648 73.0705 185.714 73.1092C186.468 73.1444 186.468 71.9661 185.714 71.9307C185.242 71.9262 184.773 71.8393 184.331 71.6738C183.817 71.4524 183.719 71.0061 183.739 70.4794C183.782 69.3106 183.916 68.1386 184.061 66.9763C184.338 64.504 184.703 62.0444 184.983 59.5753C185.055 58.8239 183.874 58.8304 183.794 59.5753Z" fill="#663300"/>
<path d="M190.323 76.0376C191.332 76.1285 192.341 75.8651 193.177 75.2925C193.309 75.2113 193.404 75.0828 193.444 74.9335C193.484 74.7842 193.464 74.6255 193.389 74.4899C193.309 74.3559 193.179 74.2585 193.03 74.2188C192.88 74.1791 192.718 74.2003 192.583 74.278C192.408 74.401 192.223 74.5084 192.028 74.599L191.949 74.6344C191.889 74.6631 191.896 74.6569 191.974 74.6344C191.921 74.6584 191.869 74.6776 191.814 74.6921C191.709 74.7275 191.607 74.7595 191.492 74.7852C191.387 74.8147 191.279 74.8371 191.17 74.8526H191.085H191.11H190.962C190.74 74.8703 190.518 74.8703 190.296 74.8526C190.221 74.8526 190.143 74.8678 190.071 74.8973C190.001 74.927 189.936 74.9702 189.881 75.0249C189.826 75.0793 189.784 75.1442 189.754 75.2153C189.724 75.2867 189.709 75.3631 189.709 75.4402C189.711 75.6007 189.776 75.7535 189.894 75.8654C190.009 75.9774 190.161 76.0391 190.323 76.0376Z" fill="#663300"/>
<path d="M206.829 69.2624C206.927 69.2048 207.019 69.1566 207.119 69.1052H207.089C207.114 69.0937 207.139 69.0849 207.164 69.0794C207.214 69.058 207.266 69.041 207.319 69.0283C207.409 68.9996 207.501 68.9771 207.593 68.9606H207.671C207.581 68.9606 207.568 68.9606 207.636 68.9606H207.796C207.905 68.9606 208.01 68.9606 208.118 68.9606C208.155 68.9606 208.198 68.9606 208.238 68.9606C208.065 68.9606 208.238 68.9606 208.282 68.9606C208.387 68.9863 208.492 69.012 208.602 69.0475L208.677 69.0762C208.734 69.0987 208.727 69.0957 208.647 69.0762C208.699 69.0927 208.749 69.1164 208.794 69.1468C208.929 69.2175 209.086 69.2337 209.231 69.1918C209.376 69.1501 209.501 69.0535 209.576 68.9227C209.653 68.7919 209.676 68.6364 209.641 68.4893C209.606 68.342 209.513 68.214 209.386 68.1324C208.894 67.877 208.347 67.7529 207.793 67.7721C207.241 67.7911 206.702 67.9529 206.23 68.2414C206.105 68.3263 206.018 68.4549 205.985 68.6012C205.953 68.7474 205.978 68.9007 206.055 69.0298C206.13 69.1586 206.253 69.2539 206.397 69.2959C206.542 69.3378 206.697 69.3236 206.829 69.2562V69.2624Z" fill="#663300"/>
<path d="M173.408 68.1099C173.495 68.1051 173.582 68.1051 173.667 68.1099H173.822C173.865 68.1099 173.949 68.1356 173.765 68.1099H173.842C174.054 68.1438 174.264 68.1943 174.469 68.2607L174.621 68.3153C174.644 68.3153 174.733 68.3635 174.641 68.3153C174.549 68.2672 174.641 68.3153 174.661 68.3153C174.756 68.3603 174.853 68.4084 174.943 68.4599L175.07 68.5432C175.113 68.5722 175.17 68.6364 175.053 68.524L175.113 68.5722C175.15 68.6022 175.185 68.6354 175.215 68.6718C175.255 68.707 175.37 68.8613 175.245 68.6975C175.328 68.8266 175.452 68.9222 175.597 68.9671C175.752 69.0048 175.914 68.9841 176.054 68.9094C176.187 68.8291 176.284 68.7 176.324 68.5495C176.364 68.399 176.344 68.2389 176.266 68.1034C176.084 67.8595 175.859 67.6498 175.605 67.4838C175.368 67.3355 175.115 67.216 174.851 67.1274C174.389 66.9633 173.902 66.883 173.41 66.8897C173.255 66.8897 173.105 66.9516 172.996 67.0619C172.886 67.172 172.823 67.3216 172.823 67.4773C172.823 67.6331 172.886 67.7826 172.996 67.8927C173.105 68.003 173.255 68.065 173.41 68.065L173.408 68.1099Z" fill="#663300"/>
<path d="M200.34 49.7792C199.951 49.2088 199.449 48.725 198.865 48.359C198.28 47.9931 197.626 47.7529 196.945 47.6536C195.339 47.4224 193.963 48.1191 192.61 48.9122C189.831 50.5765 186.518 51.1035 183.36 50.3828C181.652 49.9749 179.869 48.71 178.064 49.2847C177.345 49.5158 177.65 50.6524 178.386 50.418C179.12 50.1836 179.889 50.418 180.611 50.6846C181.332 50.9834 182.071 51.2418 182.82 51.4584C184.246 51.8286 185.724 51.9609 187.195 51.8501C188.685 51.7403 190.148 51.3843 191.524 50.7969C192.882 50.2158 194.093 49.1723 195.551 48.8511C196.261 48.7128 196.997 48.7832 197.666 49.054C198.338 49.3246 198.915 49.7839 199.332 50.3763C199.751 50.9961 200.772 50.4085 200.34 49.7792Z" fill="#663300"/>
<path d="M206.22 65.8173C206.22 65.8173 209.229 55.1347 204.51 51.2979C199.793 47.4609 195.352 44.7958 189.879 44.7252C184.408 44.6545 179.899 46.9471 177.392 52.0396C174.683 57.5269 175.999 71.1666 176.728 77.0329C176.978 79.1175 177.427 81.1735 178.072 83.172C179.238 86.7232 181.193 90.0143 186.231 89.2886C192.887 88.3253 197.819 86.0232 200.415 82.1797" stroke="#663300" stroke-width="0.964688" stroke-linecap="round" stroke-linejoin="round"/>
<path d="M174.124 44.2115C173.363 47.2522 175.592 50.2542 178.621 50.8002C179.607 50.9766 180.296 51.4038 181.442 51.8309C184.975 53.1504 187.844 53.1696 191.691 51.3428C195.539 49.5158 196.385 49.3391 198.28 50.1708C198.959 50.5118 199.529 51.0343 199.928 51.6798C200.32 52.2547 201.376 52.0009 201.354 51.2979C201.289 49.4227 200.73 47.053 199.237 45.8393C195.457 42.7506 194.98 45.3448 190.226 43.5018C185.472 41.6588 182.199 39.0259 176.451 41.3153C175.113 41.8387 174.396 43.1261 174.124 44.2115Z" fill="black"/>
<path d="M202.293 48.514C201.976 48.5984 201.683 48.7599 201.444 48.9841C201.204 49.208 201.022 49.4878 200.917 49.7984C200.368 51.4487 199.491 54.8459 200.66 57.0711C201.519 58.6874 202.725 60.0926 204.193 61.1839C204.367 61.3145 204.515 61.4785 204.625 61.6665C204.734 61.8544 204.807 62.0629 204.834 62.2791C204.982 63.3385 204.722 65.5507 205.416 65.8108C206.005 66.0325 207.666 65.3453 207.666 65.3453C207.666 65.3453 207.803 61.685 209.623 58.458C211.071 55.8893 212.39 51.4874 208.29 48.8865C206.372 47.6663 203.728 48.1191 202.293 48.514Z" fill="black"/>
<path d="M206.57 65.7274C207.064 65.5844 207.583 65.5494 208.093 65.6253C208.602 65.7012 209.089 65.8859 209.521 66.1668C209.95 66.4478 210.317 66.8185 210.592 67.2536C210.867 67.6885 211.044 68.1778 211.114 68.6878C211.254 69.7849 210.994 70.8957 210.38 71.8151C209.765 72.7347 208.839 73.4008 207.771 73.6903C207.199 73.8501 206.6 73.8686 206.018 73.7442C205.439 73.6202 204.899 73.3571 204.442 72.9776" stroke="#663300" stroke-width="0.964688" stroke-linecap="round"/>
<path d="M200.605 50.8259C200.12 52.6207 199.696 55.2505 200.657 57.0838C201.514 58.7009 202.72 60.106 204.19 61.1969C204.365 61.3267 204.512 61.4907 204.622 61.679C204.732 61.8669 204.804 62.0756 204.832 62.2918C204.984 63.3515 204.722 65.5637 205.414 65.8238C206.005 66.0452 207.661 65.3582 207.661 65.3582C207.661 65.3582 207.796 61.6977 209.618 58.4742C211.066 55.9055 212.385 51.5001 208.287 48.8995C205.501 47.1333 201.249 48.8513 201.249 48.8513" stroke="#663300" stroke-width="0.964688" stroke-linecap="round"/>
<path d="M175.445 49.0567C176.284 49.9629 177.392 50.5742 178.608 50.8001C179.592 50.9769 180.284 51.4037 181.43 51.8309C184.963 53.1506 187.831 53.1699 191.679 51.3428C195.526 49.5158 196.373 49.3393 198.268 50.1708C198.947 50.5118 199.516 51.0343 199.916 51.6801" stroke="#663300" stroke-width="0.964688" stroke-linecap="round"/>
<path fill-rule="evenodd" clip-rule="evenodd" d="M243.327 9.72077L225.852 1L219.967 12.784L237.447 21.5045L243.327 9.72077Z" stroke="#663300" stroke-width="1.12547" stroke-linejoin="round"/>
<path d="M226.114 1.30179L231.345 12.4177L242.56 9.99036" stroke="#663300" stroke-width="1.12547" stroke-linejoin="round"/>
<path d="M221.583 9.56L229.268 8.48135" stroke="#663300" stroke-width="1.12547" stroke-linejoin="round"/>
<path d="M239.025 18.2648L235.27 11.4769" stroke="#663300" stroke-width="1.12547" stroke-linejoin="round"/>
<path d="M240.848 12.7196C241.582 12.7196 242.296 12.5026 242.905 12.0957C243.514 11.6889 243.989 11.1107 244.268 10.4342C244.55 9.75772 244.623 9.01333 244.481 8.2954C244.338 7.57722 243.984 6.91745 243.467 6.39972C242.95 5.88199 242.288 5.52952 241.572 5.38648C240.853 5.24369 240.109 5.31708 239.432 5.59717C238.755 5.8775 238.176 6.35204 237.769 6.96064C237.362 7.56948 237.145 8.28542 237.145 9.01758C237.145 9.99937 237.537 10.941 238.231 11.6354C238.925 12.3296 239.866 12.7196 240.848 12.7196Z" fill="#F97164" stroke="#663300" stroke-width="1.12547" stroke-linejoin="round"/>
<path d="M209.985 114C209.165 114 208.378 114.323 207.798 114.897L205.906 116.772C205.326 117.346 205 118.125 205 118.937C205 120.629 206.384 122 208.092 122C208.912 122 209.699 121.677 210.279 121.103L211.588 119.806C211.588 119.806 211.588 119.806 211.588 119.806L215.402 116.028C215.679 115.754 216.055 115.6 216.446 115.6C217.102 115.6 217.658 116.023 217.851 116.609L219.054 115.417C218.505 114.565 217.542 114 216.446 114C215.626 114 214.84 114.323 214.26 114.897L209.136 119.972C208.86 120.246 208.484 120.4 208.092 120.4C207.277 120.4 206.615 119.745 206.615 118.937C206.615 118.549 206.771 118.177 207.048 117.903L208.94 116.028C209.217 115.754 209.593 115.6 209.985 115.6C210.64 115.6 211.196 116.023 211.389 116.609L212.593 115.417C212.044 114.565 211.081 114 209.985 114Z" fill="white"/>
<path d="M215.598 119.972C215.321 120.246 214.945 120.4 214.554 120.4C213.898 120.4 213.342 119.977 213.149 119.391L211.946 120.583C212.495 121.435 213.458 122 214.554 122C215.374 122 216.16 121.677 216.74 121.103L221.864 116.028C222.141 115.754 222.516 115.6 222.908 115.6C223.723 115.6 224.385 116.255 224.385 117.063C224.385 117.451 224.229 117.823 223.952 118.097L222.06 119.972C221.783 120.246 221.407 120.4 221.015 120.4C220.36 120.4 219.804 119.977 219.611 119.391L218.407 120.583C218.956 121.435 219.919 122 221.015 122C221.835 122 222.622 121.677 223.202 121.103L225.094 119.228C225.674 118.654 226 117.875 226 117.063C226 115.371 224.616 114 222.908 114C222.088 114 221.301 114.323 220.721 114.897L215.598 119.972Z" fill="white"/>
<path d="M158.344 312.736V316.569H139.105V312.736H158.344ZM139.838 297.453V333H135.126V297.453H139.838ZM162.445 297.453V333H157.758V297.453H162.445ZM181.098 333.488C179.258 333.488 177.59 333.179 176.093 332.561C174.612 331.926 173.334 331.039 172.26 329.899C171.202 328.76 170.388 327.409 169.818 325.847C169.249 324.284 168.964 322.575 168.964 320.72V319.694C168.964 317.546 169.281 315.633 169.916 313.957C170.551 312.264 171.413 310.832 172.504 309.66C173.594 308.488 174.831 307.601 176.215 306.999C177.598 306.397 179.031 306.096 180.512 306.096C182.4 306.096 184.027 306.421 185.395 307.072C186.778 307.723 187.909 308.635 188.788 309.807C189.667 310.962 190.318 312.329 190.741 313.908C191.164 315.471 191.376 317.18 191.376 319.035V321.062H171.649V317.375H186.859V317.033C186.794 315.861 186.55 314.722 186.127 313.615C185.72 312.508 185.069 311.597 184.174 310.881C183.279 310.165 182.058 309.807 180.512 309.807C179.486 309.807 178.542 310.026 177.68 310.466C176.817 310.889 176.076 311.524 175.458 312.37C174.84 313.216 174.359 314.25 174.018 315.471C173.676 316.691 173.505 318.099 173.505 319.694V320.72C173.505 321.973 173.676 323.153 174.018 324.26C174.376 325.35 174.888 326.311 175.556 327.141C176.239 327.971 177.061 328.622 178.021 329.094C178.998 329.566 180.105 329.802 181.342 329.802C182.937 329.802 184.288 329.476 185.395 328.825C186.501 328.174 187.47 327.303 188.3 326.213L191.034 328.386C190.465 329.248 189.74 330.07 188.861 330.852C187.982 331.633 186.9 332.268 185.614 332.756C184.345 333.244 182.839 333.488 181.098 333.488ZM203.729 330.266L211.078 306.584H215.912L205.316 337.077C205.072 337.728 204.747 338.428 204.34 339.177C203.949 339.942 203.445 340.666 202.826 341.35C202.208 342.033 201.459 342.587 200.58 343.01C199.717 343.449 198.684 343.669 197.479 343.669C197.121 343.669 196.666 343.62 196.112 343.522C195.559 343.425 195.168 343.343 194.94 343.278L194.916 339.616C195.046 339.632 195.25 339.649 195.526 339.665C195.819 339.698 196.023 339.714 196.137 339.714C197.162 339.714 198.033 339.576 198.749 339.299C199.465 339.038 200.067 338.591 200.556 337.956C201.06 337.338 201.492 336.483 201.85 335.393L203.729 330.266ZM198.334 306.584L205.194 327.092L206.366 331.853L203.119 333.513L193.402 306.584H198.334ZM225.36 297.453L225.043 322.966H220.966L220.624 297.453H225.36ZM220.478 330.729C220.478 329.997 220.697 329.379 221.137 328.874C221.592 328.369 222.26 328.117 223.139 328.117C224.001 328.117 224.66 328.369 225.116 328.874C225.588 329.379 225.824 329.997 225.824 330.729C225.824 331.429 225.588 332.032 225.116 332.536C224.66 333.041 224.001 333.293 223.139 333.293C222.26 333.293 221.592 333.041 221.137 332.536C220.697 332.032 220.478 331.429 220.478 330.729Z" fill="#333333"/>
</svg>
