<svg width="17" height="17" viewBox="0 0 17 17" fill="none" xmlns="http://www.w3.org/2000/svg">
<path fill-rule="evenodd" clip-rule="evenodd" d="M0 8.51273C0 4.03505 3.5785 0 8.517 0C13.345 0 17 3.95844 17 8.48723C17 13.7396 12.716 17 8.5 17C7.106 17 5.559 16.6255 4.318 15.8934C3.8845 15.6294 3.519 15.4337 3.0515 15.5869L1.3345 16.0976C0.901 16.2339 0.51 15.8934 0.6375 15.4337L1.207 13.5268C1.3005 13.2629 1.2835 12.9819 1.1475 12.7606C0.4165 11.4157 0 9.94294 0 8.51273ZM7.395 8.51273C7.395 9.11717 7.8795 9.60243 8.483 9.61093C9.0865 9.61093 9.571 9.11717 9.571 8.52132C9.571 7.91688 9.0865 7.43162 8.483 7.43162C7.888 7.42312 7.395 7.91688 7.395 8.51273ZM11.3135 8.52132C11.3135 9.11717 11.798 9.61093 12.4015 9.61093C13.005 9.61093 13.4895 9.11717 13.4895 8.52132C13.4895 7.91688 13.005 7.43162 12.4015 7.43162C11.798 7.43162 11.3135 7.91688 11.3135 8.52132ZM4.5645 9.61093C3.9695 9.61093 3.4765 9.11717 3.4765 8.52132C3.4765 7.91688 3.961 7.43162 4.5645 7.43162C5.168 7.43162 5.6525 7.91688 5.6525 8.52132C5.6525 9.11717 5.168 9.60243 4.5645 9.61093Z" fill="black"/>
</svg>
