<?xml version="1.0" encoding="UTF-8"?>
<svg id="Layer_3" data-name="Layer 3" xmlns="http://www.w3.org/2000/svg" viewBox="0 0 3000.52 2993.09">
  <path d="m749.84,1465.89c-58.3-13.52-73.63-23.69-73.63-48.79s19.12-38.7,50.78-38.7c46.52,0,58.8,24.12,62.57,46.32h78.61c-5.17-52.78-43.34-104.28-139.15-104.28-85.42,0-132.46,42.71-132.46,105.6,0,48.72,24.28,84.44,122.47,107.49,61.72,14.36,79.11,27.1,79.11,56.47,0,26.42-17.81,42.87-59.46,42.87s-67.76-15.89-75.99-52.12h-78.61c8.65,65.78,56.89,110.88,148.48,110.88s145.24-45.2,145.24-111.09c0-50.88-23.01-89.92-127.96-114.65Z"/>
  <path d="m1035.88,1325.67l-122.53,360.85h76.71l28.15-83.35h131.82l29.66,83.35h82.02l-127.83-360.85h-98Zm-1.28,213.55c20.54-65.06,38.56-121.67,47.46-157.24h.52c8.71,32.43,25.04,81.08,50.66,157.24h-98.64Z"/>
  <path d="m1833.72,1325.67h-143.08v.02h-87.68v-.02h-74.41v-.05h-38.62l.73,175.51,34.21-.02v3.38l-35.97,62.38-36.66,63.57h-.04c-.84,0-1.68-.01-2.51-.04l-36.7-63.49-35.31-61.08v-4.64l35.62-.02-.72-175.55h-50.21v.05h-62.84v212.62c0,120.53,70.18,153.34,151.62,153.34s151.81-31.45,151.81-154.82v-74.57l-32.11-.12,1.48-2.54,30.63-52.62,6.08-10.45,38.2-65.6,37.72,65.88,5.68,9.92,27.05,47.24,4.99,8.72-32.04-.12v223.97h139.79c110.42,0,177.08-79.71,177.08-184.95s-68.69-175.9-173.79-175.9Zm-6.55,297.82h-58.51v-234.79h58.97c70.67,0,99.3,54.11,99.3,113.06,0,70.27-30.58,121.73-99.76,121.73Z"/>
  <path d="m2258.12,1325.67h-98.01l-122.53,360.85h76.71l28.15-83.35h131.82l29.66,83.35h82.03l-127.83-360.85Zm-99.29,213.55c20.54-65.06,38.56-121.67,47.46-157.24h.52c8.71,32.43,25.04,81.08,50.66,157.24h-98.64Z"/>
</svg>