<svg width="17" height="21" viewBox="0 0 17 21" fill="none" xmlns="http://www.w3.org/2000/svg">
<path fill-rule="evenodd" clip-rule="evenodd" d="M14.5403 16.8308V20.1092C14.5405 20.3587 14.3902 20.5837 14.1597 20.6792C13.9292 20.7747 13.6638 20.7219 13.4874 20.5454L12.8297 19.8885L12.172 20.5454C11.9956 20.7219 11.7302 20.7747 11.4997 20.6792C11.2692 20.5837 11.119 20.3587 11.1191 20.1092V16.8308C9.77774 16.0601 9.1232 14.4831 9.52459 12.9891C9.92599 11.4951 11.2827 10.4585 12.8297 10.4638C13.1188 10.4674 13.4063 10.5083 13.685 10.5853V4.47663C13.685 3.0595 12.5362 1.91068 11.1191 1.91068H4.27657C2.85944 1.91068 1.71063 3.0595 1.71063 4.47663V14.7404C1.71063 16.1575 2.85944 17.3063 4.27657 17.3063H8.55313C9.02551 17.3063 9.40845 17.6893 9.40845 18.1616C9.40845 18.634 9.02551 19.017 8.55313 19.017H4.27657C1.91586 19.0141 0.00282777 17.1011 0 14.7404V4.47663C0.00282777 2.11591 1.91586 0.202886 4.27657 0.200058H11.1191C13.4798 0.202886 15.3928 2.11591 15.3956 4.47663V11.6459C16.0742 12.4079 16.372 13.4358 16.206 14.4425C16.0399 15.4493 15.4277 16.3271 14.5403 16.8308ZM11.1191 5.33194H4.27657C3.80419 5.33194 3.42125 4.949 3.42125 4.47663C3.42125 4.00425 3.80419 3.62131 4.27657 3.62131H11.1191C11.5915 3.62131 11.9744 4.00425 11.9744 4.47663C11.9744 4.949 11.5915 5.33194 11.1191 5.33194ZM11.9744 7.89788C11.9744 7.4255 11.5915 7.04257 11.1191 7.04257H4.27657C3.80419 7.04257 3.42125 7.4255 3.42125 7.89788C3.42125 8.37026 3.80419 8.75319 4.27657 8.75319H11.1191C11.5915 8.75319 11.9744 8.37026 11.9744 7.89788ZM6.84251 10.4638C7.31488 10.4638 7.69782 10.8468 7.69782 11.3191C7.69782 11.7915 7.31488 12.1744 6.84251 12.1744H4.27657C3.80419 12.1744 3.42125 11.7915 3.42125 11.3191C3.42125 10.8468 3.80419 10.4638 4.27657 10.4638H6.84251ZM12.8297 12.1744C13.7745 12.1744 14.5403 12.9403 14.5403 13.8851C14.5403 14.8298 13.7745 15.5957 12.8297 15.5957C11.8849 15.5957 11.1191 14.8298 11.1191 13.8851C11.1191 12.9403 11.8849 12.1744 12.8297 12.1744Z" fill="#C9EB49"/>
</svg>
