<svg width="180" height="134" viewBox="0 0 180 134" fill="none" xmlns="http://www.w3.org/2000/svg">
<g clip-path="url(#clip0_0_8551)">
<rect width="180" height="134" rx="16" fill="#F1FAD1"/>
<mask id="mask0_0_8551" style="mask-type:luminance" maskUnits="userSpaceOnUse" x="0" y="0" width="180" height="134">
<rect width="180" height="134" rx="16" fill="white"/>
</mask>
<g mask="url(#mask0_0_8551)">
<path d="M238.409 117.949C214.696 164.889 164.603 206.383 87.9569 227.182C11.3109 247.982 -108.655 257.839 -129.492 217.785C-150.328 177.732 -57.001 87.8877 -12.0599 34.9256C32.8811 -18.0365 41.6756 -29.5462 86.2253 -36.4328C130.775 -43.3195 170.074 -30.2931 201.779 1.8697C233.484 34.0326 262.122 71.0087 238.409 117.949C214.696 164.889 164.603 206.383 87.9569 227.182" stroke="#C9EB49"/>
<path d="M229.181 118.001C206.415 162.787 158.566 202.501 85.5353 222.627C12.5047 242.752 -101.706 252.645 -121.366 214.603C-141.026 176.562 -51.8269 90.6366 -8.83276 40.0273C34.1614 -10.582 42.5798 -21.5762 85.006 -28.3212C127.432 -35.0661 164.777 -22.8322 194.813 7.65153C224.85 38.1352 251.947 73.214 229.181 118.001C206.415 162.787 158.566 202.501 85.5353 222.627" stroke="#C9EB49"/>
<path d="M220.732 118.596C199.093 161.223 153.563 198.996 84.0342 218.093C14.5054 237.19 -94.2485 246.506 -113.006 210.263C-131.763 174.02 -46.8976 92.2809 -6.00072 44.1283C34.8962 -4.02428 42.903 -14.4857 83.2994 -20.8695C123.696 -27.2533 159.27 -15.5693 187.902 13.4861C216.534 42.5415 242.372 75.9698 220.732 118.596C199.093 161.223 153.563 198.996 84.0342 218.093" stroke="#C9EB49"/>
<path d="M213.594 119.275C192.991 159.835 149.664 195.788 83.5142 213.984C17.3648 232.179 -86.0949 241.085 -103.924 206.614C-121.752 172.144 -40.9882 94.3498 -2.06404 48.525C36.8601 2.70027 44.4811 -7.25507 82.9122 -13.3444C121.343 -19.4338 155.18 -8.33309 182.405 19.2961C209.63 46.9252 234.196 78.7156 213.594 119.275C192.991 159.835 149.664 195.788 83.5142 213.984" stroke="#C9EB49"/>
<path d="M205.145 119.871C185.67 158.271 144.661 192.283 82.0131 209.45C19.3655 226.618 -78.6376 234.946 -95.5637 202.274C-112.49 169.602 -36.0589 95.9942 0.767985 52.6261C37.5949 9.25797 44.8043 -0.164537 81.2056 -5.89276C117.607 -11.621 149.674 -1.07021 175.494 25.1306C201.315 51.3315 224.62 81.4713 205.145 119.871C185.67 158.271 144.661 192.283 82.0131 209.45" stroke="#C9EB49"/>
<path d="M197.52 121.054C179.262 157.2 140.688 189.151 81.6645 205.163C22.6411 221.176 -69.7432 228.758 -85.7923 197.912C-101.841 167.066 -29.9764 97.8839 4.6289 57.1013C39.2342 16.3187 46.0061 7.45582 80.3132 2.15549C114.62 -3.14484 144.885 6.88928 169.303 31.6598C193.721 56.4302 215.778 84.9072 197.52 121.054C179.262 157.2 140.688 189.151 81.6645 205.163" stroke="#C9EB49"/>
<path d="M188.272 122.477C171.051 156.557 134.68 186.687 79.0356 201.798C23.3916 216.908 -63.6985 224.082 -78.8191 195.007C-93.9397 165.933 -26.1758 100.697 6.4567 62.2421C39.0892 23.7873 45.4753 15.4305 77.817 10.4246C110.159 5.41867 138.686 14.8695 161.697 38.2137C184.709 61.558 205.493 88.3969 188.272 122.477C171.051 156.557 134.68 186.687 79.0356 201.798" stroke="#C9EB49"/>
<path d="M181.724 122.545C165.449 154.652 131.165 183.081 78.7775 197.417C26.3905 211.753 -55.5677 218.685 -69.7341 191.356C-83.9005 164.028 -20.0054 102.496 10.7788 66.2399C41.563 29.9841 47.589 22.1066 78.0299 17.3284C108.471 12.5502 135.292 21.3844 156.895 43.3045C178.498 65.2245 197.998 90.4379 181.724 122.545C165.449 154.652 131.165 183.081 78.7775 197.417" stroke="#C9EB49"/>
<path d="M173.401 123.054C158.299 152.864 126.47 179.253 77.8251 192.547C29.1803 205.842 -46.9286 212.251 -60.0938 186.868C-73.259 161.484 -13.9435 104.366 14.632 70.708C43.2075 37.0502 48.801 29.737 77.0685 25.3103C105.336 20.8836 130.247 29.0966 150.316 49.4599C170.385 69.8231 188.503 93.2439 173.401 123.054C158.299 152.864 126.47 179.253 77.8251 192.547" stroke="#C9EB49"/>
<path d="M164.744 123.866C150.588 151.702 120.846 176.391 75.4581 188.911C30.0703 201.431 -40.9067 207.598 -53.1177 183.96C-65.3287 160.323 -9.88188 106.909 16.8452 75.4498C43.5724 43.991 48.8058 37.1571 75.1725 32.9581C101.539 28.7591 124.744 36.3555 143.405 55.2946C162.066 74.2337 178.9 96.0289 164.744 123.866C150.588 151.702 120.846 176.391 75.4581 188.911" stroke="#C9EB49"/>
<path d="M156.424 125.767C143.486 151.351 116.178 173.979 74.4149 185.343C32.6513 196.708 -32.7069 202.13 -44.0409 180.317C-55.3749 158.505 -4.49392 109.518 20.0116 80.6444C44.5171 51.7711 49.3131 45.4968 73.5855 41.7257C97.8579 37.9546 119.261 45.0344 136.519 62.5431C153.777 80.0518 169.363 100.184 156.424 125.767C143.486 151.351 116.178 173.979 74.4149 185.343" stroke="#C9EB49"/>
<path d="M149.261 125.033C137.359 148.549 112.254 169.357 73.8702 179.82C35.486 190.283 -24.5779 195.295 -34.9835 175.255C-45.389 155.215 1.39089 110.173 23.9236 83.6272C46.4563 57.0817 50.8665 51.3135 73.1736 47.8368C95.4806 44.3601 115.146 50.8566 130.998 66.939C146.849 83.0215 161.162 101.516 149.261 125.033C137.359 148.549 112.254 169.357 73.8702 179.82" stroke="#C9EB49"/>
<path d="M141.531 126.323C130.757 147.68 107.971 166.546 73.0884 175.981C38.206 185.416 -16.4014 189.851 -25.9042 171.609C-35.4071 153.368 7.03935 112.512 27.4749 88.4228C47.9104 64.334 51.9089 59.0986 72.1862 55.9831C92.4635 52.8676 110.359 58.8141 124.806 73.4683C139.253 88.1224 152.306 104.966 141.531 126.323C130.757 147.68 107.971 166.546 73.0884 175.981" stroke="#C9EB49"/>
<path d="M132.284 127.746C122.546 147.036 101.963 164.082 70.4598 172.615C38.9567 181.148 -10.3564 185.174 -18.9308 168.705C-27.5051 152.236 10.8402 115.325 29.3029 93.5636C47.7656 71.8026 51.3784 67.0733 69.6903 64.2522C88.0023 61.4311 104.16 66.7943 117.2 80.0223C130.241 93.2502 142.021 108.456 132.284 127.746C122.546 147.036 101.963 164.082 70.4598 172.615" stroke="#C9EB49"/>
<path d="M124.555 129.037C115.944 146.167 97.6794 161.272 69.6782 168.777C41.6769 176.281 -2.1797 179.73 -9.85131 165.059C-17.5229 150.389 16.4889 117.664 32.8544 98.3593C49.2199 79.055 52.421 74.8585 68.7032 72.3985C84.9854 69.9386 99.3731 74.7519 111.009 86.5515C122.645 98.3511 133.165 111.906 124.555 129.037C115.944 146.167 97.6794 161.272 69.6782 168.777" stroke="#C9EB49"/>
<path d="M116.254 129.567C108.771 144.357 92.9827 157.441 68.8417 164.019C44.7007 170.596 6.92383 173.744 0.377568 161.139C-6.16869 148.534 23.2499 120.209 37.4197 103.515C51.5895 86.821 54.3628 83.1935 68.3926 81.0087C82.4224 78.8239 94.7915 82.9115 104.763 93.0278C114.734 103.144 123.738 114.777 116.254 129.567C108.771 144.357 92.9827 157.441 68.8417 164.019" stroke="#C9EB49"/>
<path d="M109.706 129.635C103.169 142.451 89.4674 153.835 68.5834 159.638C47.6994 165.441 15.0544 168.347 9.46231 157.488C3.87026 146.628 29.4201 122.007 41.7415 107.513C54.063 93.0178 56.4763 89.8696 68.6052 87.9125C80.7341 85.9554 91.3976 89.4263 99.9602 98.1185C108.523 106.811 116.242 116.818 109.706 129.635C103.169 142.451 89.4674 153.835 68.5834 159.638" stroke="#C9EB49"/>
<path d="M100.667 130.842C95.3469 141.405 84.0804 150.728 66.8206 155.376C49.5609 160.023 22.5347 162.184 17.8196 153.15C13.1046 144.116 34.0886 123.922 44.1884 112.013C54.2882 100.103 56.264 97.5146 66.2987 95.9854C76.3334 94.4562 85.1948 97.4105 92.3548 104.672C99.5147 111.934 105.986 120.279 100.667 130.842C95.3469 141.405 84.0804 150.728 66.8206 155.376" stroke="#C9EB49"/>
<path d="M92.1355 131.567C87.8076 140.02 78.7647 147.543 65.0023 151.403C51.2399 155.263 29.7385 157.237 26.076 150.095C22.4136 142.953 39.2828 126.69 47.4228 117.121C55.5628 107.552 57.1577 105.475 65.1479 104.163C73.1381 102.852 80.1536 105.119 85.776 110.828C91.3984 116.537 96.4633 123.114 92.1355 131.567C87.8076 140.02 78.7647 147.543 65.0023 151.403" stroke="#C9EB49"/>
<path d="M84.4062 132.858C81.2055 139.151 74.4813 144.733 64.2207 147.564C53.9601 150.396 37.9152 151.792 35.1555 146.449C32.3958 141.106 44.9315 129.029 50.9743 121.917C57.0171 114.805 58.2003 113.26 64.1608 112.31C70.1212 111.36 75.3667 113.076 79.5845 117.357C83.8023 121.638 87.607 126.564 84.4062 132.858C81.2055 139.151 74.4813 144.733 64.2207 147.564" stroke="#C9EB49"/>
<path d="M76.5481 132.842C74.3842 137.069 69.8627 140.83 62.9815 142.76C56.1003 144.69 45.3496 145.677 43.5184 142.106C41.6872 138.535 50.1218 130.404 54.1917 125.619C58.2617 120.835 59.0592 119.796 63.0543 119.14C67.0494 118.485 70.5571 119.618 73.3683 122.472C76.1795 125.327 78.712 128.615 76.5481 132.842C74.3842 137.069 69.8627 140.83 62.9815 142.76" stroke="#C9EB49"/>
<path d="M68.8186 134.132C67.7817 136.199 65.579 138.02 62.1997 138.921C58.8203 139.823 53.5261 140.232 52.5976 138.46C51.6691 136.688 55.7702 132.743 57.743 130.415C59.7158 128.087 60.1016 127.581 62.0669 127.287C64.0323 126.992 65.77 127.575 67.1766 129.002C68.5832 130.428 69.8555 132.066 68.8186 134.132C67.7817 136.199 65.579 138.02 62.1997 138.921" stroke="#C9EB49"/>
</g>
<path d="M39.1484 14.0415C39.3431 14.1763 39.3431 14.3822 39.1484 14.6592C39.1335 14.6816 39.0736 14.764 38.9688 14.9062C38.8714 15.041 38.8003 15.1421 38.7554 15.2095C38.7179 15.2694 38.6506 15.3704 38.5532 15.5127C38.4634 15.6475 38.396 15.7598 38.3511 15.8496C38.3062 15.932 38.2537 16.033 38.1938 16.1528C38.134 16.2651 38.089 16.37 38.0591 16.4673C38.0291 16.5571 38.0104 16.6432 38.0029 16.7256C38.3324 16.793 38.6056 16.9577 38.8228 17.2197C39.0399 17.4818 39.1484 17.7775 39.1484 18.1069C39.1484 18.4963 39.0099 18.8294 38.7329 19.1064C38.4559 19.376 38.119 19.5107 37.7222 19.5107C37.2954 19.5107 36.9435 19.376 36.6665 19.1064C36.397 18.8294 36.2585 18.4663 36.251 18.0171C36.2435 17.5379 36.3633 17.0737 36.6104 16.6245C36.8649 16.1678 37.4526 15.3442 38.3735 14.1538C38.5981 13.8468 38.8265 13.7757 39.0586 13.9404L39.1484 14.0415ZM42.5737 14.0415C42.7609 14.1838 42.7609 14.3896 42.5737 14.6592C42.5588 14.6816 42.4989 14.764 42.394 14.9062C42.2967 15.041 42.2256 15.1421 42.1807 15.2095C42.1432 15.2694 42.0758 15.3704 41.9785 15.5127C41.8887 15.6475 41.8213 15.7598 41.7764 15.8496C41.7314 15.932 41.679 16.033 41.6191 16.1528C41.5592 16.2651 41.5143 16.37 41.4844 16.4673C41.4544 16.5571 41.4357 16.6432 41.4282 16.7256C41.7576 16.793 42.0309 16.9577 42.248 17.2197C42.4652 17.4818 42.5737 17.7775 42.5737 18.1069C42.5737 18.4963 42.4315 18.8294 42.147 19.1064C41.87 19.376 41.5368 19.5107 41.1475 19.5107C40.7132 19.5107 40.3613 19.376 40.0918 19.1064C39.8298 18.8294 39.6912 18.4663 39.6763 18.0171C39.6688 17.5304 39.7886 17.0588 40.0356 16.6021C40.2902 16.1453 40.8779 15.3293 41.7988 14.1538C42.0234 13.8468 42.2518 13.7757 42.4839 13.9404L42.5737 14.0415ZM46.5605 30C46.2161 30 45.9466 29.9064 45.752 29.7192C45.5648 29.5321 45.4712 29.2663 45.4712 28.9219V16.1304C45.4712 15.786 45.5648 15.5202 45.752 15.333C45.9466 15.1458 46.2161 15.0522 46.5605 15.0522H52.2319C54.6427 15.0522 56.5557 15.7336 57.9707 17.0962C59.3932 18.4513 60.1045 20.252 60.1045 22.498C60.1045 24.7666 59.3932 26.5859 57.9707 27.9561C56.5557 29.3187 54.6427 30 52.2319 30H46.5605ZM49.5254 26.7095H52.0747C53.2502 26.7095 54.1973 26.3389 54.916 25.5977C55.6423 24.849 56.0054 23.8232 56.0054 22.5205C56.0054 21.2178 55.6423 20.1958 54.916 19.4546C54.1973 18.7134 53.2502 18.3428 52.0747 18.3428H49.5254V26.7095ZM64.1362 16.6133C63.4774 16.6133 62.9121 16.3812 62.4404 15.917C61.9762 15.4453 61.7441 14.88 61.7441 14.2212C61.7441 13.5549 61.9762 12.9896 62.4404 12.5254C62.9121 12.0612 63.4774 11.8291 64.1362 11.8291C64.8026 11.8291 65.3678 12.0612 65.832 12.5254C66.2962 12.9896 66.5283 13.5549 66.5283 14.2212C66.5283 14.88 66.2962 15.4453 65.832 15.917C65.3678 16.3812 64.8026 16.6133 64.1362 16.6133ZM65.6299 30.3032C64.4694 30.3032 63.5934 30 63.002 29.3936C62.4105 28.7871 62.1147 27.8924 62.1147 26.7095V19.4434C62.1147 19.1139 62.2083 18.8556 62.3955 18.6685C62.5827 18.4813 62.841 18.3877 63.1704 18.3877H65.0571C65.3866 18.3877 65.6449 18.4813 65.832 18.6685C66.0192 18.8556 66.1128 19.1139 66.1128 19.4434V26.3613C66.1128 26.5111 66.1278 26.6234 66.1577 26.6982C66.1951 26.7656 66.2738 26.7993 66.3936 26.7993C66.4684 26.7993 66.6107 26.7694 66.8203 26.7095C67.0225 26.6496 67.1872 26.6683 67.3145 26.7656C67.4492 26.863 67.5615 27.0576 67.6514 27.3496L68.0669 28.7534C68.1343 29.0828 68.138 29.3112 68.0781 29.4385C68.0257 29.5658 67.891 29.693 67.6738 29.8203C67.0674 30.1423 66.3861 30.3032 65.6299 30.3032ZM74.0527 30.3257C73.0944 30.3257 72.1735 30.1647 71.29 29.8428C70.4066 29.5133 69.7178 29.1203 69.2236 28.6636C68.9466 28.409 68.7969 28.1694 68.7744 27.9448C68.752 27.7202 68.8717 27.4469 69.1338 27.125L69.6841 26.4624C69.8488 26.2603 70.021 26.133 70.2007 26.0806C70.3879 26.0207 70.5563 26.0169 70.7061 26.0693C70.8633 26.1217 71.0355 26.2116 71.2227 26.3389C72.151 27.0127 73.1019 27.3496 74.0752 27.3496C74.4196 27.3496 74.6854 27.2897 74.8726 27.1699C75.0597 27.0501 75.1533 26.8817 75.1533 26.6646C75.1533 26.5597 75.1234 26.4624 75.0635 26.3726C75.0036 26.2752 74.9362 26.1966 74.8613 26.1367C74.7865 26.0693 74.6742 26.002 74.5244 25.9346C74.3747 25.8597 74.2474 25.8035 74.1426 25.7661C74.0452 25.7287 73.8993 25.6763 73.7046 25.6089C73.3302 25.4966 73.0308 25.403 72.8062 25.3281C72.5815 25.2533 72.297 25.1484 71.9526 25.0137C71.6157 24.8789 71.3387 24.7479 71.1216 24.6206C70.9119 24.4933 70.6836 24.3324 70.4365 24.1377C70.1895 23.943 69.9948 23.7371 69.8525 23.52C69.7103 23.3029 69.5905 23.0483 69.4932 22.7563C69.4033 22.4644 69.3584 22.1499 69.3584 21.813C69.3584 20.6974 69.7852 19.814 70.6387 19.1626C71.4922 18.5037 72.6377 18.1743 74.0752 18.1743C74.8838 18.1743 75.6849 18.2979 76.4785 18.5449C77.2796 18.792 77.8898 19.0915 78.3091 19.4434C78.5861 19.6829 78.7321 19.915 78.7471 20.1396C78.762 20.3643 78.6385 20.6525 78.3765 21.0044L77.8936 21.5996C77.5117 22.0938 77.0213 22.1574 76.4224 21.7905C75.7111 21.2814 74.9437 21.0269 74.1201 21.0269C73.8057 21.0269 73.5586 21.0868 73.3789 21.2065C73.1992 21.3188 73.1094 21.4686 73.1094 21.6558C73.1094 21.7681 73.1431 21.8691 73.2104 21.959C73.2853 22.0413 73.4089 22.1237 73.5811 22.2061C73.7607 22.2884 73.9292 22.3595 74.0864 22.4194C74.2511 22.4718 74.4907 22.5542 74.8052 22.6665C75.1271 22.7713 75.3966 22.8612 75.6138 22.936C76.1304 23.1382 76.5721 23.3441 76.939 23.5537C77.3058 23.7633 77.6465 24.0142 77.9609 24.3062C78.2754 24.5907 78.5112 24.9276 78.6685 25.3169C78.8257 25.6987 78.9043 26.133 78.9043 26.6196C78.9043 27.7651 78.4588 28.6711 77.5679 29.3374C76.6844 29.9963 75.5127 30.3257 74.0527 30.3257ZM86.5859 30.3032C84.7741 30.3032 83.2729 29.7305 82.0825 28.585C80.8996 27.4395 80.3081 25.9945 80.3081 24.25C80.3081 22.5055 80.8996 21.0605 82.0825 19.915C83.2729 18.7695 84.7741 18.1968 86.5859 18.1968C88.4053 18.1968 89.9251 18.7957 91.1455 19.9937C91.5273 20.3979 91.5199 20.7985 91.123 21.1953L89.8989 22.4082C89.7118 22.5804 89.5358 22.674 89.3711 22.689C89.2139 22.6965 88.993 22.5879 88.7085 22.3633C88.1545 21.8542 87.5031 21.5996 86.7544 21.5996C86.0207 21.5996 85.418 21.8504 84.9463 22.3521C84.4821 22.8537 84.25 23.4863 84.25 24.25C84.25 25.0137 84.4821 25.6501 84.9463 26.1592C85.4105 26.6683 86.0132 26.9229 86.7544 26.9229C87.4881 26.9229 88.1395 26.6608 88.7085 26.1367C88.993 25.9121 89.2139 25.8073 89.3711 25.8223C89.5358 25.8298 89.7118 25.9196 89.8989 26.0918L91.123 27.3047C91.5199 27.7015 91.5273 28.1021 91.1455 28.5063C89.9251 29.7043 88.4053 30.3032 86.5859 30.3032ZM98.8159 30.3032C96.9591 30.3032 95.4243 29.7305 94.2114 28.585C92.9985 27.432 92.3921 25.987 92.3921 24.25C92.3921 22.513 92.9985 21.0718 94.2114 19.9263C95.4243 18.7733 96.9591 18.1968 98.8159 18.1968C100.044 18.1968 101.144 18.4588 102.118 18.9829C103.098 19.507 103.862 20.2295 104.409 21.1504C104.955 22.0713 105.229 23.1045 105.229 24.25C105.229 25.3955 104.955 26.4287 104.409 27.3496C103.862 28.2705 103.098 28.993 102.118 29.5171C101.144 30.0412 100.044 30.3032 98.8159 30.3032ZM97.019 26.1479C97.4982 26.6496 98.0972 26.9004 98.8159 26.9004C99.5347 26.9004 100.126 26.6496 100.59 26.1479C101.062 25.6463 101.298 25.0137 101.298 24.25C101.298 23.4863 101.062 22.8537 100.59 22.3521C100.126 21.8504 99.5347 21.5996 98.8159 21.5996C98.0972 21.5996 97.4982 21.8504 97.019 22.3521C96.5474 22.8537 96.3115 23.4863 96.3115 24.25C96.3115 25.0137 96.5474 25.6463 97.019 26.1479ZM113.629 30.3032C112.813 30.3032 112.06 30.1909 111.372 29.9663C110.69 29.7342 110.088 29.3936 109.563 28.9443C109.047 28.4876 108.639 27.8962 108.339 27.1699C108.047 26.4437 107.901 25.6089 107.901 24.6655V22.0151C107.901 21.8055 107.819 21.7007 107.654 21.7007C107.579 21.7007 107.452 21.7344 107.272 21.8018C107.1 21.8617 106.973 21.8953 106.891 21.9028C106.606 21.9328 106.408 21.7194 106.295 21.2627L105.97 19.7466C105.902 19.4696 105.899 19.2637 105.958 19.1289C106.018 18.9941 106.176 18.8706 106.43 18.7583C107.216 18.384 107.969 18.1968 108.688 18.1968C109.736 18.1968 110.529 18.4888 111.068 19.0728C111.607 19.6567 111.877 20.5103 111.877 21.6333V25.1709C111.877 25.7474 112.03 26.2153 112.337 26.5747C112.644 26.9266 113.082 27.1025 113.651 27.1025C114.243 27.1025 114.707 26.8517 115.044 26.3501C115.388 25.841 115.561 25.141 115.561 24.25C115.561 23.4564 115.471 22.6927 115.291 21.959C115.119 21.2178 114.917 20.6263 114.685 20.1846C114.572 19.945 114.494 19.7541 114.449 19.6118C114.404 19.4621 114.385 19.3049 114.393 19.1401C114.408 18.9754 114.479 18.8257 114.606 18.6909C114.733 18.5562 114.92 18.4176 115.167 18.2754L116.043 17.7588C116.53 17.4967 116.927 17.4144 117.234 17.5117C117.541 17.6016 117.825 17.8786 118.087 18.3428C119.091 19.9824 119.592 21.798 119.592 23.7896C119.592 24.6805 119.461 25.519 119.199 26.3052C118.937 27.0838 118.559 27.7726 118.065 28.3716C117.578 28.9705 116.953 29.4422 116.189 29.7866C115.426 30.131 114.572 30.3032 113.629 30.3032ZM124.848 25.1035C124.938 25.8447 125.264 26.425 125.825 26.8442C126.387 27.2635 127.061 27.4731 127.847 27.4731C128.685 27.4731 129.505 27.1961 130.306 26.6421C130.463 26.5223 130.598 26.4362 130.71 26.3838C130.823 26.3314 130.946 26.3201 131.081 26.3501C131.216 26.38 131.354 26.4699 131.497 26.6196L132.283 27.4282C132.68 27.8101 132.694 28.1994 132.328 28.5962C131.826 29.1278 131.115 29.547 130.194 29.854C129.273 30.1535 128.337 30.3032 127.386 30.3032C125.537 30.3032 124.01 29.738 122.804 28.6074C121.606 27.4694 121.007 26.0094 121.007 24.2275C121.007 23.082 121.269 22.0526 121.793 21.1392C122.318 20.2183 123.051 19.4995 123.995 18.9829C124.938 18.4588 126.005 18.1968 127.195 18.1968C128.094 18.1968 128.914 18.3428 129.655 18.6348C130.403 18.9268 131.032 19.3273 131.542 19.8364C132.073 20.368 132.485 20.9969 132.777 21.7231C133.076 22.4494 133.226 23.2056 133.226 23.9917C133.226 24.411 133.151 24.703 133.001 24.8677C132.859 25.0249 132.582 25.1035 132.17 25.1035H124.848ZM127.105 20.937C126.492 20.937 125.986 21.113 125.589 21.4648C125.2 21.8167 124.964 22.2996 124.882 22.9136H129.363C129.273 22.3595 129.06 21.9141 128.723 21.5771C128.296 21.1504 127.757 20.937 127.105 20.937ZM144.198 18.4551C144.445 18.5374 144.621 18.6497 144.726 18.792C144.838 18.9268 144.853 19.1439 144.771 19.4434L144.333 21.1729C144.251 21.4798 144.12 21.682 143.94 21.7793C143.768 21.8691 143.569 21.8729 143.345 21.7905C142.858 21.6333 142.465 21.5547 142.166 21.5547C141.499 21.5547 140.983 21.7568 140.616 22.1611C140.256 22.5654 140.077 23.1157 140.077 23.812V28.9443C140.077 29.2812 139.983 29.5433 139.796 29.7305C139.616 29.9102 139.358 30 139.021 30H137.134C136.805 30 136.547 29.9064 136.359 29.7192C136.172 29.5321 136.079 29.2738 136.079 28.9443V22.0151C136.079 21.8055 136 21.7007 135.843 21.7007C135.768 21.7007 135.644 21.7344 135.472 21.8018C135.3 21.8617 135.173 21.8953 135.09 21.9028C134.978 21.9178 134.862 21.8804 134.742 21.7905C134.63 21.6932 134.544 21.5173 134.484 21.2627L134.169 19.7466C134.087 19.4471 134.08 19.2113 134.147 19.0391C134.214 18.8669 134.375 18.7171 134.63 18.5898C135.117 18.3278 135.689 18.1968 136.348 18.1968C136.992 18.1968 137.569 18.3353 138.078 18.6123C138.587 18.8818 138.961 19.3049 139.201 19.8813C139.987 18.7583 141.099 18.1968 142.536 18.1968C143.09 18.1968 143.644 18.2829 144.198 18.4551ZM42.5176 49.5898C42.8021 49.7471 42.862 50.0166 42.6973 50.3984L42.6299 50.623C42.4652 50.9899 42.2144 51.0985 41.8774 50.9487C41.6678 50.8589 41.4919 50.814 41.3496 50.814C41.1025 50.814 40.979 50.96 40.979 51.252V60.0117C40.979 60.9176 40.8218 61.7188 40.5073 62.415C40.2004 63.1188 39.7773 63.6803 39.2383 64.0996C38.6992 64.5189 38.0965 64.8333 37.4302 65.043C36.7638 65.2601 36.0451 65.3687 35.2739 65.3687C34.1584 65.3687 33.1701 65.1665 32.3091 64.7622C31.4556 64.3654 30.6732 63.7552 29.9619 62.9316C29.6699 62.5723 29.7148 62.2428 30.0967 61.9434L30.2876 61.7861C30.647 61.5241 30.9614 61.554 31.231 61.876C31.7476 62.5199 32.3241 62.999 32.9604 63.3135C33.5968 63.6279 34.3755 63.7852 35.2964 63.7852C36.4569 63.7852 37.3927 63.4707 38.104 62.8418C38.8228 62.2204 39.1821 61.307 39.1821 60.1016V58.4731C38.1639 59.5438 36.8387 60.0791 35.2065 60.0791C33.5819 60.0791 32.2342 59.5588 31.1636 58.5181C30.1004 57.4774 29.5688 56.1896 29.5688 54.6548C29.5688 53.1125 30.1042 51.821 31.1748 50.7803C32.2454 49.7396 33.5968 49.2192 35.229 49.2192C36.8761 49.2192 38.2088 49.7658 39.2271 50.8589C39.2944 50.3348 39.5003 49.9305 39.8447 49.646C40.1891 49.3615 40.6121 49.2192 41.1138 49.2192C41.6903 49.2192 42.1582 49.3428 42.5176 49.5898ZM35.3413 58.4731C36.5093 58.4731 37.4564 58.1213 38.1826 57.4175C38.9089 56.7062 39.272 55.7928 39.272 54.6772C39.272 53.5467 38.9014 52.6221 38.1602 51.9033C37.4264 51.1771 36.4793 50.814 35.3188 50.814C34.1659 50.814 33.2262 51.1733 32.5 51.8921C31.7738 52.6108 31.4106 53.5317 31.4106 54.6548C31.4106 55.7778 31.77 56.695 32.4888 57.4062C33.215 58.1175 34.1659 58.4731 35.3413 58.4731ZM51.2324 49.3652C51.6068 49.4775 51.7303 49.7508 51.603 50.1851L51.502 50.5557C51.3896 50.945 51.1164 51.0835 50.6821 50.9712C50.3976 50.8813 50.1281 50.8364 49.8735 50.8364C49.035 50.8364 48.3724 51.1696 47.8857 51.8359C47.3991 52.5023 47.1558 53.3633 47.1558 54.4189V60.3374C47.1558 60.5396 47.1034 60.7005 46.9985 60.8203C46.8937 60.9401 46.7402 61 46.5381 61H45.9653C45.7707 61 45.6172 60.9401 45.5049 60.8203C45.4001 60.7005 45.3477 60.5396 45.3477 60.3374V51.252C45.3477 50.96 45.2241 50.814 44.9771 50.814C44.8348 50.814 44.6589 50.8589 44.4492 50.9487C44.1048 51.106 43.8503 50.9974 43.6855 50.623L43.6182 50.3984C43.4535 50.0166 43.5133 49.7471 43.7979 49.5898C44.1572 49.3428 44.6252 49.2192 45.2017 49.2192C45.7257 49.2192 46.1525 49.3727 46.4819 49.6797C46.8114 49.9792 46.9985 50.4172 47.0435 50.9937C47.6948 49.8107 48.6981 49.2192 50.0532 49.2192C50.3901 49.2192 50.7832 49.2679 51.2324 49.3652ZM53.9839 55.7554C54.0812 56.9683 54.5342 57.9266 55.3428 58.6304C56.1589 59.3341 57.1172 59.686 58.2178 59.686C59.528 59.686 60.7072 59.2518 61.7554 58.3833C62.1297 58.0688 62.4591 58.0688 62.7437 58.3833L62.9795 58.5854C63.264 58.8849 63.249 59.1919 62.9346 59.5063C62.2982 60.1203 61.5495 60.5695 60.6885 60.854C59.835 61.1385 59.0114 61.2808 58.2178 61.2808C57.1471 61.2808 56.1551 61.0524 55.2417 60.5957C54.3283 60.1315 53.5796 59.439 52.9956 58.5181C52.4116 57.5897 52.1196 56.5153 52.1196 55.2949C52.1196 53.5579 52.6699 52.113 53.7705 50.96C54.8786 49.7995 56.2599 49.2192 57.9146 49.2192C59.5243 49.2192 60.8569 49.7358 61.9126 50.769C62.4741 51.3156 62.9009 51.9595 63.1929 52.7007C63.4924 53.4344 63.6421 54.2093 63.6421 55.0254C63.6421 55.2425 63.5672 55.4185 63.4175 55.5532C63.2752 55.688 63.0881 55.7554 62.856 55.7554H53.9839ZM57.9146 50.814C56.8739 50.814 55.9979 51.1247 55.2866 51.7461C54.5828 52.36 54.1561 53.1911 54.0063 54.2393H61.7778C61.6431 53.266 61.2912 52.4985 60.7222 51.937C60.0558 51.1883 59.12 50.814 57.9146 50.814ZM76.6133 49.3877C76.8079 49.3877 76.9614 49.4476 77.0737 49.5674C77.186 49.6797 77.2422 49.8332 77.2422 50.0278V60.3374C77.2422 60.5396 77.186 60.7005 77.0737 60.8203C76.9614 60.9401 76.8079 61 76.6133 61H76.0854C75.8908 61 75.7373 60.9401 75.625 60.8203C75.5202 60.7005 75.4678 60.5396 75.4678 60.3374V59.439C74.3672 60.6668 72.9784 61.2808 71.3013 61.2808C70.4552 61.2808 69.6691 61.1235 68.9429 60.8091C68.2166 60.4871 67.599 60.0566 67.0898 59.5176C66.5882 58.9785 66.1951 58.3384 65.9106 57.5972C65.6261 56.856 65.4839 56.0736 65.4839 55.25C65.4839 54.1344 65.7235 53.12 66.2026 52.2065C66.6893 51.2931 67.3781 50.5669 68.269 50.0278C69.1675 49.4888 70.1782 49.2192 71.3013 49.2192C72.9484 49.2192 74.3372 49.7957 75.4678 50.9487V50.0278C75.4678 49.8332 75.5202 49.6797 75.625 49.5674C75.7373 49.4476 75.8908 49.3877 76.0854 49.3877H76.6133ZM71.4922 59.6411C72.6676 59.6411 73.6447 59.2593 74.4233 58.4956C75.2095 57.7244 75.6025 56.6426 75.6025 55.25C75.6025 54.3066 75.4116 53.498 75.0298 52.8242C74.6479 52.1429 74.1501 51.645 73.5361 51.3306C72.9297 51.0161 72.2484 50.8589 71.4922 50.8589C70.2493 50.8589 69.2424 51.2856 68.4712 52.1392C67.7075 52.9852 67.3257 54.0221 67.3257 55.25C67.3257 56.4779 67.7075 57.5186 68.4712 58.3721C69.2424 59.2181 70.2493 59.6411 71.4922 59.6411ZM87.0576 59.7534C87.2673 60.0903 87.1587 60.3898 86.7319 60.6519C86.118 61.0711 85.4142 61.2808 84.6206 61.2808C83.5799 61.2808 82.7451 60.9626 82.1162 60.3262C81.4873 59.6898 81.1729 58.7801 81.1729 57.5972V50.9038H79.8813C79.6792 50.9038 79.5182 50.8514 79.3984 50.7466C79.2861 50.6343 79.23 50.4808 79.23 50.2861V50.0054C79.23 49.8107 79.2861 49.661 79.3984 49.5562C79.5182 49.4438 79.6792 49.3877 79.8813 49.3877H81.1729V46.1646C81.1729 45.8351 81.3787 45.6143 81.7905 45.502L82.2734 45.3784C82.7451 45.2511 82.981 45.4608 82.981 46.0073V49.3877H85.9009C86.1105 49.3877 86.2752 49.4438 86.395 49.5562C86.5148 49.661 86.5747 49.8107 86.5747 50.0054V50.2861C86.5747 50.4808 86.5148 50.6343 86.395 50.7466C86.2752 50.8514 86.1105 50.9038 85.9009 50.9038H82.981V57.5298C82.981 58.256 83.1419 58.7951 83.4639 59.147C83.7858 59.4914 84.2313 59.6636 84.8003 59.6636C85.1447 59.6636 85.5452 59.5326 86.002 59.2705C86.3913 59.0384 86.6982 59.117 86.9229 59.5063L87.0576 59.7534ZM107.126 60.1016C107.306 60.4759 107.254 60.7454 106.969 60.9102C106.595 61.1572 106.119 61.2808 105.543 61.2808C105.011 61.2808 104.573 61.1198 104.229 60.7979C103.892 60.4759 103.701 60.0229 103.656 59.439C102.556 60.6668 101.167 61.2808 99.4897 61.2808C98.6437 61.2808 97.8576 61.1235 97.1313 60.8091C96.4051 60.4871 95.7874 60.0566 95.2783 59.5176C94.7767 58.9785 94.3836 58.3384 94.0991 57.5972C93.8146 56.856 93.6724 56.0736 93.6724 55.25C93.6724 54.1344 93.9119 53.12 94.3911 52.2065C94.8778 51.2931 95.5666 50.5669 96.4575 50.0278C97.356 49.4888 98.3667 49.2192 99.4897 49.2192C101.137 49.2192 102.511 49.7808 103.611 50.9038V45.3784C103.611 45.0415 103.81 44.8206 104.207 44.7158L104.689 44.6035C105.184 44.4762 105.431 44.6821 105.431 45.2212V59.248C105.431 59.4053 105.457 59.5213 105.509 59.5962C105.562 59.6711 105.655 59.7085 105.79 59.7085C105.917 59.7085 106.086 59.6636 106.295 59.5737C106.625 59.4165 106.879 59.5251 107.059 59.8994L107.126 60.1016ZM99.6807 59.6411C100.856 59.6411 101.833 59.2593 102.612 58.4956C103.398 57.7244 103.791 56.6426 103.791 55.25C103.791 54.3066 103.6 53.498 103.218 52.8242C102.836 52.1429 102.339 51.645 101.725 51.3306C101.118 51.0161 100.437 50.8589 99.6807 50.8589C98.4378 50.8589 97.4308 51.2856 96.6597 52.1392C95.896 52.9852 95.5142 54.0221 95.5142 55.25C95.5142 56.4779 95.896 57.5186 96.6597 58.3721C97.4308 59.2181 98.4378 59.6411 99.6807 59.6411ZM110.406 55.7554C110.503 56.9683 110.956 57.9266 111.765 58.6304C112.581 59.3341 113.539 59.686 114.64 59.686C115.95 59.686 117.129 59.2518 118.177 58.3833C118.552 58.0688 118.881 58.0688 119.166 58.3833L119.401 58.5854C119.686 58.8849 119.671 59.1919 119.356 59.5063C118.72 60.1203 117.971 60.5695 117.11 60.854C116.257 61.1385 115.433 61.2808 114.64 61.2808C113.569 61.2808 112.577 61.0524 111.664 60.5957C110.75 60.1315 110.001 59.439 109.417 58.5181C108.833 57.5897 108.542 56.5153 108.542 55.2949C108.542 53.5579 109.092 52.113 110.192 50.96C111.3 49.7995 112.682 49.2192 114.336 49.2192C115.946 49.2192 117.279 49.7358 118.334 50.769C118.896 51.3156 119.323 51.9595 119.615 52.7007C119.914 53.4344 120.064 54.2093 120.064 55.0254C120.064 55.2425 119.989 55.4185 119.839 55.5532C119.697 55.688 119.51 55.7554 119.278 55.7554H110.406ZM114.336 50.814C113.296 50.814 112.42 51.1247 111.708 51.7461C111.005 52.36 110.578 53.1911 110.428 54.2393H118.2C118.065 53.266 117.713 52.4985 117.144 51.937C116.478 51.1883 115.542 50.814 114.336 50.814ZM133.035 49.3877C133.23 49.3877 133.383 49.4476 133.496 49.5674C133.608 49.6797 133.664 49.8332 133.664 50.0278V60.3374C133.664 60.5396 133.608 60.7005 133.496 60.8203C133.383 60.9401 133.23 61 133.035 61H132.507C132.313 61 132.159 60.9401 132.047 60.8203C131.942 60.7005 131.89 60.5396 131.89 60.3374V59.439C130.789 60.6668 129.4 61.2808 127.723 61.2808C126.877 61.2808 126.091 61.1235 125.365 60.8091C124.639 60.4871 124.021 60.0566 123.512 59.5176C123.01 58.9785 122.617 58.3384 122.333 57.5972C122.048 56.856 121.906 56.0736 121.906 55.25C121.906 54.1344 122.145 53.12 122.625 52.2065C123.111 51.2931 123.8 50.5669 124.691 50.0278C125.589 49.4888 126.6 49.2192 127.723 49.2192C129.37 49.2192 130.759 49.7957 131.89 50.9487V50.0278C131.89 49.8332 131.942 49.6797 132.047 49.5674C132.159 49.4476 132.313 49.3877 132.507 49.3877H133.035ZM127.914 59.6411C129.09 59.6411 130.067 59.2593 130.845 58.4956C131.631 57.7244 132.024 56.6426 132.024 55.25C132.024 54.3066 131.833 53.498 131.452 52.8242C131.07 52.1429 130.572 51.645 129.958 51.3306C129.352 51.0161 128.67 50.8589 127.914 50.8589C126.671 50.8589 125.664 51.2856 124.893 52.1392C124.129 52.9852 123.748 54.0221 123.748 55.25C123.748 56.4779 124.129 57.5186 124.893 58.3721C125.664 59.2181 126.671 59.6411 127.914 59.6411ZM139.178 61.2808C138.594 61.2808 138.126 61.1048 137.774 60.7529C137.423 60.3936 137.247 59.8844 137.247 59.2256V45.3784C137.247 45.049 137.452 44.8281 137.864 44.7158L138.347 44.6035C138.826 44.4762 139.066 44.6821 139.066 45.2212V59.2256C139.066 59.5326 139.193 59.686 139.448 59.686C139.56 59.686 139.721 59.6411 139.931 59.5513C140.26 59.409 140.522 59.5251 140.717 59.8994L140.784 60.1016C140.956 60.4609 140.904 60.7305 140.627 60.9102C140.253 61.1572 139.77 61.2808 139.178 61.2808ZM146.377 61.2808C145.606 61.2808 144.835 61.1235 144.063 60.8091C143.292 60.4871 142.66 60.0304 142.166 59.439C141.874 59.0496 141.889 58.7277 142.21 58.4731L142.368 58.3047C142.487 58.2074 142.592 58.14 142.682 58.1025C142.779 58.0576 142.884 58.0539 142.997 58.0913C143.116 58.1213 143.236 58.1999 143.356 58.3271C144.165 59.2331 145.138 59.686 146.276 59.686C146.987 59.686 147.56 59.5363 147.994 59.2368C148.428 58.9373 148.646 58.5368 148.646 58.0352C148.646 57.7357 148.582 57.4699 148.455 57.2378C148.335 57.0057 148.14 56.7998 147.871 56.6201C147.609 56.4404 147.35 56.2907 147.096 56.1709C146.849 56.0511 146.523 55.9089 146.119 55.7441C146.029 55.7067 145.961 55.6805 145.917 55.6655C145.505 55.5008 145.175 55.3623 144.928 55.25C144.689 55.1377 144.404 54.9805 144.075 54.7783C143.745 54.5762 143.491 54.374 143.311 54.1719C143.131 53.9697 142.974 53.7189 142.839 53.4194C142.712 53.1125 142.648 52.7793 142.648 52.4199C142.648 51.4541 143 50.6792 143.704 50.0952C144.415 49.5112 145.359 49.2192 146.534 49.2192C147.942 49.2192 149.106 49.7096 150.027 50.6904C150.364 51.0273 150.379 51.3605 150.072 51.6899L149.915 51.8472C149.578 52.1841 149.248 52.1991 148.926 51.8921C148.5 51.4803 148.106 51.1958 147.747 51.0386C147.395 50.8739 146.976 50.7915 146.489 50.7915C145.883 50.7915 145.396 50.9263 145.029 51.1958C144.67 51.4653 144.49 51.821 144.49 52.2627C144.49 52.682 144.662 53.0226 145.007 53.2847C145.351 53.5467 145.905 53.8424 146.669 54.1719C147.747 54.6361 148.458 54.973 148.803 55.1826C149.701 55.7292 150.236 56.418 150.409 57.249C150.461 57.4886 150.487 57.7432 150.487 58.0127C150.487 59.001 150.109 59.7946 149.353 60.3936C148.604 60.985 147.612 61.2808 146.377 61.2808ZM49.7612 75.9741C50.1655 76.1838 50.2816 76.472 50.1094 76.8389L49.9971 77.1196C49.8024 77.4865 49.5029 77.5801 49.0986 77.4004C48.7318 77.2132 48.3537 77.1196 47.9644 77.1196C47.3354 77.1196 46.8151 77.3255 46.4033 77.7373C45.9915 78.1491 45.7856 78.763 45.7856 79.5791V80.3877H48.7056C48.9002 80.3877 49.0537 80.4438 49.166 80.5562C49.2858 80.661 49.3457 80.8107 49.3457 81.0054V81.2861C49.3457 81.4808 49.2858 81.6343 49.166 81.7466C49.0537 81.8514 48.9002 81.9038 48.7056 81.9038H45.7856V91.3374C45.7856 91.5396 45.7332 91.7005 45.6284 91.8203C45.5236 91.9401 45.3701 92 45.168 92H44.584C44.3893 92 44.2358 91.9401 44.1235 91.8203C44.0187 91.7005 43.9663 91.5396 43.9663 91.3374V81.9038H42.6973C42.4876 81.9038 42.3229 81.8514 42.2031 81.7466C42.0908 81.6343 42.0347 81.4808 42.0347 81.2861V81.0054C42.0347 80.8107 42.0908 80.661 42.2031 80.5562C42.3229 80.4438 42.4876 80.3877 42.6973 80.3877H43.9663V79.5791C43.9663 78.8978 44.0786 78.2951 44.3032 77.771C44.5278 77.2394 44.8311 76.8164 45.2129 76.502C45.5947 76.1875 46.0103 75.9517 46.4595 75.7944C46.9162 75.6372 47.3953 75.5586 47.897 75.5586C48.6382 75.5586 49.2596 75.6971 49.7612 75.9741ZM57.4878 80.3652C57.8621 80.4775 57.9857 80.7508 57.8584 81.1851L57.7573 81.5557C57.645 81.945 57.3717 82.0835 56.9375 81.9712C56.653 81.8813 56.3835 81.8364 56.1289 81.8364C55.2904 81.8364 54.6278 82.1696 54.1411 82.8359C53.6545 83.5023 53.4111 84.3633 53.4111 85.4189V91.3374C53.4111 91.5396 53.3587 91.7005 53.2539 91.8203C53.1491 91.9401 52.9956 92 52.7935 92H52.2207C52.026 92 51.8726 91.9401 51.7603 91.8203C51.6554 91.7005 51.603 91.5396 51.603 91.3374V82.252C51.603 81.96 51.4795 81.814 51.2324 81.814C51.0902 81.814 50.9142 81.8589 50.7046 81.9487C50.3602 82.106 50.1056 81.9974 49.9409 81.623L49.8735 81.3984C49.7088 81.0166 49.7687 80.7471 50.0532 80.5898C50.4126 80.3428 50.8805 80.2192 51.457 80.2192C51.9811 80.2192 52.4079 80.3727 52.7373 80.6797C53.0667 80.9792 53.2539 81.4172 53.2988 81.9937C53.9502 80.8107 54.9535 80.2192 56.3086 80.2192C56.6455 80.2192 57.0386 80.2679 57.4878 80.3652ZM67.6064 91.4946C66.6706 92.0187 65.6261 92.2808 64.4731 92.2808C63.3201 92.2808 62.2757 92.0187 61.3398 91.4946C60.404 90.9631 59.6702 90.2368 59.1387 89.3159C58.6146 88.395 58.3525 87.373 58.3525 86.25C58.3525 85.127 58.6146 84.105 59.1387 83.1841C59.6702 82.2632 60.404 81.5407 61.3398 81.0166C62.2757 80.485 63.3201 80.2192 64.4731 80.2192C65.6261 80.2192 66.6706 80.485 67.6064 81.0166C68.5423 81.5407 69.2723 82.2632 69.7964 83.1841C70.328 84.105 70.5938 85.127 70.5938 86.25C70.5938 87.373 70.328 88.395 69.7964 89.3159C69.2723 90.2368 68.5423 90.9631 67.6064 91.4946ZM61.396 89.3945C62.1971 90.2256 63.2228 90.6411 64.4731 90.6411C65.7235 90.6411 66.7492 90.2256 67.5503 89.3945C68.3514 88.5635 68.752 87.5153 68.752 86.25C68.752 84.9847 68.3514 83.9365 67.5503 83.1055C66.7492 82.2744 65.7235 81.8589 64.4731 81.8589C63.2378 81.8589 62.2158 82.2744 61.4072 83.1055C60.5986 83.9365 60.1943 84.9847 60.1943 86.25C60.1943 87.5153 60.5949 88.5635 61.396 89.3945ZM87.4282 80.2192C88.8358 80.2192 89.9438 80.661 90.7524 81.5444C91.561 82.4204 91.9653 83.5734 91.9653 85.0034V91.3374C91.9653 91.5396 91.9092 91.7005 91.7969 91.8203C91.6846 91.9401 91.5311 92 91.3364 92H90.7637C90.569 92 90.4155 91.9401 90.3032 91.8203C90.1984 91.7005 90.146 91.5396 90.146 91.3374V85.1719C90.146 84.1536 89.8727 83.3451 89.3262 82.7461C88.7871 82.1396 88.0459 81.8364 87.1025 81.8364C86.1292 81.8364 85.3319 82.1434 84.7104 82.7573C84.089 83.3638 83.7783 84.1686 83.7783 85.1719V91.3374C83.7783 91.5396 83.7222 91.7005 83.6099 91.8203C83.4976 91.9401 83.3441 92 83.1494 92H82.5767C82.382 92 82.2285 91.9401 82.1162 91.8203C82.0114 91.7005 81.959 91.5396 81.959 91.3374V85.1719C81.959 84.1536 81.6857 83.3451 81.1392 82.7461C80.5926 82.1396 79.8364 81.8364 78.8706 81.8364C77.9048 81.8364 77.1112 82.1434 76.4897 82.7573C75.8683 83.3713 75.5576 84.1761 75.5576 85.1719V91.3374C75.5576 91.5396 75.5015 91.7005 75.3892 91.8203C75.2843 91.9401 75.1346 92 74.9399 92H74.3672C74.165 92 74.0116 91.9401 73.9067 91.8203C73.8019 91.7005 73.7495 91.5396 73.7495 91.3374V82.252C73.7495 81.96 73.6185 81.814 73.3564 81.814C73.2441 81.814 73.0682 81.8589 72.8286 81.9487C72.4992 82.0985 72.2521 81.9899 72.0874 81.623L72.02 81.3984C71.8403 81.0241 71.8927 80.7546 72.1772 80.5898C72.5366 80.3428 73.0046 80.2192 73.5811 80.2192C74.1276 80.2192 74.5731 80.3877 74.9175 80.7246C75.2619 81.054 75.4378 81.5295 75.4453 82.1509C75.8271 81.5369 76.3363 81.0615 76.9727 80.7246C77.6165 80.3877 78.3652 80.2192 79.2188 80.2192C80.1621 80.2192 80.9819 80.4289 81.6782 80.8481C82.3745 81.2674 82.9023 81.8477 83.2617 82.5889C83.6436 81.8477 84.1901 81.2674 84.9014 80.8481C85.6201 80.4289 86.4624 80.2192 87.4282 80.2192ZM106.295 92.3032C104.439 92.3032 102.904 91.7305 101.691 90.585C100.478 89.432 99.8716 87.987 99.8716 86.25C99.8716 84.513 100.478 83.0718 101.691 81.9263C102.904 80.7733 104.439 80.1968 106.295 80.1968C107.523 80.1968 108.624 80.4588 109.597 80.9829C110.578 81.507 111.342 82.2295 111.888 83.1504C112.435 84.0713 112.708 85.1045 112.708 86.25C112.708 87.3955 112.435 88.4287 111.888 89.3496C111.342 90.2705 110.578 90.993 109.597 91.5171C108.624 92.0412 107.523 92.3032 106.295 92.3032ZM104.499 88.1479C104.978 88.6496 105.577 88.9004 106.295 88.9004C107.014 88.9004 107.606 88.6496 108.07 88.1479C108.542 87.6463 108.777 87.0137 108.777 86.25C108.777 85.4863 108.542 84.8537 108.07 84.3521C107.606 83.8504 107.014 83.5996 106.295 83.5996C105.577 83.5996 104.978 83.8504 104.499 84.3521C104.027 84.8537 103.791 85.4863 103.791 86.25C103.791 87.0137 104.027 87.6463 104.499 88.1479ZM127.914 90.7534C127.996 91.0978 128.004 91.3411 127.937 91.4834C127.877 91.6257 127.742 91.7454 127.532 91.8428C126.911 92.1497 126.248 92.3032 125.544 92.3032C124.871 92.3032 124.294 92.1348 123.815 91.7979C123.343 91.4609 123.01 90.978 122.815 90.3491C122.089 91.6519 120.936 92.3032 119.356 92.3032C117.934 92.3032 116.785 91.8727 115.909 91.0117C115.04 90.1507 114.606 89.0164 114.606 87.6089V81.4434C114.606 81.1139 114.7 80.8556 114.887 80.6685C115.074 80.4813 115.332 80.3877 115.662 80.3877H117.548C117.878 80.3877 118.136 80.4813 118.323 80.6685C118.51 80.8556 118.604 81.1139 118.604 81.4434V87.0361C118.604 87.5977 118.757 88.0544 119.064 88.4062C119.371 88.7507 119.783 88.9229 120.3 88.9229C120.831 88.9229 121.251 88.7469 121.558 88.395C121.872 88.0431 122.029 87.5827 122.029 87.0137V81.4434C122.029 81.1139 122.119 80.8556 122.299 80.6685C122.479 80.4813 122.733 80.3877 123.062 80.3877H124.972C125.301 80.3877 125.556 80.4813 125.735 80.6685C125.915 80.8556 126.005 81.1139 126.005 81.4434V88.5298C126.005 88.8218 126.098 88.9678 126.286 88.9678C126.338 88.9678 126.424 88.9491 126.544 88.9116C126.664 88.8667 126.761 88.8442 126.836 88.8442C127.15 88.8068 127.39 89.0239 127.555 89.4956L127.914 90.7534ZM138.448 80.4551C138.695 80.5374 138.871 80.6497 138.976 80.792C139.088 80.9268 139.103 81.1439 139.021 81.4434L138.583 83.1729C138.501 83.4798 138.37 83.682 138.19 83.7793C138.018 83.8691 137.819 83.8729 137.595 83.7905C137.108 83.6333 136.715 83.5547 136.416 83.5547C135.749 83.5547 135.233 83.7568 134.866 84.1611C134.506 84.5654 134.327 85.1157 134.327 85.812V90.9443C134.327 91.2812 134.233 91.5433 134.046 91.7305C133.866 91.9102 133.608 92 133.271 92H131.384C131.055 92 130.797 91.9064 130.609 91.7192C130.422 91.5321 130.329 91.2738 130.329 90.9443V84.0151C130.329 83.8055 130.25 83.7007 130.093 83.7007C130.018 83.7007 129.894 83.7344 129.722 83.8018C129.55 83.8617 129.423 83.8953 129.34 83.9028C129.228 83.9178 129.112 83.8804 128.992 83.7905C128.88 83.6932 128.794 83.5173 128.734 83.2627L128.419 81.7466C128.337 81.4471 128.33 81.2113 128.397 81.0391C128.464 80.8669 128.625 80.7171 128.88 80.5898C129.367 80.3278 129.939 80.1968 130.598 80.1968C131.242 80.1968 131.819 80.3353 132.328 80.6123C132.837 80.8818 133.211 81.3049 133.451 81.8813C134.237 80.7583 135.349 80.1968 136.786 80.1968C137.34 80.1968 137.894 80.2829 138.448 80.4551ZM49.4243 111.197C50.5174 111.197 51.502 111.466 52.3779 112.005C53.2539 112.537 53.9352 113.263 54.4219 114.184C54.9085 115.105 55.1519 116.127 55.1519 117.25C55.1519 118.373 54.9048 119.399 54.4106 120.327C53.924 121.248 53.2427 121.974 52.3667 122.506C51.4907 123.037 50.5099 123.303 49.4243 123.303C47.9194 123.303 46.6541 122.742 45.6284 121.619V121.944C45.6284 122.274 45.5386 122.532 45.3589 122.719C45.1792 122.906 44.9246 123 44.5952 123H43.562C43.2326 123 42.978 122.906 42.7983 122.719C42.6187 122.532 42.5288 122.274 42.5288 121.944V108.007C42.5288 107.685 42.6149 107.442 42.7871 107.277C42.9593 107.113 43.2176 107 43.562 106.94L45.4487 106.604C45.7782 106.536 46.0365 106.607 46.2236 106.817C46.4108 107.019 46.5044 107.3 46.5044 107.659V112.005C47.3879 111.466 48.3612 111.197 49.4243 111.197ZM48.7617 119.9C49.488 119.9 50.0832 119.65 50.5474 119.148C51.0116 118.639 51.2437 118.006 51.2437 117.25C51.2437 116.494 51.0116 115.865 50.5474 115.363C50.0832 114.854 49.488 114.6 48.7617 114.6C48.0579 114.6 47.4702 114.847 46.9985 115.341C46.5343 115.827 46.3022 116.464 46.3022 117.25C46.3097 118.044 46.5456 118.684 47.0098 119.17C47.474 119.657 48.0579 119.9 48.7617 119.9ZM66.2139 111.455C66.4609 111.537 66.6369 111.65 66.7417 111.792C66.854 111.927 66.869 112.144 66.7866 112.443L66.3486 114.173C66.2663 114.48 66.1353 114.682 65.9556 114.779C65.7834 114.869 65.585 114.873 65.3604 114.791C64.8737 114.633 64.4806 114.555 64.1812 114.555C63.5148 114.555 62.9982 114.757 62.6313 115.161C62.272 115.565 62.0923 116.116 62.0923 116.812V121.944C62.0923 122.281 61.9987 122.543 61.8115 122.73C61.6318 122.91 61.3735 123 61.0366 123H59.1499C58.8205 123 58.5622 122.906 58.375 122.719C58.1878 122.532 58.0942 122.274 58.0942 121.944V115.015C58.0942 114.806 58.0156 114.701 57.8584 114.701C57.7835 114.701 57.66 114.734 57.4878 114.802C57.3156 114.862 57.1883 114.895 57.106 114.903C56.9937 114.918 56.8776 114.88 56.7578 114.791C56.6455 114.693 56.5594 114.517 56.4995 114.263L56.1851 112.747C56.1027 112.447 56.0952 112.211 56.1626 112.039C56.23 111.867 56.391 111.717 56.6455 111.59C57.1322 111.328 57.7049 111.197 58.3638 111.197C59.0076 111.197 59.5841 111.335 60.0933 111.612C60.6024 111.882 60.9767 112.305 61.2163 112.881C62.0024 111.758 63.1143 111.197 64.5518 111.197C65.1058 111.197 65.6598 111.283 66.2139 111.455ZM73.5474 123.303C71.6906 123.303 70.1558 122.73 68.9429 121.585C67.73 120.432 67.1235 118.987 67.1235 117.25C67.1235 115.513 67.73 114.072 68.9429 112.926C70.1558 111.773 71.6906 111.197 73.5474 111.197C74.7752 111.197 75.8758 111.459 76.8491 111.983C77.8299 112.507 78.5936 113.229 79.1401 114.15C79.6867 115.071 79.96 116.104 79.96 117.25C79.96 118.396 79.6867 119.429 79.1401 120.35C78.5936 121.271 77.8299 121.993 76.8491 122.517C75.8758 123.041 74.7752 123.303 73.5474 123.303ZM71.7505 119.148C72.2297 119.65 72.8286 119.9 73.5474 119.9C74.2661 119.9 74.8576 119.65 75.3218 119.148C75.7935 118.646 76.0293 118.014 76.0293 117.25C76.0293 116.486 75.7935 115.854 75.3218 115.352C74.8576 114.85 74.2661 114.6 73.5474 114.6C72.8286 114.6 72.2297 114.85 71.7505 115.352C71.2788 115.854 71.043 116.486 71.043 117.25C71.043 118.014 71.2788 118.646 71.7505 119.148ZM94.1553 121.877C94.2376 122.176 94.2376 122.405 94.1553 122.562C94.0729 122.719 93.9269 122.85 93.7173 122.955C93.2082 123.187 92.6654 123.303 92.0889 123.303C91.4225 123.303 90.8498 123.18 90.3706 122.933C89.8914 122.686 89.4759 122.3 89.124 121.776L87.2373 119.024H85.9458V121.944C85.9458 122.274 85.8522 122.532 85.665 122.719C85.4779 122.906 85.2196 123 84.8901 123H83.0259C82.6965 123 82.4419 122.906 82.2622 122.719C82.0825 122.532 81.9927 122.274 81.9927 121.944V108.007C81.9927 107.685 82.0788 107.442 82.251 107.277C82.4232 107.113 82.6815 107 83.0259 106.94L84.8677 106.604C85.1971 106.536 85.4591 106.607 85.6538 106.817C85.8485 107.019 85.9458 107.3 85.9458 107.659V112.028C86.8892 111.474 87.8849 111.197 88.9331 111.197C90.3032 111.197 91.4038 111.549 92.2349 112.252C93.0734 112.949 93.4927 113.877 93.4927 115.038C93.4927 115.801 93.283 116.483 92.8638 117.082C92.4445 117.673 91.8643 118.137 91.123 118.474L91.8081 119.53C91.9803 119.799 92.175 119.96 92.3921 120.013C92.5269 120.05 92.7178 120.035 92.9648 119.968C93.2044 119.893 93.3841 119.9 93.5039 119.99C93.6312 120.073 93.736 120.249 93.8184 120.518L94.1553 121.877ZM85.9458 116.003V116.879H87.855C88.3791 116.879 88.8096 116.748 89.1465 116.486C89.4834 116.217 89.6519 115.872 89.6519 115.453C89.6519 115.026 89.4909 114.678 89.1689 114.409C88.847 114.139 88.4315 114.004 87.9224 114.004C87.3384 114.004 86.863 114.192 86.4961 114.566C86.1292 114.94 85.9458 115.419 85.9458 116.003ZM99.1079 118.104C99.1978 118.845 99.5234 119.425 100.085 119.844C100.646 120.264 101.32 120.473 102.106 120.473C102.945 120.473 103.765 120.196 104.566 119.642C104.723 119.522 104.858 119.436 104.97 119.384C105.083 119.331 105.206 119.32 105.341 119.35C105.476 119.38 105.614 119.47 105.756 119.62L106.542 120.428C106.939 120.81 106.954 121.199 106.587 121.596C106.086 122.128 105.375 122.547 104.454 122.854C103.533 123.153 102.597 123.303 101.646 123.303C99.7967 123.303 98.2694 122.738 97.064 121.607C95.866 120.469 95.2671 119.009 95.2671 117.228C95.2671 116.082 95.5291 115.053 96.0532 114.139C96.5773 113.218 97.311 112.5 98.2544 111.983C99.1978 111.459 100.265 111.197 101.455 111.197C102.354 111.197 103.173 111.343 103.915 111.635C104.663 111.927 105.292 112.327 105.801 112.836C106.333 113.368 106.745 113.997 107.037 114.723C107.336 115.449 107.486 116.206 107.486 116.992C107.486 117.411 107.411 117.703 107.261 117.868C107.119 118.025 106.842 118.104 106.43 118.104H99.1079ZM101.365 113.937C100.751 113.937 100.246 114.113 99.8491 114.465C99.4598 114.817 99.224 115.3 99.1416 115.914H103.623C103.533 115.36 103.319 114.914 102.982 114.577C102.556 114.15 102.017 113.937 101.365 113.937ZM118.458 111.455C118.705 111.537 118.881 111.65 118.986 111.792C119.098 111.927 119.113 112.144 119.031 112.443L118.593 114.173C118.51 114.48 118.379 114.682 118.2 114.779C118.028 114.869 117.829 114.873 117.604 114.791C117.118 114.633 116.725 114.555 116.425 114.555C115.759 114.555 115.242 114.757 114.875 115.161C114.516 115.565 114.336 116.116 114.336 116.812V121.944C114.336 122.281 114.243 122.543 114.056 122.73C113.876 122.91 113.618 123 113.281 123H111.394C111.065 123 110.806 122.906 110.619 122.719C110.432 122.532 110.338 122.274 110.338 121.944V115.015C110.338 114.806 110.26 114.701 110.103 114.701C110.028 114.701 109.904 114.734 109.732 114.802C109.56 114.862 109.432 114.895 109.35 114.903C109.238 114.918 109.122 114.88 109.002 114.791C108.89 114.693 108.804 114.517 108.744 114.263L108.429 112.747C108.347 112.447 108.339 112.211 108.407 112.039C108.474 111.867 108.635 111.717 108.89 111.59C109.376 111.328 109.949 111.197 110.608 111.197C111.252 111.197 111.828 111.335 112.337 111.612C112.847 111.882 113.221 112.305 113.46 112.881C114.247 111.758 115.358 111.197 116.796 111.197C117.35 111.197 117.904 111.283 118.458 111.455ZM124.59 123.326C123.632 123.326 122.711 123.165 121.827 122.843C120.944 122.513 120.255 122.12 119.761 121.664C119.484 121.409 119.334 121.169 119.312 120.945C119.289 120.72 119.409 120.447 119.671 120.125L120.221 119.462C120.386 119.26 120.558 119.133 120.738 119.081C120.925 119.021 121.093 119.017 121.243 119.069C121.4 119.122 121.573 119.212 121.76 119.339C122.688 120.013 123.639 120.35 124.612 120.35C124.957 120.35 125.222 120.29 125.41 120.17C125.597 120.05 125.69 119.882 125.69 119.665C125.69 119.56 125.66 119.462 125.601 119.373C125.541 119.275 125.473 119.197 125.398 119.137C125.324 119.069 125.211 119.002 125.062 118.935C124.912 118.86 124.785 118.804 124.68 118.766C124.582 118.729 124.436 118.676 124.242 118.609C123.867 118.497 123.568 118.403 123.343 118.328C123.119 118.253 122.834 118.148 122.49 118.014C122.153 117.879 121.876 117.748 121.659 117.621C121.449 117.493 121.221 117.332 120.974 117.138C120.727 116.943 120.532 116.737 120.39 116.52C120.247 116.303 120.128 116.048 120.03 115.756C119.94 115.464 119.896 115.15 119.896 114.813C119.896 113.697 120.322 112.814 121.176 112.163C122.029 111.504 123.175 111.174 124.612 111.174C125.421 111.174 126.222 111.298 127.016 111.545C127.817 111.792 128.427 112.091 128.846 112.443C129.123 112.683 129.269 112.915 129.284 113.14C129.299 113.364 129.176 113.653 128.914 114.004L128.431 114.6C128.049 115.094 127.558 115.157 126.959 114.791C126.248 114.281 125.481 114.027 124.657 114.027C124.343 114.027 124.096 114.087 123.916 114.207C123.736 114.319 123.646 114.469 123.646 114.656C123.646 114.768 123.68 114.869 123.748 114.959C123.822 115.041 123.946 115.124 124.118 115.206C124.298 115.288 124.466 115.36 124.624 115.419C124.788 115.472 125.028 115.554 125.342 115.667C125.664 115.771 125.934 115.861 126.151 115.936C126.667 116.138 127.109 116.344 127.476 116.554C127.843 116.763 128.184 117.014 128.498 117.306C128.812 117.591 129.048 117.928 129.206 118.317C129.363 118.699 129.441 119.133 129.441 119.62C129.441 120.765 128.996 121.671 128.105 122.337C127.222 122.996 126.05 123.326 124.59 123.326ZM133.035 106.873C133.462 106.873 133.806 107.012 134.068 107.289C134.33 107.558 134.469 107.917 134.484 108.367C134.491 108.861 134.368 109.34 134.113 109.804C133.866 110.261 133.286 111.073 132.373 112.241C132.283 112.383 132.17 112.473 132.036 112.511C131.908 112.548 131.796 112.526 131.699 112.443L131.609 112.376C131.422 112.226 131.414 112.009 131.586 111.725C131.601 111.702 131.658 111.624 131.755 111.489C131.86 111.347 131.931 111.245 131.968 111.186C132.013 111.118 132.081 111.017 132.17 110.882C132.268 110.74 132.339 110.628 132.384 110.545C132.429 110.456 132.481 110.354 132.541 110.242C132.601 110.122 132.646 110.018 132.676 109.928C132.706 109.83 132.724 109.741 132.732 109.658C132.403 109.591 132.129 109.426 131.912 109.164C131.695 108.902 131.586 108.606 131.586 108.277C131.586 107.888 131.729 107.558 132.013 107.289C132.298 107.012 132.638 106.873 133.035 106.873ZM137.909 108.367C137.917 108.861 137.793 109.34 137.539 109.804C137.292 110.261 136.711 111.073 135.798 112.241C135.573 112.548 135.349 112.616 135.124 112.443L135.012 112.376C134.825 112.211 134.825 111.994 135.012 111.725C135.027 111.702 135.083 111.624 135.18 111.489C135.285 111.347 135.356 111.245 135.394 111.186C135.438 111.118 135.506 111.017 135.596 110.882C135.693 110.74 135.764 110.628 135.809 110.545C135.854 110.456 135.906 110.354 135.966 110.242C136.026 110.122 136.071 110.018 136.101 109.928C136.131 109.83 136.15 109.741 136.157 109.658C135.828 109.591 135.555 109.426 135.337 109.164C135.12 108.902 135.012 108.606 135.012 108.277C135.012 107.888 135.154 107.558 135.438 107.289C135.723 107.012 136.064 106.873 136.46 106.873C136.887 106.873 137.232 107.012 137.494 107.289C137.756 107.558 137.894 107.917 137.909 108.367Z" fill="#585858"/>
</g>
<defs>
<clipPath id="clip0_0_8551">
<rect width="180" height="134" fill="white"/>
</clipPath>
</defs>
</svg>
