<svg width="16" height="106" viewBox="0 0 16 106" fill="none" xmlns="http://www.w3.org/2000/svg">
<path fill-rule="evenodd" clip-rule="evenodd" d="M16 0C16 4.41828 12.4183 8 8 8C3.58172 8 0 4.41828 0 0V36V71V106C0 101.582 3.58172 98 8 98C12.4183 98 16 101.582 16 106V71V36V0ZM16 71C16 75.4183 12.4183 79 8 79C3.58172 79 0 75.4183 0 71C0 66.5817 3.58172 63 8 63C12.4183 63 16 66.5817 16 71ZM16 36C16 40.4183 12.4183 44 8 44C3.58172 44 0 40.4183 0 36C0 31.5817 3.58172 28 8 28C12.4183 28 16 31.5817 16 36Z" fill="#ffffff"/>
</svg>
