<svg width="16" height="171" viewBox="0 0 16 171" fill="none" xmlns="http://www.w3.org/2000/svg">
<circle cx="8" cy="59.5" r="8" fill="white"/>
<circle cx="8" cy="85.5" r="8" fill="white"/>
<circle cx="8" cy="111.5" r="8" fill="white"/>
<g clip-path="url(#clip0_212_1733)">
<rect width="16" height="40" transform="matrix(1 0 0 -1 0 171)" fill="white"/>
<circle cx="8" cy="8" r="8" transform="matrix(1 0 0 -1 0 147)" fill="white"/>
</g>
<g clip-path="url(#clip1_212_1733)">
<rect width="16" height="40" fill="white"/>
<circle cx="8" cy="32" r="8" fill="white"/>
</g>
<defs>
<clipPath id="clip0_212_1733">
<path d="M0 171H16V139C16 134.582 12.4183 131 8 131V131C3.58172 131 0 134.582 0 139V171Z" fill="white"/>
</clipPath>
<clipPath id="clip1_212_1733">
<path d="M0 0H16V32C16 36.4183 12.4183 40 8 40V40C3.58172 40 0 36.4183 0 32V0Z" fill="white"/>
</clipPath>
</defs>
</svg>
