<svg width="283" height="367" viewBox="0 0 283 367" fill="none" xmlns="http://www.w3.org/2000/svg">
<path d="M271.384 278.563C253.305 273.661 236.901 277.653 225.802 267.428C214.773 257.204 203.605 252.232 186.503 255.873C169.401 259.515 146.087 258.534 128.427 238.856C119.213 228.561 98.9003 220.647 75.8653 223.169C52.5511 225.69 22.815 207.341 20.0927 176.948C17.3703 146.554 11.6465 134.369 4.45678 122.463C-2.73293 110.558 -5.24584 71.4104 28.9576 59.9253C37.0548 57.1941 50.7362 52.9221 62.4631 28.201C79.146 -6.81468 113.699 -2.12257 125.565 5.09067C137.432 12.3039 149.577 18.1165 179.872 20.7777C210.166 23.5089 228.455 53.3423 225.942 76.7328C223.429 99.8432 231.317 120.292 241.578 129.467C261.192 147.114 262.17 170.505 258.54 187.733C254.91 204.96 259.866 216.165 270.057 227.16C280.249 238.155 276.619 250.761 281.365 268.619C281.365 268.689 281.365 268.759 281.435 268.829C281.505 268.969 281.575 269.249 281.575 269.249C284.227 277.653 275.293 280.034 271.384 278.563Z" fill="#D8F46C"/>
<path d="M232.992 246.839C232.992 246.769 232.992 246.699 232.992 246.699C233.062 245.859 233.201 245.299 233.201 245.299C233.201 244.738 233.62 244.318 234.179 244.318C234.737 244.318 235.156 244.738 235.156 245.299C235.156 245.299 235.295 245.859 235.365 246.699C235.365 246.769 235.365 246.839 235.365 246.839C236.273 246.979 236.901 247.119 236.901 247.119C237.459 247.119 237.878 247.54 237.878 248.1C237.878 248.66 237.459 249.08 236.901 249.08C236.901 249.08 236.203 249.22 235.295 249.36C235.156 250.271 235.016 250.901 235.016 250.901C235.016 251.461 234.597 251.881 234.039 251.881C233.48 251.881 233.062 251.461 233.062 250.901C233.062 250.901 232.922 250.201 232.782 249.36C232.713 249.36 232.643 249.36 232.643 249.36C231.805 249.29 231.247 249.15 231.247 249.15C230.688 249.15 230.27 248.73 230.27 248.17C230.27 247.61 230.688 247.189 231.247 247.189C231.247 247.189 231.805 247.049 232.643 246.979C232.852 246.839 232.922 246.839 232.992 246.839Z" fill="white"/>
<path d="M161.234 229.682C161.234 229.611 161.234 229.541 161.234 229.541C161.304 228.701 161.444 228.141 161.444 228.141C161.444 227.581 161.863 227.16 162.421 227.16C162.979 227.16 163.398 227.581 163.398 228.141C163.398 228.141 163.538 228.701 163.608 229.541C163.608 229.611 163.608 229.682 163.608 229.682C164.515 229.822 165.143 229.962 165.143 229.962C165.702 229.962 166.12 230.382 166.12 230.942C166.12 231.502 165.702 231.923 165.143 231.923C165.143 231.923 164.445 232.063 163.538 232.203C163.398 233.113 163.259 233.813 163.259 233.813C163.259 234.374 162.84 234.794 162.281 234.794C161.723 234.794 161.304 234.374 161.304 233.813C161.304 233.813 161.164 233.113 161.025 232.273C160.955 232.273 160.885 232.273 160.885 232.273C160.048 232.203 159.489 232.063 159.489 232.063C158.931 232.063 158.512 231.642 158.512 231.082C158.512 230.522 158.931 230.102 159.489 230.102C159.489 230.102 160.048 229.962 160.885 229.892C161.095 229.682 161.164 229.682 161.234 229.682Z" fill="white"/>
<path d="M220.008 184.371C220.008 184.301 220.008 184.231 220.008 184.231C220.078 183.391 220.218 182.83 220.218 182.83C220.218 182.27 220.637 181.85 221.195 181.85C221.754 181.85 222.172 182.27 222.172 182.83C222.172 182.83 222.312 183.391 222.382 184.231C222.382 184.301 222.382 184.371 222.382 184.371C223.289 184.511 223.917 184.651 223.917 184.651C224.476 184.651 224.895 185.071 224.895 185.632C224.895 186.192 224.476 186.612 223.917 186.612C223.917 186.612 223.219 186.752 222.312 186.892C222.172 187.803 222.033 188.503 222.033 188.503C222.033 189.063 221.614 189.483 221.055 189.483C220.497 189.483 220.078 189.063 220.078 188.503C220.078 188.503 219.939 187.803 219.799 186.962C219.729 186.962 219.659 186.962 219.659 186.962C218.822 186.892 218.263 186.752 218.263 186.752C217.705 186.752 217.286 186.332 217.286 185.772C217.286 185.212 217.705 184.791 218.263 184.791C218.263 184.791 218.822 184.651 219.659 184.581C219.939 184.441 220.008 184.441 220.008 184.371Z" fill="white"/>
<path d="M203.814 128.136C203.814 128.066 203.814 127.996 203.814 127.996C203.884 127.155 204.024 126.595 204.024 126.595C204.024 126.035 204.442 125.615 205.001 125.615C205.559 125.615 205.978 126.035 205.978 126.595C205.978 126.595 206.118 127.155 206.187 127.996C206.187 128.066 206.187 128.136 206.187 128.136C207.095 128.276 207.723 128.416 207.723 128.416C208.282 128.416 208.7 128.836 208.7 129.396C208.7 129.957 208.282 130.377 207.723 130.377C207.723 130.377 207.025 130.517 206.118 130.657C205.978 131.567 205.838 132.268 205.838 132.268C205.838 132.828 205.42 133.248 204.861 133.248C204.303 133.248 203.884 132.828 203.884 132.268C203.884 132.268 203.744 131.567 203.605 130.727C203.535 130.727 203.465 130.727 203.465 130.727C202.627 130.657 202.069 130.517 202.069 130.517C201.511 130.517 201.092 130.097 201.092 129.537C201.092 128.976 201.511 128.556 202.069 128.556C202.069 128.556 202.627 128.416 203.465 128.346C203.744 128.136 203.814 128.136 203.814 128.136Z" fill="white"/>
<path d="M56.2086 181.885C56.2086 181.815 56.2086 181.745 56.2086 181.745C56.2784 180.905 56.4181 180.344 56.4181 180.344C56.4181 179.784 56.8369 179.364 57.3953 179.364C57.9537 179.364 58.3725 179.784 58.3725 180.344C58.3725 180.344 58.5121 180.905 58.5819 181.745C58.5819 181.815 58.5819 181.885 58.5819 181.885C59.4894 182.025 60.1176 182.165 60.1176 182.165C60.676 182.165 61.0949 182.585 61.0949 183.146C61.0949 183.706 60.676 184.126 60.1176 184.126C60.1176 184.126 59.4196 184.266 58.5121 184.406C58.3725 185.317 58.2329 186.017 58.2329 186.017C58.2329 186.577 57.8141 186.997 57.2557 186.997C56.6973 186.997 56.2784 186.577 56.2784 186.017C56.2784 186.017 56.1388 185.317 55.9992 184.476C55.9294 184.476 55.8596 184.476 55.8596 184.476C55.022 184.406 54.4636 184.266 54.4636 184.266C53.9051 184.266 53.4863 183.846 53.4863 183.286C53.4863 182.725 53.9051 182.305 54.4636 182.305C54.4636 182.305 55.022 182.165 55.8596 182.095C56.1388 181.885 56.2086 181.885 56.2086 181.885Z" fill="white"/>
<path d="M130.312 60.6256C130.312 60.5556 130.312 60.4855 130.312 60.4855C130.381 59.6452 130.521 59.0849 130.521 59.0849C130.521 58.5247 130.94 58.1045 131.498 58.1045C132.057 58.1045 132.476 58.5247 132.476 59.0849C132.476 59.0849 132.615 59.6452 132.685 60.4855C132.685 60.5556 132.685 60.6256 132.685 60.6256C133.592 60.7657 134.221 60.9057 134.221 60.9057C134.779 60.9057 135.198 61.3259 135.198 61.8862C135.198 62.4464 134.779 62.8666 134.221 62.8666C134.221 62.8666 133.523 63.0067 132.615 63.1467C132.476 64.0571 132.336 64.6874 132.336 64.6874C132.336 65.2477 131.917 65.6679 131.359 65.6679C130.8 65.6679 130.381 65.2477 130.381 64.6874C130.381 64.6874 130.242 63.9871 130.102 63.1467C130.032 63.1467 129.963 63.1467 129.963 63.1467C129.125 63.0767 128.567 62.9366 128.567 62.9366C128.008 62.9366 127.589 62.5164 127.589 61.9562C127.589 61.3959 128.008 60.9758 128.567 60.9758C128.567 60.9758 129.125 60.8357 129.963 60.7657C130.172 60.6256 130.242 60.6256 130.312 60.6256Z" fill="white"/>
<path d="M62.1839 110.523C62.1839 110.173 62.2537 109.753 62.2537 109.473C62.3236 108.072 62.4632 107.091 62.4632 107.091C62.4632 106.531 62.882 106.111 63.4404 106.111C63.9988 106.111 64.4176 106.531 64.4176 107.091C64.4176 107.091 64.5572 108.072 64.6271 109.473C64.6271 109.823 64.6969 110.173 64.6969 110.593C64.7667 110.593 64.7667 110.593 64.8365 110.593C66.6513 110.733 68.187 110.873 68.187 110.873C68.7454 110.873 69.1643 111.293 69.1643 111.854C69.1643 112.414 68.7454 112.834 68.187 112.834C68.187 112.834 66.7211 113.044 64.8365 113.114C64.7667 113.114 64.7667 113.114 64.6969 113.114C64.6969 113.184 64.6969 113.184 64.6969 113.254C64.5573 115.075 64.4176 116.616 64.4176 116.616C64.4176 117.176 63.9988 117.596 63.4404 117.596C62.882 117.596 62.4632 117.176 62.4632 116.616C62.4632 116.616 62.2537 115.145 62.1839 113.254C62.1839 113.184 62.1839 113.184 62.1839 113.114C61.8349 113.114 61.4161 113.044 61.0671 113.044C59.671 112.974 58.6938 112.834 58.6938 112.834C58.1354 112.834 57.7166 112.414 57.7166 111.854C57.7166 111.293 58.1354 110.873 58.6938 110.873C58.6938 110.873 59.671 110.733 61.0671 110.663C61.4859 110.593 61.8349 110.523 62.1839 110.523Z" fill="white"/>
<path d="M115.472 202.264C115.472 201.914 115.541 201.494 115.541 201.214C115.611 199.813 115.751 198.833 115.751 198.833C115.751 198.272 116.17 197.852 116.728 197.852C117.286 197.852 117.705 198.272 117.705 198.833C117.705 198.833 117.845 199.813 117.915 201.214C117.915 201.564 117.984 201.914 117.984 202.334C118.054 202.334 118.054 202.334 118.124 202.334C119.939 202.474 121.475 202.614 121.475 202.614C122.033 202.614 122.452 203.035 122.452 203.595C122.452 204.155 122.033 204.575 121.475 204.575C121.475 204.575 120.009 204.785 118.124 204.855C118.054 204.855 118.054 204.855 117.984 204.855C117.984 204.925 117.984 204.925 117.984 204.995C117.845 206.816 117.705 208.357 117.705 208.357C117.705 208.917 117.286 209.337 116.728 209.337C116.17 209.337 115.751 208.917 115.751 208.357C115.751 208.357 115.541 206.886 115.472 204.995C115.472 204.925 115.472 204.925 115.472 204.855C115.123 204.855 114.704 204.785 114.355 204.785C112.959 204.715 111.981 204.575 111.981 204.575C111.423 204.575 111.004 204.155 111.004 203.595C111.004 203.035 111.423 202.614 111.981 202.614C111.981 202.614 112.959 202.474 114.355 202.404C114.774 202.334 115.123 202.264 115.472 202.264Z" fill="white"/>
<path d="M141.271 139.236C141.271 138.886 141.34 138.466 141.34 138.185C141.41 136.785 141.55 135.804 141.55 135.804C141.55 135.244 141.969 134.824 142.527 134.824C143.085 134.824 143.504 135.244 143.504 135.804C143.504 135.804 143.644 136.785 143.714 138.185C143.714 138.536 143.784 138.886 143.784 139.306C143.853 139.306 143.853 139.306 143.923 139.306C145.738 139.446 147.274 139.586 147.274 139.586C147.832 139.586 148.251 140.006 148.251 140.566C148.251 141.127 147.832 141.547 147.274 141.547C147.274 141.547 145.808 141.757 143.923 141.827C143.853 141.827 143.853 141.827 143.784 141.827C143.784 141.897 143.784 141.897 143.784 141.967C143.644 143.788 143.504 145.329 143.504 145.329C143.504 145.889 143.085 146.309 142.527 146.309C141.969 146.309 141.55 145.889 141.55 145.329C141.55 145.329 141.34 143.858 141.271 141.967C141.271 141.897 141.271 141.897 141.271 141.827C140.922 141.827 140.503 141.757 140.154 141.757C138.758 141.687 137.78 141.547 137.78 141.547C137.222 141.547 136.803 141.127 136.803 140.566C136.803 140.006 137.222 139.586 137.78 139.586C137.78 139.586 138.758 139.446 140.154 139.376C140.573 139.306 140.922 139.236 141.271 139.236Z" fill="white"/>
<path d="M97.4623 164.132C97.4623 163.782 97.5321 163.362 97.5321 163.082C97.6019 161.681 97.7415 160.701 97.7415 160.701C97.7415 160.14 98.1603 159.72 98.7187 159.72C99.2771 159.72 99.696 160.14 99.696 160.701C99.696 160.701 99.8356 161.681 99.9054 163.082C99.9054 163.432 99.9752 163.782 99.9752 164.202C100.045 164.202 100.045 164.202 100.115 164.202C101.93 164.342 103.465 164.482 103.465 164.482C104.024 164.482 104.443 164.902 104.443 165.463C104.443 166.023 104.024 166.443 103.465 166.443C103.465 166.443 101.999 166.653 100.115 166.723C100.045 166.723 100.045 166.723 99.9752 166.723C99.9752 166.793 99.9752 166.793 99.9752 166.863C99.8356 168.684 99.696 170.225 99.696 170.225C99.696 170.785 99.2771 171.205 98.7187 171.205C98.1603 171.205 97.7415 170.785 97.7415 170.225C97.7415 170.225 97.5321 168.754 97.4623 166.863C97.4623 166.793 97.4623 166.793 97.4623 166.723C97.1133 166.723 96.6944 166.653 96.3454 166.653C94.9494 166.583 93.9721 166.443 93.9721 166.443C93.4137 166.443 92.9949 166.023 92.9949 165.463C92.9949 164.902 93.4137 164.482 93.9721 164.482C93.9721 164.482 94.9494 164.342 96.3454 164.272C96.7642 164.202 97.1133 164.132 97.4623 164.132Z" fill="white"/>
<path d="M113.726 81.67C113.726 81.3199 113.796 80.8997 113.796 80.6196C113.866 79.2189 114.006 78.2385 114.006 78.2385C114.006 77.6782 114.424 77.2581 114.983 77.2581C115.541 77.2581 115.96 77.6782 115.96 78.2385C115.96 78.2385 116.1 79.2189 116.17 80.6196C116.17 80.9697 116.239 81.3199 116.239 81.7401C116.309 81.7401 116.309 81.7401 116.379 81.7401C118.194 81.8801 119.729 82.0202 119.729 82.0202C120.288 82.0202 120.707 82.4404 120.707 83.0006C120.707 83.5609 120.288 83.9811 119.729 83.9811C119.729 83.9811 118.264 84.1912 116.379 84.2612C116.309 84.2612 116.309 84.2612 116.239 84.2612C116.239 84.3312 116.239 84.3312 116.239 84.4013C116.1 86.2221 115.96 87.7628 115.96 87.7628C115.96 88.323 115.541 88.7432 114.983 88.7432C114.424 88.7432 114.006 88.323 114.006 87.7628C114.006 87.7628 113.796 86.2921 113.726 84.4013C113.726 84.3312 113.726 84.3312 113.726 84.2612C113.377 84.2612 112.959 84.1912 112.61 84.1912C111.214 84.1211 110.236 83.9811 110.236 83.9811C109.678 83.9811 109.259 83.5609 109.259 83.0006C109.259 82.4404 109.678 82.0202 110.236 82.0202C110.236 82.0202 111.214 81.8801 112.61 81.8101C113.028 81.7401 113.377 81.67 113.726 81.67Z" fill="white"/>
<path d="M73.7711 127.681C73.7711 127.611 73.7711 127.541 73.7711 127.541C73.8409 126.7 73.9806 126.14 73.9806 126.14C73.9806 125.58 74.3994 125.16 74.9578 125.16C75.5162 125.16 75.935 125.58 75.935 126.14C75.935 126.14 76.0746 126.7 76.1444 127.541C76.1444 127.611 76.1444 127.681 76.1444 127.681C77.0519 127.821 77.6801 127.961 77.6801 127.961C78.2385 127.961 78.6574 128.381 78.6574 128.941C78.6574 129.502 78.2385 129.922 77.6801 129.922C77.6801 129.922 76.9821 130.062 76.0746 130.202C75.935 131.112 75.7954 131.743 75.7954 131.743C75.7954 132.303 75.3766 132.723 74.8182 132.723C74.2598 132.723 73.8409 132.303 73.8409 131.743C73.8409 131.743 73.7013 131.042 73.5617 130.202C73.4919 130.202 73.4221 130.202 73.4221 130.202C72.5845 130.132 72.0261 129.992 72.0261 129.992C71.4676 129.992 71.0488 129.572 71.0488 129.011C71.0488 128.451 71.4676 128.031 72.0261 128.031C72.0261 128.031 72.5845 127.891 73.4221 127.821C73.6315 127.681 73.7013 127.681 73.7711 127.681Z" fill="white"/>
<path d="M51.7831 59.8552C51.7831 59.7852 51.7831 59.7152 51.7831 59.7152C51.8529 58.8748 51.9925 58.3145 51.9925 58.3145C51.9925 57.7543 52.4114 57.3341 52.9698 57.3341C53.5282 57.3341 53.947 57.7543 53.947 58.3145C53.947 58.3145 54.0866 58.8748 54.1564 59.7152C54.1564 59.7852 54.1564 59.8552 54.1564 59.8552C55.0639 59.9953 55.6921 60.1354 55.6921 60.1354C56.2505 60.1354 56.6693 60.5556 56.6693 61.1158C56.6693 61.6761 56.2505 62.0962 55.6921 62.0962C55.6921 62.0962 54.9941 62.2363 54.1564 62.3764C54.0168 63.2868 53.8772 63.9871 53.8772 63.9871C53.8772 64.5473 53.4584 64.9675 52.9 64.9675C52.3416 64.9675 51.9227 64.5473 51.9227 63.9871C51.9227 63.9871 51.7831 63.2868 51.6435 62.4464C51.5737 62.4464 51.5039 62.4464 51.5039 62.4464C50.6663 62.3764 50.1079 62.2363 50.1079 62.2363C49.5494 62.2363 49.1306 61.8161 49.1306 61.2559C49.1306 60.6956 49.5494 60.2754 50.1079 60.2754C50.1079 60.2754 50.6663 60.1354 51.5039 60.0653C51.6435 59.8552 51.7133 59.8552 51.7831 59.8552Z" fill="white"/>
<path d="M40.5729 138.19C40.5729 138.12 40.5729 138.05 40.5729 138.05C40.6427 137.209 40.7823 136.649 40.7823 136.649C40.7823 136.089 41.2012 135.668 41.7596 135.668C42.318 135.668 42.7368 136.089 42.7368 136.649C42.7368 136.649 42.8764 137.209 42.9462 138.05C42.9462 138.12 42.9462 138.19 42.9462 138.19C43.8537 138.33 44.4819 138.47 44.4819 138.47C45.0403 138.47 45.4591 138.89 45.4591 139.45C45.4591 140.01 45.0403 140.431 44.4819 140.431C44.4819 140.431 43.7839 140.571 42.9462 140.711C42.8066 141.621 42.667 142.321 42.667 142.321C42.667 142.882 42.2482 143.302 41.6898 143.302C41.1313 143.302 40.7125 142.882 40.7125 142.321C40.7125 142.321 40.5729 141.621 40.4333 140.781C40.3635 140.781 40.2937 140.781 40.2937 140.781C39.4561 140.711 38.8977 140.571 38.8977 140.571C38.3392 140.571 37.9204 140.15 37.9204 139.59C37.9204 139.03 38.3392 138.61 38.8977 138.61C38.8977 138.61 39.4561 138.47 40.2937 138.4C40.4333 138.19 40.5031 138.19 40.5729 138.19Z" fill="white"/>
<path d="M176.242 156.884C176.242 156.814 176.242 156.744 176.242 156.744C176.312 155.903 176.452 155.343 176.452 155.343C176.452 154.783 176.87 154.363 177.429 154.363C177.987 154.363 178.406 154.783 178.406 155.343C178.406 155.343 178.546 155.903 178.615 156.744C178.615 156.814 178.615 156.884 178.615 156.884C179.523 157.024 180.151 157.164 180.151 157.164C180.71 157.164 181.128 157.584 181.128 158.144C181.128 158.705 180.71 159.125 180.151 159.125C180.151 159.125 179.453 159.265 178.615 159.405C178.476 160.315 178.336 161.016 178.336 161.016C178.336 161.576 177.917 161.996 177.359 161.996C176.801 161.996 176.382 161.576 176.382 161.016C176.382 161.016 176.242 160.315 176.103 159.475C176.033 159.475 175.963 159.475 175.963 159.475C175.125 159.405 174.567 159.265 174.567 159.265C174.008 159.265 173.59 158.845 173.59 158.284C173.59 157.724 174.008 157.304 174.567 157.304C174.567 157.304 175.125 157.164 175.963 157.094C176.103 156.884 176.172 156.884 176.242 156.884Z" fill="white"/>
<path d="M164.473 94.5908C164.473 94.5208 164.473 94.4508 164.473 94.4508C164.543 93.6104 164.683 93.0501 164.683 93.0501C164.683 92.4899 165.102 92.0697 165.66 92.0697C166.218 92.0697 166.637 92.4899 166.637 93.0501C166.637 93.0501 166.777 93.6104 166.847 94.4508C166.847 94.5208 166.847 94.5908 166.847 94.5908C167.754 94.7309 168.382 94.871 168.382 94.871C168.941 94.871 169.36 95.2911 169.36 95.8514C169.36 96.4117 168.941 96.8318 168.382 96.8318C168.382 96.8318 167.684 96.9719 166.847 97.112C166.707 98.0224 166.567 98.7227 166.567 98.7227C166.567 99.2829 166.149 99.7031 165.59 99.7031C165.032 99.7031 164.613 99.2829 164.613 98.7227C164.613 98.7227 164.473 98.0224 164.334 97.182C164.264 97.182 164.194 97.182 164.194 97.182C163.356 97.112 162.798 96.9719 162.798 96.9719C162.24 96.9719 161.821 96.5517 161.821 95.9915C161.821 95.4312 162.24 95.011 162.798 95.011C162.798 95.011 163.356 94.871 164.194 94.8009C164.334 94.5908 164.404 94.5908 164.473 94.5908Z" fill="white"/>
<path fill-rule="evenodd" clip-rule="evenodd" d="M259.238 86.117C259.238 86.117 259.168 86.3271 259.098 86.6073C258.819 86.6773 258.61 86.7473 258.61 86.7473C258.051 86.7473 257.632 87.1675 257.632 87.7278C257.632 88.288 258.051 88.7082 258.61 88.7082C258.61 88.7082 258.819 88.7782 259.098 88.8483C259.168 89.1284 259.238 89.3385 259.238 89.3385C259.238 89.8987 259.657 90.3189 260.215 90.3189C260.774 90.3189 261.192 89.8987 261.192 89.3385C261.192 89.3385 261.262 89.1284 261.332 88.8483C261.611 88.7782 261.821 88.7082 261.821 88.7082C262.379 88.7082 262.798 88.288 262.798 87.7278C262.798 87.1675 262.379 86.7473 261.821 86.7473C261.821 86.7473 261.611 86.6773 261.332 86.6073C261.262 86.2571 261.192 86.117 261.192 86.117C261.192 85.5568 260.774 85.1366 260.215 85.1366C259.657 85.1366 259.238 85.5568 259.238 86.117ZM125.705 250.971C125.774 250.691 125.844 250.481 125.844 250.481C125.844 249.921 126.263 249.5 126.821 249.5C127.38 249.5 127.799 249.921 127.799 250.481C127.799 250.481 127.869 250.621 127.938 250.971C128.218 251.041 128.427 251.111 128.427 251.111C128.985 251.111 129.404 251.531 129.404 252.092C129.404 252.652 128.985 253.072 128.427 253.072C128.427 253.072 128.218 253.142 127.938 253.212C127.869 253.492 127.799 253.702 127.799 253.702C127.799 254.263 127.38 254.683 126.821 254.683C126.263 254.683 125.844 254.263 125.844 253.702C125.844 253.702 125.774 253.492 125.705 253.212C125.425 253.142 125.216 253.072 125.216 253.072C124.658 253.072 124.239 252.652 124.239 252.092C124.239 251.531 124.658 251.111 125.216 251.111C125.251 251.111 125.303 251.094 125.382 251.067L125.382 251.067C125.46 251.041 125.565 251.006 125.705 250.971ZM216.937 269.739C217.007 269.459 217.077 269.249 217.077 269.249C217.077 268.689 217.496 268.269 218.054 268.269C218.612 268.269 219.031 268.689 219.031 269.249C219.031 269.249 219.101 269.389 219.171 269.739C219.45 269.81 219.66 269.88 219.66 269.88C220.218 269.88 220.637 270.3 220.637 270.86C220.637 271.42 220.218 271.84 219.66 271.84C219.66 271.84 219.45 271.91 219.171 271.98C219.101 272.261 219.031 272.471 219.031 272.471C219.031 273.031 218.612 273.451 218.054 273.451C217.496 273.451 217.077 273.031 217.077 272.471C217.077 272.471 217.007 272.261 216.937 271.98C216.658 271.91 216.449 271.84 216.449 271.84C215.89 271.84 215.471 271.42 215.471 270.86C215.471 270.3 215.89 269.88 216.449 269.88C216.449 269.88 216.658 269.81 216.937 269.739Z" fill="#C9EB49"/>
<path fill-rule="evenodd" clip-rule="evenodd" d="M138.409 26.8705C138.409 26.8705 138.339 27.0805 138.269 27.3607C137.99 27.4307 137.78 27.5007 137.78 27.5007C137.222 27.5007 136.803 27.9209 136.803 28.4812C136.803 29.0414 137.222 29.4616 137.78 29.4616C137.78 29.4616 137.99 29.5316 138.269 29.6017C138.339 29.8818 138.409 30.0919 138.409 30.0919C138.409 30.6522 138.828 31.0723 139.386 31.0723C139.944 31.0723 140.363 30.6522 140.363 30.0919C140.363 30.0919 140.433 29.8818 140.503 29.6017C140.782 29.5316 140.991 29.4616 140.991 29.4616C141.55 29.4616 141.969 29.0414 141.969 28.4812C141.969 27.9209 141.55 27.5007 140.991 27.5007C140.991 27.5007 140.782 27.4307 140.503 27.3607C140.433 27.0805 140.363 26.8705 140.363 26.8705C140.363 26.3102 139.944 25.89 139.386 25.89C138.828 25.89 138.409 26.3102 138.409 26.8705ZM64.4873 55.5133C64.5571 55.2332 64.6269 55.0231 64.6269 55.0231C64.6269 54.4628 65.0457 54.0427 65.6042 54.0427C66.1626 54.0427 66.5814 54.4628 66.5814 55.0231C66.5814 55.0231 66.6512 55.1632 66.721 55.5133C67.0002 55.5833 67.2096 55.6534 67.2096 55.6534C67.768 55.6534 68.1869 56.0736 68.1869 56.6338C68.1869 57.1941 67.768 57.6143 67.2096 57.6143C67.2096 57.6143 67.0002 57.6843 66.721 57.7543C66.6512 58.0344 66.5814 58.2445 66.5814 58.2445C66.5814 58.8048 66.1626 59.225 65.6042 59.225C65.0457 59.225 64.6269 58.8048 64.6269 58.2445C64.6269 58.2445 64.5571 58.0344 64.4873 57.7543C64.2081 57.6843 63.9987 57.6143 63.9987 57.6143C63.4403 57.6143 63.0214 57.1941 63.0214 56.6338C63.0214 56.0736 63.4403 55.6534 63.9987 55.6534C63.9987 55.6534 64.2081 55.5833 64.4873 55.5133ZM30.7026 93.0502C30.7026 93.0502 30.6328 93.2603 30.563 93.5404C30.2838 93.6104 30.0744 93.6805 30.0744 93.6805C29.516 93.6805 29.0972 94.1006 29.0972 94.6609C29.0972 95.2211 29.516 95.6413 30.0744 95.6413C30.0744 95.6413 30.2838 95.7114 30.563 95.7814C30.6328 96.0615 30.7026 96.2716 30.7026 96.2716C30.7026 96.8319 31.1215 97.2521 31.6799 97.2521C32.2383 97.2521 32.6571 96.8319 32.6571 96.2716C32.6571 96.2716 32.7269 96.0615 32.7967 95.7814C33.0759 95.7114 33.2853 95.6413 33.2853 95.6413C33.8438 95.6413 34.2626 95.2211 34.2626 94.6609C34.2626 94.1006 33.8438 93.6805 33.2853 93.6805C33.2853 93.6805 33.0759 93.6104 32.7967 93.5404C32.7269 93.1902 32.6571 93.0502 32.6571 93.0502C32.6571 92.4899 32.2383 92.0697 31.6799 92.0697C31.1215 92.0697 30.7026 92.4899 30.7026 93.0502ZM229.502 171.555C229.571 171.275 229.641 171.065 229.641 171.065C229.641 170.505 230.06 170.085 230.619 170.085C231.177 170.085 231.596 170.505 231.596 171.065C231.596 171.065 231.666 171.205 231.735 171.555C232.015 171.625 232.224 171.695 232.224 171.695C232.782 171.695 233.201 172.116 233.201 172.676C233.201 173.236 232.782 173.656 232.224 173.656C232.224 173.656 232.015 173.726 231.735 173.796C231.666 174.077 231.596 174.287 231.596 174.287C231.596 174.847 231.177 175.267 230.619 175.267C230.06 175.267 229.641 174.847 229.641 174.287C229.641 174.287 229.571 174.077 229.502 173.796C229.222 173.726 229.013 173.656 229.013 173.656C228.455 173.656 228.036 173.236 228.036 172.676C228.036 172.116 228.455 171.695 229.013 171.695C229.048 171.695 229.1 171.678 229.179 171.652L229.179 171.652C229.257 171.625 229.362 171.59 229.502 171.555ZM108.882 215.605C108.952 215.325 109.022 215.115 109.022 215.115C109.022 214.555 109.44 214.135 109.999 214.135C110.557 214.135 110.976 214.555 110.976 215.115C110.976 215.115 111.046 215.325 111.116 215.605C111.395 215.675 111.604 215.745 111.604 215.745C112.163 215.745 112.582 216.165 112.582 216.726C112.582 217.286 112.163 217.706 111.604 217.706C111.604 217.706 111.395 217.776 111.116 217.846C111.046 218.126 110.976 218.336 110.976 218.336C110.976 218.897 110.557 219.317 109.999 219.317C109.44 219.317 109.022 218.897 109.022 218.336C109.022 218.336 108.952 218.126 108.882 217.846C108.603 217.776 108.393 217.706 108.393 217.706C107.835 217.706 107.416 217.286 107.416 216.726C107.416 216.165 107.835 215.745 108.393 215.745C108.393 215.745 108.603 215.675 108.882 215.605Z" fill="white"/>
<path d="M182.594 227.02C182.664 226.74 182.734 226.53 182.734 226.53C182.734 225.97 183.152 225.55 183.711 225.55C184.269 225.55 184.688 225.97 184.688 226.53C184.688 226.53 184.758 226.67 184.828 227.02C185.107 227.09 185.316 227.16 185.316 227.16C185.875 227.16 186.294 227.581 186.294 228.141C186.294 228.701 185.875 229.121 185.316 229.121C185.316 229.121 185.107 229.191 184.828 229.261C184.758 229.541 184.688 229.752 184.688 229.752C184.688 230.312 184.269 230.732 183.711 230.732C183.152 230.732 182.734 230.312 182.734 229.752C182.734 229.752 182.664 229.541 182.594 229.261C182.315 229.191 182.105 229.121 182.105 229.121C181.547 229.121 181.128 228.701 181.128 228.141C181.128 227.581 181.547 227.16 182.105 227.16C182.105 227.16 182.315 227.09 182.594 227.02Z" fill="white"/>
<path d="M231.177 211.403C231.247 211.123 231.317 210.913 231.317 210.913C231.317 210.353 231.735 209.933 232.294 209.933C232.852 209.933 233.271 210.353 233.271 210.913C233.271 210.913 233.341 211.053 233.411 211.403C233.69 211.473 233.899 211.543 233.899 211.543C234.458 211.543 234.877 211.964 234.877 212.524C234.877 213.084 234.458 213.504 233.899 213.504C233.899 213.504 233.69 213.574 233.411 213.644C233.341 213.924 233.271 214.135 233.271 214.135C233.271 214.695 232.852 215.115 232.294 215.115C231.735 215.115 231.317 214.695 231.317 214.135C231.317 214.135 231.247 213.924 231.177 213.644C230.898 213.574 230.688 213.504 230.688 213.504C230.13 213.504 229.711 213.084 229.711 212.524C229.711 211.964 230.13 211.543 230.688 211.543C230.758 211.543 230.898 211.473 231.177 211.403Z" fill="white"/>
<path d="M149.116 165.638C149.186 165.358 149.256 165.148 149.256 165.148C149.256 164.587 149.675 164.167 150.233 164.167C150.792 164.167 151.211 164.587 151.211 165.148C151.211 165.148 151.28 165.288 151.35 165.638C151.629 165.708 151.839 165.778 151.839 165.778C152.397 165.778 152.816 166.198 152.816 166.758C152.816 167.318 152.397 167.739 151.839 167.739C151.839 167.739 151.629 167.809 151.35 167.879C151.28 168.159 151.211 168.369 151.211 168.369C151.211 168.929 150.792 169.349 150.233 169.349C149.675 169.349 149.256 168.929 149.256 168.369C149.256 168.369 149.186 168.159 149.116 167.879C148.837 167.809 148.628 167.739 148.628 167.739C148.069 167.739 147.651 167.318 147.651 166.758C147.651 166.198 148.069 165.778 148.628 165.778C148.698 165.778 148.837 165.708 149.116 165.638Z" fill="white"/>
<path d="M188.206 53.6225C188.276 53.3423 188.346 53.1322 188.346 53.1322C188.346 52.572 188.765 52.1518 189.323 52.1518C189.882 52.1518 190.3 52.572 190.3 53.1322C190.3 53.1322 190.37 53.2723 190.44 53.6225C190.719 53.6925 190.929 53.7625 190.929 53.7625C191.487 53.7625 191.906 54.1827 191.906 54.743C191.906 55.3032 191.487 55.7234 190.929 55.7234C190.929 55.7234 190.719 55.7934 190.44 55.8635C190.37 56.1436 190.3 56.3537 190.3 56.3537C190.3 56.9139 189.882 57.3341 189.323 57.3341C188.765 57.3341 188.346 56.9139 188.346 56.3537C188.346 56.3537 188.276 56.1436 188.206 55.8635C187.927 55.7934 187.718 55.7234 187.718 55.7234C187.159 55.7234 186.74 55.3032 186.74 54.743C186.74 54.1827 187.159 53.7625 187.718 53.7625C187.788 53.7625 187.927 53.6925 188.206 53.6225Z" fill="white"/>
<path fill-rule="evenodd" clip-rule="evenodd" d="M9.76172 163.852C9.76172 163.852 9.69192 164.062 9.62211 164.342C9.3429 164.412 9.13349 164.482 9.13349 164.482C8.57507 164.482 8.15625 164.902 8.15625 165.463C8.15625 166.023 8.57507 166.443 9.13349 166.443C9.13349 166.443 9.3429 166.513 9.62211 166.583C9.69192 166.863 9.76172 167.073 9.76172 167.073C9.76172 167.634 10.1805 168.054 10.739 168.054C11.2974 168.054 11.7162 167.634 11.7162 167.073C11.7162 167.073 11.786 166.863 11.8558 166.583C12.135 166.513 12.3444 166.443 12.3444 166.443C12.9029 166.443 13.3217 166.023 13.3217 165.463C13.3217 164.902 12.9029 164.482 12.3444 164.482C12.3444 164.482 12.135 164.412 11.8558 164.342C11.786 164.062 11.7162 163.852 11.7162 163.852C11.7162 163.292 11.2974 162.872 10.739 162.872C10.1805 162.872 9.76172 163.292 9.76172 163.852ZM26.4446 240.606C26.4446 240.606 26.3748 240.817 26.305 241.097C26.1654 241.132 26.0607 241.167 25.9822 241.193C25.9037 241.219 25.8513 241.237 25.8164 241.237C25.258 241.237 24.8392 241.657 24.8392 242.217C24.8392 242.777 25.258 243.198 25.8164 243.198C25.8164 243.198 26.0258 243.268 26.305 243.338C26.3748 243.618 26.4446 243.828 26.4446 243.828C26.4446 244.388 26.8635 244.808 27.4219 244.808C27.9803 244.808 28.3991 244.388 28.3991 243.828C28.3991 243.828 28.4689 243.618 28.5387 243.338C28.8179 243.268 29.0274 243.198 29.0274 243.198C29.5858 243.198 30.0046 242.777 30.0046 242.217C30.0046 241.657 29.5858 241.237 29.0274 241.237C29.0274 241.237 28.8179 241.167 28.5387 241.097C28.4689 240.817 28.3991 240.606 28.3991 240.606C28.3991 240.046 27.9803 239.626 27.4219 239.626C26.8635 239.626 26.4446 240.046 26.4446 240.606Z" fill="#C9EB49"/>
<mask id="mask0_375_5" style="mask-type:luminance" maskUnits="userSpaceOnUse" x="32" y="218" width="12" height="11">
<rect x="32.9412" y="218.235" width="10.2941" height="10.2941" fill="white"/>
</mask>
<g mask="url(#mask0_375_5)">
<path d="M36.8692 222.163C37.0046 220.47 37.1401 219.183 37.1401 219.183C37.1401 218.642 37.5464 218.235 38.0882 218.235C38.63 218.235 39.0364 218.642 39.0364 219.183C39.0364 219.183 39.2395 220.538 39.3073 222.163C39.6459 222.163 39.9168 222.231 40.1877 222.231C41.4067 222.299 42.2871 222.434 42.2871 222.434C42.8289 222.434 43.2353 222.841 43.2353 223.382C43.2353 223.924 42.8289 224.33 42.2871 224.33C42.2871 224.33 41.4067 224.466 40.1877 224.534C39.9168 224.534 39.6459 224.601 39.3073 224.601C39.3073 224.94 39.2395 225.211 39.2395 225.482C39.1718 226.701 39.0364 227.581 39.0364 227.581C39.0364 228.123 38.63 228.529 38.0882 228.529C37.5464 228.529 37.1401 228.123 37.1401 227.581C37.1401 227.581 37.0046 226.701 36.9369 225.482C36.9369 225.211 36.8692 224.872 36.8692 224.601C35.2438 224.466 33.8893 224.33 33.8893 224.33C33.3475 224.33 32.9412 223.924 32.9412 223.382C32.9412 222.841 33.3475 222.434 33.8893 222.434C33.8893 222.434 35.1761 222.231 36.8692 222.163Z" fill="#C9EB49"/>
</g>
<mask id="mask1_375_5" style="mask-type:luminance" maskUnits="userSpaceOnUse" x="191" y="269" width="11" height="11">
<rect x="191.471" y="269.706" width="10.2941" height="10.2941" fill="white"/>
</mask>
<g mask="url(#mask1_375_5)">
<path d="M195.399 273.634C195.534 271.941 195.67 270.654 195.67 270.654C195.67 270.112 196.076 269.706 196.618 269.706C197.16 269.706 197.566 270.112 197.566 270.654C197.566 270.654 197.769 272.009 197.837 273.634C198.175 273.634 198.446 273.702 198.717 273.702C199.936 273.769 200.817 273.905 200.817 273.905C201.358 273.905 201.765 274.311 201.765 274.853C201.765 275.395 201.358 275.801 200.817 275.801C200.817 275.801 199.936 275.937 198.717 276.004C198.446 276.004 198.175 276.072 197.837 276.072C197.837 276.411 197.769 276.681 197.769 276.952C197.701 278.171 197.566 279.052 197.566 279.052C197.566 279.594 197.16 280 196.618 280C196.076 280 195.67 279.594 195.67 279.052C195.67 279.052 195.534 278.171 195.466 276.952C195.466 276.681 195.399 276.343 195.399 276.072C193.773 275.937 192.419 275.801 192.419 275.801C191.877 275.801 191.471 275.395 191.471 274.853C191.471 274.311 191.877 273.905 192.419 273.905C192.419 273.905 193.706 273.702 195.399 273.634Z" fill="#C9EB49"/>
</g>
<mask id="mask2_375_5" style="mask-type:luminance" maskUnits="userSpaceOnUse" x="268" y="142" width="11" height="11">
<rect x="268.677" y="142.059" width="10.2941" height="10.2941" fill="white"/>
</mask>
<g mask="url(#mask2_375_5)">
<path d="M272.605 145.987C272.74 144.294 272.875 143.007 272.875 143.007C272.875 142.465 273.282 142.059 273.824 142.059C274.365 142.059 274.772 142.465 274.772 143.007C274.772 143.007 274.975 144.361 275.043 145.987C275.381 145.987 275.652 146.055 275.923 146.055C277.142 146.122 278.022 146.258 278.022 146.258C278.564 146.258 278.971 146.664 278.971 147.206C278.971 147.748 278.564 148.154 278.022 148.154C278.022 148.154 277.142 148.289 275.923 148.357C275.652 148.357 275.381 148.425 275.043 148.425C275.043 148.764 274.975 149.034 274.975 149.305C274.907 150.524 274.772 151.405 274.772 151.405C274.772 151.947 274.365 152.353 273.824 152.353C273.282 152.353 272.875 151.947 272.875 151.405C272.875 151.405 272.74 150.524 272.672 149.305C272.672 149.034 272.605 148.696 272.605 148.425C270.979 148.289 269.625 148.154 269.625 148.154C269.083 148.154 268.677 147.748 268.677 147.206C268.677 146.664 269.083 146.258 269.625 146.258C269.625 146.258 270.911 146.055 272.605 145.987Z" fill="#C9EB49"/>
</g>
<mask id="mask3_375_5" style="mask-type:luminance" maskUnits="userSpaceOnUse" x="236" y="71" width="12" height="11">
<rect x="236.765" y="71.0294" width="10.2941" height="10.2941" fill="white"/>
</mask>
<g mask="url(#mask3_375_5)">
<path d="M240.693 74.9574C240.828 73.2643 240.964 71.9776 240.964 71.9776C240.964 71.4358 241.37 71.0294 241.912 71.0294C242.454 71.0294 242.86 71.4358 242.86 71.9776C242.86 71.9776 243.063 73.3321 243.131 74.9574C243.469 74.9574 243.74 75.0252 244.011 75.0252C245.23 75.0929 246.111 75.2283 246.111 75.2283C246.652 75.2283 247.059 75.6347 247.059 76.1765C247.059 76.7183 246.652 77.1246 246.111 77.1246C246.111 77.1246 245.23 77.2601 244.011 77.3278C243.74 77.3278 243.469 77.3955 243.131 77.3955C243.131 77.7341 243.063 78.005 243.063 78.2759C242.995 79.495 242.86 80.3754 242.86 80.3754C242.86 80.9172 242.454 81.3235 241.912 81.3235C241.37 81.3235 240.964 80.9172 240.964 80.3754C240.964 80.3754 240.828 79.495 240.76 78.2759C240.76 78.005 240.693 77.6664 240.693 77.3955C239.067 77.2601 237.713 77.1246 237.713 77.1246C237.171 77.1246 236.765 76.7183 236.765 76.1765C236.765 75.6347 237.171 75.2283 237.713 75.2283C237.713 75.2283 239 75.0252 240.693 74.9574Z" fill="#C9EB49"/>
</g>
<mask id="mask4_375_5" style="mask-type:luminance" maskUnits="userSpaceOnUse" x="264" y="163" width="8" height="8">
<rect x="264.559" y="163.676" width="7.20588" height="7.20588" fill="white"/>
</mask>
<g mask="url(#mask4_375_5)">
<path d="M266.515 165.632C266.618 165.324 266.721 165.118 266.721 165.118C266.721 164.294 267.338 163.676 268.162 163.676C268.985 163.676 269.603 164.294 269.603 165.118C269.603 165.118 269.706 165.324 269.809 165.632C270.118 165.735 270.324 165.838 270.324 165.838C271.147 165.838 271.765 166.456 271.765 167.279C271.765 168.103 271.147 168.721 270.324 168.721C270.324 168.721 270.118 168.824 269.809 168.926C269.706 169.235 269.603 169.441 269.603 169.441C269.603 170.265 268.985 170.882 268.162 170.882C267.338 170.882 266.721 170.265 266.721 169.441C266.721 169.441 266.618 169.235 266.515 168.926C266.206 168.824 266 168.721 266 168.721C265.176 168.721 264.559 168.103 264.559 167.279C264.559 166.456 265.176 165.838 266 165.838C266 165.838 266.206 165.735 266.515 165.632Z" fill="#C9EB49"/>
</g>
<mask id="mask5_375_5" style="mask-type:luminance" maskUnits="userSpaceOnUse" x="252" y="44" width="7" height="7">
<rect x="252.206" y="44.2647" width="6.17647" height="6.17647" fill="white"/>
</mask>
<g mask="url(#mask5_375_5)">
<path d="M253.882 45.9412C253.971 45.6765 254.059 45.5 254.059 45.5C254.059 44.7941 254.588 44.2647 255.294 44.2647C256 44.2647 256.529 44.7941 256.529 45.5C256.529 45.5 256.618 45.6765 256.706 45.9412C256.971 46.0294 257.147 46.1177 257.147 46.1177C257.853 46.1177 258.382 46.6471 258.382 47.3529C258.382 48.0588 257.853 48.5882 257.147 48.5882C257.147 48.5882 256.971 48.6765 256.706 48.7647C256.618 49.0294 256.529 49.2059 256.529 49.2059C256.529 49.9118 256 50.4412 255.294 50.4412C254.588 50.4412 254.059 49.9118 254.059 49.2059C254.059 49.2059 253.971 49.0294 253.882 48.7647C253.618 48.6765 253.441 48.5882 253.441 48.5882C252.735 48.5882 252.206 48.0588 252.206 47.3529C252.206 46.6471 252.735 46.1177 253.441 46.1177C253.441 46.1177 253.618 46.0294 253.882 45.9412Z" fill="#C9EB49"/>
</g>
<mask id="mask6_375_5" style="mask-type:luminance" maskUnits="userSpaceOnUse" x="257" y="84" width="6" height="6">
<rect x="257.353" y="84.4118" width="5.14706" height="5.14706" fill="white"/>
</mask>
<g mask="url(#mask6_375_5)">
<path d="M258.75 85.8088C258.824 85.5882 258.897 85.4412 258.897 85.4412C258.897 84.853 259.338 84.4118 259.927 84.4118C260.515 84.4118 260.956 84.853 260.956 85.4412C260.956 85.4412 261.029 85.5882 261.103 85.8088C261.324 85.8824 261.471 85.9559 261.471 85.9559C262.059 85.9559 262.5 86.3971 262.5 86.9853C262.5 87.5735 262.059 88.0147 261.471 88.0147C261.471 88.0147 261.324 88.0882 261.103 88.1618C261.029 88.3824 260.956 88.5294 260.956 88.5294C260.956 89.1177 260.515 89.5588 259.927 89.5588C259.338 89.5588 258.897 89.1177 258.897 88.5294C258.897 88.5294 258.824 88.3824 258.75 88.1618C258.529 88.0882 258.382 88.0147 258.382 88.0147C257.794 88.0147 257.353 87.5735 257.353 86.9853C257.353 86.3971 257.794 85.9559 258.382 85.9559C258.382 85.9559 258.529 85.8824 258.75 85.8088Z" fill="#C9EB49"/>
</g>
<mask id="mask7_375_5" style="mask-type:luminance" maskUnits="userSpaceOnUse" x="25" y="237" width="6" height="6">
<rect x="25.7354" y="237.794" width="5.14706" height="5.14706" fill="white"/>
</mask>
<g mask="url(#mask7_375_5)">
<path d="M27.1324 239.191C27.2059 238.971 27.2795 238.824 27.2795 238.824C27.2795 238.235 27.7206 237.794 28.3089 237.794C28.8971 237.794 29.3383 238.235 29.3383 238.824C29.3383 238.824 29.4118 238.971 29.4854 239.191C29.7059 239.265 29.853 239.338 29.853 239.338C30.4412 239.338 30.8824 239.779 30.8824 240.368C30.8824 240.956 30.4412 241.397 29.853 241.397C29.853 241.397 29.7059 241.471 29.4854 241.544C29.4118 241.765 29.3383 241.912 29.3383 241.912C29.3383 242.5 28.8971 242.941 28.3089 242.941C27.7206 242.941 27.2795 242.5 27.2795 241.912C27.2795 241.912 27.2059 241.765 27.1324 241.544C26.9118 241.471 26.7648 241.397 26.7648 241.397C26.1765 241.397 25.7354 240.956 25.7354 240.368C25.7354 239.779 26.1765 239.338 26.7648 239.338C26.7648 239.338 26.9118 239.265 27.1324 239.191Z" fill="#C9EB49"/>
</g>
<mask id="mask8_375_5" style="mask-type:luminance" maskUnits="userSpaceOnUse" x="9" y="161" width="6" height="6">
<rect x="9.26465" y="161.618" width="5.14706" height="5.14706" fill="white"/>
</mask>
<g mask="url(#mask8_375_5)">
<path d="M10.6617 163.015C10.7352 162.794 10.8088 162.647 10.8088 162.647C10.8088 162.059 11.2499 161.618 11.8382 161.618C12.4264 161.618 12.8676 162.059 12.8676 162.647C12.8676 162.647 12.9411 162.794 13.0146 163.015C13.2352 163.088 13.3823 163.162 13.3823 163.162C13.9705 163.162 14.4117 163.603 14.4117 164.191C14.4117 164.779 13.9705 165.221 13.3823 165.221C13.3823 165.221 13.2352 165.294 13.0146 165.368C12.9411 165.588 12.8676 165.735 12.8676 165.735C12.8676 166.324 12.4264 166.765 11.8382 166.765C11.2499 166.765 10.8088 166.324 10.8088 165.735C10.8088 165.735 10.7352 165.588 10.6617 165.368C10.4411 165.294 10.2941 165.221 10.2941 165.221C9.70582 165.221 9.26465 164.779 9.26465 164.191C9.26465 163.603 9.70582 163.162 10.2941 163.162C10.2941 163.162 10.4411 163.088 10.6617 163.015Z" fill="#C9EB49"/>
</g>
<mask id="mask9_375_5" style="mask-type:luminance" maskUnits="userSpaceOnUse" x="0" y="172" width="6" height="7">
<rect y="172.941" width="5.14706" height="5.14706" fill="white"/>
</mask>
<g mask="url(#mask9_375_5)">
<path d="M1.39706 174.338C1.47059 174.118 1.54412 173.971 1.54412 173.971C1.54412 173.382 1.98529 172.941 2.57353 172.941C3.16176 172.941 3.60294 173.382 3.60294 173.971C3.60294 173.971 3.67647 174.118 3.75 174.338C3.97059 174.412 4.11765 174.485 4.11765 174.485C4.70588 174.485 5.14706 174.926 5.14706 175.515C5.14706 176.103 4.70588 176.544 4.11765 176.544C4.11765 176.544 3.97059 176.618 3.75 176.691C3.67647 176.912 3.60294 177.059 3.60294 177.059C3.60294 177.647 3.16176 178.088 2.57353 178.088C1.98529 178.088 1.54412 177.647 1.54412 177.059C1.54412 177.059 1.47059 176.912 1.39706 176.691C1.17647 176.618 1.02941 176.544 1.02941 176.544C0.441176 176.544 0 176.103 0 175.515C0 174.926 0.441176 174.485 1.02941 174.485C1.02941 174.485 1.17647 174.412 1.39706 174.338Z" fill="#C9EB49"/>
</g>
<mask id="mask10_375_5" style="mask-type:luminance" maskUnits="userSpaceOnUse" x="124" y="248" width="6" height="6">
<rect x="124.559" y="248.088" width="5.14706" height="5.14706" fill="white"/>
</mask>
<g mask="url(#mask10_375_5)">
<path d="M125.956 249.485C126.029 249.265 126.103 249.118 126.103 249.118C126.103 248.529 126.544 248.088 127.132 248.088C127.721 248.088 128.162 248.529 128.162 249.118C128.162 249.118 128.235 249.265 128.309 249.485C128.529 249.559 128.676 249.632 128.676 249.632C129.265 249.632 129.706 250.074 129.706 250.662C129.706 251.25 129.265 251.691 128.676 251.691C128.676 251.691 128.529 251.765 128.309 251.838C128.235 252.059 128.162 252.206 128.162 252.206C128.162 252.794 127.721 253.235 127.132 253.235C126.544 253.235 126.103 252.794 126.103 252.206C126.103 252.206 126.029 252.059 125.956 251.838C125.735 251.765 125.588 251.691 125.588 251.691C125 251.691 124.559 251.25 124.559 250.662C124.559 250.074 125 249.632 125.588 249.632C125.588 249.632 125.735 249.559 125.956 249.485Z" fill="#C9EB49"/>
</g>
<mask id="mask11_375_5" style="mask-type:luminance" maskUnits="userSpaceOnUse" x="216" y="267" width="6" height="6">
<rect x="216.177" y="267.647" width="5.14706" height="5.14706" fill="white"/>
</mask>
<g mask="url(#mask11_375_5)">
<path d="M217.574 269.044C217.647 268.824 217.721 268.676 217.721 268.676C217.721 268.088 218.162 267.647 218.75 267.647C219.338 267.647 219.779 268.088 219.779 268.676C219.779 268.676 219.853 268.824 219.927 269.044C220.147 269.118 220.294 269.191 220.294 269.191C220.882 269.191 221.324 269.632 221.324 270.221C221.324 270.809 220.882 271.25 220.294 271.25C220.294 271.25 220.147 271.324 219.927 271.397C219.853 271.618 219.779 271.765 219.779 271.765C219.779 272.353 219.338 272.794 218.75 272.794C218.162 272.794 217.721 272.353 217.721 271.765C217.721 271.765 217.647 271.618 217.574 271.397C217.353 271.324 217.206 271.25 217.206 271.25C216.618 271.25 216.177 270.809 216.177 270.221C216.177 269.632 216.618 269.191 217.206 269.191C217.206 269.191 217.353 269.118 217.574 269.044Z" fill="#C9EB49"/>
</g>
<mask id="mask12_375_5" style="mask-type:luminance" maskUnits="userSpaceOnUse" x="106" y="75" width="19" height="19">
<rect x="106.029" y="75.1471" width="18.5294" height="18.5294" fill="white"/>
</mask>
<g mask="url(#mask12_375_5)">
<path d="M111.059 80.1765C111.323 79.3824 111.588 78.8529 111.588 78.8529C111.588 76.7353 113.176 75.1471 115.294 75.1471C117.412 75.1471 119 76.7353 119 78.8529C119 78.8529 119.265 79.3824 119.529 80.1765C120.323 80.4412 120.853 80.7059 120.853 80.7059C122.97 80.7059 124.559 82.2941 124.559 84.4118C124.559 86.5294 122.97 88.1177 120.853 88.1177C120.853 88.1177 120.323 88.3824 119.529 88.6471C119.265 89.4412 119 89.9706 119 89.9706C119 92.0882 117.412 93.6765 115.294 93.6765C113.176 93.6765 111.588 92.0882 111.588 89.9706C111.588 89.9706 111.323 89.4412 111.059 88.6471C110.265 88.3824 109.735 88.1177 109.735 88.1177C107.618 88.1177 106.029 86.5294 106.029 84.4118C106.029 82.2941 107.618 80.7059 109.735 80.7059C109.735 80.7059 110.265 80.4412 111.059 80.1765Z" fill="#C9EB49"/>
</g>
<path d="M51.3529 180.029C51.6176 179.235 51.8823 178.706 51.8823 178.706C51.8823 176.588 53.4705 175 55.5882 175C57.7058 175 59.2941 176.588 59.2941 178.706C59.2941 178.706 59.5588 179.235 59.8235 180.029C60.6176 180.294 61.147 180.559 61.147 180.559C63.2647 180.559 64.8529 182.147 64.8529 184.265C64.8529 186.382 63.2647 187.971 61.147 187.971C61.147 187.971 60.6176 188.235 59.8235 188.5C59.5588 189.294 59.2941 189.824 59.2941 189.824C59.2941 191.941 57.7058 193.529 55.5882 193.529C53.4705 193.529 51.8823 191.941 51.8823 189.824C51.8823 189.824 51.6176 189.294 51.3529 188.5C50.5588 188.235 50.0294 187.971 50.0294 187.971C47.9117 187.971 46.3235 186.382 46.3235 184.265C46.3235 182.147 47.9117 180.559 50.0294 180.559C50.0294 180.559 50.5588 180.294 51.3529 180.029Z" fill="#C9EB49"/>
<mask id="mask13_375_5" style="mask-type:luminance" maskUnits="userSpaceOnUse" x="35" y="41" width="180" height="179">
<rect x="35" y="41.1765" width="179.118" height="178.088" fill="white"/>
</mask>
<g mask="url(#mask13_375_5)">
<path d="M147.492 101.297C150.067 102.69 153.198 102.76 155.912 101.576C158.626 100.322 160.575 97.9539 161.201 95.0287C161.688 92.6607 162.314 90.432 162.941 88.2033C170.525 62.2943 184.234 46.9719 184.234 46.9719C189.244 40.4946 198.569 39.241 205.04 44.2556C211.512 49.2702 212.764 58.603 207.754 65.0802C207.754 65.0802 200.169 77.6168 195.576 96.9092C193.558 105.406 191.958 115.296 192.375 126.161C192.723 133.753 194.115 143.503 211.999 152.418C213.878 153.324 214.643 155.622 213.738 157.503C208.102 168.994 190.149 205.559 184.443 217.121C183.956 218.026 183.19 218.793 182.146 219.071C181.172 219.419 180.059 219.28 179.154 218.793C174.074 216.007 164.68 210.922 159.461 208.067C157.304 206.883 154.66 207.092 152.711 208.554C148.327 211.758 139.142 216.424 126.686 211.828C108.802 205.211 64.1281 183.969 57.7262 180.138C54.0381 177.909 51.3938 175.123 50.4196 171.989C45.6878 168.646 42.5564 166.069 42.5564 166.069C35.5978 162.378 32.9535 153.672 36.7111 146.707C39.2858 141.832 44.296 139.116 49.515 139.185C44.0177 135.006 42.2085 127.345 45.5486 121.077C47.8449 116.759 52.0897 114.112 56.6128 113.625C50.4196 109.655 48.1929 101.506 51.7418 94.8894C55.0819 88.6211 62.458 85.9049 68.9296 88.1336C67.1203 84.2333 67.1203 79.4973 69.2775 75.3881C72.9656 68.4233 81.6638 65.7767 88.6225 69.5377C88.6225 69.5377 93.5631 71.0699 100.104 73.7166C103.583 75.1095 107.48 76.5721 111.168 78.6615C121.885 84.6512 131.279 92.3821 131.279 92.3821C132.114 92.8696 132.949 93.3572 133.645 93.984C133.575 93.7751 140.743 97.6753 147.492 101.297Z" fill="white"/>
<path d="M126.408 98.5807C129.33 100.252 130.374 104.013 128.774 106.938C127.104 109.864 123.346 110.908 120.423 109.306C117.501 107.635 118.475 105.058 120.145 102.063C121.746 99.1379 123.416 96.9092 126.408 98.5807Z" fill="#C9EB49"/>
<path d="M196.759 57.4887C198.429 54.5635 201.77 53.3098 204.135 54.7028C206.501 56.0957 207.058 59.5781 205.388 62.5033C203.718 65.4285 201.561 64.6624 199.125 63.2694C196.829 61.8765 195.089 60.4139 196.759 57.4887Z" fill="#C9EB49"/>
<path d="M114.787 121.634C117.71 123.306 118.753 127.067 117.153 129.992C115.483 132.917 111.725 133.962 108.803 132.36C105.88 130.688 106.854 128.111 108.524 125.116C110.125 122.122 111.864 119.963 114.787 121.634Z" fill="#C9EB49"/>
<path d="M101.566 143.991C104.488 145.663 105.532 149.424 103.931 152.349C102.331 155.274 98.5037 156.319 95.5811 154.717C92.6585 153.045 93.6327 150.468 95.3028 147.473C96.9032 144.479 98.6429 142.319 101.566 143.991Z" fill="#C9EB49"/>
<path d="M91.058 169.691C93.9806 171.363 95.0244 175.123 93.4239 178.049C91.7538 180.974 87.9962 182.019 85.0735 180.417C82.1509 178.745 83.1251 176.168 84.7952 173.173C86.3957 170.178 88.1353 168.019 91.058 169.691Z" fill="#C9EB49"/>
<path d="M123.207 119.823C121.537 118.918 116.387 116.132 109.777 112.51C105.532 110.142 100.661 107.496 95.8593 104.779C93.0759 103.177 90.2228 101.576 87.5786 100.043C77.0015 93.984 68.3032 88.8301 68.3032 88.8301C67.8161 88.5515 67.6769 87.9943 67.9553 87.5068C68.2336 87.0192 68.7903 86.8799 69.2774 87.1585C69.2774 87.1585 78.1844 91.9642 88.8311 97.8843C91.545 99.3469 94.398 100.949 97.1815 102.551C101.983 105.267 106.784 108.053 110.96 110.49C117.153 114.112 122.093 116.968 123.903 118.082C123.972 118.082 124.042 118.082 124.111 118.082C126.547 118.152 128.982 117.525 131.07 116.341C133.088 115.157 134.897 113.416 136.08 111.187C137.124 109.306 137.611 107.217 137.681 105.197C137.75 103.108 137.263 101.018 136.358 99.0683C136.15 98.5807 136.289 97.9539 136.776 97.745C137.263 97.536 137.889 97.6753 138.098 98.1629C139.212 100.322 139.768 102.76 139.699 105.197C139.699 107.565 139.072 109.933 137.959 112.162C136.567 114.809 134.549 116.828 132.183 118.221C130.304 119.336 128.217 120.032 126.129 120.241C127.173 122.191 127.73 124.281 127.869 126.44C128.078 129.226 127.521 132.081 126.129 134.728C124.598 137.583 122.372 139.742 119.727 141.135C117.779 142.18 115.552 142.807 113.325 142.946C114.23 144.827 114.787 146.847 114.926 148.936C115.135 151.722 114.578 154.647 113.117 157.363C111.655 160.08 109.498 162.239 106.993 163.632C105.253 164.607 103.375 165.233 101.357 165.512C102.818 167.532 103.792 169.83 104.21 172.198C104.766 175.472 104.279 178.954 102.54 182.088C100.313 186.197 97.3206 188.635 93.3542 189.541C90.1532 190.237 86.3956 189.889 81.8029 188.496C77.5581 187.242 74.0093 185.988 70.9475 184.735C66.146 182.785 62.8059 181.044 60.5791 179.929C60.092 179.72 59.8833 179.093 60.092 178.606C60.3008 178.118 60.927 177.909 61.4142 178.118C63.6409 179.163 66.981 180.835 71.7129 182.715C74.7051 183.899 78.1844 185.083 82.4292 186.267C86.5348 187.521 90.0141 187.869 92.7975 187.172C96.0681 186.406 98.5036 184.317 100.313 180.904C101.705 178.258 102.122 175.332 101.635 172.546C101.148 169.761 99.7561 167.114 97.599 165.164C97.4598 165.025 97.3206 164.885 97.251 164.746C95.581 163.91 91.1275 161.751 85.6301 159.035C81.8725 157.154 77.5581 155.065 73.2438 152.906C70.7387 151.652 68.2336 150.329 65.8677 149.075C56.5431 144.2 48.7495 140.021 48.7495 140.021C48.2624 139.742 48.0536 139.185 48.3319 138.698C48.6103 138.21 49.167 138.001 49.6541 138.28C49.6541 138.28 57.5869 142.11 66.981 146.777C69.4166 147.961 71.9217 149.215 74.3572 150.468C78.6019 152.627 82.8467 154.856 86.6044 156.806C92.0321 159.662 96.416 161.96 98.0861 162.865C98.2252 162.865 98.2948 162.796 98.434 162.865C100.939 163.005 103.375 162.378 105.532 161.194C107.619 160.01 109.429 158.269 110.612 155.97C111.795 153.742 112.282 151.374 112.142 149.006C112.003 146.568 111.168 144.27 109.777 142.319C109.707 142.25 109.707 142.18 109.637 142.041C107.828 141.135 102.888 138.698 96.6248 135.633C92.4496 133.544 87.6481 131.176 82.9163 128.738C80.1328 127.345 77.419 125.883 74.7747 124.49C64.4064 119.057 55.8473 114.391 55.8473 114.391C55.3602 114.112 55.1514 113.555 55.4297 113.067C55.7081 112.58 56.2648 112.371 56.7519 112.65C56.7519 112.65 65.5197 116.968 75.9577 122.191C78.6019 123.515 81.3854 124.908 84.1688 126.37C88.9007 128.808 93.6326 131.315 97.7381 133.474C103.862 136.748 108.733 139.325 110.542 140.3C110.681 140.3 110.82 140.23 110.96 140.3C113.534 140.578 116.109 140.091 118.405 138.837C120.632 137.653 122.511 135.842 123.763 133.474C124.946 131.245 125.433 128.877 125.294 126.509C125.364 124.141 124.529 121.773 123.207 119.823Z" fill="#C9EB49"/>
<path d="M82.0812 118.5C82.0812 118.5 82.7075 117.455 83.5426 115.923C83.9601 115.157 84.4472 114.251 84.8647 113.346C85.143 112.789 85.3518 112.232 85.5606 111.744C86.3956 109.655 87.0219 107.914 87.0219 107.914C87.2306 107.426 87.0219 106.799 86.5348 106.59C86.0477 106.381 85.4214 106.59 85.2126 107.078C85.2126 107.078 84.308 108.68 83.2642 110.699C82.9859 111.187 82.7075 111.744 82.4988 112.301C82.0812 113.207 81.7333 114.182 81.3854 115.018C80.7591 116.619 80.3416 117.803 80.3416 117.803C80.1328 118.291 80.3416 118.918 80.8287 119.127C81.2462 119.196 81.8029 118.988 82.0812 118.5Z" fill="#C9EB49"/>
<path d="M57.3085 166.626C57.3085 166.626 57.9348 165.582 58.7699 164.05C59.1874 163.283 59.6745 162.378 60.092 161.473C60.3703 160.915 60.5791 160.358 60.7879 159.871C61.6229 157.781 62.2492 156.04 62.2492 156.04C62.4579 155.552 62.2492 154.926 61.7621 154.717C61.275 154.508 60.6487 154.717 60.4399 155.204C60.4399 155.204 59.5353 156.806 58.4915 158.826C58.2132 159.313 57.9348 159.871 57.7261 160.428C57.3085 161.333 56.9606 162.308 56.6127 163.144C55.9864 164.746 55.5689 165.93 55.5689 165.93C55.3601 166.418 55.5689 167.044 56.056 167.253C56.5431 167.323 57.0998 167.114 57.3085 166.626Z" fill="#C9EB49"/>
<path d="M96.1376 92.1035C96.1376 92.1035 96.7639 91.0588 97.599 89.5266C98.0165 88.7604 98.5036 87.855 98.9211 86.9496C99.1994 86.3924 99.4082 85.8352 99.617 85.3477C100.452 83.2583 101.078 81.5171 101.078 81.5171C101.287 81.0295 101.078 80.4027 100.591 80.1938C100.104 79.9848 99.4778 80.1938 99.269 80.6813C99.269 80.6813 98.3644 82.2832 97.3206 84.303C97.0423 84.7905 96.7639 85.3477 96.5552 85.9049C96.1376 86.8103 95.7897 87.7854 95.4418 88.6211C94.8155 90.223 94.398 91.407 94.398 91.407C94.1892 91.8946 94.398 92.5214 94.8851 92.7303C95.3722 92.8 95.9289 92.5911 96.1376 92.1035Z" fill="#C9EB49"/>
<path d="M89.3879 118.361C89.3879 118.361 89.8054 117.734 90.2925 116.898C90.5709 116.411 90.8492 115.923 91.1276 115.366C91.2667 115.018 91.4059 114.739 91.4755 114.391C91.893 113.137 92.2409 112.092 92.2409 112.092C92.4497 111.605 92.2409 110.978 91.7538 110.769C91.2667 110.56 90.6404 110.769 90.4317 111.257C90.4317 111.257 89.8054 112.162 89.1791 113.346C89.04 113.625 88.8312 113.973 88.692 114.251C88.4137 114.809 88.2745 115.366 88.0658 115.853C87.7178 116.828 87.5787 117.525 87.5787 117.525C87.3699 118.012 87.5787 118.639 88.0658 118.848C88.5529 119.057 89.1096 118.848 89.3879 118.361Z" fill="#C9EB49"/>
<path d="M67.7465 138.419C67.7465 138.419 68.164 137.792 68.6512 136.957C68.9295 136.469 69.2078 135.982 69.4862 135.424C69.6254 135.076 69.7645 134.798 69.9037 134.449C70.3212 133.196 70.6692 132.151 70.6692 132.151C70.8779 131.663 70.6692 131.037 70.182 130.828C69.6949 130.619 69.0687 130.828 68.8599 131.315C68.8599 131.315 68.2336 132.221 67.6074 133.405C67.4682 133.683 67.2594 134.031 67.1203 134.31C66.8419 134.867 66.7027 135.424 66.494 135.912C66.146 136.887 66.0069 137.583 66.0069 137.583C65.7981 138.071 66.0069 138.698 66.494 138.907C66.9115 139.116 67.4682 138.907 67.7465 138.419Z" fill="#C9EB49"/>
<path d="M75.8186 114.112C75.8186 114.112 76.0969 113.834 76.4448 113.346C76.584 113.137 76.7928 112.859 76.9319 112.58C77.0015 112.441 77.0711 112.232 77.1407 112.023C77.3494 111.326 77.419 110.769 77.419 110.769C77.6278 110.282 77.419 109.655 76.9319 109.446C76.4448 109.237 75.8186 109.446 75.6098 109.933C75.6098 109.933 75.1923 110.351 74.7748 110.978C74.7052 111.117 74.566 111.257 74.4964 111.466C74.3572 111.744 74.2877 112.092 74.2181 112.371C74.0789 112.928 74.0789 113.276 74.0789 113.276C73.8701 113.764 74.0789 114.391 74.566 114.6C74.9835 114.809 75.6098 114.6 75.8186 114.112Z" fill="#C9EB49"/>
<path d="M53.9685 157.781C53.9685 157.781 54.2468 157.503 54.5947 157.015C54.7339 156.806 54.9427 156.528 55.0818 156.249C55.1514 156.11 55.221 155.901 55.2906 155.761C55.4994 155.065 55.5689 154.438 55.5689 154.438C55.7777 153.951 55.5689 153.324 55.0818 153.115C54.5947 152.906 53.9685 153.115 53.7597 153.602C53.7597 153.602 53.3422 154.02 52.9247 154.647C52.8551 154.786 52.7159 154.926 52.6463 155.135C52.5071 155.413 52.4376 155.761 52.368 156.04C52.2288 156.597 52.2288 156.945 52.2288 156.945C52.02 157.433 52.2288 158.06 52.7159 158.269C53.1334 158.547 53.7597 158.269 53.9685 157.781Z" fill="#C9EB49"/>
<path d="M154.103 207.719C154.173 207.649 154.242 207.51 154.312 207.44C154.938 206.674 155.634 205.838 156.26 205.072C156.678 204.515 157.095 204.027 157.582 203.47C159.392 201.241 161.201 198.804 162.384 196.436C162.593 195.948 163.219 195.739 163.706 195.948C164.193 196.157 164.402 196.784 164.193 197.271C163.219 199.57 161.827 201.938 160.296 204.167C159.67 205.072 158.974 205.977 158.278 206.883C158.069 207.092 157.93 207.301 157.722 207.51C156.539 207.161 155.286 207.231 154.103 207.719Z" fill="#C9EB49"/>
<path d="M197.247 90.5016C197.177 90.5016 197.107 90.432 197.038 90.432C196.481 90.223 195.994 89.9444 195.437 89.7355C194.533 89.3176 193.628 88.7604 192.863 88.3426C191.401 87.5068 190.358 86.88 190.358 86.88C189.87 86.671 189.662 86.0442 189.87 85.5566C190.079 85.0691 190.705 84.8602 191.193 85.0691C191.193 85.0691 192.376 85.487 193.906 86.1138C194.741 86.4621 195.646 86.8103 196.551 87.2978C197.038 87.5068 197.525 87.7854 197.942 88.064C197.734 88.8301 197.525 89.6659 197.247 90.5016Z" fill="#C9EB49"/>
<path d="M199.543 83.4672C199.265 83.3279 198.986 83.2583 198.778 83.119C198.151 82.7707 197.525 82.4225 196.968 82.0743C195.924 81.4474 195.159 80.9599 195.159 80.9599C194.672 80.751 194.463 80.1241 194.672 79.6366C194.881 79.1491 195.507 78.9401 195.994 79.1491C195.994 79.1491 196.829 79.4277 198.012 79.8455C198.638 80.0545 199.265 80.3331 199.96 80.6813C200.169 80.751 200.308 80.8903 200.517 80.9599C200.1 81.726 199.821 82.5618 199.543 83.4672Z" fill="#C9EB49"/>
<path d="M75.4707 136.748C75.4707 136.748 75.749 136.469 76.0969 135.982C76.2361 135.773 76.4449 135.494 76.584 135.215C76.6536 135.076 76.7232 134.867 76.7928 134.658C77.0015 133.962 77.0711 133.405 77.0711 133.405C77.2799 132.917 77.0711 132.29 76.584 132.081C76.0969 131.872 75.4707 132.081 75.2619 132.569C75.2619 132.569 74.8444 132.987 74.4269 133.614C74.3573 133.753 74.2181 133.892 74.1485 134.101C74.0093 134.38 73.9398 134.728 73.8702 135.006C73.731 135.564 73.731 135.912 73.731 135.912C73.5222 136.399 73.731 137.026 74.2181 137.235C74.7052 137.444 75.2619 137.235 75.4707 136.748Z" fill="#C9EB49"/>
<path d="M89.1791 88.4122C89.1791 88.4122 89.5967 87.7854 90.0838 86.9496C90.3621 86.4621 90.6405 85.9745 90.9188 85.4173C91.058 85.0691 91.1971 84.7905 91.3363 84.4423C91.7538 83.1886 92.1018 82.1439 92.1018 82.1439C92.3105 81.6564 92.1018 81.0296 91.6147 80.8206C91.1276 80.6117 90.5013 80.8206 90.2925 81.3081C90.2925 81.3081 89.6663 82.2136 89.04 83.3976C88.9008 83.6762 88.692 84.0244 88.5529 84.303C88.2745 84.8602 88.1354 85.4174 87.9266 85.9049C87.5787 86.88 87.4395 87.5764 87.4395 87.5764C87.2307 88.064 87.4395 88.6908 87.9266 88.8997C88.3441 89.1087 88.9704 88.8997 89.1791 88.4122Z" fill="#C9EB49"/>
</g>
<path d="M55.1797 319.453V355H50.4678V319.453H55.1797ZM74.125 328.584V332.051H59.8428V328.584H74.125ZM64.6768 322.163H69.1934V348.457C69.1934 349.352 69.3317 350.028 69.6084 350.483C69.8851 350.939 70.2432 351.24 70.6826 351.387C71.1221 351.533 71.5941 351.606 72.0986 351.606C72.473 351.606 72.8636 351.574 73.2705 351.509C73.6937 351.427 74.0111 351.362 74.2227 351.313L74.2471 355C73.889 355.114 73.417 355.22 72.8311 355.317C72.2614 355.431 71.5697 355.488 70.7559 355.488C69.6491 355.488 68.6318 355.269 67.7041 354.829C66.7764 354.39 66.0358 353.657 65.4824 352.632C64.9453 351.59 64.6768 350.19 64.6768 348.433V322.163ZM94.8037 347.993C94.8037 347.342 94.6572 346.74 94.3643 346.187C94.0876 345.617 93.5098 345.104 92.6309 344.648C91.7682 344.176 90.4661 343.77 88.7246 343.428C87.2598 343.118 85.9333 342.752 84.7451 342.329C83.5732 341.906 82.5723 341.393 81.7422 340.791C80.9284 340.189 80.3018 339.481 79.8623 338.667C79.4229 337.853 79.2031 336.901 79.2031 335.811C79.2031 334.769 79.431 333.784 79.8867 332.856C80.3587 331.929 81.0179 331.107 81.8643 330.391C82.7269 329.674 83.7604 329.113 84.9648 328.706C86.1693 328.299 87.512 328.096 88.9932 328.096C91.109 328.096 92.9157 328.47 94.4131 329.219C95.9105 329.967 97.0579 330.968 97.8555 332.222C98.653 333.459 99.0518 334.834 99.0518 336.348H94.5352C94.5352 335.615 94.3154 334.907 93.876 334.224C93.4528 333.524 92.8262 332.946 91.9961 332.49C91.1823 332.035 90.1813 331.807 88.9932 331.807C87.7399 331.807 86.7227 332.002 85.9414 332.393C85.1764 332.767 84.6149 333.247 84.2568 333.833C83.915 334.419 83.7441 335.037 83.7441 335.688C83.7441 336.177 83.8255 336.616 83.9883 337.007C84.1673 337.381 84.4766 337.731 84.916 338.057C85.3555 338.366 85.974 338.659 86.7715 338.936C87.569 339.212 88.5863 339.489 89.8232 339.766C91.988 340.254 93.7702 340.84 95.1699 341.523C96.5697 342.207 97.6113 343.045 98.2949 344.038C98.9785 345.031 99.3203 346.235 99.3203 347.651C99.3203 348.807 99.0762 349.865 98.5879 350.825C98.1159 351.785 97.4242 352.616 96.5127 353.315C95.6175 353.999 94.5433 354.536 93.29 354.927C92.0531 355.301 90.6615 355.488 89.1152 355.488C86.7878 355.488 84.8184 355.073 83.207 354.243C81.5957 353.413 80.375 352.339 79.5449 351.021C78.7148 349.702 78.2998 348.311 78.2998 346.846H82.8408C82.9059 348.083 83.264 349.067 83.915 349.8C84.5661 350.516 85.3636 351.029 86.3076 351.338C87.2516 351.631 88.1875 351.777 89.1152 351.777C90.3522 351.777 91.3857 351.615 92.2158 351.289C93.0622 350.964 93.7051 350.516 94.1445 349.946C94.584 349.377 94.8037 348.726 94.8037 347.993ZM134.306 349.873V317.5H138.847V355H134.696L134.306 349.873ZM116.532 342.085V341.572C116.532 339.554 116.776 337.723 117.265 336.079C117.769 334.419 118.477 332.995 119.389 331.807C120.316 330.618 121.415 329.707 122.685 329.072C123.97 328.421 125.403 328.096 126.981 328.096C128.642 328.096 130.09 328.389 131.327 328.975C132.58 329.544 133.638 330.382 134.501 331.489C135.38 332.58 136.072 333.898 136.576 335.444C137.081 336.991 137.431 338.74 137.626 340.693V342.939C137.447 344.876 137.097 346.618 136.576 348.164C136.072 349.71 135.38 351.029 134.501 352.119C133.638 353.21 132.58 354.048 131.327 354.634C130.074 355.203 128.609 355.488 126.933 355.488C125.386 355.488 123.97 355.155 122.685 354.487C121.415 353.82 120.316 352.884 119.389 351.68C118.477 350.475 117.769 349.059 117.265 347.432C116.776 345.788 116.532 344.006 116.532 342.085ZM121.073 341.572V342.085C121.073 343.403 121.203 344.64 121.464 345.796C121.741 346.951 122.164 347.969 122.733 348.848C123.303 349.727 124.027 350.418 124.906 350.923C125.785 351.411 126.835 351.655 128.056 351.655C129.553 351.655 130.782 351.338 131.742 350.703C132.719 350.068 133.5 349.23 134.086 348.188C134.672 347.147 135.128 346.016 135.453 344.795V338.911C135.258 338.016 134.973 337.153 134.599 336.323C134.241 335.477 133.769 334.728 133.183 334.077C132.613 333.41 131.905 332.881 131.059 332.49C130.229 332.1 129.244 331.904 128.104 331.904C126.868 331.904 125.801 332.165 124.906 332.686C124.027 333.19 123.303 333.89 122.733 334.785C122.164 335.664 121.741 336.689 121.464 337.861C121.203 339.017 121.073 340.254 121.073 341.572ZM144.682 342.085V341.523C144.682 339.619 144.958 337.853 145.512 336.226C146.065 334.582 146.863 333.158 147.904 331.953C148.946 330.732 150.207 329.788 151.688 329.121C153.17 328.438 154.83 328.096 156.669 328.096C158.524 328.096 160.193 328.438 161.674 329.121C163.171 329.788 164.441 330.732 165.482 331.953C166.54 333.158 167.346 334.582 167.899 336.226C168.453 337.853 168.729 339.619 168.729 341.523V342.085C168.729 343.989 168.453 345.755 167.899 347.383C167.346 349.01 166.54 350.435 165.482 351.655C164.441 352.86 163.179 353.804 161.698 354.487C160.233 355.155 158.573 355.488 156.718 355.488C154.862 355.488 153.194 355.155 151.713 354.487C150.232 353.804 148.962 352.86 147.904 351.655C146.863 350.435 146.065 349.01 145.512 347.383C144.958 345.755 144.682 343.989 144.682 342.085ZM149.198 341.523V342.085C149.198 343.403 149.353 344.648 149.662 345.82C149.971 346.976 150.435 348.001 151.054 348.896C151.688 349.792 152.478 350.5 153.422 351.021C154.366 351.525 155.465 351.777 156.718 351.777C157.955 351.777 159.037 351.525 159.965 351.021C160.909 350.5 161.69 349.792 162.309 348.896C162.927 348.001 163.391 346.976 163.7 345.82C164.026 344.648 164.188 343.403 164.188 342.085V341.523C164.188 340.221 164.026 338.993 163.7 337.837C163.391 336.665 162.919 335.632 162.284 334.736C161.666 333.825 160.884 333.109 159.94 332.588C159.013 332.067 157.922 331.807 156.669 331.807C155.432 331.807 154.341 332.067 153.397 332.588C152.47 333.109 151.688 333.825 151.054 334.736C150.435 335.632 149.971 336.665 149.662 337.837C149.353 338.993 149.198 340.221 149.198 341.523ZM178.91 334.224V355H174.394V328.584H178.666L178.91 334.224ZM177.836 340.791L175.956 340.718C175.972 338.911 176.241 337.243 176.762 335.713C177.283 334.167 178.015 332.824 178.959 331.685C179.903 330.545 181.026 329.666 182.328 329.048C183.646 328.413 185.103 328.096 186.698 328.096C188 328.096 189.172 328.275 190.214 328.633C191.256 328.975 192.143 329.528 192.875 330.293C193.624 331.058 194.193 332.051 194.584 333.271C194.975 334.476 195.17 335.949 195.17 337.69V355H190.629V337.642C190.629 336.258 190.425 335.151 190.019 334.321C189.612 333.475 189.018 332.865 188.236 332.49C187.455 332.1 186.495 331.904 185.355 331.904C184.232 331.904 183.207 332.14 182.279 332.612C181.368 333.084 180.578 333.735 179.911 334.565C179.26 335.396 178.747 336.348 178.373 337.422C178.015 338.48 177.836 339.603 177.836 340.791ZM212.992 355.488C211.153 355.488 209.485 355.179 207.987 354.561C206.506 353.926 205.229 353.039 204.154 351.899C203.096 350.76 202.283 349.409 201.713 347.847C201.143 346.284 200.858 344.575 200.858 342.72V341.694C200.858 339.546 201.176 337.633 201.811 335.957C202.445 334.264 203.308 332.832 204.398 331.66C205.489 330.488 206.726 329.601 208.109 328.999C209.493 328.397 210.925 328.096 212.406 328.096C214.294 328.096 215.922 328.421 217.289 329.072C218.673 329.723 219.804 330.635 220.683 331.807C221.562 332.962 222.213 334.329 222.636 335.908C223.059 337.471 223.271 339.18 223.271 341.035V343.062H203.544V339.375H218.754V339.033C218.689 337.861 218.445 336.722 218.021 335.615C217.615 334.508 216.964 333.597 216.068 332.881C215.173 332.165 213.952 331.807 212.406 331.807C211.381 331.807 210.437 332.026 209.574 332.466C208.712 332.889 207.971 333.524 207.353 334.37C206.734 335.216 206.254 336.25 205.912 337.471C205.57 338.691 205.399 340.099 205.399 341.694V342.72C205.399 343.973 205.57 345.153 205.912 346.26C206.27 347.35 206.783 348.311 207.45 349.141C208.134 349.971 208.956 350.622 209.916 351.094C210.893 351.566 211.999 351.802 213.236 351.802C214.831 351.802 216.182 351.476 217.289 350.825C218.396 350.174 219.364 349.303 220.194 348.213L222.929 350.386C222.359 351.248 221.635 352.07 220.756 352.852C219.877 353.633 218.795 354.268 217.509 354.756C216.239 355.244 214.734 355.488 212.992 355.488ZM233.915 319.453L233.598 344.966H229.521L229.179 319.453H233.915ZM229.032 352.729C229.032 351.997 229.252 351.379 229.691 350.874C230.147 350.369 230.814 350.117 231.693 350.117C232.556 350.117 233.215 350.369 233.671 350.874C234.143 351.379 234.379 351.997 234.379 352.729C234.379 353.429 234.143 354.032 233.671 354.536C233.215 355.041 232.556 355.293 231.693 355.293C230.814 355.293 230.147 355.041 229.691 354.536C229.252 354.032 229.032 353.429 229.032 352.729Z" fill="#C9EB49"/>
</svg>
