<svg width="32" height="32" viewBox="0 0 32 32" fill="none" xmlns="http://www.w3.org/2000/svg">
<circle cx="16" cy="16" r="15.5" fill="#C9EB49" stroke="black"/>
<path d="M10.3382 23.981H20.3592C21.6524 23.9774 22.6985 22.9274 22.6974 21.6341V16.599C22.6974 16.23 22.3983 15.9309 22.0293 15.9309C21.6603 15.9309 21.3612 16.23 21.3612 16.599V21.6341C21.3631 22.1898 20.9148 22.642 20.3592 22.6449H10.3382C9.78261 22.642 9.33428 22.1898 9.33613 21.6341V11.6306C9.33428 11.075 9.78261 10.6227 10.3382 10.6198H15.3487C15.7176 10.6198 16.0167 10.3207 16.0167 9.95173C16.0167 9.58277 15.7176 9.28367 15.3487 9.28367H10.3382C9.04499 9.28735 7.99889 10.3373 8 11.6306V21.6341C7.99889 22.9274 9.04499 23.9774 10.3382 23.981Z" fill="black"/>
<path fill-rule="evenodd" clip-rule="evenodd" d="M14.3166 14.9916L13.7895 17.406C13.741 17.6285 13.8092 17.8604 13.9705 18.0213C14.1338 18.1778 14.3632 18.2449 14.5852 18.201L16.9942 17.6725C17.1193 17.6451 17.2338 17.5822 17.3242 17.4915L23.4129 11.4028C23.7889 11.0269 24.0001 10.5171 24.0001 9.98547C24.0001 9.45387 23.7889 8.94404 23.4129 8.56818C22.6202 7.81061 21.3718 7.81061 20.579 8.56818L14.4996 14.6629C14.4084 14.7527 14.3449 14.8668 14.3166 14.9916ZM21.5237 9.51348C21.7877 9.26051 22.2042 9.26051 22.4683 9.51348C22.7254 9.77563 22.7254 10.1953 22.4683 10.4575L21.996 10.9298L21.0513 9.98514L21.5237 9.51348ZM20.1034 10.9318L15.5779 15.4686L15.312 16.6731L16.5112 16.4099L21.0386 11.8717L20.1034 10.9318Z" fill="black"/>
</svg>
