<svg width="17" height="17" viewBox="0 0 17 17" fill="none" xmlns="http://www.w3.org/2000/svg">
<path fill-rule="evenodd" clip-rule="evenodd" d="M15.9085 5.72998L11.004 1.02948C9.62095 -0.339006 7.39548 -0.343738 6.00667 1.01885L1.09083 5.72998C0.396185 6.39903 0.00257635 7.3212 0 8.28564V13.4508C0.00234183 15.4058 1.58663 16.9901 3.54167 16.9925H13.4583C15.4134 16.9901 16.9977 15.4058 17 13.4508V8.28564C16.9975 7.32104 16.6036 6.39877 15.9085 5.72998ZM6.99763 2.03106C7.83396 1.20215 9.18362 1.20722 10.0137 2.04239L14.7928 6.62106L10.0024 11.4122C9.16125 12.214 7.83875 12.214 6.99763 11.4122L2.20646 6.62106L6.99763 2.03106ZM13.4583 15.5758C14.6319 15.5758 15.5833 14.6244 15.5833 13.4508V8.28564C15.5826 8.14814 15.5686 8.01103 15.5415 7.87623L11.004 12.4138C9.6171 13.7871 7.3829 13.7871 5.99604 12.4138L1.45846 7.87623C1.43138 8.01103 1.41738 8.14814 1.41667 8.28564V13.4508C1.41667 14.6244 2.36806 15.5758 3.54167 15.5758H13.4583Z" fill="#C9EB49"/>
</svg>
