<?xml version="1.0" encoding="UTF-8"?>
<svg width="24px" height="24px" viewBox="0 0 24 24" version="1.1" xmlns="http://www.w3.org/2000/svg" xmlns:xlink="http://www.w3.org/1999/xlink">
    <title>category-2036145</title>
    <g id="UI-2---end-users" stroke="none" stroke-width="1" fill="none" fill-rule="evenodd">
        <g id="4-explore-modified" transform="translate(-186, -770)" fill-rule="nonzero">
            <g id="nav-bar" transform="translate(-2, 760)">
                <g id="Group-3" transform="translate(35, 8)">
                    <g id="Home-Copy-2" transform="translate(146, 0)">
                        <g id="category-2036145" transform="translate(7, 2)">
                            <path d="M16.8906116,0 L20.9537707,0 C22.6364932,0 24,1.37502216 24,3.07195585 L24,7.1694299 C24,8.8663636 22.6364932,10.2413858 20.9537707,10.2413858 L16.8906116,10.2413858 C15.2078892,10.2413858 13.8443824,8.8663636 13.8443824,7.1694299 L13.8443824,3.07195585 C13.8443824,1.37502216 15.2078892,0 16.8906116,0" id="Path" fill="#C9EB49"></path>
                            <path d="M7.10938836,13.7586143 C8.79211081,13.7586143 10.1556176,15.1336364 10.1556176,16.8305701 L10.1556176,20.9280442 C10.1556176,22.6238281 8.79211081,24 7.10938836,24 L3.04622927,24 C1.36350682,24 0,22.6238281 0,20.9280442 L0,16.8305701 C0,15.1336364 1.36350682,13.7586143 3.04622927,13.7586143 L7.10938836,13.7586143 Z M20.9537707,13.7586143 C22.6364932,13.7586143 24,15.1336364 24,16.8305701 L24,20.9280442 C24,22.6238281 22.6364932,24 20.9537707,24 L16.8906116,24 C15.2078892,24 13.8443824,22.6238281 13.8443824,20.9280442 L13.8443824,16.8305701 C13.8443824,15.1336364 15.2078892,13.7586143 16.8906116,13.7586143 L20.9537707,13.7586143 Z M7.10938836,0 C8.79211081,0 10.1556176,1.37502216 10.1556176,3.07195585 L10.1556176,7.1694299 C10.1556176,8.8663636 8.79211081,10.2413858 7.10938836,10.2413858 L3.04622927,10.2413858 C1.36350682,10.2413858 0,8.8663636 0,7.1694299 L0,3.07195585 C0,1.37502216 1.36350682,0 3.04622927,0 L7.10938836,0 Z" id="Shape" fill="#200E32"></path>
                        </g>
                    </g>
                </g>
            </g>
        </g>
    </g>
</svg>