<svg width="21" height="21" viewBox="0 0 21 21" fill="none" xmlns="http://www.w3.org/2000/svg">
<path d="M16.1664 13.2539C15.9074 13.5181 15.7884 13.9002 15.8474 14.2749L16.7363 19.4535C16.8113 19.8924 16.6353 20.3366 16.2864 20.5902C15.9444 20.8534 15.4895 20.885 15.1165 20.6745L10.6881 18.243C10.5341 18.1567 10.3631 18.1104 10.1881 18.1052H9.91719C9.8232 18.1199 9.73121 18.1515 9.64722 18.1999L5.2178 20.6429C4.99883 20.7587 4.75086 20.7997 4.50789 20.7587C3.91597 20.6408 3.52102 20.0471 3.61801 19.4209L4.50789 14.2423C4.56688 13.8644 4.4479 13.4802 4.18893 13.2118L0.578406 9.52783C0.276445 9.21943 0.171459 8.7563 0.309441 8.33844C0.443423 7.92162 0.785379 7.61743 1.19832 7.54901L6.16768 6.79012C6.54563 6.74907 6.87758 6.50698 7.04756 6.14911L9.23727 1.42311C9.28927 1.31785 9.35626 1.22102 9.43725 1.13892L9.52724 1.06524C9.57423 1.0105 9.62822 0.965243 9.68822 0.928404L9.7972 0.886301L9.96718 0.812622H10.3881C10.7641 0.853672 11.095 1.0905 11.268 1.44416L13.4867 6.14911C13.6467 6.4933 13.9577 6.73223 14.3166 6.79012L19.286 7.54901C19.7059 7.61217 20.0569 7.91741 20.1958 8.33844C20.3268 8.76051 20.2138 9.22364 19.9059 9.52783L16.1664 13.2539Z" fill="#FDD23B"/>
</svg>
