<svg width="20" height="20" viewBox="0 0 20 20" fill="none" xmlns="http://www.w3.org/2000/svg">
<path d="M20.1583 16.1101C19.8669 16.3925 19.7331 16.8009 19.7994 17.2014L20.7996 22.7364C20.8839 23.2055 20.6859 23.6802 20.2933 23.9514C19.9086 24.2326 19.3967 24.2664 18.9771 24.0414L13.9944 21.4426C13.8212 21.3504 13.6288 21.3009 13.4319 21.2952H13.1271C13.0213 21.311 12.9178 21.3447 12.8233 21.3965L7.83956 24.0076C7.59318 24.1314 7.31418 24.1752 7.04081 24.1314C6.37481 24.0054 5.93043 23.3709 6.03956 22.7015L7.04081 17.1665C7.10718 16.7626 6.97331 16.352 6.68193 16.0651L2.61956 12.1276C2.27981 11.798 2.16168 11.303 2.31693 10.8564C2.46768 10.4109 2.85243 10.0857 3.31706 10.0126L8.90831 9.2015C9.33356 9.15762 9.70706 8.89887 9.89831 8.51637L12.3621 3.46512C12.4206 3.35262 12.4959 3.24912 12.5871 3.16137L12.6883 3.08262C12.7412 3.02412 12.8019 2.97575 12.8694 2.93637L12.9921 2.89137L13.1833 2.81262H13.6569C14.0799 2.8565 14.4523 3.10962 14.6469 3.48762L17.1433 8.51637C17.3233 8.88425 17.6732 9.13962 18.0771 9.2015L23.6683 10.0126C24.1408 10.0801 24.5357 10.4064 24.6921 10.8564C24.8394 11.3075 24.7123 11.8025 24.3658 12.1276L20.1583 16.1101Z" fill="#FDD23B"/>
</svg>
