<svg width="21" height="22" viewBox="0 0 21 22" fill="none" xmlns="http://www.w3.org/2000/svg">
<path d="M8.69731 17.3818H1.00049" stroke="black" stroke-width="1.5" stroke-linecap="round" stroke-linejoin="round"/>
<path fill-rule="evenodd" clip-rule="evenodd" d="M16.7635 20.6196C19.1904 20.6196 20.0001 19.811 20.0001 17.383C20.0001 14.955 19.1904 14.1464 16.7635 14.1464C14.3365 14.1464 13.5269 14.955 13.5269 17.383C13.5269 19.811 14.3365 20.6196 16.7635 20.6196Z" stroke="black" stroke-width="1.5" stroke-linecap="round" stroke-linejoin="round"/>
<path d="M12.3037 4.90964H19.9995" stroke="black" stroke-width="1.5" stroke-linecap="round" stroke-linejoin="round"/>
<path fill-rule="evenodd" clip-rule="evenodd" d="M4.23769 1.67188C1.80969 1.67188 1 2.48156 1 4.9085C1 7.3365 1.80969 8.14512 4.23769 8.14512C6.66462 8.14512 7.47431 7.3365 7.47431 4.9085C7.47431 2.48156 6.66462 1.67188 4.23769 1.67188Z" stroke="black" stroke-width="1.5" stroke-linecap="round" stroke-linejoin="round"/>
</svg>
