<svg width="45" height="18" viewBox="0 0 45 18" fill="none" xmlns="http://www.w3.org/2000/svg">
<path d="M10.6483 0.5C8.89639 0.5 7.21628 1.19811 5.97751 2.44075L1.9347 6.49619C0.695931 7.73883 0 9.42419 0 11.1816C0 14.8411 2.95738 17.8077 6.60549 17.8077C8.35738 17.8077 10.0375 17.1096 11.2763 15.8669L14.0727 13.0618C14.0727 13.0617 14.0728 13.0618 14.0727 13.0618L22.2206 4.88842C22.8122 4.29495 23.6146 3.96154 24.4513 3.96154C25.8521 3.96154 27.0397 4.87735 27.4514 6.14466L30.0228 3.56517C28.8497 1.72212 26.7928 0.5 24.4513 0.5C22.6994 0.5 21.0193 1.19811 19.7805 2.44075L8.83623 13.4193C8.2446 14.0128 7.44219 14.3462 6.60549 14.3462C4.86317 14.3462 3.45075 12.9293 3.45075 11.1816C3.45075 10.3422 3.78313 9.53733 4.37475 8.94385L8.41754 4.88842C9.00917 4.29495 9.81159 3.96154 10.6483 3.96154C12.0491 3.96154 13.2366 4.87739 13.6484 6.14474L16.2199 3.56523C15.0468 1.72215 12.9898 0.5 10.6483 0.5Z" fill="#C9EB49"/>
<path d="M22.6392 13.4193C22.0476 14.0128 21.2452 14.3462 20.4085 14.3462C19.0079 14.3462 17.8204 13.4306 17.4085 12.1635L14.8372 14.7429C16.0103 16.5857 18.0671 17.8077 20.4085 17.8077C22.1604 17.8077 23.8405 17.1096 25.0792 15.8669L36.0235 4.88842C36.6152 4.29495 37.4176 3.96154 38.2543 3.96154C39.9966 3.96154 41.409 5.37837 41.409 7.12613C41.409 7.96544 41.0766 8.77036 40.485 9.36385L36.4422 13.4193C35.8506 14.0128 35.0482 14.3462 34.2115 14.3462C32.8108 14.3462 31.6232 13.4304 31.2115 12.1632L28.6401 14.7427C29.8131 16.5857 31.87 17.8077 34.2115 17.8077C35.9634 17.8077 37.6435 17.1096 38.8822 15.8669L42.925 11.8115C44.1638 10.5689 44.8598 8.8835 44.8598 7.12613C44.8598 3.46662 41.9024 0.5 38.2543 0.5C36.5024 0.5 34.8223 1.19811 33.5835 2.44075L22.6392 13.4193Z" fill="#C9EB49"/>
</svg>
