<svg width="19" height="20" viewBox="0 0 19 20" fill="none" xmlns="http://www.w3.org/2000/svg">
<g opacity="0.4">
<path d="M7.92174 18.2569H3.92174C2.62562 18.2522 1.57474 17.2052 1.56522 15.9091V7.95255C1.56776 7.51867 1.76191 7.10809 2.09565 6.83082L2.8 6.30908C3.05714 6.03511 3.08329 5.61706 2.86229 5.31318C2.64129 5.00931 2.23552 4.90538 1.89565 5.0656L1.17391 5.60473C0.445876 6.16805 0.0138353 7.03213 0 7.95255V15.9178C0.00478219 18.0817 1.75781 19.8347 3.92174 19.8395H7.92174C8.35396 19.8395 8.70435 19.4891 8.70435 19.0569C8.70435 18.6247 8.35396 18.2743 7.92174 18.2743V18.2569Z" fill="#200E32"/>
<path d="M18.7911 7.93515C18.7819 7.02148 18.3639 6.15997 17.652 5.58732L11.6433 0.796018C10.3229 -0.26534 8.44192 -0.26534 7.12152 0.796018L5.21717 2.17863C4.85939 2.43556 4.77763 2.93389 5.03456 3.29167C5.29149 3.64946 5.78982 3.73121 6.14761 3.47428L8.07804 2.0308C8.83573 1.40701 9.92904 1.40701 10.6867 2.0308L16.6954 6.82211C17.0413 7.09624 17.2456 7.51128 17.252 7.95254V15.9178C17.252 17.2144 16.2008 18.2656 14.9041 18.2656H13.1215C12.939 18.2656 12.7911 18.1176 12.7911 17.9351V14.3438C12.7911 13.1994 11.8659 12.2704 10.7215 12.2656H8.11282C7.56163 12.2656 7.03302 12.4845 6.64327 12.8743C6.25352 13.264 6.03456 13.7927 6.03456 14.3438V15.7178C6.03456 16.15 6.38495 16.5004 6.81717 16.5004C7.24939 16.5004 7.59978 16.15 7.59978 15.7178V14.3438C7.59745 14.2086 7.64955 14.0781 7.74439 13.9816C7.83923 13.8851 7.96885 13.8308 8.10413 13.8308H10.7128C10.9914 13.8308 11.2172 14.0566 11.2172 14.3351V17.9351C11.222 18.9835 12.0732 19.8308 13.1215 19.8308H14.8606C17.0266 19.8308 18.7824 18.075 18.7824 15.9091L18.7911 7.93515Z" fill="#200E32"/>
</g>
</svg>
