<svg width="30" height="30" viewBox="0 0 30 30" fill="none" xmlns="http://www.w3.org/2000/svg">
<path d="M24 26H6C3.8 26 2 24.2 2 22V8C2 5.8 3.8 4 6 4H24C26.2 4 28 5.8 28 8V22C28 24.2 26.2 26 24 26Z" fill="#A576FF" stroke="#A576FF" stroke-width="2" stroke-miterlimit="10" stroke-linecap="round" stroke-linejoin="round"/>
<path d="M24 26H6C3.8 26 2 24.2 2 22V8C2 5.8 3.8 4 6 4H24C26.2 4 28 5.8 28 8V22C28 24.2 26.2 26 24 26Z" fill="#EFEFEF" stroke="#EFEFEF" stroke-width="2" stroke-miterlimit="10" stroke-linecap="round" stroke-linejoin="round"/>
<path d="M6 26H24C26.2 26 28 24.2 28 22V15L24 11L13.6 20.6L9 16L2 22.4C2.3 24.4 3.9 26 6 26Z" fill="#C8C8C8" stroke="#C8C8C8" stroke-width="2" stroke-miterlimit="10" stroke-linecap="round" stroke-linejoin="round"/>
<path d="M7 12C8.10457 12 9 11.1046 9 10C9 8.89543 8.10457 8 7 8C5.89543 8 5 8.89543 5 10C5 11.1046 5.89543 12 7 12Z" fill="#BDBDBD" stroke="#BDBDBD" stroke-width="2" stroke-miterlimit="10" stroke-linecap="round" stroke-linejoin="round"/>
</svg>
