<svg width="20" height="20" viewBox="0 0 20 20" fill="none" xmlns="http://www.w3.org/2000/svg">
<path fill-rule="evenodd" clip-rule="evenodd" d="M15.2071 7.45651C15.2071 8.64967 15.539 9.35286 16.2695 10.1633C16.8231 10.7604 17 11.5267 17 12.3582C17 13.1888 16.7128 13.9772 16.1373 14.6173C15.384 15.3846 14.3215 15.8745 13.2372 15.9596C11.6659 16.0869 10.0937 16.1941 8.5005 16.1941C6.9063 16.1941 5.33505 16.13 3.76375 15.9596C2.67846 15.8745 1.61602 15.3846 0.86367 14.6173C0.28822 13.9772 0 13.1888 0 12.3582C0 11.5267 0.1779 10.7604 0.73049 10.1633C1.48384 9.35286 1.79392 8.64967 1.79392 7.45651V7.05178C1.79392 5.45392 2.21333 4.40909 3.077 3.38627C4.36106 1.89462 6.41935 1 8.4558 1H8.5452C10.6254 1 12.7502 1.93767 14.0125 3.49344C14.8314 4.49521 15.2071 5.49603 15.2071 7.05178V7.45651ZM5.57367 18.1578C5.57367 17.6794 6.03582 17.4603 6.46318 17.3665C6.9631 17.2661 10.0093 17.2661 10.5092 17.3665C10.9366 17.4603 11.3987 17.6794 11.3987 18.1578C11.3738 18.6133 11.0926 19.017 10.704 19.2734C10.2001 19.6466 9.6088 19.8829 8.9906 19.9681C8.6487 20.0101 8.3128 20.0111 7.9828 19.9681C7.3636 19.8829 6.7723 19.6466 6.26938 19.2725C5.87978 19.017 5.59852 18.6133 5.57367 18.1578Z" fill="black"/>
</svg>
