<svg width="18" height="16" viewBox="0 0 18 16" fill="none" xmlns="http://www.w3.org/2000/svg">
<path fill-rule="evenodd" clip-rule="evenodd" d="M4.92994 0.247049C5.07765 0.35368 5.31588 0.598622 5.31588 0.598622C6.2407 1.4654 7.63369 3.62128 8.08098 4.71506C8.09031 4.71506 8.35564 5.3654 8.36604 5.67475V5.71592C8.36604 6.18996 8.10071 6.6334 7.67422 6.86034C7.4984 6.95394 7.07072 7.04096 6.86439 7.083C6.79605 7.09687 6.75199 7.10585 6.7494 7.10851C6.13979 7.2014 5.20457 7.26265 4.1778 7.26265C3.10006 7.26265 2.12428 7.2014 1.52403 7.08736C1.51362 7.08736 0.965387 6.97438 0.782302 6.90158C0.518062 6.7886 0.2944 6.58167 0.151884 6.32407C0.0499378 6.11817 0 5.90068 0 5.67475C0.00936 5.4372 0.162284 4.99378 0.233022 4.81852C0.680347 3.66245 2.14404 1.45484 3.03868 0.609182C3.13162 0.514862 3.23739 0.416053 3.31098 0.347307C3.35024 0.310622 3.38035 0.282489 3.39446 0.268169C3.61812 0.0929066 3.89276 0 4.1882 0C4.4514 0 4.71563 0.0823555 4.92994 0.247049ZM14.4254 6.36603C14.4254 6.83163 14.054 7.20851 13.5953 7.20851C13.1365 7.20851 12.7652 6.83163 12.7652 6.36603L12.5363 2.29596C12.5363 1.7026 13.0107 1.22222 13.5953 1.22222C14.1799 1.22222 14.6532 1.7026 14.6532 2.29596L14.4254 6.36603ZM16.9955 9.09829C17.2597 9.21234 17.4834 9.4182 17.6259 9.6758C17.7278 9.88167 17.7778 10.0992 17.7778 10.3262C17.7684 10.5626 17.6155 11.0072 17.5437 11.1825C17.0974 12.3375 15.6327 14.5451 14.7391 15.3919C14.6477 15.484 14.5439 15.5808 14.4705 15.6493L14.4704 15.6494C14.4294 15.6876 14.3979 15.717 14.3833 15.7318C14.1586 15.9071 13.885 16 13.5906 16C13.3253 16 13.0611 15.9177 12.8478 15.7519C12.7001 15.6463 12.4619 15.4014 12.4619 15.4014C11.536 14.5356 10.1441 12.3786 9.6968 11.2849C9.6864 11.2849 9.42213 10.6355 9.41173 10.3262V10.285C9.41173 9.80994 9.676 9.36647 10.1036 9.13945C10.279 9.04691 10.7053 8.95963 10.9122 8.91731V8.91723C10.9812 8.90318 11.0258 8.89403 11.0284 8.89136C11.638 8.79847 12.5732 8.73723 13.6 8.73723C14.6777 8.73723 15.6535 8.79847 16.2538 8.91251C16.2631 8.91251 16.8124 9.02549 16.9955 9.09829ZM4.18269 8.79154C3.72393 8.79154 3.35254 9.16851 3.35254 9.63411L3.12368 13.7041C3.12368 14.2974 3.59805 14.7778 4.18269 14.7778C4.76733 14.7778 5.24067 14.2974 5.24067 13.7041L5.01284 9.63411C5.01284 9.16851 4.64147 8.79154 4.18269 8.79154Z" fill="black"/>
</svg>
