<svg width="17" height="17" viewBox="0 0 17 17" fill="none" xmlns="http://www.w3.org/2000/svg">
<path fill-rule="evenodd" clip-rule="evenodd" d="M7.39874 1.29113C6.8289 1.29113 6.34417 1.68708 6.2081 2.22075H10.7834C10.6474 1.68708 10.1626 1.29113 9.59276 1.29113H7.39874ZM12.076 2.22075H13.7599C15.5457 2.22075 17 3.69264 17 5.50023C17 5.50023 16.949 6.26543 16.932 7.33106C16.9303 7.41538 16.8894 7.498 16.8223 7.54798C16.4132 7.85007 16.039 8.09972 16.005 8.11689C14.5933 9.06379 12.9528 9.73002 11.2052 10.0613C11.0912 10.0838 10.979 10.0244 10.9211 9.9228C10.4313 9.07407 9.51626 8.52149 8.49575 8.52149C7.48204 8.52149 6.55848 9.06804 6.05417 9.91761C5.9955 10.0175 5.88494 10.0751 5.77184 10.0536C4.03867 9.72135 2.3982 9.05597 0.995001 8.12556L0.178593 7.55742C0.110559 7.51441 0.068034 7.43689 0.068034 7.35087C0.0425255 6.91184 0 5.50023 0 5.50023C0 3.69264 1.45423 2.22075 3.24012 2.22075H4.91546C5.07704 0.972655 6.12306 0 7.39874 0H9.59276C10.8684 0 11.9144 0.972655 12.076 2.22075ZM16.7108 9.19299L16.6768 9.21016C14.959 10.3636 12.8925 11.1296 10.7239 11.4481C10.4177 11.4911 10.1115 11.2932 10.0265 10.9833C9.83943 10.2775 9.23559 9.81272 8.51275 9.81272H8.50425H8.48725C7.76441 9.81272 7.16057 10.2775 6.97348 10.9833C6.88848 11.2932 6.58229 11.4911 6.27614 11.4481C4.10756 11.1296 2.04102 10.3636 0.323161 9.21016C0.314661 9.20157 0.229619 9.14989 0.161585 9.19299C0.0850425 9.236 0.0850425 9.33927 0.0850425 9.33927L0.144576 13.7291C0.144576 15.5367 1.5903 17 3.37619 17H13.6153C15.4012 17 16.8469 15.5367 16.8469 13.7291L16.915 9.33927C16.915 9.33927 16.915 9.236 16.8384 9.19299C16.7959 9.16715 16.7449 9.17573 16.7108 9.19299ZM9.13359 12.7995C9.13359 13.161 8.85292 13.4451 8.49575 13.4451C8.14708 13.4451 7.85791 13.161 7.85791 12.7995V11.6892C7.85791 11.3363 8.14708 11.0436 8.49575 11.0436C8.85292 11.0436 9.13359 11.3363 9.13359 11.6892V12.7995Z" fill="black"/>
</svg>
