<svg width="19" height="14" viewBox="0 0 19 14" fill="none" xmlns="http://www.w3.org/2000/svg">
<path fill-rule="evenodd" clip-rule="evenodd" d="M13.0913 3.65564C13.0913 5.68496 11.4735 7.31205 9.45596 7.31205C7.43843 7.31205 5.82069 5.68496 5.82069 3.65564C5.82069 1.6256 7.43843 0 9.45596 0C11.4735 0 13.0913 1.6256 13.0913 3.65564ZM9.45596 13.8182C6.49269 13.8182 3.96244 13.3484 3.96244 11.4692C3.96244 9.58928 6.47644 9.10237 9.45596 9.10237C12.4193 9.10237 14.9495 9.57218 14.9495 11.4521C14.9495 13.3312 12.4355 13.8182 9.45596 13.8182ZM14.6448 3.72161C14.6448 4.75607 14.3362 5.71976 13.7949 6.52087C13.7392 6.60335 13.7887 6.71458 13.8869 6.73168C14.0223 6.755 14.1623 6.76822 14.3045 6.7721C15.7235 6.8095 16.9971 5.89085 17.349 4.50796C17.8702 2.4538 16.3398 0.609641 14.3911 0.609641C14.1793 0.609641 13.9767 0.632199 13.7794 0.672643C13.7524 0.678861 13.7238 0.691306 13.7083 0.715419C13.6898 0.744973 13.7037 0.78464 13.7222 0.810307C14.3076 1.63555 14.6448 2.64202 14.6448 3.72161ZM16.9948 8.21541C17.9484 8.40282 18.5754 8.7855 18.8353 9.34168C19.0549 9.7982 19.0549 10.3279 18.8353 10.7837C18.4378 11.6463 17.1565 11.9232 16.6584 11.9947C16.5556 12.0103 16.4728 11.9208 16.4837 11.8174C16.7381 9.42718 14.7144 8.294 14.1908 8.03336C14.1684 8.0217 14.1638 8.00382 14.1661 7.99294C14.1676 7.98517 14.1769 7.97273 14.194 7.9704C15.3268 7.94941 16.5448 8.10495 16.9948 8.21541ZM4.69569 6.77202C4.83797 6.76813 4.97717 6.75569 5.11327 6.7316C5.21148 6.7145 5.26097 6.60326 5.20529 6.52078C4.66398 5.71967 4.35543 4.75599 4.35543 3.72153C4.35543 2.64194 4.6926 1.63548 5.27799 0.810229C5.29654 0.784562 5.30969 0.744895 5.2919 0.715342C5.27644 0.692006 5.24705 0.678784 5.22076 0.672566C5.02279 0.632121 4.82019 0.609563 4.6083 0.609563C2.65958 0.609563 1.12921 2.45372 1.6512 4.50788C2.00305 5.89076 3.27668 6.80941 4.69569 6.77202ZM4.83372 7.99251C4.83604 8.00417 4.8314 8.02127 4.80975 8.0337C4.28545 8.29426 2.26172 9.42752 2.51614 11.8169C2.52696 11.9211 2.44499 12.0098 2.34214 11.995C1.84413 11.9234 0.562772 11.6466 0.165292 10.784C-0.0550972 10.3274 -0.0550972 9.79854 0.165292 9.34194C0.425125 8.78584 1.05149 8.40317 2.00498 8.21498C2.45582 8.1053 3.67299 7.94967 4.80666 7.97074C4.82367 7.97307 4.83218 7.98551 4.83372 7.99251Z" fill="black"/>
</svg>
