<svg width="17" height="18" viewBox="0 0 17 18" fill="none" xmlns="http://www.w3.org/2000/svg">
<path fill-rule="evenodd" clip-rule="evenodd" d="M4.329 0H11.8719C14.652 0 16.2 1.602 16.2 4.347V13.644C16.2 16.434 14.652 18 11.8719 18H4.329C1.593 18 0 16.434 0 13.644V4.347C0 1.602 1.593 0 4.329 0ZM4.572 4.194V4.185H7.2621C7.65 4.185 7.965 4.5 7.965 4.8861C7.965 5.283 7.65 5.598 7.2621 5.598H4.572C4.1841 5.598 3.87 5.283 3.87 4.896C3.87 4.509 4.1841 4.194 4.572 4.194ZM4.572 9.66598H11.628C12.015 9.66598 12.33 9.35098 12.33 8.96398C12.33 8.57698 12.015 8.26108 11.628 8.26108H4.572C4.1841 8.26108 3.87 8.57698 3.87 8.96398C3.87 9.35098 4.1841 9.66598 4.572 9.66598ZM4.572 13.779H11.628C11.9871 13.743 12.258 13.4361 12.258 13.077C12.258 12.708 11.9871 12.402 11.628 12.366H4.572C4.302 12.339 4.041 12.465 3.897 12.699C3.753 12.924 3.753 13.221 3.897 13.455C4.041 13.68 4.302 13.815 4.572 13.779Z" fill="black"/>
</svg>
