<svg width="17" height="16" viewBox="0 0 17 16" fill="none" xmlns="http://www.w3.org/2000/svg">
<path fill-rule="evenodd" clip-rule="evenodd" d="M15.0969 7.65083C15.0969 8.34231 15.6646 8.90492 16.3625 8.90492C16.7144 8.90492 17 9.18789 17 9.53664V11.8115C17 13.7351 15.4207 15.3 13.4793 15.3H3.52155C1.58015 15.3 0 13.7351 0 11.8115V9.53664C0 9.18789 0.2856 8.90492 0.6375 8.90492C1.3362 8.90492 1.904 8.34231 1.904 7.65083C1.904 6.97704 1.35915 6.47001 0.6375 6.47001C0.46835 6.47001 0.30685 6.40346 0.187 6.28471C0.06715 6.16597 0 6.00515 0 5.83836L0.0017 3.48937C0.0017 1.56571 1.581 0 3.5224 0H13.4776C15.419 0 16.9991 1.56571 16.9991 3.48937L17 5.76508C17 5.93184 16.9328 6.09355 16.8139 6.21144C16.694 6.33019 16.5325 6.39674 16.3625 6.39674C15.6646 6.39674 15.0969 6.95936 15.0969 7.65083ZM10.4142 8.20078L11.4163 7.23391C11.5906 7.06714 11.651 6.82123 11.5753 6.59386C11.5005 6.3664 11.305 6.20473 11.0687 6.17192L9.68405 5.9714L9.0644 4.72829C8.95815 4.51437 8.74225 4.3813 8.5017 4.38046H8.5C8.2603 4.38046 8.0444 4.51353 7.93645 4.72745L7.3168 5.9714L5.9347 6.17107C5.69585 6.20473 5.50035 6.3664 5.4247 6.59386C5.3499 6.82123 5.41025 7.06714 5.58365 7.23391L6.5858 8.20078L6.3495 9.56775C6.3087 9.80363 6.40475 10.0377 6.60025 10.1784C6.71075 10.2567 6.8391 10.2971 6.96915 10.2971C7.0686 10.2971 7.1689 10.2727 7.2607 10.2247L8.5 9.57957L9.73675 10.223C9.95095 10.3367 10.2051 10.3191 10.3997 10.1775C10.5961 10.0377 10.6922 9.80363 10.6514 9.56775L10.4142 8.20078Z" fill="black"/>
</svg>
