<svg width="16" height="24" viewBox="0 0 16 24" fill="none" xmlns="http://www.w3.org/2000/svg">
<path fill-rule="evenodd" clip-rule="evenodd" d="M11.5 0H4.5C2.019 0 0 2.019 0 4.5V19.5C0 21.981 2.019 24 4.5 24H11.5C13.981 24 16 21.981 16 19.5V4.5C16 2.019 13.981 0 11.5 0ZM10.807 1L10.482 1.974C10.277 2.588 9.705 3 9.059 3H6.942C6.296 3 5.724 2.588 5.519 1.974L5.194 1H10.807ZM11.5 23C13.43 23 15 21.43 15 19.5H14.999V4.5C14.999 2.689 13.612 1.213 11.848 1.035L11.43 2.29C11.089 3.312 10.136 3.999 9.058 3.999H6.941C5.863 3.999 4.91 3.312 4.569 2.29L4.151 1.035C2.387 1.213 1 2.69 1 4.5V19.5C1 21.43 2.57 23 4.5 23H11.5Z" fill="#C9EB49"/>
<path d="M9.5 20H6.5C6.224 20 6 20.224 6 20.5C6 20.776 6.224 21 6.5 21H9.5C9.776 21 10 20.776 10 20.5C10 20.224 9.776 20 9.5 20Z" fill="#C9EB49"/>
</svg>
