<svg width="88" height="18" viewBox="0 0 88 18" fill="none" xmlns="http://www.w3.org/2000/svg">
<g clip-path="url(#clip0_3749_7211)">
<path d="M8.09541 7.05326C5.24815 6.39764 4.49946 5.90447 4.49946 4.6873C4.49946 3.47014 5.43324 2.81064 6.97946 2.81064C9.25141 2.81064 9.85114 3.98028 10.0353 5.05682H13.8744C13.6219 2.49737 11.7578 0 7.0786 0C2.90685 0 0.6095 2.07112 0.6095 5.12083C0.6095 7.48339 1.79529 9.21555 6.59071 10.3333C9.605 11.0297 10.4543 11.6475 10.4543 13.0717C10.4543 14.3529 9.58449 15.1506 7.55038 15.1506C5.51627 15.1506 4.2411 14.38 3.83917 12.6231H0C0.42245 15.813 2.7784 18 7.25149 18C11.7246 18 14.3447 15.8081 14.3447 12.6129C14.3447 10.1456 13.221 8.25248 8.09541 7.05326Z" fill="black"/>
<path d="M22.0652 0.253418L16.0811 17.752H19.8274L21.2022 13.7101H27.6401L29.0886 17.752H33.0943L26.8513 0.253418H22.0652ZM22.0027 10.609C23.0058 7.4541 23.8859 4.70893 24.3205 2.98404H24.3459C24.7713 4.55666 25.5688 6.91583 26.8201 10.609H22.0027Z" fill="black"/>
<path d="M61.0303 0.253401H54.0425V0.254371H49.7604V0.253401H46.1263V0.250977H44.2402L44.2758 8.76193L45.9466 8.76096V8.92486L44.1899 11.9498L42.3995 15.0325H42.3975C42.3565 15.0325 42.3155 15.032 42.2749 15.0306L40.4826 11.9518L38.7581 8.98984V8.76484L40.4977 8.76387L40.4626 0.250977H38.0104V0.253401H34.9414V10.5639C34.9414 16.4087 38.3689 17.9998 42.3462 17.9998C46.3236 17.9998 49.7604 16.4747 49.7604 10.4921V6.87605L48.1922 6.87023L48.2645 6.74706L49.7604 4.19537L50.0573 3.68862L51.9229 0.507503L53.7651 3.7022L54.0425 4.18325L55.3636 6.47404L55.6073 6.8969L54.0425 6.89108V17.752H60.8696C66.2623 17.752 69.5178 13.8866 69.5178 8.78327C69.5178 3.6799 66.1631 0.253401 61.0303 0.253401ZM60.7104 14.6955H57.8528V3.3099H60.7328C64.1842 3.3099 65.5825 5.93383 65.5825 8.79248C65.5825 12.2001 64.089 14.6955 60.7104 14.6955Z" fill="black"/>
<path d="M81.7571 0.253418H76.9705L70.9863 17.752H74.7327L76.1075 13.7101H82.5453L83.9939 17.752H88.0001L81.7571 0.253418ZM76.908 10.609C77.9111 7.4541 78.7912 4.70893 79.2258 2.98404H79.2512C79.6766 4.55666 80.4741 6.91583 81.7253 10.609H76.908Z" fill="black"/>
</g>
<defs>
<clipPath id="clip0_3749_7211">
<rect width="88" height="18" fill="white"/>
</clipPath>
</defs>
</svg>
