<svg width="46" height="46" viewBox="0 0 46 46" fill="none" xmlns="http://www.w3.org/2000/svg">
<rect x="1" y="1" width="44" height="44" rx="14" fill="#D8F46C" stroke="#1F1F39"/>
<path fill-rule="evenodd" clip-rule="evenodd" d="M24.3301 34.8C24.5023 34.9298 24.7117 35 24.9269 35C25.4762 35 25.9214 34.5523 25.9214 34V25.38L32.8963 17.488C33.9088 16.3402 34.1581 14.7022 33.5331 13.3026C32.9081 11.903 31.525 11.0018 29.9991 11H15.8764C14.3504 11.001 12.9667 11.9015 12.3411 13.301C11.7154 14.7005 11.964 16.3388 12.9763 17.487L19.9541 25.38V31C19.9541 31.3148 20.1015 31.6111 20.3519 31.8L24.3301 34.8ZM23.9323 32L21.9432 30.5V25C21.9433 24.7553 21.8541 24.519 21.6926 24.336L14.4631 16.158C13.9715 15.5985 13.8513 14.8012 14.156 14.1204C14.4607 13.4395 15.1338 13.0011 15.8764 13H29.9991C30.7421 13.0008 31.4157 13.4393 31.7205 14.1206C32.0253 14.8018 31.9047 15.5995 31.4124 16.159L24.1839 24.336C24.022 24.5189 23.9325 24.7552 23.9323 25V32Z" fill="black"/>
</svg>
