<svg width="17" height="16" viewBox="0 0 17 16" fill="none" xmlns="http://www.w3.org/2000/svg">
<path fill-rule="evenodd" clip-rule="evenodd" d="M16.8326 6.26315C16.254 2.73195 13.235 0.104986 9.63538 0.00034552C9.27504 -0.00793238 8.9275 0.132842 8.67571 0.389019C8.43251 0.639622 8.30662 0.980296 8.32876 1.32771L8.69786 6.83512C8.75546 7.53028 9.33929 8.06569 10.0414 8.06721H10.1299L15.6663 7.70055C15.9987 7.68169 16.3098 7.53163 16.5303 7.28363C16.7507 7.03571 16.8622 6.71057 16.84 6.38047V6.26315H16.8326ZM10.0414 6.74712L9.67226 1.33504C12.5685 1.45179 14.9938 3.55309 15.5039 6.38779L10.0414 6.74712ZM12.4626 10.5166C12.5663 10.1652 12.9332 9.96018 13.2894 10.0546C13.464 10.096 13.6144 10.2059 13.7062 10.3592C13.798 10.5126 13.8233 10.6963 13.7766 10.8686C13.2752 12.6864 12.0524 14.2241 10.3883 15.1294C8.34636 16.2537 5.87425 16.2912 3.79872 15.2293C1.72319 14.1674 0.318249 12.1463 0.0537852 9.84186C0.0108883 9.57281 -0.00641696 9.30022 0.00211357 9.02788C-0.00145695 5.72574 2.32891 2.87472 5.58276 2.2004C5.94967 2.12749 6.30661 2.36389 6.37999 2.72841C6.45338 3.09292 6.21541 3.44752 5.8485 3.52042C3.22226 4.07541 1.34659 6.38249 1.35299 9.04986C1.34686 9.25836 1.35922 9.46695 1.3899 9.67319C1.71379 12.3364 3.8857 14.4018 6.57805 14.6068C9.27041 14.8119 11.7338 13.0996 12.4626 10.5166Z" fill="#C9EB49"/>
</svg>
