<svg width="328" height="263" viewBox="0 0 328 263" fill="none" xmlns="http://www.w3.org/2000/svg">
<g opacity="0.25">
<path fill-rule="evenodd" clip-rule="evenodd" d="M255.773 235.364H211.977C213.359 234.288 214.723 233.182 216.06 232.053H251.614C259.654 232.053 266.171 225.53 266.171 217.483V185.867L266.979 184.951L266.989 184.94L270.33 181.159V220.794C270.33 228.84 263.812 235.364 255.773 235.364M266.171 164.395V83.3732C266.171 83.3732 265.915 69.5339 269.675 63.2834H281.063L281.159 63.399C286.671 70.0196 286.671 79.6369 281.159 86.2579L281.063 86.3735H270.327C270.328 86.5735 270.33 86.6843 270.33 86.6843V157.452L266.171 164.395" fill="#839BA5"/>
<mask id="mask0_0_5203" style="mask-type:luminance" maskUnits="userSpaceOnUse" x="124" y="212" width="93" height="24">
<path fill-rule="evenodd" clip-rule="evenodd" d="M211.977 235.364H139.822C132.868 235.364 128.612 235.364 128.612 235.364L128.516 235.248C123.003 228.627 123.003 219.01 128.516 212.389L128.612 212.274H135.664V232.053H216.06C214.723 233.182 213.359 234.288 211.977 235.364Z" fill="white"/>
</mask>
<g mask="url(#mask0_0_5203)">
<path fill-rule="evenodd" clip-rule="evenodd" d="M211.977 235.364H139.822C132.868 235.364 128.612 235.364 128.612 235.364L128.516 235.248C123.003 228.627 123.003 219.01 128.516 212.389L128.612 212.274H135.664V232.053H216.06C214.723 233.182 213.359 234.288 211.977 235.364Z" fill="url(#paint0_radial_0_5203)"/>
</g>
<path fill-rule="evenodd" clip-rule="evenodd" d="M149.912 83.0624H276.904L277 82.9468C282.512 76.3258 282.512 66.7085 277 60.0879L276.904 59.9723H149.912L150.54 60.6487C156.432 66.9957 156.204 76.885 150.024 82.9524L149.912 83.0624Z" fill="#F2F2F2"/>
<path fill-rule="evenodd" clip-rule="evenodd" d="M251.614 232.053H135.664V73.6663C135.664 66.2748 141.651 60.2831 149.035 60.2831H262.472C262.472 60.2831 274.245 59.5834 274.007 60.2831C265.748 60.4447 266.171 83.3732 266.171 83.3732V217.483C266.171 225.53 259.654 232.053 251.614 232.053Z" fill="white"/>
<path fill-rule="evenodd" clip-rule="evenodd" d="M251.445 232.053C246.273 232.053 124.453 232.053 124.453 232.053L124.357 231.937C118.845 225.316 118.845 215.699 124.357 209.078L124.453 208.963H251.445L250.817 209.639C244.924 215.986 243.924 226.815 251.445 232.053C256.617 232.053 251.445 232.053 251.445 232.053Z" fill="#F2F2F2"/>
<path fill-rule="evenodd" clip-rule="evenodd" d="M163.875 92.5412H242.766V85.8966H163.875V92.5412Z" fill="#C9EB49"/>
<path fill-rule="evenodd" clip-rule="evenodd" d="M152.896 107.724H253.744V105.025H152.896V107.724Z" fill="#E6E6E6"/>
<path fill-rule="evenodd" clip-rule="evenodd" d="M152.896 120.974H253.744V118.275H152.896V120.974Z" fill="#E6E6E6"/>
<path fill-rule="evenodd" clip-rule="evenodd" d="M152.896 134.225H253.744V131.526H152.896V134.225Z" fill="#E6E6E6"/>
<path fill-rule="evenodd" clip-rule="evenodd" d="M152.896 147.475H253.744V144.776H152.896V147.475Z" fill="#E6E6E6"/>
<path fill-rule="evenodd" clip-rule="evenodd" d="M152.896 160.725H253.744V158.026H152.896V160.725Z" fill="#E6E6E6"/>
<path fill-rule="evenodd" clip-rule="evenodd" d="M152.896 187.226H253.744V184.527H152.896V187.226Z" fill="#E6E6E6"/>
<path fill-rule="evenodd" clip-rule="evenodd" d="M152.896 173.976H253.744V171.277H152.896V173.976Z" fill="#E6E6E6"/>
<path fill-rule="evenodd" clip-rule="evenodd" d="M270.33 181.159V176.37L270.83 175.79L304.435 119.681L305.101 120.081C305.164 120.119 305.234 120.137 305.302 120.137C305.435 120.137 305.565 120.069 305.639 119.946L323.828 89.5762C323.939 89.3902 323.879 89.1489 323.693 89.0377L317.096 85.0798C317.165 85.0294 317.247 85.0026 317.331 85.0026C317.401 85.0026 317.471 85.0214 317.535 85.0606L327.498 91.1883C327.682 91.3019 327.74 91.5436 327.626 91.7284L325.818 94.6742L326.377 95.0183L326.688 95.2099L327.85 95.924C327.998 96.0152 328.044 96.2096 327.953 96.3584L316.59 114.864C316.53 114.961 316.427 115.015 316.321 115.015C316.265 115.015 316.208 115 316.156 114.968L314.952 114.228C314.804 114.136 314.757 113.942 314.849 113.794L325.106 97.0889C325.197 96.9404 325.151 96.746 325.002 96.6548L324.711 96.4756L309.103 121.895C309.029 122.016 308.9 122.082 308.768 122.082C308.699 122.082 308.628 122.064 308.563 122.024L307.903 121.617L273.854 177.069L274.371 177.387C274.627 177.544 274.706 177.878 274.55 178.133L274.544 178.143C274.441 178.309 274.263 178.401 274.081 178.401C273.985 178.401 273.887 178.375 273.798 178.321L273.175 177.937L272.88 178.271L273.569 178.694C273.824 178.851 273.904 179.185 273.747 179.44L273.741 179.45C273.639 179.616 273.461 179.708 273.279 179.708C273.182 179.708 273.084 179.682 272.996 179.628L272.144 179.104L270.33 181.159Z" fill="#72868F"/>
<path fill-rule="evenodd" clip-rule="evenodd" d="M266.171 185.867V181.194L270.33 176.37V181.159L266.989 184.94L266.979 184.951L266.171 185.867Z" fill="#5F7077"/>
<path fill-rule="evenodd" clip-rule="evenodd" d="M254.977 198.403L254.014 197.81L255.76 190.387L257.681 189.178L261.078 181.583L264.213 183.464L266.171 181.194V185.867L261.287 191.395L260.969 193.484L254.977 198.403Z" fill="#B8B8B8"/>
<path fill-rule="evenodd" clip-rule="evenodd" d="M264.213 183.464L258.365 179.955L262.354 170.768L300.326 107.368L308.774 112.437L270.83 175.79L264.213 183.464Z" fill="#153E49"/>
<path fill-rule="evenodd" clip-rule="evenodd" d="M305.101 120.081L295.071 114.063C294.886 113.952 294.825 113.711 294.937 113.525L313.126 83.1552C313.238 82.9692 313.478 82.9088 313.664 83.0204L323.693 89.0377C323.879 89.1489 323.939 89.3902 323.828 89.5762L305.638 119.946C305.527 120.132 305.286 120.192 305.101 120.081Z" fill="#113542"/>
<path fill-rule="evenodd" clip-rule="evenodd" d="M322.928 93.0677L322.615 92.8797L310.679 85.7182C310.53 85.6286 310.336 85.677 310.246 85.8266L309.484 87.0987C309.395 87.2484 309.443 87.4424 309.593 87.532L321.258 94.531C321.408 94.6206 321.457 94.8146 321.367 94.9643L311.295 111.781C311.205 111.931 311.254 112.125 311.403 112.214L312.615 112.941C312.764 113.031 312.958 112.982 313.047 112.833L324.206 94.2022C324.296 94.0526 324.247 93.8586 324.097 93.769L322.928 93.0677Z" fill="#1A1A1A"/>
<path fill-rule="evenodd" clip-rule="evenodd" d="M258.593 189.971L254.961 187.793L262.355 170.766L270.804 175.835L258.593 189.971Z" fill="#5D7A7F"/>
<path fill-rule="evenodd" clip-rule="evenodd" d="M258.593 189.971L254.962 187.793L253.055 189.023L251.391 196.465L252.36 197.046L258.297 192.062L258.593 189.971Z" fill="#DAE7E8"/>
<path fill-rule="evenodd" clip-rule="evenodd" d="M270.959 176.759L261.278 170.95C261.021 170.796 260.938 170.463 261.091 170.206L261.097 170.196C261.251 169.94 261.584 169.856 261.84 170.01L271.521 175.818C271.778 175.972 271.861 176.306 271.708 176.563L271.702 176.572C271.548 176.829 271.215 176.913 270.959 176.759Z" fill="#688689"/>
<path fill-rule="evenodd" clip-rule="evenodd" d="M270.17 178.074L260.49 172.266C260.233 172.112 260.149 171.778 260.303 171.522L260.309 171.512C260.463 171.255 260.796 171.172 261.052 171.326L270.734 177.134C270.99 177.288 271.073 177.621 270.92 177.878L270.914 177.888C270.76 178.145 270.427 178.228 270.17 178.074Z" fill="#688689"/>
<path fill-rule="evenodd" clip-rule="evenodd" d="M255.345 192.642C255.12 193.019 254.632 193.141 254.255 192.915C253.879 192.69 253.757 192.201 253.982 191.824C254.208 191.448 254.696 191.325 255.072 191.551C255.449 191.777 255.571 192.266 255.345 192.642Z" fill="#153E49"/>
<path fill-rule="evenodd" clip-rule="evenodd" d="M252.098 196.889L251.77 196.692L254.302 192.463L254.631 192.66L252.098 196.889Z" fill="#153E49"/>
<path fill-rule="evenodd" clip-rule="evenodd" d="M299.764 127.481L304.435 119.681L299.764 127.481Z" fill="#526167"/>
<path fill-rule="evenodd" clip-rule="evenodd" d="M299.764 127.481L295.987 114.613L304.436 119.681L299.764 127.481Z" fill="#0F2D35"/>
<path fill-rule="evenodd" clip-rule="evenodd" d="M300.764 117.479L295.987 114.613L300.764 117.479Z" fill="#0C2630"/>
<path fill-rule="evenodd" clip-rule="evenodd" d="M163.875 92.5412H175.007V85.8966H163.875V92.5412Z" fill="#C9EB49"/>
</g>
<mask id="mask1_0_5203" style="mask-type:luminance" maskUnits="userSpaceOnUse" x="0" y="0" width="242" height="263">
<path fill-rule="evenodd" clip-rule="evenodd" d="M131.386 263C58.8234 263 0 204.125 0 131.5C0 58.8746 58.8234 0 131.386 0C177.725 0 218.464 24.0142 241.855 60.2831H149.035C141.651 60.2831 135.664 66.2748 135.664 73.6663V212.274H128.612L128.516 212.389C123.004 219.01 123.004 228.627 128.516 235.248L128.612 235.364C128.612 235.364 132.869 235.364 139.823 235.364H211.977C189.724 252.685 161.759 263 131.386 263Z" fill="white"/>
</mask>
<g mask="url(#mask1_0_5203)">
<path opacity="0.2" fill-rule="evenodd" clip-rule="evenodd" d="M148.608 263C87.3569 263 37.7036 213.304 37.7036 152C37.7036 90.6964 87.3569 41 148.608 41C187.723 41 222.111 61.2705 241.855 91.8854H163.505C157.272 91.8854 152.219 96.943 152.219 103.182V220.182H146.266L146.185 220.279C141.532 225.868 141.532 233.986 146.185 239.575L146.266 239.672C146.266 239.672 149.859 239.672 155.729 239.672H216.635C197.851 254.293 174.245 263 148.608 263Z" fill="#C6CEDD"/>
</g>
<defs>
<radialGradient id="paint0_radial_0_5203" cx="0" cy="0" r="1" gradientUnits="userSpaceOnUse" gradientTransform="translate(131.386 131.5) scale(131.386 33.0907)">
<stop stop-color="#839BA5"/>
<stop offset="1" stop-color="#8EA2AA"/>
</radialGradient>
</defs>
</svg>
