<svg width="24" height="24" viewBox="0 0 24 24" fill="none" xmlns="http://www.w3.org/2000/svg">
<path fill-rule="evenodd" clip-rule="evenodd" d="M10.5453 14.8312C10.5961 14.8839 10.6662 14.9137 10.7394 14.9139L12.555 14.9138C12.6962 14.914 12.8136 14.8051 12.824 14.6643C12.8413 14.3511 12.9013 14.0418 13.0025 13.7449C13.1468 13.3856 13.3799 13.0687 13.6799 12.824C14.0696 12.4579 14.4282 12.1067 14.7559 11.7702C15.072 11.4495 15.339 11.084 15.5485 10.6854C15.7572 10.2633 15.8606 9.79683 15.8496 9.32604C15.9121 8.34742 15.522 7.39426 14.7913 6.74024C13.9484 6.09949 12.9037 5.78216 11.8469 5.84585C11.1446 5.83564 10.4475 5.96664 9.79682 6.23105C9.20242 6.47437 8.69382 6.88896 8.33568 7.4221C7.99712 7.95323 7.80694 8.56531 7.78489 9.19478C7.77947 9.26972 7.80539 9.34355 7.85647 9.39866C7.90755 9.45377 7.97921 9.4852 8.05435 9.48547H10.2107C10.3499 9.48459 10.4659 9.37879 10.4796 9.24031C10.4946 8.90367 10.6462 8.58769 10.8993 8.36526C11.1655 8.14417 11.5009 8.02351 11.8469 8.02432C12.2113 7.99721 12.5701 8.12594 12.8342 8.37852C13.0777 8.68018 13.1965 9.06356 13.1664 9.45003C13.1691 9.71017 13.1083 9.96703 12.9892 10.1984C12.8594 10.442 12.697 10.6669 12.5066 10.8669C12.2822 11.1049 12.0442 11.3296 11.7937 11.54C11.4836 11.8042 11.2163 12.1149 11.0011 12.4609C10.8049 12.7909 10.6657 13.1517 10.5894 13.528C10.5168 13.8925 10.4766 14.2627 10.4694 14.6344C10.467 14.7075 10.4944 14.7786 10.5453 14.8312ZM10.5894 16.3959C10.3197 16.6597 10.1721 17.0239 10.182 17.4009C10.1738 17.7764 10.3212 18.1386 10.5894 18.4016C10.8811 18.6812 11.275 18.8285 11.6786 18.809C12.081 18.829 12.4737 18.6815 12.7634 18.4016C13.3007 17.841 13.3007 16.9565 12.7634 16.3959C12.4723 16.1185 12.0802 15.9728 11.6786 15.9929C11.2758 15.9734 10.8825 16.1189 10.5894 16.3959Z" fill="black"/>
<circle cx="12" cy="12" r="11.5" stroke="black"/>
</svg>
