<svg width="24" height="24" viewBox="0 0 24 24" fill="none" xmlns="http://www.w3.org/2000/svg">
<path d="M13 3.48633H4C3.44772 3.48633 3 3.93404 3 4.48633V19.9998C3 20.5521 3.44772 20.9998 4 20.9998H20C20.5523 20.9998 21 20.5521 21 19.9998V11.2701" stroke="#6B49EB" stroke-width="2" stroke-linecap="round"/>
<path d="M12 12.2431L21 3.48633" stroke="#6B49EB" stroke-width="2" stroke-linecap="round" stroke-linejoin="round"/>
<path d="M16.5 2.48633C15.9477 2.48633 15.5 2.93404 15.5 3.48633C15.5 4.03861 15.9477 4.48633 16.5 4.48633V2.48633ZM16.5 4.48633H21V2.48633H16.5V4.48633Z" fill="#6B49EB"/>
<path d="M20 7.37841C20 7.93069 20.4477 8.37841 21 8.37842C21.5523 8.37842 22 7.93071 22 7.37843L20 7.37841ZM22 7.37843L22 3.00005L20 3.00003L20 7.37841L22 7.37843Z" fill="#6B49EB"/>
</svg>
