<svg width="290" height="136" viewBox="0 0 290 136" fill="none" xmlns="http://www.w3.org/2000/svg">
<path d="M66.5 24C68.9 24 70 23.5 70 22.5C70 21.3 71.7 21 79.5 21C87.1 21 89.1 21.3 89.5 22.5C89.8 23.3 91.1 24 92.5 24C93.9 24 95 24.5 95 25C95 25.5 96.1 26 97.5 26C98.9 26 100 26.5 100 27C100 27.5 100.7 28 101.5 28C102.3 28 103 28.7 103 29.5C103 30.3 103.5 31 104 31C104.5 31 105 31.7 105 32.5C105 33.3 105.5 34 106 34C106.5 34 107.7 34.7 108.5 35.5C109.3 36.3 110 37.2 110 37.5C110 37.8 108.3 39.8 106.3 42C104.2 44.2 101.9 46 101.3 46C100.6 46 100 46.5 100 47C100 47.5 99.4 48.7 98.6 49.5C97.8 50.3 96.7 51 96.1 51C95.5 51 95 50.5 95 50C95 49.5 94.3 49 93.5 49C92.7 49 92 48.4 92 47.8C92 47.1 91.1 45.8 90 45C88.9 44.2 88 42.9 88 42.2C88 41.4 85.8 41 80.5 41C74.5 41 73 41.3 73 42.5C73 43.4 72.1 44 70.5 44C69.1 44 68 44.5 68 45C68 45.5 67.3 46 66.5 46C65.7 46 65 46.5 65 47C65 47.5 64.4 48.7 63.6 49.5C62.8 50.3 61.7 51 61.1 51C60.5 51 60 51.5 60 52C60 52.5 59.4 53.7 58.6 54.5C57.8 55.3 56.7 56 56.1 56C55.5 56 55 56.7 55 57.5C55 58.3 54.5 59 53.9 59C53.3 59 52.2 59.7 51.4 60.5C50.6 61.3 50 62.2 50 62.5C50 62.8 49.4 63.7 48.6 64.5C47.8 65.3 46.7 66 46.1 66C45.5 66 45 66.7 45 67.5C45 68.3 44.5 69 44 69C43.5 69 43 70.1 43 71.5C43 73.1 42.4 74 41.5 74C40.3 74 40 75.5 40 81.5C40 85.8 40.4 89 41 89C41.5 89 42.7 89.7 43.5 90.5C44.3 91.3 45 92.5 45 93C45 93.5 45.7 94 46.5 94C47.3 94 48 94.5 48 95C48 95.5 48.9 96 50 96C51.1 96 52 96.7 52 97.5C52 98.7 53.3 99 57.5 99C61.7 99 63 98.7 63 97.5C63 96.6 63.9 96 65.1 96C66.2 96 67.8 95.3 68.6 94.5C69.4 93.7 70 92.5 70 92C70 91.5 70.5 91 71.1 91C71.7 91 72.8 90.3 73.6 89.5C74.4 88.7 75 87.5 75 87C75 86.5 75.5 86 76.1 86C76.7 86 77.8 85.3 78.6 84.5C79.4 83.7 80 82.5 80 82C80 81.5 80.5 81 81.1 81C81.7 81 82.8 80.3 83.6 79.5C84.4 78.7 85 77.5 85 77C85 76.5 85.5 76 86.1 76C86.7 76 87.8 75.3 88.6 74.5C89.4 73.7 90 72.8 90 72.5C90 72.2 90.6 71.3 91.4 70.5C92.2 69.7 93.3 69 93.9 69C94.5 69 95 68.3 95 67.5C95 66.7 95.5 66 96.1 66C96.7 66 97.8 65.3 98.6 64.5C99.4 63.7 100 62.5 100 62C100 61.5 100.5 61 101.1 61C101.7 61 102.8 60.3 103.6 59.5C104.4 58.7 105 57.5 105 57C105 56.5 105.5 56 106.1 56C106.7 56 107.8 55.3 108.6 54.5C109.4 53.7 110 52.5 110 52C110 51.5 110.5 51 111.1 51C111.7 51 112.8 50.3 113.6 49.5C114.4 48.7 115 47.5 115 47C115 46.5 115.5 46 116.1 46C116.7 46 117.8 45.3 118.6 44.5C119.4 43.7 120 42.5 120 42C120 41.5 120.5 41 121.1 41C121.7 41 122.8 40.3 123.6 39.5C124.4 38.7 125 37.5 125 37C125 36.5 125.5 36 126.1 36C126.7 36 127.8 35.3 128.6 34.5C129.4 33.7 130 32.5 130 32C130 31.5 130.4 31 131 31C131.6 31 132 30.3 132 29.5C132 28.7 132.7 28 133.5 28C134.3 28 135 27.5 135 27C135 26.5 136.1 26 137.5 26C138.9 26 140 25.5 140 25C140 24.5 141.8 24 144 24C146.9 24 148 23.6 148 22.5C148 21.3 149.6 21 156.2 21C162.5 20.9 164.9 21.3 166 22.5C166.8 23.4 168.5 24.1 169.7 24C171 24 172 24.5 172 25C172 25.5 173.1 26 174.5 26C175.9 26 177.7 26.7 178.5 27.5C179.3 28.3 180 29.5 180 30C180 30.5 180.7 31 181.5 31C182.3 31 183 31.5 183 32C183 32.5 183.7 33.7 184.5 34.5C185.3 35.3 186.4 36 187 36C187.6 36 188 36.7 188 37.5C188 38.3 187.5 39 186.9 39C186.3 39 185.2 39.7 184.4 40.5C183.6 41.3 183 42.5 183 43C183 43.5 182.5 44 181.9 44C181.3 44 180.2 44.7 179.4 45.5C178.6 46.3 178 47.5 178 48C178 48.5 177.3 49 176.5 49C175.7 49 175 49.5 175 50C175 50.5 174.6 51 174 51C173.4 51 172.3 50.3 171.5 49.5C170.7 48.7 170 47.8 170 47.5C170 47.2 169.3 46.3 168.5 45.5C167.7 44.7 166.6 44 166 44C165.4 44 165 43.3 165 42.5C165 41.3 163.4 41 156.5 41C149.6 41 148 41.3 148 42.5C148 43.3 147.5 44 146.9 44C146.3 44 145.2 44.7 144.4 45.5C143.6 46.3 143 47.5 143 48C143 48.5 142.5 49 141.9 49C141.3 49 140.2 49.7 139.4 50.5C138.6 51.3 138 52.5 138 53C138 53.5 137.3 54 136.5 54C135.7 54 135 54.5 135 55C135 55.5 134.3 56 133.5 56C132.7 56 132 56.6 132 57.2C132 57.9 131.1 59.2 130 60C128.9 60.8 128 62.1 128 62.7C128 63.4 127.5 64 126.9 64C126.3 64 125.2 64.7 124.4 65.5C123.6 66.3 123 67.5 123 68C123 68.5 122.5 69 121.9 69C121.3 69 120.2 69.7 119.4 70.5C118.6 71.3 118 72.5 118 73C118 73.5 117.5 74 116.9 74C116.3 74 115.2 74.7 114.4 75.5C113.6 76.3 113 77.5 113 78C113 78.5 112.5 79 111.9 79C111.3 79 110.2 79.7 109.4 80.5C108.6 81.3 108 82.5 108 83C108 83.5 107.5 84 106.9 84C106.3 84 105.2 84.7 104.4 85.5C103.6 86.3 103 87.5 103 88C103 88.5 102.5 89 101.9 89C101.3 89 100.2 89.7 99.4 90.5C98.6 91.3 98 92.5 98 93C98 93.5 97.3 94 96.5 94C95.7 94 95 94.5 95 95C95 95.5 94.3 96 93.5 96C92.7 96 92 96.6 92 97.2C92 97.9 91.1 99.2 90 100C88.9 100.8 88 102.1 88 102.7C88 103.4 87.5 104 86.9 104C86.3 104 85.2 104.7 84.4 105.5C83.6 106.3 83 107.5 83 108C83 108.6 82.4 109 81.8 109C81.1 109 79.3 109.5 77.8 110.2C76.2 110.9 75 112.1 75 112.7C75 113.4 73.9 114 72.5 114C71.1 114 70 114.4 70 115C70 115.6 65.2 116 57.5 116C49.8 116 45 115.6 45 115C45 114.4 43.9 114 42.5 114C40.9 114 40 113.4 40 112.5C40 111.7 39.1 111 38 111C36.9 111 35.3 110.3 34.5 109.5C33.7 108.7 33 107.5 33 107C33 106.5 32.5 106 32 106C31.5 106 30.3 105.3 29.5 104.5C28.7 103.7 28 102.5 28 102C28 101.5 27.3 101 26.5 101C25.6 101 25 100.1 25 98.5C25 97.1 24.6 96 24 96C23.4 96 23 94.4 23 92.5C23 90.1 22.5 89 21.5 89C20.3 89 20 87.3 20 80C20 72.7 20.3 71 21.5 71C22.5 71 23 69.9 23 67.5C23 65.6 23.4 64 24 64C24.6 64 25 63.1 25 62C25 60.9 25.7 59.8 26.5 59.5C27.3 59.2 28 58.5 28 58C28 57.5 28.6 56.3 29.4 55.5C30.2 54.7 31.3 54 31.9 54C32.5 54 33 53.5 33 53C33 52.5 33.6 51.3 34.4 50.5C35.2 49.7 36.3 49 36.9 49C37.5 49 38 48.5 38 48C38 47.5 38.6 46.3 39.4 45.5C40.2 44.7 41.3 44 41.9 44C42.5 44 43 43.5 43 43C43 42.5 43.6 41.3 44.4 40.5C45.2 39.7 46.3 39 46.9 39C47.5 39 48.1 38.4 48.2 37.7C48.3 37 49.3 35.8 50.4 35C51.5 34.2 52.3 33 52.2 32.3C52.1 31.6 52.7 31 53.5 31C54.3 31 55 30.4 55 29.7C55 29.1 56.2 27.9 57.8 27.2C59.3 26.5 61.1 26 61.7 26C62.4 26 63 25.5 63 25C63 24.5 64.6 24 66.5 24Z" fill="#414141"/>
<path d="M221.5 24C223.9 24 225 23.5 225 22.5C225 21.3 226.7 21 234 21C241.3 21 243 21.3 243 22.5C243 23.5 244.1 24 246.5 24C248.4 24 250 24.5 250 25C250 25.5 250.6 26 251.2 26C251.9 26 253.7 26.5 255.2 27.2C256.8 27.9 258 29.1 258 29.7C258 30.4 258.4 31 259 31C259.6 31 260 31.7 260 32.5C260 33.3 260.6 34 261.2 34C261.9 34.1 263 34.8 263.7 35.8C264.4 36.7 265 38.3 265 39.2C265 40.2 265.7 41 266.5 41C267.6 41 268 42.1 268 45C268 47.2 268.4 49 269 49C269.6 49 270 52.5 270 57.5C270 62.5 269.6 66 269 66C268.4 66 268 67.8 268 70C268 72.9 267.6 74 266.5 74C265.7 74 265 74.9 265 76C265 77.1 264.4 78.7 263.6 79.5C262.8 80.3 261.7 81 261.1 81C260.5 81 260 81.5 260 82C260 82.5 259.4 83.7 258.6 84.5C257.8 85.3 256.7 86 256.1 86C255.5 86 255 86.7 255 87.5C255 88.3 254.5 89 253.9 89C253.3 89 252.2 89.7 251.4 90.5C250.6 91.3 250 92.2 250 92.5C250 92.8 249.4 93.7 248.6 94.5C247.8 95.3 246.7 96 246.1 96C245.5 96 245 96.5 245 97C245 97.5 244.4 98.7 243.6 99.5C242.8 100.3 241.7 101 241.1 101C240.5 101 240 101.5 240 102C240 102.5 239.4 103.7 238.6 104.5C237.8 105.3 236.7 106 236.1 106C235.5 106 235 106.5 235 107C235 107.5 234.4 108.7 233.6 109.5C232.8 110.3 231.2 111 230.1 111C228.9 111 228 111.6 228 112.5C228 113.4 227.1 114 225.5 114C224.1 114 223 114.4 223 115C223 115.6 218.2 116 210.5 116C202.8 116 198 115.6 198 115C198 114.4 196.9 114 195.5 114C193.9 114 193 113.4 193 112.5C193 111.7 192.3 111 191.5 111C190.7 111 190 110.6 190 110C190 109.4 188.9 109 187.5 109C186.1 109 185 108.6 185 108C185 107.5 184.3 106.3 183.5 105.5C182.7 104.7 181.6 104 181 104C180.4 104 180 102.9 180 101.5C180 99.9 180.6 99 181.5 99C182.3 99 183 98.5 183 98C183 97.5 183.6 96.3 184.4 95.5C185.2 94.7 186.3 94 186.9 94C187.5 94 188 93.5 188 93C188 92.5 188.6 91.3 189.4 90.5C190.2 89.7 191.3 89 191.9 89C192.5 89 193 88.3 193 87.5C193 86.7 193.4 86 194 86C194.6 86 195 87.1 195 88.5C195 90.1 195.6 91 196.5 91C197.3 91 198 91.5 198 92C198 92.5 198.7 93.7 199.5 94.5C200.3 95.3 201.9 96 203 96C204.1 96 205.2 96.7 205.5 97.5C205.8 98.5 207.4 99 210.5 99C213.8 99 215 98.6 215 97.5C215 96.6 215.9 96 217.5 96C218.9 96 220 95.5 220 95C220 94.5 220.7 94 221.5 94C222.3 94 223 93.5 223 93C223 92.5 223.6 91.3 224.4 90.5C225.2 89.7 226.3 89 226.9 89C227.5 89 228 88.5 228 88C228 87.5 228.6 86.3 229.4 85.5C230.2 84.7 231.3 84 231.9 84C232.5 84 233 83.5 233 83C233 82.5 233.6 81.3 234.4 80.5C235.2 79.7 236.3 79 236.9 79C237.5 79 238 78.5 238 78C238 77.5 238.6 76.3 239.4 75.5C240.2 74.7 241.3 74 241.9 74C242.5 74 243 73.5 243 73C243 72.5 243.6 71.3 244.4 70.5C245.2 69.7 246.3 69 246.9 69C247.5 69 248 68.3 248 67.5C248 66.7 248.4 66 249 66C249.6 66 250 62.8 250 58.5C250 54.2 249.6 51 249 51C248.4 51 248 49.9 248 48.5C248 46.9 247.4 46 246.5 46C245.7 46 245 45.5 245 45C245 44.5 243.9 44 242.5 44C240.9 44 240 43.4 240 42.5C240 41.3 238.5 41 232.5 41C228.2 41 225 41.4 225 42C225 42.5 224.4 43.7 223.6 44.5C222.8 45.3 221.7 46 221.1 46C220.5 46 220 46.5 220 47C220 47.5 219.4 48.7 218.6 49.5C217.8 50.3 216.7 51 216.1 51C215.5 51 215 51.7 215 52.5C215 53.3 214.5 54 213.9 54C213.3 54 212.2 54.7 211.4 55.5C210.6 56.3 210 57.2 210 57.5C210 57.8 209.4 58.7 208.6 59.5C207.8 60.3 206.7 61 206.1 61C205.5 61 205 61.5 205 62C205 62.5 204.4 63.7 203.6 64.5C202.8 65.3 201.7 66 201.1 66C200.5 66 200 66.5 200 67C200 67.5 199.4 68.7 198.6 69.5C197.8 70.3 196.7 71 196.1 71C195.5 71 195 71.5 195 72C195 72.5 194.4 73.7 193.6 74.5C192.8 75.3 191.7 76 191.1 76C190.5 76 190 76.5 190 77C190 77.5 189.4 78.7 188.6 79.5C187.8 80.3 186.7 81 186.1 81C185.5 81 185 81.5 185 82C185 82.5 184.4 83.7 183.6 84.5C182.8 85.3 181.7 86 181.1 86C180.5 86 180 86.5 180 87C180 87.5 179.4 88.7 178.6 89.5C177.8 90.3 176.7 91 176.1 91C175.5 91 175 91.7 175 92.5C175 93.3 174.5 94 173.9 94C173.3 94 172.2 94.7 171.4 95.5C170.6 96.3 170 97.2 170 97.5C170 97.8 169.4 98.7 168.6 99.5C167.8 100.3 166.7 101 166.1 101C165.5 101 165 101.5 165 102C165 102.5 164.4 103.7 163.6 104.5C162.8 105.3 161.7 106 161.1 106C160.5 106 160 106.7 160 107.5C160 108.4 159.1 109 157.9 109C156.8 109 155.2 109.7 154.4 110.5C153.6 111.3 153 112.3 153 112.8C153 113.2 150.6 114.1 147.8 114.7C144.9 115.4 138.1 116 132.8 116C126.9 116 123 115.6 123 115C123 114.4 121.2 114 119 114C116.8 114 115 113.6 115 113C115 112.4 114.3 111.3 113.5 110.5C112.7 109.7 111.1 109 110 109C108.5 109 108 108.3 108 106.5C108 104.9 107.4 104 106.5 104C105.7 104 105 103.3 105 102.5C105 101.7 104.4 100.8 103.8 100.5C102.8 100.1 102.8 99.9 103.7 99.5C104.4 99.2 105 98.3 105 97.5C105 96.7 105.5 96 106.1 96C106.7 96 107.8 95.3 108.6 94.5C109.4 93.7 110 92.5 110 92C110 91.5 110.5 91 111.1 91C111.7 91 112.8 90.3 113.6 89.5C114.4 88.7 115 87.5 115 87C115 86.5 115.7 86 116.5 86C117.3 86 118 86.7 118 87.5C118 88.3 118.5 89 119 89C119.5 89 120 90.1 120 91.5C120 93.3 120.5 94 122 94C123.1 94 124.2 94.5 124.5 95C124.8 95.5 126.1 96 127.5 96C129.1 96 130 96.6 130 97.5C130 98.6 131.1 99 134 99C136.9 99 138 98.6 138 97.5C138 96.5 139.1 96 141.5 96C143.4 96 145 95.5 145 95C145 94.5 145.7 94 146.5 94C147.3 94 148 93.5 148 93C148 92.5 148.6 91.3 149.4 90.5C150.2 89.7 151.3 89 151.9 89C152.5 89 153 88.5 153 88C153 87.5 153.6 86.3 154.4 85.5C155.2 84.7 156.3 84 156.9 84C157.5 84 158 83.5 158 83C158 82.5 158.6 81.3 159.4 80.5C160.2 79.7 161.3 79 161.9 79C162.5 79 163 78.5 163 78C163 77.5 163.6 76.3 164.4 75.5C165.2 74.7 166.3 74 166.9 74C167.5 74 168 73.4 168 72.8C168 72.1 168.9 70.8 170 70C171.1 69.2 172 67.9 172 67.3C172 66.6 172.7 66 173.5 66C174.3 66 175 65.5 175 65C175 64.5 175.7 64 176.5 64C177.3 64 178 63.5 178 63C178 62.5 178.6 61.3 179.4 60.5C180.2 59.7 181.3 59 181.9 59C182.5 59 183 58.5 183 58C183 57.5 183.6 56.3 184.4 55.5C185.2 54.7 186.3 54 186.9 54C187.5 54 188 53.5 188 53C188 52.5 188.6 51.3 189.4 50.5C190.2 49.7 191.3 49 191.9 49C192.5 49 193 48.5 193 48C193 47.5 193.6 46.3 194.4 45.5C195.2 44.7 196.3 44 196.9 44C197.5 44 198 43.5 198 43C198 42.5 198.6 41.3 199.4 40.5C200.2 39.7 201.3 39 201.9 39C202.5 39 203 38.5 203 38C203 37.5 203.6 36.3 204.4 35.5C205.2 34.7 206.3 34 206.9 34C207.5 34 208 33.3 208 32.5C208 31.7 208.4 31 209 31C209.6 31 210 30.5 210 30C210 29.5 210.6 28.3 211.4 27.5C212.2 26.7 214 26 215.4 26C216.8 26 218 25.5 218 25C218 24.5 219.6 24 221.5 24Z" fill="#414141"/>
</svg>
