<svg width="34" height="34" viewBox="0 0 34 34" fill="none" xmlns="http://www.w3.org/2000/svg">
<rect x="0.859863" y="1" width="32" height="32" rx="8" stroke="black" stroke-width="0.5"/>
<path fill-rule="evenodd" clip-rule="evenodd" d="M20.6968 19.8951L24.6729 23.8711C24.9253 24.1325 24.9217 24.548 24.6648 24.8049C24.4078 25.0618 23.9924 25.0655 23.731 24.813L19.7549 20.8369C17.0027 23.0873 12.9692 22.7843 10.5841 20.1479C8.19904 17.5115 8.30014 13.468 10.814 10.9542C13.3279 8.44027 17.3714 8.33917 20.0078 10.7243C22.6441 13.1094 22.9472 17.1428 20.6968 19.8951ZM10.2134 15.6825C10.2134 18.6256 12.5993 21.0115 15.5424 21.0115C18.4841 21.0082 20.868 18.6242 20.8713 15.6825C20.8713 12.7394 18.4855 10.3536 15.5424 10.3536C12.5993 10.3536 10.2134 12.7394 10.2134 15.6825Z" fill="black"/>
</svg>
