<svg width="16" height="16" viewBox="0 0 16 16" fill="none" xmlns="http://www.w3.org/2000/svg">
<g clip-path="url(#clip0_0_8994)">
<path fill-rule="evenodd" clip-rule="evenodd" d="M1.557 8.85968C1.085 8.38752 1.085 7.61928 1.557 7.13992L2.133 6.56296C2.589 6.10758 2.837 5.50738 2.837 4.86637V4.0421C2.837 3.37789 3.381 2.8337 4.045 2.8337H4.869C5.509 2.8337 6.109 2.58562 6.56504 2.12948L7.14104 1.55329C7.60504 1.08914 8.36504 1.08114 8.84504 1.53809C8.85296 1.54528 8.85304 1.54529 8.86096 1.55326L8.86104 1.55329C8.96504 1.64932 9.10904 1.71334 9.26904 1.71334C9.59704 1.71334 9.86904 1.44926 9.86904 1.11314C9.86904 0.953095 9.80504 0.809047 9.70104 0.697007C9.66904 0.664999 9.63704 0.640991 9.60504 0.616983C8.66104 -0.239297 7.19704 -0.199281 6.293 0.705815L5.717 1.2812C5.493 1.50607 5.189 1.63331 4.869 1.63331H4.045C2.717 1.63331 1.637 2.71366 1.637 4.0421V4.86637C1.637 5.18647 1.509 5.49058 1.285 5.71465L0.701003 6.29884C-0.234997 7.24312 -0.234997 8.77248 0.709003 9.70872C0.829003 9.828 0.981003 9.884 1.133 9.884C1.285 9.884 1.445 9.82 1.557 9.70872C1.789 9.46784 1.789 9.09176 1.557 8.85968ZM14.7158 5.71705L15.2902 6.29163C15.7454 6.74376 15.9974 7.348 15.9998 7.99216C16.0014 8.6364 15.7526 9.24216 15.299 9.69832L14.715 10.2826C14.4926 10.5066 14.3646 10.8163 14.3638 11.134V11.9559C14.3638 13.2843 13.283 14.3654 11.955 14.3654C11.6238 14.3654 11.355 14.0966 11.355 13.7653C11.355 13.434 11.6238 13.165 11.955 13.165C12.6222 13.165 13.1638 12.6225 13.1638 11.9559V11.1332C13.1646 10.4914 13.4134 9.888 13.8654 9.43504L14.4414 8.85808C14.6758 8.6228 14.8006 8.31872 14.7998 7.99536C14.799 7.67288 14.6718 7.3696 14.443 7.14152L13.8662 6.56456C13.4134 6.10838 13.1646 5.50578 13.1638 4.86557V4.0421C13.1638 3.37468 12.6222 2.8329 11.955 2.8329C11.6238 2.8329 11.355 2.56402 11.355 2.23271C11.355 1.9014 11.6238 1.63251 11.955 1.63251C13.283 1.63251 14.3638 2.71286 14.3638 4.0421V4.86477C14.3646 5.18567 14.4894 5.48898 14.7158 5.71705ZM7.99944 14.8012C8.32744 14.814 8.62824 14.6756 8.85704 14.4443C9.09064 14.2106 9.47064 14.2082 9.70584 14.4419C9.94024 14.6764 9.94104 15.0565 9.70744 15.2918C9.23784 15.7639 8.61864 16 7.99944 16C7.38504 16 6.76984 15.7671 6.301 15.3006L5.717 14.7164C5.4906 14.4915 5.1874 14.3658 4.865 14.365H4.0442C2.7162 14.365 1.6354 13.2847 1.6354 11.9563C1.6354 11.625 1.9042 11.3561 2.2354 11.3561C2.5666 11.3561 2.8354 11.625 2.8354 11.9563C2.8354 12.6229 3.377 13.1646 4.0442 13.1646H4.8666C5.5074 13.1654 6.1106 13.4151 6.56424 13.8657L7.14104 14.4435C7.37464 14.6764 7.67784 14.8012 7.99944 14.8012Z" fill="#C6CEDD"/>
<path d="M9.96582 6.42891L9.74121 7.20039H5.20996L5.43457 6.42891H9.96582ZM7.93457 11.8L5.35156 8.78242L5.34668 8.17695H6.53809C6.88314 8.17695 7.16797 8.11999 7.39258 8.00605C7.62044 7.88887 7.79134 7.73099 7.90527 7.53242C8.01921 7.33385 8.07617 7.11087 8.07617 6.86348C8.07617 6.58678 8.02246 6.34427 7.91504 6.13594C7.80762 5.92435 7.63835 5.75996 7.40723 5.64277C7.17936 5.52233 6.87988 5.46211 6.50879 5.46211H5.21973L5.44922 4.69062H6.50879C7.0752 4.69062 7.54232 4.77689 7.91016 4.94941C8.28125 5.11868 8.55794 5.36608 8.74023 5.6916C8.92253 6.01712 9.01367 6.411 9.01367 6.87324C9.01367 7.27038 8.93717 7.62682 8.78418 7.94258C8.63444 8.25508 8.38542 8.50085 8.03711 8.67988C7.69206 8.85892 7.22656 8.94844 6.64062 8.94844L9.04297 11.7414V11.8H7.93457ZM9.96582 4.69062L9.74121 5.46211H6.08887L6.31348 4.69062H9.96582Z" fill="#C6CEDD"/>
</g>
<defs>
<clipPath id="clip0_0_8994">
<rect width="15.9999" height="16" fill="white"/>
</clipPath>
</defs>
</svg>
