<svg width="24" height="24" viewBox="0 0 24 24" fill="none" xmlns="http://www.w3.org/2000/svg">
<path d="M23.3224 0.69837C22.7222 0.0823154 21.8338 -0.147196 21.0055 0.0943994L1.6896 5.71142C0.815639 5.95422 0.196188 6.65121 0.0293165 7.53664C-0.141155 8.43778 0.454296 9.58173 1.23221 10.06L7.27187 13.7721C7.89132 14.1526 8.69084 14.0572 9.20346 13.5403L16.1195 6.58115C16.4676 6.21876 17.0438 6.21876 17.3921 6.58115C17.7402 6.93146 17.7402 7.4992 17.3921 7.86159L10.464 14.8219C9.95014 15.3376 9.85415 16.1409 10.2323 16.7643L13.9226 22.8645C14.3547 23.5893 15.0991 23.9999 15.9153 23.9999C16.0115 23.9999 16.1195 23.9999 16.2156 23.9879C17.1519 23.8671 17.8962 23.2269 18.1723 22.3209L23.8987 3.02974C24.1508 2.20833 23.9227 1.31444 23.3224 0.69837Z" fill="#C9EB49"/>
</svg>
