<svg width="20" height="19" viewBox="0 0 20 19" fill="none" xmlns="http://www.w3.org/2000/svg">
<path d="M19.4568 0.553027C18.9816 0.0643574 18.2783 -0.116383 17.6225 0.0748767L2.33076 4.5207C1.63888 4.71388 1.14848 5.26566 1.01637 5.96567C0.881417 6.67907 1.35281 7.58564 1.96866 7.96433L6.75006 10.9021C7.24046 11.2043 7.87342 11.1287 8.27923 10.7194L13.7544 5.21019C14.03 4.92235 14.4862 4.92235 14.7618 5.21019C15.0375 5.48656 15.0375 5.93698 14.7618 6.22387L9.27714 11.7331C8.87038 12.1424 8.79435 12.7774 9.09372 13.2718L12.0152 18.1011C12.3574 18.6739 12.9466 19 13.5929 19C13.6689 19 13.7544 19 13.8305 18.9895C14.5718 18.8948 15.161 18.387 15.3796 17.6698L19.913 2.39868C20.1125 1.7484 19.932 1.04074 19.4568 0.553027Z" fill="black"/>
<path opacity="0.4" fill-rule="evenodd" clip-rule="evenodd" d="M3.38763 12.4529C3.65189 12.1607 3.65189 11.6871 3.38763 11.3949C3.12246 11.1037 2.69257 11.1037 2.4274 11.3949L1.19204 12.7571C0.926871 13.0492 0.926871 13.5219 1.19204 13.8141C1.32418 13.9607 1.49794 14.0335 1.6717 14.0335C1.84547 14.0335 2.01923 13.9607 2.15137 13.8141L3.38763 12.4529ZM6.79158 12.5839C7.05585 12.8761 7.05585 13.3498 6.79158 13.642L5.55532 15.0032C5.42319 15.1498 5.24944 15.2226 5.07568 15.2226C4.90191 15.2226 4.72815 15.1498 4.59601 15.0032C4.33084 14.711 4.33084 14.2383 4.59601 13.9461L5.83135 12.5839C6.09652 12.2928 6.52641 12.2928 6.79158 12.5839ZM7.50085 16.3614C7.76511 16.6536 7.76511 17.1272 7.50085 17.4194L6.26459 18.7806C6.13245 18.9272 5.95869 19 5.78492 19C5.61116 19 5.4374 18.9272 5.30526 18.7806C5.04011 18.4884 5.04011 18.0158 5.30526 17.7236L6.54062 16.3614C6.80579 16.0702 7.23567 16.0702 7.50085 16.3614Z" fill="black"/>
</svg>
