<svg width="25" height="26" viewBox="0 0 25 26" fill="none" xmlns="http://www.w3.org/2000/svg">
<path d="M12.35 0.649994C5.52928 0.649994 0 6.17928 0 13C0 19.8207 5.52928 25.35 12.35 25.35C19.1707 25.35 24.7 19.8207 24.7 13C24.6928 6.18225 19.1677 0.657159 12.35 0.649994Z" fill="#C9EB49"/>
<path d="M12.4253 17.4264C11.0444 17.5011 9.68577 17.0377 8.60977 16.1248C8.32242 15.8697 7.89664 15.8901 7.63255 16.1716C7.36847 16.4532 7.35511 16.901 7.60189 17.1994C8.94488 18.3953 10.6667 19.0166 12.4253 18.9398C14.1839 19.0166 15.9057 18.3953 17.2487 17.1994C17.4955 16.901 17.4821 16.4532 17.218 16.1716C16.9539 15.8901 16.5282 15.8697 16.2408 16.1248C15.1648 17.0377 13.8062 17.5011 12.4253 17.4264Z" fill="white"/>
<path d="M10.3266 9.32948C10.3266 8.33537 9.52067 7.52948 8.52656 7.52948C7.53245 7.52948 6.72656 8.33537 6.72656 9.32948C6.72656 10.3236 7.53245 11.1295 8.52656 11.1295C9.52067 11.1295 10.3266 10.3236 10.3266 9.32948Z" fill="white"/>
<path d="M16.5266 7.52948C15.5324 7.52948 14.7266 8.33537 14.7266 9.32948C14.7266 10.3236 15.5324 11.1295 16.5266 11.1295C17.5207 11.1295 18.3266 10.3236 18.3266 9.32948C18.3266 8.33537 17.5207 7.52948 16.5266 7.52948Z" fill="white"/>
</svg>
