<svg width="390" height="844" viewBox="0 0 390 844" fill="none" xmlns="http://www.w3.org/2000/svg">
<g clip-path="url(#clip0_0_2550)">
<rect width="390" height="844" fill="#D8F46C"/>
<path fill-rule="evenodd" clip-rule="evenodd" d="M-110.76 -9.59966C-233.654 -45.125 -406.263 -120.123 -468.058 4.09964C-535.662 140.628 -416.02 269.03 -337.962 370.033C-284.298 446.656 -303.348 512.134 -374.436 586.9C-533.339 753.381 -461.786 976.285 -227.846 980C-125.86 980 -31.3084 931.704 58.597 883.408C230.974 790.532 337.374 859.028 449.581 778.458C524.851 724.822 471.651 587.829 440.521 505.401C413.967 436.47 412.244 360.455 435.642 290.391C458.874 201.694 473.742 58.2003 375.705 13.8517C331.101 -2.8661 279.76 16.4058 233.297 1.31334C175.683 -17.9586 146.876 -85.9907 90.424 -108.513C-19.4604 -152.63 -22.2481 13.6195 -110.76 -9.59966Z" stroke="white" stroke-width="0.8"/>
<path fill-rule="evenodd" clip-rule="evenodd" d="M97.9829 -82.0006C151.702 -61.0923 179.609 2.79401 234.491 21.1468C277.513 35.5503 327.512 16.7328 368.906 33.9241C461.927 72.9528 453.323 212.806 428.207 296.206C408.066 363.408 409.94 435.279 433.556 501.34C462.625 580.326 511.461 710.422 439.835 761.996C332.395 839.589 230.538 777.096 67.7512 863.749C-17.5955 908.818 -107.593 954.584 -203.87 952.958C-424.794 949.705 -492.932 738.3 -345.959 581.256C-279.914 510.4 -260.613 447.21 -312.239 375.425C-382.005 277.621 -496.42 157.283 -432.003 28.3485C-373.865 -90.3639 -211.079 -21.3666 -94.5703 10.2281C-10.8515 32.9948 -6.89812 -123.352 97.9829 -82.0006Z" stroke="white" stroke-width="0.784"/>
<path fill-rule="evenodd" clip-rule="evenodd" d="M105.901 -55.8941C156.789 -36.1878 184.208 22.9309 236.026 40.3187C276.69 53.9972 323.396 36.8412 363.13 53.3017C452.126 91.554 443.296 222.311 421.686 301.599C403.683 365.197 405.711 432.778 427.496 495.184C454.45 570.763 499.064 693.406 431.213 743.019C329.669 817.207 232.773 761.102 77.32 841.086C-3.31098 883.049 -88.1246 925.012 -178.283 922.925C-386.249 917.825 -451.312 720.762 -315.843 572.154C-254.963 505.385 -237.304 445.571 -285.403 378.106C-351.162 285.371 -455.494 171.77 -394.615 50.5196C-338.847 -60.0672 -185.486 2.52912 -76.2739 31.0452C1.80107 51.9106 7.37783 -92.9882 105.901 -55.8941Z" stroke="white" stroke-width="0.752"/>
<path fill-rule="evenodd" clip-rule="evenodd" d="M111.397 -29.1821C159.782 -10.3696 186.534 43.9774 235.385 60.4673C273.767 73.2411 317.966 57.9125 355.418 73.7057C439.162 109.474 433.579 232.103 413.341 307.353C397.318 367.613 399.34 431.241 419.157 490.367C444.513 562.83 484.524 678.724 420.552 726.336C324.712 797.637 232.128 747.238 84.8776 821.327C8.57727 859.881 -71.2124 898.434 -156.585 895.88C-350.825 890.538 -412.47 705.433 -288.715 565.153C-232.885 502.444 -217.067 446.007 -261.265 382.138C-321.98 294.114 -418.286 186.814 -359.898 72.7766C-307.325 -31.0401 -164.494 26.3262 -60.7444 51.1772C13.2297 69.7574 18.8127 -64.0199 111.397 -29.1821Z" stroke="white" stroke-width="0.736"/>
<path fill-rule="evenodd" clip-rule="evenodd" d="M117.722 -3.88666C164.25 12.8568 189.143 63.5522 235.439 78.9004C271.731 91.2254 312.909 77.7377 348.038 92.6207C426.904 126.573 423.182 240.986 405.501 312.146C391.573 369.227 393.829 429.057 412.015 484.929C435.279 554.693 471.106 662.828 410.852 708.64C320.586 776.777 232.415 731.895 93.7593 801.659C22.1052 837.007 -53.0385 871.424 -132.835 868.866C-313.599 861.424 -372.226 689.339 -260.091 557.484C-209.375 498.649 -194.951 445.629 -235.431 385.399C-291.498 302.146 -378.042 201.221 -323.835 94.7137C-274.282 -2.49138 -141.443 48.2041 -44.6634 71.4589C24.8969 87.0396 31.411 -35.0481 117.722 -3.88666Z" stroke="white" stroke-width="0.72"/>
<path fill-rule="evenodd" clip-rule="evenodd" d="M125.646 25.7608C168.686 41.0669 193.347 86.9863 236.852 101.597C270.819 113.192 309.438 101.597 342.242 115.743C415.991 147.747 414.363 253.266 399.008 320.056C386.973 373.839 389.381 429.833 405.987 482.394C427.158 548.024 458.566 649.369 402.032 693.2C317.814 756.512 233.595 718.71 103.777 779.703C36.5419 811.706 -33.4853 843.014 -107.7 839.768C-275.207 832.115 -331.74 673.488 -230.073 551.039C-183.543 496.308 -171.911 446.911 -208.437 390.789C-259.619 312.403 -337.324 218.248 -286.374 119.686C-239.844 29.2397 -117.239 73.3024 -26.5058 93.2479C37.9378 108.554 45.3825 -2.99612 125.646 25.7608Z" stroke="white" stroke-width="0.688"/>
<path fill-rule="evenodd" clip-rule="evenodd" d="M132.796 51.1852C172.942 65.1349 197.076 106.752 237.454 120.934C269.246 131.629 304.983 120.934 335.382 135.349C403.607 165.806 404.999 263.221 391.308 325.762C381.339 376.37 383.889 428.653 398.734 478.047C417.762 540.355 445.145 634.981 392.236 676.83C314.033 738.674 234.437 705.892 113.767 761.923C51.344 790.752 -13.6321 818.187 -82.089 814.699C-235.711 805.865 -289.316 660.09 -198.118 546.168C-157.972 495.019 -146.833 449.217 -179.785 396.673C-226.197 323.205 -294.189 235.089 -247.082 143.719C-203.687 60.02 -91.1392 97.2199 -7.13448 115.122C50.6478 126.049 59.0018 25.6107 132.796 51.1852Z" stroke="white" stroke-width="0.672"/>
<path fill-rule="evenodd" clip-rule="evenodd" d="M139.309 78.6567C176.914 91.2039 200.127 128.383 237.732 141.163C267.213 151.155 300.175 142.79 328.495 155.802C391.634 184.616 394.188 273.381 383.742 331.706C375.907 378.651 378.605 426.749 391.634 472.521C408.58 531.775 431.328 618.913 382.581 658.416C310.157 716.973 234.947 690.251 121.9 740.21C63.8673 765.77 3.97787 789.704 -58.9292 785.522C-198.207 775.995 -249.972 643.08 -171.28 538.049C-135.996 491.575 -126.711 448.355 -155.727 399.79C-196.814 331.241 -256.471 249.679 -212.599 166.027C-172.208 89.1126 -69.8393 119.553 7.92407 134.889C62.4745 145.578 71.0633 56.1169 139.309 78.6567Z" stroke="white" stroke-width="0.64"/>
<path fill-rule="evenodd" clip-rule="evenodd" d="M146.171 105.132C180.959 116.278 203.224 149.018 238.941 160.86C266.308 170.148 296.458 163.414 322.433 175.721C380.415 202.656 384.821 282.997 376.936 338.261C371.033 381.729 373.872 425.94 385.285 468.293C400.128 524.021 418.682 604.13 373.689 641.979C307.126 697.474 236.157 676.576 131.791 720.23C78.2165 743.45 23.2504 762.955 -34.0351 758.311C-160.898 747.862 -208.675 628.047 -141.184 531.684C-111.266 488.727 -103.381 449.717 -128.66 405.134C-164.609 341.279 -215.632 265.814 -175.045 190.349C-137.937 120.689 -45.3994 145.535 25.5696 156.913C74.5058 163.879 84.4785 85.6272 146.171 105.132Z" stroke="white" stroke-width="0.624"/>
<path fill-rule="evenodd" clip-rule="evenodd" d="M152.259 131.61C184.507 141.371 205.851 169.723 237.867 180.414C262.922 189.012 290.298 184.364 313.962 195.752C366.858 221.083 373.354 292.894 368.018 343.092C364.071 383.109 366.974 423.507 376.602 462.545C389.594 515.067 403.978 588.273 362.682 625.224C302.362 676.584 235.083 661.71 139.963 699.126C92.8861 721.088 41.2966 731.599 -10.6038 729.803C-124.283 718.183 -169.059 611.512 -113.147 523.898C-100.246 507.661 -92.4343 487.958 -90.7013 467.277C-88.9659 446.598 -93.3878 425.866 -103.403 407.699C-134.491 348.67 -176.483 280.345 -139.595 211.555C-105.259 148.343 -23.5957 167.399 41.8279 175.766C85.6756 182.505 96.8115 115.11 152.259 131.61Z" stroke="white" stroke-width="0.608"/>
<path fill-rule="evenodd" clip-rule="evenodd" d="M160.235 158.084C189.997 166.184 210.691 190.022 239.756 199.974C263.007 207.842 286.259 204.834 309.511 215.48C357.409 238.624 365.779 302.037 362.989 347.862C361.083 384.285 364.133 420.797 372.057 456.406C382.986 505.239 392.984 570.967 355.316 604.757C300.442 653.821 239.058 645.027 150.005 676.271C107.085 694.394 60.5139 702.319 13.9829 699.414C-86.464 686.917 -128.549 593.879 -83.6738 514.265C-73.3966 499.094 -67.3582 481.475 -66.1723 463.217C-64.9865 444.956 -68.6998 426.712 -76.9309 410.35C-103.205 356.425 -136.455 294.631 -102.74 233.995C-71.3505 177.756 1.19448 190.485 60.021 196.039C98.8512 200.668 110.942 144.66 160.235 158.084Z" stroke="white" stroke-width="0.576"/>
<path fill-rule="evenodd" clip-rule="evenodd" d="M164.414 184.626C191.534 191.365 210.773 210.885 237.43 219.948C258.34 223.706 278.946 228.985 299.087 235.75C341.506 257.594 351.936 312.436 351.705 354.265C351.732 387.261 354.915 420.178 361.208 452.563C370.017 499.04 375.811 557.368 341.969 588.972C293.06 635.448 234.88 632.427 156.533 658.686C118.12 673.255 76.8741 678.741 35.9992 674.721C17.4996 673.238 -0.355555 667.234 -16.0041 657.232C-31.6549 647.23 -44.6192 633.536 -53.7682 617.348C-62.9172 601.16 -67.9703 582.969 -68.4849 564.372C-68.9971 545.772 -64.9593 527.33 -56.7189 510.659C-49.0743 496.467 -44.7861 480.705 -44.1834 464.589C-43.5808 448.473 -46.6799 432.432 -53.242 417.706C-74.3354 368.208 -99.6011 312.901 -68.3087 259.453C-40.2615 209.723 22.0915 216.23 73.7819 218.786C108.551 219.483 121.532 173.936 164.414 184.626Z" stroke="white" stroke-width="0.56"/>
<path fill-rule="evenodd" clip-rule="evenodd" d="M173.164 211.143C196.05 219.198 218.387 228.725 240.032 239.661C258.713 243.408 277.033 248.762 294.784 255.659C332.295 275.83 344.643 321.969 346.973 359.529C348.604 387.815 352.565 418.652 356.992 447.17C363.748 489.599 365.146 541.07 335.091 570.747C291.755 613.872 237.702 617.118 166.407 635.898C132.275 646.777 96.0846 649.712 60.6308 644.477C44.6291 642.381 29.2962 636.761 15.7502 628.024C2.20664 619.288 -9.21211 607.656 -17.6696 593.974C-26.1271 580.295 -31.4136 564.909 -33.1447 548.939C-34.8758 532.969 -33.0049 516.816 -27.6718 501.655C-17.5344 475.386 -17.5344 446.314 -27.6718 420.043C-43.7479 375.527 -59.3582 327.302 -32.3315 280.931C-5.3049 234.561 45.2535 237.343 90.9192 238.27C122.14 238.734 136.119 203.26 173.164 211.143Z" stroke="white" stroke-width="0.544"/>
<path fill-rule="evenodd" clip-rule="evenodd" d="M180.472 237.713C201.211 243.248 221.435 250.549 240.923 259.536C256.926 263.399 272.502 268.843 287.424 275.787C302.123 286.025 314.357 299.395 323.243 314.935C332.13 330.473 337.447 347.79 338.807 365.631C342.295 390.007 346.247 416.937 349.27 442.474C353.687 481.709 350.897 526.05 326.019 553.909C288.121 593.143 238.598 603.126 176.055 616.359C146.292 623.467 115.315 623.862 85.3781 617.519C58.0008 612.226 33.825 596.354 18.1078 573.356C2.38819 550.359 -3.59878 522.094 1.44423 494.709C6.22683 471.64 5.43166 447.763 -0.880813 425.063C-11.8085 385.132 -18.7836 343.112 4.69928 304.806C28.1822 266.501 71.1953 262.554 109.326 258.84C134.669 256.518 150.014 232.606 180.472 237.713Z" stroke="white" stroke-width="0.512"/>
<path fill-rule="evenodd" clip-rule="evenodd" d="M185.967 265.266C204.454 268.075 222.55 273.049 239.878 280.087C253.286 284.324 266.231 289.91 278.518 296.76C304.293 314.547 322.396 341.432 329.189 372.02C334.759 393.653 338.398 415.74 340.064 438.017C344.206 473.246 334.499 508.703 312.993 536.897C278.742 572.475 232.055 593.391 182.727 595.252C157.526 598.89 131.831 596.832 107.53 589.232C85.699 582.491 66.497 569.136 52.5727 551.011C38.6484 532.886 30.6867 510.883 29.7866 488.036C29.31 468.334 27.5307 448.685 24.465 429.217C16.568 394.686 22.2854 358.438 40.43 328.022C50.4695 314.864 63.0657 303.876 77.4597 295.718C91.8537 287.56 107.749 282.4 124.189 280.55C145.475 276.382 162.829 262.951 185.967 265.266Z" stroke="white" stroke-width="0.5"/>
<path fill-rule="evenodd" clip-rule="evenodd" d="M194.5 575C272.649 575 336 511.649 336 433.5C336 355.351 272.649 292 194.5 292C116.351 292 53 355.351 53 433.5C53 511.649 116.351 575 194.5 575Z" stroke="white" stroke-width="0.5"/>
</g>
<defs>
<clipPath id="clip0_0_2550">
<rect width="390" height="844" fill="white"/>
</clipPath>
</defs>
</svg>
