<svg width="19" height="19" viewBox="0 0 19 19" fill="none" xmlns="http://www.w3.org/2000/svg">
<path d="M14.7211 18.9212C14.6043 18.924 14.4884 18.8946 14.3868 18.8357L9.50623 16.2653L5.20894 18.5792C4.50793 18.9592 3.63023 18.6989 3.25028 17.9969C3.24553 17.9884 3.24078 17.9798 3.23603 17.9703C3.0869 17.6768 3.03465 17.3453 3.08595 17.0204L3.92185 12.0867L0.428162 8.54934C-0.142721 7.96041 -0.142721 7.02382 0.428162 6.43394C0.650436 6.20027 0.944901 6.04924 1.26406 6.00555L6.05434 5.27793L8.18494 0.839109C8.51645 0.117195 9.3704 -0.200067 10.0933 0.131443C10.4067 0.274876 10.6575 0.526596 10.8009 0.839109L12.941 5.29313L17.7475 6.02929C18.136 6.08724 18.4846 6.30191 18.7125 6.62202C19.1381 7.23375 19.0735 8.06015 18.5587 8.59874L15.0811 12.0943L15.5656 14.7531C15.633 15.152 15.3699 15.5329 14.9719 15.608C14.5805 15.6782 14.2063 15.418 14.136 15.0257L13.643 12.3669C13.5604 11.8796 13.7152 11.3819 14.0609 11.0295L17.547 7.50922L12.7406 6.76356C12.2533 6.68471 11.8401 6.36175 11.6454 5.90866L9.50623 1.47363L7.34049 5.97895C7.14576 6.43299 6.73256 6.75501 6.24527 6.83385L1.45499 7.56146L4.91543 11.076C5.26024 11.4228 5.41507 11.9138 5.33338 12.3954L4.49748 17.3291L8.79382 15.0247C9.21937 14.7854 9.73895 14.7854 10.1645 15.0247L15.0384 17.5951C15.3357 17.7575 15.4867 18.1005 15.406 18.4301C15.3319 18.7597 15.0412 18.9943 14.704 19L14.7211 18.9212Z" fill="black"/>
</svg>
