<svg width="32" height="32" viewBox="0 0 32 32" fill="none" xmlns="http://www.w3.org/2000/svg">
<circle cx="16" cy="16" r="16" fill="#D8F46C"/>
<path fill-rule="evenodd" clip-rule="evenodd" d="M8 16C8 11.5817 11.5817 7.99998 16 7.99998C20.4163 8.00476 23.9952 11.5837 24 16C24 20.4183 20.4183 24 16 24C11.5817 24 8 20.4183 8 16ZM19.6173 12.6667H21.7647C20.8815 11.145 19.4343 10.0326 17.7367 9.57065C18.5037 10.5107 19.1366 11.5526 19.6173 12.6667ZM19 16C18.9945 16.6787 18.8876 17.3529 18.6827 18H13.3173C13.1124 17.3529 13.0055 16.6787 13 16C13.0055 15.3212 13.1124 14.6471 13.3173 14H18.6827C18.8876 14.6471 18.9945 15.3212 19 16ZM16 22.392C16.8588 21.4805 17.5822 20.4505 18.148 19.3333H13.852C14.4175 20.4507 15.1409 21.4808 16 22.392ZM13.852 12.6667C14.4178 11.5495 15.1412 10.5194 16 9.60798C16.8591 10.5192 17.5825 11.5493 18.148 12.6667H13.852ZM12.3827 12.6667C12.8644 11.5524 13.4984 10.5105 14.2667 9.57065C12.5678 10.0318 11.1192 11.1443 10.2353 12.6667H12.3827ZM9.64067 14H11.9333C11.7605 14.6527 11.6709 15.3247 11.6667 16C11.6709 16.6752 11.7605 17.3472 11.9333 18H9.64067C9.23089 16.6981 9.23089 15.3018 9.64067 14ZM12.3827 19.3333H10.2353C11.1192 20.8557 12.5678 21.9681 14.2667 22.4293C13.4984 21.4895 12.8644 20.4475 12.3827 19.3333ZM17.7367 22.4293C18.5037 21.4893 19.1366 20.4473 19.6173 19.3333H21.7647C20.8815 20.855 19.4343 21.9674 17.7367 22.4293ZM20.0667 18H22.358C22.7678 16.6981 22.7678 15.3018 22.358 14H20.0667C20.2395 14.6527 20.3291 15.3247 20.3333 16C20.3291 16.6752 20.2395 17.3472 20.0667 18Z" fill="black"/>
</svg>
