<svg width="32" height="32" viewBox="0 0 32 32" fill="none" xmlns="http://www.w3.org/2000/svg">
<circle cx="16" cy="16" r="16" fill="#D8F46C"/>
<path fill-rule="evenodd" clip-rule="evenodd" d="M21.6067 10C22.1997 9.99928 22.7624 10.2624 23.142 10.718C23.5223 11.1724 23.6811 11.7723 23.5753 12.3553L23.052 15.258C22.7659 16.8453 21.3843 18.0001 19.7713 18H11.8247C12.1065 18.7972 12.8592 19.331 13.7047 19.3333H20.6667C21.0349 19.3333 21.3333 19.6318 21.3333 20C21.3333 20.3682 21.0349 20.6667 20.6667 20.6667H13.7047C12.014 20.6667 10.5911 19.4011 10.394 17.722L9.47667 9.922C9.43712 9.58634 9.15265 9.33338 8.81467 9.33333H8.66667C8.29848 9.33333 8 9.03486 8 8.66667C8 8.29848 8.29848 8 8.66667 8H8.81467C9.82836 8.00047 10.6814 8.75927 10.8 9.766L10.828 10H21.6067ZM21.7427 15.0213L22.2667 12.1187C22.302 11.9236 22.2486 11.7229 22.121 11.5711C21.9935 11.4193 21.8049 11.3321 21.6067 11.3333H10.9853L11.6127 16.6667H19.7713C20.7402 16.6681 21.5708 15.9749 21.7427 15.0213Z" fill="black"/>
<circle cx="12.6663" cy="22.6667" r="1.33333" fill="black"/>
<circle cx="19.3333" cy="22.6667" r="1.33333" fill="black"/>
</svg>
