<svg width="32" height="32" viewBox="0 0 32 32" fill="none" xmlns="http://www.w3.org/2000/svg">
<circle cx="16" cy="16" r="16" fill="#D8F46C"/>
<path fill-rule="evenodd" clip-rule="evenodd" d="M9.33333 10.6667C9.33333 12.1394 10.5272 13.3333 12 13.3333C12.7072 13.3333 13.3855 13.0524 13.8856 12.5523C14.3857 12.0522 14.6667 11.3739 14.6667 10.6667C14.6667 9.19389 13.4728 7.99998 12 7.99998C10.5272 7.99998 9.33333 9.19389 9.33333 10.6667ZM20 13.3333C18.5272 13.3333 17.3333 12.1394 17.3333 10.6667C17.3333 9.19389 18.5272 7.99998 20 7.99998C21.4728 7.99998 22.6667 9.19389 22.6667 10.6667C22.6667 11.3739 22.3857 12.0522 21.8856 12.5523C21.3855 13.0524 20.7072 13.3333 20 13.3333ZM16 18.6667C14.5272 18.6667 13.3333 17.4727 13.3333 16C13.3333 14.5272 14.5272 13.3333 16 13.3333C17.4728 13.3333 18.6667 14.5272 18.6667 16C18.6667 16.7072 18.3857 17.3855 17.8856 17.8856C17.3855 18.3857 16.7072 18.6667 16 18.6667ZM16 14.6667C15.2636 14.6667 14.6667 15.2636 14.6667 16C14.6667 16.7364 15.2636 17.3333 16 17.3333C16.7364 17.3333 17.3333 16.7364 17.3333 16C17.3333 15.2636 16.7364 14.6667 16 14.6667ZM16 19.3333C18.2091 19.3333 20 21.1242 20 23.3333C20 23.7015 19.7015 24 19.3333 24C18.9651 24 18.6667 23.7015 18.6667 23.3333C18.6667 21.8606 17.4728 20.6667 16 20.6667C14.5272 20.6667 13.3333 21.8606 13.3333 23.3333C13.3333 23.7015 13.0349 24 12.6667 24C12.2985 24 12 23.7015 12 23.3333C12 21.1242 13.7909 19.3333 16 19.3333ZM18.6667 10.6667C18.6667 9.93027 19.2636 9.33332 20 9.33332C20.3536 9.33332 20.6928 9.47379 20.9428 9.72384C21.1929 9.97389 21.3333 10.313 21.3333 10.6667C21.3333 11.403 20.7364 12 20 12C19.2636 12 18.6667 11.403 18.6667 10.6667ZM24 18C23.9978 15.7918 22.2082 14.0022 20 14C19.6318 14 19.3333 14.2985 19.3333 14.6667C19.3333 15.0348 19.6318 15.3333 20 15.3333C21.4728 15.3333 22.6667 16.5272 22.6667 18C22.6667 18.3682 22.9651 18.6667 23.3333 18.6667C23.7015 18.6667 24 18.3682 24 18ZM12 9.33332C11.2636 9.33332 10.6667 9.93027 10.6667 10.6667C10.6667 11.403 11.2636 12 12 12C12.7364 12 13.3333 11.403 13.3333 10.6667C13.3333 10.313 13.1929 9.97389 12.9428 9.72384C12.6928 9.47379 12.3536 9.33332 12 9.33332ZM12 15.3333C10.5272 15.3333 9.33333 16.5272 9.33333 18C9.33333 18.3682 9.03486 18.6667 8.66667 18.6667C8.29848 18.6667 8 18.3682 8 18C8.0022 15.7918 9.79177 14.0022 12 14C12.2382 14 12.4583 14.1271 12.5774 14.3333C12.6964 14.5396 12.6964 14.7937 12.5774 15C12.4583 15.2063 12.2382 15.3333 12 15.3333Z" fill="black"/>
</svg>
