<svg width="12" height="13" viewBox="0 0 12 13" fill="none" xmlns="http://www.w3.org/2000/svg">
<path d="M3.50654 8.52782L6.537 5.49736L4.54713 5.50154C4.4331 5.50224 4.32369 5.45738 4.24323 5.37692C4.16276 5.29645 4.1179 5.18705 4.11861 5.07301C4.1198 4.83781 4.3107 4.64691 4.5459 4.64572L7.14361 4.64329C7.3701 4.64214 7.58742 4.73087 7.74791 4.89C7.9052 5.05024 7.99276 5.26628 7.9916 5.49129L7.98918 8.089C7.98832 8.24188 7.90596 8.38302 7.77314 8.45927C7.64031 8.53552 7.47719 8.53529 7.34523 8.45866C7.21326 8.38203 7.1325 8.24065 7.13336 8.08777L7.14055 6.10092L4.1101 9.13138C3.94273 9.29874 3.67194 9.29931 3.50527 9.13264C3.33861 8.96598 3.33917 8.69519 3.50654 8.52782Z" fill="#6B49EB"/>
<rect x="0.5" y="1.3291" width="11" height="11" rx="3.5" stroke="#6B49EB"/>
</svg>
