<svg width="12" height="13" viewBox="0 0 12 13" fill="none" xmlns="http://www.w3.org/2000/svg">
<path d="M8.49346 5.13038L5.463 8.16084L7.45287 8.15667C7.5669 8.15596 7.67631 8.20082 7.75677 8.28129C7.83724 8.36175 7.8821 8.47116 7.88139 8.58519C7.8802 8.82039 7.6893 9.01129 7.4541 9.01248L4.85639 9.01491C4.6299 9.01606 4.41258 8.92734 4.25209 8.7682C4.0948 8.60796 4.00724 8.39193 4.0084 8.16691L4.01082 5.56921C4.01168 5.41633 4.09404 5.27518 4.22686 5.19893C4.35969 5.12268 4.52281 5.12291 4.65477 5.19954C4.78674 5.27617 4.8675 5.41756 4.86664 5.57044L4.85945 7.55729L7.8899 4.52683C8.05727 4.35946 8.32806 4.35889 8.49473 4.52556C8.66139 4.69223 8.66083 4.96301 8.49346 5.13038Z" fill="#6B49EB"/>
<rect x="11.5" y="12.3291" width="11" height="11" rx="3.5" transform="rotate(180 11.5 12.3291)" stroke="#6B49EB"/>
</svg>
