<svg width="20" height="20" viewBox="0 0 20 20" fill="none" xmlns="http://www.w3.org/2000/svg">
<path fill-rule="evenodd" clip-rule="evenodd" d="M20 5.92C20 2.38 17.73 0 14.34 0H5.67C2.28 0 0 2.38 0 5.92V14.091C0 17.62 2.28 20 5.67 20H14.34C17.73 20 20 17.62 20 14.091V5.92ZM12.94 7C13.28 6.66 13.84 6.66 14.18 7C14.52 7.35 14.52 7.9 14.18 8.24L9.43 12.99C9.26 13.16 9.04 13.24 8.81 13.24C8.59 13.24 8.37 13.16 8.2 12.99L5.82 10.62C5.48 10.27 5.48 9.72 5.82 9.38C6.16 9.04 6.72 9.04 7.06 9.38L8.81 11.13L12.94 7Z" fill="#C9EB49"/>
</svg>
