<svg width="370" height="80" viewBox="0 0 370 80" fill="none" xmlns="http://www.w3.org/2000/svg">
<g clip-path="url(#clip0_0_2242)">
<rect x="-0.5" y="-0.142822" width="371" height="80" rx="16.5" stroke="black"/>
<mask id="mask0_0_2242" style="mask-type:luminance" maskUnits="userSpaceOnUse" x="-1" y="-1" width="372" height="82">
<rect x="-0.5" y="-0.142822" width="371" height="80" rx="16.5" fill="white" stroke="white"/>
</mask>
<g mask="url(#mask0_0_2242)">
<path d="M22.0391 15.9375V33H18.5234V15.9375H22.0391ZM28.8359 23.2266V25.9688H21.0781V23.2266H28.8359ZM29.6562 15.9375V18.6914H21.0781V15.9375H29.6562ZM36.4766 18.8555L31.8359 33H28.0977L34.4375 15.9375H36.8164L36.4766 18.8555ZM40.332 33L35.6797 18.8555L35.3047 15.9375H37.707L44.082 33H40.332ZM40.1211 26.6484V29.4023H31.1094V26.6484H40.1211ZM54.7227 30.4688L59.3398 34.125L57.125 36.0469L52.5781 32.3906L54.7227 30.4688ZM59.457 24.0703V24.8789C59.457 26.1758 59.2812 27.3398 58.9297 28.3711C58.5859 29.4023 58.0898 30.2812 57.4414 31.0078C56.793 31.7266 56.0273 32.2773 55.1445 32.6602C54.2617 33.043 53.2812 33.2344 52.2031 33.2344C51.1328 33.2344 50.1523 33.043 49.2617 32.6602C48.3711 32.2773 47.6016 31.7266 46.9531 31.0078C46.3047 30.2812 45.8008 29.4023 45.4414 28.3711C45.0898 27.3398 44.9141 26.1758 44.9141 24.8789V24.0703C44.9141 22.7656 45.0898 21.6016 45.4414 20.5781C45.8008 19.5469 46.3008 18.668 46.9414 17.9414C47.582 17.2148 48.3477 16.6602 49.2383 16.2773C50.1289 15.8945 51.1094 15.7031 52.1797 15.7031C53.2578 15.7031 54.2383 15.8945 55.1211 16.2773C56.0117 16.6602 56.7812 17.2148 57.4297 17.9414C58.0781 18.668 58.5781 19.5469 58.9297 20.5781C59.2812 21.6016 59.457 22.7656 59.457 24.0703ZM55.9062 24.8789V24.0469C55.9062 23.1406 55.8203 22.3438 55.6484 21.6562C55.4844 20.9688 55.2422 20.3906 54.9219 19.9219C54.6094 19.4531 54.2227 19.1016 53.7617 18.8672C53.3008 18.625 52.7734 18.5039 52.1797 18.5039C51.5859 18.5039 51.0586 18.625 50.5977 18.8672C50.1367 19.1016 49.75 19.4531 49.4375 19.9219C49.125 20.3906 48.8867 20.9688 48.7227 21.6562C48.5586 22.3438 48.4766 23.1406 48.4766 24.0469V24.8789C48.4766 25.7773 48.5586 26.5742 48.7227 27.2695C48.8867 27.957 49.125 28.5391 49.4375 29.0156C49.7578 29.4844 50.1484 29.8398 50.6094 30.082C51.0781 30.3242 51.6094 30.4453 52.2031 30.4453C52.7969 30.4453 53.3203 30.3242 53.7734 30.082C54.2344 29.8398 54.6211 29.4844 54.9336 29.0156C55.2539 28.5391 55.4961 27.957 55.6602 27.2695C55.8242 26.5742 55.9062 25.7773 55.9062 24.8789ZM72.0664 33H68.668V19.1953C68.668 18.2344 68.8555 17.4258 69.2305 16.7695C69.6133 16.1055 70.1484 15.6055 70.8359 15.2695C71.5312 14.9258 72.3555 14.7539 73.3086 14.7539C73.6211 14.7539 73.9219 14.7773 74.2109 14.8242C74.5 14.8633 74.7812 14.9141 75.0547 14.9766L75.0195 17.5195C74.8711 17.4805 74.7148 17.4531 74.5508 17.4375C74.3867 17.4219 74.1953 17.4141 73.9766 17.4141C73.5703 17.4141 73.2227 17.4844 72.9336 17.625C72.6523 17.7578 72.4375 17.957 72.2891 18.2227C72.1406 18.4883 72.0664 18.8125 72.0664 19.1953V33ZM74.5977 20.3203V22.7109H66.7812V20.3203H74.5977ZM75.8281 26.7891V26.543C75.8281 25.6133 75.9609 24.7578 76.2266 23.9766C76.4922 23.1875 76.8789 22.5039 77.3867 21.9258C77.8945 21.3477 78.5195 20.8984 79.2617 20.5781C80.0039 20.25 80.8555 20.0859 81.8164 20.0859C82.7773 20.0859 83.6328 20.25 84.3828 20.5781C85.1328 20.8984 85.7617 21.3477 86.2695 21.9258C86.7852 22.5039 87.1758 23.1875 87.4414 23.9766C87.707 24.7578 87.8398 25.6133 87.8398 26.543V26.7891C87.8398 27.7109 87.707 28.5664 87.4414 29.3555C87.1758 30.1367 86.7852 30.8203 86.2695 31.4062C85.7617 31.9844 85.1367 32.4336 84.3945 32.7539C83.6523 33.0742 82.8008 33.2344 81.8398 33.2344C80.8789 33.2344 80.0234 33.0742 79.2734 32.7539C78.5312 32.4336 77.9023 31.9844 77.3867 31.4062C76.8789 30.8203 76.4922 30.1367 76.2266 29.3555C75.9609 28.5664 75.8281 27.7109 75.8281 26.7891ZM79.2031 26.543V26.7891C79.2031 27.3203 79.25 27.8164 79.3438 28.2773C79.4375 28.7383 79.5859 29.1445 79.7891 29.4961C80 29.8398 80.2734 30.1094 80.6094 30.3047C80.9453 30.5 81.3555 30.5977 81.8398 30.5977C82.3086 30.5977 82.7109 30.5 83.0469 30.3047C83.3828 30.1094 83.6523 29.8398 83.8555 29.4961C84.0586 29.1445 84.207 28.7383 84.3008 28.2773C84.4023 27.8164 84.4531 27.3203 84.4531 26.7891V26.543C84.4531 26.0273 84.4023 25.543 84.3008 25.0898C84.207 24.6289 84.0547 24.2227 83.8438 23.8711C83.6406 23.5117 83.3711 23.2305 83.0352 23.0273C82.6992 22.8242 82.293 22.7227 81.8164 22.7227C81.3398 22.7227 80.9336 22.8242 80.5977 23.0273C80.2695 23.2305 80 23.5117 79.7891 23.8711C79.5859 24.2227 79.4375 24.6289 79.3438 25.0898C79.25 25.543 79.2031 26.0273 79.2031 26.543ZM93.2891 23.0859V33H89.9141V20.3203H93.0898L93.2891 23.0859ZM97.1094 20.2383L97.0508 23.3672C96.8867 23.3438 96.6875 23.3242 96.4531 23.3086C96.2266 23.2852 96.0195 23.2734 95.832 23.2734C95.3555 23.2734 94.9414 23.3359 94.5898 23.4609C94.2461 23.5781 93.957 23.7539 93.7227 23.9883C93.4961 24.2227 93.3242 24.5078 93.207 24.8438C93.0977 25.1797 93.0352 25.5625 93.0195 25.9922L92.3398 25.7812C92.3398 24.9609 92.4219 24.207 92.5859 23.5195C92.75 22.8242 92.9883 22.2188 93.3008 21.7031C93.6211 21.1875 94.0117 20.7891 94.4727 20.5078C94.9336 20.2266 95.4609 20.0859 96.0547 20.0859C96.2422 20.0859 96.4336 20.1016 96.6289 20.1328C96.8242 20.1562 96.9844 20.1914 97.1094 20.2383ZM27.9453 43.9375H31.4492V55.2109C31.4492 56.5234 31.168 57.6289 30.6055 58.5273C30.0508 59.4258 29.2812 60.1016 28.2969 60.5547C27.3203 61.0078 26.1953 61.2344 24.9219 61.2344C23.6484 61.2344 22.5156 61.0078 21.5234 60.5547C20.5391 60.1016 19.7656 59.4258 19.2031 58.5273C18.6484 57.6289 18.3711 56.5234 18.3711 55.2109V43.9375H21.8867V55.2109C21.8867 55.9766 22.0078 56.6016 22.25 57.0859C22.4922 57.5703 22.8398 57.9258 23.293 58.1523C23.7539 58.3789 24.2969 58.4922 24.9219 58.4922C25.5625 58.4922 26.1055 58.3789 26.5508 58.1523C27.0039 57.9258 27.3477 57.5703 27.582 57.0859C27.8242 56.6016 27.9453 55.9766 27.9453 55.2109V43.9375ZM37.4375 51.0273V61H34.0625V48.3203H37.2266L37.4375 51.0273ZM36.9453 54.2148H36.0312C36.0312 53.2773 36.1523 52.4336 36.3945 51.6836C36.6367 50.9258 36.9766 50.2812 37.4141 49.75C37.8516 49.2109 38.3711 48.8008 38.9727 48.5195C39.582 48.2305 40.2617 48.0859 41.0117 48.0859C41.6055 48.0859 42.1484 48.1719 42.6406 48.3438C43.1328 48.5156 43.5547 48.7891 43.9062 49.1641C44.2656 49.5391 44.5391 50.0352 44.7266 50.6523C44.9219 51.2695 45.0195 52.0234 45.0195 52.9141V61H41.6211V52.9023C41.6211 52.3398 41.543 51.9023 41.3867 51.5898C41.2305 51.2773 41 51.0586 40.6953 50.9336C40.3984 50.8008 40.0312 50.7344 39.5938 50.7344C39.1406 50.7344 38.7461 50.8242 38.4102 51.0039C38.082 51.1836 37.8086 51.4336 37.5898 51.7539C37.3789 52.0664 37.2188 52.4336 37.1094 52.8555C37 53.2773 36.9453 53.7305 36.9453 54.2148ZM51.1484 43V61H47.7617V43H51.1484ZM57.5 48.3203V61H54.1133V48.3203H57.5ZM53.9023 45.0156C53.9023 44.5234 54.0742 44.1172 54.418 43.7969C54.7617 43.4766 55.2227 43.3164 55.8008 43.3164C56.3711 43.3164 56.8281 43.4766 57.1719 43.7969C57.5234 44.1172 57.6992 44.5234 57.6992 45.0156C57.6992 45.5078 57.5234 45.9141 57.1719 46.2344C56.8281 46.5547 56.3711 46.7148 55.8008 46.7148C55.2227 46.7148 54.7617 46.5547 54.418 46.2344C54.0742 45.9141 53.9023 45.5078 53.9023 45.0156ZM67.1445 57.4961C67.1445 57.2539 67.0742 57.0352 66.9336 56.8398C66.793 56.6445 66.5312 56.4648 66.1484 56.3008C65.7734 56.1289 65.2305 55.9727 64.5195 55.832C63.8789 55.6914 63.2812 55.5156 62.7266 55.3047C62.1797 55.0859 61.7031 54.8242 61.2969 54.5195C60.8984 54.2148 60.5859 53.8555 60.3594 53.4414C60.1328 53.0195 60.0195 52.5391 60.0195 52C60.0195 51.4688 60.1328 50.9688 60.3594 50.5C60.5938 50.0312 60.9258 49.6172 61.3555 49.2578C61.793 48.8906 62.3242 48.6055 62.9492 48.4023C63.582 48.1914 64.293 48.0859 65.082 48.0859C66.1836 48.0859 67.1289 48.2617 67.918 48.6133C68.7148 48.9648 69.3242 49.4492 69.7461 50.0664C70.1758 50.6758 70.3906 51.3711 70.3906 52.1523H67.0156C67.0156 51.8242 66.9453 51.5312 66.8047 51.2734C66.6719 51.0078 66.4609 50.8008 66.1719 50.6523C65.8906 50.4961 65.5234 50.418 65.0703 50.418C64.6953 50.418 64.3711 50.4844 64.0977 50.6172C63.8242 50.7422 63.6133 50.9141 63.4648 51.1328C63.3242 51.3438 63.2539 51.5781 63.2539 51.8359C63.2539 52.0312 63.293 52.207 63.3711 52.3633C63.457 52.5117 63.5938 52.6484 63.7812 52.7734C63.9688 52.8984 64.2109 53.0156 64.5078 53.125C64.8125 53.2266 65.1875 53.3203 65.6328 53.4062C66.5469 53.5938 67.3633 53.8398 68.082 54.1445C68.8008 54.4414 69.3711 54.8477 69.793 55.3633C70.2148 55.8711 70.4258 56.5391 70.4258 57.3672C70.4258 57.9297 70.3008 58.4453 70.0508 58.9141C69.8008 59.3828 69.4414 59.793 68.9727 60.1445C68.5039 60.4883 67.9414 60.7578 67.2852 60.9531C66.6367 61.1406 65.9062 61.2344 65.0938 61.2344C63.9141 61.2344 62.9141 61.0234 62.0938 60.6016C61.2812 60.1797 60.6641 59.6445 60.2422 58.9961C59.8281 58.3398 59.6211 57.668 59.6211 56.9805H62.8203C62.8359 57.4414 62.9531 57.8125 63.1719 58.0938C63.3984 58.375 63.6836 58.5781 64.0273 58.7031C64.3789 58.8281 64.7578 58.8906 65.1641 58.8906C65.6016 58.8906 65.9648 58.832 66.2539 58.7148C66.543 58.5898 66.7617 58.4258 66.9102 58.2227C67.0664 58.0117 67.1445 57.7695 67.1445 57.4961ZM78.8281 48.3203V50.7109H71.4453V48.3203H78.8281ZM73.2734 45.1914H76.6484V57.1797C76.6484 57.5469 76.6953 57.8281 76.7891 58.0234C76.8906 58.2188 77.0391 58.3555 77.2344 58.4336C77.4297 58.5039 77.6758 58.5391 77.9727 58.5391C78.1836 58.5391 78.3711 58.5312 78.5352 58.5156C78.707 58.4922 78.8516 58.4688 78.9688 58.4453L78.9805 60.9297C78.6914 61.0234 78.3789 61.0977 78.043 61.1523C77.707 61.207 77.3359 61.2344 76.9297 61.2344C76.1875 61.2344 75.5391 61.1133 74.9844 60.8711C74.4375 60.6211 74.0156 60.2227 73.7188 59.6758C73.4219 59.1289 73.2734 58.4102 73.2734 57.5195V45.1914ZM86.5859 61.2344C85.6016 61.2344 84.7188 61.0781 83.9375 60.7656C83.1562 60.4453 82.4922 60.0039 81.9453 59.4414C81.4062 58.8789 80.9922 58.2266 80.7031 57.4844C80.4141 56.7344 80.2695 55.9375 80.2695 55.0938V54.625C80.2695 53.6641 80.4062 52.7852 80.6797 51.9883C80.9531 51.1914 81.3438 50.5 81.8516 49.9141C82.3672 49.3281 82.9922 48.8789 83.7266 48.5664C84.4609 48.2461 85.2891 48.0859 86.2109 48.0859C87.1094 48.0859 87.9062 48.2344 88.6016 48.5312C89.2969 48.8281 89.8789 49.25 90.3477 49.7969C90.8242 50.3438 91.1836 51 91.4258 51.7656C91.668 52.5234 91.7891 53.3672 91.7891 54.2969V55.7031H81.7109V53.4531H88.4727V53.1953C88.4727 52.7266 88.3867 52.3086 88.2148 51.9414C88.0508 51.5664 87.8008 51.2695 87.4648 51.0508C87.1289 50.832 86.6992 50.7227 86.1758 50.7227C85.7305 50.7227 85.3477 50.8203 85.0273 51.0156C84.707 51.2109 84.4453 51.4844 84.2422 51.8359C84.0469 52.1875 83.8984 52.6016 83.7969 53.0781C83.7031 53.5469 83.6562 54.0625 83.6562 54.625V55.0938C83.6562 55.6016 83.7266 56.0703 83.8672 56.5C84.0156 56.9297 84.2227 57.3008 84.4883 57.6133C84.7617 57.9258 85.0898 58.168 85.4727 58.3398C85.8633 58.5117 86.3047 58.5977 86.7969 58.5977C87.4062 58.5977 87.9727 58.4805 88.4961 58.2461C89.0273 58.0039 89.4844 57.6406 89.8672 57.1562L91.5078 58.9375C91.2422 59.3203 90.8789 59.6875 90.418 60.0391C89.9648 60.3906 89.418 60.6797 88.7773 60.9062C88.1367 61.125 87.4062 61.2344 86.5859 61.2344ZM101.199 58.2344V43H104.598V61H101.539L101.199 58.2344ZM93.1836 54.8125V54.5664C93.1836 53.5977 93.293 52.7188 93.5117 51.9297C93.7305 51.1328 94.0508 50.4492 94.4727 49.8789C94.8945 49.3086 95.4141 48.8672 96.0312 48.5547C96.6484 48.2422 97.3516 48.0859 98.1406 48.0859C98.8828 48.0859 99.5312 48.2422 100.086 48.5547C100.648 48.8672 101.125 49.3125 101.516 49.8906C101.914 50.4609 102.234 51.1367 102.477 51.918C102.719 52.6914 102.895 53.5391 103.004 54.4609V55C102.895 55.8828 102.719 56.7031 102.477 57.4609C102.234 58.2188 101.914 58.8828 101.516 59.4531C101.125 60.0156 100.648 60.4531 100.086 60.7656C99.5234 61.0781 98.8672 61.2344 98.1172 61.2344C97.3281 61.2344 96.625 61.0742 96.0078 60.7539C95.3984 60.4336 94.8828 59.9844 94.4609 59.4062C94.0469 58.8281 93.7305 58.1484 93.5117 57.3672C93.293 56.5859 93.1836 55.7344 93.1836 54.8125ZM96.5586 54.5664V54.8125C96.5586 55.3359 96.5977 55.8242 96.6758 56.2773C96.7617 56.7305 96.8984 57.1328 97.0859 57.4844C97.2812 57.8281 97.5312 58.0977 97.8359 58.293C98.1484 58.4805 98.5273 58.5742 98.9727 58.5742C99.5508 58.5742 100.027 58.4453 100.402 58.1875C100.777 57.9219 101.062 57.5586 101.258 57.0977C101.461 56.6367 101.578 56.1055 101.609 55.5039V53.9688C101.586 53.4766 101.516 53.0352 101.398 52.6445C101.289 52.2461 101.125 51.9062 100.906 51.625C100.695 51.3438 100.43 51.125 100.109 50.9688C99.7969 50.8125 99.4258 50.7344 98.9961 50.7344C98.5586 50.7344 98.1836 50.8359 97.8711 51.0391C97.5586 51.2344 97.3047 51.5039 97.1094 51.8477C96.9219 52.1914 96.7812 52.5977 96.6875 53.0664C96.6016 53.5273 96.5586 54.0273 96.5586 54.5664ZM122.305 56.5352C122.305 56.2305 122.258 55.957 122.164 55.7148C122.078 55.4648 121.914 55.2383 121.672 55.0352C121.43 54.8242 121.09 54.6172 120.652 54.4141C120.215 54.2109 119.648 54 118.953 53.7812C118.18 53.5312 117.445 53.25 116.75 52.9375C116.062 52.625 115.453 52.2617 114.922 51.8477C114.398 51.4258 113.984 50.9375 113.68 50.3828C113.383 49.8281 113.234 49.1836 113.234 48.4492C113.234 47.7383 113.391 47.0938 113.703 46.5156C114.016 45.9297 114.453 45.4297 115.016 45.0156C115.578 44.5938 116.242 44.2695 117.008 44.043C117.781 43.8164 118.629 43.7031 119.551 43.7031C120.809 43.7031 121.906 43.9297 122.844 44.3828C123.781 44.8359 124.508 45.457 125.023 46.2461C125.547 47.0352 125.809 47.9375 125.809 48.9531H122.316C122.316 48.4531 122.211 48.0156 122 47.6406C121.797 47.2578 121.484 46.957 121.062 46.7383C120.648 46.5195 120.125 46.4102 119.492 46.4102C118.883 46.4102 118.375 46.5039 117.969 46.6914C117.562 46.8711 117.258 47.1172 117.055 47.4297C116.852 47.7344 116.75 48.0781 116.75 48.4609C116.75 48.75 116.82 49.0117 116.961 49.2461C117.109 49.4805 117.328 49.6992 117.617 49.9023C117.906 50.1055 118.262 50.2969 118.684 50.4766C119.105 50.6562 119.594 50.832 120.148 51.0039C121.078 51.2852 121.895 51.6016 122.598 51.9531C123.309 52.3047 123.902 52.6992 124.379 53.1367C124.855 53.5742 125.215 54.0703 125.457 54.625C125.699 55.1797 125.82 55.8086 125.82 56.5117C125.82 57.2539 125.676 57.918 125.387 58.5039C125.098 59.0898 124.68 59.5859 124.133 59.9922C123.586 60.3984 122.934 60.707 122.176 60.918C121.418 61.1289 120.57 61.2344 119.633 61.2344C118.789 61.2344 117.957 61.125 117.137 60.9062C116.316 60.6797 115.57 60.3398 114.898 59.8867C114.234 59.4336 113.703 58.8555 113.305 58.1523C112.906 57.4492 112.707 56.6172 112.707 55.6562H116.234C116.234 56.1875 116.316 56.6367 116.48 57.0039C116.645 57.3711 116.875 57.668 117.172 57.8945C117.477 58.1211 117.836 58.2852 118.25 58.3867C118.672 58.4883 119.133 58.5391 119.633 58.5391C120.242 58.5391 120.742 58.4531 121.133 58.2812C121.531 58.1094 121.824 57.8711 122.012 57.5664C122.207 57.2617 122.305 56.918 122.305 56.5352ZM134.211 48.3203V50.7109H126.828V48.3203H134.211ZM128.656 45.1914H132.031V57.1797C132.031 57.5469 132.078 57.8281 132.172 58.0234C132.273 58.2188 132.422 58.3555 132.617 58.4336C132.812 58.5039 133.059 58.5391 133.355 58.5391C133.566 58.5391 133.754 58.5312 133.918 58.5156C134.09 58.4922 134.234 58.4688 134.352 58.4453L134.363 60.9297C134.074 61.0234 133.762 61.0977 133.426 61.1523C133.09 61.207 132.719 61.2344 132.312 61.2344C131.57 61.2344 130.922 61.1133 130.367 60.8711C129.82 60.6211 129.398 60.2227 129.102 59.6758C128.805 59.1289 128.656 58.4102 128.656 57.5195V45.1914ZM135.289 54.7891V54.543C135.289 53.6133 135.422 52.7578 135.688 51.9766C135.953 51.1875 136.34 50.5039 136.848 49.9258C137.355 49.3477 137.98 48.8984 138.723 48.5781C139.465 48.25 140.316 48.0859 141.277 48.0859C142.238 48.0859 143.094 48.25 143.844 48.5781C144.594 48.8984 145.223 49.3477 145.73 49.9258C146.246 50.5039 146.637 51.1875 146.902 51.9766C147.168 52.7578 147.301 53.6133 147.301 54.543V54.7891C147.301 55.7109 147.168 56.5664 146.902 57.3555C146.637 58.1367 146.246 58.8203 145.73 59.4062C145.223 59.9844 144.598 60.4336 143.855 60.7539C143.113 61.0742 142.262 61.2344 141.301 61.2344C140.34 61.2344 139.484 61.0742 138.734 60.7539C137.992 60.4336 137.363 59.9844 136.848 59.4062C136.34 58.8203 135.953 58.1367 135.688 57.3555C135.422 56.5664 135.289 55.7109 135.289 54.7891ZM138.664 54.543V54.7891C138.664 55.3203 138.711 55.8164 138.805 56.2773C138.898 56.7383 139.047 57.1445 139.25 57.4961C139.461 57.8398 139.734 58.1094 140.07 58.3047C140.406 58.5 140.816 58.5977 141.301 58.5977C141.77 58.5977 142.172 58.5 142.508 58.3047C142.844 58.1094 143.113 57.8398 143.316 57.4961C143.52 57.1445 143.668 56.7383 143.762 56.2773C143.863 55.8164 143.914 55.3203 143.914 54.7891V54.543C143.914 54.0273 143.863 53.543 143.762 53.0898C143.668 52.6289 143.516 52.2227 143.305 51.8711C143.102 51.5117 142.832 51.2305 142.496 51.0273C142.16 50.8242 141.754 50.7227 141.277 50.7227C140.801 50.7227 140.395 50.8242 140.059 51.0273C139.73 51.2305 139.461 51.5117 139.25 51.8711C139.047 52.2227 138.898 52.6289 138.805 53.0898C138.711 53.543 138.664 54.0273 138.664 54.543ZM154.613 58.5977C155.027 58.5977 155.395 58.5195 155.715 58.3633C156.035 58.1992 156.285 57.9727 156.465 57.6836C156.652 57.3867 156.75 57.0391 156.758 56.6406H159.934C159.926 57.5312 159.688 58.3242 159.219 59.0195C158.75 59.707 158.121 60.25 157.332 60.6484C156.543 61.0391 155.66 61.2344 154.684 61.2344C153.699 61.2344 152.84 61.0703 152.105 60.7422C151.379 60.4141 150.773 59.9609 150.289 59.3828C149.805 58.7969 149.441 58.1172 149.199 57.3438C148.957 56.5625 148.836 55.7266 148.836 54.8359V54.4961C148.836 53.5977 148.957 52.7617 149.199 51.9883C149.441 51.207 149.805 50.5273 150.289 49.9492C150.773 49.3633 151.379 48.9062 152.105 48.5781C152.832 48.25 153.684 48.0859 154.66 48.0859C155.699 48.0859 156.609 48.2852 157.391 48.6836C158.18 49.082 158.797 49.6523 159.242 50.3945C159.695 51.1289 159.926 52 159.934 53.0078H156.758C156.75 52.5859 156.66 52.2031 156.488 51.8594C156.324 51.5156 156.082 51.2422 155.762 51.0391C155.449 50.8281 155.062 50.7227 154.602 50.7227C154.109 50.7227 153.707 50.8281 153.395 51.0391C153.082 51.2422 152.84 51.5234 152.668 51.8828C152.496 52.2344 152.375 52.6367 152.305 53.0898C152.242 53.5352 152.211 54.0039 152.211 54.4961V54.8359C152.211 55.3281 152.242 55.8008 152.305 56.2539C152.367 56.707 152.484 57.1094 152.656 57.4609C152.836 57.8125 153.082 58.0898 153.395 58.293C153.707 58.4961 154.113 58.5977 154.613 58.5977ZM165.266 42.9883V61H161.891V42.9883H165.266ZM173.258 48.3203L167.75 54.6016L164.797 57.5898L163.566 55.1523L165.91 52.1758L169.203 48.3203H173.258ZM169.754 61L166.004 55.1406L168.336 53.1016L173.645 61H169.754ZM181.566 57.4961C181.566 57.2539 181.496 57.0352 181.355 56.8398C181.215 56.6445 180.953 56.4648 180.57 56.3008C180.195 56.1289 179.652 55.9727 178.941 55.832C178.301 55.6914 177.703 55.5156 177.148 55.3047C176.602 55.0859 176.125 54.8242 175.719 54.5195C175.32 54.2148 175.008 53.8555 174.781 53.4414C174.555 53.0195 174.441 52.5391 174.441 52C174.441 51.4688 174.555 50.9688 174.781 50.5C175.016 50.0312 175.348 49.6172 175.777 49.2578C176.215 48.8906 176.746 48.6055 177.371 48.4023C178.004 48.1914 178.715 48.0859 179.504 48.0859C180.605 48.0859 181.551 48.2617 182.34 48.6133C183.137 48.9648 183.746 49.4492 184.168 50.0664C184.598 50.6758 184.812 51.3711 184.812 52.1523H181.438C181.438 51.8242 181.367 51.5312 181.227 51.2734C181.094 51.0078 180.883 50.8008 180.594 50.6523C180.312 50.4961 179.945 50.418 179.492 50.418C179.117 50.418 178.793 50.4844 178.52 50.6172C178.246 50.7422 178.035 50.9141 177.887 51.1328C177.746 51.3438 177.676 51.5781 177.676 51.8359C177.676 52.0312 177.715 52.207 177.793 52.3633C177.879 52.5117 178.016 52.6484 178.203 52.7734C178.391 52.8984 178.633 53.0156 178.93 53.125C179.234 53.2266 179.609 53.3203 180.055 53.4062C180.969 53.5938 181.785 53.8398 182.504 54.1445C183.223 54.4414 183.793 54.8477 184.215 55.3633C184.637 55.8711 184.848 56.5391 184.848 57.3672C184.848 57.9297 184.723 58.4453 184.473 58.9141C184.223 59.3828 183.863 59.793 183.395 60.1445C182.926 60.4883 182.363 60.7578 181.707 60.9531C181.059 61.1406 180.328 61.2344 179.516 61.2344C178.336 61.2344 177.336 61.0234 176.516 60.6016C175.703 60.1797 175.086 59.6445 174.664 58.9961C174.25 58.3398 174.043 57.668 174.043 56.9805H177.242C177.258 57.4414 177.375 57.8125 177.594 58.0938C177.82 58.375 178.105 58.5781 178.449 58.7031C178.801 58.8281 179.18 58.8906 179.586 58.8906C180.023 58.8906 180.387 58.832 180.676 58.7148C180.965 58.5898 181.184 58.4258 181.332 58.2227C181.488 58.0117 181.566 57.7695 181.566 57.4961Z" fill="black"/>
</g>
<g clip-path="url(#clip1_0_2242)">
<rect x="232" y="-8.39282" width="140" height="87.5" fill="white"/>
<mask id="mask1_0_2242" style="mask-type:luminance" maskUnits="userSpaceOnUse" x="232" y="-9" width="140" height="89">
<rect x="232" y="-8.39282" width="140" height="87.5" fill="white"/>
</mask>
<g mask="url(#mask1_0_2242)">
<path fill-rule="evenodd" clip-rule="evenodd" d="M258.359 79.3046L342.688 79.2166V-7.10168L258.359 79.3046Z" fill="#DBE2EA"/>
<path fill-rule="evenodd" clip-rule="evenodd" d="M280.781 38.2009L321.25 79.1072H366.094V-8.39282H280.781V38.2009Z" fill="#C9EB49"/>
<path fill-rule="evenodd" clip-rule="evenodd" d="M327.375 -8.39282H366.094V37.5447H327.375V-8.39282Z" fill="#D8F46C"/>
<rect x="280.781" y="-8.39282" width="46.5938" height="20.3438" fill="#2C2738"/>
<path fill-rule="evenodd" clip-rule="evenodd" d="M327.375 -8.39282V38.2009H280.781L327.375 -8.39282Z" fill="white"/>
<path fill-rule="evenodd" clip-rule="evenodd" d="M337.438 44.9822L371.562 79.1072H337.438V44.9822Z" fill="#6B49EB"/>
<path fill-rule="evenodd" clip-rule="evenodd" d="M372 -14.2991L324.969 32.7322L372 79.5447V-14.2991Z" fill="#C9EB49"/>
<path fill-rule="evenodd" clip-rule="evenodd" d="M280.781 38.2009V-8.39282H233.75" fill="#D8F46C"/>
<circle cx="280.781" cy="1.88843" r="6.5625" fill="#6B49EB"/>
<circle cx="352.094" cy="5.38843" r="6.5625" fill="white"/>
<circle cx="309" cy="67.0759" r="8.3125" fill="white"/>
<path fill-rule="evenodd" clip-rule="evenodd" d="M315.045 72.8386C316.495 71.3446 317.388 69.3068 317.388 67.0605C317.388 62.4782 313.673 58.7634 309.09 58.7634C306.844 58.7634 304.806 59.6561 303.312 61.106L315.045 72.8386Z" fill="#2C2738"/>
<circle cx="327.712" cy="35.2571" r="22.2031" transform="rotate(45 327.712 35.2571)" fill="#C6CEDD"/>
<circle cx="327.867" cy="35.2571" r="10.7188" transform="rotate(45 327.867 35.2571)" fill="#6B49EB"/>
<path fill-rule="evenodd" clip-rule="evenodd" d="M313.215 52.075C321.937 59.6105 335.132 59.2378 343.412 50.9572C351.693 42.6765 352.065 29.4824 344.53 20.7595L313.215 52.075Z" fill="white"/>
</g>
</g>
<path d="M211.003 52.1913H222.431L218.671 48.447C218.455 48.2333 218.333 47.9424 218.333 47.639C218.333 47.3355 218.455 47.0446 218.671 46.8309C219.117 46.3897 219.837 46.3897 220.283 46.8309L225.186 51.7247C225.615 52.1496 225.857 52.7266 225.86 53.3293C225.854 53.9281 225.612 54.5005 225.186 54.9226L220.283 59.8164C219.993 60.103 219.571 60.2139 219.177 60.1072C218.783 60.0005 218.476 59.6925 218.371 59.2992C218.267 58.9058 218.381 58.4869 218.671 58.2003L222.431 54.4674H211.003C210.372 54.4674 209.86 53.9579 209.86 53.3293C209.86 52.7008 210.372 52.1913 211.003 52.1913Z" fill="black"/>
</g>
<defs>
<clipPath id="clip0_0_2242">
<rect width="370" height="79" fill="white" transform="translate(0 0.357178)"/>
</clipPath>
<clipPath id="clip1_0_2242">
<rect width="140" height="87.5" fill="white" transform="translate(232 -8.39282)"/>
</clipPath>
</defs>
</svg>
