<svg width="374" height="157" viewBox="0 0 374 157" fill="none" xmlns="http://www.w3.org/2000/svg">
<g clip-path="url(#clip0_0_3162)">
<rect y="0.462341" width="374" height="156" rx="8" fill="#C9EB49" stroke="black"/>
<rect y="5.46234" width="374" height="156" rx="8" fill="#D8F46C" stroke="black"/>
<mask id="mask0_0_3162" style="mask-type:luminance" maskUnits="userSpaceOnUse" x="-1" y="4" width="376" height="158">
<rect y="5.46234" width="374" height="156" rx="8" fill="white" stroke="white"/>
</mask>
<g mask="url(#mask0_0_3162)">
</g>
<g filter="url(#filter0_d_0_3162)">
<path fill-rule="evenodd" clip-rule="evenodd" d="M37 4.99998C37 4.99998 37 25.0015 37 26.5135C37 28.0254 44 20.1573 44 20.1573C44 20.1573 51 28.0226 51 26.5135C51 25.0043 51 4.99998 51 4.99998H37Z" fill="white"/>
<path d="M44 20.1573L44.3735 19.8249L43.9999 19.4052L43.6264 19.825L44 20.1573ZM44 20.1573L44.3735 19.825L44.3738 19.8252L44.3747 19.8262L44.3783 19.8303L44.3931 19.8469L44.4511 19.9117C44.5019 19.9685 44.5767 20.0518 44.672 20.1574C44.8625 20.3685 45.1349 20.6687 45.4618 21.0243C46.1161 21.7359 46.9869 22.6673 47.8563 23.5505C48.73 24.4381 49.5873 25.2614 50.2187 25.7666C50.3238 25.8507 50.4176 25.9218 50.5 25.9808V25.9794V25.957V25.9342V25.9111V25.8875V25.8637V25.8395V25.8149V25.79V25.7647V25.739V25.7131V25.6867V25.6601V25.6331V25.6057V25.578V25.55V25.5217V25.493V25.4639V25.4346V25.4049V25.3749V25.3445V25.3139V25.2829V25.2516V25.22V25.188V25.1558V25.1232V25.0903V25.0571V25.0236V24.9898V24.9557V24.9213V24.8866V24.8516V24.8163V24.7807V24.7448V24.7086V24.6721V24.6353V24.5983V24.5609V24.5233V24.4854V24.4472V24.4088V24.37V24.331V24.2917V24.2521V24.2123V24.1722V24.1318V24.0912V24.0503V24.0091V23.9677V23.926V23.8841V23.8419V23.7994V23.7567V23.7138V23.6706V23.6272V23.5835V23.5396V23.4954V23.451V23.4064V23.3615V23.3164V23.271V23.2254V23.1796V23.1336V23.0874V23.0409V22.9942V22.9472V22.9001V22.8527V22.8052V22.7574V22.7094V22.6612V22.6128V22.5641V22.5153V22.4663V22.4171V22.3676V22.318V22.2682V22.2182V22.1679V22.1175V22.0669V22.0162V21.9652V21.9141V21.8627V21.8112V21.7595V21.7076V21.6556V21.6034V21.551V21.4984V21.4457V21.3928V21.3397V21.2865V21.2331V21.1796V21.1259V21.072V21.018V20.9638V20.9095V20.855V20.8004V20.7457V20.6908V20.6357V20.5805V20.5252V20.4697V20.4141V20.3584V20.3025V20.2465V20.1904V20.1341V20.0777V20.0212V19.9646V19.9078V19.851V19.794V19.7369V19.6796V19.6223V19.5649V19.5073V19.4497V19.3919V19.3341V19.2761V19.218V19.1599V19.1016V19.0433V18.9848V18.9263V18.8677V18.809V18.7502V18.6913V18.6323V18.5733V18.5141V18.4549V18.3957V18.3363V18.2769V18.2174V18.1578V18.0982V18.0385V17.9787V17.9189V17.859V17.7991V17.7391V17.6791V17.6189V17.5588V17.4986V17.4383V17.378V17.3177V17.2573V17.1969V17.1364V17.0759V17.0153V16.9548V16.8942V16.8335V16.7728V16.7121V16.6514V16.5907V16.5299V16.4691V16.4083V16.3475V16.2866V16.2258V16.1649V16.104V16.0431V15.9823V15.9214V15.8605V15.7996V15.7386V15.6777V15.6168V15.556V15.4951V15.4342V15.3733V15.3125V15.2516V15.1908V15.13V15.0692V15.0084V14.9477V14.887V14.8263V14.7656V14.705V14.6444V14.5838V14.5232V14.4627V14.4023V14.3418V14.2815V14.2211V14.1608V14.1006V14.0404V13.9802V13.9201V13.8601V13.8001V13.7401V13.6803V13.6204V13.5607V13.501V13.4414V13.3818V13.3223V13.2629V13.2036V13.1443V13.0851V13.026V12.9669V12.908V12.8491V12.7903V12.7316V12.673V12.6144V12.556V12.4977V12.4394V12.3813V12.3232V12.2652V12.2074V12.1496V12.092V12.0345V11.977V11.9197V11.8625V11.8054V11.7484V11.6916V11.6348V11.5782V11.5217V11.4653V11.4091V11.3529V11.297V11.2411V11.1854V11.1298V11.0743V11.019V10.9638V10.9088V10.8539V10.7991V10.7445V10.69V10.6357V10.5816V10.5276V10.4737V10.42V10.3665V10.3131V10.2599V10.2068V10.154V10.1012V10.0487V9.99632V9.94411V9.89208V9.84022V9.78854V9.73704V9.68572V9.63459V9.58363V9.53287V9.48229V9.4319V9.3817V9.33169V9.28188V9.23227V9.18285V9.13363V9.08462V9.0358V8.98719V8.93879V8.8906V8.84262V8.79485V8.74729V8.69995V8.65282V8.60591V8.55923V8.51276V8.46652V8.42051V8.37472V8.32916V8.28383V8.23873V8.19387V8.14925V8.10486V8.06071V8.0168V7.97313V7.92971V7.88654V7.84361V7.80093V7.75851V7.71634V7.67442V7.63276V7.59135V7.55021V7.50933V7.46871V7.42836V7.38827V7.34845V7.3089V7.26963V7.23063V7.1919V7.15345V7.11528V7.07739V7.03978V7.00246V6.96542V6.92867V6.89221V6.85604V6.82016V6.78458V6.74929V6.7143V6.67961V6.64522V6.61114V6.57736V6.54388V6.51071V6.47786V6.44531V6.41308V6.38116V6.34956V6.31828V6.28732V6.25668V6.22637V6.19638V6.16671V6.13738V6.10837V6.0797V6.05136V6.02336V5.9957V5.96837V5.94139V5.91474V5.88845V5.86249V5.83689V5.81164V5.78673V5.76218V5.73798V5.71414V5.69066V5.66754V5.64478V5.62238V5.60035V5.57868V5.55739V5.53646V5.5159V5.49998H37.5V5.51583V5.53638V5.55731V5.5786V5.60027V5.6223V5.64469V5.66745V5.69057V5.71405V5.73788V5.76208V5.78662V5.81152V5.83678V5.86238V5.88833V5.91462V5.94126V5.96824V5.99556V6.02322V6.05122V6.07956V6.10822V6.13722V6.16656V6.19621V6.2262V6.25651V6.28715V6.31811V6.34938V6.38098V6.41289V6.44512V6.47766V6.51051V6.54367V6.57714V6.61092V6.645V6.67939V6.71407V6.74906V6.78434V6.81992V6.85579V6.89196V6.92841V6.96516V7.00219V7.03951V7.07711V7.115V7.15317V7.19161V7.23033V7.26933V7.3086V7.34814V7.38796V7.42804V7.46839V7.509V7.54988V7.59101V7.63241V7.67407V7.71598V7.75815V7.80057V7.84324V7.88617V7.92933V7.97275V8.01641V8.06031V8.10446V8.14884V8.19346V8.23832V8.28341V8.32873V8.37429V8.42007V8.46608V8.51231V8.55877V8.60545V8.65236V8.69948V8.74681V8.79437V8.84213V8.89011V8.9383V8.98669V9.0353V9.0841V9.13311V9.18232V9.23174V9.28135V9.33115V9.38115V9.43134V9.48173V9.5323V9.58306V9.63401V9.68514V9.73646V9.78795V9.83962V9.89148V9.9435V9.9957V10.0481V10.1006V10.1533V10.2062V10.2593V10.3125V10.3658V10.4194V10.473V10.5269V10.5809V10.635V10.6893V10.7438V10.7984V10.8532V10.908V10.9631V11.0183V11.0736V11.129V11.1846V11.2403V11.2962V11.3522V11.4083V11.4646V11.5209V11.5774V11.634V11.6908V11.7476V11.8046V11.8617V11.9189V11.9762V12.0336V12.0912V12.1488V12.2066V12.2644V12.3224V12.3804V12.4386V12.4968V12.5551V12.6136V12.6721V12.7307V12.7894V12.8482V12.9071V12.966V13.0251V13.0842V13.1434V13.2026V13.262V13.3214V13.3809V13.4404V13.5V13.5597V13.6195V13.6793V13.7392V13.7991V13.8591V13.9191V13.9792V14.0394V14.0996V14.1598V14.2201V14.2804V14.3408V14.4012V14.4617V14.5222V14.5827V14.6433V14.7039V14.7646V14.8252V14.8859V14.9466V15.0074V15.0681V15.1289V15.1897V15.2505V15.3114V15.3722V15.4331V15.494V15.5549V15.6157V15.6766V15.7375V15.7984V15.8593V15.9202V15.9811V16.042V16.1029V16.1638V16.2246V16.2855V16.3463V16.4071V16.468V16.5287V16.5895V16.6503V16.711V16.7717V16.8323V16.893V16.9536V17.0142V17.0747V17.1352V17.1957V17.2561V17.3165V17.3768V17.4371V17.4974V17.5576V17.6177V17.6778V17.7379V17.7979V17.8578V17.9177V17.9775V18.0373V18.097V18.1566V18.2162V18.2756V18.3351V18.3944V18.4537V18.5129V18.572V18.6311V18.69V18.7489V18.8077V18.8664V18.925V18.9836V19.042V19.1004V19.1586V19.2168V19.2748V19.3328V19.3907V19.4484V19.5061V19.5636V19.621V19.6784V19.7356V19.7927V19.8497V19.9065V19.9633V20.0199V20.0764V20.1328V20.1891V20.2452V20.3012V20.3571V20.4128V20.4684V20.5239V20.5792V20.6344V20.6895V20.7444V20.7992V20.8538V20.9082V20.9626V21.0167V21.0708V21.1246V21.1783V21.2319V21.2853V21.3385V21.3915V21.4444V21.4972V21.5497V21.6021V21.6543V21.7064V21.7583V21.81V21.8615V21.9128V21.964V22.0149V22.0657V22.1163V22.1667V22.2169V22.2669V22.3168V22.3664V22.4158V22.4651V22.5141V22.5629V22.6116V22.66V22.7082V22.7562V22.804V22.8516V22.8989V22.9461V22.993V23.0397V23.0862V23.1324V23.1785V23.2243V23.2699V23.3152V23.3603V23.4052V23.4499V23.4943V23.5384V23.5824V23.6261V23.6695V23.7127V23.7556V23.7983V23.8408V23.883V23.9249V23.9666V24.0081V24.0492V24.0901V24.1308V24.1711V24.2113V24.2511V24.2907V24.33V24.369V24.4078V24.4462V24.4844V24.5223V24.56V24.5973V24.6344V24.6712V24.7077V24.7439V24.7798V24.8154V24.8507V24.8857V24.9204V24.9549V24.989V25.0228V25.0563V25.0895V25.1224V25.1549V25.1872V25.2192V25.2508V25.2821V25.3131V25.3438V25.3741V25.4041V25.4338V25.4632V25.4922V25.5209V25.5493V25.5773V25.605V25.6324V25.6594V25.6861V25.7124V25.7384V25.7641V25.7894V25.8143V25.8389V25.8631V25.887V25.9105V25.9337V25.9565V25.9789V25.982C37.5824 25.923 37.6762 25.8519 37.7814 25.7678C38.4127 25.2627 39.2699 24.4394 40.1436 23.5517C41.0131 22.6683 41.8839 21.7366 42.5381 21.0248C42.865 20.6691 43.1374 20.3688 43.328 20.1576C43.4232 20.052 43.498 19.9686 43.5489 19.9118L43.6069 19.8469L43.6216 19.8304L43.6253 19.8263L43.6262 19.8253L43.6264 19.825L44 20.1573ZM50.8964 26.2117C50.8965 26.2121 50.8926 26.2114 50.8841 26.2086C50.8919 26.21 50.8962 26.2114 50.8964 26.2117ZM37.1042 26.2123C37.1044 26.212 37.1087 26.2106 37.1165 26.2092C37.1079 26.212 37.104 26.2127 37.1042 26.2123Z" stroke="black"/>
</g>
</g>
<defs>
<filter id="filter0_d_0_3162" x="36" y="2.99998" width="22" height="29.7065" filterUnits="userSpaceOnUse" color-interpolation-filters="sRGB">
<feFlood flood-opacity="0" result="BackgroundImageFix"/>
<feColorMatrix in="SourceAlpha" type="matrix" values="0 0 0 0 0 0 0 0 0 0 0 0 0 0 0 0 0 0 127 0" result="hardAlpha"/>
<feOffset dx="3" dy="2"/>
<feGaussianBlur stdDeviation="2"/>
<feColorMatrix type="matrix" values="0 0 0 0 0 0 0 0 0 0 0 0 0 0 0 0 0 0 0.05 0"/>
<feBlend mode="normal" in2="BackgroundImageFix" result="effect1_dropShadow_0_3162"/>
<feBlend mode="normal" in="SourceGraphic" in2="effect1_dropShadow_0_3162" result="shape"/>
</filter>
<clipPath id="clip0_0_3162">
<rect width="374" height="156" fill="white" transform="translate(0 0.462341)"/>
</clipPath>
</defs>
</svg>
