<svg width="20" height="21" viewBox="0 0 20 21" fill="none" xmlns="http://www.w3.org/2000/svg">
<path d="M6.89742 5.00357L9.21396 2.60925L9.20843 15.2377C9.20843 15.6895 9.56288 16.0557 10.0001 16.0557C10.4374 16.0557 10.7918 15.6895 10.7918 15.2377L10.7974 2.62316L13.1028 5.00603C13.4174 5.31987 13.9185 5.3109 14.2223 4.98593C14.5186 4.66894 14.5186 4.16637 14.2223 3.84937L11.6801 1.21946C10.7529 0.260778 9.24903 0.260279 8.32117 1.21835C8.32079 1.21873 8.32046 1.21908 8.32009 1.21946L5.77791 3.84692C5.47416 4.17189 5.48284 4.68973 5.79736 5.00357C6.10416 5.30975 6.59058 5.30975 6.89742 5.00357Z" fill="#C6CEDD"/>
<path d="M19.1666 13.8335C18.7064 13.8335 18.3333 14.2066 18.3333 14.6668V18.0001C18.3333 18.4604 17.9602 18.8334 17.5 18.8334H2.49996C2.03973 18.8334 1.66664 18.4604 1.66664 18.0001V14.6668C1.66664 14.2066 1.29355 13.8335 0.83332 13.8335C0.373086 13.8335 0 14.2066 0 14.6668V18.0001C0 19.3808 1.1193 20.5001 2.5 20.5001H17.5C18.8807 20.5001 20 19.3808 20 18.0001V14.6668C19.9999 14.2066 19.6268 13.8335 19.1666 13.8335Z" fill="#C6CEDD"/>
</svg>
