<svg width="15" height="20" viewBox="0 0 15 20" fill="none" xmlns="http://www.w3.org/2000/svg">
<path fill-rule="evenodd" clip-rule="evenodd" d="M12.5 5C12.5 7.76142 10.2614 10 7.5 10C4.73972 9.99724 2.50276 7.76028 2.5 5C2.5 2.23858 4.73858 0 7.5 0C10.2614 0 12.5 2.23858 12.5 5ZM10.8333 5C10.8333 3.15905 9.34095 1.66667 7.5 1.66667C5.65905 1.66667 4.16667 3.15905 4.16667 5C4.16667 6.84095 5.65905 8.33333 7.5 8.33333C9.34095 8.33333 10.8333 6.84095 10.8333 5Z" fill="#C9EB49"/>
<path d="M7.5 11.6667C3.35977 11.6713 0.00459261 15.0264 0 19.1667C0 19.6269 0.373096 20 0.833333 20C1.29357 20 1.66667 19.6269 1.66667 19.1667C1.66667 15.945 4.27834 13.3333 7.5 13.3333C10.7217 13.3333 13.3333 15.945 13.3333 19.1667C13.3333 19.6269 13.7064 20 14.1667 20C14.6269 20 15 19.6269 15 19.1667C14.9954 15.0264 11.6402 11.6713 7.5 11.6667Z" fill="#C9EB49"/>
</svg>
